<svg width="800" height="600" viewBox="0 0 800 600" fill="none" xmlns="http://www.w3.org/2000/svg">
<path fill-rule="evenodd" clip-rule="evenodd" d="M320.937 242.432C331.928 208.901 357.923 183 401.377 183C441.758 183 471.429 209.261 482.193 243.16C470.96 211.556 439.044 188.766 401.432 188.766C364.102 188.766 332.397 211.204 320.937 242.432ZM482.013 293.716C471.077 327.333 440.334 353.477 401.377 353.477C360.058 353.477 332.28 327.686 321.117 294.444C332.726 325.406 364.298 347.609 401.432 347.609C438.856 347.609 470.631 325.061 482.013 293.716Z" fill="#231F20"/>
<mask id="mask0" mask-type="alpha" maskUnits="userSpaceOnUse" x="177" y="183" width="445" height="234">
<path d="M177 183.001L177 416.904L621.992 416.904V183.001" fill="white"/>
</mask>
<g mask="url(#mask0)">
<path fill-rule="evenodd" clip-rule="evenodd" d="M381.187 238.398C380.108 235.766 380.178 231.481 382.494 227.54C383.949 225.064 387.813 223.967 391.192 225.268C394.979 222.322 395.886 225.495 399.226 224.061C403.638 222.181 401.174 229.052 405.43 230.791C407.198 226.161 401.417 222.675 405.038 220.489C407.628 218.93 409.583 217.966 410.639 215.882C412.149 212.905 412.744 210.735 413.909 210.336C416.585 209.435 416.006 206.92 416.006 206.92C416.006 206.92 418.869 207.742 421.091 205.69C419.393 204.781 416.913 204.005 417.57 202.203C418.329 200.08 424.087 204.397 425.792 200.919C422.366 199.446 418.869 196.249 416.78 195.513C415.349 197.056 414.457 196.437 412.603 194.996C409.482 192.544 409.216 194.87 407.26 193.186C405.696 196.281 408.05 196.038 408.77 196.813C410.78 198.984 406.736 194.863 407.127 200.402C407.229 201.835 405.07 202.109 403.474 198.984C402.645 197.37 395.995 197.707 394.986 196.155C395.909 194.346 403.732 187.914 415.74 189.449C398.295 182.688 374.718 190.084 374.483 192.653C372.129 194.103 372.934 195.764 371.761 196.155C369.735 196.821 367.513 202.948 367.513 202.948C367.513 202.948 368.788 203.778 364.838 208.142C361.591 211.738 360.629 217.167 360.629 217.167C360.629 217.167 362.773 221.045 362.366 225.519C362.053 228.927 361.912 226.396 363.414 228.864C364.29 230.313 365.245 235.359 365.831 233.392C366.934 229.64 363.797 226.161 364.329 222.424C364.439 222.894 365.526 220.943 365.479 222.706C365.37 227.321 371.245 236.205 371.245 236.205C371.245 236.205 369.046 238.406 371.338 238.406L381.187 238.398ZM417.852 293.639C419.018 294.109 420.48 295.26 421.153 297.015C422.741 301.175 420.379 297.807 420.379 304.09C420.379 309.864 418.728 308.931 418.728 308.931C418.728 308.931 418.368 315.755 414.793 319.954C412.517 322.211 414.285 324.083 414.285 324.083C414.285 324.083 413.518 324.514 412.407 329.458C412.048 331.064 414.121 333.539 415.928 332.92C417.281 332.458 412.642 332.019 417.672 329.92C419.596 329.121 418.016 327.593 418.016 327.593C418.016 327.593 421.278 327.35 423.109 322.493C426.355 322.955 425.151 320.996 431.823 319.578C433.583 319.202 433.959 318.677 433.74 317.04C433.513 315.403 435.915 317.275 442.532 310.624C447.742 305.367 445.865 304.192 449.463 302.288C453.273 300.282 453.625 302.46 454.892 300.831C457.81 297.094 456.778 297.329 457.998 294.947L458.851 293.639H417.852ZM403.083 234.152C403.599 233.377 405.171 233.886 406.274 233.909C407.776 233.948 407.417 236.126 409.482 235.688C411.539 235.257 411.563 237.623 414.496 237.537C417.445 237.45 413.909 238.547 413.909 238.547C413.909 238.547 412.087 237.685 410.905 238.265C410.287 238.571 411.14 238.085 410.1 237.247C408.48 235.938 408.692 237.497 405.985 235.218C404.068 233.612 402.23 235.413 403.083 234.152Z" fill="#231F20"/>
</g>
<path d="M256.142 250.759H242.89L244.869 253.086V270.259C244.869 274.121 242.28 275.751 238.416 275.751C234.544 275.751 231.954 274.121 231.954 270.259V253.086L233.933 250.759H220.682L222.661 253.086V270.541C222.661 279.104 227.519 282.402 238.416 282.402C249.305 282.402 254.163 279.104 254.163 270.541V253.086L256.142 250.759Z" fill="#231F20"/>
<path d="M302.131 250.761H290.953L292.94 253.088V268.725L276.911 250.761H266.859L268.846 253.088V279.474L266.859 281.801H278.038L276.058 279.474V263.562L293.08 281.801H300.152V253.088L302.131 250.761Z" fill="#231F20"/>
<path d="M327.884 281.801L325.904 279.474V253.088L327.884 250.761H314.538L316.517 253.088V279.474L314.538 281.801H327.884Z" fill="#231F20"/>
<path d="M371.886 250.761H360.668L362.647 253.088L354.723 270.167L347.088 253.088L349.067 250.761H335.863L350.522 281.801H357.086L371.886 250.761Z" fill="#231F20"/>
<path d="M409.357 281.801V273.379L407.002 275.33H390.919V269.375H401.104L403.411 271.326V261.228L401.104 263.186H390.919V257.232H407.002L409.357 259.183V250.761H379.748L381.727 253.088V279.474L379.748 281.801H409.357Z" fill="#231F20"/>
<path fill-rule="evenodd" clip-rule="evenodd" d="M443.596 260.812C443.596 263.045 441.43 264.863 438.41 264.863H432.426V257.232H439.544C441.609 257.232 443.596 258.258 443.596 260.812ZM454.439 281.801L445.904 269.563C450.105 267.887 453.023 264.675 453.023 260.162C453.023 254.999 449.815 250.761 440.866 250.761H421.247L423.226 253.088V279.474L421.247 281.801H434.405L432.426 279.474V270.676H436.376L442.415 279.474L440.436 281.801H454.439Z" fill="#231F20"/>
<path d="M494.272 272.728C494.272 267.792 490.251 265.05 484.454 263.185C480.684 262.026 475.356 261.188 475.356 258.72C475.356 257.505 476.819 256.675 479.369 256.675C482.757 256.675 488.319 258.069 492.66 260.114V249.734L490.165 252.108C487.521 251.042 482.944 249.922 479.792 249.922C469.09 249.922 465.641 254.583 465.641 258.814C465.641 264.58 469.513 267.095 475.591 269.186C480.113 270.722 484.313 270.871 484.313 273.425C484.313 275.619 481.724 275.893 480.402 275.893C477.054 275.893 471.109 274.725 465.828 271.333V282.826L468.332 280.123C470.78 281.056 476.303 282.638 480.824 282.638C490.11 282.638 494.272 278.588 494.272 272.728Z" fill="#231F20"/>
<path fill-rule="evenodd" clip-rule="evenodd" d="M526.165 270.629H515.745L520.923 259.512L526.165 270.629ZM541.294 281.801L525.828 250.761H515.221L516.347 253.088L502.345 281.801H513.907L511.92 279.474L513.476 276.215H528.464L529.982 279.474L528.003 281.801H541.294Z" fill="#231F20"/>
<path d="M578.561 281.801V273.379L576.206 275.33H561.069V253.088L563.048 250.761H549.891L551.87 253.088V279.474L549.891 281.801H578.561Z" fill="#231F20"/>
<path d="M569.752 255.062C569.752 252.673 571.724 250.73 574.141 250.73C576.566 250.73 578.529 252.673 578.529 255.062C578.529 257.452 576.566 259.395 574.141 259.395C571.724 259.395 569.752 257.452 569.752 255.062ZM570.167 255.062C570.167 257.232 571.951 258.987 574.141 258.987C576.339 258.987 578.123 257.232 578.123 255.062C578.123 252.892 576.339 251.137 574.141 251.137C571.951 251.137 570.167 252.892 570.167 255.062Z" fill="#231F20"/>
<path fill-rule="evenodd" clip-rule="evenodd" d="M575.792 253.37C575.361 253.002 574.845 252.837 574.274 252.837C572.983 252.837 572.021 253.824 572.021 255.078C572.021 256.339 572.968 257.334 574.258 257.334C574.845 257.334 575.408 257.122 575.854 256.739V256.174C575.455 256.645 574.868 256.942 574.243 256.942C573.21 256.942 572.443 256.057 572.443 255.078C572.443 254.098 573.218 253.229 574.25 253.229C574.876 253.229 575.385 253.479 575.792 253.926V253.37Z" fill="#231F20"/>
<path d="M198.771 397.278V408.795C198.771 414.443 195.61 416.629 188.531 416.629C181.443 416.629 178.291 414.443 178.291 408.795V397.278L177 395.742H185.613L184.33 397.278V408.614C184.33 411.16 186.012 412.234 188.531 412.234C191.042 412.234 192.731 411.16 192.731 408.614V397.278L191.441 395.742H200.061L198.771 397.278Z" fill="#231F20"/>
<path d="M233.362 397.279V416.23H228.763L217.694 404.189V414.695L218.976 416.23H211.709L213 414.695V397.279L211.709 395.744H218.241L228.669 407.597V397.279L227.378 395.744H234.653L233.362 397.279Z" fill="#231F20"/>
<path d="M247.373 416.23L248.663 414.695V397.279L247.373 395.744H256.048L254.765 397.279V414.695L256.048 416.23H247.373Z" fill="#231F20"/>
<path d="M279.821 416.23H275.558L266.022 395.744H274.611L273.32 397.279L278.288 408.553L283.443 397.279L282.152 395.744H289.451L279.821 416.23Z" fill="#231F20"/>
<path d="M299.26 416.23L300.551 414.695V397.279L299.26 395.744H318.52V401.306L316.987 400.013H306.528V403.946H313.153L314.655 402.653V409.321L313.153 408.028H306.528V411.961H316.987L318.52 410.676V416.23H299.26Z" fill="#231F20"/>
<path d="M342.833 400.013H338.202V405.051H342.097C344.061 405.051 345.469 403.852 345.469 402.379C345.469 400.687 344.186 400.013 342.833 400.013ZM343.411 416.23L344.702 414.695L340.775 408.89H338.202V414.695L339.492 416.23H330.934L332.225 414.695V397.279L330.934 395.744H343.693C349.521 395.744 351.602 398.54 351.602 401.948C351.602 404.925 349.701 407.049 346.971 408.153L352.525 416.23H343.411Z" fill="#231F20"/>
<path d="M374.358 416.779C371.417 416.779 367.826 415.737 366.23 415.118L364.603 416.904V409.313C368.045 411.553 371.902 412.329 374.084 412.329C374.945 412.329 376.627 412.141 376.627 410.699C376.627 409.007 373.896 408.913 370.955 407.903C366.997 406.524 364.486 404.863 364.486 401.055C364.486 398.258 366.723 395.187 373.685 395.187C375.735 395.187 378.715 395.924 380.428 396.637L382.055 395.062V401.917C379.231 400.562 375.617 399.637 373.411 399.637C371.753 399.637 370.799 400.194 370.799 400.993C370.799 402.622 374.264 403.178 376.72 403.946C380.491 405.168 383.096 406.978 383.096 410.237C383.096 414.107 380.397 416.779 374.358 416.779Z" fill="#231F20"/>
<path d="M405.148 401.517L401.776 408.858H408.543L405.148 401.517ZM409.748 416.223L411.031 414.695L410.053 412.54H400.306L399.289 414.695L400.58 416.223H393.062L402.175 397.279L401.44 395.744H408.332L418.376 416.223H409.748Z" fill="#231F20"/>
<path d="M428.647 416.23L429.938 414.695V397.279L428.647 395.744H437.205L435.915 397.279V411.961H445.755L447.289 410.676V416.23H428.647Z" fill="#231F20"/>
<path d="M496.329 416.23L497.62 414.695V404.871L492.191 416.23H489.336L483.203 404.683V414.695L484.493 416.23H477.406L478.697 414.695V397.279L477.406 395.744H484.618L491.268 408.271L497.338 395.744H504.699L503.416 397.279V414.695L504.699 416.23H496.329Z" fill="#231F20"/>
<path d="M538.118 397.278V408.795C538.118 414.443 534.957 416.629 527.878 416.629C520.798 416.629 517.638 414.443 517.638 408.795V397.278L516.347 395.742H524.96L523.677 397.278V408.614C523.677 411.16 525.367 412.234 527.878 412.234C530.389 412.234 532.079 411.16 532.079 408.614V397.278L530.788 395.742H539.408L538.118 397.278Z" fill="#231F20"/>
<path d="M560.631 416.779C557.69 416.779 554.099 415.737 552.503 415.118L550.876 416.904V409.313C554.311 411.553 558.175 412.329 560.35 412.329C561.21 412.329 562.9 412.141 562.9 410.699C562.9 409.007 560.17 408.913 557.228 407.903C553.27 406.524 550.759 404.863 550.759 401.055C550.759 398.258 552.996 395.187 559.958 395.187C562.008 395.187 564.981 395.924 566.702 396.637L568.329 395.062V401.917C565.505 400.562 561.891 399.637 559.677 399.637C558.018 399.637 557.072 400.194 557.072 400.993C557.072 402.622 560.537 403.178 562.994 403.946C566.764 405.168 569.369 406.978 569.369 410.237C569.369 414.107 566.67 416.779 560.631 416.779Z" fill="#231F20"/>
<path d="M581.792 416.23L583.082 414.695V397.279L581.792 395.744H590.475L589.184 397.279V414.695L590.475 416.23H581.792Z" fill="#231F20"/>
<path d="M613.958 416.621C607.731 416.621 602.123 413.55 602.123 405.966C602.123 399.973 606.417 395.343 614.209 395.343C616.563 395.343 619.106 395.891 620.553 396.448L621.969 395.092V401.916C619.755 400.561 617.424 399.761 614.537 399.761C610.219 399.761 608.529 402.652 608.529 405.966C608.529 409.68 610.986 412.202 614.725 412.202C618.503 412.202 620.764 410.722 622 409.962V414.749C620.521 415.61 617.001 416.621 613.958 416.621Z" fill="#231F20"/>
</svg>
