<svg width="800" height="600" viewBox="0 0 800 600" fill="none" xmlns="http://www.w3.org/2000/svg">
<path d="M335.007 337.538H328.912C327.311 337.538 326.407 336.533 326.407 334.826V276.942H307.745C306.144 276.942 305.244 276.336 305.244 274.731V268.799C305.244 266.89 306.144 266.389 307.745 266.389H356.073C357.674 266.389 358.675 266.89 358.675 268.799V274.731C358.675 276.336 357.775 276.942 356.073 276.942H337.508V334.826C337.508 336.634 336.507 337.538 335.007 337.538ZM367.484 337.457H360.981C359.478 337.457 358.679 336.451 358.679 334.843V289.621C358.679 287.813 359.579 286.706 361.379 286.706H367.184C368.785 286.706 369.487 287.21 369.584 288.818L369.787 290.528C371.786 287.914 376.991 285.704 382.492 285.704C383.996 285.704 385.196 285.802 386.396 286.103C387.397 286.306 387.997 287.312 387.997 288.619C387.997 290.024 387.798 293.24 387.498 294.645C387.296 295.752 386.396 296.155 385.297 296.155C383.996 296.155 381.794 295.952 380.591 295.952C376.889 295.952 373.687 296.758 371.988 297.462C371.388 297.763 370.484 298.366 370.184 298.867C369.986 299.27 369.787 299.873 369.787 300.878V334.843C369.787 336.451 369.085 337.457 367.484 337.457ZM411.894 338.533C402.387 338.533 398.585 336.018 397.085 331.999C396.185 329.483 396.084 325.766 396.084 322.048V289.387C396.084 287.88 396.586 286.777 398.386 286.777H404.889C406.49 286.777 407.191 287.779 407.191 289.387V319.235C407.191 321.144 407.39 323.555 407.791 324.764C408.59 327.174 410.694 328.278 415.696 328.278C420.497 328.278 423.901 327.476 425.702 326.67C426.302 326.47 427.303 326.067 427.802 325.366C428.203 324.862 428.304 324.259 428.304 322.549V289.387C428.304 287.88 429.103 286.777 430.704 286.777H437.109C438.609 286.777 439.408 287.681 439.408 289.387V334.511C439.408 336.319 438.609 337.423 436.809 337.423H431.105C429.204 337.423 428.702 336.722 428.503 335.215L428.402 333.705C425.102 336.922 418.097 338.533 411.894 338.533ZM515.865 335.822C515.764 337.227 514.864 337.43 512.963 337.43H508.86C506.959 337.43 506.16 336.827 506.16 334.413V269.202C506.16 267.394 507.06 266.389 508.56 266.389H514.965C516.866 266.389 517.267 267.293 517.267 269.202V289.902C520.766 287.19 526.77 285.684 533.475 285.684C545.382 285.684 551.588 292.516 551.588 311.008C551.588 333.316 543.781 338.642 527.974 338.642C523.77 338.642 517.867 336.631 515.966 334.823L515.865 335.822ZM569.469 337.426H562.966C561.462 337.426 560.663 336.624 560.663 334.812V289.39C560.663 287.884 561.263 286.777 562.966 286.777H569.57C571.37 286.777 571.771 287.782 571.771 289.289V334.812C571.771 336.42 570.969 337.426 569.469 337.426ZM566.098 279.853C562.197 279.853 559.595 278.249 559.595 273.221C559.595 268.4 562.197 266.389 566.098 266.389C570.102 266.389 572.6 268.098 572.6 273.123C572.6 277.846 570.5 279.853 566.098 279.853ZM594.049 337.443H587.546C586.042 337.443 585.244 336.641 585.244 334.83V269.002C585.244 267.394 585.844 266.389 587.644 266.389H594.15C595.95 266.389 596.351 267.296 596.351 268.904V334.83C596.351 336.438 595.549 337.443 594.049 337.443ZM619.698 337.443H613.195C611.691 337.443 610.892 336.641 610.892 334.83V269.002C610.892 267.394 611.492 266.389 613.293 266.389H619.799C621.599 266.389 622 267.296 622 268.904V334.83C622 336.438 621.198 337.443 619.698 337.443ZM474.903 328.715C480.505 328.715 485.11 327.709 488.41 326.805C489.112 326.602 490.211 326.199 491.013 326.199C491.913 326.199 492.415 326.805 492.715 327.608C493.214 329.114 494.017 332.029 494.017 333.035C494.017 334.24 493.615 334.745 492.415 335.347C487.709 337.558 479.804 338.662 474.003 338.662C456.193 338.662 450.587 330.523 450.587 312.433C450.587 293.24 458.293 285.704 474.201 285.704C492.715 285.704 494.917 296.355 494.917 311.831C494.917 313.439 494.617 314.644 493.915 315.247C493.413 315.65 492.614 315.849 491.613 315.849H461.796C461.995 326.403 466.398 328.715 474.903 328.715ZM483.422 306.95C483.523 306.348 483.523 305.745 483.523 304.939C483.523 298.005 482.215 294.288 473.508 294.288C464.504 294.288 461.473 298.51 461.274 306.95H483.422ZM526.151 328.693C537.558 328.693 539.959 324.874 539.959 312.11C539.959 300.554 537.956 296.434 529.053 296.434C525.652 296.434 520.946 296.935 518.445 298.543C517.845 298.946 517.346 299.349 517.147 299.952C516.944 300.351 516.847 301.157 516.847 301.959V326.881C518.445 327.789 523.049 328.693 526.151 328.693Z" fill="#323333"/>
<path fill-rule="evenodd" clip-rule="evenodd" d="M292.563 299.659C292.563 266.622 266.356 246 235.623 246C232.875 246 230.188 246.105 227.414 246.345C225.567 246.508 225.338 249.115 227.121 249.612C238.232 252.707 247.233 259.272 253.526 267.644C260.781 277.3 263.242 288.192 263.353 298.887C263.356 299.317 263.703 299.663 264.135 299.663L269.738 299.659C271.153 299.659 271.942 301.301 271.056 302.408L257.437 319.435C256.766 320.278 255.485 320.278 254.811 319.435L241.188 302.402C240.305 301.295 241.09 299.656 242.503 299.656H249.114C249.552 299.656 249.909 299.297 249.906 298.86C249.781 288.209 247.131 280.402 241.519 273.779C234.638 265.657 224.65 260.782 213.34 260.782C200.537 260.782 177 269.398 177 299.656C177 332.696 203.274 353.305 234.021 353.305C236.728 353.305 239.378 353.207 242.109 352.973C243.979 352.814 244.212 350.18 242.405 349.672C231.348 346.564 222.388 340.013 216.118 331.671C208.86 322.018 206.402 311.126 206.291 300.431C206.284 299.998 205.937 299.652 205.509 299.652L199.906 299.656C198.49 299.656 197.702 298.014 198.588 296.907L212.204 279.88C212.878 279.041 214.156 279.041 214.83 279.88L228.452 296.917C229.339 298.021 228.55 299.659 227.138 299.659H220.53C220.092 299.659 219.735 300.018 219.738 300.455C219.863 311.106 222.513 318.913 228.125 325.536C235.006 333.658 244.991 338.537 256.304 338.537C269.93 338.537 292.563 329.372 292.563 299.659Z" fill="url(#paint0_linear)"/>
<defs>
<linearGradient id="paint0_linear" x1="234.782" y1="353.305" x2="234.782" y2="246" gradientUnits="userSpaceOnUse">
<stop stop-color="#1DBBCB"/>
<stop offset="1" stop-color="#349AD7"/>
</linearGradient>
</defs>
</svg>
