<svg width="800" height="600" viewBox="0 0 800 600" fill="none" xmlns="http://www.w3.org/2000/svg">
<path d="M399.5 433C326.322 433 267 373.678 267 300.5C267 227.322 326.322 168 399.5 168C472.678 168 532 227.322 532 300.5C532 373.678 472.678 433 399.5 433ZM330.426 300.118L353.038 277.449C353.788 276.685 354.206 275.673 354.206 274.601C354.206 272.365 352.389 270.549 350.153 270.549C349.064 270.549 348.043 270.976 347.273 271.756C347.271 271.76 324.681 294.336 324.681 294.336L301.988 271.722C301.221 270.965 300.206 270.549 299.128 270.549C296.895 270.549 295.077 272.364 295.077 274.597C295.077 275.687 295.511 276.71 296.293 277.48L318.902 300.086L296.305 322.726C295.51 323.507 295.077 324.533 295.077 325.627C295.077 327.862 296.895 329.676 299.128 329.676C300.207 329.676 301.224 329.257 301.988 328.492L324.646 305.865L347.218 328.409C348.018 329.237 349.051 329.679 350.153 329.679C352.387 329.679 354.204 327.862 354.204 325.627C354.204 324.548 353.787 323.535 353.026 322.77L330.426 300.118ZM442.502 300.114C442.502 316.493 455.828 329.818 472.21 329.818C488.592 329.818 501.926 316.493 501.926 300.114C501.926 283.733 488.592 270.403 472.21 270.403C455.828 270.403 442.502 283.733 442.502 300.114ZM450.888 300.114C450.888 288.357 460.453 278.792 472.21 278.792C483.963 278.792 493.528 288.357 493.528 300.114C493.528 311.868 483.963 321.43 472.21 321.43C460.453 321.43 450.888 311.868 450.888 300.114ZM466.613 300.112C466.613 303.199 469.125 305.711 472.213 305.711C475.302 305.711 477.815 303.199 477.815 300.112C477.815 297.023 475.302 294.51 472.213 294.51C469.125 294.51 466.613 297.023 466.613 300.112ZM440.393 270.912L439.147 270.908C435.405 270.908 431.796 272.089 428.782 274.412C428.384 272.594 426.759 271.227 424.824 271.227C422.597 271.227 420.812 273.011 420.807 275.243C420.807 275.25 420.82 325.28 420.82 325.28C420.826 327.507 422.643 329.319 424.872 329.319C427.1 329.319 428.917 327.507 428.922 325.274C428.922 325.266 428.925 294.508 428.925 294.508C428.925 284.253 429.862 280.113 438.646 279.015C439.459 278.914 440.341 278.93 440.345 278.93C442.749 278.847 444.456 277.195 444.456 274.963C444.456 272.729 442.633 270.912 440.393 270.912ZM412.592 294.458C410.846 286.192 406.322 279.402 399.43 275.042C389.357 268.647 376.055 269 366.325 275.92C358.389 281.565 353.808 290.802 353.808 300.317C353.808 302.702 354.095 305.11 354.694 307.48C357.691 319.269 367.825 328.193 379.909 329.673C383.494 330.107 386.983 329.899 390.597 328.962C393.703 328.207 396.708 326.947 399.476 325.173C402.35 323.326 404.751 320.89 407.077 317.974C407.123 317.92 407.171 317.873 407.217 317.816C408.831 315.815 408.532 312.969 406.759 311.61C405.263 310.464 402.751 309.999 400.776 312.529C400.352 313.135 399.878 313.756 399.356 314.379C397.785 316.115 395.836 317.797 393.5 319.102C390.529 320.689 387.141 321.597 383.542 321.618C371.757 321.486 365.452 313.259 363.208 307.388C362.816 306.293 362.514 305.154 362.303 303.984C362.276 303.765 362.255 303.553 362.247 303.359C364.685 303.359 404.536 303.351 404.536 303.351C410.334 303.23 413.454 299.138 412.592 294.458ZM362.599 295.223C362.599 295.113 362.608 294.996 362.613 294.883C364.966 285.584 373.387 278.704 383.415 278.704C393.566 278.704 402.064 285.753 404.297 295.223H362.599Z" fill="#00B7E2"/>
</svg>
