<svg width="800" height="600" viewBox="0 0 800 600" fill="none" xmlns="http://www.w3.org/2000/svg">
<path d="M530.936 207.368C537.676 206.08 545.33 206.915 550.489 211.852C559.059 219.116 559.636 233.466 551.937 241.574C545.135 249.326 532.41 250.525 524.231 244.247C519.063 240.313 515.6 233.955 515.76 227.375C515.564 218.317 522.198 209.668 530.936 207.368ZM531.726 212.687C523.397 215.227 518.584 225.643 522.42 233.546C525.146 240.339 533.218 244.415 540.295 242.435C547.683 240.73 553.189 233.155 552.017 225.554C551.191 216.168 540.624 209.428 531.726 212.687Z" fill="#999999"/>
<path d="M577.698 239.585C582.475 237.685 587.723 237.995 592.758 238.209C604.817 239.683 615.598 248.589 619.451 260.098C620.819 265.053 621.811 270.501 621.165 275.354C619.602 287.102 611.154 298.069 599.93 302.216C599.681 307.562 599 313.001 598.113 317.951C600.058 310.545 600.599 302.686 599.116 295.147C607.659 291.409 613.555 282.804 614.479 273.595C615.562 263.002 609.47 252.248 599.96 247.541C591.906 243.421 581.632 243.821 574.039 248.793C569.111 251.866 565.532 256.67 563.161 261.909C557.007 260.879 550.738 261.687 544.664 262.797C548.358 261.341 552.345 261.137 556.27 261.101C559.618 251.156 567.557 242.684 577.698 239.585Z" fill="#999999"/>
<path d="M555 272.5C554.415 272.633 561 272.5 561.5 272.5C562 272.5 561.5 273.075 561.785 274.918C563.676 287.154 575.352 297.386 587.828 297.795C587.695 296.507 586.72 295.102 586.56 293.832C588.043 298.441 589.995 303.723 589 308.5C589.591 307.132 588.377 305.788 588.333 304.5C578.795 304.403 568.871 300.03 562.735 292.731C558.295 287.403 555.391 280.761 554.921 273.808C554.921 273 555.585 272.367 555 272.5Z" fill="#999999"/>
<path d="M350.254 261.846C364.862 259.768 380.162 263.791 391.955 272.635C389.753 275.885 387.559 279.135 385.313 282.35C379.292 279.002 373.245 275.308 366.309 274.216C357.9 272.99 348.976 273.825 341.303 277.661C337.067 279.828 333.871 284.694 335.336 289.534C336.135 294.427 341.605 296.3 345.93 296.638C355.334 297.233 364.809 296.274 374.195 297.384C382.48 298.582 390.729 303.067 394.814 310.606C398.304 317.097 398.57 325.285 395.489 331.98C391.235 339.786 382.72 344.137 374.337 345.984C367.1 347.982 359.543 347.565 352.128 347.431C339.003 346.916 326.403 340.754 317.469 331.216C320.027 328.499 322.753 325.942 325.532 323.464L326.127 323.491C331.411 328.064 337.325 332.229 344.171 333.996C354.543 336.642 365.759 336.829 375.944 333.259C380.944 331.412 385.819 327.256 385.792 321.502C386.121 315.534 380.828 311.121 375.509 309.718C369.231 308.448 362.793 308.821 356.435 308.661C349.926 308.484 343.195 309.034 336.996 306.637C332.033 304.994 327.557 301.637 325.053 296.993C321.474 289.667 322.291 280.245 327.548 273.914C333.107 267.014 341.658 263.205 350.254 261.846Z" fill="black"/>
<path d="M544.664 262.796C551 261.272 554 260.5 563.161 261.908C568.924 263.027 574.652 264.839 579.616 268.062C589.419 273.994 596.479 284.028 599.116 295.146C600.599 302.685 600.058 310.544 598.113 317.95C594.543 328.997 586.214 338.285 575.771 343.284C567.344 347.689 557.54 348.115 548.252 347.183C536.876 345.558 526.283 339.066 519.676 329.663C511.852 318.847 509.446 304.31 513.309 291.541C517.704 277.279 530.27 266.259 544.664 262.796ZM551.777 273.674C537.818 274.766 525.306 286.115 523.645 300.154C522.26 308.235 524.507 316.733 529.515 323.189C536.503 332.282 548.491 337.095 559.831 335.692C573.862 334.271 586.64 322.647 587.91 308.368C588.432 302.5 588.043 298.44 586.56 293.832C582.768 283.851 573.542 276.107 563.001 274.296C556.842 273.237 556.5 273.305 551.777 273.674Z" fill="black"/>
<path d="M178.693 263.587C182.618 263.587 186.543 263.587 190.468 263.596C190.272 291.23 190.565 318.865 190.352 346.491C186.48 346.491 182.609 346.491 178.737 346.491C178.471 318.856 178.542 291.221 178.693 263.587Z" fill="black"/>
<path d="M222.364 263.595C226.343 263.933 230.8 262.867 234.486 264.137C250.843 284.952 267.182 305.802 283.441 326.706C283.601 305.678 283.477 284.641 283.503 263.613C287.624 263.578 291.735 263.551 295.846 263.64C295.722 291.266 295.935 318.891 295.74 346.517C291.966 346.428 288.201 346.597 284.436 346.446C282.962 345.922 282.242 344.368 281.248 343.276C267.359 325.613 253.524 307.916 239.574 290.307C237.825 288.104 236.226 285.769 234.228 283.789C234.157 304.683 234.237 325.587 234.184 346.49C230.285 346.49 226.378 346.49 222.48 346.499C222.231 318.865 222.427 291.23 222.364 263.595Z" fill="black"/>
<path d="M421.792 263.596C436.142 263.596 450.501 263.605 464.86 263.587C469.788 263.489 474.823 263.64 479.556 265.159C485.115 267.254 489.999 271.65 491.837 277.404C494.625 285.485 494.119 295.138 489.129 302.277C484.706 308.6 476.714 311.299 469.255 311.219C457.463 311.184 445.661 311.281 433.868 311.166C433.637 322.941 434.002 334.725 433.673 346.499C429.721 346.491 425.77 346.491 421.809 346.499C421.747 318.865 421.792 291.23 421.792 263.596ZM433.833 275.637C433.753 283.478 433.815 291.319 433.806 299.16C445.945 299.125 458.084 299.196 470.223 299.125C474.024 299.071 478.437 297.757 480.204 294.063C482.211 289.854 482.22 284.624 480.186 280.423C478.561 276.996 474.441 275.939 470.969 275.708C458.599 275.584 446.212 275.744 433.833 275.637Z" fill="black"/>
</svg>
