<svg width="800" height="600" viewBox="0 0 800 600" fill="none" xmlns="http://www.w3.org/2000/svg">
<path fill-rule="evenodd" clip-rule="evenodd" d="M334.45 279.863H460.645L460.631 279.835L376.396 258.539L334.45 279.863Z" fill="#0A7ABC"/>
<path fill-rule="evenodd" clip-rule="evenodd" d="M334.45 279.862L376.395 258.537L350.344 251.945L334.45 279.862Z" fill="#A6D71C"/>
<path fill-rule="evenodd" clip-rule="evenodd" d="M376.399 258.534L460.624 279.836L432.317 230.092L376.399 258.534Z" fill="#40C1F3"/>
<path fill-rule="evenodd" clip-rule="evenodd" d="M397.549 169L353.691 246.067L428.945 224.176L397.553 169H397.549Z" fill="#ED1C24"/>
<path d="M507.074 384.558L515.965 409.785L524.706 384.558L532 384.558C532 384.558 521.962 410.982 518.13 421.197C514.658 430.427 508.882 430.918 505.917 430.918C504.619 430.918 503.315 430.71 503.098 430.642L502.161 424.58C502.378 424.648 504.116 425.217 505.99 425.217C509.528 425.217 510.756 422.817 511.34 421.265C511.913 419.718 512.423 418.241 512.423 418.241L499.703 384.558H507.074ZM498.338 394.678V418.984H491.257V397.003C491.257 393.126 489.957 390.518 485.695 390.518C482.083 390.518 478.397 393.9 476.953 395.66V418.984H469.87V385.093H475.943L476.52 389.461C478.037 388.124 482.443 384.456 488.006 384.456C494.946 384.456 498.338 388.547 498.338 394.678ZM456.107 401.394C448.16 402.168 441.59 403.788 441.59 408.507C441.59 411.538 443.754 413.018 446.933 413.018C451.702 413.018 455.314 409.352 456.107 408.575V401.394ZM456.397 418.279L456.107 414.119C455.457 415.108 451.985 418.984 445.775 418.984C439.272 418.984 434.069 415.67 434.069 408.411C434.069 398.268 448.16 396.856 455.527 396.082V395.029C455.527 392.56 454.52 389.604 448.737 389.604C443.534 389.604 438.191 392.281 437.321 392.703L436.384 386.645C437.391 386.15 443.031 383.75 449.24 383.75C459.576 383.75 462.607 388.332 462.607 395.728V418.279H456.397ZM405.349 394.06V411.821C405.926 412.029 408.744 413.018 411.999 413.018C418.789 413.018 422.181 407.944 422.181 401.248C422.181 394.135 419.079 389.485 413.587 389.485C409.468 389.485 406.073 393.215 405.349 394.06ZM404.699 388.288C405.492 387.442 409.177 383.283 415.541 383.283C423.772 383.283 429.265 388.922 429.265 400.9C429.265 413.376 420.74 418.517 412.503 418.517C409.104 418.517 405.856 417.321 405.349 417.106V428.944L398.269 430.918V383.92H404.045L404.699 388.288ZM393.633 394.678V418.984H386.623V397.003C386.623 393.126 385.466 390.518 381.2 390.518C377.588 390.518 374.12 393.832 372.679 395.66V418.984H365.599V397.003C365.599 393.126 364.442 390.518 360.176 390.518C356.564 390.518 353.096 393.9 351.648 395.66V418.984H344.568V385.093H350.641L351.215 389.461C352.732 388.124 357.068 384.456 362.634 384.456C367.473 384.456 370.438 386.433 371.809 389.744C374.05 387.633 378.242 384.456 383.658 384.456C390.595 384.456 393.633 388.547 393.633 394.678ZM325 413.018C330.42 413.018 333.961 408.016 333.961 401.248C333.961 394.412 330.489 389.485 325 389.485C318.93 389.485 316.042 395.117 316.042 401.248C316.042 407.801 319.294 413.018 325 413.018ZM324.882 418.984C315.925 418.984 308.767 413.345 308.767 401.367C308.767 389.529 316.068 383.75 324.882 383.75C334.134 383.75 340.924 389.952 340.924 401.367C340.924 413.069 333.7 418.984 324.882 418.984ZM304.643 372.901L303.562 380.091C302.622 379.314 297.562 375.373 290.195 375.373C279.787 375.373 274.657 383.542 274.657 393.972C274.657 405.036 280.22 412.499 290.195 412.499C297.129 412.499 302.622 408.626 304.283 407.358L305.297 414.542C304.643 415.319 299.734 418.984 290.125 418.984C276.608 418.984 267 409.472 267 393.972C267 378.54 276.608 368.956 290.125 368.956C299.08 368.956 303.636 372.195 304.643 372.901ZM528.001 331.028V355.335H520.92V333.353C520.92 329.476 519.62 326.868 515.354 326.868C511.742 326.868 508.061 330.25 506.613 332.01V355.335H499.533V321.443H505.606L506.179 325.811C507.7 324.474 512.106 320.806 517.669 320.806C524.609 320.806 528.001 324.897 528.001 331.028ZM482.907 327.506C485.001 324.543 488.977 320.806 494.9 320.806L495.914 327.008C490.424 327.008 486.592 329.193 483.271 334.41V355.335H476.19V321.443H482.043L482.907 327.506ZM463.086 334.055C462.652 331.802 461.708 326.309 455.422 326.309C450.369 326.309 448.128 330.673 447.544 334.055H463.086ZM447.184 339.412C447.261 343.006 448.632 350.125 456.939 350.125C463.369 350.125 468.215 346.245 469.222 345.327L470.236 351.39C468.788 352.586 464.453 356.04 456.145 356.04C446.607 356.04 440.107 349.77 440.107 338.355C440.107 326.517 447.404 320.738 455.499 320.738C465.83 320.738 470.309 328.985 470.309 337.717V339.412H447.184ZM435.093 331.028V355.335H428.083V333.353C428.083 329.476 426.712 326.868 422.45 326.868C418.838 326.868 415.227 330.25 413.706 332.01V355.335H406.695V306.366L413.706 304.392V325.456C415.227 324.192 419.342 320.806 424.761 320.806C431.695 320.806 435.093 324.897 435.093 331.028ZM400.947 355.403C400.657 355.474 398.272 356.04 395.528 356.04C388.884 356.04 385.412 352.794 385.412 346.033V327.291H380.426V321.443H385.412V312.282L392.419 310.311V321.443H399.72L400.734 327.291H392.419V345.327C392.419 348.498 394.227 349.555 396.832 349.555C398.272 349.555 399.646 349.347 400.01 349.204L400.947 355.403ZM346.528 345.75V321.443H353.609V343.425C353.609 347.37 354.906 349.91 359.172 349.91C362.783 349.91 366.465 346.596 367.913 344.836V321.443H374.996V355.335H368.927L368.346 351.038C366.829 352.303 362.493 356.04 356.857 356.04C349.923 356.04 346.528 351.881 346.528 345.75ZM325.836 350.193C331.252 350.193 334.791 345.191 334.791 338.423C334.791 331.587 331.329 326.66 325.836 326.66C319.763 326.66 316.875 332.293 316.875 338.423C316.875 344.976 320.127 350.193 325.836 350.193ZM325.836 356.04C316.875 356.04 309.721 350.401 309.721 338.423C309.721 326.585 317.018 320.806 325.836 320.806C335.081 320.806 341.875 327.008 341.875 338.423C341.875 350.125 334.651 356.04 325.836 356.04ZM272.967 352.658L274.124 345.614C275.205 346.32 280.121 349.555 288.288 349.555C294.575 349.555 298.617 346.947 298.617 342.723C298.617 339.552 296.596 337.509 291.393 334.973C290.239 334.41 285.18 332.293 283.442 331.519C277.446 328.842 273.544 324.897 273.544 318.484C273.544 311.153 279.757 306.012 290.239 306.012C297.533 306.012 302.012 308.409 303.166 309.043L301.938 315.804C300.711 315.105 296.162 312.428 289.876 312.428C283.953 312.428 280.914 315.105 280.914 318.627C280.914 321.583 283.009 323.346 286.841 325.109C288.211 325.739 294.424 328.28 295.582 328.771C302.805 332.01 306.061 336.169 306.061 342.16C306.061 350.401 299.05 356.04 288.571 356.04C279.183 356.04 274.267 353.432 272.967 352.658Z" fill="#5A5758"/>
</svg>
