<svg width="800" height="600" viewBox="0 0 800 600" fill="none" xmlns="http://www.w3.org/2000/svg">
<path d="M414.584 293.269C413.46 293.903 412.068 294.22 410.462 294.22C409.927 294.22 408.696 294.167 406.662 293.956V299.711C408.428 300.186 410.194 300.345 412.014 300.345C414.798 300.345 417.099 299.606 418.973 298.18C420.846 296.754 422.506 294.536 423.897 291.474L439.634 255.989L432.194 256.095L422.666 279.329L413.406 256.095H405.966L418.866 286.51L417.528 289.52C416.671 291.368 415.654 292.635 414.584 293.269Z" fill="#141927"/>
<path d="M451.357 283.605C452.535 285.241 454.14 286.509 456.067 287.406C458.048 288.304 460.189 288.779 462.598 288.779C467.147 288.779 470.894 287.248 473.838 284.027C476.782 280.859 478.334 276.898 478.334 272.146C478.334 267.394 476.836 263.433 473.785 260.265C470.734 257.097 466.933 255.513 462.384 255.513L462.651 255.46C457.994 255.46 454.355 256.991 451.785 260.054V239.354H444.88V287.987H451.304V283.605H451.357ZM454.301 264.489C456.228 262.694 458.53 261.744 461.206 261.744C464.043 261.744 466.398 262.694 468.325 264.648C470.252 266.602 471.162 269.083 471.162 272.093C471.162 275.156 470.252 277.69 468.325 279.644C466.398 281.598 464.203 282.654 461.367 282.654H461.259C458.583 282.654 456.281 281.809 454.355 280.067C452.428 278.324 451.464 275.737 451.464 272.304C451.464 268.872 452.374 266.285 454.301 264.489Z" fill="#141927"/>
<path d="M389.854 331.922H389.801C385.786 331.922 382.575 333.242 380.113 335.829V332.661H373.689V364.661H380.594V345.545C380.594 343.38 381.237 341.638 382.628 340.265C384.02 338.892 385.786 338.206 387.981 338.206C390.069 338.206 391.781 338.945 393.12 340.265C394.458 341.638 395.1 343.433 395.1 345.651V364.661H402.005V344.701C402.005 340.899 400.935 337.836 398.793 335.513C396.652 333.189 393.601 331.922 389.854 331.922Z" fill="#141927"/>
<path d="M424.969 331.867C420.312 331.867 416.351 333.504 413.139 336.725C409.928 339.946 408.268 343.907 408.268 348.606C408.268 353.359 409.928 357.319 413.193 360.487C416.458 363.655 420.633 365.292 425.611 365.292C430.535 365.292 434.817 363.603 438.511 360.17L435.246 355.524C432.355 358.058 429.197 359.273 425.825 359.273C422.988 359.273 420.633 358.533 418.706 357.055C416.779 355.576 415.601 353.464 415.173 350.824H439.26C439.849 349.24 439.903 346.547 439.903 346.547C439.903 342.322 438.457 338.837 435.62 336.039C432.837 333.24 429.251 331.867 424.969 331.867ZM415.334 345.544C415.869 343.167 416.993 341.266 418.706 339.841C420.419 338.415 422.346 337.728 424.647 337.676C426.949 337.676 428.876 338.415 430.482 339.841C432.034 341.266 432.837 343.167 432.891 345.544H415.334Z" fill="#141927"/>
<path d="M501.993 288.832C506.918 288.832 511.2 287.143 514.893 283.71L511.628 279.064C508.738 281.598 505.58 282.813 502.207 282.813C499.37 282.813 497.015 282.073 495.088 280.595C493.161 279.116 491.984 277.004 491.556 274.364H515.643C516.285 272.674 516.285 270.087 516.285 270.087C516.285 265.862 514.84 262.377 512.003 259.579C509.166 256.78 505.633 255.407 501.351 255.407C496.694 255.407 492.733 257.044 489.522 260.265C486.31 263.486 484.651 267.447 484.651 272.146C484.651 276.899 486.31 280.859 489.575 284.027C492.84 287.248 497.015 288.832 501.993 288.832ZM495.035 263.433C496.748 262.008 498.675 261.321 500.976 261.269C503.278 261.269 505.205 262.008 506.811 263.433C508.363 264.859 509.166 266.76 509.219 269.136H491.663C492.198 266.707 493.322 264.859 495.035 263.433Z" fill="#141927"/>
<path d="M462.972 359.063C460.885 359.063 459.279 358.693 458.262 357.848C457.192 357.003 456.71 355.578 456.71 353.571V338.575H466.291V332.66H456.71V324.317H449.751V332.66H444.506V338.575H449.751V354.152C449.751 357.848 450.822 360.647 452.909 362.442C454.997 364.237 457.887 365.188 461.634 365.188C463.294 365.188 465.167 364.924 467.362 364.449V358.693C465.435 358.904 464.096 359.063 463.079 359.063H462.972Z" fill="#141927"/>
<path d="M509.594 353.202L499.638 331.922H497.282L487.487 353.466L478.976 332.661H471.643L485.988 365.189H488.344L498.46 344.014L508.577 365.189H510.985L525.277 332.661H517.944L509.594 353.202Z" fill="#141927"/>
<path d="M544.279 331.922C539.462 331.922 535.447 333.559 532.182 336.727C528.917 339.895 527.258 343.856 527.258 348.555C527.258 353.255 528.917 357.162 532.182 360.383C535.447 363.552 539.462 365.189 544.279 365.241C548.989 365.241 553.004 363.604 556.376 360.383C559.748 357.162 561.354 353.202 561.354 348.502C561.354 343.856 559.641 339.895 556.269 336.674C553.004 333.506 548.989 331.975 544.279 331.922ZM551.291 355.895C549.364 357.849 547.009 358.799 544.172 358.799C541.282 358.799 538.926 357.849 536.999 355.895C535.072 353.941 534.162 351.459 534.162 348.555C534.162 345.545 535.072 343.116 536.999 341.163C538.926 339.209 541.282 338.258 544.172 338.153H544.225C547.062 338.206 549.418 339.209 551.345 341.11C553.271 343.064 554.181 345.545 554.181 348.502C554.181 351.459 553.164 353.941 551.291 355.895Z" fill="#141927"/>
<path d="M574.147 336.777V332.606H567.724V364.605H574.629V347.497C574.629 344.698 575.539 342.586 577.305 341.002C579.072 339.47 581.32 338.678 583.996 338.678H586.084V332.659C585.334 332.447 584.478 332.342 583.514 332.342C579.607 332.342 576.449 333.82 574.147 336.777Z" fill="#141927"/>
<path d="M529.559 271.089C529.559 268.291 530.469 266.179 532.235 264.594C534.002 263.063 536.25 262.271 538.926 262.271H541.014V256.251C540.264 256.04 539.408 255.935 538.444 255.935C534.483 255.935 531.325 257.466 529.024 260.423V256.251H522.6V288.198H529.505V271.089H529.559Z" fill="#141927"/>
<path d="M599.412 315.813H592.507V364.605H599.412V315.813Z" fill="#141927"/>
<path d="M607.762 346.653L620.769 332.66H612.258L599.626 346.601L613.703 364.607H622L607.762 346.653Z" fill="#141927"/>
<path d="M401.952 256.199H393.387L380.809 270.192L394.886 288.199H403.183L388.945 270.245L401.952 256.199Z" fill="#141927"/>
<path d="M380.595 239.406H373.69V288.197H380.595V239.406Z" fill="#141927"/>
<path d="M247.112 300.469L334.855 350.661C337.938 352.41 341.764 350.184 341.764 346.686V254.199C341.764 250.648 337.938 248.475 334.855 250.224L247.112 300.469Z" fill="#31CB9E"/>
<path d="M332.906 227.995L272.973 183.943C270.189 181.893 266.205 183.365 265.495 186.624L243.607 284.663L332.361 235.565C335.308 233.935 335.581 229.993 332.906 227.995Z" fill="#31CB9E"/>
<path d="M272.917 416.957L332.901 372.895C335.576 370.897 335.303 366.953 332.41 365.323L243.607 316.214L265.494 414.275C266.149 417.535 270.188 418.955 272.917 416.957Z" fill="#31CB9E"/>
<path d="M224.316 298.711L247.002 192.086C247.895 187.895 243.169 184.871 239.808 187.47L181.726 232.243C178.733 234.524 177 238.131 177 241.897V355.472C177 359.239 178.733 362.846 181.726 365.127L239.808 409.899C243.169 412.498 247.895 409.475 247.002 405.284L224.316 298.711Z" fill="#31CB9E"/>
</svg>
