<svg width="800" height="600" viewBox="0 0 800 600" fill="none" xmlns="http://www.w3.org/2000/svg">
<path fill-rule="evenodd" clip-rule="evenodd" d="M175.901 288.891C175.901 291.54 175.218 293.946 174.306 295.231C172.06 298.394 167.306 298.394 165.06 295.231C164.147 293.946 163.464 291.74 163.464 288.891C163.464 286.043 164.147 283.836 165.06 282.551C167.306 279.388 172.06 279.388 174.306 282.551C175.218 283.836 175.901 286.002 175.901 288.891Z" fill="url(#paint0_linear)"/>
<path fill-rule="evenodd" clip-rule="evenodd" d="M207.372 288.891C207.372 291.54 206.69 293.946 205.777 295.231C203.531 298.394 198.777 298.394 196.531 295.231C195.618 293.946 194.935 291.74 194.935 288.891C194.935 286.043 195.618 283.836 196.531 282.551C198.777 279.388 203.531 279.388 205.777 282.551C206.69 283.836 207.372 286.002 207.372 288.891Z" fill="url(#paint1_linear)"/>
<path fill-rule="evenodd" clip-rule="evenodd" d="M220.358 307.478C217.969 316.478 207.911 318.42 199.665 319.326C194.922 319.847 190.17 320.107 185.418 320.107C180.666 320.107 175.915 319.847 171.172 319.326C162.926 318.42 152.867 316.478 150.479 307.478C147.55 295.483 147.313 282.227 150.479 270.302C152.867 261.301 162.926 259.361 171.172 258.455C175.904 257.935 180.66 257.675 185.418 257.675C190.175 257.675 194.934 257.935 199.665 258.455C207.911 259.361 217.969 261.301 220.358 270.302C223.524 282.227 223.286 295.483 220.358 307.478ZM235.759 266.238C234.144 260.153 229.881 251.851 218.742 246.856C212.756 244.173 206.335 243.207 201.409 242.667C196.123 242.086 190.743 241.791 185.418 241.791C180.093 241.791 174.713 242.086 169.428 242.667C164.502 243.207 158.08 244.173 152.095 246.856C140.958 251.85 136.694 260.15 135.078 266.235C131.105 281.196 130.658 298.588 135.635 313.397C138.323 321.394 144.441 327.492 152.095 330.924C154.787 332.131 157.61 332.901 160.424 333.655C164.715 334.805 167.419 337.379 167.447 340.851V352.839C167.447 357.32 172.645 359.814 176.157 357.017L198.456 339.261C198.456 339.261 201.233 337.153 203.523 336.057C206.533 334.616 209.181 334.049 212.648 333.12C214.722 332.565 216.785 331.801 218.742 330.924C224.666 328.268 229.803 323.879 233.022 318.222C236.737 311.693 237.666 303.544 238.258 296.184C239.063 286.168 238.341 275.965 235.759 266.238Z" fill="url(#paint2_linear)"/>
<path fill-rule="evenodd" clip-rule="evenodd" d="M248.942 300.954C246.794 299.242 245.543 296.649 245.543 293.908V283.715C245.543 280.973 246.794 278.381 248.942 276.67L271.444 258.746C275.116 255.821 280.551 258.428 280.551 263.114V314.51C280.551 319.195 275.116 321.802 271.444 318.877L248.942 300.954Z" fill="url(#paint3_linear)"/>
<path fill-rule="evenodd" clip-rule="evenodd" d="M410.685 270.793C414.014 270.793 416.711 273.484 416.711 276.804V309.096C416.711 315.461 414.716 320.493 410.726 324.194C406.734 327.896 401.282 329.746 394.368 329.746C387.561 329.746 382.155 327.948 378.151 324.354C374.147 320.759 372.105 315.82 372.025 309.536V276.785C372.025 273.475 374.713 270.793 378.031 270.793C381.348 270.793 384.038 273.475 384.038 276.785V309.176C384.038 312.984 384.951 315.76 386.78 317.504C388.608 319.248 391.138 320.12 394.368 320.12C401.121 320.12 404.552 316.579 404.659 309.496V276.804C404.659 273.484 407.357 270.793 410.685 270.793Z" fill="black"/>
<path fill-rule="evenodd" clip-rule="evenodd" d="M459.676 313.678C459.676 311.416 458.875 309.678 457.273 308.466C455.672 307.255 452.789 305.977 448.624 304.632C444.46 303.288 441.162 301.963 438.734 300.658C432.113 297.09 428.803 292.284 428.803 286.239C428.803 283.098 429.69 280.295 431.466 277.832C433.241 275.369 435.79 273.445 439.114 272.06C442.438 270.676 446.168 269.983 450.306 269.983C454.471 269.983 458.181 270.736 461.438 272.24C464.694 273.745 467.224 275.868 469.026 278.61C469.434 279.232 469.754 279.873 470.004 280.533C471.368 284.126 468.601 287.957 464.749 287.957C462.646 287.957 460.734 286.771 459.776 284.905C459.133 283.654 458.166 282.601 457.193 281.746C455.511 280.268 453.149 279.529 450.106 279.529C447.169 279.529 444.887 280.148 443.258 281.386C441.63 282.624 440.816 284.256 440.816 286.279C440.816 288.17 441.77 289.754 443.679 291.032C445.587 292.31 448.397 293.509 452.108 294.627C458.942 296.678 463.92 299.22 467.044 302.256C470.167 305.291 471.728 309.072 471.728 313.599C471.728 318.631 469.82 322.579 466.002 325.441C462.185 328.304 457.046 329.735 450.586 329.735C446.101 329.735 442.017 328.916 438.333 327.279C434.649 325.641 431.84 323.398 429.904 320.549C429.271 319.616 428.83 318.636 428.522 317.607C427.485 314.135 430.086 310.643 433.718 310.643C435.991 310.643 438.034 312.054 438.805 314.186C440.272 318.241 444.475 320.269 450.586 320.269C453.442 320.269 455.672 319.69 457.273 318.531C458.875 317.373 459.676 315.755 459.676 313.678Z" fill="black"/>
<path fill-rule="evenodd" clip-rule="evenodd" d="M517.132 280.487H504.138V322.944C504.138 326.253 501.45 328.935 498.132 328.935C494.815 328.935 492.126 326.253 492.126 322.944V280.487H479.373C476.686 280.487 474.508 278.314 474.508 275.634C474.508 272.954 476.686 270.781 479.373 270.781H517.132C519.82 270.781 521.998 272.954 521.998 275.634C521.998 278.314 519.82 280.487 517.132 280.487Z" fill="black"/>
<path fill-rule="evenodd" clip-rule="evenodd" d="M536.741 307.247H551.317L543.989 285.479L536.741 307.247ZM554.56 316.953H533.498L530.841 324.903C530.036 327.311 527.777 328.936 525.232 328.936H525.229C521.108 328.936 518.251 324.834 519.688 320.981L536.479 275.989C537.648 272.858 540.645 270.781 543.994 270.781C547.338 270.781 550.332 272.852 551.504 275.976L568.389 320.971C569.836 324.825 566.978 328.936 562.852 328.936C560.314 328.936 558.059 327.319 557.249 324.92L554.56 316.953Z" fill="black"/>
<path fill-rule="evenodd" clip-rule="evenodd" d="M590.82 319.309H611.502C614.166 319.309 616.327 321.464 616.327 324.122C616.327 326.78 614.166 328.936 611.502 328.936H584.119C581.186 328.936 578.807 326.563 578.807 323.637V276.772C578.807 273.464 581.497 270.781 584.814 270.781C588.131 270.781 590.82 273.464 590.82 276.772V319.309Z" fill="black"/>
<mask id="mask0" mask-type="alpha" maskUnits="userSpaceOnUse" x="624" y="270" width="43" height="59">
<path d="M624.547 270.781H667V328.936H624.547V270.781Z" fill="white"/>
</mask>
<g mask="url(#mask0)">
<path fill-rule="evenodd" clip-rule="evenodd" d="M642.806 305.61L636.559 312.32V322.944C636.559 326.253 633.87 328.936 630.553 328.936C627.236 328.936 624.547 326.253 624.547 322.944V276.772C624.547 273.464 627.236 270.781 630.553 270.781C633.87 270.781 636.559 273.464 636.559 276.772V297.142L641.845 289.913L654.974 273.005C656.063 271.602 657.741 270.781 659.52 270.781C664.34 270.781 667.022 276.342 664.012 280.098L650.774 296.623L666.011 319.736C668.614 323.684 665.775 328.936 661.038 328.936C659.009 328.936 657.12 327.904 656.025 326.2L642.806 305.61Z" fill="black"/>
</g>
<path fill-rule="evenodd" clip-rule="evenodd" d="M349.7 270.793C353.017 270.793 355.706 273.475 355.706 276.784V311.054C355.706 314.755 354.886 318.023 353.244 320.859C351.602 323.695 349.286 325.886 346.297 327.429C343.307 328.973 339.93 329.746 336.167 329.746C330 329.746 325.195 328.182 321.751 325.053C319.201 322.736 317.657 319.516 317.096 316.187C316.642 313.49 316.81 310.294 318.933 308.221C319.916 307.261 321.239 306.803 322.602 306.803C324.197 306.803 325.756 307.565 326.796 308.767C327.926 310.071 328.141 311.801 328.343 313.445C328.557 315.18 329.323 316.774 330.48 318.083C331.682 319.441 333.577 320.12 336.167 320.12C338.462 320.12 340.291 319.334 341.652 317.764C343.013 316.193 343.694 313.956 343.694 311.054V276.784C343.694 273.475 346.383 270.793 349.7 270.793Z" fill="black"/>
<defs>
<linearGradient id="paint0_linear" x1="153.857" y1="241.667" x2="235.523" y2="305.37" gradientUnits="userSpaceOnUse">
<stop stop-color="#FE693C"/>
<stop offset="1" stop-color="#FF1D84"/>
</linearGradient>
<linearGradient id="paint1_linear" x1="185.328" y1="241.667" x2="266.994" y2="305.37" gradientUnits="userSpaceOnUse">
<stop stop-color="#FE693C"/>
<stop offset="1" stop-color="#FF1D84"/>
</linearGradient>
<linearGradient id="paint2_linear" x1="140.623" y1="261.979" x2="253.338" y2="340.509" gradientUnits="userSpaceOnUse">
<stop stop-color="#FE693C"/>
<stop offset="1" stop-color="#FF1D84"/>
</linearGradient>
<linearGradient id="paint3_linear" x1="225.474" y1="227.576" x2="300.696" y2="269.775" gradientUnits="userSpaceOnUse">
<stop stop-color="#FE693C"/>
<stop offset="1" stop-color="#FF1D84"/>
</linearGradient>
</defs>
</svg>
