<svg width="800" height="600" viewBox="0 0 800 600" fill="none" xmlns="http://www.w3.org/2000/svg">
<path d="M149.912 272.652C121.642 281.219 128.546 329.722 157.663 327.101C188.083 324.365 185.9 271.434 155.389 272.005C153.451 272.037 150.971 272.331 149.912 272.652ZM160.659 283.917C169.547 289.127 169.941 309.812 161.254 315.067C152.102 320.604 142.814 311.261 143.912 297.624C144.848 286.064 152.967 279.412 160.659 283.917ZM206.801 272.671C200.607 274.132 196.796 279.989 197.319 287.217C198.566 304.276 222.709 303.058 222.76 285.936C222.793 276.759 215.423 270.633 206.801 272.671ZM213.13 280.758C216.792 284.391 214.603 292.703 209.978 292.703C205.354 292.703 203.158 284.391 206.827 280.758C207.886 279.707 209.287 278.861 209.978 278.861C210.663 278.861 212.071 279.707 213.13 280.758ZM94.8833 274.779C86.8745 277.17 87.5333 276.471 88.6894 281.322C89.9488 286.602 89.8649 286.513 92.7649 285.788C94.1341 285.449 96.2332 284.949 97.4022 284.693L99.5336 284.218V326.538H111.159V272.709L106.315 272.761C103.506 272.793 98.7069 273.639 94.8833 274.779ZM223.154 298.124C212.924 312.068 204.075 324.173 203.494 325.012L202.435 326.538L206.982 326.512L211.529 326.486L230.13 301.123C240.354 287.179 249.209 275.074 249.79 274.235L250.85 272.709L241.756 272.761L223.154 298.124ZM308.798 299.623V326.538H320.423V305.006H342.125V326.538H353.751V272.709H342.125V294.241H320.423V272.709H308.798V299.623ZM384.146 298.278C378.119 312.35 372.972 324.468 372.688 325.23L372.171 326.614L378.178 326.384L384.184 326.153L388.886 314.183L400.551 314.401L412.215 314.618L416.917 326.538H429.086L428.582 325.192C428.304 324.448 423.156 312.35 417.137 298.278L406.196 272.709H395.087L384.146 298.278ZM406.951 302.443L407.41 304.237H400.344C396.469 304.237 393.278 304.122 393.278 303.981C393.278 303.782 397.108 294.42 400.053 287.422C400.46 286.448 405.899 298.291 406.951 302.443ZM447.532 299.623V326.538H459.158V310.389H464.945C481.04 310.389 489.591 303.872 489.591 291.601C489.591 277.548 481.892 272.709 459.519 272.709H447.532V299.623ZM473.909 284.648C476.712 286.09 477.759 287.961 477.759 291.549C477.759 297.566 474.607 299.623 465.384 299.623H459.158V283.475H465.397C469.453 283.475 472.43 283.885 473.909 284.648ZM508.761 299.623V326.538H520.387V310.389H526.174C542.269 310.389 550.82 303.872 550.82 291.601C550.82 277.548 543.121 272.709 520.748 272.709H508.761V299.623ZM535.138 284.648C537.942 286.09 538.988 287.961 538.988 291.549C538.988 297.566 535.836 299.623 526.613 299.623H520.387V283.475H526.626C530.682 283.475 533.659 283.885 535.138 284.648ZM569.99 299.623V326.538H581.616V272.709H569.99V299.623ZM605.642 299.623V326.538H646.798L646.333 316.156L631.8 315.951L617.268 315.746V304.237H642.845V294.241H617.268V283.475H645.945V272.709H605.642V299.623ZM666.871 299.559V326.538H678.497V308.851H687.565L699.424 326.538H706.012C713.904 326.538 713.833 327.383 706.754 317.233C699.514 306.852 699.566 306.993 702.472 305.801C715.157 300.578 714.434 280.816 701.335 274.869L697.486 273.12L682.179 272.85L666.871 272.581V299.559ZM696.401 285.231C698.364 286.538 699.101 287.647 699.288 289.576C699.985 296.701 696.918 298.855 686.067 298.855H678.497V283.475H686.131C692.797 283.475 694.102 283.699 696.401 285.231ZM237.467 301.347C231.015 304.577 228.496 313.414 232.055 320.334C236.666 329.306 250.12 328.973 254.647 319.771C260.538 307.775 249.106 295.509 237.467 301.347ZM246.742 308.569C251.476 314.542 245.398 323.692 240.154 318.489C236.485 314.849 238.681 306.544 243.306 306.544C244.352 306.544 245.831 307.416 246.742 308.569Z" fill="#FB1D00"/>
</svg>
