<svg width="800" height="600" viewBox="0 0 800 600" fill="none" xmlns="http://www.w3.org/2000/svg">
<path d="M529.872 314.404C529.872 317.312 531.298 319.616 535.288 319.616C539.981 319.616 544.983 316.306 545.283 308.796C543.093 308.451 540.882 308.254 538.664 308.205C533.952 308.199 529.872 309.5 529.872 314.404Z" fill="black"/>
<mask id="mask0" mask-type="alpha" maskUnits="userSpaceOnUse" x="225" y="244" width="350" height="113">
<path d="M225 244H575V356.531H225V244Z" fill="white"/>
</mask>
<g mask="url(#mask0)">
<path d="M555.218 329.893C549.066 329.893 545.684 326.291 545.067 320.638C542.399 325.369 537.68 329.893 530.197 329.893C523.543 329.893 515.944 326.291 515.944 316.629C515.944 305.215 526.918 302.546 537.48 302.546C540.018 302.524 542.553 302.662 545.073 302.959V301.418C545.073 296.687 544.97 291.034 537.48 291.034C534.71 291.034 532.556 291.24 530.402 292.369L528.691 298.949L518.128 297.815L520.179 285.788C528.279 282.495 532.381 281.543 539.973 281.543C549.925 281.543 558.334 286.685 558.334 297.275V317.429C558.334 320.104 559.356 321.032 561.515 321.032C562.177 321.022 562.832 320.918 563.463 320.723L563.566 327.716C561.008 329.112 558.149 329.862 555.236 329.899L555.218 329.893ZM486.301 328.868L506.307 258.155H519.332L499.344 328.868H486.301ZM459.429 328.868L479.447 258.155H492.472L472.471 328.868H459.429ZM427.148 328.868H386.737L385.405 321.875L410.813 292.569H396.355L394.305 299.768L384.764 298.743L386.404 282.495H427.057L428.08 289.488L402.429 318.806H417.378L419.531 311.607L429.991 312.632L427.148 328.868ZM353.512 329.893C339.259 329.893 329.41 321.154 329.41 306.349C329.41 292.775 337.614 281.566 354.213 281.566C370.814 281.566 378.932 292.775 378.932 305.73C378.944 320.541 368.279 329.899 353.512 329.899V329.893ZM324.081 328.868H304.722V302.752C304.722 294.734 302.054 291.647 296.827 291.647C290.469 291.647 287.904 296.171 287.904 302.649V318.806H294.026V328.881H274.667V302.752C274.667 294.734 272.005 291.647 266.773 291.647C260.415 291.647 257.849 296.171 257.849 302.649V318.806H266.646V328.881H238.442V318.806H244.595V292.575H237.94V282.501H257.825V289.488C260.596 284.557 265.418 281.573 271.873 281.573C278.527 281.573 284.692 284.763 286.948 291.55C289.513 285.382 294.74 281.573 302.024 281.573C310.329 281.573 317.922 286.613 317.922 297.615V318.806H324.075L324.081 328.868ZM225 356.531H575.001V244H225V356.531Z" fill="black"/>
<path fill-rule="evenodd" clip-rule="evenodd" d="M438.321 299.149H452.169V282.5H438.321V299.149Z" fill="white"/>
<path fill-rule="evenodd" clip-rule="evenodd" d="M438.321 328.867H452.169V312.213H438.321V328.867Z" fill="white"/>
</g>
<path d="M353.823 291.424C347.102 291.424 342.928 296.498 342.928 305.315C342.928 313.397 346.592 319.615 353.738 319.615C360.56 319.615 365.04 314.021 365.04 305.106C365.023 295.673 360.038 291.424 353.823 291.424Z" fill="black"/>
</svg>
