<svg width="800" height="600" viewBox="0 0 800 600" fill="none" xmlns="http://www.w3.org/2000/svg">
<path d="M339.465 333.572C334.465 328.538 328.174 325.614 321.662 324.78C316.311 324.105 311.223 321.471 307.125 317.357C301.458 311.648 298.932 304.02 299.502 296.57C299.943 290.91 299.801 284.736 299.339 279.559C298.81 273.562 301.328 267.444 306.245 263.248C308.962 260.945 312.116 259.513 315.388 258.914C320.437 258.389 325.353 256.185 329.222 252.301C338.162 243.306 338.162 228.73 329.222 219.74C320.285 210.753 305.786 210.753 296.856 219.74C293.12 223.494 290.948 228.213 290.332 233.106C289.831 237.112 287.875 240.935 284.826 244.01C280.589 248.261 274.89 250.496 269.392 249.728C259.106 248.303 257.58 248.416 246.611 249.478C240.594 250.061 238.626 247.725 237.312 244.929C236.594 243.395 236.328 241.76 236.454 240.171C236.837 237.772 236.439 235.232 235.136 232.961C232.123 227.722 225.46 225.928 220.255 228.96C215.045 231.984 213.258 238.691 216.275 243.922C217.526 246.116 219.418 247.701 221.574 248.583C223.346 249.309 224.856 250.681 225.884 252.475C227.3 254.942 228.522 257.9 224.845 261.884C215.342 272.168 210.864 285.311 212.364 298.232C212.927 304.306 208.304 306.531 204.203 308.098C201.842 308.99 199.392 309.199 197.063 308.826C193.564 307.972 189.755 308.274 186.25 309.955C178.155 313.845 174.721 323.592 178.591 331.733C182.455 339.873 192.155 343.329 200.246 339.439C203.631 337.822 206.188 335.18 207.754 332.057C209.034 329.494 211.238 327.402 214.011 326.072C217.845 324.235 224.247 323.909 227.452 326.603C236.67 334.496 248.37 337.945 259.757 336.919C267.745 336.198 275.899 339.592 281.487 346.227C284.561 349.886 286.473 354.131 287.266 358.547C287.955 365.349 290.899 371.967 296.08 377.188C308.066 389.233 327.491 389.233 339.469 377.188C351.445 365.141 351.445 345.605 339.465 333.572ZM276.05 313.612C264.524 325.256 245.839 325.251 234.321 313.617C222.801 301.978 222.801 283.101 234.321 271.457C245.84 259.823 264.522 259.826 276.043 271.464C287.562 283.101 287.565 301.978 276.05 313.612Z" fill="#FF8A00"/>
<path d="M366.017 269.778C369.699 269.778 372.831 271.11 375.404 273.766C377.98 276.425 379.273 279.633 379.273 283.374V300.828V315.008H366.062V281.969C366.062 280.341 365.514 278.949 364.416 277.825C363.316 276.702 361.998 276.136 360.46 276.136H341.349C339.745 276.136 338.395 276.702 337.294 277.825C336.194 278.949 335.641 280.341 335.641 281.969V302.81C335.641 304.454 336.194 305.837 337.294 306.964C338.395 308.087 340.167 308.652 341.775 308.652H360.355V315.008H335.695C332.081 315.008 328.967 313.681 326.361 311.025C323.747 308.365 322.444 305.155 322.444 301.406V283.374C322.444 279.634 323.747 276.425 326.361 273.766C328.967 271.108 332.081 269.778 335.695 269.778H366.017ZM495.085 269.778C498.769 269.778 501.897 271.11 504.473 273.766C507.051 276.425 508.342 279.633 508.342 283.374V300.828V315.008H495.132V281.969C495.132 280.341 494.581 278.949 493.486 277.825C492.385 276.702 491.068 276.136 489.535 276.136H470.418C468.812 276.136 467.465 276.702 466.364 277.825C465.262 278.949 464.718 280.341 464.718 281.969V302.81C464.718 304.454 465.262 305.837 466.364 306.964C467.465 308.087 468.812 308.652 470.418 308.652H489.425V315.008H464.763C461.146 315.008 458.037 313.681 455.426 311.025C452.814 308.365 451.513 305.155 451.513 301.406V283.374C451.513 279.634 452.814 276.425 455.426 273.766C458.037 271.108 461.148 269.778 464.763 269.778H495.085ZM617.263 301.535C618.563 301.535 619.681 302.002 620.599 302.926C621.534 303.864 622 304.976 622 306.28V310.263C622 311.573 621.536 312.693 620.599 313.619C619.68 314.55 618.563 315.008 617.263 315.008H613.15C611.839 315.008 610.739 314.55 609.847 313.619C608.959 312.691 608.515 311.573 608.515 310.263V306.28C608.515 304.976 608.957 303.864 609.847 302.926C610.739 302.002 611.839 301.535 613.15 301.535H617.263ZM617.263 255.343C618.569 255.343 619.681 255.796 620.599 256.698C621.533 257.609 622 258.691 622 259.96V293.07C622 294.343 621.536 295.428 620.599 296.33C619.68 297.232 618.563 297.686 617.263 297.686H613.15C611.839 297.686 610.739 297.232 609.847 296.33C608.959 295.427 608.515 294.343 608.515 293.07V259.96C608.515 258.691 608.766 257.609 609.66 256.698C610.55 255.796 611.65 255.343 612.958 255.343H617.263ZM439.013 269.778H452.476L428.45 304.765C425.168 309.736 421.749 312.836 418.201 314.081C416.454 314.702 413.106 315.008 408.148 315.008H401.21C397.59 315.008 394.473 313.69 391.859 311.048C389.249 308.412 387.942 305.233 387.942 301.506V292.415V292.412V274.46C387.942 273.171 388.375 272.071 389.256 271.153C390.135 270.236 391.219 269.778 392.503 269.778H396.562C397.847 269.778 398.948 270.236 399.858 271.153C400.771 272.073 401.232 273.171 401.232 274.46V283.367V304.644C401.232 306.208 401.77 307.557 402.851 308.707C403.93 309.857 405.253 310.435 406.825 310.435C409.769 310.435 412.516 308.404 415.067 304.344L418.45 299.45L439.013 269.778ZM596.861 308.722V308.72H603.699V315.008H591.13C587.468 315.008 584.311 313.695 581.661 311.065C579.3 308.72 577.999 305.937 577.751 302.731H577.693V259.976C577.693 258.703 577.945 257.615 578.835 256.703C579.718 255.798 580.802 255.343 582.104 255.343H586.377C587.664 255.343 588.772 255.798 589.69 256.703C590.611 257.615 591.069 258.703 591.069 259.976V263.033H591.085V266.99C584.752 267.782 580.923 273.957 580.923 273.957C580.648 274.366 580.421 274.76 580.222 275.139C581.955 273.36 585.712 270.264 590.914 270.264H602.255V276.535H596.626C595.058 276.535 593.718 277.119 592.59 278.259C591.471 279.406 591.079 280.742 591.079 282.278L591.083 302.943C591.083 304.568 591.632 305.939 592.751 307.052C593.866 308.163 595.233 308.722 596.861 308.722ZM528.437 269.86L557.603 269.778C561.24 269.778 564.379 271.028 567.009 273.678C569.639 276.343 570.947 279.549 570.947 283.299H557.65V281.895C557.65 280.255 557.1 278.872 555.99 277.743C554.883 276.616 553.522 276.122 551.908 276.122L534.145 276.119C532.534 276.119 531.175 276.678 530.068 277.791C528.958 278.903 528.408 280.242 528.408 281.787V283.822C528.408 285.438 528.96 286.806 530.065 287.923C531.177 289.036 532.536 289.59 534.144 289.59H557.63C561.465 289.59 564.645 290.755 567.17 293.074C569.689 295.401 570.95 298.905 570.95 302.475C570.95 306.112 569.676 309.112 567.11 311.472C564.56 313.833 561.388 315.008 557.616 315.008H528.428C524.79 315.008 521.652 313.758 519.024 311.102C516.396 308.441 515.084 305.237 515.084 301.478H528.379V302.892C528.379 304.526 528.926 305.914 530.038 307.041C531.146 308.17 532.505 308.748 534.118 308.748H551.908C553.514 308.748 554.876 308.194 555.99 307.079C557.1 305.96 557.648 304.63 557.648 303.079V301.648C557.648 300.026 557.1 298.657 555.99 297.547C554.89 296.422 553.529 295.875 551.915 295.875H528.428C524.595 295.875 521.409 294.71 518.894 292.391C516.367 290.062 515.111 285.963 515.111 282.389C515.111 278.756 516.386 275.754 518.946 273.393C521.5 271.036 524.666 269.86 528.437 269.86ZM255.02 273.627C265.127 273.627 273.319 282.025 273.32 292.386V299.003C273.32 304.183 269.222 308.381 264.17 308.381V299.003V292.386C264.17 287.203 260.073 283.005 255.02 283.005C249.965 283.005 245.869 287.203 245.869 292.386C245.869 297.566 249.965 301.763 255.02 301.763H260.219C260.219 308.3 253.628 312.178 246.905 309.151C240.96 306.468 236.719 299.652 236.719 292.386C236.719 282.025 244.912 273.627 255.02 273.627Z" fill="#41424E"/>
</svg>
