<svg width="800" height="600" viewBox="0 0 800 600" fill="none" xmlns="http://www.w3.org/2000/svg">
<path fill-rule="evenodd" clip-rule="evenodd" d="M233.614 321.783C233.614 325.028 230.969 327.655 227.707 327.655H182.907C179.645 327.655 177 325.028 177 321.783V277.253C177 274.01 179.645 271.381 182.907 271.381H227.707C230.969 271.381 233.614 274.01 233.614 277.253V321.783Z" fill="#FFE611"/>
<path fill-rule="evenodd" clip-rule="evenodd" d="M205.306 287.644L186.285 306.551C186.285 306.551 190.148 310.39 190.708 310.946C191.268 311.503 192.006 311.572 192.624 310.958C193.13 310.453 204.445 299.033 204.445 299.033C205.05 298.383 205.26 297.905 205.306 297.725C205.354 297.905 205.564 298.383 206.17 299.033C206.17 299.033 217.483 310.453 217.991 310.958C218.608 311.572 219.347 311.503 219.907 310.946C220.468 310.39 224.329 306.551 224.329 306.551L205.306 287.644Z" fill="#DB2C6F"/>
<path fill-rule="evenodd" clip-rule="evenodd" d="M261.325 305.479V298.373H286.638V323.542H279.231C277.72 323.542 276.855 322.681 276.855 321.183V309.13C276.855 308.628 276.887 308.172 276.95 307.767C276.498 307.853 276.017 307.903 275.553 307.903H263.699C262.212 307.903 261.325 306.997 261.325 305.479ZM248.288 277.917C248.288 276.377 249.177 275.493 250.727 275.493H258.071V323.542H250.727C249.177 323.542 248.288 322.708 248.288 321.248V277.917ZM279.232 275.493H286.637V295.144H279.232C277.721 295.144 276.856 294.281 276.856 292.78V277.856C276.856 276.354 277.721 275.493 279.232 275.493ZM314.058 274.788C325.624 274.788 332.811 281.66 332.811 292.723V306.121C332.811 317.303 325.624 324.25 314.058 324.25C302.314 324.25 295.302 317.545 295.302 306.312V292.913C295.302 281.565 302.314 274.788 314.058 274.788ZM370.162 275.492H377.503V306.76C377.503 317.548 370.538 324.25 359.329 324.25C347.988 324.25 341.219 317.712 341.219 306.76V277.854C341.219 276.353 342.084 275.492 343.593 275.492H351V306.378C351 312.212 353.801 315.171 359.329 315.171C364.898 315.171 367.722 312.212 367.722 306.378V277.854C367.722 276.375 368.633 275.492 370.162 275.492ZM405.957 295.332C414.822 298.55 418.778 303.063 418.778 309.966C418.778 318.51 411.991 324.25 401.892 324.25C392.453 324.25 386.85 320.146 384.766 311.704L384.641 311.206L390.804 309.046C391.216 308.903 391.6 308.831 391.942 308.831C392.615 308.831 393.516 309.107 393.981 310.417C394.954 313.799 397.601 315.426 402.085 315.426C406.283 315.426 408.998 313.409 408.998 310.288C408.998 307.121 406.723 305.771 399.892 303.321C391.22 300.207 385.848 296.597 385.848 288.236C385.848 280.192 392.372 274.788 402.085 274.788C410.299 274.788 415.538 278.543 418.104 286.266L418.277 286.787L412.082 289.026C411.674 289.199 411.283 289.287 410.92 289.287C410.066 289.287 409.413 288.816 408.927 287.848C407.549 284.914 405.421 283.612 402.021 283.612C398.017 283.612 395.627 285.342 395.627 288.236C395.627 291.166 397.827 292.381 405.957 295.332ZM429.042 275.492H436.383V323.546H429.042C427.517 323.546 426.603 322.663 426.603 321.185V277.854C426.603 276.375 427.517 275.492 429.042 275.492ZM477.473 275.492H484.489V323.546H474.766C473.194 323.546 472.258 322.931 471.54 321.429L460.325 299.001C458.573 295.517 457.075 291.782 455.811 288.482C456.018 291.496 456.119 294.565 456.119 297.786V323.546H449.101C447.572 323.546 446.659 322.663 446.659 321.185V278.044C446.659 276.446 447.62 275.492 449.228 275.492H459.259L471.15 300.043C472.672 303.298 474.069 306.783 475.366 310.214C475.184 307.174 475.097 304.175 475.097 301.119V277.854C475.097 276.353 475.964 275.492 477.473 275.492ZM511.596 296.455H529.753V307.852C529.753 317.506 522.412 324.249 511.902 324.249C500.157 324.249 493.147 317.546 493.147 306.31V292.722C493.147 281.49 500.099 274.786 511.745 274.786H511.903C521.002 274.786 526.686 278.987 529.277 287.626L529.434 288.148L522.853 290.375C521.428 290.897 520.257 290.413 519.75 289.079C518.489 285.569 515.923 283.865 511.902 283.865C505.863 283.865 502.927 286.868 502.927 293.042V305.992C502.927 312.081 505.947 315.17 511.902 315.17C517.235 315.17 520.295 312.644 520.295 308.236V306.056C520.295 305.648 520.328 305.269 520.388 304.923C520.001 304.988 519.561 305.019 519.06 305.019H513.898C512.39 305.019 511.525 304.159 511.525 302.66L511.596 296.455ZM565.178 304.892C565.178 297.869 569.498 293.676 576.734 293.676C583.969 293.676 588.289 297.801 588.289 304.711V312.947C588.289 319.971 583.969 324.163 576.734 324.163C569.498 324.163 565.178 320.037 565.178 313.128V304.892ZM550.763 299.013C546.741 299.013 544.702 301.101 544.702 305.22V312.62C544.702 316.738 546.741 318.826 550.763 318.826C553.462 318.826 555.258 317.647 556.1 315.32C556.409 314.612 556.904 314.421 557.672 314.676L561.521 315.95L561.274 316.637C559.529 321.48 556.09 323.836 550.763 323.836L550.537 323.837H550.535C543.443 323.837 539.208 319.711 539.208 312.801V305.039C539.208 298.127 543.443 294.003 550.535 294.003L550.76 294.004C556.087 294.004 559.529 296.358 561.274 301.203L561.521 301.888L557.673 303.164C556.895 303.421 556.4 303.214 556.101 302.52C555.253 300.181 553.463 299.013 550.763 299.013ZM617.457 294.299H622V323.54H618.284C617.48 323.54 616.824 322.89 616.824 322.09V307.596L610.611 323.54H605.855C605.24 323.54 604.686 323.153 604.479 322.575L598.626 307.597V323.54H594.911C594.105 323.54 593.45 322.89 593.45 322.09V295.75C593.45 294.95 594.105 294.299 594.911 294.299H598.989L607.727 316.126L616.098 295.221C616.319 294.661 616.853 294.299 617.457 294.299ZM535.097 319.251C535.494 319.251 535.815 319.57 535.815 319.964V322.826C535.815 323.221 535.494 323.54 535.097 323.54H532.217C531.821 323.54 531.5 323.221 531.5 322.826V319.964C531.5 319.57 531.821 319.251 532.217 319.251H535.097ZM305.083 292.913V306.121C305.083 312.124 308.102 315.17 314.058 315.17C320.012 315.17 323.031 312.124 323.031 306.121V292.913C323.031 286.91 320.012 283.866 314.058 283.866C308.102 283.866 305.083 286.91 305.083 292.913ZM582.796 304.801C582.796 300.799 580.7 298.686 576.734 298.686C572.769 298.686 570.672 300.799 570.672 304.801V312.947C570.672 316.949 572.769 319.064 576.734 319.064C580.7 319.064 582.796 316.949 582.796 312.947V304.801Z" fill="#1A1918"/>
</svg>
