<svg width="800" height="600" viewBox="0 0 800 600" fill="none" xmlns="http://www.w3.org/2000/svg">
<path fill-rule="evenodd" clip-rule="evenodd" d="M244.918 164L267.529 186.561L244.89 209.122L222.279 186.561L244.918 164ZM278.849 280.298L324.128 235.176L301.488 212.642L290.169 223.923L267.529 201.334L244.89 223.923L267.529 246.484L260.104 253.856L244.89 238.696L199.64 283.79L222.279 306.324L233.571 295.071L256.21 317.632L278.849 295.071L256.21 272.51V257.737L278.849 280.298ZM244.89 223.923L222.251 201.362L177 246.484L199.64 269.018L244.89 223.923Z" fill="#F8A028"/>
<path fill-rule="evenodd" clip-rule="evenodd" d="M244.891 209.122L222.279 186.562L222.251 201.362L244.891 223.923L267.53 201.334V186.562L244.891 209.122ZM199.64 298.591L222.279 321.153L233.571 309.872L256.21 332.433L278.849 309.872V295.071L256.21 317.632L233.571 295.071L222.279 306.324L199.64 283.79L244.89 238.696L260.104 253.856L267.529 246.484L244.89 223.923L199.64 269.018L177 246.484V261.257L199.64 283.79V298.591ZM278.849 280.298L256.21 257.737V272.51L278.849 295.071L324.129 249.977V235.176L278.849 280.298ZM400.778 390V373.647V283.763H379.391V390H400.778ZM433.098 283.763H517.48V302.084H486.079V390H464.497V302.084H433.098V283.763ZM622 283.763H537.617V302.084H569.016V390H590.599V302.084H622V283.763Z" fill="#1A1818"/>
</svg>
