<svg width="800" height="600" viewBox="0 0 800 600" fill="none" xmlns="http://www.w3.org/2000/svg">
<path d="M290.144 301.694V250.701H298.103H306.062V254.072C306.062 255.926 306.09 257.443 306.125 257.443C306.16 257.443 307.164 256.832 308.358 256.085C322.436 247.276 342.902 244.623 361.257 249.228C377.794 253.377 389.782 263.227 394.044 276.165C396.535 283.726 396.397 292.135 393.664 299.447C390.264 308.543 383.274 315.857 373.192 320.867C364.369 325.251 354.296 327.447 343.003 327.447C333.64 327.447 324.909 325.887 317.222 322.842C314.172 321.634 310.263 319.65 307.891 318.108L306.062 316.919V334.803V352.687H298.103H290.144V301.694ZM350.703 313.89C359.656 312.621 366.603 309.783 371.812 305.266C375.755 301.847 378.5 297.098 379.541 291.9C379.966 289.774 379.967 284.753 379.543 282.633C378.318 276.516 374.809 271.172 369.556 267.424C367.439 265.914 363.138 263.761 360.392 262.839C352.64 260.234 343.24 259.462 334.631 260.724C319.683 262.916 309.58 270.322 306.869 281.075C305.673 285.82 305.887 290.941 307.467 295.418C311.057 305.586 321.642 312.352 336.601 314.041C339.609 314.38 347.866 314.292 350.703 313.89H350.703ZM403.475 301.694V250.701H411.435H419.394V254.072C419.394 255.926 419.428 257.443 419.471 257.443C419.513 257.443 420.389 256.895 421.417 256.225C423.797 254.675 428.494 252.358 431.506 251.247C444.507 246.453 460.382 245.68 474.274 249.164C496.919 254.844 510.255 270.405 508.996 289.681C508.035 304.394 498.235 316.48 482.116 322.832C476.857 324.903 471.469 326.21 464.725 327.048C461.166 327.49 451.572 327.49 447.857 327.047C437.34 325.794 428.107 322.674 420.908 317.941L419.394 316.946V334.817V352.687H411.435H403.475V301.694V301.694ZM464.419 313.815C476.82 311.965 485.559 306.974 490.151 299.119C492.818 294.557 493.817 288.488 492.828 282.853C490.772 271.14 480.468 263.035 464.693 260.722C454.281 259.196 442.525 260.716 434.534 264.623C426.376 268.612 421.466 274.567 419.79 282.507C419.351 284.591 419.352 289.95 419.793 291.993C420.98 297.492 423.663 302.042 427.734 305.462C433.341 310.171 440.638 312.974 450.106 314.058C453.238 314.417 461.305 314.28 464.42 313.815H464.419ZM224.394 327.341C215.95 326.596 208.743 324.934 202.614 322.319C188.674 316.371 179.87 306.332 177.481 293.661C177.024 291.241 176.85 285.788 177.146 283.183C178.872 267.992 190.073 255.959 207.783 250.273C217.208 247.247 228.809 246.259 239.221 247.594C258.299 250.041 272.729 258.879 279.072 272C284.236 282.683 283.581 295.66 277.373 305.636C274.577 310.13 269.972 314.768 265.228 317.87C257.846 322.696 249.03 325.698 238.322 327.032C236.178 327.3 226.383 327.517 224.394 327.341ZM235.686 314.057C243.989 313.176 250.975 310.808 256.231 307.092C260.527 304.053 263.927 299.576 265.453 294.946C266.346 292.236 266.523 290.964 266.523 287.261C266.523 283.569 266.349 282.307 265.462 279.595C262.55 270.682 254.032 264.052 242.129 261.435C231.693 259.14 219.523 259.938 210.506 263.507C204.001 266.083 198.866 270.251 195.855 275.402C192.653 280.879 191.927 288.34 193.969 294.769C196.17 301.696 201.968 307.493 209.946 310.744C214.292 312.515 219.672 313.749 224.999 314.197C227.043 314.368 233.551 314.283 235.686 314.057ZM564.043 327.347C563.71 327.309 562.542 327.193 561.448 327.09C552.661 326.258 543.423 323.486 536.651 319.648C527.495 314.461 521.118 307.088 518.207 298.324C516.237 292.393 515.901 285.727 517.262 279.595C519.32 270.322 524.97 262.448 533.744 256.625C545.315 248.945 562.328 245.535 578.75 247.602C592.395 249.319 603.636 254.305 611.458 262.108C617.415 268.05 620.84 275.013 621.83 283.194C622.087 285.32 622.047 289.62 621.749 291.876C619.602 308.122 606.711 320.538 586.969 325.376C580.983 326.842 577.226 327.286 570.186 327.359C567.141 327.39 564.376 327.385 564.043 327.347V327.347ZM574.511 314.138C585.022 313.172 593.589 309.711 599.088 304.21C602.812 300.485 604.973 296.385 605.825 291.43C606.176 289.388 606.171 285.131 605.815 283.013C603.899 271.611 593.836 263.345 578.924 260.927C575.343 260.346 572.962 260.157 569.234 260.157C552.516 260.157 539.543 266.455 534.554 276.993C533.067 280.135 532.381 283.376 532.381 287.261C532.381 292.386 533.577 296.451 536.276 300.502C541.231 307.938 550.628 312.689 563.066 314.045C565.632 314.325 571.92 314.376 574.511 314.138Z" fill="#006B33"/>
</svg>
