<svg width="800" height="600" viewBox="0 0 800 600" fill="none" xmlns="http://www.w3.org/2000/svg">
<path fill-rule="evenodd" clip-rule="evenodd" d="M132 299.946C132.024 307.041 133.445 314.062 136.183 320.608C138.92 327.154 142.92 333.097 147.954 338.097C152.989 343.097 158.958 347.057 165.523 349.75C172.087 352.443 179.117 353.816 186.213 353.792C216.136 353.792 240.399 329.686 240.399 299.946C240.351 285.621 234.615 271.902 224.454 261.805C214.293 251.707 200.538 246.059 186.213 246.1C179.117 246.076 172.087 247.45 165.523 250.143C158.958 252.836 152.989 256.795 147.954 261.795C142.92 266.795 138.92 272.738 136.183 279.284C133.445 285.83 132.024 292.851 132 299.946Z" fill="#32C0D4"/>
<path fill-rule="evenodd" clip-rule="evenodd" d="M191.375 333.721H180.789C176.256 333.721 173.714 331.704 172.404 330.027C170.901 327.925 170.153 325.376 170.282 322.795V315.799H163.207C156.656 315.799 152.202 311.476 152.202 305.056V294.523C152.202 290.016 154.246 287.5 155.949 286.19C158.438 284.304 161.294 284.094 163.233 284.094H170.282V277.072C170.282 270.521 174.631 266.146 181.103 266.146H191.689C196.222 266.146 198.764 268.163 200.074 269.866C201.986 272.329 202.196 275.159 202.196 277.072V284.068H209.271C215.821 284.068 220.276 288.391 220.276 294.837V305.344C220.276 309.877 218.232 312.366 216.529 313.677C214.04 315.563 211.183 315.773 209.245 315.773H202.196V322.795C202.196 329.346 197.846 333.721 191.375 333.721Z" fill="#FFFFFE"/>
<path fill-rule="evenodd" clip-rule="evenodd" d="M181.103 273.036C178.168 273.036 177.173 274.608 177.173 277.071V290.959H163.233C160.56 290.959 159.145 291.614 159.145 294.522V305.029C159.145 307.964 160.718 308.907 163.233 308.907H177.199V322.794C177.199 325.441 177.854 326.856 180.789 326.856H191.374C194.309 326.856 195.278 325.284 195.278 322.794V308.907H209.244C211.917 308.907 213.332 308.278 213.332 305.344V294.863C213.332 291.928 211.76 290.932 209.244 290.932H195.305V277.071C195.305 274.451 194.65 273.036 191.715 273.036H181.129H181.103Z" fill="#32C0D4"/>
<path fill-rule="evenodd" clip-rule="evenodd" d="M398.058 313.126C393.289 313.126 390.407 313.309 388.678 314.462C387.263 315.327 386.582 316.742 386.582 319.441C386.582 323.79 388.206 326.777 395.359 326.777C399.473 326.777 402.434 326.175 404.137 325.52C405.002 325.127 405.578 324.576 405.762 323.895C406.024 323.03 406.129 321.904 406.129 320.646V313.1L398.058 313.126ZM415.588 330.079C414.906 330.944 414.068 331.703 412.522 332.28C408.801 333.8 400.6 335.031 394.023 335.031C379.428 335.031 376.468 327.904 376.468 319.703C376.468 313.991 378.092 310.453 381.813 308.069C384.878 306.182 390.591 305.213 396.879 305.213C399.84 305.213 403.43 305.265 406.129 305.213V302.488C406.129 300.654 406.05 298.557 405.578 297.352C404.792 295.335 402.984 294.103 396.696 294.103C393.656 294.103 390.014 294.47 386.686 295.151C385.455 295.335 383.542 295.728 382.861 295.728C381.918 295.728 381.341 295.151 381.053 294.208C380.648 292.672 380.385 291.102 380.267 289.518C380.267 288.103 381.053 287.421 382.206 287.055C387.422 285.618 392.805 284.878 398.215 284.854C406.417 284.854 410.714 285.902 413.413 288.574C415.876 290.959 416.636 294.68 416.636 301.152V325.834C416.636 327.537 416.452 329.057 415.588 330.105V330.079ZM594.681 313.126C589.912 313.126 587.03 313.309 585.326 314.462C583.885 315.327 583.23 316.742 583.23 319.441C583.23 323.79 584.855 326.777 592.008 326.777C596.096 326.777 599.083 326.175 600.786 325.52C601.624 325.127 602.201 324.576 602.41 323.895C602.672 323.03 602.777 321.904 602.777 320.646V313.1L594.681 313.126ZM612.236 330.079C611.555 330.944 610.69 331.703 609.171 332.28C605.45 333.8 597.249 335.031 590.672 335.031C576.077 335.031 573.116 327.904 573.116 319.703C573.116 313.991 574.741 310.453 578.461 308.069C581.501 306.182 587.239 305.213 593.528 305.213C596.489 305.213 600.052 305.265 602.777 305.213V302.488C602.777 300.654 602.672 298.557 602.201 297.352C601.441 295.335 599.633 294.103 593.344 294.103C590.279 294.103 586.663 294.496 583.309 295.151C582.077 295.335 580.165 295.728 579.51 295.728C578.54 295.728 577.99 295.151 577.675 294.208C577.289 292.67 577.043 291.1 576.942 289.518C576.942 288.103 577.702 287.421 578.828 287.055C584.053 285.616 589.445 284.875 594.864 284.854C603.065 284.854 607.363 285.902 610.035 288.574C612.498 290.959 613.284 294.68 613.284 301.152V325.834C613.284 327.537 613.075 329.057 612.236 330.105V330.079ZM277.947 333.669H271.501C270.034 333.669 269.143 332.804 269.143 331.101V268.818C269.143 267.298 269.85 266.276 271.606 266.276H278.156C279.886 266.276 280.384 267.219 280.384 268.739V293.893H309.18V268.818C309.18 267.298 309.861 266.276 311.695 266.276H318.246C319.897 266.276 320.394 267.219 320.394 268.739V331.101C320.394 332.621 319.504 333.669 317.958 333.669H311.617C310.149 333.669 309.18 332.804 309.18 331.101V303.588H280.357V331.101C280.357 332.621 279.493 333.669 277.947 333.669ZM359.436 305.213C359.515 304.663 359.515 303.903 359.515 303.222C359.515 296.828 357.707 293.212 349.977 293.212C341.959 293.212 339.182 297.509 338.972 305.213H359.41H359.436ZM352.099 326.096C357.052 326.096 360.091 325.625 362.973 324.838C363.812 324.655 364.781 324.367 365.646 324.367C366.589 324.367 367.27 324.943 367.559 325.703C368.03 326.856 368.502 329.24 368.502 330.472C368.502 331.415 368.109 332.097 366.982 332.568C362.58 334.481 356.37 335.031 350.842 335.031C333.941 335.031 328.019 327.328 328.019 310.165C328.019 291.981 335.644 284.827 350.449 284.827C368.214 284.827 369.576 294.837 369.576 309.51C369.576 311.03 369.367 312.078 368.685 312.55C368.214 312.943 367.454 313.126 366.589 313.126H338.893C338.998 324 343.872 326.096 352.073 326.096H352.099ZM439.196 323.974C439.956 325.258 441.842 326.07 444.594 326.515C445.825 326.699 446.428 327.406 446.428 328.585C446.428 329.948 446.218 331.834 446.035 332.647C445.747 333.904 444.987 334.35 443.284 334.35C435.213 334.35 431.597 332.359 429.527 329.214C428.296 327.328 427.693 324.341 427.693 319.834V268.608C427.693 267.167 428.296 266.25 429.999 266.25H436.156C437.86 266.25 438.253 267.062 438.253 268.608V318.576C438.253 321.275 438.515 322.821 439.196 323.974ZM467.599 322.664C468.936 324.472 472.08 325.231 476.849 325.52C478.29 325.625 478.945 326.384 478.945 327.799C478.932 329.286 478.871 330.771 478.762 332.254C478.578 333.695 477.713 334.35 476.089 334.35C466.761 334.35 461.809 333.302 458.559 329.319C455.992 326.175 455.415 321.904 455.415 314.384V294.994H449.991C448.734 294.994 447.79 294.234 447.79 292.714V288.443C447.79 287.133 448.576 286.085 450.175 286.085H455.599C455.599 286.085 455.703 282.653 455.992 275.814C456.07 274.189 456.752 273.141 458.166 273.141H463.905C465.32 273.141 466.001 274.006 466.001 275.892V286.059H475.146C476.849 286.059 477.818 286.845 477.818 288.339V292.636C477.818 294.339 476.77 294.994 475.329 294.994H466.001V314.777C466.001 318.969 466.473 321.144 467.599 322.664ZM494.221 333.669H488.09C486.544 333.669 485.862 332.883 485.862 331.337V268.975C485.862 267.35 486.439 266.25 488.273 266.25H494.116C495.95 266.25 496.527 267.167 496.527 268.949V290.828C499.881 288.574 508.056 287.5 512.825 287.5C521.733 287.5 525.009 289.57 526.45 293.055C527.314 295.308 527.419 298.453 527.419 301.859V331.31C527.419 332.752 526.843 333.642 525.218 333.642H518.982C517.436 333.642 516.755 332.752 516.755 331.31V304.008C516.805 302.348 516.62 300.689 516.205 299.082C515.419 296.985 513.689 296.121 509.104 296.121C504.204 296.121 500.929 297.012 499.016 297.64C498.23 297.902 497.575 298.269 496.998 298.977C496.736 299.422 496.527 300.234 496.527 301.754V331.337C496.527 332.778 495.741 333.669 494.221 333.669ZM555.115 333.669H548.696C547.123 333.669 546.259 332.725 546.259 331.101V275.945H528.441C526.817 275.945 526.031 275.473 526.031 273.953V268.53C526.031 266.748 526.895 266.276 528.467 266.276H575.422C577.099 266.276 577.964 266.748 577.964 268.53V273.953C577.964 275.473 577.099 275.945 575.422 275.945H557.552V331.101C557.552 332.804 556.556 333.669 555.115 333.669Z" fill="#828282"/>
<mask id="mask0" mask-type="alpha" maskUnits="userSpaceOnUse" x="623" y="285" width="44" height="70">
<path d="M623.504 285.194H667V354.29H623.504V285.194Z" fill="white"/>
</mask>
<g mask="url(#mask0)">
<path fill-rule="evenodd" clip-rule="evenodd" d="M635.819 325.022C637.287 325.703 640.274 326.07 642.763 326.07C653.637 326.07 656.231 322.375 656.231 309.353C656.231 298.61 654.213 294.156 645.645 294.156C642.475 294.156 638.623 294.706 636.212 295.754C635.426 296.121 634.876 296.619 634.666 297.169C634.404 297.745 634.404 298.61 634.404 299.658V321.982C634.404 323.974 634.771 324.655 635.819 325.022ZM631.496 354.29H625.731C624.185 354.29 623.504 353.818 623.504 351.827L623.714 294.994C623.714 293.684 623.819 292.138 624.185 291.195C624.683 289.963 625.915 289.098 627.356 288.443C631.208 286.714 639.776 285.194 646.824 285.194C660.869 285.194 667.026 290.618 667.026 309.248C667.026 330.262 659.428 335.188 643.654 335.188C640.502 335.268 637.364 334.753 634.404 333.669L634.221 351.827C634.221 353.713 633.251 354.29 631.522 354.29" fill="#828282"/>
</g>
</svg>
