<svg width="800" height="600" viewBox="0 0 800 600" fill="none" xmlns="http://www.w3.org/2000/svg">
<path d="M227.492 350.84H214.087L208.477 294.722L202.087 350.84H188.843L177 249H192.582L197.567 313.223L203.648 249H215.648L220.791 313.223L226.711 249H241.202L227.492 350.84ZM261.129 350.84H276.625V249H261.129V350.84ZM318.846 335.853H337.666V350.84H300.978V345.489L320.748 263.987H302.085V249H338.616V254.355L318.846 335.853ZM360.754 350.84V249H393.962V263.682H376.59V291.51H388.119V305.428H376.59V335.704H393.962V350.84H360.754Z" fill="black"/>
<path d="M420.53 350.84V249H431.308V340.291H451.528V350.84H420.53ZM478.095 350.84H489.162V249H478.095V350.84ZM552.07 350.84L535.139 299.309L530.344 282.947V350.84H520.16V249H529.894L545.327 301.295L549.825 317.81V249H560.009V350.84H552.07ZM588.787 350.84V249H622V259.248H600.062V293.194H615.885V303.132H600.062V340.597H621.996V350.84H588.787Z" fill="black"/>
</svg>
