<svg width="800" height="600" viewBox="0 0 800 600" fill="none" xmlns="http://www.w3.org/2000/svg">
<path fill-rule="evenodd" clip-rule="evenodd" d="M396.652 308.596C395.92 308.596 395.24 308.968 394.848 309.585C391.422 314.976 385.229 315.88 379.052 314.863C374.655 313.932 371.366 311.015 369.876 306.575C367.658 299.967 368.007 286.908 378.447 284.309C382.852 283.211 390.743 283.096 394.814 289.367C395.208 289.975 395.889 290.337 396.614 290.337H404.032C405.593 290.337 406.639 288.746 406.026 287.311C403.983 282.532 398.239 273.809 383.295 273.809C365.893 273.809 357.798 285.367 357.798 299.511C357.798 312.668 365.083 325.222 383.143 325.222C398.413 325.222 404.015 316.534 406.02 311.555C406.591 310.137 405.534 308.595 404.004 308.595C401.62 308.596 398.392 308.596 396.652 308.596ZM611.938 298.569C609.382 297.218 606.57 296.303 603.802 295.414C601.381 294.636 598.83 294.267 596.392 293.537C594.967 293.11 593.298 292.409 592.012 291.43C589.445 289.477 589.645 286.58 592.641 284.987C593.659 284.446 594.694 284.17 595.481 284.084C602.064 283.362 606.627 284.72 612.268 287.049C613.686 287.635 615.248 286.591 615.248 285.056V279.151C615.248 278.313 614.762 277.549 614.001 277.196C613.512 276.969 612.988 276.731 612.65 276.593C605.637 273.731 598.322 273.301 590.82 274.777C587.397 275.45 584.345 277 582.066 279.761C577.237 285.611 578.484 294.78 584.731 299.408C587.635 301.561 590.945 302.849 594.407 303.757C596.905 304.412 599.451 304.891 601.935 305.596C603.306 305.984 605.069 306.627 606.35 307.47C608.875 309.131 608.446 312.06 605.982 313.694C605.217 314.201 603.935 314.682 603.03 314.843C596.014 316.094 588.522 314.435 583.437 312.275C582.01 311.669 580.434 312.706 580.434 314.256V319.861C580.434 320.638 580.851 321.357 581.529 321.738C581.855 321.922 582.174 322.096 582.359 322.184C586.243 324.03 590.415 324.809 594.71 325.064C599.694 325.36 604.649 325.187 609.426 323.532C613.725 322.042 617.158 319.485 618.436 314.924C620.329 308.172 618.524 302.052 611.938 298.569ZM449.614 314.22H430.594V277.145C430.594 275.956 429.63 274.992 428.441 274.992H421.622C420.433 274.992 419.47 275.956 419.47 277.145V321.923C419.47 323.111 420.433 324.075 421.622 324.075H447.33C448.204 324.075 448.992 323.548 449.325 322.74L451.608 317.199C452.194 315.779 451.15 314.22 449.614 314.22ZM562.213 275.048H555.451C554.257 275.048 553.288 276.01 553.287 277.205C553.28 282.174 553.267 294.496 553.267 300.939C553.267 310.841 551.051 315.269 542.505 315.269C534.927 315.269 531.899 310.52 531.899 302.942C531.899 295.944 531.871 282.428 531.86 277.193C531.858 276.006 530.903 275.048 529.716 275.048C527.754 275.048 524.866 275.048 522.908 275.048C521.724 275.048 520.771 275.998 520.764 277.183C520.734 282.221 520.692 294.932 520.789 301.841C520.828 304.64 521.146 307.483 521.744 310.216C523.415 317.841 528.067 322.72 535.755 324.475C539.824 325.404 543.955 325.44 548.062 324.732C555.668 323.419 560.76 319.166 563.007 311.687C564.041 308.248 564.354 304.711 564.36 301.142C564.371 294.585 564.367 282.173 564.365 277.194C564.365 276.005 563.401 275.048 562.213 275.048ZM480.62 304.874C482.628 299.754 484.611 294.694 486.689 289.394C488.759 294.669 490.737 299.709 492.765 304.874H480.62ZM511.036 320.431C505.552 307.113 495.388 282.327 492.927 276.326C492.597 275.519 491.813 274.992 490.94 274.992H482.498C481.627 274.992 480.845 275.516 480.514 276.322C478.069 282.256 468.039 306.607 462.597 319.814C462.527 319.984 462.318 320.508 462.069 321.134C461.503 322.558 462.551 324.105 464.083 324.105H471.603C472.493 324.105 473.291 323.558 473.612 322.728L476.133 316.205C476.454 315.375 477.252 314.827 478.142 314.827H495.266C496.15 314.827 496.945 315.369 497.269 316.192L499.853 322.756C500.176 323.58 500.972 324.121 501.856 324.121C501.856 324.121 505.961 324.134 509.32 324.142C510.858 324.146 511.907 322.588 511.332 321.162C511.204 320.843 511.097 320.58 511.036 320.431ZM668 282.695V277.213C668 276.024 667.037 275.061 665.848 275.06L633.531 275.049C632.341 275.048 631.377 276.013 631.377 277.202V321.927C631.377 323.117 632.341 324.08 633.53 324.08H665.847C667.037 324.08 668 323.117 668 321.927V316.364C668 315.174 667.037 314.21 665.847 314.21H642.47V304.488H662.85C664.039 304.488 665.004 303.525 665.004 302.336V296.699C665.004 295.51 664.039 294.546 662.85 294.546H642.495V284.849H665.847C667.037 284.849 668 283.885 668 282.695Z" fill="#0F2332"/>
<path fill-rule="evenodd" clip-rule="evenodd" d="M223.641 259.606L215.75 251.715L184.064 283.401C175.176 292.29 175.176 306.752 184.065 315.641L215.781 347.357L223.672 339.466L191.955 307.75C187.418 303.213 187.418 295.83 191.955 291.291L223.641 259.606ZM259.475 358.812C257.278 361.01 254.355 362.221 251.246 362.221C248.138 362.221 245.216 361.01 243.018 358.812L236.438 352.233L265.797 322.874C267.995 320.676 270.918 319.466 274.026 319.466H298.823L259.475 358.812ZM243.018 240.229C245.216 238.031 248.138 236.821 251.246 236.821C254.355 236.821 257.278 238.031 259.476 240.229L298.826 279.579H274.029C270.921 279.579 267.998 278.368 265.8 276.17L236.438 246.808L243.018 240.229ZM304.416 308.306H274.026C267.937 308.306 262.212 310.678 257.907 314.983L214.076 358.812C211.879 361.01 208.957 362.221 205.848 362.221C202.74 362.221 199.817 361.01 197.619 358.812L146.556 307.75C142.02 303.213 142.02 295.83 146.556 291.291L197.619 240.229C199.817 238.031 202.74 236.821 205.848 236.821C208.957 236.821 211.879 238.031 214.078 240.229L257.91 284.061C262.215 288.367 267.94 290.738 274.029 290.738H304.419C308.008 290.738 311.214 288.596 312.588 285.28C313.961 281.965 313.21 278.182 310.673 275.644L267.368 232.339C263.061 228.033 257.336 225.661 251.246 225.661C245.158 225.661 239.434 228.033 235.127 232.339L228.548 238.917L221.969 232.339C217.663 228.033 211.938 225.661 205.848 225.661C199.76 225.661 194.035 228.033 189.729 232.339L138.665 283.401C129.778 292.29 129.778 306.752 138.666 315.641L189.729 366.703C194.035 371.009 199.76 373.38 205.848 373.38C211.938 373.38 217.663 371.009 221.968 366.703L228.548 360.124L235.127 366.703C239.434 371.009 245.158 373.38 251.246 373.38C257.336 373.38 263.061 371.009 267.366 366.703L310.67 323.401C313.207 320.863 313.958 317.08 312.585 313.764C311.211 310.448 308.005 308.306 304.416 308.306Z" fill="#0043BA"/>
</svg>
