<svg width="800" height="600" viewBox="0 0 800 600" fill="none" xmlns="http://www.w3.org/2000/svg">
<path d="M584.633 303.561H585.768C589.594 303.561 593.263 305.045 595.969 307.686L619.417 330.572C623.048 334.117 622.851 339.985 618.823 343.277C615.3 346.159 610.053 345.784 606.803 342.611L578.326 314.816C576.898 313.423 574.592 313.411 573.149 314.78L573.112 314.816L544.644 342.602C541.263 345.903 535.753 346.147 532.253 342.966C528.578 339.626 528.501 334.008 532.021 330.572L555.469 307.685C558.175 305.045 561.844 303.561 565.67 303.561H584.633L584.633 303.561ZM566.805 296.641H565.67C561.844 296.641 558.174 295.158 555.469 292.517L532.021 269.631C528.389 266.085 528.587 260.218 532.614 256.926C536.138 254.044 541.384 254.419 544.635 257.591L573.111 285.387C574.544 286.785 576.862 286.792 578.304 285.408L578.326 285.387L606.793 257.601C610.175 254.3 615.685 254.056 619.185 257.237C622.859 260.577 622.936 266.195 619.417 269.63L595.968 292.517C593.263 295.158 589.594 296.642 585.768 296.642H566.805L566.805 296.641Z" fill="#8E8C9A"/>
<path d="M341.339 333.702L313.777 264.687C311.44 258.837 302.959 258.837 300.622 264.687L273.059 333.702C272.718 334.556 272.738 335.491 273.115 336.331C273.493 337.17 274.182 337.818 275.067 338.157C275.479 338.313 275.909 338.392 276.343 338.392C276.824 338.392 277.298 338.295 277.762 338.101C278.622 337.729 279.284 337.055 279.626 336.201L307.2 267.183L334.773 336.201C335.115 337.055 335.777 337.729 336.637 338.101C337.101 338.295 337.575 338.392 338.056 338.392C338.49 338.392 338.92 338.313 339.332 338.157C340.217 337.818 340.906 337.17 341.283 336.331C341.661 335.491 341.681 334.556 341.339 333.702ZM374.374 268.66H415.39C417.264 268.66 418.904 267.282 419.03 265.457C419.168 263.454 417.537 261.781 415.514 261.781H374.358C368.551 261.781 363.843 266.376 363.843 272.044V334.829C363.843 336.658 365.254 338.259 367.125 338.382C369.177 338.516 370.891 336.925 370.891 334.95V303.523H415.387C417.261 303.523 418.901 302.146 419.027 300.321C419.164 298.318 417.533 296.645 415.51 296.645L370.891 296.645V272.059C370.891 270.182 372.45 268.66 374.374 268.66ZM497.688 331.511H456.547C454.624 331.511 453.065 329.989 453.065 328.111V303.523H497.567C499.441 303.523 501.081 302.146 501.206 300.32C501.344 298.319 499.713 296.646 497.691 296.646L453.065 296.645V272.059C453.065 270.182 454.624 268.66 456.547 268.66H497.563C499.437 268.66 501.077 267.283 501.202 265.457C501.34 263.454 499.711 261.781 497.688 261.781H456.531C450.724 261.781 446.017 266.376 446.017 272.044V328.127C446.017 333.795 450.724 338.39 456.531 338.39H497.563C499.437 338.39 501.077 337.013 501.202 335.187C501.34 333.184 499.711 331.511 497.688 331.511ZM250.617 317.557C249.006 316.499 246.812 316.914 245.724 318.483C239.436 327.57 228.984 332.995 217.765 332.995C199.174 332.995 184.049 318.232 184.049 300.085C184.049 281.94 199.174 267.177 217.765 267.177C228.984 267.177 239.436 272.601 245.724 281.688C246.812 283.258 249.006 283.673 250.617 282.614C251.399 282.097 251.925 281.317 252.104 280.417C252.282 279.511 252.09 278.593 251.563 277.833C243.963 266.855 231.327 260.299 217.765 260.299C195.286 260.299 177 278.147 177 300.085C177 322.024 195.286 339.873 217.765 339.873C231.327 339.873 243.963 333.316 251.563 322.338C252.09 321.579 252.282 320.66 252.104 319.755C251.925 318.855 251.399 318.075 250.617 317.557ZM573.149 314.78L544.645 342.602C541.263 345.903 535.753 346.147 532.253 342.966C528.578 339.626 528.501 334.009 532.022 330.573L555.469 307.686C558.175 305.045 561.844 303.561 565.67 303.561H584.633C584.633 303.561 574.592 313.411 573.149 314.78ZM578.304 285.408L606.793 257.601C610.175 254.3 615.685 254.056 619.185 257.237C622.859 260.577 622.936 266.195 619.417 269.631L595.968 292.518C593.263 295.158 589.594 296.642 585.768 296.642H566.805C566.805 296.642 576.862 286.792 578.304 285.408Z" fill="#1D1936"/>
</svg>
