<svg width="800" height="600" viewBox="0 0 800 600" fill="none" xmlns="http://www.w3.org/2000/svg">
<path d="M433.974 235.101C433.974 231.854 425.249 231 422.854 231C418.918 231 408.14 243.814 400.954 255.261C394.453 265.683 388.123 278.156 382.648 291.482C378.028 292.849 374.093 294.216 372.554 295.412C370.501 297.121 373.58 303.955 377.173 304.126C372.04 318.477 368.961 329.583 367.934 339.663C367.934 340.347 368.276 341.03 368.961 341.372C372.211 342.739 380.937 343.764 381.45 340.176C383.845 323.603 386.925 314.548 391.544 301.05C399.243 299.513 408.311 298.146 416.01 297.804C415.668 305.663 415.497 335.05 417.037 339.151C418.063 341.884 429.697 343.764 429.697 340.859C429.697 334.879 428.328 313.181 428.671 289.09C429.184 260.387 433.974 238.176 433.974 235.101ZM416.523 287.724C414.812 285.673 407.627 287.04 404.034 287.211C402.152 287.382 399.586 287.724 396.677 288.236C405.06 268.246 413.615 255.432 419.603 247.402C419.774 247.573 417.037 272.859 416.523 287.724ZM568.963 254.065C567.081 254.065 564.001 251.844 563.83 246.719C563.83 243.302 565.37 234.759 571.358 234.759C576.491 234.759 578.886 240.055 578.886 243.302C578.886 247.06 576.491 254.065 568.963 254.065ZM614.301 317.281C615.156 315.573 621.829 317.111 622 319.332C622 329.412 608.655 343.422 597.363 343.422C589.151 343.422 583.676 339.493 580.255 333.342C576.662 337.784 571.7 342.739 564.514 342.739C559.382 342.739 555.447 340.688 553.394 334.367C550.485 337.271 546.208 339.493 541.76 339.493C531.665 339.493 528.757 328.045 528.757 315.915C528.757 303.101 532.692 275.764 531.494 275.764C528.928 275.764 507.2 310.106 507.2 339.834C507.2 343.08 493.684 343.764 493.684 340.005V335.392C491.118 337.784 488.38 339.322 484.274 339.322C474.18 339.322 471.271 327.874 471.271 315.744C471.271 302.93 474.693 275.593 474.009 275.593C471.443 275.593 449.714 310.789 449.714 340.518C449.714 343.764 436.198 344.447 436.198 340.688C436.198 320.015 439.278 260.9 443.213 260.9C445.095 260.9 454.505 260.9 453.992 264.658C452.11 279.01 448.517 307.201 448.517 307.201C452.452 291.995 468.021 260.9 476.404 260.9C480.339 260.9 486.84 263.633 486.84 268.417C486.84 280.889 482.563 292.678 482.563 318.307C482.563 325.995 484.445 329.754 488.722 329.754C491.289 329.754 492.486 327.704 493.855 325.141C494.71 299.513 497.277 261.07 500.527 261.07C502.409 261.07 511.819 261.07 511.306 264.829C509.424 279.181 505.831 307.372 505.831 307.372C509.766 292.166 524.138 261.07 533.719 261.07C537.654 261.07 544.155 263.804 544.155 268.588C544.155 288.065 533.376 329.925 546.037 329.925C548.774 329.925 549.972 327.533 551.512 324.628V321.04C551.512 304.467 556.131 274.226 558.868 264.146C559.382 262.608 560.579 262.266 561.606 262.266C561.264 262.266 573.411 262.608 572.042 267.734C567.594 284.307 563.659 313.352 563.83 324.97C563.83 330.608 565.883 334.196 568.278 334.196C571.529 334.196 574.951 329.583 577.004 325.995C570.845 302.246 584.19 262.779 601.983 262.779C628.33 262.779 624.053 309.422 589.493 309.422C589.151 309.422 588.638 309.251 588.125 309.251C587.098 322.578 589.322 334.025 597.192 334.025C606.944 334.025 611.906 322.407 614.301 317.281ZM603.18 271.322C597.534 271.322 591.888 285.161 589.151 299.854H590.178C610.708 299.854 612.419 271.322 603.18 271.322ZM242.527 236.126C242.527 236.126 242.698 236.296 242.869 237.151C233.801 280.719 238.421 332.829 239.447 342.91V343.08V343.251C238.934 344.276 237.394 344.789 235.17 344.789C231.406 344.789 226.787 343.422 225.76 341.03C224.049 337.442 223.707 313.523 224.049 302.075V301.563V300.879H223.365H222.852C215.837 301.221 208.48 302.588 201.637 303.955H201.466H201.123L200.952 304.297V304.467C196.504 317.452 193.424 329.07 190.858 343.08C190.687 343.935 190.003 345.302 186.923 345.302C183.844 345.302 179.737 343.764 178.027 342.055C177.342 341.372 177 340.688 177 340.005C178.027 329.754 180.935 321.04 185.554 307.884V307.714L185.897 307.201L185.383 306.859L185.041 306.688C183.844 306.005 182.817 304.638 182.304 302.759C181.619 300.367 181.619 297.462 182.988 296.437C184.699 295.07 187.094 294.045 191.029 292.849H191.2H191.542L191.714 292.508V292.337C204.032 262.95 220.285 239.201 233.288 231.854H233.63L234.314 232.025C238.078 232.538 241.329 232.879 242.527 236.126ZM229.353 249.794L229.866 246.889L228.326 249.281L227.3 250.819C222.338 257.995 214.81 270.126 207.283 287.553L206.94 288.236L206.427 289.261L207.625 289.09L208.48 288.92C210.704 288.578 212.415 288.407 213.442 288.407C214.126 288.236 215.153 288.236 216.179 288.236C217.719 288.236 220.799 288.407 223.023 289.09L223.365 289.261L224.22 289.432V288.578V288.065C224.905 275.764 226.787 264.658 229.011 251.503L229.353 249.794ZM347.575 271.151C349.97 275.764 351.168 282.085 351.168 289.774C351.168 301.392 348.259 314.377 343.298 324.457C337.823 335.734 330.808 341.884 323.28 341.884C317.634 341.884 313.87 337.442 311.646 333.513L311.133 332.487L310.106 330.779L309.935 332.658L309.764 333.854C309.422 337.784 308.909 342.91 308.567 347.01V347.181C308.396 349.402 308.225 351.623 308.053 353.673C307.54 359.482 307.027 364.437 306.685 367.171C306.343 369.05 306 369.392 304.803 369.563H304.461C303.263 369.563 297.617 368.196 295.051 366.488C294.709 366.317 294.537 363.925 295.735 352.819C296.591 344.447 297.959 333.854 299.328 322.92C300.697 312.668 305.316 278.498 308.396 267.905C309.08 265.171 309.593 264.658 310.106 264.658C314.384 264.658 317.805 265.342 318.832 266.538C319.174 266.879 319.174 268.075 319.174 268.588L318.319 275.422L317.977 277.302L317.634 280.377L319.174 277.643L320.201 275.935C323.451 270.297 329.611 263.633 336.112 263.633C341.073 263.633 345.008 266.196 347.575 271.151ZM333.717 314.548C336.625 304.98 338.336 293.874 338.336 285.673C338.336 281.915 337.994 278.839 337.309 276.789C336.625 274.226 335.256 273.03 333.546 273.03C323.794 273.03 316.608 304.467 316.608 314.035C316.608 324.457 319.345 331.121 323.451 331.121C328.071 331.121 331.835 320.699 333.717 314.548ZM293.511 271.322C295.906 275.935 297.104 282.256 296.933 290.286C296.933 301.905 294.195 314.719 289.405 324.799C284.101 335.905 277.258 342.055 270.072 342.055C265.11 342.055 261.004 339.663 258.438 335.392L257.925 334.367L256.898 332.829L256.727 334.709L256.556 335.734C255.872 341.201 255.358 347.694 254.845 353.332V353.503V353.673C254.332 359.482 253.819 364.437 253.476 367.171C253.134 369.05 252.792 369.392 251.594 369.563H251.252C250.055 369.563 244.409 368.196 241.842 366.488C241.5 366.317 241.329 363.925 242.527 352.819C243.382 344.447 244.751 333.854 246.12 322.92C247.488 312.668 252.108 278.498 255.187 267.905C255.872 265.171 256.385 264.658 256.898 264.658C261.175 264.658 264.597 265.342 265.624 266.538C265.966 266.879 265.966 268.075 265.966 268.588L264.939 275.593L264.768 277.472L264.426 280.548L265.966 277.814L266.992 276.276C269.901 271.492 275.547 263.633 282.219 263.633C287.01 263.633 290.945 266.367 293.511 271.322ZM280.679 314.548C283.417 304.98 285.299 293.874 285.299 285.673C285.299 281.915 284.957 278.839 284.272 276.789C283.588 274.226 282.219 273.03 280.508 273.03C270.756 273.03 263.571 304.467 263.571 314.035C263.571 324.457 266.308 331.121 270.414 331.121C275.033 331.121 278.797 320.699 280.679 314.548Z" fill="#112235"/>
</svg>
