<svg width="800" height="600" viewBox="0 0 800 600" fill="none" xmlns="http://www.w3.org/2000/svg">
<path fill-rule="evenodd" clip-rule="evenodd" d="M641.395 324.476H631.886V286.057H641.395C651.975 286.057 660.552 294.658 660.552 305.266C660.552 315.876 651.975 324.476 641.395 324.476ZM640.925 279.591C655.295 279.591 667.282 291.383 666.995 305.79C666.717 319.729 655.362 330.943 641.395 330.943H625.438V282.527C625.438 280.906 626.749 279.591 628.365 279.591H640.925ZM513.366 281.451C513.807 280.329 514.888 279.591 516.09 279.591H521.497L541.682 330.943H534.282L528.21 315.493H507.385L501.312 330.943H493.913L513.366 281.451ZM509.938 308.997H525.656L517.797 289.004L509.938 308.997ZM436.308 330.943H429.04L411.69 279.591H418.958L432.47 320.165L443.774 281.686C444.145 280.443 445.285 279.591 446.579 279.591H451.584L463.485 320.073L476.74 279.591H483.996L466.937 330.943H459.68L459.699 330.886L447.992 291.053L436.286 330.878L436.308 330.943ZM393.049 294.724C393.122 302.16 387.9 308.384 380.933 309.841L394.31 330.943H386.538L373.366 310.164H359.131V330.943H352.683V282.527C352.683 280.905 353.994 279.591 355.61 279.591H377.453C385.872 279.591 392.967 286.283 393.049 294.724ZM359.131 303.698H377.806C382.664 303.698 386.602 299.749 386.602 294.878C386.602 290.006 382.664 286.057 377.806 286.057H359.131V303.698ZM303.051 278.168C317.948 278.168 330.024 290.278 330.024 305.217C330.024 320.155 317.948 332.266 303.051 332.266C288.154 332.266 276.077 320.155 276.077 305.217C276.077 290.278 288.154 278.168 303.051 278.168ZM303.051 325.743C314.356 325.743 323.52 316.553 323.52 305.217C323.52 293.881 314.356 284.69 303.051 284.69C291.746 284.69 282.581 293.881 282.581 305.217C282.581 316.553 291.746 325.743 303.051 325.743ZM226.533 279.591H260.77L258.621 286.057H230.053V302.663H253.105L250.957 309.129H230.053V330.943H223.605V282.527C223.605 280.905 224.916 279.591 226.533 279.591ZM602.28 294.724C602.353 302.16 597.131 308.384 590.164 309.841L603.541 330.943H595.769L582.597 310.164H568.362V330.943H561.914V282.527C561.914 280.905 563.225 279.591 564.841 279.591H586.685C595.103 279.591 602.198 286.283 602.28 294.724ZM568.362 303.698H587.036C591.895 303.698 595.833 299.749 595.833 294.878C595.833 290.006 591.895 286.057 587.036 286.057H568.362V303.698ZM184.548 267H197.292L181.566 314.336C180.769 316.734 178.531 318.353 176.011 318.353H163.267L178.993 271.017C179.79 268.618 182.027 267 184.548 267ZM153.281 279.591H166.024L150.299 326.927C149.502 329.325 147.264 330.943 144.743 330.943H132L147.726 283.607C148.522 281.209 150.761 279.591 153.281 279.591Z" fill="black"/>
</svg>
