<svg width="800" height="600" viewBox="0 0 800 600" fill="none" xmlns="http://www.w3.org/2000/svg">
<path d="M302.131 286.773V279.727H336.345V286.773H322.683V319.512H315.796V286.773H302.131ZM374.507 304.246V279.727H381.446V304.246C381.446 308.048 381.239 311.005 378.572 314.452C374.709 319.524 367.45 320.284 363.465 320.284C353.958 320.284 349.786 315.641 348.434 313.644C346.325 310.533 346.153 307.547 346.153 304.246V279.727H353.143V304.246C353.143 306.839 353.283 308.815 355.089 310.622C356.848 312.381 359.874 313.236 364.338 313.236C367.966 313.236 370.39 312.645 371.969 311.374C373.676 309.999 374.507 307.668 374.507 304.246ZM416.104 298.032C420.899 298.032 421.905 294.514 421.905 292.171C421.905 289.035 419.954 286.721 416.104 286.721H399.721V298.032H416.104ZM428.897 292.479C428.897 298.137 425.82 302.971 420.414 304.608L428.851 319.512H420.884L412.85 305.078H399.721V319.512H392.679V279.727H416.104C423.876 279.727 428.897 285.171 428.897 292.479ZM468.025 309.315C470.749 306.693 472.247 303.157 472.247 299.362C472.247 295.561 470.735 292.072 467.991 289.536C465.308 287.059 461.713 285.695 457.868 285.695C453.896 285.695 450.256 287.092 447.62 289.629C444.955 292.195 443.488 295.778 443.488 299.722C443.488 303.443 445.027 306.903 447.823 309.463C450.516 311.927 454.195 313.339 457.918 313.339C461.74 313.339 465.329 311.909 468.025 309.315ZM457.918 278.595C463.626 278.595 468.975 280.757 472.979 284.68C477.014 288.635 479.237 293.959 479.237 299.67C479.237 311.122 469.652 320.437 457.868 320.437C445.912 320.437 436.547 311.045 436.547 299.055C436.547 287.774 446.134 278.595 457.918 278.595ZM490.057 336.165L518.326 299.517L490.057 262.868C490.03 262.832 490.057 262.868 490.03 262.832C489.816 262.557 489.53 262.222 489.277 261.978C487.865 260.615 485.968 259.869 483.929 259.869C483.912 259.869 483.897 259.871 483.881 259.871H278.867V339.163H483.881C483.897 339.163 483.912 339.163 483.929 339.163C485.968 339.163 487.865 338.417 489.277 337.056C489.53 336.811 489.816 336.477 490.03 336.2C490.057 336.165 490.03 336.2 490.057 336.165ZM497.011 260.639L527 299.517L495.455 340.41C495.443 340.429 495.431 340.448 495.415 340.467C494.999 341.008 494.537 341.523 494.036 342.008C491.34 344.602 487.75 346.034 483.929 346.034C483.912 346.034 483.895 346.03 483.878 346.03V346.034H272V253H483.878V253.002C483.895 253.002 483.912 253 483.929 253C487.75 253 491.34 254.43 494.036 257.025C494.537 257.509 494.999 258.026 495.415 258.567C495.431 258.585 495.443 258.604 495.455 258.623L497.011 260.639Z" fill="#1B1A19"/>
</svg>
