<svg width="800" height="600" viewBox="0 0 800 600" fill="none" xmlns="http://www.w3.org/2000/svg">
<path d="M262.03 239.957C250.64 251.411 240.451 262.037 239.377 263.573C238.31 265.11 237.235 266.534 236.997 266.757C235.285 268.317 229.164 280.981 227.779 285.829C227.087 288.257 226.179 291.337 225.773 292.682C224.571 296.575 224.834 320.128 226.131 325.023C228.559 334.177 232.467 343.959 233.972 344.628C234.298 344.779 234.569 345.249 234.569 345.679C234.569 349.826 256.57 371.827 260.717 371.827C261.147 371.827 261.616 372.097 261.768 372.424C262.436 373.928 272.219 377.836 281.373 380.264C287.112 381.784 309.383 381.784 315.122 380.264C324.276 377.836 334.058 373.928 334.727 372.424C334.878 372.097 335.348 371.827 335.778 371.827C339.925 371.827 361.926 349.826 361.926 345.679C361.926 345.249 362.196 344.779 362.523 344.628C364.019 343.967 368.111 333.572 370.777 323.67C372.13 318.631 372.242 297.84 370.936 293.423C370.419 291.671 369.424 288.257 368.723 285.829C367.323 280.965 361.201 268.309 359.498 266.757C359.259 266.534 358.185 265.11 357.118 263.573C354.372 259.649 313.586 218.998 312.4 218.998C311.859 218.998 308.452 221.943 304.83 225.549C298.247 232.1 298.247 232.1 291.665 225.549C283.267 217.191 285.949 215.886 262.03 239.957ZM311.93 276.11C334.433 298.78 337.226 315.256 321.291 331.192C296.082 356.401 252.749 326.225 268.732 294.593C271.025 290.048 296.329 262.777 298.247 262.777C298.494 262.777 304.655 268.779 311.93 276.11Z" fill="#29A7F8"/>
<path d="M509.381 250.566C507.693 251.25 507.956 349.204 509.643 349.848C511.283 350.477 524.592 350.477 526.232 349.848C527.282 349.45 527.489 347.795 527.489 339.867C527.489 330.363 527.489 330.363 531.183 326.423C535.6 321.695 535.481 321.711 537.447 325.46C538.315 327.099 539.198 328.62 539.421 328.843C539.644 329.065 540.273 330.044 540.822 331.031C541.371 332.018 542.263 333.626 542.812 334.613C543.361 335.6 543.99 336.579 544.205 336.802C544.659 337.256 546.123 339.787 548.479 344.181C551.743 350.262 551.918 350.334 562.879 350.334C576.928 350.334 576.928 350.334 572.064 343.17C570.313 340.591 568.88 338.267 568.88 338.004C568.88 337.742 568.164 336.763 567.288 335.823C566.413 334.884 565.696 333.642 565.696 333.069C565.696 332.496 565.394 332.026 565.028 332.026C564.662 332.026 563.945 331.119 563.436 330.005C562.934 328.898 562.162 327.553 561.725 327.02C559.878 324.791 549.777 308.84 549.777 308.163C549.777 307.757 554.218 302.838 559.647 297.234C576.991 279.333 576.936 280.32 560.626 280.304C548.4 280.288 548.67 280.121 533.977 296.828C531.191 299.988 528.596 302.575 528.206 302.575C527.8 302.575 527.489 291.479 527.489 276.793C527.489 254.012 527.346 250.948 526.232 250.526C524.735 249.953 510.822 249.985 509.381 250.566Z" fill="#4C4C4C"/>
<path d="M409.971 252.134C409.597 252.221 408.299 252.508 407.089 252.77C401.844 253.933 398.477 260.595 400.093 266.62C403.523 279.356 422.42 276.459 422.42 263.198C422.42 256.583 415.869 250.765 409.971 252.134Z" fill="#4C4C4C"/>
<path d="M458.239 279.198C449.659 280.256 440.043 287.516 436.254 295.794C433.468 301.875 432.847 308.1 432.8 330.077C432.76 351.799 432.067 350.334 442.415 350.334C453.782 350.334 452.667 352.826 452.667 327.514C452.667 312.493 452.954 305.115 453.591 303.913C457.563 296.415 468.866 295.205 474.222 301.708C476.547 304.534 476.547 304.534 476.547 326.948C476.547 346.657 476.698 349.427 477.804 349.849C480.582 350.915 494.631 350.374 495.634 349.164C497.043 347.461 496.391 302.369 494.91 298.994C491.599 291.464 491.726 291.647 487.141 286.99C484.077 283.862 482.588 282.962 476.316 280.399C473.864 279.404 462.617 278.648 458.239 279.198Z" fill="#4C4C4C"/>
<path d="M402.179 281.538C400.539 283.178 400.26 347.756 401.884 349.379C402.887 350.382 417.199 350.764 419.571 349.849C421.489 349.117 421.489 281.506 419.571 280.774C416.705 279.675 403.46 280.256 402.179 281.538Z" fill="#4C4C4C"/>
</svg>
