<svg width="800" height="600" viewBox="0 0 800 600" fill="none" xmlns="http://www.w3.org/2000/svg">
<path d="M160.06 281.808C160.06 276.148 156.369 272.476 150.678 272.476H132V291.141H150.678C156.369 291.141 160.06 287.469 160.06 281.808ZM188.081 318.252C188.081 312.591 184.389 308.919 178.698 308.919H132V327.584H178.698C184.389 327.572 188.081 323.899 188.081 318.252ZM178.706 281.808C178.706 287.469 182.397 291.141 188.086 291.141H240.868C240.227 284.739 238.697 278.457 236.323 272.476H188.086C182.397 272.476 178.706 276.148 178.706 281.808ZM206.726 318.252C206.726 323.912 210.415 327.584 216.106 327.584H236.323C238.699 321.603 240.229 315.321 240.871 308.919H216.106C210.415 308.906 206.726 312.579 206.726 318.252ZM177.284 236H143.548C136.54 236 132 240.54 132 247.535V254.71H225.061C213.871 242.803 197.409 236 177.284 236ZM132 352.467C132 359.467 136.545 364.003 143.548 364.003H177.284C197.409 364.003 213.871 357.2 225.066 345.29H132V352.467Z" fill="#0079FF"/>
<path d="M325.34 282.283C321.639 277.556 316.188 274.783 308.68 274.783C294.9 274.783 283.59 286.596 283.59 301.904C283.59 317.212 294.9 329.022 308.68 329.022C316.188 329.022 321.639 326.249 325.34 321.522V327.582H338.605V255.675H325.34V282.283ZM311.155 316.387C302.926 316.387 296.859 310.531 296.859 301.904C296.859 293.276 302.926 287.419 311.155 287.419C319.279 287.419 325.345 293.274 325.345 301.904C325.345 310.534 319.274 316.387 311.155 316.387ZM375.347 274.783C359.207 274.783 348.195 286.596 348.195 301.904C348.195 317.212 359.094 329.022 376.371 329.022C386.244 329.022 393.955 325.022 398.79 318.022L388.093 311.856C385.841 314.837 381.719 316.994 376.581 316.994C369.588 316.994 363.932 314.117 362.083 307.339H400.852C401.181 305.542 401.348 303.72 401.353 301.894C401.36 286.804 390.561 274.783 375.342 274.783H375.347ZM361.877 297.074C363.419 290.501 368.252 286.699 375.347 286.699C380.901 286.699 386.454 289.679 388.111 297.074H361.877ZM421.442 290.809C421.442 288.036 424.115 286.596 427.406 286.596C431.21 286.596 434.091 288.549 435.633 291.846L446.945 285.683C442.94 278.593 435.735 274.793 427.406 274.793C416.815 274.793 407.867 280.648 407.867 291.126C407.867 309.206 434.396 305.096 434.396 312.597C434.396 315.577 431.518 317.014 427.301 317.014C422.16 317.014 418.662 314.549 417.223 310.336L405.71 316.809C409.412 324.719 417.022 329.032 427.306 329.032C438.318 329.032 447.976 323.692 447.976 312.597C447.968 293.686 421.437 298.411 421.437 290.809H421.442ZM480.989 315.874C473.071 315.874 467.209 310.019 467.209 301.904C467.209 293.686 473.071 287.829 480.989 287.829C486.245 287.829 490.655 290.501 492.712 294.711L504.127 288.036C499.91 280.126 491.17 274.786 481.102 274.786C465.47 274.786 453.952 286.599 453.952 301.906C453.952 317.214 465.465 329.024 481.102 329.024C491.18 329.024 499.92 323.684 504.342 315.672L492.83 309.096C490.76 313.307 486.345 315.874 480.989 315.874ZM524.489 285.056V276.221H511.225V327.584H524.489V303.034C524.489 292.246 533.231 289.166 540.121 289.986V275.193C533.647 275.193 527.165 278.071 524.489 285.056ZM549.178 327.584H562.443V276.221H549.178V327.584ZM549.178 269.363H562.443V255.683H549.178V269.363ZM604.551 274.783C597.043 274.783 591.592 277.556 587.891 282.283V276.221H574.626V348.13H587.891V321.524C591.592 326.249 597.043 329.024 604.551 329.024C618.331 329.024 629.643 317.212 629.643 301.906C629.643 286.601 618.331 274.783 604.551 274.783ZM602.083 316.387C593.957 316.387 587.891 310.531 587.891 301.904C587.891 293.276 593.957 287.419 602.083 287.419C610.31 287.419 616.376 293.274 616.376 301.904C616.376 310.534 610.31 316.387 602.083 316.387ZM668.003 288.959V276.221H656.38V261.841H643.095L643.115 276.221H634.168V288.959H643.115V310.326C643.115 324.194 649.387 329.639 668.003 327.577V315.567C660.392 315.977 656.38 315.874 656.38 310.316V288.959H668.003Z" fill="#00073D"/>
</svg>
