<svg width="800" height="600" viewBox="0 0 800 600" fill="none" xmlns="http://www.w3.org/2000/svg">
<path d="M473.389 240H454.544V344.512C471.67 345.096 488.725 345.953 505.711 347.076V328.663C494.966 327.953 484.193 327.35 473.389 326.851V240ZM622 240H601.533L588.042 271.435L575.922 240H555.761L577.425 296.17L553.777 351.275C560.319 351.916 566.843 352.601 573.361 353.324L587.115 321.284L600.733 356.603C607.83 357.521 614.906 358.477 621.969 359.491L622 359.479L597.728 296.55L622 240ZM390.197 343.972L409.082 343.968V301.298H434.681V282.816H409.082V258.648H442.915V240H390.197V343.972ZM320.423 258.59H340.097V344.748C346.352 344.513 352.62 344.32 358.895 344.157V258.59H378.568V240H320.423V258.59ZM256.077 350.956C273.312 349.377 290.626 348.077 308.019 347.067V328.498C296.906 329.145 285.825 329.911 274.776 330.787V302.676C282.026 302.603 291.572 302.381 300.029 302.486V283.918C293.273 283.901 282.414 284.013 274.776 284.111V258.734H308.019V240H256.077V350.956ZM218.88 307.62L194.668 240H177V359.491C183.185 358.604 189.381 357.754 195.59 356.94V291.961L217.119 354.272C223.89 353.48 230.674 352.731 237.47 352.027V240H218.88V307.62ZM521.216 348.63C527.426 349.11 533.627 349.624 539.822 350.18V240H521.216V348.63Z" fill="#D1232A"/>
</svg>
