<svg width="800" height="600" viewBox="0 0 800 600" fill="none" xmlns="http://www.w3.org/2000/svg">
<path d="M276.825 236.428C271.362 236.415 266.923 240.796 266.91 246.214C266.896 251.632 271.314 256.035 276.776 256.048C282.239 256.062 286.679 251.68 286.692 246.263C286.706 240.845 282.288 236.442 276.825 236.428ZM241.283 281.22C244.637 276.44 246.439 270.602 246.454 264.387C246.484 252.585 238.103 236 216.2 236H187.476C184.075 236 181.316 237.298 180.209 238.325C178.416 239.89 177.009 242.202 177.002 245.17C176.995 247.869 177.009 324.627 177.002 327.326C176.986 333.664 182.294 336.347 187.343 336.347C196.651 336.372 217.545 336.335 222.21 336.347C241.638 336.394 252.942 320.435 252.977 306.258C253.008 293.913 247.752 286.295 241.283 281.22ZM286.6 271.27C286.6 264.936 281.729 261.698 276.624 261.698C271.773 261.698 266.954 265.107 266.954 270.912V326.66C266.954 339.155 286.6 339.682 286.6 326.665V271.27ZM339.011 316.669C332.914 316.668 327.998 311.606 328.013 305.518C328.02 302.68 327.965 291.925 328.013 279.891C330.431 279.897 332.331 279.889 333.236 279.891C345.815 279.922 345.486 261.102 333.597 261.073C332.862 261.071 330.722 261.08 328.013 261.073C328.037 254.926 328.009 247.615 328.013 246.043C328.028 240.045 323.038 236.557 318.11 236.557C313.282 236.557 308.452 240.18 308.437 246.308C308.431 248.528 308.439 255.584 308.437 261.073C307.379 261.071 306.597 261.074 306.204 261.073C294.315 261.044 293.892 279.86 306.471 279.891C306.907 279.892 307.585 279.889 308.437 279.891C308.434 292.522 308.442 303.757 308.437 306.1C308.389 325.371 324.801 336.318 339.192 336.318C345.15 336.318 349.056 331.739 349.056 326.462C349.056 321.717 345.732 316.669 339.011 316.669ZM513.839 260.969C492.849 260.918 475.791 277.754 475.739 298.574C475.687 319.395 492.661 336.315 513.651 336.366C534.641 336.418 551.699 319.581 551.751 298.761C551.803 277.941 534.829 261.021 513.839 260.969ZM612.084 256.048C617.547 256.062 621.986 251.68 622 246.262C622.013 240.845 617.596 236.442 612.133 236.428C606.67 236.415 602.231 240.796 602.217 246.214C602.204 251.632 606.621 256.035 612.084 256.048ZM431.681 261.83C423.011 261.83 415.326 264.75 409.951 269.581C404.191 264.503 396.804 261.83 390.366 261.83C385.023 261.83 380.056 262.94 375.771 264.92C373.922 262.924 371.258 261.896 368.572 261.905C363.598 261.923 358.534 265.443 358.534 271.662C358.534 274.462 358.541 324.091 358.534 326.891C358.503 339.125 378.266 339.56 378.266 326.616V291.523C378.266 285.099 382.928 280.748 389.198 280.748C395.466 280.748 400.148 285.406 400.132 291.723C400.116 298.04 400.147 321.057 400.132 326.874C400.102 339.109 419.717 339.544 419.749 326.6C419.771 317.398 419.749 292.727 419.749 290.31C419.749 284.673 424.647 280.748 430.513 280.748C436.782 280.748 441.484 285.406 441.468 291.723C441.452 298.04 441.442 321.057 441.428 326.874C441.397 339.109 461.035 339.544 461.067 326.6C461.09 317.398 461.055 296.514 461.067 291.596C461.115 272.459 444.521 261.83 431.681 261.83ZM575.655 236.392C570.164 236.379 565.701 240.783 565.688 246.23C565.674 251.676 570.114 256.103 575.605 256.116C581.096 256.129 585.559 251.725 585.572 246.279C585.586 240.832 581.146 236.406 575.655 236.392ZM621.894 271.27C621.91 264.936 617.037 261.698 611.932 261.698C607.081 261.698 602.375 265.107 602.36 270.912C602.353 273.611 602.36 323.961 602.36 326.66C602.36 339.155 621.894 339.682 621.894 326.665C621.894 323.164 621.885 274.771 621.894 271.27ZM565.963 271.66V333.033C565.963 338.662 562.033 343.654 555.366 343.654C548.437 343.654 544.787 348.553 544.787 353.376C544.787 358.645 549.124 363.143 555.429 363.143C571.584 363.143 585.429 351.739 585.429 333.203V271.717C585.429 258.627 565.963 258.552 565.963 271.66ZM513.699 317.141C503.414 317.116 495.096 308.825 495.121 298.622C495.147 288.42 503.506 280.17 513.792 280.195C524.077 280.22 532.395 288.511 532.37 298.714C532.344 308.916 523.985 317.166 513.699 317.141ZM195.972 254.733C203.564 254.733 212.27 254.729 216.32 254.729C223.668 254.729 226.587 260.924 226.578 264.336C226.561 271.326 220.878 274.556 216.476 274.556C215.194 274.556 202.727 274.559 195.972 274.559C195.991 266.989 195.959 259.96 195.972 254.733ZM222.084 317.86C217.839 317.849 205.254 317.885 195.972 317.86C195.988 311.536 195.949 302.622 195.972 293.239C202.48 293.249 220.392 293.237 222.096 293.237C228.366 293.237 234.631 297.811 234.611 305.949C234.595 312.432 229.199 317.878 222.084 317.86Z" fill="#273440"/>
<path fill-rule="evenodd" clip-rule="evenodd" d="M613.431 361.919H580.668C585.616 357.601 589.391 351.992 591.459 345.624H613.721L613.721 345.635C618.184 345.717 621.775 349.331 621.775 353.777C621.775 358.274 618.1 361.92 613.566 361.92C613.521 361.92 613.476 361.919 613.431 361.919ZM536.747 353.344C536.747 356.455 537.557 359.377 538.975 361.919H474.23L486.393 345.624H538.526C537.386 347.958 536.747 350.576 536.747 353.344Z" fill="#E84939"/>
<path fill-rule="evenodd" clip-rule="evenodd" d="M185.353 361.919H270.508H264.589L276.752 345.624H282.671H185.052V345.635C180.597 345.725 177.013 349.336 177.013 353.777C177.013 358.218 180.597 361.828 185.052 361.918L185.091 361.919C185.134 361.919 185.178 361.92 185.222 361.92C185.266 361.92 185.309 361.919 185.353 361.919Z" fill="#3B9FE4"/>
<path fill-rule="evenodd" clip-rule="evenodd" d="M369.429 361.919H276.449L288.612 345.624H381.581H375.651L363.488 361.919H369.429Z" fill="#2ACC70"/>
<path fill-rule="evenodd" clip-rule="evenodd" d="M375.348 361.919H474.23L486.393 345.624H387.511L375.348 361.919Z" fill="#F1C540"/>
</svg>
