<svg width="800" height="600" viewBox="0 0 800 600" fill="none" xmlns="http://www.w3.org/2000/svg">
<path d="M354.111 249.704L330.915 350.929H344.955L351.06 322.992H372.424L378.376 350.929H392.566L370.746 249.704H354.111ZM352.739 311.732L357.623 287.55C358.994 281.091 360.521 271.78 361.587 264.421H362.197C363.265 271.629 364.642 280.64 366.013 287.55L370.745 311.732H352.739ZM446.16 247H431.814V284.998H431.51C428.917 279.442 424.184 276.738 418.233 276.738C406.481 276.738 395.343 288.902 395.343 314.735C395.343 337.412 403.737 352.132 417.47 352.132C424.947 352.132 430.595 347.175 433.035 342.071H433.495L434.408 350.93H446.772C446.466 345.826 446.162 337.714 446.162 332.156V247H446.16ZM431.814 325.245C431.814 326.898 431.66 328.702 431.357 329.9C428.916 338.613 424.641 340.265 421.437 340.265C413.806 340.265 409.839 329.753 409.839 314.733C409.839 301.215 412.891 288.9 421.897 288.9C427.085 288.9 430.899 294.608 431.66 301.214C431.814 302.715 431.814 304.367 431.814 305.722V325.245ZM481.092 276.737C467.511 276.737 454.843 288.001 454.843 314.583C454.843 339.665 465.527 352.132 480.329 352.132H480.483C491.776 352.132 506.274 343.269 506.274 314.285C506.274 289.653 495.741 276.737 481.092 276.737ZM480.788 341.019H480.634C471.324 341.019 469.189 326.6 469.189 314.432C469.189 303.47 471.021 287.851 480.483 287.851C489.639 287.851 491.622 303.47 491.622 314.432C491.622 325.549 489.639 341.019 480.788 341.019ZM545.132 276.737C538.573 276.737 533.382 279.591 529.568 286.199H529.262V247H514.918V332.155C514.918 337.714 514.612 345.972 514.308 350.929H526.669L527.432 341.766H528.041C531.245 348.225 535.366 352.131 542.691 352.131C554.898 352.131 565.734 339.366 565.734 313.233C565.734 290.854 557.798 276.737 545.132 276.737ZM539.487 340.266C536.587 340.266 532.161 338.467 529.87 329.602C529.414 328.4 529.262 326.751 529.262 325.094V304.673C529.262 303.171 529.415 301.216 529.72 299.715C530.788 294.459 534.603 288.902 539.333 288.902C547.88 288.902 551.238 300.166 551.238 314.134C551.237 329.153 548.031 340.266 539.487 340.266ZM622 309.63C622 291.305 614.829 276.737 599.417 276.737C584.001 276.737 572.861 291.455 572.861 315.336C572.861 337.865 582.629 351.682 601.246 351.682C607.808 351.682 614.524 350.48 618.948 348.225L616.81 338.011C613.605 339.512 609.181 340.715 603.993 340.715C595.294 340.715 587.053 336.06 586.901 317.286L621.693 317.437C621.849 315.487 622 313.233 622 309.63ZM587.054 307.224C587.514 298.062 590.869 287.4 598.349 287.4C603.995 287.4 608.572 294.309 608.421 307.224H587.054Z" fill="#1A1A1A"/>
<path d="M216.241 330.625L234.981 287.176L262.281 350.93H244.39L236.225 330.625H216.241ZM177 249.971H219.883L177 350.93V249.971ZM292.922 350.93L250.071 249.971H292.922V350.93Z" fill="#FF0000"/>
</svg>
