<svg width="800" height="600" viewBox="0 0 800 600" fill="none" xmlns="http://www.w3.org/2000/svg">
<path d="M209.538 352.251C199.685 357.696 190.626 361.987 187.739 361.987C180.789 361.987 138.079 337.173 134.6 331.088C133.292 328.801 132.479 317.819 132.157 307.38L132.076 307.333C131.882 298.421 132.061 288.719 132.61 281.255C133.043 275.364 133.705 270.866 134.6 269.294C135.476 267.754 138.867 265.016 143.55 261.787C149.514 257.671 157.576 252.765 165.242 248.506L243.422 293.838C243.594 302.629 243.406 312.096 242.859 319.371C242.424 325.149 241.765 329.545 240.879 331.088C239.987 332.643 236.504 335.434 231.716 338.723C225.59 342.93 217.322 347.949 209.538 352.251ZM187.739 238.396C190.138 238.396 196.792 241.356 204.623 245.481L225.531 257.604C233.372 262.577 239.635 267.141 240.878 269.294C242.352 271.843 243.198 282.243 243.422 293.838L165.242 248.506C175.362 242.883 184.784 238.396 187.739 238.396Z" fill="url(#paint0_linear)"/>
<path d="M187.739 238.396C184.784 238.396 175.362 242.883 165.242 248.506L243.422 293.838C243.198 282.243 242.352 271.843 240.879 269.294C239.635 267.141 233.372 262.577 225.531 257.604L204.623 245.481C196.792 241.356 190.138 238.396 187.739 238.396Z" fill="url(#paint1_linear)"/>
<path d="M143.55 261.787L242.859 319.371C243.406 312.096 243.594 302.629 243.422 293.838L165.242 248.506C157.576 252.765 149.514 257.671 143.55 261.787Z" fill="url(#paint2_linear)"/>
<path d="M143.55 261.787C138.867 265.016 135.476 267.754 134.6 269.294C133.703 270.87 133.04 275.385 132.607 281.298L231.68 338.747C236.487 335.448 239.985 332.646 240.879 331.088C241.765 329.545 242.424 325.149 242.86 319.371L143.55 261.787Z" fill="url(#paint3_linear)"/>
<path d="M231.717 338.723L132.61 281.255C132.061 288.719 131.882 298.421 132.076 307.333L209.538 352.251C217.322 347.949 225.59 342.93 231.717 338.723Z" fill="url(#paint4_linear)"/>
<path d="M132.076 307.333C132.322 318.593 133.161 328.573 134.6 331.088C138.079 337.173 180.789 361.986 187.739 361.986C190.626 361.986 199.685 357.696 209.538 352.251L132.076 307.333Z" fill="url(#paint5_linear)"/>
<path d="M198.185 305.027V326.417H194.591C193.86 326.417 193.269 327.012 193.269 327.743C193.269 328.223 193.523 328.643 193.902 328.876L201.981 336.654C202.222 336.971 202.701 337.212 203.13 337.212C203.567 337.212 203.954 336.984 204.194 336.654L212.8 328.875C213.178 328.642 213.43 328.222 213.43 327.743C213.43 327.012 212.838 326.417 212.109 326.417H208.502L208.471 274.732C208.471 274 207.893 273.406 207.164 273.406H199.514C198.783 273.406 198.185 274 198.185 274.732V294.685L177.298 294.682V273.965H180.893C181.623 273.965 182.214 273.37 182.214 272.639C182.214 272.158 181.96 271.739 181.581 271.506L173.503 263.728C173.261 263.411 172.782 263.17 172.353 263.17C171.916 263.17 171.529 263.399 171.29 263.728L162.683 271.507C162.305 271.74 162.053 272.16 162.053 272.638C162.053 273.37 162.645 273.965 163.374 273.965H166.981L167.012 325.65C167.012 326.382 167.591 326.977 168.32 326.977H175.97C176.7 326.977 177.298 326.382 177.298 325.65V305.027H198.185Z" fill="white"/>
<path d="M543.881 322.216C539.606 315.194 535.308 308.185 531.025 301.168C530.659 300.567 530.346 299.933 529.943 299.195C530.898 298.904 531.606 298.71 532.301 298.475C538.741 296.3 542.709 290.967 542.913 284.226C543.156 276.241 538.992 270.652 531.256 268.721C529.507 268.284 527.691 267.937 525.898 267.892C520.123 267.747 514.345 267.751 508.567 267.72C505.208 267.702 505.148 267.774 505.148 271.059C505.145 288.202 505.145 305.346 505.148 322.49C505.148 323.096 505.155 323.706 505.209 324.309C505.285 325.152 505.718 325.718 506.609 325.732C508.423 325.761 510.237 325.756 512.051 325.744C512.932 325.739 513.411 325.21 513.53 324.383C513.607 323.853 513.578 323.306 513.578 322.766C513.58 316.017 513.579 309.267 513.579 302.518V299.915C515.601 299.915 517.334 299.972 519.061 299.894C520.212 299.842 520.913 300.246 521.481 301.269C522.92 303.861 524.466 306.393 525.971 308.947C528.948 313.998 531.945 319.037 534.891 324.106C535.517 325.182 536.193 325.889 537.568 325.786C539.038 325.676 540.524 325.803 542 325.747C542.953 325.712 544.129 326.157 544.709 324.972C545.252 323.863 544.39 323.051 543.881 322.216ZM524.643 292.112C521.245 292.383 517.813 292.218 514.395 292.224C514.21 292.225 514.025 292.116 513.716 292.02V275.741C513.808 275.658 513.905 275.494 514.005 275.492C518.421 275.389 522.844 275.08 527.235 275.853C527.892 275.969 528.547 276.134 529.178 276.352C533.754 277.939 535.83 282.677 533.919 287.155C533.256 288.71 532.154 289.95 530.611 290.52C528.681 291.231 526.665 291.951 524.643 292.112ZM401.688 309.163C401.659 309.814 401.606 310.464 401.604 311.115C401.596 315.234 401.613 319.354 401.593 323.473C401.584 325.461 401.321 325.722 399.412 325.756C398.068 325.78 396.722 325.797 395.379 325.746C393.985 325.693 393.654 325.319 393.57 323.893C393.546 323.489 393.563 323.083 393.563 322.677C393.563 304.174 393.563 285.67 393.563 267.166C393.563 266.693 393.543 266.219 393.573 265.748C393.656 264.476 394.036 264.008 395.257 263.953C396.8 263.883 398.351 263.885 399.895 263.951C401.155 264.005 401.505 264.426 401.588 265.719C401.622 266.258 401.6 266.8 401.6 267.34C401.601 277.672 401.599 288.005 401.605 298.337C401.605 299.052 401.664 299.767 401.712 300.874C402.434 300.271 402.893 299.937 403.296 299.544C407.344 295.59 411.402 291.645 415.411 287.651C416.235 286.829 417.081 286.423 418.252 286.466C420.199 286.538 422.151 286.479 424.101 286.49C424.895 286.495 425.785 286.36 426.122 287.383C426.432 288.323 425.84 288.89 425.221 289.452C420.335 293.892 415.455 298.338 410.576 302.785C409.984 303.325 409.407 303.883 408.732 304.517C409.145 304.991 409.463 305.409 409.833 305.773C415.403 311.254 420.981 316.729 426.556 322.205C426.893 322.535 427.329 322.813 427.538 323.212C427.795 323.704 428.109 324.393 427.943 324.818C427.778 325.244 427.08 325.631 426.564 325.712C425.645 325.857 424.688 325.78 423.747 325.758C421.94 325.716 419.944 326.107 418.382 325.456C416.89 324.835 415.834 323.134 414.617 321.878C411.008 318.151 407.415 314.408 403.813 310.674C403.262 310.102 402.695 309.545 402.135 308.982C401.986 309.042 401.837 309.102 401.688 309.163ZM640.721 309.219V313.048C640.721 316.558 640.741 320.068 640.713 323.579C640.699 325.368 640.338 325.715 638.595 325.754C637.319 325.784 636.041 325.784 634.764 325.755C632.999 325.715 632.708 325.404 632.631 323.589C632.613 323.185 632.624 322.779 632.624 322.374C632.624 304.013 632.623 285.651 632.624 267.29C632.625 263.965 632.666 263.928 636.024 263.927C637.032 263.927 638.044 263.882 639.047 263.952C640.16 264.029 640.593 264.488 640.702 265.591C640.754 266.127 640.721 266.671 640.721 267.21C640.722 277.539 640.722 287.867 640.722 298.196V300.922C641.598 300.168 642.145 299.747 642.635 299.268C646.487 295.5 650.354 291.749 654.153 287.929C655.173 286.904 656.205 286.349 657.69 286.456C659.428 286.581 661.182 286.475 662.929 286.49C663.782 286.497 664.761 286.291 665.186 287.358C665.609 288.421 664.792 288.972 664.158 289.551C659.285 294.002 654.401 298.44 649.524 302.885C648.982 303.379 648.458 303.893 647.768 304.547C648.284 305.104 648.703 305.598 649.162 306.05C654.684 311.48 660.212 316.905 665.738 322.331C666.026 322.614 666.414 322.852 666.573 323.196C666.809 323.707 667.118 324.384 666.954 324.824C666.796 325.244 666.082 325.693 665.598 325.71C663.115 325.797 660.621 325.837 658.143 325.689C657.465 325.649 656.721 325.009 656.19 324.465C651.721 319.886 647.296 315.264 642.854 310.658C642.31 310.094 641.741 309.553 641.183 309.001C641.029 309.074 640.875 309.147 640.721 309.219ZM468.196 302.973C467.513 292.882 460.538 286.122 451.323 285.575C443.312 285.1 437.043 288.091 432.745 294.95C430.258 298.919 429.455 303.348 429.887 307.959C430.657 316.176 434.667 322.165 442.39 325.316C446.83 327.128 451.438 327.092 456.037 325.874C460.142 324.787 463.425 322.412 466.12 319.173C467.313 317.74 467.255 317.142 465.867 315.987C465.246 315.471 464.601 314.984 463.966 314.486C461.53 312.575 461.564 312.605 459.54 314.91C456.119 318.805 451.832 320.291 446.833 318.911C442.065 317.594 439.288 314.265 438.214 309.031C439.249 308.981 440.033 308.911 440.817 308.91C448.811 308.902 456.804 308.905 464.798 308.904C465.335 308.904 465.875 308.927 466.409 308.884C467.82 308.771 468.165 308.476 468.241 307.016C468.311 305.673 468.287 304.317 468.196 302.973ZM438.515 301.806C438.7 301.084 438.776 300.497 438.996 299.971C441.757 293.401 448.672 291.215 454.548 293.799C457.795 295.227 459.371 298.059 459.91 301.806H438.515ZM344.625 323.311C344.43 320.622 344.237 317.928 344.201 315.234C344.133 310.17 344.243 305.104 344.16 300.04C344.039 292.526 340.096 287.496 332.966 285.992C326.788 284.689 320.94 285.751 315.601 289.234C314.929 289.673 314.294 290.191 313.714 290.748C312.689 291.733 312.656 292.252 313.485 293.369C313.927 293.963 314.431 294.511 314.908 295.078C316.941 297.496 316.92 297.467 319.499 295.571C323.207 292.845 327.345 292.098 331.739 293.317C334.946 294.207 336.626 297.114 336.019 300.455C333.783 300.552 331.504 300.627 329.228 300.754C325.659 300.954 322.133 301.441 318.78 302.751C315.61 303.99 312.863 305.846 311.639 309.178C309.126 316.022 311.626 323.156 319.037 325.766C322.231 326.891 325.508 326.876 328.794 326.339C331.717 325.862 334.234 324.482 336.73 322.24C336.92 323.067 337.028 323.503 337.12 323.942C337.442 325.476 337.699 325.713 339.26 325.755C340.335 325.783 341.412 325.778 342.487 325.758C344.499 325.72 344.772 325.342 344.625 323.311ZM322.614 318.974C320.87 318.363 319.569 317.313 319.121 315.398C318.604 313.188 319.139 311.56 321.026 310.304C321.91 309.716 322.897 309.216 323.908 308.902C327.856 307.677 331.924 307.485 336.139 307.558C337.202 315.736 330.081 321.592 322.614 318.974ZM582.445 323.501C582.218 321.017 581.982 318.525 581.946 316.033C581.862 310.294 582 304.551 581.853 298.815C581.701 292.919 578.244 288.43 572.705 286.508C569.112 285.26 565.436 285.249 561.755 285.881C558.189 286.493 554.927 287.888 552.11 290.215C550.394 291.633 550.348 292.196 551.719 293.879C552.272 294.558 552.83 295.234 553.408 295.893C554.674 297.334 555.107 297.393 556.561 296.164C559.543 293.645 562.972 292.651 566.84 292.814C570.55 292.971 574.115 294.85 574.058 300.322C573.314 300.4 572.666 300.497 572.014 300.531C570.202 300.624 568.385 300.653 566.575 300.778C563.214 301.009 559.894 301.493 556.721 302.7C553.743 303.833 551.212 305.563 549.733 308.489C546.558 314.772 549.136 322.537 555.606 325.217C561.759 327.765 567.824 327.368 573.358 323.234C573.711 322.97 574.105 322.762 574.585 322.463C574.729 323.08 574.828 323.535 574.943 323.987C575.35 325.588 575.492 325.717 577.124 325.756C578.266 325.783 579.41 325.787 580.552 325.754C582.276 325.703 582.603 325.222 582.445 323.501ZM565.907 319.314C564.153 319.532 562.275 319.341 560.539 318.952C558.416 318.476 557.068 317.023 556.815 314.707C556.56 312.37 557.631 310.822 559.603 309.803C560.375 309.403 561.18 309.03 562.012 308.794C565.858 307.701 569.801 307.506 573.864 307.518C574.914 312.192 571.954 318.563 565.907 319.314ZM598.225 289.785C599.044 289.211 599.579 288.821 600.128 288.452C605.07 285.135 610.388 284.604 615.895 286.608C620.62 288.327 623.027 292.14 624.134 296.852C624.485 298.346 624.619 299.922 624.63 301.462C624.68 308.681 624.653 315.901 624.65 323.121C624.65 323.593 624.774 324.142 624.579 324.518C624.333 324.993 623.841 325.638 623.415 325.669C621.612 325.8 619.793 325.756 617.981 325.721C617.21 325.706 616.745 325.229 616.682 324.443C616.639 323.906 616.65 323.364 616.65 322.825C616.648 317.022 616.677 311.219 616.631 305.416C616.617 303.6 616.503 301.773 616.263 299.974C615.858 296.944 614.702 294.3 611.526 293.301C608.187 292.25 604.999 292.617 602.288 295.061C600.305 296.849 599.308 299.206 598.854 301.777C598.597 303.23 598.492 304.726 598.481 306.203C598.439 311.871 598.471 317.539 598.46 323.207C598.456 325.547 598.252 325.741 595.934 325.76C594.792 325.77 593.649 325.785 592.508 325.755C590.824 325.711 590.5 325.387 590.432 323.757C590.41 323.218 590.405 322.692 590.404 322.152C590.404 320.972 590.418 302.84 590.384 293.192C590.378 291.643 590.178 290.096 590.131 288.546C590.08 286.891 590.431 286.54 592.106 286.494C593.314 286.462 594.524 286.471 595.733 286.491C597.593 286.521 597.76 286.682 598.017 288.525C598.062 288.847 598.122 289.166 598.225 289.785ZM371.919 326.823C365.988 326.707 360.794 324.921 356.62 320.588C353.777 317.636 352.082 314.072 351.461 310.039C350.704 305.123 351.165 300.347 353.565 295.89C356.739 289.994 361.765 286.784 368.265 285.754C372.419 285.097 376.424 285.631 380.271 287.352C382.582 288.386 384.567 289.855 386.162 291.826C387.181 293.085 387.11 293.718 385.85 294.689C384.733 295.552 383.572 296.36 382.411 297.165C381.571 297.748 380.769 297.714 380.117 296.851C377.246 293.048 373.344 292.167 368.965 293.126C364.441 294.117 361.548 297.071 360.206 301.471C359.088 305.139 359.271 308.794 360.81 312.347C364.404 320.64 375.745 321.457 380.294 315.705C381.447 314.247 381.814 314.298 383.309 315.362C384.186 315.986 385.046 316.634 385.895 317.296C387.44 318.499 387.536 319.174 386.264 320.593C383.821 323.318 380.865 325.267 377.287 326.083C375.532 326.483 373.711 326.586 371.919 326.823ZM483.944 289.665C484.596 289.167 484.967 288.892 485.33 288.607C488.882 285.817 492.911 285.01 497.295 285.737C498.971 286.015 499.304 286.466 499.14 288.212C499.033 289.353 498.859 290.487 498.692 291.621C498.406 293.575 497.958 293.822 496.016 293.602C494.565 293.438 493.06 293.327 491.626 293.528C488.991 293.898 487.11 295.479 485.883 297.835C484.707 300.093 484.2 302.512 484.201 305.049C484.202 310.919 484.2 316.789 484.198 322.659C484.198 323.132 484.227 323.607 484.184 324.076C484.077 325.241 483.699 325.691 482.585 325.734C480.975 325.798 479.36 325.799 477.75 325.735C476.567 325.688 476.254 325.328 476.132 324.108C476.072 323.506 476.102 322.895 476.101 322.287C476.1 315.068 476.091 300.976 476.091 300.629C476.072 296.785 475.965 292.941 475.875 289.097C475.818 286.686 475.956 286.51 478.269 286.487C479.344 286.477 480.419 286.469 481.493 286.491C483.251 286.526 483.375 286.641 483.731 288.398C483.796 288.718 483.84 289.042 483.944 289.665ZM267.131 299.836C267.131 299.836 267.125 323.796 267.125 324.336C267.125 325.285 266.502 325.744 265.53 325.748C263.782 325.756 262.035 325.758 260.287 325.744C259.308 325.735 258.74 325.192 258.74 324.23C258.74 323.712 258.741 270.965 258.741 270.754C258.741 267.816 258.842 267.726 261.831 267.717C262.773 267.714 263.714 267.704 264.655 267.721C266.825 267.76 267.101 268.035 267.128 270.171C267.142 271.252 267.131 290.667 267.131 291.693H294.345C294.345 290.667 294.334 271.353 294.348 270.273C294.374 268.136 294.651 267.862 296.821 267.822C297.762 267.805 298.703 267.815 299.644 267.818C302.634 267.827 302.734 267.918 302.735 270.855C302.735 271.066 302.736 323.814 302.736 324.331C302.736 325.293 302.167 325.836 301.189 325.845C299.441 325.859 297.693 325.857 295.946 325.85C294.973 325.845 294.351 325.386 294.351 324.437C294.351 323.897 294.345 299.836 294.345 299.836H267.131Z" fill="#39424E"/>
<defs>
<linearGradient id="paint0_linear" x1="187.742" y1="361.987" x2="187.742" y2="238.396" gradientUnits="userSpaceOnUse">
<stop stop-color="#25A559"/>
<stop offset="1" stop-color="#30CE68"/>
</linearGradient>
<linearGradient id="paint1_linear" x1="204.332" y1="293.838" x2="204.332" y2="238.396" gradientUnits="userSpaceOnUse">
<stop stop-color="#25A559"/>
<stop offset="1" stop-color="#30CE68"/>
</linearGradient>
<linearGradient id="paint2_linear" x1="193.517" y1="319.371" x2="193.517" y2="248.506" gradientUnits="userSpaceOnUse">
<stop stop-color="#25A559"/>
<stop offset="1" stop-color="#30CE68"/>
</linearGradient>
<linearGradient id="paint3_linear" x1="187.733" y1="338.747" x2="187.733" y2="261.787" gradientUnits="userSpaceOnUse">
<stop stop-color="#25A559"/>
<stop offset="1" stop-color="#30CE68"/>
</linearGradient>
<linearGradient id="paint4_linear" x1="181.858" y1="352.251" x2="181.858" y2="281.255" gradientUnits="userSpaceOnUse">
<stop stop-color="#25A559"/>
<stop offset="1" stop-color="#30CE68"/>
</linearGradient>
<linearGradient id="paint5_linear" x1="170.807" y1="361.986" x2="170.807" y2="307.333" gradientUnits="userSpaceOnUse">
<stop stop-color="#25A559"/>
<stop offset="1" stop-color="#30CE68"/>
</linearGradient>
</defs>
</svg>
