<svg width="800" height="600" viewBox="0 0 800 600" fill="none" xmlns="http://www.w3.org/2000/svg">
<path d="M286.15 332.352H256.595V328.349C258.495 328.444 260.397 328.188 262.204 327.592C263.255 327.205 264.098 326.397 264.53 325.362C264.936 324.078 265.119 322.733 265.072 321.387V284.375L242.81 332.352H240.241L217.608 284.375V319.514C217.581 320.947 217.648 322.38 217.808 323.803C217.91 324.717 218.255 325.586 218.807 326.319C219.468 327.087 220.359 327.619 221.347 327.835C222.925 328.221 224.548 328.389 226.171 328.335V332.338H204.351V328.335C205.984 328.388 207.617 328.215 209.203 327.82C210.176 327.571 211.048 327.027 211.701 326.262C212.233 325.527 212.563 324.664 212.657 323.76C212.792 322.335 212.849 320.903 212.828 319.472V286.076C212.884 284.266 212.755 282.455 212.443 280.672C212.149 279.545 211.347 278.619 210.273 278.17C208.373 277.485 206.353 277.198 204.337 277.327V273.324H225.971L245.464 314.968L265.072 273.31H286.15V277.312C282.525 277.312 280.184 277.837 279.128 278.885C277.922 280.408 277.354 282.34 277.544 284.275V321.444C277.505 322.755 277.678 324.064 278.058 325.319C278.501 326.39 279.378 327.222 280.47 327.606C282.306 328.228 284.242 328.5 286.178 328.407L286.15 332.352Z" fill="black"/>
<path d="M335.154 323.174C335.214 325.137 334.751 327.082 333.813 328.806C332.981 330.296 331.717 331.498 330.188 332.252C328.575 333.002 326.814 333.379 325.036 333.353C322.88 333.435 320.753 332.835 318.957 331.637C317.501 330.696 316.475 329.216 316.103 327.52C311.251 331.408 306.38 333.353 301.49 333.353C298.743 333.472 296.036 332.667 293.798 331.065C291.861 329.685 290.737 327.428 290.802 325.047C290.78 323.061 291.341 321.112 292.414 319.443C293.635 317.625 295.244 316.102 297.123 314.982C299.459 313.552 301.948 312.392 304.544 311.523C307.398 310.522 310.98 309.464 315.275 308.363V305.876C315.384 304.142 314.879 302.426 313.848 301.029C312.878 299.857 311.08 299.257 308.483 299.257C306.752 299.106 305.029 299.617 303.659 300.686C302.557 301.834 301.869 303.319 301.704 304.903C301.525 306.086 301.087 307.214 300.42 308.206C299.792 309.049 298.493 309.478 296.524 309.478C295.368 309.499 294.237 309.132 293.313 308.435C292.354 307.708 291.819 306.55 291.886 305.347C291.886 302.649 293.351 300.3 296.282 298.299C299.212 296.297 303.702 295.292 309.753 295.282C316.136 295.282 320.517 296.359 322.896 298.513C325.301 300.699 326.613 303.841 326.478 307.091V320.858C326.478 322.602 326.478 323.889 326.606 324.689C326.646 325.37 326.901 326.021 327.334 326.548C327.838 327.008 328.51 327.236 329.189 327.177C330.004 327.14 330.744 326.694 331.158 325.99C331.748 325.157 332.044 324.151 332 323.131L335.154 323.174ZM315.176 323.517V312.723C309.667 314.468 306.166 316.169 304.673 317.827C303.348 319.129 302.551 320.876 302.432 322.731C302.375 323.928 302.82 325.094 303.659 325.947C304.584 326.81 305.823 327.255 307.084 327.177C308.573 327.212 310.046 326.867 311.365 326.176C312.727 325.401 314.021 324.511 315.233 323.517H315.176Z" fill="black"/>
<path d="M376.096 302.102C376.173 303.584 375.618 305.028 374.569 306.076C373.594 307.019 372.285 307.533 370.93 307.506C369.195 307.438 367.599 306.532 366.649 305.076C366.224 304.507 365.747 303.981 365.222 303.503C364.757 303.16 364.186 302.992 363.609 303.031C361.272 303.08 359.191 304.528 358.329 306.705C357.097 309.061 356.451 311.68 356.446 314.34V321.931C356.297 323.652 356.617 325.381 357.373 326.934C358.001 327.835 359.642 328.278 362.311 328.278H364.623V332.281H337.552V328.278H339.821C342.247 328.278 343.745 327.806 344.287 326.849C344.964 325.293 345.249 323.594 345.115 321.902V309.25C345.203 307.833 345.004 306.413 344.53 305.076C344.121 304.219 343.342 303.598 342.418 303.389C340.817 303.064 339.184 302.93 337.552 302.988V298.986L354.505 295.226C355.172 298.341 355.578 301.507 355.718 304.69C356.54 302.965 357.618 301.374 358.915 299.972C360.194 298.59 361.694 297.43 363.353 296.541C364.892 295.691 366.618 295.238 368.376 295.226C370.472 295.096 372.532 295.824 374.084 297.241C375.413 298.502 376.144 300.269 376.096 302.102Z" fill="black"/>
<path d="M425.486 332.352H403.924V328.349C406.478 328.349 407.748 327.834 407.748 326.834C407.698 326.002 407.36 325.213 406.792 324.604L398.886 314.153L394.32 317.284V322.731C394.247 324.025 394.426 325.322 394.848 326.548C395.079 327.234 395.601 327.784 396.275 328.049C397.255 328.287 398.263 328.388 399.271 328.349V332.352H376.81V328.349C378.132 328.408 379.455 328.239 380.72 327.849C381.575 327.55 382.258 326.892 382.589 326.047C382.993 324.739 383.167 323.37 383.103 322.002V284.946C383.181 283.874 382.98 282.8 382.518 281.83C382.125 281.167 381.473 280.7 380.72 280.543C379.431 280.292 378.122 280.163 376.81 280.157V276.14L394.362 272.266V312.366L406.578 304.017C407.118 303.632 407.633 303.211 408.119 302.759C408.337 302.516 408.454 302.199 408.447 301.873C408.447 301.101 407.762 300.7 406.407 300.7H403.924V296.698H422.347V300.672C418.773 301.196 415.384 302.601 412.486 304.761L408.048 307.906L419.692 323.631C420.627 324.874 421.652 326.044 422.761 327.134C423.483 327.862 424.462 328.277 425.486 328.292V332.352Z" fill="black"/>
<path d="M530.017 314.411C530.233 321.72 526.047 328.444 519.4 331.466C516.046 333.034 512.384 333.83 508.683 333.796C505.119 333.814 501.591 333.088 498.323 331.666C495.111 330.279 492.341 328.033 490.317 325.176C488.181 322.04 487.096 318.305 487.22 314.511C487.22 308.201 489.366 303.436 493.656 300.215C498.059 296.902 503.449 295.174 508.954 295.311C512.919 295.205 516.846 296.105 520.37 297.927C523.412 299.518 525.929 301.956 527.62 304.947C529.243 307.855 530.084 311.136 530.06 314.468L530.017 314.411ZM518.073 314.21C518.073 309.274 517.421 305.561 516.118 303.074C514.815 300.586 512.284 299.309 508.526 299.242C504.362 298.78 500.599 301.754 500.078 305.919C499.479 308.834 499.211 311.807 499.279 314.782C499.142 318.476 499.744 322.161 501.048 325.619C502.247 328.378 504.83 329.765 508.826 329.765C511.07 329.917 513.269 329.082 514.848 327.477C516.271 325.872 517.194 323.884 517.502 321.759C517.912 319.216 518.108 316.643 518.087 314.068" fill="#D82231"/>
<path d="M579.093 299.1C579.136 300.017 578.83 300.916 578.237 301.616C577.771 302.208 577.064 302.56 576.311 302.574C575.287 302.524 574.315 302.108 573.571 301.401C573.317 301.236 573.073 301.055 572.843 300.858C572.574 300.627 572.288 300.417 571.987 300.229C571.767 300.093 571.517 300.014 571.259 300C570.457 299.983 569.686 300.305 569.133 300.887C570.022 301.98 570.788 303.169 571.416 304.432C571.994 305.785 572.267 307.25 572.215 308.721C572.297 310.791 571.744 312.836 570.631 314.582C569.583 316.13 568.145 317.372 566.464 318.185C564.791 319.007 563.022 319.617 561.198 320C559.414 320.386 557.131 320.758 554.348 321.144C547.527 321.973 544.102 323.374 544.102 325.319C544.102 326.162 544.602 326.748 545.643 327.063C547.141 327.431 548.683 327.59 550.224 327.534H556.832C558.862 327.532 560.892 327.642 562.911 327.863C564.947 328.099 566.943 328.604 568.847 329.364C570.865 330.156 572.641 331.462 573.999 333.153C575.495 335.128 576.253 337.566 576.139 340.044C576.077 342.309 575.396 344.514 574.17 346.42C572.477 348.896 570.074 350.801 567.278 351.881C563.034 353.549 558.49 354.313 553.935 354.125C549.538 354.127 545.161 353.54 540.92 352.381C536.62 351.228 534.47 348.631 534.47 344.59C534.462 343.217 534.898 341.878 535.711 340.773C536.587 339.595 538.003 338.948 539.464 339.057C540.601 339.007 541.729 339.279 542.718 339.843C542.095 340.8 541.763 341.918 541.762 343.06C541.762 344.961 542.875 346.605 545.087 348.006C547.299 349.407 550.652 350.122 555.076 350.122C558.721 350.283 562.355 349.619 565.708 348.178C568.305 346.891 569.604 345.176 569.604 343.06C569.683 341.711 569.042 340.421 567.92 339.672C566.465 338.816 564.824 338.326 563.139 338.242C561.07 338.013 557.845 337.885 553.478 337.828C549.24 337.928 545.013 337.339 540.963 336.084C537.909 334.983 536.396 332.638 536.396 329.078C536.216 326.427 537.518 323.894 539.778 322.502C542.378 321.02 545.196 319.958 548.127 319.357C540.363 317.928 536.482 314.225 536.482 308.392C536.522 306.354 537.046 304.355 538.009 302.559C539.289 300.328 541.214 298.538 543.531 297.427C546.863 295.853 550.527 295.117 554.206 295.283C559.914 295.283 564.304 296.622 567.377 299.3C568.879 296.867 571.529 295.386 574.384 295.383C575.623 295.308 576.845 295.701 577.809 296.483C578.587 297.141 579.036 298.108 579.036 299.128L579.093 299.1ZM561.327 308.192C561.377 305.931 560.805 303.7 559.671 301.744C558.598 299.934 556.603 298.88 554.505 299.014C552.377 298.802 550.304 299.78 549.111 301.559C548.027 303.406 547.484 305.521 547.541 307.663C547.505 309.927 547.993 312.168 548.969 314.211C550.012 316.251 552.201 317.439 554.477 317.198C556.395 317.252 558.223 316.386 559.4 314.868C560.788 312.931 561.459 310.571 561.298 308.192" fill="#D82231"/>
<path d="M607.278 332.352H583.674V328.35H584.93C586.197 328.44 587.466 328.199 588.612 327.649C589.354 327.241 589.877 326.523 590.039 325.69C590.239 324.472 590.325 323.237 590.296 322.002V309.136C590.35 307.845 590.24 306.553 589.968 305.29C589.713 304.496 589.082 303.881 588.284 303.646C586.79 303.224 585.24 303.036 583.689 303.088V299.085L601.512 295.326V322.074C601.36 323.793 601.676 325.522 602.426 327.077C603.039 327.978 604.652 328.421 607.292 328.421L607.278 332.352ZM602.369 278.242C602.373 280.799 600.832 283.104 598.471 284.073C596.109 285.043 593.397 284.484 591.609 282.659C590.396 281.513 589.714 279.912 589.725 278.242C589.721 275.673 591.26 273.354 593.625 272.363C595.991 271.372 598.719 271.903 600.542 273.71C601.748 274.904 602.409 276.544 602.369 278.242Z" fill="#D82231"/>
<path d="M648.491 323.546C645.472 330.098 638.79 334.163 631.594 333.825C628.045 333.839 624.535 333.083 621.305 331.609C618.177 330.207 615.488 327.978 613.528 325.162C611.547 322.25 610.524 318.791 610.603 315.269C610.593 312.689 611.128 310.136 612.172 307.778C613.275 305.356 614.835 303.171 616.767 301.344C618.824 299.394 621.25 297.877 623.903 296.884C626.713 295.808 629.699 295.265 632.708 295.283C636.369 295.209 639.993 296.029 643.268 297.67C646.303 299.243 647.82 301.425 647.82 304.218C647.838 305.46 647.317 306.649 646.393 307.477C645.516 308.357 644.323 308.846 643.082 308.836C641.342 308.956 639.724 307.932 639.086 306.305C638.887 305.719 638.601 304.69 638.216 303.217C637.983 302.012 637.318 300.934 636.347 300.186C635.246 299.511 633.968 299.182 632.679 299.243C630.04 299.245 627.511 300.306 625.658 302.188C623.603 304.146 622.59 307.821 622.59 313.182C622.562 315.877 622.981 318.558 623.831 321.116C624.548 323.364 625.907 325.353 627.741 326.834C629.614 328.267 631.922 329.009 634.277 328.936C636.66 329.101 639.015 328.344 640.856 326.82C642.401 325.329 643.744 323.642 644.852 321.802L648.491 323.546Z" fill="#D82231"/>
<path d="M459.393 327.521C462.184 327.537 464.97 327.283 467.713 326.763C470.388 326.159 472.814 324.747 474.662 322.717C476.789 320.516 478.116 317.17 478.644 312.71H482.639L482.24 332.424H430.98V328.421C434.591 328.421 436.931 327.907 437.973 326.863C439.166 325.329 439.723 323.394 439.528 321.459V284.289C439.581 282.945 439.407 281.602 439.015 280.315C438.565 279.267 437.686 278.465 436.603 278.113C434.794 277.503 432.887 277.236 430.98 277.327V273.324H460.62V277.327C458.726 277.24 456.832 277.492 455.026 278.071C453.937 278.409 453.038 279.186 452.543 280.215C452.104 281.526 451.91 282.908 451.972 284.289V318.242C451.915 320.157 452.044 322.072 452.357 323.961C452.614 325.127 453.401 326.106 454.484 326.606C456.008 327.232 457.647 327.529 459.293 327.478L459.393 327.521Z" fill="#D82231"/>
<path d="M166.791 313.896C169.944 313.896 172.5 311.336 172.5 308.178V279.114C172.5 275.956 169.944 273.396 166.791 273.396H137.708C134.556 273.396 132 275.956 132 279.114V308.149C132 311.307 134.556 313.868 137.708 313.868L166.791 313.896Z" fill="#D82231"/>
<path d="M193.292 269.464C195.789 269.456 197.814 267.434 197.83 264.932V250.636C197.814 248.132 195.791 246.105 193.292 246.09H179.021C176.527 246.113 174.513 248.137 174.497 250.636V264.932C174.513 267.442 176.544 269.47 179.05 269.478L193.292 269.464Z" fill="#D82231"/>
<path d="M655.654 300.973C655.646 300.193 655.796 299.419 656.097 298.7C656.371 298.028 656.779 297.42 657.296 296.913C657.81 296.4 658.421 295.997 659.094 295.726C660.528 295.154 662.126 295.154 663.56 295.726C664.233 295.997 664.844 296.4 665.358 296.913C665.875 297.42 666.283 298.028 666.557 298.7C666.858 299.419 667.008 300.193 666.999 300.973C667.01 301.748 666.859 302.517 666.557 303.231C666.287 303.909 665.879 304.522 665.358 305.033C664.844 305.545 664.233 305.948 663.56 306.219C662.126 306.791 660.528 306.791 659.094 306.219C658.421 305.948 657.81 305.545 657.296 305.033C656.775 304.522 656.367 303.909 656.097 303.231C655.795 302.517 655.644 301.748 655.654 300.973ZM656.882 300.973C656.875 301.583 656.982 302.188 657.196 302.76C657.402 303.289 657.707 303.774 658.095 304.189C658.501 304.602 658.986 304.928 659.522 305.147C660.093 305.399 660.71 305.526 661.334 305.519C663.167 305.573 664.831 304.452 665.473 302.731C665.891 301.577 665.891 300.311 665.473 299.157C665.077 298.058 664.238 297.176 663.161 296.727C662.582 296.486 661.961 296.365 661.334 296.369C660.712 296.365 660.096 296.486 659.522 296.727C658.985 296.95 658.5 297.281 658.095 297.699C657.707 298.114 657.402 298.599 657.196 299.128C656.982 299.7 656.875 300.305 656.882 300.915V300.973ZM662.162 301.43L663.746 303.789H662.419L660.992 301.559H660.407V303.789H659.251V297.97H661.22C661.517 297.971 661.813 297.999 662.105 298.056C662.366 298.119 662.616 298.22 662.847 298.356C663.064 298.493 663.245 298.679 663.375 298.9C663.512 299.154 663.581 299.44 663.575 299.729C663.597 300.137 663.459 300.537 663.189 300.844C662.901 301.13 662.533 301.319 662.133 301.387L662.162 301.43ZM660.407 298.971V300.672H661.049C661.397 300.694 661.744 300.63 662.062 300.487C662.282 300.35 662.408 300.102 662.39 299.843C662.404 299.636 662.319 299.435 662.162 299.3C661.925 299.134 661.636 299.058 661.348 299.086L660.407 298.971Z" fill="#D82231"/>
</svg>
