<svg width="800" height="600" viewBox="0 0 800 600" fill="none" xmlns="http://www.w3.org/2000/svg">
<path d="M181.238 313.768L161.889 280.162H142.395C134.394 280.162 129.447 288.891 133.375 295.729L162.471 346.211C166.399 353.048 176.438 353.194 180.511 346.211L199.278 313.768C195.35 320.751 185.312 320.606 181.238 313.768Z" fill="#8759F2"/>
<path d="M200.733 280.162H161.89L181.239 313.768C185.167 320.606 195.205 320.751 199.278 313.768L209.753 295.729C213.681 288.745 208.589 280.162 200.733 280.162Z" fill="#FF3E80"/>
<path d="M219.5 247.721H161.162C153.161 247.721 148.214 256.304 152.142 263.287L161.889 280.163H200.733C208.734 280.163 213.681 288.892 209.753 295.729L228.52 263.287C232.448 256.45 227.501 247.721 219.5 247.721Z" fill="#FFC300"/>
<path d="M152.142 263.288C150.251 260.105 150.251 256.142 152.142 252.959L133.375 285.401C135.266 282.201 138.613 280.164 142.395 280.164H161.889L152.142 263.288Z" fill="#00D4E6"/>
<path d="M579.42 278.999C563.708 278.999 551.343 291.074 551.343 306.058C551.343 321.043 563.417 333.118 579.42 333.118C595.423 333.118 607.498 321.043 607.498 306.058C607.498 291.074 595.132 278.999 579.42 278.999ZM579.42 322.207C570.546 322.207 563.999 315.078 563.999 306.204C563.999 297.33 570.837 290.201 579.42 290.201C588.004 290.201 594.841 297.33 594.841 306.204C594.841 315.078 588.149 322.207 579.42 322.207ZM395.823 258.195H391.313C388.404 258.195 386.949 259.65 386.949 262.56V327.59C386.949 330.499 388.404 331.954 391.313 331.954H395.823C398.733 331.954 400.188 330.499 400.188 327.59V262.56C400.188 259.65 398.733 258.195 395.823 258.195ZM536.358 280.308H531.848C528.938 280.308 527.484 281.763 527.484 284.673V327.735C527.484 330.645 528.938 332.1 531.848 332.1H536.358C539.268 332.1 540.722 330.645 540.722 327.735V284.673C540.722 281.763 539.122 280.308 536.358 280.308ZM311.444 280.163H307.225C304.316 280.163 303.006 281.181 301.988 283.945L289.622 317.551L277.256 283.945C276.238 281.181 274.928 280.163 272.019 280.163H267.654C264.89 280.163 262.417 281.327 263.872 285.109L280.893 327.444C282.348 331.227 283.803 331.954 286.858 331.954H292.241C295.296 331.954 296.751 331.081 298.205 327.444L315.227 285.109C316.681 281.327 314.208 280.163 311.444 280.163ZM458.671 280.308H454.161C451.251 280.308 449.797 281.763 449.797 284.673V306.349C449.36 316.679 443.395 322.207 436.121 322.207C430.302 322.207 427.102 317.115 427.102 309.405V284.673C427.102 281.763 425.647 280.308 422.737 280.308H418.227C415.318 280.308 413.863 281.763 413.863 284.673V310.423C413.863 319.588 417.936 333.263 433.066 333.263C445.141 333.263 448.924 325.407 449.797 322.789V327.735C449.797 330.645 451.251 332.1 454.161 332.1H458.671C461.581 332.1 463.035 330.645 463.035 327.735V284.673C463.035 281.763 461.581 280.308 458.671 280.308ZM622.192 332.1H626.702C629.611 332.1 631.066 330.645 631.066 327.735V305.913C631.503 295.584 637.467 290.056 644.741 290.056C650.561 290.056 653.761 295.147 653.761 302.858V327.59C653.761 330.499 655.216 331.954 658.126 331.954H662.636C665.545 331.954 667 330.499 667 327.59V301.839C667 292.674 662.927 278.999 647.796 278.999C635.722 278.999 631.939 286.855 631.066 289.474V284.673C631.066 281.763 629.611 280.308 626.702 280.308H622.192C619.282 280.308 617.827 281.763 617.827 284.673V327.735C617.827 330.645 619.428 332.1 622.192 332.1ZM542.323 265.033C542.323 269.252 539.268 272.743 534.03 272.743C528.793 272.743 525.738 269.252 525.738 265.033C525.738 260.814 528.938 257.322 534.03 257.322C539.122 257.322 542.323 260.814 542.323 265.033ZM513.081 287.146C513.372 286.128 513.372 285.109 512.936 284.091C512.499 283.218 511.626 282.49 510.753 282.2C506.68 280.745 501.152 278.999 494.75 278.999C483.403 278.999 475.547 285.4 475.11 293.693C474.819 300.385 478.602 304.749 483.403 307.368C489.077 310.423 495.623 311.441 498.533 312.46C501.588 313.623 503.188 314.933 503.334 317.551C503.334 320.17 500.861 322.498 495.769 322.498C489.368 322.498 483.985 320.316 480.493 318.861C478.602 317.988 476.42 318.715 475.401 320.607L474.383 323.371C473.51 325.262 474.238 327.444 475.983 328.463C479.766 330.499 486.894 333.263 495.187 333.263C507.989 333.263 515.7 326.426 515.7 317.406C515.7 313.333 514.39 308.386 507.553 304.749C503.916 302.712 493.877 300.821 490.531 298.93C488.204 297.766 487.185 295.875 487.476 293.838C487.767 290.928 490.531 289.619 494.023 289.328C499.697 289.037 503.77 290.928 507.844 291.947C509.735 292.383 511.626 291.219 512.208 289.474L513.081 287.146ZM347.814 278.999C332.102 278.999 319.737 291.074 319.737 306.058C319.737 321.043 331.811 333.118 347.814 333.118C363.817 333.118 375.892 321.043 375.892 306.058C375.892 291.074 363.526 278.999 347.814 278.999ZM347.814 322.207C338.94 322.207 332.393 315.078 332.393 306.204C332.393 297.33 339.231 290.201 347.814 290.201C356.398 290.201 363.235 297.33 363.235 306.204C363.235 315.078 356.689 322.207 347.814 322.207Z" fill="#221B43"/>
</svg>
