<svg width="800" height="600" viewBox="0 0 800 600" fill="none" xmlns="http://www.w3.org/2000/svg">
<mask id="mask0" mask-type="alpha" maskUnits="userSpaceOnUse" x="225" y="177" width="350" height="246">
<path d="M225 177H575V422.434H225V177Z" fill="white"/>
</mask>
<g mask="url(#mask0)">
<path d="M370.646 203.767C381.932 191.987 397.647 184.68 415.029 184.68C438.134 184.68 458.289 197.584 469.025 216.744C478.356 212.57 488.68 210.245 499.544 210.245C541.215 210.245 575 244.387 575 286.501C575 328.621 541.215 362.762 499.544 362.762C494.457 362.762 489.487 362.247 484.677 361.278C475.228 378.166 457.214 389.581 436.535 389.581C427.884 389.581 419.699 387.582 412.405 384.016C402.827 406.597 380.497 422.434 354.479 422.434C327.38 422.434 304.284 405.258 295.421 381.166C291.547 381.985 287.53 382.418 283.415 382.418C251.151 382.418 225 355.944 225 323.287C225 301.395 236.744 282.286 254.207 272.061C250.611 263.769 248.615 254.627 248.615 245.011C248.615 207.452 279.053 177 316.593 177C338.635 177 358.224 187.498 370.646 203.767Z" fill="#129CD7"/>
</g>
<path d="M275.092 302.973C274.865 303.534 275.171 303.649 275.245 303.745C275.922 304.21 276.603 304.546 277.296 304.922C280.964 306.765 284.432 307.301 288.052 307.301C295.431 307.301 300.014 303.584 300.014 297.598V297.483C300.014 291.948 294.839 289.934 289.993 288.482L289.358 288.292C285.7 287.164 282.544 286.192 282.544 283.908V283.793C282.544 281.839 284.39 280.402 287.249 280.402C290.426 280.402 294.195 281.404 296.621 282.676C296.621 282.676 297.34 283.112 297.599 282.456C297.741 282.1 298.968 278.969 299.1 278.628C299.237 278.263 298.994 277.988 298.741 277.843C295.965 276.245 292.133 275.152 288.168 275.152L287.434 275.158C280.679 275.158 275.964 279.024 275.964 284.565V284.68C275.964 290.515 281.165 292.414 286.038 293.731L286.821 293.962C290.373 294.994 293.434 295.885 293.434 298.249V298.37C293.434 300.534 291.441 302.147 288.238 302.147C286.99 302.147 283.02 302.127 278.734 299.557C278.216 299.266 277.92 299.061 277.518 298.831C277.307 298.706 276.778 298.49 276.545 299.146L275.092 302.973Z" fill="#FEFEFE"/>
<path d="M381.362 302.973C381.135 303.534 381.441 303.649 381.515 303.745C382.192 304.21 382.874 304.546 383.566 304.922C387.235 306.765 390.702 307.301 394.322 307.301C401.701 307.301 406.284 303.584 406.284 297.598V297.483C406.284 291.948 401.109 289.934 396.263 288.482L395.628 288.292C391.971 287.164 388.815 286.192 388.815 283.908V283.793C388.815 281.839 390.66 280.402 393.519 280.402C396.696 280.402 400.465 281.404 402.891 282.676C402.891 282.676 403.61 283.112 403.869 282.456C404.011 282.1 405.238 278.969 405.37 278.628C405.508 278.263 405.264 277.988 405.011 277.843C402.235 276.245 398.408 275.152 394.439 275.152L393.705 275.158C386.949 275.158 382.234 279.024 382.234 284.565V284.68C382.234 290.515 387.441 292.414 392.308 293.731L393.091 293.962C396.643 294.994 399.709 295.885 399.709 298.249V298.37C399.709 300.534 397.716 302.147 394.508 302.147C393.26 302.147 389.296 302.127 385.004 299.557C384.486 299.266 384.179 299.071 383.788 298.831C383.656 298.751 383.032 298.52 382.821 299.146L381.362 302.973Z" fill="#FEFEFE"/>
<path d="M452.049 291.257C452.049 294.66 451.397 297.346 450.113 299.242C448.839 301.117 446.917 302.034 444.24 302.034C441.558 302.034 439.647 301.117 438.394 299.242C437.125 297.346 436.484 294.66 436.484 291.257C436.484 287.86 437.125 285.178 438.389 283.304C439.647 281.448 441.558 280.545 444.24 280.545C446.917 280.545 448.839 281.448 450.113 283.304C451.397 285.178 452.049 287.86 452.049 291.257ZM458.082 284.946C457.492 282.996 456.565 281.277 455.337 279.846C454.11 278.409 452.552 277.254 450.703 276.418C448.86 275.581 446.684 275.152 444.24 275.152C441.791 275.152 439.611 275.581 437.768 276.418C435.924 277.254 434.365 278.409 433.137 279.85C431.906 281.282 430.984 283.001 430.394 284.946C429.804 286.887 429.503 289.009 429.503 291.257C429.503 293.505 429.804 295.632 430.394 297.568C430.984 299.514 431.906 301.233 433.137 302.669C434.365 304.106 435.93 305.255 437.773 306.071C439.617 306.888 441.791 307.301 444.24 307.301C446.684 307.301 448.854 306.888 450.703 306.071C452.546 305.255 454.105 304.106 455.337 302.669C456.565 301.238 457.492 299.519 458.082 297.568C458.672 295.627 458.973 293.505 458.973 291.257C458.973 289.009 458.672 286.887 458.082 284.946Z" fill="#FEFEFE"/>
<path d="M507.437 301.138C507.239 300.569 506.658 300.786 506.658 300.786C505.774 301.113 504.833 301.41 503.824 301.562C502.809 301.718 501.69 301.793 500.487 301.793C497.543 301.793 495.195 300.947 493.516 299.279C491.837 297.606 490.891 294.905 490.901 291.252C490.911 287.931 491.743 285.432 493.239 283.522C494.724 281.628 496.988 280.655 500.001 280.655C502.511 280.655 504.43 280.937 506.438 281.542C506.438 281.542 506.92 281.743 507.144 281.139C507.683 279.707 508.076 278.695 508.645 277.128C508.807 276.679 508.41 276.492 508.263 276.437C507.474 276.14 505.612 275.651 504.2 275.445C502.887 275.253 501.345 275.152 499.63 275.152C497.072 275.152 494.792 275.575 492.841 276.412C490.891 277.244 489.243 278.398 487.931 279.834C486.623 281.27 485.629 282.988 484.971 284.933C484.306 286.873 483.977 288.999 483.977 291.256C483.977 296.124 485.337 300.06 488.03 302.937C490.728 305.834 494.776 307.301 500.058 307.301C503.18 307.301 506.381 306.692 508.687 305.819C508.687 305.819 509.127 305.613 508.933 305.119L507.437 301.138Z" fill="#FEFEFE"/>
<path d="M517.76 287.991C518.044 286.1 518.567 284.528 519.379 283.303C520.602 281.443 522.47 280.415 525.099 280.415C527.727 280.415 529.457 281.443 530.706 283.303C531.533 284.533 531.893 286.165 532.036 287.996L517.76 287.991ZM537.664 283.837C537.161 281.951 535.918 280.052 535.105 279.185C533.817 277.804 532.553 276.841 531.305 276.307C529.676 275.611 527.717 275.152 525.57 275.152C523.074 275.152 520.806 275.571 518.964 276.428C517.121 277.284 515.574 278.459 514.356 279.921C513.142 281.378 512.229 283.111 511.646 285.083C511.062 287.038 510.768 289.17 510.768 291.423C510.768 293.717 511.072 295.854 511.676 297.769C512.285 299.71 513.26 301.409 514.574 302.826C515.893 304.247 517.583 305.355 519.608 306.137C521.622 306.908 524.068 307.311 526.875 307.301C532.655 307.286 535.699 306.006 536.953 305.315C537.176 305.189 537.384 304.978 537.125 304.363L535.811 300.723C535.613 300.184 535.06 300.38 535.06 300.38C533.624 300.91 531.594 301.857 526.844 301.847C523.739 301.843 521.44 300.935 519.999 299.508C518.521 298.056 517.791 295.92 517.669 292.9L537.679 292.915C537.679 292.915 538.206 292.91 538.262 292.396C538.282 292.185 538.947 288.313 537.664 283.837Z" fill="#FEFEFE"/>
<path d="M355.23 287.991C355.514 286.1 356.037 284.528 356.844 283.303C358.077 281.443 359.939 280.415 362.568 280.415C365.197 280.415 366.932 281.443 368.18 283.303C369.003 284.533 369.363 286.165 369.505 287.996L355.23 287.991ZM375.133 283.837C374.63 281.951 373.387 280.052 372.574 279.185C371.286 277.804 370.028 276.841 368.774 276.307C367.14 275.611 365.186 275.152 363.045 275.152C360.543 275.152 358.276 275.571 356.433 276.428C354.591 277.284 353.043 278.459 351.826 279.921C350.612 281.378 349.699 283.111 349.116 285.083C348.532 287.038 348.238 289.17 348.238 291.423C348.238 293.717 348.542 295.854 349.147 297.769C349.755 299.71 350.729 301.409 352.043 302.826C353.363 304.247 355.053 305.355 357.078 306.137C359.092 306.908 361.538 307.311 364.344 307.301C370.124 307.286 373.168 306.006 374.422 305.315C374.645 305.189 374.853 304.978 374.595 304.363L373.281 300.723C373.082 300.184 372.53 300.38 372.53 300.38C371.093 300.91 369.063 301.857 364.313 301.847C361.213 301.843 358.909 300.935 357.468 299.508C355.991 298.056 355.261 295.92 355.139 292.9L375.147 292.915C375.147 292.915 375.676 292.91 375.731 292.396C375.751 292.185 376.417 288.313 375.133 283.837Z" fill="#FEFEFE"/>
<path d="M311.833 301.012C311.046 300.393 310.939 300.237 310.68 299.834C310.279 299.225 310.075 298.359 310.075 297.252C310.075 295.509 310.66 294.251 311.863 293.409C311.853 293.409 313.59 291.92 317.673 291.974C320.541 292.01 323.111 292.433 323.111 292.433V301.46C323.111 301.46 320.567 301.999 317.703 302.171C313.63 302.417 311.817 301.008 311.833 301.012ZM319.8 287.06C318.987 287.001 317.936 286.97 316.677 286.97C314.961 286.97 313.3 287.182 311.741 287.6C310.177 288.017 308.771 288.662 307.562 289.517C306.344 290.384 305.368 291.486 304.658 292.796C303.947 294.105 303.586 295.645 303.586 297.367C303.586 299.129 303.891 300.655 304.505 301.903C305.115 303.157 305.993 304.204 307.116 305.01C308.227 305.815 309.604 306.405 311.193 306.762C312.767 307.12 314.549 307.301 316.5 307.301C318.556 307.301 320.598 307.13 322.583 306.797C324.548 306.465 326.955 305.982 327.625 305.826C328.29 305.675 329.026 305.474 329.026 305.474C329.524 305.348 329.483 304.824 329.483 304.824L329.474 286.668C329.474 282.68 328.402 279.73 326.295 277.897C324.193 276.074 321.095 275.152 317.094 275.152C315.591 275.152 313.179 275.354 311.726 275.642C311.726 275.642 307.354 276.482 305.556 277.882C305.556 277.882 305.161 278.124 305.374 278.673L306.79 282.449C306.968 282.937 307.45 282.77 307.45 282.77C307.45 282.77 307.603 282.711 307.78 282.605C311.63 280.53 316.504 280.59 316.504 280.59C318.667 280.59 320.333 281.029 321.455 281.875C322.547 282.711 323.1 283.959 323.1 286.607V287.448C321.384 287.201 319.8 287.06 319.8 287.06Z" fill="#FEFEFE"/>
<path d="M483.044 277.365C483.198 276.916 482.874 276.698 482.74 276.647C482.396 276.521 480.669 276.162 479.343 276.076C476.794 275.924 475.381 276.344 474.116 276.905C472.857 277.462 471.464 278.366 470.693 279.392L470.688 276.961C470.688 276.627 470.447 276.359 470.107 276.359H464.911C464.572 276.359 464.331 276.627 464.331 276.961V306.699C464.331 307.032 464.603 307.301 464.947 307.301H470.272C470.611 307.301 470.883 307.032 470.883 306.699V291.843C470.883 289.846 471.11 287.859 471.557 286.611C471.993 285.372 472.59 284.386 473.33 283.679C474.07 282.971 474.913 282.476 475.838 282.198C476.779 281.914 477.822 281.819 478.551 281.819C479.615 281.819 480.777 282.092 480.777 282.092C481.173 282.132 481.389 281.894 481.522 281.55C481.867 280.641 482.859 277.906 483.044 277.365Z" fill="#FEFEFE"/>
<path d="M433.556 263.341C432.903 263.14 432.311 263.007 431.532 262.867C430.744 262.723 429.81 262.65 428.752 262.65C425.052 262.65 422.137 263.692 420.087 265.742C418.053 267.778 416.668 270.88 415.973 274.957L415.724 276.333H411.08C411.08 276.333 410.509 276.313 410.395 276.926L409.632 281.152C409.575 281.554 409.752 281.806 410.296 281.806H414.821L410.229 307.244C409.871 309.29 409.461 310.975 409.004 312.253C408.559 313.516 408.118 314.459 407.578 315.144C407.054 315.805 406.56 316.299 405.705 316.582C404.999 316.814 404.185 316.923 403.297 316.923C402.805 316.923 402.146 316.84 401.658 316.743C401.17 316.65 400.916 316.541 400.552 316.391C400.552 316.391 400.024 316.191 399.811 316.716C399.645 317.149 398.441 320.442 398.295 320.85C398.15 321.252 398.353 321.565 398.612 321.659C399.214 321.87 399.66 322.009 400.48 322.2C401.622 322.467 402.581 322.483 403.479 322.483C405.363 322.483 407.08 322.22 408.502 321.71C409.933 321.195 411.178 320.298 412.283 319.092C413.472 317.783 414.224 316.412 414.939 314.542C415.651 312.691 416.253 310.393 416.741 307.713L421.347 281.806H428.088C428.088 281.806 428.658 281.827 428.772 281.214L429.535 276.987C429.586 276.586 429.416 276.333 428.871 276.333H422.328C422.359 276.189 422.655 273.901 423.408 271.752C423.729 270.829 424.331 270.093 424.845 269.582C425.343 269.082 425.924 268.727 426.557 268.52C427.206 268.315 427.942 268.211 428.752 268.211C429.369 268.211 429.971 268.283 430.433 268.376C431.065 268.51 431.315 268.583 431.481 268.628C432.145 268.835 432.233 268.639 432.367 268.319L433.929 264.052C434.091 263.593 433.701 263.398 433.556 263.341Z" fill="#FEFEFE"/>
<path d="M341.986 306.694C341.986 307.028 341.788 307.301 341.51 307.301H337.104C336.826 307.301 336.628 307.028 336.628 306.694V264.145C336.628 263.811 336.826 263.543 337.104 263.543H341.51C341.788 263.543 341.986 263.811 341.986 264.145V306.694Z" fill="#FEFEFE"/>
</svg>
