<svg width="800" height="600" viewBox="0 0 800 600" fill="none" xmlns="http://www.w3.org/2000/svg">
<path d="M484.536 351.008C484.5 351.523 484.037 351.954 483.517 351.952H428.984C428.464 351.953 428.078 352.329 428.076 352.818L428.094 352.999C430.007 363.072 438.851 370.717 449.477 370.717C454.896 370.717 459.848 368.713 463.656 365.429C464.062 365.083 464.83 364.771 465.361 364.773H479.906C480.287 364.778 480.482 364.961 480.485 365.224C480.485 365.326 480.454 365.443 480.386 365.569C474.449 376.567 462.819 384.053 449.477 384.053C439.789 384.053 431.008 380.115 424.649 373.755C418.29 367.395 414.353 358.614 414.353 348.929C414.353 339.549 418.008 330.729 424.636 324.092C431.267 317.464 440.094 313.809 449.477 313.809C459.159 313.809 467.94 317.747 474.3 324.106C480.661 330.466 484.6 339.246 484.6 348.929C484.6 349.631 484.572 350.321 484.536 351.008ZM405.467 383.116C405.467 383.668 405.021 384.113 404.474 384.113H393.006C392.452 384.113 392.007 383.668 392.007 383.116V293.902C392.007 293.349 392.452 292.903 393.006 292.903H404.474C405.021 292.903 405.467 293.349 405.467 293.902V383.116ZM373.915 308.295C369.646 308.295 366.188 304.827 366.188 300.564C366.188 296.298 369.646 292.841 373.915 292.841C378.183 292.841 381.635 296.298 381.635 300.564C381.635 304.827 378.183 308.295 373.915 308.295ZM380.642 383.128C380.642 383.681 380.198 384.126 379.649 384.126H368.176C367.623 384.126 367.178 383.681 367.178 383.128V314.7C367.178 314.152 367.623 313.703 368.176 313.703H379.649C380.198 313.703 380.642 314.152 380.642 314.7V383.128ZM342.732 267.544C329.231 267.544 318.286 256.6 318.286 243.1C318.286 229.599 329.231 218.655 342.732 218.655C356.234 218.655 367.178 229.599 367.178 243.1C367.178 256.6 356.234 267.544 342.732 267.544ZM356.455 326.17C356.455 326.717 356.009 327.163 355.455 327.163H328.84V348.929C328.84 360.914 338.585 370.657 350.569 370.657H355.458C356.011 370.657 356.455 371.106 356.455 371.65V383.116C356.455 383.668 356.011 384.113 355.458 384.113H350.569C331.172 384.113 315.39 368.333 315.39 348.929V293.897C315.39 293.346 315.836 292.903 316.383 292.903H327.848C328.405 292.903 328.84 293.346 328.84 293.897V313.703H355.455C356.009 313.703 356.455 314.147 356.455 314.702V326.17ZM449.651 190H350.351C317.073 190 290 217.073 290 250.35V349.65C290 382.927 317.073 410 350.351 410H449.646C482.925 410 510 382.925 510 349.647V250.348C510 217.072 482.928 190 449.651 190ZM468.65 340.046H468.65C467.73 338.153 462.651 327.5 450.407 327.5C442.265 327.5 435.721 332.86 432.18 340.046C432.113 340.18 432.083 340.321 432.083 340.456C432.083 340.877 432.371 341.248 432.738 341.25H468.089C468.47 341.249 468.749 340.883 468.75 340.468C468.75 340.329 468.719 340.184 468.65 340.047V340.046Z" fill="#A3A3A3"/>
</svg>
