<svg width="800" height="600" viewBox="0 0 800 600" fill="none" xmlns="http://www.w3.org/2000/svg">
<path d="M232.453 281.195L255.901 336.226C248.389 341.919 238.854 345.256 228.664 345.256C219.651 345.256 211.16 342.442 204.041 337.862C191.696 329.879 183.662 315.941 183.662 300.105C183.662 298.404 183.728 296.637 183.924 295.001L224.092 277.792C227.423 276.483 231.081 277.988 232.453 281.195Z" fill="url(#paint0_linear)"/>
<path d="M228.73 345.256C219.716 345.256 211.225 342.442 204.106 337.861C194.831 331.841 187.908 322.419 185.099 311.425L215.536 298.404C218.736 297.03 222.459 298.535 223.831 301.741L241.597 343.424C237.547 344.601 233.171 345.256 228.73 345.256Z" fill="url(#paint1_linear)"/>
<path d="M206.915 320.259C210.115 318.885 213.838 320.39 215.21 323.596L224.354 345.059C216.973 344.34 210.05 341.722 204.106 337.927C199.469 334.917 195.419 331.056 192.219 326.606L206.915 320.259Z" fill="url(#paint2_linear)"/>
<path d="M271.671 290.748H271.315H270.074C269.225 290.748 268.376 291.075 267.853 291.795C267.135 292.777 267.135 294.085 267.788 295.067L273.536 303.312C274.254 304.293 275.495 304.686 276.671 304.228C277.128 304.031 277.52 303.704 277.847 303.246L283.66 295.132C284.182 294.347 284.313 293.3 283.921 292.384C283.594 291.533 282.484 290.748 281.57 290.748H280.002H279.329C277.164 279.41 271.196 269.052 262.367 261.433C252.962 253.45 241.009 249 228.664 249H228.272C200.056 249.196 176.935 272.295 177 300.432C177.065 328.766 200.318 351.734 228.664 351.734C252.504 351.734 272.948 335.637 278.63 312.931C279.414 309.855 278.108 308.219 276.214 307.827C273.47 307.238 271.903 309.266 271.446 311.164C266.547 330.533 249.108 344.471 228.795 344.471H228.664C216.842 344.471 205.739 339.694 197.378 331.318C189.018 322.942 184.707 311.884 184.773 300.171C184.903 276.025 204.432 256.198 228.664 256.198H229.122C249.705 256.391 267.267 270.9 271.671 290.748ZM621.534 333.805C620.489 332.431 619.444 331.056 618.203 329.879C617.746 329.421 617.158 329.159 616.57 329.159C616.048 329.159 615.525 329.355 615.003 329.682C614.611 329.944 614.219 330.271 613.827 330.533C610.104 333.085 606.251 335.31 602.005 336.88C597.498 338.516 590.314 338.909 587.048 334.394C587.244 334.197 587.309 334.001 587.44 334.001C587.701 333.936 587.962 333.87 588.224 333.805C592.012 333.281 595.604 332.234 599.001 330.402C606.447 326.345 610.169 319.932 610.169 311.687C610.169 303.639 603.769 298.142 596.127 298.142C589.726 298.142 581.561 302.33 577.12 311.687C575.553 315.025 574.05 319.671 573.266 327.392C573.136 328.374 573.071 329.29 572.548 330.14C569.609 334.852 565.102 337.142 559.877 338.254C559.616 338.32 559.354 338.32 559.158 338.32C557.787 338.32 556.742 337.469 556.285 335.899C555.501 333.478 555.305 331.056 555.631 328.57C555.827 327.196 556.219 325.952 557.134 324.775C559.158 322.026 569.152 307.827 571.764 303.573C582.868 287.214 587.113 270.528 588.028 264.639C588.42 262.022 588.681 259.666 588.289 256.983C587.766 253.45 586.134 251.552 582.672 250.636C581.953 250.44 581.235 250.374 580.516 250.374C579.145 250.374 577.839 250.701 576.598 251.225C573.528 252.534 569.87 255.02 567.258 257.965C561.836 264.05 557.787 271.444 554.586 278.904C551.125 287.018 548.512 295.328 546.814 303.966C545.965 308.35 545.312 312.8 544.593 317.249C544.267 319.343 544.071 321.503 543.94 323.662C543.875 324.775 543.418 325.494 542.568 326.083C540.805 327.327 539.237 328.766 537.409 329.879C535.906 330.795 534.208 331.384 532.575 332.169C532.51 331.776 532.445 331.645 532.445 331.58C532.575 331.056 532.706 330.467 532.836 329.944C534.339 324.644 535.057 319.278 534.665 313.781C534.404 310.379 533.294 307.303 531.204 304.62C530.616 303.835 529.832 302.984 528.918 302.592C526.828 301.61 524.672 300.956 522.386 300.956C521.668 300.956 520.884 301.021 520.1 301.152C518.663 301.414 517.161 301.676 515.463 302.003C518.402 298.731 523.954 291.664 529.375 280.017C531.791 274.847 533.098 269.154 533.294 263.461C533.424 260.255 533.228 257.114 531.596 254.235C529.44 250.44 525.587 250.309 524.215 250.309C520.949 250.309 517.357 251.814 514.418 255.674C512.262 258.554 510.564 261.695 508.996 264.966C505.6 272.033 503.183 279.428 501.093 286.953C494.301 311.622 493.125 322.353 491.688 328.439C489.075 339.301 484.307 339.432 483.001 339.17C480.519 338.712 479.409 333.543 480.584 327.981C482.152 320.39 483.72 312.865 485.483 305.34C486.202 302.396 484.634 300.432 482.348 299.582C479.343 298.535 476.339 298.011 473.269 298.011C471.44 298.011 469.546 298.208 467.652 298.6C461.839 299.778 457.398 303.246 453.479 307.5C450.54 310.706 448.254 314.305 446.49 318.231C445.249 321.045 443.094 322.288 440.35 322.877C439.697 323.008 439.044 323.073 438.456 323.073C435.517 323.073 434.015 321.241 433.884 317.642C433.884 317.184 433.819 316.661 433.884 316.202C434.211 314.043 434.537 311.818 434.929 309.659C435.256 307.565 435.778 305.733 435.974 303.573C436.17 300.825 434.211 298.862 431.468 298.666H430.814C429.051 298.666 427.418 299.189 426.046 300.236C424.74 301.218 423.434 302.068 422.454 303.377C420.625 305.864 419.058 308.547 417.425 311.229C416.902 312.08 416.51 312.996 415.988 313.912C416.118 311.884 416.51 309.921 416.902 308.023C417.425 305.864 418.013 303.77 418.47 301.61C418.862 300.04 418.339 298.927 417.098 298.535C415.988 298.208 414.812 298.011 413.702 298.011C412.396 298.011 411.089 298.273 409.783 298.731C409.064 298.993 408.411 299.713 408.085 300.367C407.497 301.479 406.974 302.788 406.648 304.031C404.427 312.015 402.794 320.129 401.619 328.308C401.488 329.29 401.227 330.14 400.182 330.664C399.071 331.187 398.092 331.973 396.981 332.627C393.324 334.721 389.601 336.88 385.42 337.665C384.245 337.862 383.069 337.993 381.959 337.993C379.934 337.993 377.909 337.6 375.95 336.488C374.97 335.899 374.056 335.179 373.402 334.001C373.925 333.87 374.252 333.739 374.578 333.674C378.432 333.15 382.155 332.103 385.551 330.206C393.062 326.083 396.524 319.474 396.459 311.099C396.459 306.518 393.52 297.946 382.547 297.946C379.216 297.946 375.688 299.386 372.553 301.479C367.851 304.555 365.107 308.547 362.952 313.65C360.993 318.296 359.752 322.942 359.752 328.766C359.752 329.944 359.425 330.729 358.445 331.384C357.923 331.711 357.4 332.103 356.878 332.431C353.22 334.786 349.301 336.684 345.186 338.123C343.749 338.582 342.312 338.909 340.81 338.909C340.026 338.909 339.243 338.843 338.459 338.647C336.957 338.254 335.454 337.665 334.932 336.03C334.475 334.721 334.148 333.347 334.148 331.973C334.148 329.551 334.475 327.13 334.671 324.775C335.063 319.343 336.369 314.043 337.479 308.677C337.74 307.565 338.59 307.238 339.504 307.107C339.896 307.041 340.81 307.107 340.81 307.107H359.098C360.143 307.107 361.776 306.125 362.364 304.62C362.952 303.115 363.54 301.676 363.932 300.105C364.389 298.6 363.866 297.226 362.364 297.226H348.648C355.18 291.991 363.083 282.176 365.499 270.267C366.479 265.359 368.83 252.926 360.601 250.44C352.24 247.888 342.247 259.47 336.499 272.361C330.817 285.251 328.4 297.88 328.4 297.88H325.788H323.828C322.522 297.88 321.738 298.011 321.281 299.189C320.497 301.152 319.844 303.246 319.387 305.275C319.06 306.845 319.583 307.041 321.216 307.041H323.828H326.963C326.702 308.285 326.31 309.921 326.049 311.164C324.808 317.249 323.894 323.008 323.436 329.617C323.371 330.206 323.175 330.926 322.783 331.253C319.779 334.001 316.97 336.488 312.855 338.582C305.932 342.115 306.846 334.852 307.042 332.561C307.304 329.29 308.218 325.494 308.937 322.223C310.7 314.37 312.333 309.332 314.423 302.461C314.684 301.676 314.75 300.825 314.75 300.04C314.75 297.292 311.941 297.226 310.308 297.226C308.675 297.226 303.777 297.292 301.491 302.788C294.306 320.39 293.392 337.927 293.979 342.115C295.351 351.93 304.952 350.229 309.328 348.855C314.096 347.35 318.473 344.405 322.587 341.526C323.045 341.199 323.567 340.872 324.024 340.61C324.22 340.741 324.286 340.806 324.286 340.872C324.416 341.461 324.547 342.05 324.743 342.704C325.722 346.303 327.878 348.397 331.47 349.444C332.907 349.836 334.344 350.033 335.846 350.033C336.695 350.033 337.544 349.967 338.394 349.836C344.99 348.659 351.195 347.023 356.747 343.162C358.38 342.05 360.078 341.068 361.711 340.087C361.972 340.217 362.038 340.217 362.103 340.283C362.364 340.675 362.691 341.068 362.952 341.461C365.63 345.256 369.288 348.266 373.794 349.182C375.427 349.509 376.995 349.64 378.628 349.64C380.783 349.64 382.938 349.378 385.094 348.92C390.188 347.873 394.76 344.994 399.202 342.442C399.659 342.18 400.312 341.788 400.965 341.395C400.965 341.395 401.227 345.714 401.423 347.154C401.684 348.789 402.206 349.509 403.839 349.64C404.427 349.706 405.015 349.706 405.603 349.706C406.452 349.706 407.301 349.64 408.15 349.575C411.873 349.182 412.787 348.07 413.31 344.405C413.898 340.021 414.616 335.31 415.465 330.991C416.249 326.738 417.555 322.681 419.646 318.951C420.103 318.166 420.625 317.446 421.344 316.922C421.67 316.661 421.997 316.595 422.258 316.595C422.781 316.595 423.173 316.988 423.303 317.773C423.499 318.754 423.63 319.801 423.826 320.848C424.348 323.728 425.001 326.541 426.504 329.093C428.267 332.038 430.749 334.001 434.276 334.328C434.995 334.394 435.648 334.459 436.366 334.459C437.738 334.459 439.109 334.263 440.416 333.87C440.873 333.739 441.33 333.674 441.918 333.543C441.983 334.786 441.918 335.899 442.114 337.011C443.355 345.583 448.841 349.706 454.916 349.706C460.99 349.706 466.672 345.387 469.677 342.639C470.003 342.377 470.395 342.115 470.853 341.788C470.983 342.246 471.114 342.508 471.179 342.769C473.792 350.622 480.127 349.902 482.217 349.64C484.895 349.378 490.382 346.826 493.452 343.358C494.039 343.751 494.562 344.078 495.019 344.471C499.526 347.743 504.294 349.706 509.323 349.706C510.499 349.706 516.9 350.295 523.954 345.191C524.737 344.602 525.587 344.274 526.566 343.947C529.179 343.162 531.857 342.377 534.469 341.526C538.127 340.348 541.262 338.254 544.528 336.095C544.985 340.087 545.508 341.919 546.357 343.816C547.99 347.612 550.08 349.575 554.456 349.706C557.264 349.706 564.122 349.836 576.206 341.068C582.672 349.902 591.032 349.706 592.404 349.706C594.298 349.706 604.291 351.08 619.64 337.993C620.293 337.469 620.946 336.946 621.534 336.291C622.122 335.637 622.187 334.59 621.534 333.805ZM311.68 277.268C317.362 277.53 319.648 282.045 317.885 287.018C316.774 290.159 314.227 291.664 311.157 292.122C309.59 292.384 308.087 292.122 306.455 291.86C302.928 291.206 301.099 287.738 301.621 284.335C302.274 280.213 305.214 277.595 309.394 277.334C310.112 277.203 311.092 277.203 311.68 277.268ZM352.24 266.144C353.873 264.508 355.441 265.097 355.18 267.715C354.918 269.939 354.396 272.622 353.612 274.52C350.085 283.157 344.664 288.196 340.549 291.337C344.729 273.277 350.477 268.042 352.24 266.144ZM372.161 321.503C372.815 318.231 373.925 315.156 375.819 312.342C377.387 310.052 379.542 308.481 382.351 307.958C382.677 307.892 383.004 307.892 383.33 307.892C385.29 307.892 386.661 309.135 386.923 311.229C387.053 312.08 386.923 313.062 386.727 313.847C385.159 319.343 379.607 323.531 373.99 323.597H373.794C372.096 323.597 371.835 323.204 372.161 321.503ZM468.175 324.905C467.587 327.654 466.999 330.402 465.823 333.019C464.844 335.113 463.341 336.684 461.317 337.731C460.663 338.058 459.88 338.254 459.161 338.32H458.508C456.549 338.32 455.765 337.404 455.308 335.244C454.785 332.692 455.112 330.14 455.765 327.654C457.071 322.55 459.226 317.773 462.557 313.585C464.125 311.622 465.954 309.986 468.305 308.939C469.089 308.612 469.938 308.219 470.918 308.219C471.244 308.219 471.571 308.285 471.963 308.35C470.591 314.043 469.35 319.474 468.175 324.905ZM506.776 298.731C509.127 290.944 511.674 283.223 514.875 275.763C520.1 263.527 521.864 262.872 523.105 263.658C524.019 264.247 523.888 266.733 522.778 270.397C521.406 274.978 519.447 279.1 517.292 283.288C514.483 288.785 511.348 294.02 507.821 299.058C507.494 299.516 507.168 299.909 506.841 300.367C506.71 300.302 506.58 300.302 506.449 300.236C506.515 299.778 506.58 299.255 506.776 298.731ZM521.276 330.991C519.251 337.273 514.81 339.956 508.474 340.217C504.947 340.348 502.269 338.909 502.334 336.946C502.4 335.964 502.53 335.048 502.726 334.066C503.902 328.766 505.143 323.466 507.233 318.427C507.951 316.661 508.866 315.09 510.303 313.847C512.197 312.276 514.352 311.426 516.638 311.426C517.422 311.426 518.206 311.491 519.055 311.687C521.145 312.145 522.647 313.454 523.039 315.679C523.235 316.726 523.431 317.838 523.366 318.951C523.17 323.073 522.517 327.065 521.276 330.991ZM555.435 305.929C557.264 295.917 560.465 286.298 564.971 277.203C566.8 273.538 568.825 270.07 571.503 266.929C572.287 266.013 573.071 265.163 573.985 264.508C574.377 264.247 574.769 264.05 575.161 264.05C575.879 264.05 576.402 264.639 576.467 265.686C576.532 266.537 576.402 267.453 576.206 268.369C575.291 272.949 573.658 277.268 571.83 281.522C569.021 288.196 565.69 294.674 561.836 300.76C559.942 303.77 557.787 306.649 555.762 309.593C555.566 309.528 555.37 309.528 555.174 309.463C555.305 308.219 555.24 307.107 555.435 305.929ZM585.611 322.353C586.134 318.493 587.505 314.632 589.987 311.557C594.494 305.798 600.111 307.63 600.438 311.491C600.503 312.276 600.372 313.389 600.176 314.174C598.674 319.474 593.384 323.531 587.832 323.989C586.264 323.989 585.48 323.597 585.611 322.353Z" fill="#484848"/>
<defs>
<linearGradient id="paint0_linear" x1="238.267" y1="343.218" x2="205.73" y2="284.404" gradientUnits="userSpaceOnUse">
<stop stop-color="#F1BD0F"/>
<stop offset="1" stop-color="#F3A211"/>
</linearGradient>
<linearGradient id="paint1_linear" x1="185.099" y1="321.575" x2="241.597" y2="321.575" gradientUnits="userSpaceOnUse">
<stop stop-color="#D75F09"/>
<stop offset="1" stop-color="#E07118"/>
</linearGradient>
<linearGradient id="paint2_linear" x1="192.219" y1="332.405" x2="224.354" y2="332.405" gradientUnits="userSpaceOnUse">
<stop stop-color="#CB3F30"/>
<stop offset="1" stop-color="#D54334"/>
</linearGradient>
</defs>
</svg>
