<svg width="800" height="600" viewBox="0 0 800 600" fill="none" xmlns="http://www.w3.org/2000/svg">
<path fill-rule="evenodd" clip-rule="evenodd" d="M360.84 304.863L380.536 263.865H400.742L403.255 304.816L403.758 304.858L422.31 262.704H440.425C440.425 262.704 420.101 307.581 409.958 329.977H388.896C387.632 315.334 386.374 300.761 385.116 286.188C384.958 286.16 384.798 286.132 384.64 286.104C383.265 289.098 381.868 292.085 380.516 295.09C375.567 306.09 370.611 317.085 365.721 328.112C365.105 329.501 364.419 330.162 362.787 330.13C357.175 330.023 351.56 330.092 345.945 330.083C345.37 330.082 344.794 330.001 344.003 329.942C342.72 307.596 341.441 285.312 340.15 262.819H359.494L360.337 304.692L360.84 304.863ZM444.881 262.754H465.28L471.507 302.852L491.458 262.575C491.458 262.575 503.472 262.619 508.33 262.619H510.652C508.999 265.685 507.549 268.396 506.079 271.097C495.039 291.401 484.013 311.712 472.941 331.998C470.205 337.011 467.108 341.781 463.034 345.855C456.544 352.346 448.599 354.701 439.669 354.059C436.45 353.827 433.263 353.138 429.757 352.612C432.848 346.637 435.429 341.482 436.729 338.788C455.793 341.92 456.402 324.694 455.485 320.214C451.634 301.42 448.366 282.507 444.886 263.637C444.842 263.396 444.881 263.139 444.881 262.754ZM580.838 301.921C579.646 308.387 583.453 314.051 590.006 315.975C595.339 317.54 600.625 316.843 605.9 315.749C608.092 315.295 610.243 314.641 612.596 314.03C612.596 314.809 612.695 315.467 612.579 316.085C611.286 322.967 610.137 328.573 610.137 328.573C610.137 328.573 608.136 329.29 607.414 329.466C601.01 331.032 595.484 331.419 588.917 330.806C584.298 330.375 579.817 329.411 575.644 327.351C567.115 323.137 562.466 316.022 561.509 306.741C560.237 294.405 563.17 283.029 570.986 273.244C578.516 263.815 588.702 260.491 600.409 261.248C605.395 261.571 610.055 262.988 614.288 265.849C624.228 272.565 625.279 289.932 613.193 297.168C608.73 299.839 603.861 301.215 598.753 301.851C593.245 302.538 587.73 302.612 582.214 301.927C581.806 301.877 581.386 301.921 580.838 301.921ZM582.403 289.179C587.721 290.097 592.774 290.152 597.658 288.315C599.244 287.718 600.838 286.689 601.979 285.444C605.343 281.778 603.785 276.532 599.055 275.04C594.818 273.704 589.988 275.331 587.004 279.144C584.755 282.019 583.302 285.276 582.403 289.179ZM527.546 329.987H507.241C511.707 307.531 516.144 285.218 520.605 262.779H534.846C535.314 266.647 535.792 270.591 536.337 275.093C538.416 270.031 540.891 265.867 545.707 263.797C550.429 261.767 557.73 261.875 565.174 264.167C562.241 269.863 560.007 274.929 556.834 281.095C553.969 280.526 551.393 279.799 548.771 279.538C542.881 278.95 538.827 281.308 536.816 286.91C535.412 290.821 534.598 294.966 533.749 299.054C531.623 309.295 529.627 319.564 527.546 329.987Z" fill="#061028"/>
<path fill-rule="evenodd" clip-rule="evenodd" d="M253.871 300.246H299.829L274.977 361.212C271.436 369.875 263.015 375.533 253.665 375.533H207.707L232.558 314.76C236.101 306.098 244.522 300.246 253.871 300.246Z" fill="#A9CAFF"/>
<path fill-rule="evenodd" clip-rule="evenodd" d="M221.202 342.092H246.726C256.075 342.092 259.054 341.722 266.846 334.912L299.767 299.82H253.872C244.522 299.82 236.1 305.664 232.559 314.327L221.202 342.092Z" fill="#0408E0"/>
<path fill-rule="evenodd" clip-rule="evenodd" d="M238.518 263.043H284.475L259.624 323.66C256.082 332.322 247.661 337.487 238.312 337.487H192.354L217.205 277.207C220.747 268.545 229.169 263.043 238.518 263.043Z" fill="#0384FF"/>
<path fill-rule="evenodd" clip-rule="evenodd" d="M205.606 305.104H231.409C240.758 305.104 243.738 303.85 251.529 297.04L284.366 262.832H238.518C229.169 262.832 220.747 268.32 217.205 276.981L205.606 305.104Z" fill="#0408E0"/>
<path fill-rule="evenodd" clip-rule="evenodd" d="M223.164 225H269.121L244.27 286.116C240.729 294.779 232.307 300.251 222.958 300.251H177L201.851 239.664C205.394 231.002 213.815 225 223.164 225Z" fill="#004EFF"/>
</svg>
