<svg width="800" height="600" viewBox="0 0 800 600" fill="none" xmlns="http://www.w3.org/2000/svg">
<path d="M87 332.65L90.7442 328.882C91.6574 327.963 92.114 326.922 92.114 325.758V266.297H93.0273L137.777 306.918V277.05C137.777 275.886 137.32 274.844 136.407 273.925L132.662 270.158V269.239H156.316V270.158L152.572 273.925C151.658 274.844 151.202 275.886 151.202 277.05V336.051H150.289L105.539 295.338V325.758C105.539 326.922 105.995 327.963 106.909 328.882L110.653 332.65V333.569H87V332.65ZM162.887 332.65L166.632 328.882C167.545 327.963 168.001 326.922 168.001 325.758V277.05C168.001 275.886 167.545 274.844 166.632 273.925L162.887 270.158V269.239H200.604C207.18 269.239 212.218 270.74 215.718 273.742C219.22 276.744 220.97 280.726 220.97 285.689C220.97 293.164 217.135 297.85 209.463 299.75V299.934C218.9 301.588 223.618 306.826 223.618 315.649C223.618 321.53 221.563 325.988 217.454 329.02C213.344 332.053 207.606 333.569 200.239 333.569H162.887V332.65ZM198.778 294.695C203.953 294.695 206.541 292.428 206.541 287.894C206.541 285.75 205.886 284.034 204.577 282.748C203.268 281.461 201.335 280.818 198.778 280.818H182.613V294.695H198.778ZM198.504 321.806C205.384 321.806 208.824 319.079 208.824 313.627C208.824 308.481 205.384 305.907 198.504 305.907H182.614V321.806H198.504ZM241.15 325.803C234.818 319.768 231.652 311.697 231.652 301.588C231.652 291.417 234.849 283.299 241.242 277.234C247.635 271.169 255.732 268.135 265.534 268.135C267.726 268.135 270.405 268.335 273.571 268.733C276.737 269.131 278.715 269.33 279.507 269.33C281.82 269.33 283.951 268.564 285.9 267.033L286.813 267.4L281.334 289.181L280.329 288.905C279.66 286.577 278.153 284.555 275.809 282.84C273.465 281.125 270.344 280.267 266.448 280.267C260.908 280.267 256.326 282.212 252.704 286.103C249.082 289.993 247.27 295.186 247.27 301.68C247.27 307.991 248.974 313.091 252.384 316.982C255.793 320.873 260.268 322.818 265.809 322.818C272.263 322.818 277.346 320.275 281.06 315.19L289.645 325.207C283.678 331.64 275.551 334.857 265.261 334.857C255.519 334.856 247.482 331.839 241.15 325.803ZM307.54 328.055C302.548 323.521 300.051 316.935 300.051 308.296V277.05C300.051 275.886 299.595 274.844 298.682 273.925L294.937 270.158V269.239H319.595V270.158L315.851 273.925C314.937 274.844 314.481 275.886 314.481 277.05V308.664C314.481 313.32 315.607 316.813 317.86 319.14C320.113 321.469 323.339 322.633 327.54 322.633C331.68 322.633 334.861 321.454 337.084 319.095C339.306 316.736 340.417 313.259 340.417 308.664V277.05C340.417 275.886 339.961 274.844 339.047 273.925L335.303 270.158V269.239H360.143V270.158L356.399 273.925C355.486 274.844 355.029 275.886 355.029 277.05V308.296C355.029 316.935 352.518 323.521 347.495 328.055C342.472 332.589 335.82 334.856 327.54 334.856C319.199 334.856 312.533 332.589 307.54 328.055ZM366.807 332.65L370.551 328.882C371.464 327.963 371.921 326.554 371.921 324.655V298.371C371.921 296.472 371.464 295.063 370.551 294.144L366.807 290.376V289.457H385.254V297.36C386.289 294.848 388.192 292.765 390.962 291.111C393.733 289.457 396.731 288.63 399.958 288.63C404.707 288.63 408.39 290.161 411.008 293.225C413.626 296.288 414.935 300.577 414.935 306.091V324.655C414.935 326.554 415.392 327.964 416.305 328.883L420.05 332.651V333.57H401.236V309.124C401.236 306.489 400.628 304.391 399.41 302.828C398.193 301.266 396.396 300.485 394.022 300.485C391.221 300.485 389.121 301.358 387.72 303.104C386.32 304.85 385.62 307.102 385.62 309.859V324.655C385.62 326.554 386.076 327.963 386.99 328.882L390.734 332.65V333.569H366.806V332.65H366.807ZM424.157 332.65L427.901 328.882C428.815 327.963 429.271 326.554 429.271 324.655V298.371C429.271 296.472 428.815 295.063 427.901 294.144L424.157 290.376V289.457H442.97V324.655C442.97 326.554 443.426 327.964 444.339 328.883L448.084 332.651V333.57H424.157V332.65ZM430.321 280.634C428.708 279.103 427.901 277.203 427.901 274.936C427.901 272.67 428.708 270.77 430.321 269.239C431.934 267.707 433.837 266.941 436.029 266.941C438.221 266.941 440.123 267.707 441.737 269.239C443.35 270.77 444.157 272.67 444.157 274.936C444.157 277.203 443.351 279.103 441.737 280.634C440.123 282.166 438.221 282.932 436.029 282.932C433.837 282.932 431.935 282.166 430.321 280.634ZM455.936 299.29C453.866 295.246 451.553 292.306 448.996 290.467V289.456H465.799L474.841 310.778H475.024L482.969 289.456H500.046V290.467C497.429 292.305 495.115 295.246 493.105 299.29L475.024 335.591H474.11L455.936 299.29ZM507.899 328.745C503.576 324.67 501.414 319.172 501.414 312.248C501.414 305.264 503.546 299.581 507.807 295.201C512.069 290.82 517.853 288.63 525.159 288.63C532.221 288.63 537.518 290.698 541.049 294.833C544.581 298.969 546.347 304.529 546.347 311.513C546.347 312.923 546.285 314.24 546.164 315.465H515.479C515.783 317.793 516.909 319.754 518.858 321.346C520.805 322.94 523.393 323.736 526.62 323.736C530.7 323.736 533.835 322.511 536.027 320.06L543.607 329.066C539.467 332.926 533.409 334.856 525.433 334.856C518.066 334.856 512.221 332.819 507.899 328.745ZM517.944 301.404C516.362 303.058 515.479 305.08 515.296 307.469H532.465C532.342 304.957 531.582 302.905 530.181 301.312C528.781 299.719 526.802 298.923 524.245 298.923C521.627 298.922 519.527 299.75 517.944 301.404ZM552.644 332.65L556.389 328.882C557.303 327.963 557.759 326.554 557.759 324.655V298.371C557.759 296.472 557.303 295.063 556.389 294.144L552.644 290.376V289.457H571.093V298.371C572.127 295.552 573.832 293.225 576.206 291.387C578.581 289.549 581.321 288.63 584.425 288.63C586.678 288.63 588.596 289.058 590.179 289.916L586.617 303.702C584.669 301.986 582.476 301.128 580.042 301.128C577.363 301.128 575.262 302.017 573.74 303.793C572.218 305.571 571.457 308.082 571.457 311.33V324.655C571.457 326.554 571.913 327.963 572.826 328.882L576.571 332.65V333.569H552.643V332.65H552.644ZM591.639 328.882L598.032 319.509C602.111 322.878 607.012 324.563 612.735 324.563C616.631 324.563 618.58 323.337 618.58 320.887C618.58 319.723 618.077 318.834 617.072 318.222C616.068 317.609 614.744 317.18 613.1 316.935C611.456 316.69 609.599 316.383 607.529 316.016C598.579 314.484 594.104 310.165 594.104 303.058C594.104 297.973 595.885 294.297 599.447 292.029C603.008 289.762 607.529 288.629 613.009 288.629C615.139 288.629 617.377 288.828 619.721 289.226C622.065 289.625 623.633 289.824 624.424 289.824C626.433 289.824 628.442 289.058 630.451 287.526L631.365 287.894L627.072 304.712L626.16 304.436C624.333 300.515 620.223 298.555 613.831 298.555C609.995 298.555 608.077 299.688 608.077 301.955C608.077 302.996 608.549 303.824 609.492 304.436C610.436 305.049 611.7 305.463 613.282 305.677C614.866 305.892 616.662 306.182 618.671 306.55C622.629 307.224 625.931 308.572 628.58 310.594C631.228 312.616 632.552 315.556 632.552 319.416C632.552 324.318 630.71 328.116 627.027 330.812C623.344 333.508 618.275 334.856 611.821 334.856C603.176 334.856 596.448 332.865 591.639 328.882ZM641.956 331.318C639.277 328.959 637.938 325.85 637.938 321.99C637.938 317.15 639.688 313.535 643.189 311.146C646.69 308.756 652.154 307.501 659.582 307.377C661.895 307.316 663.478 307.026 664.33 306.505C665.183 305.984 665.609 305.08 665.609 303.793C665.609 302.507 664.954 301.434 663.646 300.577C662.337 299.719 660.343 299.29 657.664 299.29C653.584 299.29 649.871 300.822 646.523 303.886L639.399 295.431C643.905 290.897 650.449 288.63 659.034 288.63C665.975 288.63 671.074 290.039 674.331 292.858C677.588 295.676 679.217 299.964 679.217 305.724V324.656C679.217 326.555 679.673 327.964 680.587 328.883L684.331 332.651V333.57H665.883V327.597C664.788 329.741 663.021 331.487 660.587 332.835C658.151 334.183 655.32 334.857 652.093 334.857C648.015 334.856 644.635 333.676 641.956 331.318ZM663.235 322.679C664.818 321.056 665.609 319.111 665.609 316.843V313.81C664.818 314.116 662.9 314.362 659.857 314.546C654.377 314.852 651.638 316.752 651.638 320.244C651.638 321.653 652.094 322.817 653.007 323.736C653.92 324.655 655.29 325.114 657.117 325.114C659.613 325.115 661.652 324.303 663.235 322.679ZM688.073 332.65L691.817 328.882C692.731 327.963 693.187 326.554 693.187 324.655V272.915C693.187 271.015 692.731 269.606 691.817 268.687L688.073 264.919V264H706.885V324.655C706.885 326.554 707.343 327.963 708.255 328.882L712 332.65V333.569H688.073V332.65Z" fill="#400095"/>
</svg>
