<svg width="800" height="600" viewBox="0 0 800 600" fill="none" xmlns="http://www.w3.org/2000/svg">
<path fill-rule="evenodd" clip-rule="evenodd" d="M298.612 308.835C293.691 342.269 262.648 365.379 229.24 360.454C195.832 355.529 172.74 324.463 177.661 291.029C182.582 257.595 213.624 234.485 247.033 239.41C280.441 244.335 303.533 275.496 298.612 308.835Z" fill="#42C1CA"/>
<path fill-rule="evenodd" clip-rule="evenodd" d="M265.488 263.224C253.09 255.363 244.288 272.601 244.099 273.169C241.922 277.432 240.124 284.061 238.988 288.987L222.899 286.619L222.237 290.976L238.136 293.343C237.663 295.617 237.474 297.037 237.474 297.037L236.622 301.773V302.057L220.817 299.689L220.249 304.141L235.865 306.414C231.796 327.062 228.767 333.313 225.644 336.722C224.981 337.48 220.628 340.416 218.451 335.112C216.937 331.418 214.003 331.987 214.003 331.987C213.151 331.892 209.366 334.354 215.328 338.143C227.726 346.004 236.528 328.766 236.717 328.198C238.894 323.936 241.827 312.286 242.963 307.361L259.241 309.824L259.904 305.467L243.91 303.194C244.383 300.921 244.572 299.5 244.572 299.5L245.329 294.669L245.424 294.385L261.229 296.753L261.797 292.396L246.181 290.123C250.251 269.476 252.143 268.244 255.266 264.835C255.929 264.077 260.282 261.141 262.459 266.445C263.973 270.139 266.907 269.57 266.907 269.57C267.664 269.57 271.545 267.108 265.488 263.224Z" fill="white"/>
<path d="M365.428 293.438H338.077V271.086H366.28L366.943 264.267H330.222V330.661H338.077V299.879H365.428V293.438ZM383.694 264.267H376.218V272.98H383.694V264.267ZM383.694 281.883H376.218V330.661H383.694V281.883ZM403.569 263.604L396.092 264.456V309.824C396.092 326.02 396.376 331.513 408.395 331.513C409.153 331.513 410.856 331.419 413.411 330.945L412.938 325.167C410.667 325.357 410.004 325.452 408.963 325.452C403.853 325.452 403.569 322.137 403.569 311.529V263.604ZM439.911 331.797C425.999 331.797 417.576 321.852 417.576 306.225C417.576 291.639 426.283 281.126 439.059 280.747C451.173 280.747 458.65 289.934 458.65 304.33C458.65 305.088 458.555 306.888 458.555 307.74H425.242C425.242 318.727 431.677 325.452 440.195 325.452C447.104 325.452 452.214 322.894 455.621 320.526L457.893 326.02C453.918 329.43 447.671 331.797 439.911 331.797ZM425.431 302.436H451.457C451.457 292.112 446.252 286.808 438.964 286.808C431.582 286.808 426.283 292.965 425.431 302.436ZM502.185 327.251C498.967 330.282 493.856 331.703 489.029 331.703C473.887 331.703 465.559 319.769 465.559 306.225C465.653 292.775 474.36 280.652 488.935 280.652C494.613 280.652 499.44 282.262 502.185 284.914L500.292 290.218C496.601 287.756 492.531 286.808 488.84 286.808C479.944 286.808 473.13 295.048 473.13 306.319C473.13 317.496 479.66 325.546 489.408 325.546C493.762 325.546 497.642 323.841 500.386 321.947L502.185 327.251ZM545.53 306.414C545.53 296.09 541.744 286.998 530.766 286.998C520.356 286.998 515.529 296.659 515.529 306.509C515.529 316.359 520.356 325.736 530.955 325.736C541.461 325.641 545.53 316.264 545.53 306.414ZM553.291 306.319C553.291 319.769 545.341 331.797 530.766 331.797C516.002 331.797 507.863 320.432 507.863 306.414C507.863 292.491 516.191 280.747 530.955 280.747C545.814 280.747 553.291 292.302 553.291 306.319ZM571.178 264.267H563.701V272.98H571.178V264.267ZM571.178 281.883H563.701V330.661H571.178V281.883ZM606.574 280.747C599.854 280.747 593.04 283.967 589.254 289.082L588.592 281.883H582.156L582.345 293.722V330.661H589.822V297.416C590.958 293.059 596.825 287.187 604.965 287.187C613.955 287.187 614.523 293.628 614.523 306.319V330.661H622V301.489C622 287.85 617.363 280.747 606.574 280.747Z" fill="#222222"/>
</svg>
