<svg width="800" height="600" viewBox="0 0 800 600" fill="none" xmlns="http://www.w3.org/2000/svg">
<path d="M186.237 249.152H502.61C507.228 249.152 510.692 254.012 509.076 258.408L480.21 343.099C478.593 347.727 474.206 350.967 469.356 350.967H186.237C181.157 350.967 177 346.802 177 341.711V258.408C177 253.317 181.157 249.152 186.237 249.152ZM243.277 327.364V272.292H234.963V295.895H212.563V272.292H204.25V327.364H212.563V303.299H234.963V327.364H243.277ZM296.39 308.853H296.621V272.292H288.308V308.39C288.308 312.092 287.153 315.1 285.075 317.183C282.996 319.266 280.225 320.423 276.761 320.423C273.297 320.423 270.526 319.266 268.448 317.183C266.369 314.869 265.446 312.092 265.446 308.39V272.292H257.132V308.853C257.132 314.406 258.98 319.034 262.675 322.505C266.369 325.976 270.988 327.827 276.761 327.827C282.304 327.827 287.153 325.976 290.848 322.505C294.543 319.034 296.39 314.406 296.39 308.853ZM358.279 327.364V272.292H349.966L334.263 306.539L318.098 272.292H309.784V327.364H318.098V290.572L331.03 317.414H337.265L349.966 290.572V327.364H358.279ZM404.234 327.364H413.24L393.149 272.292H386.452L366.362 327.364H375.137L378.832 316.257H400.539L404.234 327.364ZM462.197 327.364V272.292H453.884V310.935L428.482 272.292H420.861V327.364H429.174V288.721L454.577 327.364H462.197ZM381.141 309.316L389.686 284.787L397.999 309.316H381.141ZM556.647 327.827H547.641L543.946 316.72H522.008L518.313 327.827H509.307L529.628 272.292H536.325L556.647 327.827ZM541.637 309.547L533.323 284.787L524.779 309.547H541.637ZM603.295 289.184C603.295 292.424 602.602 295.2 601.216 297.746C599.831 300.291 597.752 302.374 594.981 303.762C592.21 305.15 589.208 305.845 585.744 305.845H573.274V327.596H564.73V272.061H585.744C588.284 272.061 590.825 272.523 593.134 273.449C595.443 274.375 597.291 275.532 598.907 276.92C600.524 278.54 601.678 280.16 602.371 282.242C602.833 284.325 603.295 286.639 603.295 289.184ZM594.75 289.184C594.75 286.407 593.827 284.093 591.979 282.473C590.132 280.854 587.823 279.928 584.82 279.928H572.581V298.44H584.82C587.823 298.44 590.132 297.514 591.979 295.895C594.058 294.275 594.75 291.961 594.75 289.184ZM622 327.827H613.456V272.292H622V327.827Z" fill="#45494E"/>
</svg>
