<svg width="800" height="600" viewBox="0 0 800 600" fill="none" xmlns="http://www.w3.org/2000/svg">
<path d="M454.618 323.925L473.376 345.611C473.906 346.24 474.027 347.118 473.686 347.867C473.352 348.616 472.612 349.101 471.792 349.109H464.341C462.988 349.107 461.704 348.509 460.833 347.473L441.393 324.504L436.58 318.709C435.96 317.95 435.827 316.903 436.239 316.013C436.642 315.126 437.521 314.551 438.495 314.538H446.474C456.072 314.538 462.592 311.434 462.592 303.004C462.592 294.58 456.072 291.476 446.474 291.476H417.895C416.214 291.476 415.598 291.647 414.987 291.978C414.376 292.304 413.878 292.807 413.559 293.421C413.238 294.032 413.062 294.643 413.062 296.293V345.854C413.062 346.992 412.943 347.406 412.726 347.82C412.511 348.227 412.18 348.56 411.774 348.777C411.36 349 410.957 349.114 409.834 349.114H404.778C403.655 349.114 403.247 349 402.838 348.777C402.432 348.56 402.101 348.227 401.886 347.82C401.668 347.406 401.549 346.992 401.549 345.854V299.77C401.549 293.344 402.212 291.02 403.454 288.666C404.675 286.343 406.558 284.444 408.861 283.217C411.184 281.96 413.492 281.293 419.857 281.293H447.24C462.877 281.293 474.395 288.847 474.395 302.901C474.395 314.626 466.323 321.793 454.618 323.925ZM319.048 340.172C319.271 340.56 319.4 340.974 319.385 342.118V345.864C319.385 347.003 319.271 347.417 319.048 347.83C318.837 348.238 318.507 348.572 318.101 348.788C317.687 349.01 317.284 349.124 316.156 349.124H276.659C270.295 349.124 267.987 348.457 265.664 347.204C263.362 345.969 261.483 344.071 260.272 341.756C259.025 339.407 258.358 337.078 258.358 330.651V284.563C258.358 283.43 258.482 283.021 258.699 282.607C258.915 282.199 259.246 281.865 259.651 281.644C260.065 281.422 260.469 281.303 261.592 281.303H266.662C267.78 281.303 268.184 281.422 268.598 281.644C269.004 281.863 269.336 282.198 269.55 282.607C269.767 283.021 269.886 283.43 269.886 284.563V333.994C269.886 335.691 270.057 336.307 270.383 336.928C270.702 337.542 271.2 338.046 271.811 338.372C272.422 338.698 273.037 338.868 274.724 338.868H316.156C317.284 338.868 317.687 338.993 318.101 339.21C318.506 339.429 318.836 339.764 319.048 340.172ZM242.389 282.596C242.607 283.01 242.726 283.424 242.726 284.552V288.319C242.726 289.453 242.607 289.867 242.389 290.281C242.174 290.687 241.843 291.021 241.437 291.238C241.023 291.465 240.62 291.579 239.497 291.579H193.362C191.68 291.579 191.069 291.745 190.454 292.076C189.843 292.4 189.345 292.901 189.025 293.515C188.705 294.135 188.529 294.756 188.529 296.454V308.262C188.529 309.395 188.642 309.804 188.865 310.218C189.071 310.626 189.396 310.964 189.796 311.185C190.21 311.403 190.624 311.527 191.742 311.527H223.477C224.6 311.527 225.003 311.646 225.417 311.863C225.823 312.082 226.155 312.417 226.369 312.825C226.587 313.239 226.706 313.653 226.706 314.787V318.631C226.706 319.77 226.587 320.178 226.369 320.592C226.154 320.999 225.823 321.333 225.417 321.55C225.003 321.777 224.6 321.891 223.477 321.891H191.747C190.629 321.891 190.215 322.01 189.807 322.227C189.4 322.447 189.068 322.784 188.855 323.195C188.632 323.609 188.518 324.018 188.518 325.151V345.854C188.518 346.992 188.404 347.406 188.187 347.82C187.971 348.228 187.637 348.561 187.23 348.777C186.816 349 186.412 349.114 185.295 349.114H180.229C179.106 349.114 178.702 349 178.288 348.777C177.882 348.562 177.55 348.228 177.336 347.82C177.119 347.406 177 346.992 177 345.854V299.77C177 293.344 177.662 291.02 178.909 288.666C180.119 286.35 181.998 284.451 184.301 283.217C186.63 281.96 188.937 281.293 195.297 281.293H239.497C240.62 281.293 241.023 281.412 241.437 281.634C241.842 281.854 242.173 282.189 242.389 282.596ZM384.551 281.293C385.357 281.287 386.095 281.744 386.45 282.467C386.813 283.192 386.725 284.061 386.243 284.702L356.651 324.483C356.069 325.265 355.755 326.215 355.756 327.19V345.854C355.756 346.992 355.637 347.406 355.419 347.82C355.205 348.227 354.873 348.56 354.467 348.777C354.053 349 353.65 349.114 352.527 349.114H347.456C346.338 349.114 345.935 349 345.521 348.777C345.114 348.562 344.782 348.228 344.569 347.82C344.351 347.406 344.232 346.992 344.232 345.854V327.185C344.232 326.204 343.916 325.25 343.332 324.463L313.667 284.687C313.189 284.043 313.111 283.186 313.465 282.467C313.816 281.752 314.542 281.297 315.338 281.293H322.169C323.624 281.296 324.991 281.986 325.858 283.155L348.294 313.27C348.715 313.839 349.38 314.174 350.087 314.174C350.794 314.174 351.46 313.839 351.88 313.27L374.13 283.171C374.995 281.993 376.368 281.296 377.83 281.293H384.557H384.551Z" fill="#141414"/>
<path fill-rule="evenodd" clip-rule="evenodd" d="M621.08 187.056C620.326 185.561 619.144 184.323 617.685 183.501C616.123 182.678 614.022 182.295 611.021 182.425C607.714 182.564 601.334 183.014 598.085 183.263C585.231 184.261 576.383 189.871 566.598 198.972C542.889 221.005 498.606 262.421 487.673 272.811C488.169 272.434 488.656 272.439 489.106 272.361C489.758 272.247 490.369 272.144 491.005 272.004C493.385 271.487 495.357 270.969 498.446 270.328C502.642 269.448 507.31 268.424 512.65 267.383C528.08 264.377 540.654 262.297 551.991 261.619C591.679 259.249 600.506 272.796 600.506 272.796C600.506 272.796 614.777 220.079 621.442 195.293C622.327 192.008 622.125 189.006 621.08 187.056Z" fill="#3ABDFF"/>
<path fill-rule="evenodd" clip-rule="evenodd" d="M583.037 229.072C562.857 229.072 522.973 252.833 487.673 272.816H487.724C525.125 257.992 550.521 246.944 571.824 247.048C593.221 247.151 598.757 257.35 600.501 272.832C600.501 272.832 600.905 266.483 600.905 257.469C600.905 246.913 601.163 229.072 583.032 229.072H583.037Z" fill="#4361F7"/>
<path fill-rule="evenodd" clip-rule="evenodd" d="M571.824 247.027C550.527 246.924 525.099 257.981 487.673 272.816C487.787 272.791 534.305 261.371 559.959 261.371C592.962 261.371 600.449 272.723 600.501 272.816C598.763 257.329 593.221 247.131 571.824 247.027Z" fill="#4739E6"/>
<path fill-rule="evenodd" clip-rule="evenodd" d="M600.506 272.816C600.506 272.816 607.828 233.568 607.828 222.449C607.828 218.216 607.196 213.828 604.666 211.277C602.131 208.726 598.974 207.784 595.481 207.784C584.393 207.784 569.946 210.076 487.698 272.832C522.993 252.859 562.883 229.092 583.047 229.092C601.178 229.092 600.92 246.929 600.92 257.469C600.909 266.462 600.506 272.816 600.506 272.816Z" fill="#3195F7"/>
</svg>
