<svg width="800" height="600" viewBox="0 0 800 600" fill="none" xmlns="http://www.w3.org/2000/svg">
<path d="M380.25 339.781H364.521V333.267C360.776 337.709 353.735 341.41 345.496 341.41C329.617 341.41 320.629 330.899 320.629 315.651V270.499H336.358V312.986C336.358 321.572 340.553 327.198 349.691 327.198C356.432 327.198 364.371 321.572 364.371 313.134V270.499H380.101V339.781H380.25ZM396.878 270.499H412.608V277.013C416.353 272.572 423.393 268.871 431.633 268.871C447.512 268.871 456.5 279.381 456.5 294.629V339.781H440.77V297.294C440.77 288.708 436.576 283.082 427.438 283.082C420.697 283.082 412.757 288.708 412.757 297.146V339.781H396.878V270.499ZM304.151 270.499V325.273C304.151 336.968 301.604 345.259 295.313 350.292C288.871 355.473 278.385 357.102 267 356.51V342.298C281.83 343.186 287.523 339.485 287.523 324.681V270.499H304.151ZM295.762 262.357C300.891 262.357 305.05 258.248 305.05 253.178C305.05 248.109 300.891 244 295.762 244C290.633 244 286.474 248.109 286.474 253.178C286.474 258.248 290.633 262.357 295.762 262.357ZM531.401 318.316C529.004 332.083 518.817 341.41 501.89 341.41C482.266 341.41 468.783 326.754 468.783 305.288C468.783 284.563 482.565 268.871 501.59 268.871C521.364 268.871 532 282.786 532 303.068V308.693H484.213C484.663 320.832 491.853 328.234 501.89 328.234C509.53 328.234 515.222 324.977 516.87 318.316H531.401ZM484.663 297.294H516.421C516.271 288.856 511.327 282.046 501.74 282.046C493.051 282.046 486.61 287.375 484.663 297.294Z" fill="#222222"/>
</svg>
