<svg width="800" height="600" viewBox="0 0 800 600" fill="none" xmlns="http://www.w3.org/2000/svg">
<path d="M312.869 352.164C306.168 352.164 299.467 349.574 294.828 344.911C288.127 338.176 288.127 330.923 288.127 319.008C288.127 307.092 288.127 299.321 294.828 292.586C299.467 287.923 306.168 285.333 312.869 285.333C325.756 284.815 336.581 294.14 337.612 306.574H324.21C323.179 300.875 318.54 296.731 312.869 296.731C309.776 296.731 306.684 297.767 304.622 300.357C302.044 303.466 301.013 305.538 301.013 319.008C301.013 332.478 302.044 334.032 304.622 336.622C306.684 339.213 309.776 340.249 312.869 340.249C318.54 340.249 323.694 336.104 324.21 330.405H337.612C336.066 342.839 325.241 352.682 312.869 352.164Z" fill="#435363"/>
<path d="M524.729 347.502C521.636 350.61 516.997 352.165 512.873 352.165C508.234 352.683 503.595 350.61 500.502 346.984V351.647H488.646V286.369H501.017V306.056C504.11 302.43 508.234 300.875 512.873 300.875C517.513 300.875 521.636 302.43 524.729 305.538C529.884 310.719 529.884 319.008 529.884 326.261C529.884 333.514 529.368 342.321 524.729 347.502ZM509.265 312.273C502.048 312.273 501.017 318.49 501.017 326.779C501.017 335.068 501.533 340.767 508.749 340.767C515.966 340.767 516.997 334.55 516.997 326.261C516.997 317.972 515.966 312.273 509.265 312.273Z" fill="#435363"/>
<path d="M572.153 297.249V285.851H584.524V297.249H572.153ZM572.153 351.128V301.393H584.524V351.128H572.153Z" fill="#435363"/>
<path d="M611.844 351.128C604.628 351.646 597.926 345.948 597.411 338.695C597.411 338.177 597.411 337.658 597.411 337.14V311.237H592.256V301.911H597.411V285.851H609.782V301.911H618.545V311.237H609.782V336.622C609.782 339.213 611.329 341.285 613.906 341.285H618.545V351.646L611.844 351.128Z" fill="#435363"/>
<path d="M379.881 330.405H386.582C386.582 329.369 386.582 327.815 386.582 326.261C386.582 317.453 385.551 311.755 380.912 307.092C376.788 302.947 371.118 300.875 364.932 300.875C359.262 300.875 353.592 302.947 348.953 307.092C344.313 311.755 343.282 317.453 343.282 326.261C343.282 335.068 344.313 340.767 348.953 345.947C353.076 350.092 358.747 352.164 364.932 352.164C371.118 352.682 376.788 350.092 380.912 345.947C383.489 343.357 385.036 340.767 385.551 337.14H373.18C372.664 337.658 372.149 338.694 371.633 339.213C369.571 340.767 367.51 341.803 364.932 341.803C362.355 341.803 360.293 341.285 358.747 339.213C356.685 336.622 355.654 333.514 355.654 330.405H379.881ZM364.417 311.237C366.994 311.237 369.056 311.755 371.118 313.309C373.18 315.381 374.211 318.49 374.211 321.598H355.138C355.138 318.49 356.169 315.899 358.231 313.309C360.293 312.273 362.355 311.237 364.417 311.237Z" fill="#435363"/>
<path d="M474.213 330.405H480.398C480.398 329.369 480.398 327.815 480.398 326.261C480.398 317.453 479.367 311.755 474.728 307.092C470.604 302.947 464.934 300.875 458.749 300.875C453.078 300.875 447.408 302.947 442.769 307.092C438.13 311.755 437.099 317.453 437.099 326.261C437.099 335.068 438.13 340.767 442.769 345.947C446.893 350.092 452.563 352.164 458.749 352.164C464.419 352.682 470.604 350.092 474.728 345.947C477.306 343.357 478.852 340.767 479.367 337.14H466.996C466.481 337.658 465.965 338.694 465.45 339.213C463.388 340.767 461.326 341.803 458.749 341.803C456.171 341.803 454.109 341.285 452.563 339.213C450.501 336.622 449.47 333.514 449.47 330.405H474.213ZM458.749 311.237C461.326 311.237 463.388 311.755 465.45 313.309C467.512 315.381 468.543 318.49 468.543 321.598H449.47C449.47 318.49 450.501 315.899 452.563 313.309C454.109 312.273 456.687 311.237 458.749 311.237Z" fill="#435363"/>
<path d="M660.814 330.405H667C667 329.369 667 327.815 667 326.261C667 317.453 665.969 311.755 661.33 307.092C657.206 302.947 651.536 300.875 645.35 300.875C639.68 300.875 634.01 302.947 629.37 307.092C624.731 311.755 623.7 317.453 623.7 326.261C623.7 335.068 624.731 340.767 629.37 345.947C633.494 350.092 639.164 352.164 645.35 352.164C651.536 352.682 657.206 350.092 661.33 345.947C663.907 343.357 665.453 340.767 665.969 337.14H653.598C653.082 337.658 652.567 338.694 652.051 339.213C649.989 340.767 647.927 341.803 645.35 341.803C642.773 341.803 640.711 341.285 639.164 339.213C637.102 336.622 636.071 333.514 636.071 330.405H660.814ZM645.35 311.237C647.927 311.237 649.989 311.755 652.051 313.309C654.113 315.381 655.144 318.49 655.144 321.598H636.071C636.071 318.49 637.102 315.899 639.164 313.309C641.226 312.273 643.288 311.237 645.35 311.237Z" fill="#435363"/>
<path d="M406.686 286.369H394.314V351.647H406.686V286.369Z" fill="#435363"/>
<path d="M429.882 286.369H417.511V351.647H429.882V286.369Z" fill="#435363"/>
<path d="M565.452 300.357C561.843 300.357 558.75 301.393 555.658 303.466C553.596 305.538 552.049 307.61 550.503 310.201V301.393H537.616V351.128H551.018V326.779C551.018 324.189 551.534 321.08 552.565 318.49C554.627 314.863 559.266 312.791 563.39 313.309H565.452V300.357Z" fill="#435363"/>
<path d="M216.476 313.309C219.607 313.309 222.146 310.758 222.146 307.61C222.146 304.463 219.607 301.911 216.476 301.911C213.344 301.911 210.806 304.463 210.806 307.61C210.806 310.758 213.344 313.309 216.476 313.309Z" fill="#435363"/>
<path d="M179.362 352.683C184.771 352.683 189.156 348.276 189.156 342.839C189.156 337.403 184.771 332.996 179.362 332.996C173.953 332.996 169.568 337.403 169.568 342.839C169.568 348.276 173.953 352.683 179.362 352.683Z" fill="#435363"/>
<path d="M144.309 315.899C149.718 315.899 154.103 311.492 154.103 306.056C154.103 300.62 149.718 296.213 144.309 296.213C138.9 296.213 134.515 300.62 134.515 306.056C134.515 311.492 138.9 315.899 144.309 315.899Z" fill="#435363"/>
<path d="M178.846 276.008C182.262 276.008 185.032 273.224 185.032 269.791C185.032 266.357 182.262 263.574 178.846 263.574C175.43 263.574 172.66 266.357 172.66 269.791C172.66 273.224 175.43 276.008 178.846 276.008Z" fill="#435363"/>
<path d="M206.166 285.851C209.013 285.851 211.321 283.532 211.321 280.67C211.321 277.809 209.013 275.49 206.166 275.49C203.319 275.49 201.012 277.809 201.012 280.67C201.012 283.532 203.319 285.851 206.166 285.851Z" fill="#435363"/>
<path d="M153.073 289.478C157.343 289.478 160.805 285.998 160.805 281.707C160.805 277.415 157.343 273.936 153.073 273.936C148.802 273.936 145.34 277.415 145.34 281.707C145.34 285.998 148.802 289.478 153.073 289.478Z" fill="#435363"/>
<path d="M154.103 342.321C159.797 342.321 164.413 337.682 164.413 331.959C164.413 326.237 159.797 321.598 154.103 321.598C148.41 321.598 143.794 326.237 143.794 331.959C143.794 337.682 148.41 342.321 154.103 342.321Z" fill="#435363"/>
<path d="M204.62 341.285C208.89 341.285 212.352 337.806 212.352 333.514C212.352 329.222 208.89 325.743 204.62 325.743C200.35 325.743 196.888 329.222 196.888 333.514C196.888 337.806 200.35 341.285 204.62 341.285Z" fill="#435363"/>
<path d="M239.672 267.719L250.497 264.092L239.672 259.947L235.548 248.032L231.425 259.429L220.084 264.092L231.425 268.237L235.548 279.116L239.672 267.719Z" fill="#E75300"/>
<path d="M312.354 352.164C305.137 352.164 298.952 349.574 294.312 344.911C287.611 338.176 287.611 330.923 287.611 319.008C287.611 307.092 287.611 299.321 294.312 292.586C298.952 287.923 305.137 285.333 312.354 285.333C325.241 285.333 335.035 292.586 337.097 307.092H323.694C322.148 301.393 319.055 297.249 312.354 297.249C308.746 297.249 305.653 298.803 303.591 300.875C301.014 303.984 300.498 306.574 300.498 319.526C300.498 332.478 301.014 334.55 303.591 337.14C305.653 339.213 308.23 340.767 312.354 340.767C319.055 340.767 322.663 336.622 323.694 330.923H337.097C335.035 344.911 324.725 352.164 312.354 352.164Z" fill="#121E28"/>
<path d="M524.214 347.502C521.121 350.61 516.997 352.165 512.358 352.165C507.203 352.165 503.595 350.61 499.986 346.984V351.128H488.131V286.369H499.986V306.056C503.079 302.43 507.203 300.875 511.842 300.875C516.482 300.875 521.121 302.43 523.698 305.538C528.853 310.719 528.853 319.008 528.853 326.261C528.853 333.514 529.368 342.321 524.214 347.502ZM508.234 312.273C501.017 312.273 499.986 318.49 499.986 326.779C499.986 335.068 501.017 341.285 508.234 341.285C515.451 341.285 516.482 335.068 516.482 326.779C516.997 318.49 515.966 312.273 508.234 312.273Z" fill="#121E28"/>
<path d="M571.637 297.249V285.851H584.524V297.249H571.637ZM571.637 351.129V301.394H584.009V351.129H571.637Z" fill="#121E28"/>
<path d="M611.329 351.129C601.019 351.129 596.896 343.875 596.896 336.622V310.719H591.741V301.394H596.896V285.851H609.267V301.912H618.03V311.237H609.267V336.622C609.267 339.731 610.813 341.285 613.906 341.285H618.545V351.647H611.329V351.129Z" fill="#121E28"/>
<path d="M379.881 330.405H386.067C386.067 328.851 386.067 327.815 386.067 326.261C386.067 317.454 385.036 311.755 380.397 307.092C377.304 303.984 372.149 300.875 364.417 300.875C357.2 300.875 351.53 303.984 348.437 307.092C343.798 311.755 342.767 317.454 342.767 326.261C342.767 335.068 343.798 340.767 348.437 345.43C351.53 348.538 356.685 351.646 364.417 351.646C371.633 351.646 377.304 348.538 380.397 345.43C382.974 342.839 384.52 340.249 385.036 336.622H372.664C372.149 337.14 371.633 338.176 371.118 338.695C369.572 340.249 367.51 340.767 364.417 340.767C361.324 340.767 359.778 339.731 357.716 338.695C355.654 336.622 354.623 333.514 354.623 329.887H373.695L379.881 330.405ZM364.417 311.237C367.51 311.237 369.572 312.273 371.118 313.309C373.18 315.381 374.211 317.972 374.211 321.598H355.138C355.138 318.49 356.169 315.381 358.231 313.309C359.262 312.273 361.839 311.237 364.417 311.237Z" fill="#121E28"/>
<path d="M473.697 330.405H479.883C479.883 328.851 479.883 327.815 479.883 326.261C479.883 317.454 478.852 311.755 474.213 307.092C471.12 303.984 465.965 300.875 458.233 300.875C451.016 300.875 445.346 303.984 442.253 307.092C437.614 311.755 436.583 317.454 436.583 326.261C436.583 335.068 437.614 340.767 442.253 345.43C445.346 348.538 450.501 351.646 458.233 351.646C465.45 351.646 471.12 348.538 474.213 345.43C476.79 342.839 478.337 340.249 478.852 336.622H466.481C465.965 337.14 465.45 338.176 464.934 338.695C463.388 340.249 461.326 340.767 458.749 340.767C456.171 340.767 454.109 339.731 452.047 338.695C449.985 336.622 448.955 333.514 448.955 329.887H468.027L473.697 330.405ZM458.233 311.237C461.326 311.237 463.388 312.273 464.934 313.309C466.996 315.381 468.027 317.972 468.027 321.598H448.439C448.439 318.49 449.47 315.381 451.532 313.309C453.594 312.273 455.656 311.237 458.233 311.237Z" fill="#121E28"/>
<path d="M660.814 330.405H667C667 328.851 667 327.815 667 326.261C667 317.454 665.969 311.755 661.33 307.092C658.237 303.984 653.082 300.875 645.35 300.875C638.133 300.875 632.463 303.984 629.37 307.092C624.731 311.755 623.7 317.454 623.7 326.261C623.7 335.068 624.731 340.767 629.37 345.43C632.463 348.538 637.618 351.646 645.35 351.646C652.567 351.646 658.237 348.538 661.33 345.43C663.907 342.839 665.454 340.249 665.969 336.622H653.598C653.082 337.14 652.567 338.176 652.051 338.695C650.505 340.249 648.443 340.767 645.35 340.767C642.257 340.767 640.711 339.731 638.649 338.695C636.587 336.622 635.556 333.514 635.556 329.887H654.629L660.814 330.405ZM645.35 311.237C648.443 311.237 650.505 312.273 652.051 313.309C654.113 315.381 655.144 317.972 655.144 321.598H636.072C636.072 318.49 637.102 315.381 639.164 313.309C640.711 312.273 642.773 311.237 645.35 311.237Z" fill="#121E28"/>
<path d="M406.17 286.369H393.799V351.646H406.17V286.369Z" fill="#121E28"/>
<path d="M429.366 286.369H416.995V351.646H429.366V286.369Z" fill="#121E28"/>
<path d="M564.936 300.357C560.812 300.357 557.72 301.393 555.142 303.466C553.596 305.02 552.049 307.092 549.987 310.719V301.911H537.101V351.128H550.503V326.779C550.503 322.634 551.018 321.08 552.049 319.008C553.596 315.381 557.72 313.827 562.874 313.827C563.39 313.827 563.905 313.827 564.421 313.827H564.936V300.357Z" fill="#121E28"/>
<path d="M215.96 313.309C219.092 313.309 221.631 310.758 221.631 307.61C221.631 304.463 219.092 301.911 215.96 301.911C212.829 301.911 210.29 304.463 210.29 307.61C210.29 310.758 212.829 313.309 215.96 313.309Z" fill="#121E28"/>
<path d="M178.846 352.683C184.255 352.683 188.64 348.276 188.64 342.839C188.64 337.403 184.255 332.996 178.846 332.996C173.437 332.996 169.052 337.403 169.052 342.839C169.052 348.276 173.437 352.683 178.846 352.683Z" fill="#121E28"/>
<path d="M143.794 315.899C149.203 315.899 153.588 311.492 153.588 306.056C153.588 300.62 149.203 296.213 143.794 296.213C138.385 296.213 134 300.62 134 306.056C134 311.492 138.385 315.899 143.794 315.899Z" fill="#121E28"/>
<path d="M178.846 276.008C182.262 276.008 185.032 273.224 185.032 269.791C185.032 266.357 182.262 263.574 178.846 263.574C175.43 263.574 172.66 266.357 172.66 269.791C172.66 273.224 175.43 276.008 178.846 276.008Z" fill="#121E28"/>
<path d="M205.135 286.369C208.267 286.369 210.806 283.818 210.806 280.67C210.806 277.523 208.267 274.972 205.135 274.972C202.004 274.972 199.465 277.523 199.465 280.67C199.465 283.818 202.004 286.369 205.135 286.369Z" fill="#121E28"/>
<path d="M152.557 289.478C156.827 289.478 160.289 285.998 160.289 281.707C160.289 277.415 156.827 273.936 152.557 273.936C148.287 273.936 144.825 277.415 144.825 281.707C144.825 285.998 148.287 289.478 152.557 289.478Z" fill="#121E28"/>
<path d="M154.103 342.321C159.797 342.321 164.413 337.682 164.413 331.959C164.413 326.237 159.797 321.598 154.103 321.598C148.41 321.598 143.794 326.237 143.794 331.959C143.794 337.682 148.41 342.321 154.103 342.321Z" fill="#121E28"/>
<path d="M204.104 341.285C208.375 341.285 211.836 337.806 211.836 333.514C211.836 329.222 208.375 325.743 204.104 325.743C199.834 325.743 196.372 329.222 196.372 333.514C196.372 337.806 199.834 341.285 204.104 341.285Z" fill="#121E28"/>
<path d="M239.157 267.719L249.982 264.092L239.157 259.947L235.033 248.032L230.909 259.429L219.569 264.092L230.909 268.237L235.033 279.116L239.157 267.719Z" fill="#E75300"/>
</svg>
