<svg width="800" height="600" viewBox="0 0 800 600" fill="none" xmlns="http://www.w3.org/2000/svg">
<path d="M290.169 311.08C290.169 311.08 270.493 291.582 266.599 287.724C261.556 282.727 262.363 276.162 262.363 276.162L258.004 280.484C247.574 290.82 246.461 308.462 257.965 319.862L269.893 331.679C274.895 336.636 274.128 343.242 274.128 343.242L290.169 327.345C294.703 322.854 294.703 315.571 290.169 311.08ZM290.187 272.964L286.162 268.976C281.358 264.217 274.025 264.611 269.709 268.888C265.182 273.373 265.026 280.588 269.735 285.253C274.234 289.711 281.999 297.405 281.999 297.405L290.187 289.293C294.738 284.785 294.738 277.474 290.187 272.964ZM262.726 354.531L266.753 350.541C271.555 345.782 271.158 338.516 266.84 334.238C262.313 329.752 255.034 329.6 250.326 334.266L238.061 346.418L246.247 354.531C250.798 359.039 258.176 359.039 262.726 354.531ZM180.412 327.316L184.439 331.306C189.241 336.064 196.574 335.67 200.892 331.392C205.419 326.906 205.573 319.694 200.864 315.029C196.365 310.571 188.6 302.876 188.6 302.876L180.412 310.987C175.863 315.497 175.863 322.808 180.412 327.316ZM207.873 245.751L203.848 249.739C199.044 254.499 199.443 261.765 203.759 266.042C208.286 270.528 215.565 270.681 220.274 266.016C224.774 261.558 232.54 253.862 232.54 253.862L224.352 245.751C219.801 241.241 212.424 241.241 207.873 245.751ZM224.26 354.543L247.83 331.188C252.873 326.191 259.498 326.991 259.498 326.991L255.137 322.671C244.707 312.336 226.9 311.234 215.398 322.633L203.47 334.45C198.468 339.408 191.801 338.648 191.801 338.648L207.843 354.543C212.377 359.035 219.726 359.035 224.26 354.543ZM180.43 289.201C180.43 289.201 200.106 308.697 204 312.556C209.043 317.553 208.236 324.119 208.236 324.119L212.595 319.798C223.025 309.461 224.138 291.817 212.634 280.42L200.707 268.601C195.704 263.645 196.472 257.039 196.472 257.039L180.43 272.935C175.896 277.427 175.896 284.709 180.43 289.201ZM246.339 245.754C246.339 245.754 226.663 265.252 222.769 269.111C217.726 274.108 211.101 273.306 211.101 273.306L215.462 277.626C225.892 287.962 243.699 289.063 255.201 277.666L267.129 265.847C272.131 260.891 278.799 261.651 278.799 261.651L262.756 245.754C258.222 241.263 250.873 241.263 246.339 245.754ZM560.661 322.677L535.846 270.266C535.571 269.682 534.978 269.309 534.327 269.309H528.907C528.257 269.309 527.664 269.682 527.388 270.266L502.603 322.679C502.081 323.781 502.894 325.048 504.124 325.048H511.915C512.573 325.048 513.167 324.668 513.441 324.077L519.154 311.745H544.084L549.794 324.077C550.067 324.668 550.662 325.048 551.319 325.048L559.141 325.046C560.37 325.046 561.183 323.78 560.661 322.677ZM523.735 301.852L531.623 284.825L539.505 301.852H523.735ZM471.478 308.37L445.704 271.227C444.865 270.026 443.484 269.309 442.011 269.309H434.205C433.277 269.309 432.526 270.055 432.526 270.973V323.384C432.526 324.302 433.305 325.046 434.231 325.046H441.676C442.604 325.046 443.355 324.302 443.355 323.382V286.004L469.138 323.13C469.979 324.331 471.358 325.046 472.832 325.046H480.628C481.556 325.046 482.308 324.302 482.308 323.382V270.973C482.308 270.053 481.556 269.309 480.628 269.309H473.156C472.23 269.309 471.478 270.055 471.478 270.973V308.37ZM589.826 269.309H582.355C581.427 269.309 580.676 270.055 580.677 270.973L580.7 317.62C580.702 321.722 584.059 325.046 588.199 325.046H620.321C621.248 325.046 622 324.302 622 323.382V316.721C622 315.802 621.248 315.059 620.321 315.059H591.503V270.973C591.503 270.053 590.753 269.309 589.826 269.309ZM396.592 325.046H404.034C404.96 325.046 405.712 324.302 405.712 323.382V270.973C405.712 270.053 404.96 269.309 404.034 269.309H396.566C395.638 269.309 394.886 270.055 394.886 270.973L394.912 323.384C394.912 324.302 395.664 325.046 396.592 325.046ZM329.87 325.046H337.316C338.242 325.046 338.994 324.302 338.994 323.382V305.415H363.408C364.334 305.415 365.085 304.671 365.085 303.751V297.132C365.085 296.212 364.334 295.468 363.408 295.468H338.994V279.254H371.178C372.104 279.254 372.856 278.511 372.856 277.592V270.973C372.856 270.053 372.104 269.309 371.178 269.309H336.266C331.793 269.309 328.168 272.904 328.169 277.336V323.384C328.169 324.302 328.944 325.046 329.87 325.046Z" fill="#3FD1EF"/>
</svg>
