<svg width="800" height="600" viewBox="0 0 800 600" fill="none" xmlns="http://www.w3.org/2000/svg">
<path fill-rule="evenodd" clip-rule="evenodd" d="M453.028 268.905C448.92 271.736 443.519 271.737 439.411 268.905C432.987 264.479 425.115 261.869 416.637 261.869C395.049 261.869 377.486 278.769 377.486 299.543V350.915C377.486 356.036 381.35 360.53 386.463 360.837C392.013 361.17 396.619 356.767 396.619 351.288V299.543C396.619 289.32 405.598 281.001 416.637 281.001C427.674 281.001 436.653 289.32 436.653 299.543V350.915C436.653 356.036 440.518 360.53 445.63 360.837C451.181 361.17 455.786 356.767 455.786 351.288V299.543C455.786 289.32 464.766 281.001 475.802 281.001C486.84 281.001 495.821 289.32 495.821 299.543V350.915C495.821 356.036 499.684 360.53 504.797 360.837C510.347 361.17 514.952 356.767 514.952 351.288V299.543C514.952 278.769 497.391 261.869 475.802 261.869C467.325 261.869 459.453 264.479 453.028 268.905Z" fill="url(#paint0_linear)"/>
<path fill-rule="evenodd" clip-rule="evenodd" d="M234.118 362.234C199.865 362.234 172 334.371 172 300.118C172 265.864 199.865 238 234.118 238C268.37 238 296.235 265.864 296.235 300.118C296.235 334.371 268.37 362.234 234.118 362.234ZM234.118 257.132C210.415 257.132 191.133 276.415 191.133 300.118C191.133 323.819 210.415 343.102 234.118 343.102C257.82 343.102 277.103 323.818 277.103 300.118C277.103 276.415 257.82 257.132 234.118 257.132Z" fill="url(#paint1_linear)"/>
<path fill-rule="evenodd" clip-rule="evenodd" d="M576.454 362.235C548.582 362.235 525.907 339.56 525.907 311.689C525.907 283.817 548.582 261.143 576.454 261.143C604.325 261.143 627 283.817 627 311.689C627 339.56 604.325 362.235 576.454 362.235ZM576.454 280.274C559.132 280.274 545.039 294.367 545.039 311.689C545.039 329.011 559.132 343.104 576.454 343.104C593.775 343.104 607.868 329.011 607.868 311.689C607.868 294.367 593.775 280.274 576.454 280.274Z" fill="url(#paint2_linear)"/>
<path fill-rule="evenodd" clip-rule="evenodd" d="M306.063 287.446C306.063 301.353 316.301 312.363 332.148 315.494C344.729 317.981 347.37 324.392 347.37 329.334C347.37 336.163 341.812 341.721 334.982 341.721H307.069C301.785 341.721 297.503 346.003 297.503 351.287C297.503 356.571 301.785 360.853 307.069 360.853H334.982C352.362 360.853 366.502 346.713 366.502 329.335C366.502 312.709 355.046 300.519 335.857 296.725C331.875 295.938 325.195 293.687 325.195 287.447C325.195 283.131 328.706 279.618 333.023 279.618C333.992 279.618 334.935 279.792 335.824 280.133C340.757 282.027 346.291 279.561 348.182 274.629C350.075 269.694 347.611 264.162 342.677 262.27C339.593 261.087 336.344 260.486 333.023 260.486C318.158 260.485 306.063 272.58 306.063 287.446Z" fill="url(#paint3_linear)"/>
<defs>
<linearGradient id="paint0_linear" x1="514.913" y1="311.46" x2="377.459" y2="311.46" gradientUnits="userSpaceOnUse">
<stop stop-color="#FEC314"/>
<stop offset="1" stop-color="#FEDD00"/>
</linearGradient>
<linearGradient id="paint1_linear" x1="171.691" y1="300.112" x2="296.217" y2="300.112" gradientUnits="userSpaceOnUse">
<stop stop-color="#E71E25"/>
<stop offset="1" stop-color="#DC1F26"/>
</linearGradient>
<linearGradient id="paint2_linear" x1="626.492" y1="311.654" x2="525.398" y2="311.654" gradientUnits="userSpaceOnUse">
<stop stop-color="#198FCF"/>
<stop offset="1" stop-color="#2CABE2"/>
</linearGradient>
<linearGradient id="paint3_linear" x1="366.013" y1="310.666" x2="298.366" y2="310.666" gradientUnits="userSpaceOnUse">
<stop stop-color="#F26222"/>
<stop offset="1" stop-color="#F68A22"/>
</linearGradient>
</defs>
</svg>
