<svg width="800" height="600" viewBox="0 0 800 600" fill="none" xmlns="http://www.w3.org/2000/svg">
<path fill-rule="evenodd" clip-rule="evenodd" d="M174.975 316.091C175.099 314.748 176.078 313.651 177.419 313.651H189.64C190.985 313.651 192.086 314.748 192.086 316.091C192.086 332.421 179.863 344 163 344C146.136 344 135.625 331.695 133.915 317.066C132.695 306.826 132.695 293.175 133.915 282.937C135.625 268.312 146.136 256 163 256C179.863 256 192.086 267.576 192.086 283.912C192.086 285.249 190.985 286.351 189.64 286.351H177.419C176.078 286.351 175.099 285.249 174.975 283.912C174.487 277.573 169.966 273.189 163 273.189C155.547 273.189 151.756 277.573 151.145 282.937C149.925 293.175 149.925 306.826 151.145 317.066C151.756 322.428 155.547 326.819 163 326.819C169.966 326.819 174.487 322.428 174.975 316.091ZM232.876 290.249C232.876 290.98 233.366 291.47 234.099 291.47H252.676C253.407 291.47 253.896 290.98 253.896 290.249V259.778C253.896 258.436 254.997 257.339 256.342 257.339H268.563C269.905 257.339 271.006 258.436 271.006 259.778V340.225C271.006 341.564 269.905 342.661 268.563 342.661H256.342C254.997 342.661 253.896 341.564 253.896 340.225V309.75C253.896 309.022 253.407 308.537 252.676 308.537H234.099C233.366 308.537 232.876 309.022 232.876 309.75V340.225C232.876 341.564 231.169 342.661 229.825 342.661H218.214C216.868 342.661 215.771 341.564 215.771 340.225V259.778C215.771 258.436 216.868 257.339 218.214 257.339H230.433C231.78 257.339 232.876 258.436 232.876 259.778V290.249ZM309.478 340.834C309.232 341.934 308.255 342.661 307.155 342.661H294.324C292.37 342.661 291.634 341.324 291.877 340.225L313.755 259.169C314 258.074 314.978 257.339 316.076 257.339H332.452C333.551 257.339 334.527 258.074 334.774 259.169L356.526 340.225C356.773 341.324 356.037 342.661 354.084 342.661H341.251C340.151 342.661 339.297 341.934 338.929 340.834L335.14 328.278C334.895 327.304 334.406 326.455 333.307 326.455H314.732C313.632 326.455 313.143 327.181 312.897 328.278L309.478 340.834ZM317.542 308.048C317.298 309.022 317.789 309.385 318.521 309.385H329.763C330.497 309.385 330.985 309.022 330.739 308.048L324.874 278.792C324.753 278.43 324.63 278.304 324.264 278.304H324.019C323.654 278.304 323.531 278.43 323.406 278.792L317.542 308.048ZM396.952 308.537C396.22 308.537 395.731 309.022 395.731 309.75V340.225C395.731 341.564 394.632 342.661 393.288 342.661H381.066C379.722 342.661 378.621 341.564 378.621 340.225V259.778C378.621 258.436 379.722 257.339 381.066 257.339H407.95C422.005 257.339 433.616 268.919 433.616 282.937C433.616 292.323 429.586 298.661 420.905 304.51C419.196 305.727 419.315 306.703 420.171 308.537L433.251 339.006C434.106 340.834 433.368 342.661 430.924 342.661H418.344C416.387 342.661 415.403 341.691 414.8 340.225L402.334 310.119C402.086 309.508 401.471 308.537 400.132 308.537H396.952ZM396.952 274.403C396.22 274.403 395.731 274.89 395.731 275.619V290.249C395.731 290.98 396.22 291.47 396.952 291.47H407.95C412.593 291.47 416.506 287.689 416.506 282.937C416.506 278.304 412.593 274.403 407.95 274.403H396.952ZM456.03 274.403C454.685 274.403 453.585 273.308 453.585 271.965V259.778C453.585 258.436 454.685 257.339 456.03 257.339H508.581C509.923 257.339 511.022 258.436 511.022 259.778V271.965C511.022 273.308 509.923 274.403 508.581 274.403H492.083C491.347 274.403 490.857 274.89 490.857 275.619V340.225C490.857 341.564 489.757 342.661 488.416 342.661H476.196C474.848 342.661 473.75 341.564 473.75 340.225V275.619C473.75 274.89 473.257 274.403 472.53 274.403H456.03ZM551.152 275.012C551.152 274.282 550.671 273.797 549.937 273.797H537.717C536.37 273.797 535.271 272.698 535.271 271.358V259.778C535.271 258.436 536.37 257.339 537.717 257.339H581.706C583.056 257.339 584.153 258.436 584.153 259.778V271.358C584.153 272.698 583.056 273.797 581.706 273.797H569.493C568.758 273.797 568.266 274.282 568.266 275.012V324.984C568.266 325.72 568.758 326.207 569.493 326.207H582.933C584.275 326.207 585.374 327.304 585.374 328.648V340.225C585.374 341.564 584.275 342.661 582.933 342.661H536.491C535.143 342.661 534.05 341.564 534.05 340.225V328.648C534.05 327.304 535.143 326.207 536.491 326.207H549.937C550.671 326.207 551.152 325.72 551.152 324.984V275.012ZM666.081 282.937C667.306 293.175 667.306 306.826 666.081 317.066C664.373 331.695 653.868 344 636.996 344C620.136 344 609.622 331.695 607.917 317.066C606.685 306.826 606.685 293.175 607.917 282.937C609.622 268.312 620.136 256 636.996 256C653.868 256 664.373 268.312 666.081 282.937ZM625.141 282.937C623.926 293.175 623.926 306.826 625.141 317.066C625.754 322.428 629.544 326.819 636.996 326.819C644.453 326.819 648.237 322.428 648.852 317.066C650.072 306.826 650.072 293.175 648.852 282.937C648.237 277.573 644.453 273.189 636.996 273.189C629.544 273.189 625.754 277.573 625.141 282.937Z" fill="#222222"/>
</svg>
