<svg width="800" height="600" viewBox="0 0 800 600" fill="none" xmlns="http://www.w3.org/2000/svg">
<path d="M574.076 334.506C573.828 334.071 573.468 333.709 573.033 333.459C572.598 333.209 572.104 333.079 571.603 333.084C570.962 333.104 570.336 333.277 569.776 333.59C569.216 333.902 568.739 334.344 568.385 334.878C564.883 339.356 561.026 343.543 556.849 347.399C556.209 347.875 555.51 348.265 554.77 348.559C554.857 344.882 555.054 341.511 555.405 338.381C555.908 334.003 556.587 329.319 557.462 324.437C558.094 321.267 558.497 318.056 558.666 314.828C558.706 314.079 558.587 313.331 558.315 312.633C558.043 311.935 557.626 311.302 557.09 310.778C555.86 309.739 554.276 309.214 552.669 309.312C550.97 309.3 549.275 309.469 547.612 309.815C547.416 308.484 546.898 307.222 546.102 306.138C545.615 305.744 545.054 305.451 544.453 305.278C543.851 305.105 543.221 305.055 542.599 305.131C536.968 305.161 531.491 306.969 526.948 310.297C521.951 313.888 517.896 318.634 515.128 324.131C512.311 329.505 510.796 335.466 510.706 341.533C509.13 343.24 507.751 344.663 506.569 345.714C505.073 347.338 503.048 348.378 500.856 348.647C498.558 348.647 497.397 347.071 497.397 343.853C497.787 339.209 498.556 334.604 499.696 330.085C501.071 324.533 501.95 318.871 502.323 313.164C502.323 307.998 499.74 305.35 494.552 305.35C491.441 305.48 488.424 306.448 485.818 308.151C482.018 310.558 478.736 313.699 476.165 317.389C472.446 322.532 469.463 328.168 467.299 334.134C467.523 331.166 467.918 328.214 468.481 325.291C468.941 322.905 469.62 320.103 470.408 316.885C471.283 314.083 471.884 311.202 472.203 308.283C472.257 307.849 472.197 307.408 472.028 307.005C471.859 306.601 471.587 306.25 471.239 305.984C470.197 305.486 469.041 305.275 467.89 305.371C465.486 305.257 463.097 305.818 460.995 306.991C459.245 308.235 457.989 310.057 457.449 312.135C454.652 321.006 453.177 330.24 453.071 339.541C451.214 341.724 449.233 343.8 447.139 345.758C445.711 347.364 443.754 348.405 441.623 348.691C441.177 348.701 440.734 348.61 440.328 348.424C439.922 348.239 439.564 347.963 439.281 347.618C438.659 346.804 438.348 345.795 438.405 344.773C438.764 338.298 439.687 331.867 441.163 325.554C442.024 321.599 442.623 317.592 442.958 313.558C442.958 310.756 440.988 309.333 437.07 309.333C435.292 309.332 433.518 309.501 431.773 309.837C431.578 308.513 431.076 307.254 430.306 306.159C429.304 305.368 428.029 305.006 426.76 305.153C421.129 305.183 415.652 306.991 411.109 310.318C406.183 313.923 402.158 318.619 399.348 324.038C396.538 329.456 395.019 335.452 394.911 341.555C393.269 343.262 391.912 344.685 390.73 345.736C389.239 347.355 387.222 348.394 385.038 348.669C382.696 348.669 381.536 347.093 381.536 343.875C381.903 339.228 382.672 334.621 383.835 330.107C385.21 324.555 386.089 318.893 386.461 313.186C386.461 308.02 383.878 305.371 378.647 305.371C375.551 305.51 372.55 306.478 369.957 308.173C366.206 310.576 362.958 313.683 360.391 317.323C356.699 322.429 353.731 328.019 351.569 333.937C351.569 329.559 351.657 325.247 351.898 321.088C360.746 311.918 368.469 301.726 374.904 290.727C379.632 282.037 382.718 273.435 382.718 265.357C382.908 261.006 381.713 256.706 379.303 253.077C378.331 251.601 377.004 250.393 375.444 249.563C373.884 248.733 372.14 248.308 370.373 248.327C363.477 248.327 357.589 252.88 352.708 261.986C347.004 272.576 343.001 283.995 340.844 295.828C339.301 303.888 338.212 312.03 337.582 320.213C337.21 320.541 336.947 320.804 336.75 320.957C334.583 322.971 317.881 335.535 313.109 338.753C312.567 339.072 312.107 339.513 311.765 340.041C311.423 340.569 311.209 341.17 311.139 341.796C311.061 342.295 311.132 342.806 311.342 343.265C311.552 343.724 311.893 344.111 312.321 344.379C312.975 344.765 313.698 345.018 314.449 345.123C315.201 345.228 315.965 345.183 316.699 344.991C320.749 344.16 334.452 334.878 337.057 333.324V334.287L336.925 343.853C336.838 345.407 336.794 347.399 336.794 349.982C336.603 353.12 336.988 356.265 337.932 359.263C338.353 360.138 339.038 360.858 339.89 361.321C340.743 361.785 341.72 361.969 342.682 361.846C348.658 361.846 352.467 358.672 353.955 352.237C355.13 347.482 356.697 342.833 358.64 338.337C360.202 334.616 362.13 331.06 364.397 327.721C366.323 325.05 367.79 323.715 368.818 323.715C369.694 323.715 370.154 324.328 370.154 325.641C369.918 329.145 369.391 332.623 368.578 336.039C367.686 339.998 367.13 344.025 366.914 348.078C366.658 351.755 367.773 355.397 370.044 358.3C371.225 359.538 372.667 360.499 374.264 361.112C375.862 361.725 377.575 361.976 379.282 361.846C384.008 361.894 388.633 360.479 392.525 357.797C394.267 356.553 395.94 355.216 397.537 353.791C398.028 354.739 398.615 355.634 399.289 356.462C400.721 358.22 402.542 359.621 404.609 360.556C406.675 361.49 408.93 361.932 411.196 361.846C417.501 361.846 422.732 358.49 426.891 351.777C427.82 354.649 429.543 357.199 431.86 359.132C433.887 360.865 436.461 361.826 439.128 361.846C443.049 361.65 446.796 360.165 449.788 357.622C451.273 356.501 452.697 355.303 454.056 354.032C454.229 355.058 454.508 356.063 454.888 357.031C455.274 358.434 456.116 359.669 457.281 360.541C458.446 361.413 459.868 361.872 461.324 361.846C462.321 361.933 463.325 361.797 464.264 361.449C465.203 361.101 466.052 360.549 466.752 359.833C468.349 357.57 469.405 354.972 469.839 352.237C470.998 347.472 472.58 342.82 474.567 338.337C476.155 334.629 478.082 331.075 480.324 327.721C482.206 325.05 483.651 323.715 484.702 323.715C485.577 323.715 485.993 324.328 485.993 325.641C485.78 329.146 485.26 332.625 484.439 336.039C483.547 339.998 482.991 344.025 482.775 348.078C482.527 351.747 483.625 355.381 485.862 358.3C487.045 359.535 488.487 360.493 490.084 361.106C491.681 361.719 493.393 361.972 495.099 361.846C499.915 361.904 504.635 360.491 508.627 357.797C510.29 356.63 511.876 355.358 513.377 353.988C513.822 354.861 514.349 355.689 514.953 356.462C516.24 358.178 517.919 359.562 519.85 360.498C521.78 361.435 523.906 361.897 526.051 361.846C532.114 361.846 536.375 358.41 538.834 351.536L538.747 353.463C538.639 354.605 538.757 355.758 539.095 356.855C539.433 357.952 539.984 358.971 540.717 359.854C541.542 360.577 542.504 361.128 543.545 361.473C544.587 361.819 545.686 361.953 546.78 361.868C547.492 361.879 548.203 361.82 548.904 361.693H548.947C552.816 361.551 556.605 360.557 560.045 358.782C563.728 357.081 566.932 354.494 569.37 351.252C571.494 348.122 574.996 341.336 574.996 338.468C575.04 337.09 574.723 335.724 574.076 334.506ZM353.211 305.897C354.162 298.289 355.499 290.735 357.217 283.263C358.638 277.46 360.58 271.797 363.018 266.342C364.769 262.249 366.367 260.148 367.768 260.148C368.818 260.148 369.65 260.848 370.197 262.249C370.832 264.129 371.114 266.111 371.029 268.094C371.029 273.697 368.687 280.177 365.469 287.006C362.691 292.855 359.27 298.376 355.269 303.467C355.207 303.57 355.133 303.665 355.05 303.752C354.775 304.155 354.467 304.536 354.13 304.89C353.846 305.306 353.452 305.678 353.167 306.094V305.897H353.211ZM423.958 338.337C423.415 341.333 422.219 344.173 420.456 346.655C419.916 347.523 419.183 348.253 418.313 348.789C417.443 349.324 416.461 349.651 415.443 349.741C414.663 349.775 413.885 349.63 413.168 349.32C412.452 349.009 411.815 348.539 411.306 347.947C410.178 346.339 409.644 344.389 409.796 342.43C409.77 338.074 410.619 333.757 412.291 329.734C413.772 326.015 416.103 322.694 419.099 320.037C421.647 317.72 424.937 316.386 428.38 316.272L423.958 338.337ZM541.746 328.399C540.279 336.367 538.659 341.927 536.82 345.057C534.982 348.187 532.924 349.72 530.67 349.72C529.954 349.737 529.246 349.573 528.611 349.244C527.976 348.915 527.434 348.431 527.036 347.837C526.007 346.222 525.523 344.319 525.657 342.408C525.632 338.052 526.48 333.735 528.152 329.713C529.634 326.016 531.931 322.701 534.872 320.016C537.363 317.718 540.592 316.383 543.978 316.25L541.746 328.399Z" fill="black"/>
<path d="M270.534 295.126C268.413 295.126 266.339 294.497 264.575 293.318C262.812 292.14 261.437 290.465 260.625 288.505C259.813 286.545 259.601 284.388 260.015 282.308C260.429 280.227 261.45 278.316 262.95 276.816C264.45 275.316 266.361 274.294 268.442 273.88C270.523 273.467 272.679 273.679 274.639 274.491C276.599 275.303 278.274 276.677 279.453 278.441C280.631 280.205 281.26 282.279 281.26 284.4C281.256 287.243 280.124 289.969 278.114 291.979C276.103 293.99 273.378 295.121 270.534 295.126ZM270.534 278.665C269.4 278.665 268.291 279.001 267.348 279.632C266.405 280.262 265.67 281.158 265.236 282.205C264.802 283.253 264.688 284.407 264.91 285.519C265.131 286.632 265.677 287.653 266.479 288.455C267.281 289.258 268.303 289.804 269.416 290.025C270.528 290.246 271.681 290.133 272.729 289.699C273.777 289.265 274.673 288.53 275.303 287.586C275.933 286.643 276.27 285.534 276.27 284.4C276.268 282.88 275.663 281.422 274.588 280.347C273.513 279.272 272.055 278.667 270.534 278.665Z" fill="black"/>
<path d="M264.821 270.741C264.825 270.815 264.818 270.888 264.799 270.96C264.799 271.026 264.778 271.091 264.778 271.157C264.76 271.191 264.752 271.229 264.756 271.266C264.736 271.357 264.707 271.445 264.668 271.529C264.52 271.922 264.261 272.264 263.924 272.514C263.877 272.556 263.825 272.592 263.771 272.623C263.661 272.689 263.53 272.755 263.399 272.821C263.333 272.842 263.289 272.864 263.223 272.886C263.158 272.908 263.114 272.908 263.07 272.93C263.006 272.948 262.94 272.955 262.873 272.952C262.824 272.97 262.772 272.977 262.72 272.974H262.545C262.471 272.977 262.397 272.97 262.326 272.952C262.26 272.952 262.195 272.93 262.129 272.93C261.822 272.865 261.532 272.739 261.275 272.558C261.149 272.468 261.031 272.365 260.925 272.251L260.859 272.186L241.881 251.653C241.68 251.44 241.524 251.188 241.421 250.914C241.317 250.64 241.269 250.347 241.28 250.054C241.29 249.761 241.358 249.473 241.48 249.207C241.602 248.94 241.775 248.7 241.991 248.501C242.429 248.098 243.01 247.886 243.605 247.91C244.2 247.935 244.761 248.195 245.165 248.633L257.926 262.686L252.06 244.627C251.896 244.061 251.961 243.453 252.241 242.934C252.521 242.416 252.994 242.029 253.558 241.856C254.121 241.684 254.73 241.74 255.253 242.012C255.775 242.285 256.169 242.752 256.35 243.313L264.69 269.953L264.734 270.084C264.777 270.196 264.799 270.315 264.799 270.435C264.819 270.483 264.827 270.536 264.821 270.588V270.741Z" fill="black"/>
<path d="M299.078 320.54C298.659 320.92 298.113 321.131 297.546 321.131C297.237 321.133 296.931 321.07 296.648 320.946C296.365 320.821 296.112 320.638 295.904 320.409L283.23 306.465L288.944 324.414C289.118 324.983 289.059 325.598 288.78 326.124C288.5 326.649 288.024 327.042 287.455 327.216C287.243 327.285 287.021 327.321 286.798 327.326C286.32 327.326 285.853 327.173 285.467 326.89C285.081 326.606 284.796 326.207 284.653 325.75L276.335 298.935C276.335 298.913 276.313 298.891 276.313 298.869C276.27 298.742 276.248 298.609 276.248 298.475C276.221 298.181 276.251 297.884 276.335 297.6C276.397 297.378 276.501 297.17 276.642 296.987C276.685 296.921 276.729 296.877 276.773 296.812L276.795 296.79C276.839 296.724 276.904 296.68 276.948 296.615C277.002 296.566 277.061 296.522 277.123 296.483C277.17 296.442 277.222 296.405 277.276 296.374C277.408 296.308 277.517 296.243 277.649 296.177C277.714 296.155 277.758 296.133 277.824 296.111C277.945 296.072 278.07 296.043 278.196 296.024C278.24 296.024 278.283 296.002 278.327 296.002H278.502C278.576 295.998 278.65 296.006 278.721 296.024C278.787 296.024 278.852 296.046 278.918 296.046C278.984 296.046 278.984 296.068 279.028 296.068C279.14 296.094 279.25 296.131 279.356 296.177C279.465 296.221 279.575 296.286 279.662 296.33C279.828 296.421 279.976 296.539 280.1 296.68L280.144 296.724L299.21 317.322C299.614 317.769 299.826 318.356 299.802 318.958C299.777 319.56 299.518 320.128 299.078 320.54Z" fill="black"/>
<path d="M276.27 298.521C276.243 298.226 276.273 297.929 276.357 297.645C276.273 297.929 276.243 298.226 276.27 298.521Z" fill="black"/>
<path d="M258.999 276.563V276.739C259.002 276.783 258.995 276.829 258.977 276.87C258.969 276.998 258.939 277.124 258.889 277.242C258.871 277.302 258.849 277.36 258.824 277.417C258.806 277.47 258.784 277.521 258.758 277.57C258.736 277.636 258.692 277.68 258.67 277.745C258.639 277.812 258.595 277.872 258.539 277.921C258.501 277.976 258.457 278.028 258.408 278.074C258.307 278.193 258.189 278.297 258.057 278.38C257.877 278.512 257.678 278.616 257.466 278.687C257.419 278.711 257.367 278.726 257.313 278.73H257.291C257.235 278.75 257.175 278.757 257.116 278.752C257.075 278.77 257.03 278.778 256.985 278.774C256.919 278.774 256.832 278.796 256.766 278.796H256.591C256.547 278.796 256.503 278.774 256.438 278.774C256.319 278.755 256.201 278.726 256.087 278.687L229.273 270.369C228.992 270.282 228.731 270.14 228.506 269.952C228.28 269.764 228.093 269.533 227.957 269.273C227.821 269.012 227.737 268.727 227.711 268.435C227.686 268.142 227.718 267.847 227.806 267.567C227.984 267.001 228.378 266.527 228.902 266.249C229.426 265.97 230.039 265.909 230.608 266.078L248.667 271.857L234.658 259.117C234.44 258.922 234.264 258.686 234.14 258.422C234.015 258.158 233.945 257.872 233.932 257.58C233.92 257.288 233.966 256.997 234.068 256.724C234.17 256.45 234.326 256.2 234.526 255.987C234.933 255.552 235.495 255.296 236.091 255.275C236.686 255.255 237.265 255.471 237.7 255.878L258.298 274.922L258.342 274.965C258.482 275.099 258.601 275.254 258.692 275.425L258.758 275.557C258.78 275.6 258.802 275.666 258.824 275.71C258.846 275.754 258.867 275.819 258.889 275.885C258.911 275.951 258.911 275.972 258.933 276.016C258.955 276.06 258.955 276.104 258.977 276.148C258.996 276.219 259.003 276.293 258.999 276.366C258.999 276.41 258.999 276.476 258.999 276.563Z" fill="black"/>
<path d="M313.263 301.474C313.12 301.931 312.835 302.331 312.449 302.614C312.063 302.898 311.597 303.05 311.118 303.05C310.894 303.057 310.671 303.019 310.461 302.941L292.512 297.206L306.434 309.902C306.766 310.207 306.999 310.605 307.101 311.045C307.204 311.484 307.171 311.944 307.008 312.365C306.845 312.786 306.559 313.148 306.187 313.403C305.815 313.659 305.375 313.796 304.923 313.798C304.357 313.798 303.811 313.587 303.391 313.207L282.859 294.207C282.717 294.084 282.592 293.945 282.486 293.791L282.355 293.594C282.288 293.467 282.229 293.335 282.18 293.2C282.158 293.156 282.158 293.112 282.136 293.069C282.118 293.027 282.111 292.982 282.114 292.937C282.095 292.866 282.088 292.792 282.092 292.718C282.092 292.653 282.071 292.565 282.071 292.499V292.324C282.067 292.279 282.075 292.234 282.092 292.193C282.111 292.067 282.14 291.942 282.18 291.821C282.198 291.761 282.22 291.703 282.246 291.646C282.289 291.511 282.356 291.385 282.443 291.274C282.465 291.23 282.508 291.186 282.552 291.12C282.718 290.899 282.926 290.713 283.165 290.573C283.209 290.551 283.253 290.507 283.296 290.486C283.415 290.421 283.539 290.37 283.668 290.332L283.887 290.267C284.103 290.219 284.324 290.205 284.544 290.223L284.938 290.289C284.96 290.289 284.982 290.289 284.982 290.31L311.775 298.628C312.348 298.811 312.826 299.212 313.105 299.745C313.383 300.278 313.44 300.899 313.263 301.474Z" fill="black"/>
<path d="M284.544 290.244C284.324 290.225 284.103 290.24 283.887 290.287C284.101 290.228 284.324 290.213 284.544 290.244Z" fill="black"/>
<path d="M256.832 284.136C256.756 283.785 256.603 283.455 256.383 283.171C256.163 282.887 255.883 282.656 255.562 282.494C256.063 282.71 256.462 283.11 256.679 283.611C256.76 283.775 256.811 283.953 256.832 284.136Z" fill="black"/>
<path d="M256.875 284.508C256.88 284.582 256.873 284.656 256.854 284.727C256.854 284.793 256.832 284.88 256.832 284.946C256.811 285.091 256.767 285.232 256.7 285.362C256.678 285.428 256.635 285.493 256.613 285.559C256.59 285.625 256.552 285.684 256.503 285.734L256.306 285.997L256.263 286.04C256.181 286.127 256.093 286.207 256 286.281C255.988 286.293 255.973 286.301 255.956 286.303C255.866 286.369 255.771 286.428 255.672 286.478C255.625 286.509 255.573 286.531 255.518 286.544C255.456 286.576 255.39 286.598 255.321 286.61C255.258 286.635 255.192 286.649 255.124 286.653C255.102 286.653 255.059 286.675 255.037 286.675L227.741 292.914C227.576 292.959 227.407 292.981 227.237 292.979C226.679 292.978 226.141 292.768 225.728 292.392C225.316 292.016 225.058 291.5 225.004 290.944C224.97 290.383 225.139 289.828 225.481 289.382C225.823 288.935 226.314 288.627 226.865 288.514L245.252 284.508L226.887 280.524C226.358 280.417 225.883 280.129 225.543 279.71C225.203 279.29 225.021 278.766 225.026 278.226C225.038 277.897 225.123 277.574 225.274 277.281C225.425 276.988 225.639 276.732 225.9 276.532C226.161 276.331 226.464 276.19 226.786 276.12C227.108 276.05 227.441 276.051 227.762 276.125L255.015 282.297C255.187 282.342 255.355 282.401 255.518 282.472C255.54 282.472 255.562 282.494 255.584 282.494C255.909 282.65 256.193 282.88 256.414 283.165C256.634 283.45 256.785 283.782 256.854 284.136C256.854 284.18 256.875 284.246 256.875 284.289C256.875 284.377 256.875 284.443 256.875 284.508Z" fill="black"/>
<path d="M316.043 290.923C315.99 291.479 315.732 291.995 315.319 292.372C314.906 292.748 314.369 292.957 313.81 292.959C313.642 292.955 313.473 292.941 313.307 292.915L286.076 286.721H286.054C285.643 286.635 285.263 286.439 284.954 286.153C284.646 285.868 284.421 285.504 284.303 285.101C284.286 285.075 284.278 285.044 284.281 285.013C284.259 284.926 284.259 284.838 284.237 284.772C284.216 284.707 284.216 284.619 284.216 284.532V284.4C284.212 284.334 284.219 284.267 284.237 284.203C284.261 284.062 284.298 283.922 284.347 283.787C284.455 283.492 284.621 283.222 284.835 282.993C285.049 282.763 285.308 282.58 285.595 282.452C285.654 282.434 285.713 282.412 285.77 282.386C285.833 282.362 285.899 282.347 285.967 282.343L286.076 282.321L313.351 276.148C313.637 276.081 313.933 276.072 314.223 276.121C314.513 276.169 314.79 276.275 315.038 276.432C315.287 276.589 315.502 276.794 315.67 277.034C315.839 277.275 315.958 277.546 316.021 277.833C316.149 278.414 316.044 279.021 315.728 279.524C315.413 280.028 314.913 280.387 314.336 280.526L295.839 284.554L314.182 288.516C314.735 288.617 315.23 288.919 315.573 289.363C315.917 289.808 316.084 290.363 316.043 290.923Z" fill="black"/>
<path d="M286.054 286.72C285.638 286.646 285.252 286.454 284.942 286.167C284.631 285.88 284.41 285.51 284.303 285.101C284.424 285.502 284.65 285.864 284.958 286.149C285.266 286.434 285.644 286.631 286.054 286.72Z" fill="black"/>
<path d="M258.999 292.323C258.98 292.153 258.951 291.985 258.911 291.819C258.824 291.539 258.682 291.278 258.494 291.052C258.306 290.826 258.075 290.64 257.815 290.504C257.555 290.367 257.27 290.284 256.977 290.258C256.684 290.232 256.389 290.264 256.109 290.353L255.89 290.418C256.218 290.267 256.577 290.198 256.937 290.219C257.298 290.24 257.647 290.349 257.955 290.538C258.262 290.726 258.519 290.988 258.701 291.299C258.883 291.611 258.985 291.962 258.999 292.323Z" fill="black"/>
<path d="M258.999 292.477C258.978 293.084 258.718 293.658 258.277 294.074L257.992 294.337L237.657 313.14C237.237 313.52 236.691 313.731 236.124 313.731C235.564 313.735 235.023 313.523 234.614 313.14C234.388 312.916 234.211 312.647 234.093 312.351C233.976 312.055 233.921 311.738 233.931 311.42C233.941 311.102 234.017 310.789 234.153 310.501C234.289 310.213 234.484 309.957 234.723 309.747L248.601 297.161L230.63 302.918C230.417 302.984 230.196 303.021 229.973 303.027C229.494 303.028 229.028 302.875 228.642 302.591C228.256 302.308 227.971 301.908 227.828 301.451C227.737 301.173 227.703 300.878 227.728 300.586C227.753 300.294 227.836 300.01 227.973 299.751C228.11 299.492 228.297 299.262 228.524 299.077C228.751 298.892 229.013 298.754 229.295 298.671L255.869 290.397L256.088 290.331C256.369 290.244 256.665 290.213 256.959 290.241C257.253 290.268 257.538 290.354 257.798 290.492C258.059 290.631 258.289 290.819 258.477 291.047C258.664 291.275 258.804 291.538 258.889 291.82C258.94 291.983 258.969 292.152 258.977 292.323C258.997 292.372 259.004 292.424 258.999 292.477Z" fill="black"/>
<path d="M258.824 293.331L258.802 293.352L258.824 293.331Z" fill="black"/>
<path d="M258.802 293.354C258.635 293.761 258.353 294.111 257.992 294.361L258.276 294.099C258.499 293.888 258.677 293.635 258.802 293.354Z" fill="black"/>
<path d="M258.955 292.937C258.931 293.074 258.887 293.207 258.824 293.331L258.955 292.937Z" fill="black"/>
<path d="M258.999 292.478C258.998 292.633 258.976 292.788 258.933 292.937C258.976 292.788 258.998 292.633 258.999 292.478Z" fill="black"/>
<path d="M311.818 270.39L284.981 278.708C284.87 278.751 284.751 278.774 284.631 278.774C284.587 278.774 284.544 278.796 284.478 278.796H284.303C284.065 278.792 283.83 278.755 283.602 278.687C283.493 278.643 283.384 278.599 283.296 278.555C283.208 278.511 283.099 278.446 282.99 278.38C282.924 278.336 282.858 278.271 282.793 278.227L282.596 278.03C282.239 277.568 282.066 276.99 282.11 276.408C282.155 275.825 282.413 275.28 282.836 274.878L282.88 274.834L303.303 255.965C303.693 255.592 304.2 255.364 304.738 255.32C305.276 255.276 305.813 255.419 306.258 255.724C306.521 255.924 306.736 256.179 306.89 256.47C307.044 256.762 307.132 257.084 307.149 257.413C307.166 257.742 307.11 258.071 306.987 258.377C306.863 258.683 306.674 258.958 306.433 259.183L292.402 271.901L310.461 266.122C310.741 266.034 311.036 266.001 311.329 266.027C311.622 266.053 311.906 266.137 312.167 266.273C312.427 266.409 312.658 266.596 312.846 266.821C313.034 267.047 313.176 267.308 313.263 267.589C313.356 267.867 313.392 268.162 313.369 268.455C313.346 268.747 313.265 269.033 313.131 269.294C312.996 269.555 312.811 269.787 312.585 269.975C312.36 270.163 312.099 270.304 311.818 270.39Z" fill="black"/>
<path d="M282.618 278.009C282.413 277.783 282.263 277.514 282.18 277.221C282.053 276.803 282.05 276.358 282.17 275.939C282.29 275.519 282.529 275.144 282.858 274.857C282.436 275.26 282.177 275.805 282.133 276.387C282.088 276.969 282.261 277.547 282.618 278.009Z" fill="black"/>
<path d="M264.821 298.299V298.474C264.823 298.526 264.816 298.578 264.799 298.627C264.773 298.797 264.737 298.966 264.69 299.131L256.416 325.814C256.273 326.271 255.988 326.671 255.602 326.954C255.216 327.238 254.749 327.391 254.271 327.39C254.047 327.397 253.824 327.36 253.614 327.281C253.333 327.194 253.072 327.052 252.847 326.864C252.621 326.676 252.434 326.445 252.298 326.185C252.162 325.924 252.078 325.64 252.052 325.347C252.027 325.054 252.059 324.759 252.147 324.479L257.86 306.53L245.164 320.451C244.957 320.681 244.704 320.864 244.421 320.988C244.138 321.113 243.832 321.176 243.523 321.174C243.085 321.176 242.657 321.051 242.29 320.814C241.923 320.576 241.633 320.237 241.456 319.837C241.279 319.437 241.223 318.994 241.295 318.563C241.367 318.131 241.563 317.73 241.859 317.409L260.859 296.876L260.925 296.811C261.036 296.702 261.153 296.6 261.275 296.504C261.319 296.482 261.363 296.438 261.407 296.417L261.538 296.351C261.639 296.289 261.75 296.244 261.866 296.22C261.91 296.198 261.954 296.198 261.998 296.176C262.041 296.154 262.085 296.154 262.129 296.132C262.2 296.114 262.274 296.107 262.348 296.11C262.413 296.11 262.501 296.088 262.567 296.088H262.742C262.794 296.085 262.846 296.092 262.895 296.11C263.014 296.129 263.131 296.158 263.245 296.198C263.305 296.216 263.363 296.238 263.42 296.263C263.553 296.312 263.678 296.378 263.792 296.46C263.836 296.482 263.88 296.526 263.946 296.57C264.001 296.608 264.053 296.652 264.099 296.701C264.155 296.747 264.207 296.798 264.252 296.854C264.274 296.876 264.296 296.92 264.318 296.942C264.34 296.964 264.384 297.03 264.427 297.073C264.472 297.134 264.509 297.2 264.537 297.27C264.586 297.336 264.623 297.41 264.646 297.489C264.67 297.529 264.685 297.574 264.69 297.621C264.69 297.642 264.712 297.664 264.712 297.686C264.736 297.734 264.751 297.786 264.756 297.839C264.773 297.873 264.781 297.911 264.778 297.949C264.796 298.013 264.803 298.079 264.799 298.146C264.821 298.146 264.821 298.233 264.821 298.299Z" fill="black"/>
<path d="M299.188 251.654L280.144 272.274C279.953 272.484 279.722 272.655 279.466 272.777C279.422 272.799 279.4 272.799 279.356 272.821C279.218 272.888 279.07 272.932 278.918 272.953C278.854 272.971 278.788 272.978 278.721 272.974C278.656 272.974 278.568 272.996 278.502 272.996H278.327C278.282 273 278.237 272.992 278.196 272.974C278.07 272.956 277.945 272.926 277.824 272.887C277.764 272.869 277.706 272.847 277.649 272.821C277.514 272.778 277.388 272.711 277.277 272.624C277.233 272.602 277.189 272.559 277.123 272.515C277.058 272.471 277.014 272.427 276.948 272.383C276.891 272.331 276.84 272.272 276.795 272.208L276.773 272.186C276.724 272.132 276.68 272.073 276.642 272.011C276.51 271.823 276.406 271.617 276.335 271.398C276.24 271.117 276.211 270.818 276.248 270.523L276.313 270.129C276.312 270.117 276.313 270.105 276.317 270.093C276.321 270.082 276.327 270.072 276.335 270.063L284.653 243.248C284.832 242.682 285.225 242.209 285.749 241.93C286.274 241.652 286.886 241.591 287.455 241.76C287.736 241.847 287.997 241.989 288.222 242.177C288.448 242.365 288.635 242.596 288.771 242.856C288.907 243.116 288.991 243.401 289.017 243.694C289.042 243.987 289.01 244.282 288.922 244.562L283.143 262.664L295.883 248.589C296.081 248.363 296.323 248.178 296.595 248.046C296.866 247.914 297.161 247.838 297.462 247.823C297.763 247.807 298.064 247.852 298.348 247.955C298.631 248.057 298.891 248.216 299.112 248.421C299.333 248.626 299.511 248.873 299.635 249.148C299.759 249.423 299.826 249.72 299.833 250.021C299.84 250.323 299.787 250.623 299.676 250.903C299.565 251.184 299.399 251.439 299.188 251.654Z" fill="black"/>
<path d="M276.27 270.521C276.243 270.816 276.273 271.113 276.357 271.397C276.272 271.114 276.242 270.816 276.27 270.521Z" fill="black"/>
<path d="M277.233 330.018C277.068 330.061 276.899 330.084 276.729 330.084C276.221 330.08 275.729 329.905 275.332 329.587C274.934 329.27 274.656 328.828 274.54 328.333L270.557 309.858L266.507 328.311C266.395 328.808 266.118 329.252 265.72 329.571C265.322 329.889 264.828 330.062 264.318 330.062C264.148 330.06 263.979 330.038 263.815 329.996C263.526 329.932 263.253 329.811 263.012 329.641C262.771 329.47 262.565 329.253 262.409 329.003C262.252 328.752 262.146 328.473 262.098 328.181C262.05 327.89 262.061 327.591 262.129 327.304L268.324 300.051L268.346 299.92C268.368 299.876 268.368 299.832 268.389 299.789C268.504 299.395 268.724 299.039 269.024 298.76C269.071 298.711 269.122 298.667 269.177 298.629C269.225 298.587 269.276 298.55 269.331 298.519C269.382 298.477 269.442 298.447 269.506 298.432C269.624 298.367 269.749 298.316 269.878 298.278C269.944 298.256 269.987 298.256 270.053 298.235C270.119 298.213 270.228 298.213 270.316 298.191C270.403 298.169 270.469 298.169 270.557 298.169H270.578C270.659 298.165 270.74 298.173 270.819 298.191C270.907 298.213 270.994 298.213 271.082 298.235C271.169 298.256 271.213 298.256 271.257 298.278C271.326 298.298 271.393 298.328 271.454 298.366C271.516 298.386 271.575 298.416 271.629 298.453C271.673 298.475 271.739 298.519 271.782 298.541C271.838 298.57 271.89 298.607 271.936 298.65L271.957 298.672C272.043 298.74 272.123 298.813 272.198 298.891C272.439 299.147 272.619 299.454 272.724 299.789C272.728 299.835 272.743 299.88 272.767 299.92C272.767 299.964 272.789 299.986 272.789 300.051L278.94 327.326C279.058 327.908 278.947 328.514 278.628 329.016C278.31 329.518 277.81 329.877 277.233 330.018Z" fill="black"/>
<path d="M278.918 241.716L272.745 268.968C272.74 269.005 272.733 269.041 272.723 269.077C272.702 269.121 272.702 269.165 272.68 269.209C272.609 269.434 272.506 269.648 272.373 269.844C272.081 270.252 271.667 270.559 271.191 270.719C271.126 270.741 271.082 270.741 271.016 270.763C270.95 270.785 270.863 270.785 270.775 270.807H270.753C270.666 270.807 270.6 270.829 270.513 270.829C270.432 270.831 270.351 270.824 270.272 270.807H270.25C270.162 270.785 270.097 270.785 270.009 270.763C269.922 270.741 269.9 270.741 269.834 270.719C269.591 270.638 269.362 270.52 269.155 270.369C269.112 270.325 269.046 270.303 269.002 270.238C268.69 269.968 268.468 269.609 268.367 269.209C268.346 269.165 268.346 269.121 268.324 269.077L268.302 268.968L262.173 241.737C261.757 239.877 263.771 238.038 266.113 239.57C266.243 239.668 266.336 239.807 266.375 239.964L270.578 259.315L274.584 240.731C274.649 240.446 274.769 240.177 274.938 239.939C275.106 239.701 275.32 239.498 275.567 239.342C275.814 239.187 276.089 239.082 276.377 239.032C276.665 238.983 276.959 238.991 277.244 239.056C277.528 239.121 277.797 239.241 278.035 239.409C278.274 239.578 278.476 239.792 278.632 240.039C278.787 240.286 278.893 240.561 278.942 240.849C278.991 241.136 278.983 241.431 278.918 241.716Z" fill="black"/>
</svg>
