<svg width="800" height="600" viewBox="0 0 800 600" fill="none" xmlns="http://www.w3.org/2000/svg">
<path fill-rule="evenodd" clip-rule="evenodd" d="M258.392 219C213.441 219 177 255.423 177 300.356C177 343.987 211.364 379.595 254.514 381.616C255.802 381.677 257.092 381.712 258.392 381.712C279.23 381.712 298.234 373.879 312.634 361.008C303.093 367.332 291.939 370.971 280.018 370.971C260.635 370.971 243.277 361.36 231.603 346.204C222.603 335.585 216.774 319.888 216.377 302.272V298.441C216.774 280.826 222.603 265.127 231.601 254.51C243.277 239.354 260.635 229.742 280.018 229.742C291.941 229.742 303.097 233.381 312.64 239.71C298.311 226.897 279.42 219.081 258.699 219.004C258.596 219.004 258.495 219 258.392 219Z" fill="url(#paint0_linear)"/>
<path fill-rule="evenodd" clip-rule="evenodd" d="M231.601 254.51C239.07 245.696 248.716 240.381 259.254 240.381C282.949 240.381 302.156 267.234 302.156 300.355C302.156 333.477 282.949 360.33 259.254 360.33C248.716 360.33 239.07 355.017 231.603 346.203C243.277 361.36 260.635 370.971 280.018 370.971C291.939 370.971 303.093 367.332 312.634 361.008C329.293 346.11 339.783 324.457 339.783 300.355C339.783 276.256 329.295 254.605 312.64 239.71C303.097 233.381 291.941 229.742 280.018 229.742C260.635 229.742 243.277 239.353 231.601 254.51Z" fill="url(#paint1_linear)"/>
<path fill-rule="evenodd" clip-rule="evenodd" d="M465.831 287.478C479.223 287.478 490.12 299.2 490.12 313.603C490.12 328.009 479.223 339.729 465.831 339.729C458.625 339.729 452.415 336.333 448.212 330.956V354.596H442.474V288.672H448.212V296.253C452.415 290.876 458.625 287.478 465.831 287.478ZM401.909 268.23C421.085 268.23 436.685 284.579 436.685 304.674C436.685 324.766 421.085 341.115 401.909 341.115C382.732 341.115 367.132 324.766 367.132 304.674C367.132 284.579 382.732 268.23 401.909 268.23ZM570.421 287.679C571.913 287.615 573.992 287.88 575.584 288.325C575.252 289.981 574.472 292.061 574.146 293.696C573.569 293.585 573.021 293.464 572.466 293.374C569.046 292.83 566.06 293.789 563.454 296.02C561.239 297.916 559.694 300.292 558.588 302.965C557.394 305.853 556.821 308.812 556.821 312.457C556.823 321.342 556.821 329.16 556.821 338.044V338.378H556.813H551.073V289.078V288.985H556.813V289.078H556.819V298.211C556.837 298.213 556.855 298.217 556.873 298.22C556.914 298.132 556.956 298.043 556.995 297.952C558.617 294.154 561.158 291.171 564.833 289.213C566.576 288.287 568.443 287.766 570.421 287.679ZM519.553 287.556C533.853 287.556 543.839 298.301 543.839 313.682C543.839 314.301 543.813 314.912 543.773 315.52H540.333H501.021C501.871 325.94 509.852 334.139 519.553 334.139C527.032 334.139 533.481 329.255 536.437 322.247L541.381 325.123C537.433 333.809 529.132 339.805 519.553 339.805C506.161 339.805 495.266 328.088 495.266 313.682C495.266 299.276 506.161 287.556 519.553 287.556ZM616.262 288.672H622V338.379H616.262V330.956C612.059 336.333 605.849 339.729 598.643 339.729C585.251 339.729 574.356 328.009 574.356 313.603C574.356 299.2 585.251 287.478 598.643 287.478C605.849 287.478 612.059 290.876 616.262 296.253V288.672ZM465.831 334.06C476.097 334.06 484.448 324.884 484.448 313.603C484.448 302.325 476.097 293.147 465.831 293.147C455.566 293.147 447.214 302.325 447.214 313.603C447.214 324.884 455.566 334.06 465.831 334.06ZM401.909 335.642C418.066 335.642 431.21 321.749 431.21 304.674C431.21 287.596 418.066 273.705 401.909 273.705C385.751 273.705 372.607 287.596 372.607 304.674C372.607 321.749 385.751 335.642 401.909 335.642ZM519.553 293.225C510.27 293.225 502.576 300.738 501.183 310.517H537.974C536.785 300.056 529.695 293.225 519.553 293.225ZM598.643 334.06C608.908 334.06 617.26 324.884 617.26 313.603C617.26 302.325 608.908 293.147 598.643 293.147C588.378 293.147 580.026 302.325 580.026 313.603C580.026 324.884 588.378 334.06 598.643 334.06Z" fill="black"/>
<defs>
<linearGradient id="paint0_linear" x1="244.82" y1="219" x2="244.82" y2="381.712" gradientUnits="userSpaceOnUse">
<stop stop-color="#FF1B2D"/>
<stop offset="1" stop-color="#A70014"/>
</linearGradient>
<linearGradient id="paint1_linear" x1="285.692" y1="229.742" x2="285.692" y2="370.971" gradientUnits="userSpaceOnUse">
<stop stop-color="#9E0101"/>
<stop offset="1" stop-color="#FF4B4B"/>
</linearGradient>
</defs>
</svg>
