<svg width="800" height="600" viewBox="0 0 800 600" fill="none" xmlns="http://www.w3.org/2000/svg">
<path d="M218.738 237.065C214.656 237.389 212.438 237.69 209.387 238.335C184.004 243.693 164.427 264.505 160.655 290.141C160.213 293.148 160.104 294.509 160.019 298.058C159.775 308.365 161.832 317.813 166.319 326.998C175.554 345.906 193.62 358.841 214.533 361.521C221.427 362.404 229.277 362.056 236.006 360.567C261.798 354.861 281.223 333.578 284.523 307.409C287.257 285.732 278.614 264.309 261.643 250.697C251.708 242.729 239.774 238.06 226.928 237.117C225.195 236.99 220.091 236.957 218.738 237.065V237.065ZM203.858 270.562C205.879 270.735 208.394 271.229 210.097 271.785C212.718 272.643 216.084 274.517 218.287 276.345L219.202 277.104L216.055 281.37C214.324 283.718 212.869 285.679 212.82 285.732C212.772 285.784 212.24 285.49 211.653 285.086C208.478 282.902 205.633 281.978 202.084 281.978C199.859 281.978 198.637 282.231 197.033 283.025C193.596 284.727 191.652 288.121 190.726 294.031L190.481 295.601V299.833V304.065L190.726 305.594C191.239 308.788 192.148 311.226 193.487 312.992C194.656 314.536 196.432 315.7 198.562 316.315L199.627 316.623H202.016H204.405L205.62 316.303C206.288 316.126 207.344 315.768 207.967 315.507C208.964 315.089 211.43 313.753 212.39 313.112L212.731 312.883L215.905 317.443C217.654 319.954 219.079 322.063 219.079 322.138C219.079 322.547 215.68 324.766 213.318 325.899C210.847 327.085 208.923 327.71 206.111 328.241C204.588 328.528 199.367 328.651 197.552 328.442C189.757 327.544 183.641 323.96 179.598 317.92C177.239 314.398 175.735 310.167 175.037 305.089C174.713 302.739 174.714 297.253 175.039 294.782C175.94 287.916 178.467 282.218 182.453 278.06C186.895 273.426 191.736 271.182 198.739 270.511C199.829 270.406 202.329 270.431 203.858 270.562ZM236.173 273.992C242.581 300.611 246.6 316.944 246.689 316.733C246.776 316.528 258.121 272.229 258.121 272.095C258.121 272.072 261.56 272.054 265.779 272.054H273.437L273.359 272.354C272.98 273.815 255.232 328.646 254.699 330.001C251.579 337.946 246.277 343.756 239.446 346.718C236.857 347.84 233.931 348.672 230.819 349.171C228.566 349.532 226.294 349.757 226.173 349.631C226.115 349.571 225.725 347.195 225.304 344.341C224.758 340.642 224.582 339.134 224.69 339.065C224.771 339.013 225.195 338.93 225.618 338.882C226.854 338.742 229.549 338.152 230.982 337.708C232.907 337.111 234.416 336.432 235.665 335.6C236.852 334.809 238.903 332.784 238.803 332.5C238.63 332.008 220.18 272.745 220.1 272.422L220.007 272.054H227.857H235.706L236.173 273.992" fill="black"/>
<path d="M570.111 244.152C566.821 244.795 564.373 247.053 563.565 250.189C563.284 251.278 563.281 253.698 563.558 254.872C564.077 257.069 565.73 259.152 567.722 260.116C572.377 262.371 578.026 260.807 580.202 256.66C580.951 255.232 581.136 254.285 581.071 252.223C581.008 250.176 580.757 249.274 579.861 247.855C578.353 245.467 575.844 244.135 572.636 244.021C571.653 243.986 570.709 244.035 570.111 244.152Z" fill="black"/>
<path d="M319.959 270.801C317.434 271.266 314.35 272.545 312.274 273.988C310.991 274.88 309.428 276.276 308.34 277.503L307.469 278.485L307.155 275.659C306.982 274.103 306.814 272.696 306.78 272.527L306.718 272.219H300.302H293.886V310.92V349.62L294.262 349.613C294.469 349.609 297.736 349.253 301.531 348.821L308.424 348.036L308.459 335.43L308.493 322.823L309.694 323.981C312.031 326.233 314.431 327.484 317.816 328.215L319.209 328.515H322.007H324.805L326.198 328.212C328.764 327.653 330.746 326.835 332.723 325.518C338.866 321.425 342.648 313.786 343.567 303.616C343.748 301.615 343.748 297.132 343.566 294.675C342.734 283.4 338.929 275.723 332.586 272.522C331.425 271.936 329.583 271.309 328.041 270.975C326.225 270.582 321.679 270.484 319.959 270.801V270.801ZM321.324 281.764C324.863 282.871 326.979 286.007 327.872 291.467C328.665 296.313 328.579 303.579 327.679 307.848C326.585 313.036 324.009 316.321 320.232 317.346C319.017 317.676 316.397 317.68 315.182 317.353C313.011 316.771 310.951 315.373 309.398 313.431L308.493 312.298V300.368V288.436L309.21 287.386C310.181 285.966 312.285 283.865 313.571 283.032C314.758 282.262 316.092 281.69 317.134 281.503C318.198 281.311 320.294 281.442 321.324 281.764" fill="black"/>
<path d="M377.566 270.721C376.105 270.906 374.97 271.252 373.539 271.946C370.364 273.489 367.88 276.166 366.048 280.015C365.639 280.875 365.264 281.739 365.212 281.947C365.16 282.152 365.066 282.354 365.007 282.391C364.862 282.483 364.833 282.295 364.167 276.903L363.587 272.221H357.199H350.81V299.59V326.96H358.182H365.553V312.798V298.635L366.022 296.86C367.842 289.981 370.298 286.547 374.29 285.303L375.314 284.984L377.361 284.991C378.945 284.996 379.715 285.066 380.76 285.298C381.497 285.462 382.13 285.58 382.153 285.557C382.221 285.489 384.658 271.491 384.61 271.443C384.58 271.413 383.845 271.244 382.985 271.069C381.197 270.707 378.864 270.557 377.566 270.721" fill="black"/>
<path d="M406.233 270.787C397.54 271.984 390.784 277.681 387.469 286.609C384.26 295.25 384.605 307.293 388.279 314.975C389.612 317.76 391.179 319.943 393.36 322.051C396.859 325.435 401.127 327.403 406.847 328.271C409.167 328.623 414.664 328.626 416.88 328.277C422.381 327.41 427.215 325.386 431.65 322.092L432.852 321.2L432.543 320.763C432.234 320.326 426.85 313.017 426.77 312.928C426.744 312.898 426.081 313.276 425.303 313.764C422.313 315.64 419.332 316.901 416.88 317.325C412.061 318.159 407.801 317.31 404.908 314.937C402.542 312.997 401.049 309.597 400.426 304.737L400.335 304.027H417.46H434.585L434.753 300.86C435.186 292.67 433.806 285.983 430.631 280.889C427.04 275.127 421.576 271.73 414.382 270.79C412.416 270.532 408.089 270.531 406.233 270.787V270.787ZM413.263 280.902C415.912 281.614 417.869 283.442 419.02 286.281C419.754 288.091 420.115 290.035 420.247 292.875L420.334 294.745H410.341H400.349L400.438 293.967C401.176 287.483 402.714 283.866 405.523 282.009C406.501 281.362 407.666 280.887 408.758 280.691C409.717 280.517 412.28 280.637 413.263 280.902Z" fill="black"/>
<path d="M457.56 270.721C448.577 271.806 442.226 276.424 440.324 283.251L440.032 284.302L440.039 286.964L440.046 289.626L440.407 290.991C441.77 296.139 445.547 299.82 452.099 302.388C452.889 302.697 454.911 303.35 456.604 303.841C464.699 306.193 466.841 307.304 467.887 309.693C468.066 310.104 468.127 310.608 468.132 311.74L468.139 313.242L467.69 314.157C466.304 316.977 462.187 318.387 457 317.819C453.232 317.406 449.829 316.108 446.257 313.722C445.356 313.12 444.588 312.628 444.55 312.628C444.441 312.628 437.356 320.545 437.356 320.668C437.356 320.727 437.902 321.217 438.558 321.745C442.755 325.126 447.881 327.285 453.888 328.203L455.853 328.503L459.403 328.516C463.143 328.529 464.276 328.429 467.143 327.833C470.31 327.175 473.594 325.85 475.947 324.281C477.326 323.362 479.42 321.392 480.341 320.149C482.661 317.015 483.656 313.174 483.231 308.983C482.635 303.099 479.947 299.455 473.995 296.465C471.856 295.39 469.886 294.658 465.887 293.453C458.406 291.199 455.965 289.97 455.082 288.015L454.761 287.305L454.768 286.145L454.775 284.985L455.136 284.288C455.866 282.882 457.437 281.856 459.498 281.44C461.004 281.137 463.825 281.162 465.791 281.496C468.576 281.971 471.703 283.129 474.418 284.692C475.156 285.117 475.799 285.462 475.852 285.462C475.904 285.462 477.2 283.579 478.725 281.285L481.503 277.108L481.162 276.839C480.001 275.925 477.722 274.53 476.07 273.724C473.183 272.314 470.787 271.549 467.457 270.975L465.818 270.692L462.201 270.645C460.208 270.618 458.124 270.652 457.56 270.721" fill="black"/>
<path d="M507.112 270.724C502.976 271.227 499.176 272.542 496.205 274.497C494.622 275.539 492.503 277.698 491.552 279.237C490.09 281.605 489.46 283.905 489.457 286.895C489.451 293.447 492.583 298.11 499.126 301.288C501.3 302.343 502.826 302.896 506.471 303.948C512.422 305.667 514.762 306.655 516.204 308.059C517.139 308.97 517.516 309.774 517.684 311.207C518.036 314.243 516.108 316.547 512.368 317.559L511.276 317.855L508.682 317.861L506.088 317.869L504.655 317.56C501.42 316.863 498.726 315.706 495.823 313.764C494.881 313.134 494.056 312.631 494.001 312.654C493.944 312.676 492.307 314.469 490.349 316.653L486.8 320.612L487.101 320.94C487.577 321.458 489.898 323.163 491.182 323.938C494.907 326.187 499.591 327.752 504.382 328.349C506.552 328.619 512.257 328.579 514.211 328.278C523.998 326.774 530.415 322.064 532.335 314.974L532.694 313.65V310.715V307.78L532.341 306.484C531.596 303.74 530.737 302.141 529.088 300.422C526.649 297.881 522.974 295.849 517.965 294.271C511.576 292.258 509.058 291.388 507.699 290.72C505.87 289.823 504.955 288.99 504.516 287.823L504.218 287.031L504.277 285.939C504.389 283.836 505.501 282.572 508.027 281.676L509.091 281.298L511.89 281.305L514.688 281.311L516.313 281.694C517.2 281.902 518.47 282.261 519.111 282.484C520.317 282.904 523.22 284.268 524.612 285.068C525.036 285.312 525.416 285.488 525.445 285.455C525.475 285.421 526.739 283.537 528.25 281.27L531.001 277.148L530.428 276.681C529.565 275.979 527.411 274.615 526.073 273.925C523.458 272.576 519.903 271.439 516.668 270.918C515.002 270.649 508.768 270.523 507.112 270.724" fill="black"/>
<path d="M610.518 270.787C603.146 271.822 597.332 275.333 593.452 281.093C592.373 282.694 590.915 285.735 590.243 287.782C587.855 295.058 587.924 304.942 590.414 312.217C592.583 318.552 596.689 323.315 602.3 326.004C605.773 327.668 609.016 328.4 613.589 328.553C622.735 328.859 630.185 325.677 635.058 319.384C639.825 313.231 641.845 304.123 640.676 294.062C639.841 286.881 637.318 281.295 633.028 277.129C629.65 273.849 625.725 271.916 620.551 270.985L618.845 270.678L615.364 270.637C612.906 270.608 611.481 270.652 610.518 270.787V270.787ZM618.025 281.966C620.628 282.809 622.369 284.438 623.7 287.277C625.205 290.489 625.965 296.369 625.622 302.157C625.249 308.463 624.141 312.101 621.804 314.688C619.78 316.931 616.674 317.983 613.371 317.545C608.282 316.872 605.296 313.159 604.244 306.197C603.459 300.996 603.754 293.808 604.92 289.789C605.889 286.444 607.464 284.136 609.685 282.807C611.306 281.837 612.811 281.5 615.227 281.566L616.933 281.612L618.025 281.966" fill="black"/>
<path d="M564.992 299.59V326.96H579.598V272.221H572.295H564.992V299.59" fill="black"/>
<path d="M545.198 311.198C542.277 311.963 539.743 314.49 538.978 317.403C538.695 318.481 538.658 320.706 538.907 321.771C539.003 322.18 539.335 323.048 539.635 323.676L540.188 324.829L541.362 326.003C543.297 327.938 545.253 328.689 547.997 328.55C550.344 328.432 552.121 327.655 553.744 326.04C556.45 323.344 557.141 319.205 555.461 315.765C554.754 314.318 553.03 312.584 551.614 311.895C551.054 311.623 550.218 311.303 549.771 311.189C548.734 310.926 546.217 310.931 545.198 311.198" fill="black"/>
</svg>
