<svg width="800" height="600" viewBox="0 0 800 600" fill="none" xmlns="http://www.w3.org/2000/svg">
<path d="M209 300.097C209 272.622 227.316 253.521 253.744 253.521C271.537 253.521 285.929 262.418 291.685 276.024C292.208 277.332 292.732 278.641 292.47 279.949C292.47 282.827 290.115 285.182 287.237 285.182H286.975C284.359 285.182 282.265 283.351 281.48 280.996C277.032 270.006 266.827 263.464 253.744 263.464C234.12 263.464 220.251 278.379 220.251 300.097C220.251 321.553 233.858 336.468 253.744 336.468C266.566 336.468 276.247 330.188 281.48 317.105C282.265 314.75 284.359 312.918 286.975 312.918C290.115 312.918 292.47 315.273 292.47 318.413C292.47 318.413 292.47 318.413 292.47 318.675C292.47 319.983 292.208 321.292 291.685 322.338C286.19 337.253 271.799 346.934 253.482 346.934C227.316 346.673 209 327.571 209 300.097Z" fill="black"/>
<path d="M358.147 339.085C358.671 342.224 356.316 344.841 353.437 345.364C353.176 345.364 352.914 345.364 352.391 345.364C348.727 345.364 346.896 343.009 346.896 339.085V231.28C346.372 228.402 348.466 225.523 351.606 225C351.867 225 352.391 225 352.652 225C356.316 225 358.147 227.355 358.147 231.28V255.876H377.51C380.127 255.614 382.743 257.446 383.005 260.063C383.005 260.324 383.005 260.586 383.005 260.848C383.005 263.464 380.912 265.819 378.295 265.819C378.033 265.819 377.772 265.819 377.51 265.819H358.147V339.085Z" fill="black"/>
<path d="M445.28 261.894C445.28 264.773 443.187 267.128 440.047 267.389C439.786 267.389 439.786 267.389 439.524 267.389C437.954 267.389 436.646 266.866 435.337 266.081C432.459 264.773 429.319 263.988 426.179 264.249C414.143 264.249 406.293 274.716 406.293 287.799V339.085C406.293 343.009 404.461 345.364 400.798 345.364C397.658 345.626 395.303 343.271 395.041 340.131C395.041 339.87 395.041 339.346 395.041 339.085V261.109C394.518 258.231 396.611 255.353 399.751 254.829C400.013 254.829 400.536 254.829 400.798 254.829C404.461 254.829 406.293 257.184 406.293 261.109V263.464C411.264 256.923 419.114 253.259 427.226 253.521C432.197 253.259 437.431 254.568 441.879 256.923C443.972 257.969 445.28 259.801 445.28 261.894Z" fill="black"/>
<path d="M456.794 261.109C456.794 257.184 458.887 254.829 462.55 254.829C466.214 254.829 468.045 257.184 468.045 261.109V339.085C468.568 342.224 466.214 344.841 463.335 345.364C463.074 345.364 462.812 345.364 462.289 345.364C458.625 345.364 456.794 343.009 456.794 339.085V261.109Z" fill="black"/>
<path d="M312.231 261.109C312.231 257.184 314.324 254.829 317.987 254.829C321.651 254.829 323.482 257.184 323.482 261.109V339.085C324.006 342.224 321.651 344.841 318.772 345.364C318.511 345.364 318.249 345.364 317.726 345.364C314.062 345.364 312.231 343.009 312.231 339.085V261.109Z" fill="black"/>
<path d="M317.987 242.793C322.901 242.793 326.884 238.81 326.884 233.897C326.884 228.983 322.901 225 317.987 225C313.074 225 309.091 228.983 309.091 233.897C309.091 238.81 313.074 242.793 317.987 242.793Z" fill="black"/>
<path d="M526.919 307.162L496.043 343.271C494.996 344.841 493.426 345.626 491.595 345.626C488.716 345.626 486.361 343.271 486.1 340.393C486.1 338.823 486.623 337.515 487.67 336.468L519.854 300.097L488.978 264.249C487.931 263.203 487.146 261.633 487.146 260.063C487.146 257.184 489.501 254.829 492.641 254.829C492.641 254.829 492.641 254.829 492.903 254.829C494.735 254.829 496.305 255.614 497.351 257.184L527.181 292.247L557.01 257.184C558.057 255.876 559.627 254.829 561.458 254.829C564.337 254.568 566.953 256.923 566.953 259.801C566.953 259.801 566.953 259.801 566.953 260.063C566.953 261.633 566.168 263.203 565.122 264.249L534.246 299.835L566.43 336.206C567.477 337.253 568 338.823 568 340.131C568 343.009 565.645 345.364 562.767 345.364C560.935 345.364 559.365 344.579 558.318 343.009L526.919 307.162Z" fill="black"/>
<path d="M526.657 242.793C531.571 242.793 535.554 238.81 535.554 233.897C535.554 228.983 531.571 225 526.657 225C521.744 225 517.761 228.983 517.761 233.897C517.761 238.81 521.744 242.793 526.657 242.793Z" fill="black"/>
</svg>
