<svg width="800" height="600" viewBox="0 0 800 600" fill="none" xmlns="http://www.w3.org/2000/svg">
<path d="M155.622 344.535C113.632 344.505 102.472 344.505 99.3581 344.607L94.551 344.23C94.4202 344.573 94.3036 344.917 94.2196 345.261C94.0618 345.879 93.9881 346.514 94.0016 347.152C94.0296 348.192 94.8912 349.016 95.9324 348.999H124.666H129.587H157.968C159.299 349.003 160.458 348.092 160.771 346.799C160.833 346.511 160.864 346.219 160.864 345.927C160.76 345.48 160.634 345.041 160.49 344.607L155.622 344.535Z" fill="black"/>
<path d="M95.1027 314.141C96.6079 315.293 98.8397 314.909 103.573 313.757C105.982 313.166 107.445 312.896 108.255 312.771C106.17 315.354 103.926 317.805 101.539 320.11L101.393 320.255C95.4761 326.235 93.4518 328.539 94.1265 330.854C94.2428 331.24 94.4452 331.594 94.7182 331.892C96.431 333.823 100.21 333.086 104.59 332.245L105.037 332.162L106.366 331.903C105.795 332.359 105.182 332.89 104.57 333.397L104.237 333.668C100.448 336.761 95.3098 340.996 94.2197 345.46C94.2218 345.931 94.8373 346.673 96.6945 346.673C98.5516 346.673 99.3582 344.806 99.3582 344.806C100.988 342.191 104.59 339.221 107.528 336.802L108.182 336.273C110.622 334.28 113.393 332.017 113.456 329.879C113.436 329.035 113.058 328.238 112.418 327.688C111.673 327.174 110.776 326.928 109.874 326.993C108.054 327.09 106.243 327.344 104.466 327.75L104.123 327.823C101.891 328.238 100.48 328.456 99.6388 328.57C100.968 327.013 103.054 324.916 104.383 323.577L105.359 322.601C109.335 318.605 113.414 314.474 113.414 311.536C113.434 310.552 112.988 309.617 112.21 309.014C110.248 307.529 106.667 308.401 103.2 309.241L102.515 309.407C100.916 309.793 99.9298 310.011 99.3173 310.124C100.833 308.131 104.165 305.536 107.498 303.023L107.684 302.961C112.657 299.214 115.948 296.733 115.771 293.671C115.771 293.671 115.137 291.734 113.583 291.734C112.03 291.734 111.194 293.67 111.194 293.67C111.177 294.088 110.93 294.35 110.352 294.926C108.555 296.562 106.671 298.098 104.705 299.525L103.906 300.117C100.667 302.535 93.9297 307.477 94.0023 311.878C93.9961 312.763 94.403 313.6 95.1027 314.141Z" fill="black"/>
<path d="M123.066 267.962C122.557 268.36 122.288 268.991 122.35 269.633C122.375 270.013 122.516 270.376 122.755 270.671L123.18 271.242C123.183 271.247 123.187 271.25 123.19 271.254C123.837 272.056 125.014 272.181 125.817 271.533L132.17 266.758L137.765 262.543C138.168 262.094 138.413 261.524 138.461 260.923C138.394 260.555 138.256 260.202 138.056 259.885L137.63 259.314C136.997 258.536 135.481 258.868 135.18 258.941L135.004 259.024L134.277 259.543L133.862 259.75L130.332 262.512L128.516 263.82L127.727 264.412L124.104 267.132L123.066 267.962Z" fill="black"/>
<path d="M129.576 261.007C129.897 261.629 130.178 262.191 130.334 262.513C130.334 262.513 131.954 262.803 133.124 262.181C134.294 261.557 133.863 259.751 133.863 259.751L133.271 258.568C131.922 255.89 130.25 252.547 128.558 248.561C125.724 241.845 123.98 236.871 123.783 234.795L123.783 234.681C123.799 234.406 123.94 234.154 124.167 233.996C124.405 233.833 124.71 233.802 124.976 233.913C128.077 235.107 130.952 236.82 133.478 238.978C142.313 246.131 149.579 256.22 151.967 259.542C152.268 259.947 152.476 260.238 152.6 260.393C152.755 260.594 152.95 260.761 153.171 260.882L153.265 260.997C153.908 261.837 154.344 262.521 154.573 262.874C154.573 262.874 156.205 263.383 157.533 262.469C158.86 261.556 158.164 260.176 158.164 260.176C153.581 253.489 148.434 247.207 142.78 241.397L142.572 241.189C130.571 229.002 124.603 228.671 122.526 229.107L122.36 229.107C121.805 229.231 121.284 229.474 120.834 229.823C119.734 230.674 119.246 232.097 119.36 234.121C119.475 236.146 120.108 239.778 124.26 249.64C126.347 254.633 128.454 258.785 129.576 261.007Z" fill="black"/>
<path d="M106.592 279.586C109.572 288.088 110.61 291.15 110.828 292.115C111.077 292.899 111.207 293.329 111.193 293.662C111.193 293.662 112.028 295.408 113.581 295.408C115.135 295.408 115.77 293.662 115.77 293.662C115.728 292.914 115.51 291.627 114.243 287.776C114.005 287.029 113.704 286.177 113.527 285.638C113.351 285.098 113.164 284.558 113.039 284.164L111.368 279.71L110.641 277.634C108.492 271.53 105.813 264.035 104.142 258.035C103.274 255.24 102.717 252.358 102.481 249.44C102.479 249.119 102.649 248.821 102.927 248.661C103.054 248.589 103.196 248.549 103.342 248.547C103.503 248.568 103.657 248.628 103.789 248.724C107.952 251.375 111.784 254.511 115.208 258.066C119.765 262.644 123.16 266.173 124.105 267.211C124.105 267.211 125.382 267.561 126.641 266.813C127.9 266.065 127.727 264.491 127.727 264.491C126.118 262.716 122.62 259.021 117.429 253.914C107.848 244.436 102.481 241.519 99.491 244.156C98.318 245.194 97.8198 246.886 97.934 249.482C98.1521 254.319 100.363 262.198 106.592 279.586Z" fill="black"/>
<path d="M155.114 320.561C155.272 320.233 155.569 319.99 155.924 319.905C155.924 319.905 154.227 317.977 152.385 318.716C151.675 319.001 146.749 319.068 146.204 322.011C149.021 321.08 149.852 321.975 149.852 322.273C150.07 322.273 150.297 322.72 150.297 323.581C150.297 329.436 154.533 341.644 155.623 344.674C155.623 344.674 156.199 346.787 158.056 346.787C159.913 346.787 160.49 344.748 160.49 344.748C160.633 345.181 160.395 344.386 160.056 343.584C158.167 338.207 153.141 324.121 155.114 320.561Z" fill="black"/>
<path d="M188.467 310.792C182.81 314.572 173.435 314.572 171.473 314.572L169.49 314.572L168.452 314.572C164.29 314.437 151.615 314.156 144.961 320.23C144.345 320.73 144.144 321.584 144.473 322.307C144.819 323.211 145.601 323.876 146.549 324.07C147.247 323.975 147.889 323.632 148.356 323.105C148.749 322.667 149.274 322.368 149.851 322.253C152.26 320.201 155.923 319.887 155.923 319.887C160.175 319.115 164.499 318.821 168.816 319.015L169.231 319.015L171.588 319.015C189.443 319.003 194.696 312.203 196.274 308.134C195.598 306.182 194.155 306.349 192.89 306.76C190.859 307.421 188.467 310.792 188.467 310.792Z" fill="black"/>
<path d="M156.049 295.714C156.049 294.51 152.665 292.797 149.924 295.527C146.81 298.642 149.851 302.733 149.54 302.192C150.194 297.636 156.049 296.857 156.049 295.714Z" fill="black"/>
<path d="M155.098 255.984C155.098 255.984 154.392 262.727 154.562 262.941C160.712 270.736 163.812 274.148 163.478 273.949C166.407 275.691 169.768 276.569 173.174 276.482L185.964 276.482L194.133 276.481C194.527 286.053 202.148 289.229 205.761 290.205C204.304 294.245 201.939 297.897 198.847 300.878C193.356 306.245 185.777 307.22 180.348 307.107L180.348 307.074C178.977 307.065 166.666 306.701 157.313 299.351C156.401 298.632 155.09 298.737 154.303 299.591C153.886 300.053 153.671 300.663 153.711 301.282C153.754 301.894 154.053 302.458 154.532 302.839C160.646 307.936 170.83 311.351 180.37 311.548C183.085 311.616 185.801 311.388 188.467 310.864C188.467 310.864 192.03 310.186 196.273 308.205L196.273 308.145C198.388 307.053 200.329 305.654 202.033 303.993C215.3 290.963 211.573 274.396 211.375 273.7L211.304 273.409C211.078 272.602 210.347 272.039 209.508 272.029L177.046 272.029C177.046 272.029 165.044 273.113 158.164 260.257C157.172 258.811 156.142 257.392 155.098 255.984ZM206.653 274.301C208.694 274.301 210.349 275.957 210.349 277.998C210.353 278.892 210.074 279.764 209.549 280.488C209.295 279.115 208.694 277.829 207.804 276.751C206.765 275.876 205.505 275.304 204.162 275.101C204.887 274.58 205.759 274.3 206.653 274.301Z" fill="black"/>
<path d="M179.308 252.286C177.969 250.521 175.571 250.034 172.55 250.937C170.054 251.769 167.714 253.01 165.627 254.612L160.717 258.287L145.768 269.416L145.644 269.509C145.499 269.613 145.342 269.717 145.228 269.811C139.083 274.378 138.212 277.731 137.89 278.998C137.782 279.398 137.41 279.665 136.997 279.642L111.366 279.643C111.366 279.643 108.689 279.922 108.804 282.224C108.92 284.525 113.038 284.096 113.038 284.096L138.99 284.095C139.264 284.108 139.517 284.245 139.676 284.469C141.529 286.84 143.963 288.693 146.744 289.845C148.037 290.353 149.417 290.603 150.804 290.582C153.661 290.496 156.412 289.484 158.642 287.696C163.406 284.146 165.097 279.277 163.478 273.879C165.499 275.08 168.42 274.982 171.114 274.741C173.808 274.499 177.046 271.958 177.046 271.958C177.368 271.73 177.731 271.48 178.084 271.221C180.694 269.452 182.465 266.69 182.984 263.58C183.658 258.857 180.969 254.476 179.308 252.286ZM145.842 282.88C144.958 282.736 144.141 282.318 143.506 281.686C142.092 280.245 142.092 277.938 143.506 276.496C144.135 275.856 144.955 275.437 145.842 275.302C145.05 276.441 144.559 277.762 144.419 279.143C144.542 280.496 145.034 281.788 145.842 282.88Z" fill="black"/>
<path d="M267.9 326.51C260.495 326.51 255.262 325.907 252.734 323.39C250.758 321.403 250.446 314.299 250.404 311.376C250.393 310.687 250.942 310.119 251.632 310.106H251.652C252.118 310.106 252.546 310.362 252.765 310.773L254.336 313.716C257.706 320.03 261.742 323.567 268.139 323.567C273.61 323.567 276.804 320.28 276.804 315.484C276.804 308.203 269.408 305.478 262.667 301.599C256.697 298.238 251.226 293.859 251.226 285.029C251.226 275.429 259.475 267.773 269.825 267.773C276.638 267.773 281.131 269.063 282.566 270.499C284.002 271.934 284.938 283.178 284.938 283.178C285.024 283.827 284.568 284.423 283.919 284.509C283.877 284.515 283.835 284.519 283.794 284.52C283.351 284.507 282.95 284.251 282.754 283.854L281.225 280.734C277.917 274.118 274.537 270.551 269.336 270.551C264.967 270.551 262.272 273.837 262.272 278.123C262.272 283.76 266.735 286.621 271.947 289.398C279.228 293.361 287.85 297.397 287.85 308.421C287.84 319.188 278.167 326.51 267.9 326.51Z" fill="black"/>
<path d="M303.66 302.759C304.252 313.161 309.807 319.331 317.296 319.331C320.177 319.379 322.978 318.38 325.18 316.521C325.602 316.202 326.202 316.286 326.521 316.708C326.528 316.718 326.535 316.729 326.543 316.74C326.802 317.081 326.802 317.552 326.543 317.894C321.571 324.135 316.682 326.663 309.744 326.663C300.238 326.663 292.239 319.683 292.239 306.723C292.239 293.003 301.912 284.172 311.929 284.172C322.788 284.172 327.531 291.234 327.666 302.771L303.66 302.759ZM315.101 299.556C314.841 290.726 313.156 287.188 309.547 287.188C305.937 287.188 303.566 291.224 303.483 299.556H315.101Z" fill="black"/>
<path d="M367.314 323.953C367.442 324.47 367.159 325 366.659 325.182C364.253 325.962 361.73 326.313 359.202 326.222C355.042 326.222 351.797 324.37 350.788 320.833C347.501 324.537 344.546 326.554 339.844 326.554C335.143 326.554 330.088 323.433 330.088 317.192C330.088 310.63 333.031 308.113 341.779 305.076C344.723 304.036 347.501 303.307 350.444 302.559V297.16C350.444 290.005 348.009 288.319 344.723 288.319C344.27 288.323 343.82 288.378 343.381 288.485C342.455 298.169 340.354 300.354 337.14 300.354C334.314 300.361 332.017 298.073 332.011 295.248C332.011 295.216 332.012 295.185 332.012 295.154C332.012 290.536 339.419 284.555 350.101 284.555C359.462 284.555 363.144 288.09 363.144 296.254V320.179C363.144 322.259 364.07 323.206 365.672 323.206H366.233C366.729 323.194 367.164 323.534 367.273 324.018L367.314 323.953ZM350.465 304.983C348.936 305.519 347.448 306.165 346.012 306.916C343.058 308.517 341.301 310.537 341.301 313.824C341.301 317.777 344.161 319.368 347.687 319.368C348.623 319.379 349.557 319.265 350.465 319.035V304.983Z" fill="black"/>
<path d="M398.312 297.145C395.951 297.145 394.266 296.719 389.991 295.295C388.943 295.646 387.929 296.094 386.964 296.636V312.883C386.964 322.327 387.713 323.055 392.55 324.159C392.975 324.256 393.274 324.637 393.268 325.074C393.268 325.585 392.852 325.999 392.341 325.999C389.595 325.999 383.189 325.916 380.401 325.916C377.613 325.916 373.036 325.979 370.758 325.999C370.229 326.005 369.797 325.581 369.792 325.052V325.042C369.79 324.614 370.077 324.24 370.488 324.127L370.976 323.981C373.66 323.232 374.337 322.046 374.337 312.966V298.155C374.337 293.182 373.66 291.757 371.143 290.072L370.228 289.448C369.959 289.257 369.796 288.948 369.792 288.616C369.803 288.143 370.131 287.737 370.591 287.628L384.831 284.508C385.329 284.404 385.847 284.517 386.256 284.82C386.702 285.153 386.966 285.678 386.964 286.234V293.775C391.125 286.494 394.193 284.414 397.563 284.414C400.59 284.414 402.691 286.266 402.691 289.615C402.712 295.117 400.777 297.145 398.312 297.145Z" fill="black"/>
<path d="M434.894 317.664C435.165 318.052 435.139 318.573 434.832 318.934C430.807 323.562 425.887 326.652 419.115 326.652C409.182 326.652 401.787 318.995 401.787 307.126C401.787 294.343 410.701 284.16 422.402 284.16C430.224 284.16 435.019 288.114 435.019 292.244C434.872 295.61 432.147 298.289 428.778 298.379C425.169 298.379 422.641 295.52 421.633 287.354C421.442 287.286 421.241 287.258 421.04 287.27C416.879 287.27 413.759 291.817 413.759 300.565C413.759 312.433 418.647 319.288 426.469 319.288C428.974 319.365 431.446 318.711 433.584 317.404C434.043 317.152 434.618 317.282 434.926 317.706L434.894 317.664Z" fill="black"/>
<path d="M481.306 326.021C479.787 326.021 473.733 325.927 470.446 325.927C467.326 325.927 461.865 326.021 460.045 326.021V324.337L460.804 324.171C463.582 323.578 464.258 321.892 464.258 314.486V299.26C464.258 293.954 462.229 291.603 458.443 291.603C456.955 291.607 455.478 291.865 454.075 292.364V314.486C454.075 321.892 454.917 323.578 457.601 324.171L458.36 324.337V326.021C456.592 326.021 450.871 325.927 447.678 325.927C444.484 325.927 438.504 326.021 436.902 326.021V324.337L438.088 323.993C440.771 323.244 441.447 322.059 441.447 312.979V279.06C441.447 274.181 440.688 272.819 438.171 270.988L437.297 270.342C437.049 270.164 436.902 269.879 436.902 269.573C436.904 269.12 437.219 268.728 437.661 268.627L451.943 265.507C452.462 265.376 453.012 265.487 453.44 265.807C453.885 266.137 454.147 266.659 454.147 267.212V290.25C458.1 286.808 462.561 284.53 467.014 284.53C473.577 284.53 477.031 288.69 477.031 296.565V312.979C477.031 322.226 477.707 323.578 480.567 324.171L481.326 324.337L481.306 326.021Z" fill="black"/>
<path d="M519.716 323.953C519.844 324.47 519.562 325 519.062 325.182C516.652 325.962 514.124 326.313 511.593 326.222C507.432 326.222 504.187 324.37 503.178 320.833C499.901 324.537 496.938 326.554 492.247 326.554C487.556 326.554 482.479 323.433 482.479 317.192C482.479 310.63 485.423 308.113 494.181 305.076C497.124 304.036 499.902 303.307 502.846 302.559V297.16C502.846 290.005 500.402 288.319 497.125 288.319C496.67 288.323 496.215 288.378 495.772 288.485C494.846 298.169 492.745 300.354 489.531 300.354C486.704 300.367 484.404 298.083 484.393 295.257C484.392 295.222 484.393 295.188 484.393 295.154C484.393 290.536 491.799 284.555 502.491 284.555C511.853 284.555 515.535 288.09 515.535 296.254V320.179C515.535 322.259 516.461 323.206 518.053 323.206H518.614C519.11 323.194 519.546 323.534 519.654 324.018L519.716 323.953ZM502.846 304.983C501.313 305.519 499.822 306.165 498.384 306.917C495.44 308.519 493.672 310.537 493.672 313.824C493.672 317.777 496.532 319.368 500.069 319.368C501.005 319.377 501.938 319.264 502.846 319.035V304.983Z" fill="black"/>
<path d="M540.635 326.343C536.624 326.295 532.647 325.614 528.849 324.325L525.728 326.801C525.551 326.94 525.331 327.017 525.105 327.02C524.53 327.02 524.065 326.553 524.065 325.98V279.048C524.065 274.17 523.388 272.808 520.778 270.977L519.52 270.052V268.783L535.34 265.34L536.776 266.38V289.824C539.77 286.599 542.818 284.519 547.114 284.519C555.695 284.519 561.999 291.801 561.999 303.367C561.999 318.097 553.292 326.343 540.635 326.343ZM539.531 291.426C538.612 291.397 537.696 291.569 536.849 291.926V312.884C536.849 320.165 538.929 323.285 542.818 323.285C547.363 323.285 549.466 318.824 549.466 309.567C549.466 297.563 544.971 291.426 539.531 291.426Z" fill="black"/>
<path d="M585.537 326.022C583.935 326.022 578.256 325.928 575.021 325.928C571.786 325.928 565.337 326.022 563.735 326.022V324.338L565.004 323.994C567.615 323.328 568.281 322.06 568.281 312.979V279.06C568.281 274.182 567.521 273.007 565.004 270.989L564.193 270.354C563.967 270.162 563.835 269.881 563.829 269.585C563.827 269.128 564.143 268.73 564.588 268.628L578.776 265.507C579.277 265.404 579.799 265.509 580.222 265.799C580.704 266.146 580.99 266.702 580.991 267.296V312.979C580.991 321.977 581.751 323.38 584.268 323.994L585.537 324.338V326.022Z" fill="black"/>
<path d="M598.862 302.758C599.455 313.159 605.008 319.328 612.497 319.328C615.379 319.376 618.179 318.38 620.381 316.521C620.799 316.195 621.401 316.27 621.725 316.687C621.736 316.701 621.746 316.713 621.756 316.728C622.014 317.069 622.014 317.541 621.756 317.883C616.783 324.123 611.894 326.652 604.956 326.652C595.439 326.652 587.452 319.672 587.452 306.711C587.452 292.991 597.125 284.16 607.141 284.16C618 284.16 622.742 291.223 622.879 302.758H598.862ZM610.303 299.554C610.055 290.724 608.369 287.187 604.748 287.187C601.129 287.187 598.779 291.223 598.695 299.554H610.303Z" fill="black"/>
<path d="M633.282 326.491C629.191 326.503 625.866 323.196 625.853 319.105C625.843 315.016 629.148 311.691 633.239 311.68C637.329 311.668 640.655 314.975 640.666 319.064V319.086C640.632 323.154 637.349 326.446 633.282 326.491Z" fill="black"/>
<path d="M681.709 323.953C681.836 324.473 681.547 325.004 681.044 325.182C678.638 325.963 676.113 326.314 673.586 326.222C669.425 326.222 666.18 324.37 665.17 320.833C661.895 324.537 658.929 326.554 654.239 326.554C649.548 326.554 644.472 323.433 644.472 317.192C644.472 310.63 647.416 308.113 656.174 305.076C659.118 304.036 661.895 303.307 664.838 302.559V297.16C664.838 290.005 662.393 288.319 659.118 288.319C658.662 288.323 658.208 288.378 657.765 288.485C656.84 298.169 654.739 300.354 651.524 300.354C648.697 300.367 646.398 298.083 646.385 295.257C646.385 295.222 646.385 295.188 646.386 295.154C646.386 290.536 653.792 284.555 664.473 284.555C673.835 284.555 677.517 288.09 677.517 296.254V320.179C677.517 322.259 678.443 323.206 680.045 323.206H680.607C681.103 323.194 681.538 323.534 681.647 324.018L681.709 323.953ZM664.838 304.983C663.323 305.521 661.849 306.167 660.428 306.917C657.484 308.519 655.715 310.537 655.715 313.824C655.715 317.777 658.576 319.368 662.113 319.368C663.048 319.377 663.982 319.264 664.89 319.035L664.838 304.983Z" fill="black"/>
<path d="M705.321 326.021C703.719 326.021 698.04 325.928 694.804 325.928C691.57 325.928 685.204 326.021 683.613 326.021V324.336L684.788 323.992C687.398 323.244 688.148 322.058 688.148 312.978V298.333C688.148 293.454 687.398 291.936 684.871 290.251L683.613 289.408V288.066L699.34 284.613L700.858 285.653V313.009C700.858 322.006 701.534 323.41 704.051 324.024L705.321 324.367V326.021ZM693.786 280.068C689.417 280.068 686.296 277.29 686.296 273.421C686.296 269.552 689.417 266.691 693.786 266.691C697.946 266.691 701.191 269.552 701.191 273.421C701.191 277.29 697.998 280.068 693.786 280.068Z" fill="black"/>
</svg>
