<svg width="800" height="600" viewBox="0 0 800 600" fill="none" xmlns="http://www.w3.org/2000/svg">
<path d="M381.896 298.373C394.606 294.143 396.91 283.476 396.885 274.782C396.859 261.489 387.485 250.01 359.74 250.01L307.945 250V349.79H359.597C387.516 349.79 397.784 335.461 397.784 321.106C397.784 303.721 381.896 298.373 381.896 298.373ZM332.527 271.711H367.398L367.521 271.737C371.454 272.432 374.32 275.778 374.32 279.701C374.32 283.721 371.25 287.507 367.194 288.059L332.543 288.115L332.527 271.711ZM365.717 326.531H332.527V309.831H366.53L366.606 309.842C370.836 310.322 374.044 313.842 374.044 318.015C374.044 322.577 370.249 326.47 365.717 326.531Z" fill="#006A4D"/>
<path d="M513.758 250.021H601.278L601.227 271.793H538.08L538.141 287.88H595.071V309.77H538.141V327.175H601.298L601.283 350H513.758" fill="#006A4D"/>
<path d="M462.852 250.143H409.927V349.97H434.228V309.576L460.997 309.551C468.66 309.668 474.622 315.942 474.622 323.686V349.878L498.407 349.867L498.366 317.658C498.366 302.731 483.945 298.317 483.945 298.317C483.945 298.317 498.688 293.913 498.688 276.269C498.688 254.675 480.139 250.143 462.852 250.143ZM476.118 281.111C475.679 284.396 472.399 287.957 468.302 287.957L434.141 287.967V271.988H468.313C472.399 271.988 475.597 274.986 476.118 278.935" fill="#006A4D"/>
<path d="M292.19 325.847C291.848 325.852 258.969 326.485 247.618 325.382C229.35 323.594 222.872 310.051 222.872 299.006C222.872 285.218 232.267 275.083 246.816 273.183C253.743 272.273 291.587 272.702 291.991 272.702L292.783 272.718L292.865 250.015H292.063L249.222 250.097C244.451 250.388 236.543 250.869 228.441 254.179C220.67 257.745 213.897 263.221 208.844 270.031C202.407 278.695 199 288.989 199 299.778C199 303.18 199.271 306.547 199.817 309.78C202.898 324.912 212.824 337.443 227.051 344.176C231.853 346.291 239.266 348.82 254.203 349.663L262.254 349.831L292.114 349.857H292.905L292.987 325.837" fill="#006A4D"/>
</svg>
