<svg width="800" height="600" viewBox="0 0 800 600" fill="none" xmlns="http://www.w3.org/2000/svg">
<path d="M289.769 240H159.001V259.989H283.241V260.008C286.838 260.008 289.709 262.876 289.709 266.438V333.563L289.693 333.62C289.671 337.166 286.77 340.016 283.212 340.016H185.576C182.002 340.016 179.076 337.143 179.076 333.563V306.445C179.076 302.884 182.002 299.992 185.576 299.992H269.576V280.03H179.038C167.971 280.03 159 288.937 159 299.937V340.072C159 351.08 167.971 360 179.038 360H289.769C300.845 360 309.803 351.08 309.803 340.072V259.935C309.803 248.928 300.845 240 289.769 240" fill="#159BD7"/>
<path d="M364.057 302.235H377.646L370.914 282.175H370.728L364.057 302.235ZM383.851 268.314L399.504 314.888C401.362 320.57 402.677 321.885 405.939 321.885H409.121V330.084H374.942V321.885H377.745C380.555 321.885 382.892 321.514 382.892 320.501C382.892 319.544 382.798 318.52 382.422 317.12L380.468 310.427H361.36L360.218 314.156C359.196 317.408 358.817 318.788 358.817 320.097C358.817 321.6 362.106 321.885 364.653 321.885H367.346V330.084H339.812V321.885H343.001C346.28 321.885 347.569 320.57 349.47 314.888L365.109 268.314H383.851Z" fill="black"/>
<path d="M430.117 308.265C430.117 317.785 432.264 323.458 437.504 323.458C442.777 323.458 444.908 317.785 444.908 308.265C444.908 298.771 442.777 293.092 437.504 293.092C432.264 293.092 430.117 298.771 430.117 308.265ZM414.554 279.778C414.554 277.146 413.901 275.764 411.185 275.764H406.881V268.314H430.117V291.5C433.576 287.586 437.987 285.072 442.181 285.072C456.237 285.072 461.473 295.993 461.473 308.265C461.473 320.57 456.237 331.464 442.181 331.464C436.282 331.464 431.032 329.418 427.766 324.292L425.06 330.09H414.554V279.778Z" fill="black"/>
<path d="M482.659 308.265C482.659 317.785 484.833 323.458 490.066 323.458C495.316 323.458 497.459 317.785 497.459 308.265C497.459 298.771 495.315 293.092 490.066 293.092C484.833 293.092 482.659 298.771 482.659 308.265ZM467.102 279.778C467.102 277.146 466.443 275.764 463.753 275.764H459.436V268.314H482.659V291.5C486.135 287.586 490.529 285.072 494.743 285.072C508.798 285.072 514.048 295.993 514.048 308.265C514.048 320.57 508.798 331.464 494.743 331.464C488.844 331.464 483.594 329.418 480.322 324.292L477.595 330.09H467.102V279.778Z" fill="black"/>
<path d="M535.12 308.269C535.12 319.259 537.085 324.014 542.707 324.014C548.32 324.014 550.281 319.259 550.281 308.269C550.281 297.278 548.32 292.53 542.707 292.53C537.085 292.53 535.12 297.278 535.12 308.269ZM566.873 308.269C566.873 323.183 556.656 331.465 542.707 331.465C528.729 331.465 518.536 323.183 518.536 308.269C518.536 293.364 528.729 285.073 542.707 285.073C556.656 285.073 566.873 293.364 566.873 308.269Z" fill="black"/>
<path d="M633.655 309.023V316.288C633.655 320.57 632.726 323.103 629.164 323.103C627.014 323.103 625.992 321.507 625.992 319.544V293.927H637.49V286.47H625.992V269.165H616.701C615.942 276.884 613.516 286.47 604.151 286.47H589.544V269.165H580.279C579.523 276.884 577.083 286.47 567.729 286.47V293.927H574V317.308C574 326.814 579.337 331.464 588.968 331.464C600.233 331.464 604.701 326.447 604.701 317.308V309.023H597.233V316.288C597.233 320.569 596.287 323.103 592.739 323.103C590.565 323.103 589.543 321.507 589.543 319.543V293.927H610.456V317.308C610.456 326.814 615.768 331.464 625.419 331.464C636.655 331.464 641.162 326.447 641.162 317.308V309.023H633.655V309.023Z" fill="black"/>
</svg>
