<svg width="800" height="600" viewBox="0 0 800 600" fill="none" xmlns="http://www.w3.org/2000/svg">
<g clip-path="url(#clip0)">
<path fill-rule="evenodd" clip-rule="evenodd" d="M300.353 316.803H308.415C309.471 325.153 312.735 332.226 326.555 332.226C335.386 332.226 342.201 326.922 342.201 318.966C342.201 311.009 338.65 307.669 325.595 305.507C311.197 303.247 302.656 298.631 302.656 286.156C302.656 275.353 311.774 267.102 324.734 267.102C338.459 267.102 346.999 273.977 348.342 286.452H340.857C339.224 277.613 334.234 273.977 324.734 273.977C315.325 273.977 310.432 278.791 310.432 285.371C310.432 292.246 312.926 295.785 326.941 297.943C342.201 300.401 350.262 305.114 350.262 318.374C350.262 330.161 340.184 339.101 326.555 339.101C308.224 339.101 301.601 328.789 300.353 316.803Z" fill="#262730"/>
<path fill-rule="evenodd" clip-rule="evenodd" d="M362.4 325.45V292.442H355.2V285.615H362.4V273.432H370.367V285.615H382.075V292.442H370.367V324.668C370.367 329.644 372.575 332.082 376.604 332.082C379.102 332.082 381.019 331.693 382.749 331.009V337.836C381.119 338.419 379.198 338.909 375.934 338.909C366.816 338.909 362.4 333.446 362.4 325.45Z" fill="#262730"/>
<path fill-rule="evenodd" clip-rule="evenodd" d="M390.316 285.615H398.283V294.782C401.446 289.028 405.766 285.032 414.788 284.736V292.344C404.714 292.83 398.283 297.139 398.283 309.719V338.224H390.316V285.615Z" fill="#262730"/>
<path fill-rule="evenodd" clip-rule="evenodd" d="M454.52 307.402C454.077 296.162 448.375 291.433 440.122 291.433C431.964 291.433 426.437 297.364 425.15 307.402H454.52ZM416.605 312.864V311.115C416.605 294.263 426.302 284.703 440.122 284.703C451.734 284.703 462.677 291.615 462.677 310.455V313.937H424.859C425.245 325.542 430.717 332.372 440.987 332.372C448.761 332.372 453.272 329.445 454.329 323.497H462.295C460.565 333.737 452.216 339.102 440.891 339.102C426.684 339.102 416.605 328.562 416.605 312.864Z" fill="#262730"/>
<path fill-rule="evenodd" clip-rule="evenodd" d="M500.818 320.379V313.585H493.908C483.025 313.508 476.438 316.273 476.438 323.78C476.438 329.048 478.936 332.664 485.942 332.664C494.386 332.664 500.818 328.279 500.818 320.379ZM468.472 323.78C468.472 311.981 479.837 307.831 493.621 307.831H500.818V302.94C500.818 294.846 497.746 291.433 490.067 291.433C483.157 291.433 479.319 294.36 478.55 300.6H470.584C471.64 288.995 480.757 284.703 490.453 284.703C500.053 284.703 508.785 287.614 508.785 301.851V338.223H500.818V331.789C497.076 336.567 492.565 339.102 485.173 339.102C475.864 339.102 468.472 334.215 468.472 323.78Z" fill="#262730"/>
<path fill-rule="evenodd" clip-rule="evenodd" d="M519.373 285.578H527.339V293.384C529.646 288.606 535.114 284.703 542.315 284.703C548.747 284.703 554.41 287.436 557 294.263C560.455 287.631 567.943 284.703 574.18 284.703C583.202 284.703 591.072 290.165 591.072 304.989V338.223H583.106V304.406C583.106 295.433 579.364 291.728 572.454 291.728C565.927 291.728 559.208 296.215 559.208 305.382V338.223H551.242V304.406C551.242 295.433 547.5 291.728 540.585 291.728C534.062 291.728 527.339 296.215 527.339 305.382V338.223H519.373V285.578Z" fill="#262730"/>
<path fill-rule="evenodd" clip-rule="evenodd" d="M602.139 338.223H610.105V265.332H602.139V338.223Z" fill="#262730"/>
<path fill-rule="evenodd" clip-rule="evenodd" d="M623.085 338.207H631.051V285.597H623.085V338.207ZM621.646 270.693C621.646 267.77 624.045 265.332 626.922 265.332C629.803 265.332 632.202 267.77 632.202 270.693C632.202 273.62 629.803 276.058 626.922 276.058C624.045 276.058 621.646 273.62 621.646 270.693Z" fill="#262730"/>
<path fill-rule="evenodd" clip-rule="evenodd" d="M646.632 325.45V292.442H639.431V285.579L646.632 285.615V273.432H654.598V285.615H666.306V292.442H654.598V324.668C654.598 329.644 656.806 332.082 660.835 332.082C663.33 332.082 665.25 331.693 666.98 331.009V337.836C665.346 338.419 663.43 338.909 660.166 338.909C651.044 338.909 646.632 333.446 646.632 325.45Z" fill="#262730"/>
<path fill-rule="evenodd" clip-rule="evenodd" d="M276.355 276.022C276.355 276.062 276.355 276.062 276.355 276.103L254.186 333.801C252.708 336.514 250.476 338.215 247.208 338.215H162.474C160.441 338.215 158.325 337.203 157.169 336.15L273.566 273.673H273.605C275.199 272.782 276.913 274.321 276.355 276.022Z" fill="#FFC7C7"/>
<path fill-rule="evenodd" clip-rule="evenodd" d="M254.114 333.805C252.568 336.583 250.416 338.215 247.141 338.215H162.458C159.549 338.215 156.719 336.599 155.364 333.765L202.428 262.53C203.504 260.87 205.935 260.87 207.051 262.53L254.114 333.805Z" fill="#FF8C8C"/>
<path fill-rule="evenodd" clip-rule="evenodd" d="M252.389 336.231C251.305 337.336 249.524 338.215 247.208 338.215H162.474C159.565 338.215 156.508 336.66 155.376 333.761L133.128 276.103C132.53 274.483 134.164 272.863 135.758 273.633C135.798 273.633 135.877 273.633 135.917 273.673L252.389 336.231Z" fill="#FF4B4B"/>
</g>
<defs>
<clipPath id="clip0">
<rect x="133" y="261" width="534" height="78.1463" fill="white"/>
</clipPath>
</defs>
</svg>
