<svg width="800" height="600" viewBox="0 0 800 600" fill="none" xmlns="http://www.w3.org/2000/svg">
<path fill-rule="evenodd" clip-rule="evenodd" d="M550.364 342L506.996 298.664L547.672 258H515.751L472.295 298.664L515.789 342H550.364Z" fill="#111211"/>
<path fill-rule="evenodd" clip-rule="evenodd" d="M571.358 342H598.085V258H571.358V342Z" fill="#111211"/>
<path fill-rule="evenodd" clip-rule="evenodd" d="M449.182 342H475.909V258H449.182V342Z" fill="#111211"/>
<path fill-rule="evenodd" clip-rule="evenodd" d="M293.82 258H292.644L258.273 292.356L223.913 258H201V342H227.204V290.252L258.273 321.263L289.341 290.252V342H315.545V258H293.82Z" fill="#111211"/>
<path fill-rule="evenodd" clip-rule="evenodd" d="M432.022 258H400.854L383.581 280.909H383.585L368.999 300.256V342H395.727V302.692L432.022 258Z" fill="#111211"/>
<path fill-rule="evenodd" clip-rule="evenodd" d="M363.895 258.046L332.697 258L351.334 280.947L381.138 280.913L363.895 258.046Z" fill="#111211"/>
</svg>
