<svg width="800" height="600" viewBox="0 0 800 600" fill="none" xmlns="http://www.w3.org/2000/svg">
<path fill-rule="evenodd" clip-rule="evenodd" d="M328.795 299.049H339.765C342.48 299.006 344.516 298.221 345.874 296.695C347.209 295.278 347.878 293.534 347.878 291.463C347.833 288.977 347.035 287.179 345.48 286.066C344.254 285.085 342.48 284.595 340.159 284.595H328.795V299.049ZM321.536 278.152H340.225C344.21 278.152 347.461 279.199 349.98 281.292C353.023 283.668 354.611 287.059 354.743 291.463C354.655 297.937 351.567 302.341 345.48 304.674L356.581 325.832H347.943L338.057 305.459H328.795V325.832H321.536V278.152Z" fill="#1F222C"/>
<path fill-rule="evenodd" clip-rule="evenodd" d="M390.394 308.76L383.463 287.928H383.332L376.401 308.76H390.394ZM392.463 315.17H374.299L370.621 325.83H362.935L380.342 278.15H386.419L403.827 325.83H396.174L392.463 315.17Z" fill="#1F222C"/>
<path fill-rule="evenodd" clip-rule="evenodd" d="M411.551 278.15H418.382L440.06 312.03H440.191V278.15H447.45V325.83H440.586L418.941 291.951H418.809V325.83H411.551V278.15Z" fill="#1F222C"/>
<path fill-rule="evenodd" clip-rule="evenodd" d="M474.544 318.997C480.762 318.91 483.915 316.698 484.004 312.359C484.047 308.805 481.967 306.669 477.763 305.949C475.836 305.687 473.723 305.393 471.424 305.066C467.307 304.39 464.176 302.875 462.03 300.52C459.818 298.1 458.713 295.157 458.713 291.691C458.713 287.527 460.103 284.169 462.884 281.618C465.577 279.09 469.398 277.803 474.347 277.76C480.303 277.89 485.482 279.537 489.882 282.697L485.842 288.65C482.251 286.295 478.299 285.074 473.985 284.987C471.752 284.987 469.89 285.542 468.402 286.655C466.847 287.81 466.047 289.532 466.004 291.822C466.004 293.195 466.54 294.438 467.614 295.549C468.686 296.684 470.405 297.468 472.77 297.904C474.084 298.123 475.879 298.373 478.156 298.657C482.645 299.267 485.963 300.869 488.109 303.464C490.232 306.014 491.295 308.98 491.295 312.359C491.054 321.472 485.448 326.094 474.478 326.224C467.384 326.224 461.285 324.044 456.183 319.684L460.946 314.255C464.756 317.374 469.289 318.954 474.544 318.997Z" fill="#1F222C"/>
<path fill-rule="evenodd" clip-rule="evenodd" d="M533.834 312.488C532.782 316.914 530.779 320.315 527.823 322.691C524.779 325.045 521.178 326.223 517.017 326.223C513.251 326.136 510.109 325.22 507.59 323.476C505.029 321.797 503.167 319.857 502.007 317.655C501.657 316.935 501.339 316.248 501.054 315.594C500.792 314.919 500.572 314.069 500.398 313.044C500.069 311.125 499.905 307.441 499.905 301.99C499.905 296.453 500.069 292.747 500.398 290.872C500.748 288.996 501.284 287.482 502.007 286.326C503.167 284.124 505.029 282.162 507.59 280.44C510.109 278.696 513.251 277.802 517.017 277.758C521.638 277.802 525.403 279.164 528.316 281.846C531.228 284.549 533.067 287.895 533.834 291.885H526.148C525.557 289.967 524.484 288.332 522.93 286.98C521.308 285.693 519.338 285.029 517.017 284.985C515.309 285.029 513.842 285.366 512.616 285.999C511.368 286.653 510.361 287.471 509.594 288.452C508.653 289.477 508.028 290.795 507.722 292.408C507.372 294.109 507.197 297.303 507.197 301.99C507.197 306.678 507.372 309.85 507.722 311.507C508.028 313.164 508.653 314.504 509.594 315.529C510.361 316.51 511.368 317.306 512.616 317.916C513.842 318.636 515.309 318.996 517.017 318.996C521.09 318.996 524.134 316.826 526.148 312.488H533.834Z" fill="#1F222C"/>
<path fill-rule="evenodd" clip-rule="evenodd" d="M544.372 278.15H574.951V284.985H551.631V298.589H571.535V304.999H551.631V318.996H574.951V325.83H544.372V278.15Z" fill="#1F222C"/>
<path fill-rule="evenodd" clip-rule="evenodd" d="M586.293 278.15H593.124L614.802 312.03H614.933V278.15H622.192V325.83H615.327L593.682 291.951H593.551V325.83H586.293V278.15Z" fill="#1F222C"/>
<path fill-rule="evenodd" clip-rule="evenodd" d="M641.363 318.996H650.034C654.107 318.996 657.063 317.611 658.901 314.843C659.712 313.818 660.226 312.52 660.445 310.95C660.643 309.403 660.741 306.503 660.741 302.252C660.741 298.11 660.643 295.145 660.445 293.357C660.183 291.57 659.559 290.119 658.573 289.008C656.558 286.239 653.712 284.898 650.034 284.985H641.363V318.996ZM634.104 278.15H650.855C657.336 278.195 662.197 280.876 665.437 286.196C666.598 287.983 667.331 289.858 667.639 291.82C667.879 293.782 668 297.172 668 301.99C668 307.114 667.813 310.69 667.441 312.717C667.266 313.742 667.003 314.657 666.653 315.463C666.281 316.248 665.832 317.066 665.307 317.916C663.905 320.163 661.956 322.015 659.46 323.476C656.986 325.046 653.953 325.83 650.362 325.83H634.104V278.15Z" fill="#1F222C"/>
<path fill-rule="evenodd" clip-rule="evenodd" d="M141.288 310.818C141.209 310.36 141.137 309.902 141.071 309.444C140.753 307.237 138.698 305.707 136.48 306.021C134.263 306.338 132.723 308.385 133.042 310.593C133.118 311.12 133.201 311.648 133.291 312.175C134.371 318.481 136.423 324.529 139.391 330.15C140.116 331.524 141.526 332.311 142.984 332.311C143.62 332.311 144.266 332.161 144.868 331.845C146.851 330.808 147.613 328.367 146.571 326.392C144.001 321.525 142.224 316.285 141.288 310.818Z" fill="#3333FF"/>
<path fill-rule="evenodd" clip-rule="evenodd" d="M152.639 266.566C153.695 266.566 154.751 266.158 155.545 265.344C159.757 261.036 164.625 257.513 170.012 254.874C172.022 253.89 172.85 251.469 171.861 249.468C170.873 247.466 168.441 246.642 166.432 247.626C160.21 250.674 154.592 254.74 149.732 259.712C148.17 261.31 148.205 263.867 149.81 265.423C150.599 266.186 151.619 266.566 152.639 266.566Z" fill="#3333FF"/>
<path fill-rule="evenodd" clip-rule="evenodd" d="M184.315 250.262L184.512 250.229C190.402 249.241 196.425 249.254 202.253 250.264C202.488 250.305 202.722 250.325 202.952 250.325C204.888 250.325 206.601 248.941 206.944 246.978C207.328 244.78 205.85 242.689 203.643 242.307C196.875 241.135 189.874 241.126 183.044 242.284L182.913 242.308C180.772 242.717 179.329 244.747 179.673 246.906C180.025 249.11 182.102 250.611 184.315 250.262Z" fill="#3333FF"/>
<path fill-rule="evenodd" clip-rule="evenodd" d="M144.972 272.037C142.993 270.993 140.538 271.744 139.49 273.715C136.229 279.848 134.065 286.419 133.06 293.25C132.735 295.456 134.268 297.507 136.484 297.831C136.683 297.859 136.882 297.874 137.078 297.874C139.057 297.874 140.79 296.429 141.085 294.421C141.957 288.506 143.832 282.811 146.659 277.496C147.707 275.524 146.952 273.081 144.972 272.037Z" fill="#3333FF"/>
<path fill-rule="evenodd" clip-rule="evenodd" d="M245.243 293.177C245.319 293.622 245.389 294.064 245.453 294.508C245.745 296.519 247.479 297.97 249.462 297.97C249.655 297.97 249.85 297.956 250.047 297.928C252.264 297.609 253.802 295.562 253.482 293.354C253.408 292.844 253.327 292.333 253.239 291.821C252.157 285.497 250.098 279.435 247.117 273.801C246.073 271.828 243.621 271.072 241.638 272.11C239.656 273.15 238.896 275.592 239.94 277.565C242.521 282.444 244.305 287.696 245.243 293.177Z" fill="#3333FF"/>
<path fill-rule="evenodd" clip-rule="evenodd" d="M231.016 338.619C226.808 342.931 221.944 346.459 216.558 349.101C214.549 350.088 213.723 352.509 214.714 354.509C215.42 355.935 216.859 356.763 218.355 356.763C218.957 356.763 219.569 356.629 220.145 356.346C226.364 353.294 231.978 349.223 236.834 344.247C238.395 342.647 238.358 340.091 236.752 338.536C235.145 336.983 232.577 337.019 231.016 338.619Z" fill="#3333FF"/>
<path fill-rule="evenodd" clip-rule="evenodd" d="M220.19 247.7C218.184 246.709 215.75 247.528 214.756 249.527C213.762 251.525 214.583 253.948 216.59 254.938C221.992 257.601 226.862 261.13 231.067 265.425C231.862 266.237 232.917 266.644 233.972 266.644C234.993 266.644 236.015 266.263 236.803 265.498C238.407 263.941 238.44 261.384 236.876 259.788C232.03 254.837 226.416 250.77 220.19 247.7Z" fill="#3333FF"/>
<path fill-rule="evenodd" clip-rule="evenodd" d="M202.124 353.751C196.185 354.76 190.104 354.748 184.236 353.726C182.029 353.339 179.928 354.81 179.542 357.008C179.156 359.204 180.631 361.297 182.838 361.681C186.259 362.278 189.758 362.58 193.236 362.58C196.647 362.58 200.096 362.288 203.441 361.721L203.596 361.694C205.803 361.311 207.241 359.225 206.856 357.028C206.47 354.831 204.332 353.37 202.124 353.751Z" fill="#3333FF"/>
<path fill-rule="evenodd" clip-rule="evenodd" d="M169.901 349.039C164.502 346.371 159.634 342.839 155.433 338.54C153.871 336.942 151.303 336.907 149.698 338.462C148.092 340.018 148.057 342.574 149.62 344.172C154.462 349.128 160.073 353.199 166.295 356.274C166.875 356.56 167.489 356.695 168.095 356.695C169.587 356.695 171.023 355.872 171.731 354.452C172.727 352.454 171.908 350.031 169.901 349.039Z" fill="#3333FF"/>
<path fill-rule="evenodd" clip-rule="evenodd" d="M250.051 306.119C247.834 305.796 245.775 307.326 245.452 309.532C244.586 315.45 242.715 321.146 239.893 326.462C238.847 328.434 239.603 330.878 241.584 331.92C242.189 332.238 242.837 332.388 243.476 332.388C244.931 332.388 246.338 331.606 247.065 330.236C250.321 324.102 252.479 317.529 253.479 310.698C253.802 308.491 252.267 306.441 250.051 306.119Z" fill="#3333FF"/>
<path fill-rule="evenodd" clip-rule="evenodd" d="M168.615 275.213C174.332 269.981 181.435 266.756 189.155 265.884C191.881 265.577 194.658 265.576 197.355 265.878C199.583 266.134 201.589 264.535 201.84 262.319C202.092 260.103 200.491 258.104 198.265 257.853C194.966 257.482 191.572 257.484 188.242 257.86C178.802 258.924 170.117 262.869 163.126 269.266C161.476 270.775 161.368 273.33 162.884 274.972C163.684 275.839 164.776 276.278 165.871 276.278C166.852 276.278 167.835 275.926 168.615 275.213Z" fill="#3333FF"/>
<path fill-rule="evenodd" clip-rule="evenodd" d="M193.236 346.422C194.914 346.422 196.614 346.326 198.293 346.137L198.379 346.127C200.604 345.869 202.197 343.864 201.938 341.649C201.679 339.434 199.671 337.852 197.44 338.105L197.376 338.112C196.003 338.267 194.61 338.346 193.236 338.346C184.133 338.346 175.392 334.951 168.622 328.787C166.97 327.281 164.404 327.397 162.892 329.041C161.38 330.687 161.495 333.241 163.148 334.746C171.416 342.276 182.102 346.422 193.236 346.422Z" fill="#3333FF"/>
<path fill-rule="evenodd" clip-rule="evenodd" d="M211.21 270.367C220.428 275.568 226.922 284.437 229.027 294.699C229.419 296.611 231.109 297.93 232.996 297.93C233.265 297.93 233.538 297.903 233.812 297.847C236.007 297.401 237.423 295.268 236.974 293.083C234.401 280.533 226.468 269.693 215.21 263.34C213.261 262.241 210.786 262.922 209.681 264.862C208.577 266.802 209.261 269.266 211.21 270.367Z" fill="#3333FF"/>
<path fill-rule="evenodd" clip-rule="evenodd" d="M158.038 281.612C156 280.686 153.594 281.58 152.663 283.608C149.999 289.416 148.648 295.593 148.648 301.968C148.648 303.638 148.744 305.331 148.934 307C149.465 311.662 150.719 316.176 152.661 320.415C153.342 321.9 154.814 322.777 156.354 322.777C156.917 322.777 157.49 322.66 158.035 322.412C160.073 321.486 160.971 319.09 160.041 317.061C158.454 313.599 157.429 309.907 156.995 306.09C156.839 304.722 156.76 303.335 156.76 301.968C156.76 296.759 157.864 291.711 160.042 286.963C160.973 284.934 160.076 282.539 158.038 281.612Z" fill="#3333FF"/>
<path fill-rule="evenodd" clip-rule="evenodd" d="M236.996 310.818C237.442 308.633 236.024 306.501 233.829 306.057C231.635 305.612 229.493 307.024 229.047 309.21C226.946 319.5 220.475 328.39 211.292 333.601C209.346 334.705 208.668 337.172 209.776 339.109C210.525 340.416 211.894 341.149 213.304 341.149C213.985 341.149 214.675 340.978 215.309 340.618C226.525 334.254 234.43 323.393 236.996 310.818Z" fill="#3333FF"/>
<path fill-rule="evenodd" clip-rule="evenodd" d="M192.793 322.178C181.614 321.918 172.731 312.652 172.991 301.521C173.117 296.14 175.348 291.123 179.272 287.394C183.195 283.665 188.327 281.677 193.738 281.806C199.143 281.931 204.182 284.152 207.927 288.059C211.672 291.965 213.666 297.08 213.54 302.462C213.279 313.593 203.977 322.455 192.793 322.178ZM221.65 302.65C221.826 295.112 219.036 287.949 213.796 282.482C208.554 277.014 201.498 273.907 193.927 273.732C186.352 273.566 179.162 276.333 173.671 281.551C168.179 286.77 165.058 293.795 164.881 301.333C164.517 316.916 176.953 329.889 192.604 330.252C192.83 330.258 193.055 330.26 193.28 330.26C200.603 330.26 207.533 327.495 212.861 322.432C218.352 317.213 221.473 310.189 221.65 302.65Z" fill="#3333FF"/>
<path fill-rule="evenodd" clip-rule="evenodd" d="M291.696 284.593H278.591V278.15H312.093V284.593H298.988V325.83H291.696V284.593Z" fill="#1F222C"/>
</svg>
