<svg width="800" height="600" viewBox="0 0 800 600" fill="none" xmlns="http://www.w3.org/2000/svg">
<path d="M210.767 317.913H193.478C174.287 317.913 163.949 295.395 176.485 280.838L218.491 232H284.678L210.767 317.913Z" fill="#191B1F"/>
<path d="M210.767 317.914L199.657 330.926C187.18 345.482 197.518 368 216.709 368H249.03L291.868 317.973H210.767V317.914Z" fill="#191B1F"/>
<path d="M330.73 258.439V318.982C330.73 325.161 332.632 330.687 336.256 334.727C339.939 338.827 345.049 340.966 350.456 340.966C353.605 340.966 358.239 340.134 361.329 338.708L355.328 325.756C353.724 326.231 352.06 326.587 350.396 326.587C348.911 326.587 347.544 325.993 346.653 325.043C345.762 324.092 344.99 322.963 344.99 321.121V258.439H330.73Z" fill="#191B1F"/>
<path d="M603.441 339.777H589.063V277.57H603.441V282.68C607.897 277.57 616.631 274.659 628.276 279.947L623.285 290.879C617.641 289.156 612.412 290.107 608.551 293.315C603.203 297.771 603.441 303.415 603.441 303.415V339.777Z" fill="#191B1F"/>
<path d="M442.013 318.98V291.947H428.823V278.816H436.547C439.815 278.816 442.013 276.083 442.013 273.35V260.873H456.391V278.816H477.245C480.097 278.816 482.711 276.499 482.711 273.35V260.873H497.09V278.816H511.468V291.947H497.09V321.178C497.09 324.446 499.823 326.644 502.496 326.644C505.467 326.644 507.487 325.813 507.428 325.813L513.488 338.943C510.161 340.191 505.705 340.963 502.556 340.963C497.149 340.963 492.039 338.824 488.356 334.725C484.672 330.685 482.83 325.159 482.83 318.98V291.947H456.51V321.178C456.51 324.446 459.421 326.644 461.917 326.644C464.887 326.585 466.848 325.813 466.848 325.813C466.848 325.813 472.968 338.943 472.908 338.943C469.462 340.25 465.065 341.023 461.917 341.023C456.51 341.023 451.4 338.884 447.717 334.784C443.855 330.685 442.013 325.159 442.013 318.98Z" fill="#191B1F"/>
<path d="M393.531 275.785C375.944 275.785 362.457 290.817 362.457 308.403C362.457 325.99 376.004 341.022 393.531 341.022C405.711 341.022 412.781 339.299 421.634 333.654L416.287 322.188C409.751 327.238 402.324 328.426 393.65 327.891C385.213 327.357 378.856 322.128 377.192 312.919H424.07V305.73C423.713 289.51 409.81 275.785 393.531 275.785ZM377.43 302.106C379.153 294.382 384.738 288.322 393.531 288.322C403.097 288.322 408.147 294.857 409.335 302.106H377.43Z" fill="#191B1F"/>
<path d="M547.829 275.785C530.243 275.785 516.756 290.817 516.756 308.403C516.756 325.99 530.302 341.022 547.829 341.022C560.009 341.022 567.079 339.299 575.932 333.654L570.585 322.188C564.049 327.238 556.622 328.426 547.948 327.891C539.511 327.357 533.154 322.128 531.49 312.919H578.309V305.73C578.011 289.51 564.109 275.785 547.829 275.785ZM531.728 302.106C533.451 294.382 538.561 288.322 547.829 288.322C557.87 288.322 562.445 294.857 563.633 302.106H531.728Z" fill="#191B1F"/>
</svg>
