<svg width="800" height="600" viewBox="0 0 800 600" fill="none" xmlns="http://www.w3.org/2000/svg">
<path d="M383.893 253.108L383.902 276.216C396.887 289.345 400.603 292.468 400.755 291.786C400.899 291.122 399.589 287.138 397.83 282.947C396.08 278.756 394.644 274.816 394.644 274.197C394.653 273.578 396.878 267.619 399.589 260.96C404.488 248.935 404.524 248.774 404.524 239.423V230H383.884L383.893 253.108Z" fill="#EF8903"/>
<path d="M367.704 234.614C363.029 236.57 358.9 238.454 358.533 238.796C358.165 239.145 359.277 242.959 361 247.276C362.732 251.592 364.707 256.035 365.398 257.147C366.098 258.26 368.727 264.219 371.258 270.384L375.852 281.602C391.817 288.206 396.636 290.028 396.87 289.903C397.103 289.777 394.276 286.654 390.579 282.948L383.866 276.217L383.884 247.949C378.814 235.78 377.082 231.975 376.768 231.652C376.454 231.32 372.37 232.657 367.704 234.614Z" fill="#FBCD01"/>
<path d="M407.217 241.435C405.179 246.738 401.527 256.026 399.086 262.075C396.645 268.123 394.653 273.571 394.662 274.19C394.662 274.809 396.044 278.749 397.74 282.939C399.427 287.13 401.033 291.68 401.321 293.035C401.599 294.39 402.236 295.306 402.73 295.054C403.241 294.803 403.627 290.639 403.636 285.407V276.209C422.724 256.987 423.433 255.999 426.897 247.716L430.549 238.967C427.417 237.692 423.486 236.068 419.78 234.534C416.083 232.999 412.565 231.761 411.982 231.77C411.398 231.779 409.254 236.131 407.217 241.435Z" fill="#818185"/>
<path d="M343.932 250.677L336.77 257.892L369.813 289.678C385.939 290.378 391.629 290.351 392.858 290.073C394.698 289.651 393.361 288.844 385.472 285.586L375.843 281.602C366.08 257.91 365.55 257.058 358.945 250.408C355.14 246.585 351.811 243.453 351.56 243.453C351.299 243.462 347.862 246.711 343.932 250.677ZM419.601 259.84L403.824 276.217C403.555 291.518 403.51 296.669 403.546 297.531C403.591 298.392 404.067 299.002 404.614 298.877C405.152 298.751 407.073 294.883 408.877 290.28L412.152 281.916C436.597 271.632 437.629 270.994 443.795 264.811C447.375 261.213 450.31 257.865 450.31 257.372C450.31 256.878 447.375 253.549 443.795 249.977C440.214 246.397 436.858 243.471 436.337 243.471C435.817 243.462 428.287 250.83 419.601 259.84Z" fill="#EF8903"/>
<path d="M331.754 266.566C331.233 267.921 329.519 271.995 327.958 275.62C325.517 281.256 325.302 282.324 326.45 282.988C327.186 283.41 331.628 285.249 336.322 287.071C341.015 288.893 349.899 292.429 356.065 294.923C362.239 297.418 367.686 299.455 368.18 299.455C368.673 299.446 372.711 297.903 377.154 296.009C381.596 294.125 385.84 292.456 386.576 292.312C387.312 292.168 388.227 292.025 388.595 291.989C388.963 291.944 389.268 291.513 389.268 291.02C389.268 290.481 385.454 290.122 379.621 290.113H369.974C350.967 271.259 349.648 270.299 342.379 267.319C338.063 265.542 334.114 264.098 333.612 264.098C333.109 264.098 332.274 265.21 331.754 266.566Z" fill="#818185"/>
<path d="M450.292 265.227C449.062 265.784 445.024 267.641 441.318 269.355C437.62 271.069 429.544 274.605 423.37 277.208L412.152 281.937C407.073 294.895 405.152 298.754 404.614 298.88C404.067 299.005 403.627 300.217 403.618 301.572C403.609 303.878 404.067 303.591 410.663 297.085L417.707 290.13H444.907C458.889 284.216 462.775 282.098 462.559 281.605C462.344 281.111 460.612 276.965 458.7 272.388C456.43 266.95 454.761 264.088 453.881 264.141C453.146 264.186 451.53 264.68 450.292 265.227Z" fill="#FBCD01"/>
<path fill-rule="evenodd" clip-rule="evenodd" d="M481.701 274.866H504.136V282.046H490.675V292.814L501.892 293.263V299.545L490.675 299.994V311.66L504.585 312.109V319.288L481.701 319.736V274.866ZM518.943 274.812L531.507 300.442L531.875 274.866H540.032V319.736H531.955L518.046 292.366L517.597 319.736L509.969 319.288L509.825 298.217C509.745 286.631 509.834 276.634 510.032 276.006C510.238 275.297 511.997 274.857 518.943 274.812ZM570.544 274.866V282.943H561.57V319.736H552.596V282.943L548.333 282.719C544.313 282.503 544.052 282.342 543.801 279.802C543.648 278.321 543.738 276.607 543.998 275.988C544.348 275.162 547.929 274.866 570.544 274.866ZM575.031 274.866H596.568V282.046H584.005V292.814H594.773V299.994H584.005V311.66H597.466V319.736H575.031V274.866ZM602.85 274.866H611.6C618.133 274.866 621.148 275.27 623.49 276.437C625.249 277.316 627.34 279.389 628.247 281.148C629.386 283.347 629.781 285.77 629.584 289.225C629.404 292.285 628.623 295.148 627.52 296.754C626.532 298.181 625.366 299.796 624.917 300.344C624.397 300.981 625.456 304.516 627.834 310.089C629.889 314.899 631.298 319.045 630.966 319.288C630.643 319.539 628.516 319.754 622.144 319.799L618.914 311.462C616.329 304.813 615.297 303.09 613.754 302.91C611.896 302.695 611.824 303.018 611.824 319.736H602.85V274.866ZM611.824 294.609C618.106 294.609 619.228 294.16 619.901 292.814C620.394 291.827 620.798 289.907 620.807 288.552C620.807 287.197 620.206 285.177 619.461 284.065C618.483 282.611 617.226 282.046 614.965 282.046H611.824V294.609ZM636.054 274.866H644.355C650.484 274.866 653.464 275.279 655.734 276.437C657.421 277.298 659.566 279.021 660.499 280.251C661.576 281.687 662.357 284.594 662.644 288.327C663.039 293.245 662.779 294.798 661.02 298.199C659.683 300.801 657.825 302.793 655.797 303.808C654.074 304.669 650.942 305.378 645.028 305.378V319.736H636.054V274.866ZM647.047 298.208C648.16 298.208 649.973 297.607 651.085 296.862C652.808 295.704 653.105 294.708 653.105 290.122C653.105 285.536 652.808 284.54 651.085 283.383C649.973 282.638 648.16 282.037 647.047 282.037C645.1 282.046 645.028 282.351 645.028 290.122C645.028 297.894 645.1 298.199 647.047 298.208ZM667.427 274.866H676.419C682.459 274.866 686.371 275.306 688.328 276.194C689.934 276.93 692.007 278.851 692.931 280.457C694.107 282.503 694.591 284.962 694.502 288.552C694.439 291.388 693.784 294.923 693.039 296.404C692.294 297.885 690.984 299.464 690.122 299.913C688.687 300.649 688.875 301.483 692.366 309.56C694.466 314.415 696.18 318.695 696.18 319.063C696.18 319.431 694.062 319.638 686.766 319.288L683.625 310.987C680.942 303.906 680.179 302.686 678.456 302.686C676.5 302.686 676.437 302.964 676.437 319.736L667.912 319.288L667.427 274.866ZM676.437 294.609C681.723 294.609 683.751 294.107 684.352 293.487C684.953 292.868 685.438 290.652 685.429 288.552C685.42 286.38 684.837 284.163 684.065 283.392C683.32 282.647 681.301 282.046 679.578 282.046H676.437V294.609ZM700.667 274.866H709.641V319.736H700.667V274.866ZM729.384 274.884C732.596 274.893 735.737 275.189 736.374 275.557C737.074 275.943 737.433 277.478 737.012 282.494L732.336 282.189C729.312 281.983 727.149 282.306 726.234 283.087C725.453 283.751 724.834 285.195 724.861 286.308C724.879 287.645 726.763 289.925 730.398 293.039C733.422 295.632 736.446 298.863 737.128 300.218C737.801 301.573 738.376 304.804 738.385 307.397C738.412 310.762 737.9 312.808 736.59 314.576C735.594 315.931 733.557 317.645 732.076 318.39C730.595 319.135 727.266 319.727 724.672 319.727C722.079 319.718 719.055 319.512 717.942 319.279C716.255 318.911 715.923 318.247 715.923 311.66L720.634 312.234C723.515 312.575 726.126 312.405 727.365 311.785C728.648 311.13 729.384 309.946 729.384 308.519C729.384 307.289 729.195 305.773 728.971 305.154C728.747 304.534 726.27 302.21 723.479 299.994C720.679 297.777 717.789 294.744 717.053 293.263C716.309 291.782 715.752 288.65 715.815 286.308C715.878 283.966 716.327 281.238 716.82 280.251C717.314 279.264 719.028 277.648 720.634 276.661C722.77 275.351 725.112 274.875 729.384 274.884ZM743.742 274.866H766.177V282.046H752.716V292.814H763.485V299.994H752.716V311.66H766.177V319.736H743.742V274.866ZM47.8071 277.011C50.275 277.164 52.7967 277.559 53.4159 277.873C54.0351 278.196 54.5466 279.766 54.5646 281.373C54.5735 282.979 54.2774 284.558 53.8915 284.89C53.5056 285.222 51.7736 285.088 50.0506 284.603C47.9238 284.011 46.111 284.038 44.4419 284.684C42.8894 285.276 41.974 286.299 41.974 287.43C41.974 288.417 42.324 289.934 42.7458 290.795C43.1765 291.657 45.6534 293.981 48.2558 295.955C50.8673 297.93 53.5415 300.658 54.2146 302.013C54.8876 303.368 55.4709 306.401 55.5068 308.743C55.5517 311.085 55.2107 314.02 54.744 315.249C54.2864 316.488 52.7428 318.408 51.307 319.521C49.8801 320.634 47.0892 321.782 45.1149 322.07C43.1406 322.357 39.6049 322.357 33 321.531V317.493C33 314.675 33.341 313.562 34.1218 313.805C34.741 314.002 36.8588 314.433 38.8331 314.765C41.4356 315.205 42.9791 314.989 44.4419 313.966C45.7072 313.078 46.461 311.642 46.4521 310.089C46.4431 308.178 44.9175 306.195 33 295.058V289.449C33 284.89 33.4038 283.338 35.1358 281.157C36.3114 279.676 38.6357 278.079 40.2959 277.594C41.9561 277.11 45.3393 276.85 47.8071 277.011ZM226.166 276.697C228.508 276.679 231.918 277.37 233.731 278.232C235.544 279.093 238.074 281.39 239.34 283.329C241.538 286.685 241.646 287.43 241.646 299.482C241.646 310.493 241.413 312.494 239.851 315.16C238.864 316.829 236.908 319.054 235.517 320.095C233.74 321.406 231.29 322.07 227.44 322.285C223.411 322.509 220.952 322.141 218.421 320.939C216.124 319.844 214.167 317.924 212.642 315.249C210.73 311.902 210.264 309.739 209.932 302.686C209.68 297.265 209.977 292.366 210.739 289.225C211.403 286.506 212.812 283.122 213.871 281.705C214.921 280.278 217.165 278.582 218.843 277.926C220.53 277.271 223.823 276.715 226.166 276.697ZM220.108 299.374C220.108 310.233 220.288 311.669 221.903 313.392C222.917 314.469 224.775 315.294 226.166 315.276C227.521 315.258 229.441 314.442 230.428 313.455C231.712 312.171 232.385 309.928 232.789 305.602C233.094 302.273 233.076 296.924 232.735 293.712C232.295 289.503 231.577 287.313 230.15 285.833C229.073 284.711 227.323 283.804 226.273 283.813C225.223 283.831 223.411 284.612 222.235 285.554C220.189 287.206 220.108 287.717 220.108 299.374ZM296.387 276.67C297.868 276.652 300.399 276.948 302.014 277.325C304.733 277.953 304.958 278.276 304.94 285.186L300.892 284.513C298.523 284.119 296.091 284.217 295.041 284.738C293.848 285.339 293.246 286.533 293.246 288.327C293.246 290.517 294.279 291.908 298.748 295.731C301.772 298.324 304.796 301.555 305.478 302.91C306.151 304.265 306.708 306.993 306.708 308.968C306.708 310.942 306.097 313.975 305.361 315.698C304.41 317.915 302.894 319.36 300.201 320.616C298.101 321.594 294.978 322.402 293.246 322.42C291.515 322.438 288.786 322.141 287.171 321.765C284.416 321.127 284.237 320.849 284.255 317.269C284.264 314.639 284.622 313.562 285.394 313.805C286.013 314.002 288.131 314.433 290.106 314.765C292.708 315.205 294.252 314.989 295.714 313.966C296.989 313.078 297.725 311.651 297.707 310.089C297.689 308.313 296.639 306.742 293.964 304.481C291.918 302.758 288.903 300.029 287.261 298.423C285.134 296.341 284.12 294.412 283.752 291.693C283.384 289.045 283.725 286.667 284.874 283.894C286.148 280.798 287.315 279.56 290.106 278.303C292.08 277.424 294.907 276.688 296.387 276.67ZM57.1132 277.559H84.1519V284.738H75.1779V322.429L66.6526 321.98L66.2039 284.738L61.9412 284.513C57.7144 284.289 57.6785 284.262 57.4004 280.924L57.1132 277.559ZM88.6389 277.559H110.177V284.738H97.6129V294.609H108.382V302.686H97.6129V314.352H111.074V322.429H88.6389V277.559ZM116.422 277.559H128.125L129.875 283.616C130.835 286.945 132.755 293.595 134.137 298.387C135.519 303.179 136.74 307.011 136.847 306.913C136.964 306.805 138.696 300.864 140.697 293.712C142.707 286.559 144.529 279.991 144.762 279.129C145.103 277.837 146.207 277.559 156.788 277.559L156.393 321.98H148.316L147.419 292.518L140.105 320.185H132.262L124.697 292.366L124.086 321.98H116.907L116.422 277.559ZM164.021 277.559L175.238 277.514L178.729 289.422C180.641 295.982 182.687 302.758 183.261 304.481C184.293 307.559 184.401 307.316 192.504 278.007L204.404 277.559L203.955 321.98L195.43 322.429L194.981 291.495L192.45 301.349C191.059 306.778 189.345 313.329 187.353 320.634L179.725 320.661L172.546 293.263L171.649 321.98L164.021 322.429V277.559ZM248.376 277.559L256.902 277.55L269.806 303.134L269.914 277.559H277.991V322.429L270.363 322.482L263.632 309.461C259.935 302.291 256.597 296.431 256.229 296.422C255.861 296.413 255.556 302.264 255.556 322.429H248.376V277.559Z" fill="#818185"/>
<path d="M323.857 299.894L323.758 310.761L369.974 309.657C380.411 299.346 383.642 296.511 383.884 296.708C384.126 296.905 385.239 295.909 386.352 294.491C388.075 292.293 388.138 291.97 386.801 292.266C385.939 292.454 382.601 293.72 379.397 295.084C376.193 296.439 372.352 298.063 370.872 298.7C368.368 299.777 367.354 299.499 356.513 294.868C345.027 289.951 344.686 289.87 334.401 289.457L323.956 289.035L323.857 299.894ZM431.716 290.076L417.178 290.57C404.318 303.205 401.267 306.831 401.958 306.974C402.631 307.109 406.911 305.592 411.479 303.609L419.78 299.992L445.805 310.761L464.202 310.313V289.672C450.292 289.601 439.711 289.798 431.716 290.076Z" fill="#EF8903"/>
<path d="M376.588 303.194L369.974 309.889L343.052 309.835C330.336 315.076 326.298 316.906 325.876 317.283C325.454 317.651 326.675 321.689 328.595 326.257C330.516 330.816 332.427 334.953 332.84 335.447C333.333 336.03 335.083 335.752 337.874 334.639C340.225 333.706 345.386 331.417 349.334 329.551C353.283 327.693 360.552 324.498 365.487 322.461C370.423 320.415 374.865 318.342 375.359 317.849C375.852 317.346 377.746 313.227 379.559 308.695C381.371 304.154 383.292 300.547 383.821 300.672C384.351 300.798 384.826 300.116 384.871 299.156C384.925 298.195 384.566 297.208 384.081 296.957C383.606 296.706 380.232 299.515 376.588 303.194Z" fill="#FBCD01"/>
<path d="M382.403 301.878C381.838 303.062 380.268 306.867 378.904 310.322C377.539 313.777 376.131 317.008 375.781 317.501C375.431 317.995 369.741 320.615 363.136 323.334C351.811 327.992 350.716 328.665 343.95 335.18L336.77 342.099L351.578 356.987L383.893 324.681C383.884 308.904 384.207 305.548 384.781 305.835C385.338 306.113 385.463 305.333 385.114 303.816C384.799 302.461 384.297 300.98 383.983 300.531C383.669 300.083 382.96 300.684 382.403 301.878Z" fill="#EF8903"/>
<path d="M411.255 303.588C406.813 305.472 402.065 307.249 400.71 307.537C399.355 307.833 398.243 308.47 398.243 308.963C398.243 309.502 402.074 309.87 407.89 309.888L417.537 309.915C436.499 328.455 437.917 329.478 445.356 332.565C449.798 334.405 453.837 335.903 454.33 335.894C454.824 335.885 456.179 333.561 457.336 330.725C458.503 327.89 460.19 323.744 461.088 321.527L462.721 317.489C449.26 312.041 439.909 308.254 433.241 305.562C426.573 302.879 420.722 300.555 420.229 300.42C419.735 300.277 415.697 301.703 411.255 303.588ZM383.732 315.173L383.875 324.668C365.559 342.939 364.76 344.034 361.413 352.039C359.448 356.723 358.156 360.833 358.524 361.156C358.9 361.488 363.145 363.409 367.955 365.419L376.705 369.089C381.066 358.311 383.041 353.16 383.902 350.693C384.773 348.225 387.366 341.557 389.672 335.885L393.872 325.565C388.219 312.356 386.504 307.878 386.424 307.097C386.343 306.316 385.67 305.67 384.934 305.67C383.812 305.67 383.606 307.258 383.732 315.173Z" fill="#818185"/>
<path d="M386.648 307.358C386.612 308.004 388.218 312.365 390.22 317.049L393.872 325.575L383.884 350.253V369.996H404.524L403.429 323.78C393.854 314.043 391.063 310.813 391.045 310.319C391.018 309.825 390.049 308.695 388.865 307.806C387.321 306.64 386.711 306.523 386.648 307.358ZM394.832 310.023C393.657 310.48 394.132 310.956 396.896 312.096C398.871 312.903 403.115 314.662 406.319 316.008L412.152 318.44C421.79 341.809 422.58 343.101 428.808 349.616C432.478 353.457 435.888 356.589 436.382 356.58C436.876 356.562 440.205 353.619 443.777 350.038C447.357 346.457 450.292 343.119 450.31 342.625C450.328 342.132 442.969 334.603 433.941 325.898L417.537 310.068C401.123 309.565 395.676 309.691 394.832 310.023Z" fill="#EF8903"/>
<path d="M391.054 310.544C391.054 310.912 393.881 314.044 397.345 317.499L403.645 323.781C403.627 346 404.004 350.478 405.072 353.619C405.87 355.961 407.692 360.404 409.11 363.491L411.704 369.099C421.09 365.07 425.335 363.248 427.184 362.459L430.549 361.023C425.218 348.154 423.172 343.613 422.562 342.626C421.952 341.639 419.367 335.788 416.801 329.623L412.152 318.423C398.664 312.841 394.429 310.903 394.034 310.517C393.63 310.131 392.804 309.835 392.185 309.844C391.566 309.862 391.063 310.176 391.054 310.544Z" fill="#FBCD01"/>
</svg>
