<svg width="800" height="600" viewBox="0 0 800 600" fill="none" xmlns="http://www.w3.org/2000/svg">
<path d="M266.811 257.111C242.045 257.111 222 277.156 222 301.922C222 326.688 242.045 346.733 266.811 346.733C291.577 346.733 311.621 326.688 311.621 301.922C311.621 277.156 291.577 257.111 266.811 257.111ZM266.811 324.372C254.428 324.372 244.361 314.305 244.361 301.922C244.361 289.539 254.428 279.472 266.811 279.472C279.194 279.472 289.261 289.539 289.261 301.922C289.261 314.305 279.194 324.372 266.811 324.372Z" fill="#007DC1"/>
<path d="M345.563 316.978C345.563 313.414 349.84 311.722 352.334 314.216C363.559 325.619 382.089 345.218 382.178 345.307C382.445 345.575 382.713 346.02 383.782 346.376C384.227 346.555 384.94 346.555 385.742 346.555H405.964C409.617 346.555 410.686 342.367 408.993 340.229L375.497 305.931L373.715 304.149C369.884 299.606 370.33 297.824 374.695 293.192L401.243 263.526C402.935 261.388 401.866 257.29 398.125 257.29H379.773C379.06 257.29 378.526 257.29 377.991 257.468C376.922 257.824 376.477 258.18 376.209 258.537C376.12 258.626 361.421 274.483 352.334 284.194C349.84 286.866 345.385 285.085 345.385 281.432V230.563C345.385 227.98 343.247 227 341.555 227H326.588C324.004 227 322.757 228.693 322.757 230.207V342.991C322.757 345.575 324.895 346.287 326.677 346.287H341.644C343.96 346.287 345.474 344.595 345.474 342.902V341.744V316.978H345.563Z" fill="#007DC1"/>
<path d="M467.791 342.457L466.187 327.49C466.009 325.441 464.049 324.016 462 324.372C460.842 324.55 459.684 324.639 458.526 324.639C446.588 324.639 436.877 315.285 436.165 303.437C436.165 303.08 436.165 302.635 436.165 302.189V283.837C436.165 281.432 437.947 279.472 440.352 279.472H460.396C461.822 279.472 463.96 278.225 463.96 275.641V261.477C463.96 258.715 462.178 257.29 460.575 257.29H440.352C438.036 257.29 436.165 255.597 436.076 253.281V230.563C436.076 229.138 435.007 227 432.245 227H417.367C415.497 227 413.715 228.158 413.715 230.474C413.715 230.474 413.715 303.08 413.715 303.437C414.339 327.668 434.205 347 458.526 347C460.575 347 462.535 346.822 464.494 346.555C466.633 346.287 468.058 344.506 467.791 342.457Z" fill="#007DC1"/>
<path d="M575.764 323.658C563.114 323.658 561.154 319.115 561.154 302.099C561.154 302.01 561.154 302.01 561.154 301.921V261.03C561.154 259.605 560.085 257.2 557.234 257.2H542.267C540.396 257.2 538.347 258.714 538.347 261.03V262.901C531.844 259.16 524.272 257.021 516.254 257.021C491.488 257.021 471.443 277.066 471.443 301.832C471.443 326.598 491.488 346.643 516.254 346.643C527.39 346.643 537.546 342.545 545.385 335.863C549.572 342.278 556.343 346.554 566.944 346.643C568.726 346.643 578.347 346.999 578.347 342.456V326.509C578.347 325.173 577.278 323.658 575.764 323.658ZM516.343 324.371C503.96 324.371 493.893 314.304 493.893 301.921C493.893 289.538 503.96 279.471 516.343 279.471C528.726 279.471 538.793 289.538 538.793 301.921C538.704 314.304 528.637 324.371 516.343 324.371Z" fill="#007DC1"/>
</svg>
