<svg width="800" height="600" viewBox="0 0 800 600" fill="none" xmlns="http://www.w3.org/2000/svg">
<path fill-rule="evenodd" clip-rule="evenodd" d="M189.588 286.148C189.314 285.916 188.954 285.763 188.664 285.604C188.112 285.302 187.634 284.882 187.156 284.475C186.182 283.651 185.334 282.646 184.626 281.59C184.248 281.03 183.951 280.421 183.562 279.867C182.848 278.842 182.095 277.807 181.303 276.844C180.592 275.975 179.708 275.089 178.628 274.709C178.055 274.509 177.252 274.414 176.653 274.563C175.114 274.95 173.447 276.101 172.806 277.64C172.017 279.537 171.911 281.613 171.873 283.642C171.834 285.77 171.882 287.919 171.483 290.018C171.373 290.582 171.22 291.129 171.016 291.664C170.919 291.92 170.809 292.168 170.698 292.418C170.278 293.372 170.777 293.41 170.926 293.461C171.159 293.54 171.407 293.547 171.648 293.536C172.572 293.497 173.391 293.21 174.251 292.904C175.146 292.593 176.044 292.299 176.946 292.026C178.761 291.468 180.592 290.967 182.412 290.436C183.407 290.148 184.455 289.81 185.447 289.513C186.929 289.066 187.512 289.086 189.246 288.186C190.45 287.561 190.014 286.825 189.919 286.587C189.847 286.411 189.728 286.27 189.588 286.148Z" fill="black"/>
<path fill-rule="evenodd" clip-rule="evenodd" d="M177.377 278.519C176.801 278.23 175.899 278.082 175.296 278.348C174.553 278.678 174.187 279.531 173.989 280.273C173.458 282.262 173.865 284.347 173.76 286.37C173.706 287.418 173.606 288.648 173.255 289.641C176.724 288.939 179.867 287.721 183.262 286.752C182.922 286.588 182.664 286.264 182.537 286.129C181.773 285.31 181.186 284.374 180.706 283.364C180.029 281.951 179.413 280.471 178.365 279.277C178.099 278.979 177.759 278.714 177.377 278.519Z" fill="#FE3937"/>
<path fill-rule="evenodd" clip-rule="evenodd" d="M192.356 294.786C184.321 294.702 175.107 295.352 167.35 295.092C167.764 288.158 167.136 280.795 164.891 274.254C169.957 273.568 175.583 273.624 180.802 273.354C185.363 273.298 190.3 273.739 194.925 273.675C193.121 280.345 192.037 287.472 192.356 294.786ZM245.164 363.767C245.164 363.767 238.939 349.649 236.37 342.651C229.443 328.539 222.956 314.227 213.595 301.075C212.054 299.28 210.769 297.35 208.781 296.325C204.354 295.364 199.555 295.409 194.925 294.916C197.702 288.539 199.152 281.095 199.409 273.844C201.049 273.837 206.869 275.459 206.21 272.099C205.708 269.545 204.392 266.855 203.335 264.486C202.304 262.166 201.153 259.894 199.971 257.643C197.528 252.992 194.629 248.622 191.329 244.532C189.459 242.213 187.43 239.949 185.23 237.934L180.186 233.714C179.277 232.879 177.954 232.6 176.98 233.855C172.171 239.079 169.125 244.35 165.85 250.572C162.884 256.216 159.904 262.367 157.359 268.222C156.748 269.628 154.075 273.669 156.351 274.881C156.736 275.086 160.77 274.76 160.777 274.659C160.145 284.766 165.174 295.213 164.994 295.213C164.313 295.213 162.023 295.285 161.335 295.323C159.067 295.447 156.615 295.49 154.404 296.016C151.963 296.592 150.433 298.882 149.052 300.79C147.403 303.075 145.85 305.257 144.483 307.736C143.077 310.292 141.741 312.884 140.456 315.507C136.582 323.401 133.116 331.511 129.606 339.571C127.51 344.389 125.919 349.399 124.29 354.385C123.811 355.86 122.147 360.89 121.242 363.534C119.46 368.728 128.027 367.533 130.452 367.706C135.118 368.035 139.855 368.046 144.53 367.941C147.799 367.868 151.063 367.792 154.332 367.718C155.89 367.684 157.449 367.659 159.004 367.612C161.611 367.535 164.218 367.428 166.823 367.333C169.932 367.216 173.023 367.166 176.135 367.166H180.841C185.129 367.166 189.414 367.178 193.702 367.167C201.479 367.149 209.233 367.148 217.001 367.524C223.457 367.835 229.905 367.877 236.365 367.77C238.446 367.736 246.74 368.561 245.164 363.767Z" fill="black"/>
<path fill-rule="evenodd" clip-rule="evenodd" d="M180.249 239.43C180.249 239.43 178.577 238.315 177.812 239.709C177.578 240.134 169.943 250.82 161.365 268.502C161.05 269.156 161.331 270.016 162.247 269.84C162.479 269.795 175.301 267.906 199.32 269.856C199.712 269.888 200.185 269.69 199.971 269.055C198.437 264.468 185.893 242.983 180.249 239.43Z" fill="#FE3937"/>
<path fill-rule="evenodd" clip-rule="evenodd" d="M191.585 266.434C191.519 266.434 191.45 266.432 191.384 266.432C190.503 266.414 187.871 266.247 188.262 264.686C188.51 263.705 190.725 263.741 191.501 263.646C192.035 263.581 192.548 263.586 193.085 263.586C193.776 263.584 195.398 263.622 195.888 264.242C196.138 264.564 196.009 265.077 196.009 265.527C196.009 265.963 193.866 266.299 193.567 266.332C192.912 266.405 192.246 266.438 191.585 266.434ZM186.006 264.881C185.884 265.192 183.909 265.266 183.574 265.325C181.545 265.68 179.446 266.256 177.38 265.873C176.649 265.736 175.208 265.129 175.352 264.168C175.536 262.954 178.695 263.187 179.513 263.172C180.303 263.156 186.671 263.138 186.006 264.881ZM170.135 257.282C170.036 256.774 170.427 256.23 170.854 255.982C171.602 255.546 172.555 255.507 173.397 255.487C174.44 255.464 175.464 255.568 176.487 255.759C177.295 255.91 178.695 255.969 179.385 256.414C179.585 256.542 179.65 256.803 179.714 257.055C179.848 257.548 176.463 258.061 176.127 258.094C174.611 258.243 171.59 259.024 170.368 257.725C170.238 257.586 170.164 257.435 170.135 257.282ZM173.552 265.012C173.516 265.279 171.766 265.59 171.458 265.662C170.746 265.822 170.025 265.963 169.3 266.049C167.768 266.236 165.05 266.467 164.121 264.881C163.811 264.348 164.81 263.563 165.201 263.442C165.764 263.264 166.384 263.356 166.963 263.354C169.035 263.34 171.161 263.064 173.102 263.984C173.428 264.242 173.613 264.564 173.552 265.012ZM176.953 248.846C177.561 248.673 178.271 248.792 178.877 248.754C179.623 248.711 180.368 248.725 181.11 248.813C181.776 248.896 184.768 249.24 184.741 250.279C184.703 251.706 178.912 251.688 177.819 251.571C177.244 251.512 176.348 251.406 176.01 250.851C175.667 250.29 176.01 249.357 176.519 249.035C176.656 248.95 176.8 248.887 176.953 248.846ZM191.391 256.736C191.585 257.185 191.076 257.505 190.813 257.633C188.919 257.957 186.998 258.031 185.083 258.139C184.355 258.178 183.625 258.358 182.892 258.27C182.181 258.182 181.236 257.579 181.83 256.736C182.48 255.815 183.196 255.629 184.298 255.588C185.834 255.53 187.387 255.566 188.916 255.75C189.648 255.836 191.047 255.939 191.391 256.736Z" fill="black"/>
<path fill-rule="evenodd" clip-rule="evenodd" d="M236.064 354.163C234.636 351.213 233.158 348.293 231.601 345.389C229.203 340.917 226.826 336.433 224.445 331.955C223.908 330.942 223.39 329.919 222.826 328.922C221.098 325.844 219.499 322.698 217.571 319.681C215.847 316.975 214.774 314.596 213.09 311.85C211.299 308.923 209.375 305.998 207.425 302.744C206.93 301.924 206.267 299.655 204.916 299.774C202.989 299.943 199.815 299.893 197.878 299.938C189.966 300.13 182.05 300.03 174.137 300.181C171.811 300.224 169.485 300.28 167.159 300.35C163.303 300.469 159.857 300.143 155.769 300.518C154.924 300.593 154.253 301.744 153.918 302.399C153.322 303.56 152.658 304.685 152.006 305.816C150.695 308.091 149.358 310.36 148.274 312.754C144.742 320.837 141.089 328.76 137.815 337.135C134.864 343.801 129.335 356.023 128.113 358.941C126.804 362.072 127.371 363.145 134.261 362.471C136.529 362.248 148.375 362.167 155.394 361.928C162.221 361.694 169.081 361.442 175.912 361.501C182.848 361.562 189.786 361.831 196.721 362.106C201.889 362.315 207.063 362.347 212.235 362.434C216.608 362.511 220.981 362.571 225.352 362.637C226.247 362.65 227.138 362.661 228.031 362.675C230.15 362.641 232.26 362.889 234.368 363.006C238.928 363.255 240.348 362.711 238.226 358.736C237.43 357.249 236.796 355.681 236.064 354.163Z" fill="#FE3937"/>
<path fill-rule="evenodd" clip-rule="evenodd" d="M229.568 354.233C228.787 355.075 225.145 355.01 224.715 355.062C222.346 355.358 219.82 355.892 217.469 355.203C215.679 354.677 214.977 353.691 217.064 352.74C218.554 352.065 220.101 352.474 221.674 352.47C223.203 352.463 224.749 352.241 226.274 352.439C227.086 352.544 228.969 352.72 229.498 353.386C229.783 353.743 229.77 354.018 229.568 354.233ZM214.045 341.237C214.416 341.109 214.822 341.056 215.161 341.022C216.221 340.92 217.312 340.896 218.378 340.939C220.531 341.024 222.675 341.463 224.817 341.701C225.322 341.759 227.147 341.658 227.197 342.408C227.25 343.181 225.682 343.534 225.161 343.681C222.177 344.542 219.039 344.968 215.975 344.239C215.04 344.018 212.414 343.463 213.044 342.038C213.229 341.62 213.614 341.379 214.045 341.237ZM202.629 332.592C202.514 332.334 202.572 332.001 202.91 331.571C203.673 330.613 205.279 330.568 206.39 330.61C209.348 330.718 212.315 330.44 215.264 330.775C215.996 330.86 216.995 330.662 217.622 331.132C217.84 331.292 218.277 331.785 218.355 332.035C218.542 332.66 217.676 332.682 217.233 332.734C215.105 332.99 212.992 333.346 210.862 333.591C208.876 333.819 207.078 333.787 205.097 333.535C204.401 333.447 202.928 333.267 202.629 332.592ZM209.101 354.2C209.101 354.863 200.555 355.516 199.774 355.495C199.052 355.478 196.939 355.541 196.559 354.674C195.526 352.303 201.875 352.213 202.811 352.213C204.932 352.213 207.306 352.537 209.101 353.754V354.2ZM195.774 342.43C195.814 342.295 195.887 342.165 196.003 342.048C196.523 341.516 197.356 341.368 198.049 341.188C199.916 340.704 201.879 340.844 203.774 341.065C204.853 341.188 205.899 341.404 206.963 341.6C207.513 341.697 209.222 341.679 208.792 342.664C208.531 343.273 207.638 343.301 207.08 343.336C206.223 343.382 205.375 343.476 204.527 343.607C202.8 343.876 201.074 344.205 199.322 344.243C198.429 344.265 197.409 344.241 196.575 343.877C196.012 343.634 195.612 342.983 195.774 342.43ZM191.831 343.069C191.705 343.114 191.574 343.148 191.45 343.168C190.643 343.316 189.835 343.361 189.034 343.553C187.439 343.933 185.831 344.297 184.191 344.4C183.259 344.459 182.074 344.536 181.223 344.072C180.488 343.67 180.538 342.889 180.801 342.207C181.305 341.476 182.438 341.219 183.268 341.123C184.632 340.966 186.022 341.154 187.388 341.244C188.274 341.301 189.162 341.35 190.051 341.381C190.897 341.408 192.6 340.898 192.55 342.221C192.532 342.67 192.204 342.927 191.831 343.069ZM191.077 353.881C186.454 355.23 180.673 355.934 175.86 354.521C174.688 353.84 176.443 352.751 176.967 352.504C178.214 351.917 179.53 352.049 180.87 352.06C182.702 352.07 184.546 351.926 186.378 352.038C186.951 352.074 191.077 352.557 191.077 353.43V353.881ZM175.111 341.816C174.146 343.13 171.692 342.837 170.272 343.118C167.625 343.651 165.117 344.382 162.379 344.034C161.738 343.951 160.824 343.766 160.431 343.199C159.929 342.468 160.536 341.409 161.277 341.096C162.936 340.396 164.874 340.691 166.642 340.675C168.502 340.653 170.362 340.621 172.219 340.711C173.017 340.75 173.829 340.754 174.619 340.855C175.017 340.907 175.343 341.164 175.22 341.591C175.195 341.679 175.159 341.753 175.111 341.816ZM170.749 353.464C170.475 354.661 167.998 354.544 167.112 354.587C165.148 354.681 163.26 355.311 161.288 355.322C159.589 355.333 157.418 354.807 155.97 353.881C155.911 353.305 156.1 352.791 156.417 352.339C158.709 351.394 161.31 351.457 163.735 351.683C165.004 351.802 166.27 351.937 167.532 352.092C168.253 352.177 171.004 352.285 170.749 353.464ZM142.755 334.05C142.049 333.537 142.369 332.831 142.755 332.32C144.227 331.042 146.413 331.616 148.274 331.227C150.967 331.227 153.598 331.227 155.97 331.872C156.357 332.127 156.613 332.577 156.291 332.961C152.183 334.246 147.18 335.784 142.755 334.05ZM154.528 342.868C154.199 343.339 153.059 343.566 152.697 343.66C151.545 343.958 150.442 344.421 149.282 344.68C147.396 345.096 145.414 345.145 143.5 345.363C142.335 345.498 140.94 345.545 139.867 344.99C139.278 344.682 138.954 344.128 138.981 343.453C139.041 341.949 141.305 341.766 142.378 341.663C144.17 341.49 146.038 341.409 147.835 341.404C149.477 341.4 151.115 341.562 152.733 341.82C153.16 341.886 154.483 341.987 154.606 342.488C154.636 342.626 154.608 342.752 154.528 342.868ZM149.983 352.553C149.963 352.58 149.943 352.607 149.923 352.636C148.901 353.986 145.228 354.134 143.702 354.342C142.348 354.528 140.983 354.639 139.624 354.729C138.121 354.828 136.538 355.48 135.075 354.834C133.946 354.339 134.405 353.185 135.105 352.63C136.096 351.84 137.579 351.644 138.78 351.428C141.736 350.895 144.744 351.021 147.729 351.255C148.586 351.316 150.791 351.352 149.983 352.553ZM149.709 318.737C150.519 318.472 151.524 318.413 152.049 318.382C153.963 318.269 155.868 318.296 157.78 318.352C158.763 318.38 159.953 318.242 160.912 318.46C161.575 318.611 162.743 318.564 163.198 319.155C163.652 319.745 162.766 320.312 162.28 320.505C160.437 321.234 158.174 321.264 156.226 321.425C154.244 321.585 152.242 321.612 150.265 321.412C149.617 321.277 149.045 321.027 148.591 320.451C148.235 319.515 148.867 319.012 149.709 318.737ZM157.511 308.326C159.895 306.501 163.047 306.538 165.886 306.808C166.696 306.884 167.501 307.001 168.309 307.096C168.902 307.167 169.587 307.102 170.142 307.356C171.377 307.917 169.586 309.035 169.1 309.25C168.014 309.737 166.815 309.919 165.652 310.117C164.3 310.346 162.921 310.409 161.557 310.348C160.365 310.297 158.966 310.263 157.835 309.858C157.126 309.606 157.319 308.704 157.511 308.326ZM175.201 332.125C174.697 332.273 174.054 332.296 173.777 332.309C172.749 332.343 171.75 332.62 170.743 332.799C168.848 333.132 166.954 333.463 165.022 333.377C164.266 333.346 161.522 333.22 161.717 331.947C161.958 330.395 164.63 330.016 165.841 329.888C167.591 329.7 169.341 329.826 171.083 329.998C171.804 330.068 176.265 330.448 175.869 331.659C175.793 331.886 175.525 332.03 175.201 332.125ZM176.445 318.335C177.249 318.391 180.405 318.966 179.458 320.382C179.048 320.998 178.13 321.038 177.469 321.068C175.723 321.155 173.989 321.405 172.248 321.556C170.716 321.689 168.673 321.988 167.204 321.412C166.559 321.158 166.748 320.323 167.074 319.871C169.508 317.75 173.427 318.139 176.445 318.335ZM174.376 307.466C175.305 307.023 176.707 307.242 177.606 307.215C179.253 307.163 180.943 307.262 182.578 307.48C183.415 307.59 185.46 307.572 185.552 308.654C185.644 309.815 183.781 309.775 183.073 309.804C181.52 309.869 179.991 310.188 178.439 310.254C177.316 310.305 176.119 310.144 175.053 309.772C174.331 309.518 173.015 308.915 173.793 307.919C173.949 307.721 174.148 307.575 174.376 307.466ZM195.902 332.043C195.432 332.205 194.789 332.219 194.544 332.271C193.543 332.476 192.553 332.626 191.542 332.759C188.798 333.134 186.08 333.008 183.327 333.085C182.881 333.096 182.297 333.161 181.935 332.84C180.74 331.785 182.751 330.633 183.527 330.374C185.046 329.863 186.738 329.769 188.328 329.834C189.244 329.872 190.159 329.926 191.075 329.971C192.132 330.017 193.167 330.215 194.19 330.467C194.804 330.62 196.377 330.518 196.436 331.463C196.456 331.76 196.217 331.935 195.902 332.043ZM196.633 319.326C197.112 319.443 197.569 319.734 197.272 320.296C196.995 320.823 196.008 321.243 195.446 321.363C194.679 321.529 193.858 321.567 193.077 321.673C192.101 321.806 191.122 321.914 190.137 321.997C188.989 322.093 187.835 322.249 186.677 322.204C186.027 322.181 184.083 322.114 183.883 321.218C183.214 318.161 189.635 318.737 191.099 318.883C192.805 319.047 194.492 319.182 196.201 319.263C196.332 319.27 196.481 319.29 196.633 319.326ZM190.854 308.171C191.716 307.183 193.853 307.05 194.881 306.956C196.048 306.846 197.225 306.893 198.395 306.963C199.4 307.021 200.602 306.927 201.547 307.3C202.066 307.502 204.151 308.151 203.899 308.978C203.7 309.62 202.069 309.539 201.562 309.572C200.114 309.664 198.678 309.887 197.227 309.952C195.367 310.029 193.579 309.966 191.725 309.817C191.165 309.772 190.334 309.606 190.526 308.798C190.584 308.558 190.699 308.346 190.854 308.171ZM213.883 320.013C213.919 320.089 213.926 320.166 213.89 320.242C213.732 320.582 212.783 320.892 212.437 320.955C211.361 321.144 210.262 321.165 209.18 321.318C208.059 321.479 206.932 321.637 205.798 321.693C204.527 321.756 202.186 321.94 201.184 320.964C200.726 320.517 200.997 319.794 201.409 319.385C202.217 318.584 203.567 318.658 204.61 318.706C205.935 318.771 207.218 318.73 208.545 318.706C209.47 318.692 210.408 318.741 211.321 318.913C211.672 318.978 213.614 319.468 213.883 320.013Z" fill="black"/>
<path fill-rule="evenodd" clip-rule="evenodd" d="M673.157 277.51H674.129C674.736 277.51 675.192 277.427 675.192 276.761C675.192 276.178 674.565 276.095 674.08 276.095H673.157V277.51ZM672.093 275.244H674.134C675.502 275.244 676.271 275.673 676.271 276.856C676.271 277.853 675.644 278.246 674.84 278.307L676.283 280.684H675.159L673.847 278.352H673.157V280.684H672.093V275.244ZM674.012 281.801C676.039 281.801 677.675 280.189 677.675 277.971C677.675 275.763 676.039 274.165 674.012 274.165C671.976 274.165 670.371 275.763 670.371 277.971C670.371 280.189 671.976 281.801 674.012 281.801ZM674.012 273.129C676.646 273.129 679 275.016 679 277.971C679 280.923 676.646 282.824 674.012 282.824C671.391 282.824 669.039 280.923 669.039 277.971C669.039 275.016 671.391 273.129 674.012 273.129Z" fill="black"/>
<path fill-rule="evenodd" clip-rule="evenodd" d="M259.666 287.016H259.822L280.657 261.623H289.382V263.903C289.382 266.184 285.375 265.081 280.657 270.821L268.392 285.601C275.705 294.956 286.79 308.637 289.777 311.546C291.034 312.804 293.471 314.063 293.471 314.848V316.656H283.723C280.421 316.656 278.849 314.298 275.232 310.052L259.822 289.612H259.666V308.244C259.666 311.623 260.845 312.172 264.697 313.038C265.72 313.196 265.876 313.824 265.562 314.454L264.934 316.027C264.697 316.419 264.304 316.656 263.598 316.656H243.627C243 316.656 242.212 316.498 242.605 315.318L243.078 313.982C243.392 313.117 244.02 313.038 244.573 312.883C246.536 312.488 248.581 311.228 248.581 308.244V270.035C248.581 266.654 247.401 266.105 243.548 265.239C242.526 265.081 242.368 264.454 242.683 263.822L243.315 262.251C243.548 261.858 243.941 261.623 244.65 261.623H264.62C265.248 261.623 266.033 261.781 265.641 262.961L265.169 264.295C264.855 265.16 264.226 265.239 263.677 265.397C261.709 265.789 259.666 267.047 259.666 270.035V287.016Z" fill="black"/>
<path fill-rule="evenodd" clip-rule="evenodd" d="M308.077 260.053C311.222 260.053 313.896 262.726 313.896 265.87C313.896 268.859 311.222 271.687 308.156 271.687C304.933 271.687 302.259 269.093 302.259 265.87C302.259 262.647 304.933 260.053 308.077 260.053ZM302.809 285.762C302.809 282.379 301.631 281.83 298.015 281.043C297.228 280.808 296.442 280.492 296.912 279.55L297.622 277.977C297.857 277.348 298.327 277.348 298.799 277.348H313.267V308.245C313.267 311.625 314.443 312.175 318.298 313.04C319.32 313.198 319.478 313.828 319.162 314.455L318.532 316.028C318.298 316.423 317.905 316.658 317.196 316.658H297.857C297.228 316.658 296.442 316.5 296.833 315.321L297.307 313.985C297.622 313.119 298.248 313.04 298.799 312.884C300.765 312.491 302.809 311.232 302.809 308.245V285.762Z" fill="black"/>
<path fill-rule="evenodd" clip-rule="evenodd" d="M339.067 284.976H339.224C342.841 279.08 349.601 276.406 354.713 276.406C361.708 276.406 365.875 280.493 365.875 289.849V308.245C365.875 311.626 367.055 312.177 370.908 313.041C371.928 313.199 372.088 313.829 371.772 314.456L371.143 316.028C370.908 316.422 370.513 316.659 369.807 316.659H350.939C350.389 316.659 349.68 316.502 349.994 315.321L350.467 313.985C350.781 313.12 351.33 313.041 351.802 312.885C353.612 312.491 355.419 311.233 355.419 308.245V294.095C355.419 285.446 353.219 283.324 349.287 283.324C343.782 283.324 339.067 288.827 339.067 303.764V308.245C339.067 311.626 340.089 312.177 343.628 313.041C344.493 313.199 344.649 313.829 344.414 314.456L343.782 316.028C343.628 316.422 343.235 316.659 342.604 316.659H323.657C323.03 316.659 322.242 316.502 322.637 315.321L323.107 313.985C323.42 313.12 324.052 313.041 324.599 312.885C326.566 312.491 328.611 311.233 328.611 308.245V285.762C328.611 282.38 327.431 281.83 323.815 281.044C323.03 280.809 322.242 280.493 322.716 279.55L323.42 277.977C323.657 277.351 324.129 277.351 324.599 277.351H337.18C338.046 277.351 339.067 277.272 339.067 278.922V284.976Z" fill="black"/>
<path fill-rule="evenodd" clip-rule="evenodd" d="M384.664 297.24C384.664 304.866 388.122 310.997 393.155 310.997C398.737 310.997 403.689 305.889 403.689 293.861C403.689 285.448 402.274 280.492 396.221 280.492C388.91 280.492 384.664 289.222 384.664 297.24ZM403.689 309.033H403.532C401.092 313.513 395.672 317.601 389.853 317.601C380.89 317.601 373.577 309.819 373.577 298.813C373.577 286.942 383.405 276.408 397.006 276.408C398.972 276.408 401.092 276.799 403.611 277.35V267.289C403.611 263.906 402.432 263.356 398.816 262.57C398.028 262.333 397.245 262.019 397.713 261.074L398.421 259.503C398.658 258.875 399.13 258.875 399.6 258.875H411.946C413.517 258.875 414.145 259.739 414.145 261.311V308.009C414.145 310.841 414.855 311.471 416.661 312.177C417.84 313.2 419.65 312.965 419.018 314.536L418.625 316.03C418.313 316.581 417.761 316.658 417.054 316.658H405.892C404.317 316.658 403.689 315.793 403.689 314.224V309.033Z" fill="black"/>
<path fill-rule="evenodd" clip-rule="evenodd" d="M444.922 293.073C447.044 293.073 447.988 291.815 447.988 289.615C447.988 282.538 444.372 280.258 440.992 280.258C435.411 280.258 432.108 286.466 432.108 293.073H444.922ZM432.108 297.318C432.108 305.022 435.959 312.175 443.898 312.175C448.538 312.175 451.053 310.369 453.808 307.381C454.592 306.674 456.872 307.696 456.242 308.953L453.727 314.064C453.335 314.77 452.94 315.556 452.077 316.03C450.269 316.894 445.945 317.601 442.879 317.601C428.883 317.601 421.022 308.166 421.022 297.395C421.022 284.267 429.511 276.406 441.148 276.406C451.842 276.406 457.264 283.64 457.264 294.174C457.264 295.589 456.558 297.318 455.458 297.318H432.108Z" fill="black"/>
<path fill-rule="evenodd" clip-rule="evenodd" d="M477.942 284.425H478.097C481.322 279.864 485.096 276.406 488.554 276.406C490.757 276.406 492.092 277.426 492.407 278.293L493.978 284.188C494.057 284.425 493.978 284.737 493.821 284.895L490.757 287.411C489.891 288.513 488.396 286.863 486.196 286.231C482.578 285.13 480.456 286.075 479.356 287.96C477.47 291.107 477.862 294.645 477.862 298.654V308.245C477.862 311.626 479.434 312.175 484.465 313.039C485.88 313.199 486.036 313.827 485.645 314.457L484.781 316.028C484.465 316.422 483.995 316.659 483.051 316.659H462.451C461.825 316.659 461.036 316.501 461.431 315.319L461.902 313.983C462.216 313.12 462.846 313.039 463.397 312.885C465.362 312.491 467.407 311.231 467.407 308.245V285.761C467.407 282.382 466.225 281.829 462.609 281.044C461.825 280.809 461.036 280.491 461.509 279.55L462.216 277.977C462.451 277.349 462.925 277.349 463.397 277.349H476.054C476.917 277.349 477.942 277.27 477.942 278.92V284.425Z" fill="black"/>
<path fill-rule="evenodd" clip-rule="evenodd" d="M544.397 313.434C543.923 314.222 543.61 315.007 542.824 315.477C540.937 316.657 534.725 317.601 527.491 317.601C509.567 317.601 497.304 305.809 497.304 288.669C497.304 273.261 510.197 260.682 527.177 260.682C536.612 260.682 543.217 263.983 545.654 265.477C546.28 265.792 546.28 266.264 546.28 266.813V271.846C546.28 272.16 546.047 272.474 545.812 272.709L543.686 274.203C542.51 275.069 539.915 265.792 527.256 265.792C515.386 265.792 509.175 275.227 509.175 288.041C509.175 303.762 518.372 312.49 529.064 312.49C534.412 312.49 540.309 311.154 544.632 307.067C545.812 305.965 547.539 306.988 546.833 308.166L544.397 313.434Z" fill="black"/>
<path fill-rule="evenodd" clip-rule="evenodd" d="M561.61 297.239C561.61 304.864 564.442 310.996 569.314 310.996C573.954 310.996 580.479 303.922 580.479 292.757C580.479 286.075 579.457 280.491 573.009 280.491C565.698 280.491 561.61 289.22 561.61 297.239ZM580.479 307.381H580.321C577.805 313.199 571.595 317.599 565.698 317.599C556.265 317.599 550.523 308.796 550.523 299.361C550.523 286.94 560.195 276.406 573.954 276.406C579.222 276.406 582.996 277.27 586.375 278.528C588.813 279.55 590.935 280.022 590.935 285.132V308.008C590.935 310.84 591.643 311.47 593.453 312.175C594.632 313.199 596.44 312.964 595.808 314.535L595.417 316.028C595.101 316.58 594.553 316.657 593.844 316.657H582.68C581.107 316.736 580.479 315.791 580.479 314.222V307.381Z" fill="black"/>
<path fill-rule="evenodd" clip-rule="evenodd" d="M615.62 284.425H615.778C619.001 279.864 622.774 276.406 626.233 276.406C628.435 276.406 629.772 277.426 630.085 278.293L631.657 284.188C631.738 284.425 631.658 284.737 631.5 284.895L628.435 287.411C627.569 288.513 626.077 286.863 623.876 286.231C620.258 285.13 618.136 286.075 617.035 287.96C615.15 291.107 615.54 294.645 615.54 298.654V308.245C615.54 311.626 617.114 312.175 622.143 313.039C623.56 313.199 623.716 313.827 623.323 314.457L622.461 316.028C622.143 316.422 621.675 316.659 620.73 316.659H600.131C599.503 316.659 598.718 316.501 599.109 315.319L599.582 313.983C599.896 313.12 600.524 313.039 601.075 312.885C603.04 312.491 605.087 311.231 605.087 308.245V285.761C605.087 282.382 603.907 281.829 600.289 281.044C599.503 280.809 598.718 280.491 599.19 279.55L599.896 277.977C600.131 277.349 600.605 277.349 601.075 277.349H613.735C614.597 277.349 615.62 277.27 615.62 278.92V284.425Z" fill="black"/>
<path fill-rule="evenodd" clip-rule="evenodd" d="M655.164 293.073C657.289 293.073 658.23 291.815 658.23 289.615C658.23 282.538 654.614 280.258 651.233 280.258C645.65 280.258 642.349 286.466 642.349 293.073H655.164ZM642.349 297.318C642.349 305.022 646.203 312.175 654.142 312.175C658.78 312.175 661.295 310.369 664.048 307.381C664.836 306.674 667.114 307.696 666.486 308.953L663.97 314.064C663.577 314.77 663.182 315.556 662.319 316.03C660.509 316.894 656.187 317.601 653.12 317.601C639.127 317.601 631.264 308.166 631.264 297.395C631.264 284.267 639.753 276.406 651.391 276.406C662.082 276.406 667.506 283.64 667.506 294.174C667.506 295.589 666.798 297.318 665.698 297.318H642.349Z" fill="black"/>
<path fill-rule="evenodd" clip-rule="evenodd" d="M267.754 365.332C267.892 364.948 268.174 364.912 268.422 364.841C269.298 364.699 270.214 364.174 270.214 362.979V345.272C270.214 343.898 269.684 343.69 267.964 343.34C267.508 343.27 267.438 342.988 267.578 342.704L267.858 342.074C267.964 341.932 268.142 341.828 268.456 341.828H275.835C276.114 341.828 276.469 341.9 276.293 342.358L276.079 342.916C275.939 343.304 275.659 343.34 275.413 343.41C274.535 343.548 273.621 344.076 273.621 345.272V361.257C273.621 364.207 274.252 364.526 275.763 364.526H278.857C282.477 364.526 282.969 361.609 283.459 361.749L284.337 362.031C284.477 362.063 284.549 362.207 284.549 362.345V365.543C284.549 366.105 283.881 366.421 282.933 366.421H268.002C267.72 366.421 267.368 366.352 267.544 365.896L267.754 365.332Z" fill="black"/>
<path fill-rule="evenodd" clip-rule="evenodd" d="M294.983 352.121H303.096C303.554 352.121 303.732 352.333 303.554 352.651L303.062 353.527C302.854 353.917 302.502 354.019 301.94 354.019H294.983V361.257C294.983 364.207 295.616 364.526 297.125 364.526H300.216C303.838 364.526 304.328 361.61 304.82 361.749L305.696 362.031C305.84 362.063 305.908 362.207 305.908 362.345V365.543C305.908 366.105 305.242 366.421 304.294 366.421H293.437C292.349 366.421 291.577 366.456 291.577 363.998V345.55C291.577 344.182 290.869 343.654 289.361 343.412C288.833 343.308 288.517 343.196 288.693 342.812L288.975 342.212C289.115 341.9 289.361 341.828 289.573 341.828H303.308C303.976 341.828 304.398 342.212 304.328 342.704V345.272C304.328 345.376 304.258 345.482 304.152 345.586L303.52 346.116C302.994 346.538 302.468 343.726 300.112 343.726H294.983V352.121Z" fill="black"/>
<path fill-rule="evenodd" clip-rule="evenodd" d="M325.829 357.041L321.755 346.432L317.61 357.041H325.829ZM334.508 366.14C334.367 366.383 333.982 366.419 333.699 366.419H326.741C326.425 366.419 326.077 366.316 326.287 365.927L326.603 365.262C326.885 364.734 328.781 365.05 328.043 362.978L326.569 358.939H316.94L315.22 363.33C314.552 365.013 317.328 364.699 316.872 365.508L316.66 365.86C316.554 366.034 316.45 366.419 315.958 366.419H310.688C310.018 366.419 309.28 366.526 309.598 365.788L309.772 365.332C309.877 365.05 310.158 364.979 310.688 364.84C312.162 364.524 312.41 364.316 313.146 362.698L319.61 346.462C320.244 344.882 319.364 344.358 318.978 344.006C318.172 343.304 316.52 343.514 317.012 342.672L317.188 342.18C317.328 341.862 317.644 341.826 318.028 341.826H323.089C323.581 341.826 323.861 342.286 323.969 342.812C326.391 349.838 329.341 356.967 331.697 362.698C332.399 364.454 332.503 364.278 334.437 364.806C334.823 364.912 335 365.155 334.929 365.366L334.508 366.14Z" fill="black"/>
<path fill-rule="evenodd" clip-rule="evenodd" d="M345.644 353.811H348.07C350.774 353.877 353.127 352.12 353.057 348.256C352.986 344.742 351.197 343.724 348.77 343.724H345.644V353.811ZM359.627 366.421H355.587C355.025 366.421 354.779 365.86 354.637 365.578L349.298 355.707H345.644V362.977C345.644 364.347 346.174 364.559 347.892 364.911C348.35 364.981 348.42 365.262 348.278 365.543L347.996 366.176C347.892 366.316 347.72 366.421 347.4 366.421H340.022C339.742 366.421 339.392 366.35 339.565 365.894L339.778 365.331C339.918 364.95 340.198 364.911 340.444 364.839C341.322 364.699 342.236 364.173 342.236 362.977V345.55C342.236 344.18 341.532 343.652 340.022 343.412C339.495 343.306 339.18 343.198 339.356 342.812L339.638 342.212C339.778 341.9 340.022 341.828 340.234 341.828H349.474C353.727 341.828 356.431 343.652 356.463 347.94C356.463 350.646 354.603 353.281 352.147 354.685C355.481 360.305 358.045 364.665 359.627 365.402V366.421Z" fill="black"/>
<path fill-rule="evenodd" clip-rule="evenodd" d="M384.714 345.27C384.714 343.9 384.186 343.69 382.468 343.338C382.008 343.268 381.938 342.986 382.078 342.702L382.358 342.072C382.468 341.93 382.643 341.826 382.956 341.826H389.105C389.385 341.826 389.737 341.9 389.561 342.356L389.351 342.916C389.211 343.306 388.929 343.338 388.685 343.412C387.807 343.548 386.892 344.076 386.892 345.27V365.262C386.892 365.964 386.751 366.42 386.116 366.42H384.82C384.644 366.42 384.432 366.176 383.344 364.84L369.115 347.38H369.043V362.978C369.043 364.347 369.569 364.558 371.294 364.91C371.747 364.98 371.819 365.262 371.68 365.542L371.397 366.176C371.294 366.314 371.118 366.42 370.802 366.42H364.653C364.369 366.42 364.019 366.352 364.193 365.894L364.407 365.331C364.549 364.948 364.829 364.91 365.075 364.84C365.953 364.699 366.865 364.172 366.865 362.978V345.304C365.705 344.076 364.407 343.548 363.671 343.412C363.001 343.268 362.931 343.02 363.068 342.702L363.351 342.072C363.457 341.93 363.633 341.826 363.949 341.826H368.165C369.043 341.9 369.501 342.526 370.135 343.268L384.644 361.079H384.714V345.27Z" fill="black"/>
<path fill-rule="evenodd" clip-rule="evenodd" d="M397.288 345.27C397.288 343.9 396.765 343.69 395.044 343.338C394.586 343.268 394.514 342.986 394.656 342.702L394.938 342.072C395.043 341.93 395.214 341.826 395.534 341.826H402.915C403.191 341.826 403.543 341.9 403.369 342.356L403.157 342.916C403.019 343.306 402.737 343.338 402.491 343.412C401.613 343.548 400.697 344.076 400.697 345.27V362.978C400.697 364.347 401.223 364.558 402.947 364.91C403.403 364.98 403.475 365.262 403.333 365.542L403.051 366.176C402.947 366.314 402.773 366.42 402.457 366.42H395.078C394.796 366.42 394.446 366.352 394.62 365.894L394.832 365.331C394.972 364.948 395.25 364.91 395.5 364.84C396.376 364.699 397.288 364.172 397.288 362.978V345.27Z" fill="black"/>
<path fill-rule="evenodd" clip-rule="evenodd" d="M430.034 345.27C430.034 343.9 429.505 343.69 427.786 343.338C427.329 343.268 427.259 342.986 427.402 342.702L427.681 342.072C427.786 341.93 427.961 341.826 428.278 341.826H434.424C434.71 341.826 435.056 341.9 434.884 342.356L434.672 342.916C434.534 343.306 434.252 343.338 434.004 343.412C433.126 343.548 432.212 344.076 432.212 345.27V365.262C432.212 365.964 432.07 366.42 431.44 366.42H430.142C429.963 366.42 429.754 366.176 428.661 364.84L414.435 347.38H414.365V362.978C414.365 364.347 414.893 364.558 416.613 364.91C417.066 364.98 417.139 365.262 416.999 365.542L416.719 366.176C416.613 366.314 416.437 366.42 416.121 366.42H409.976C409.692 366.42 409.338 366.352 409.512 365.894L409.728 365.331C409.866 364.948 410.148 364.91 410.394 364.84C411.272 364.699 412.186 364.172 412.186 362.978V345.304C411.028 344.076 409.728 343.548 408.992 343.412C408.324 343.268 408.252 343.02 408.392 342.702L408.674 342.072C408.776 341.93 408.952 341.826 409.27 341.826H413.486C414.365 341.9 414.821 342.526 415.453 343.268L429.963 361.079H430.034V345.27Z" fill="black"/>
<path fill-rule="evenodd" clip-rule="evenodd" d="M463.165 364.49C463.165 365.543 463.096 366.385 462.218 366.385H460.493C459.794 366.385 459.865 365.471 459.865 364.911V363.998H459.794C458.841 365.649 455.085 366.843 453.044 366.843C445.318 366.843 439.836 361.573 439.836 353.915C439.836 347.026 445.6 341.406 453.184 341.406C457.403 341.406 460.353 342.67 461.373 343.232C461.759 343.374 461.725 343.654 461.725 343.898V346.258C461.725 346.36 461.653 346.462 461.549 346.574L460.883 347.134C460.353 347.52 460.215 343.306 453.079 343.306C446.97 343.374 443.668 347.904 443.668 353.633C443.668 360.657 448.445 364.95 452.977 364.95C457.755 364.95 459.899 362.557 459.899 360.099C459.899 358.483 459.197 357.777 458.915 357.569C457.963 356.655 456.313 357.003 456.701 356.195L456.945 355.671C457.121 355.321 457.545 355.355 457.963 355.355H462.321C463.096 355.355 463.096 355.635 463.165 356.269V364.49Z" fill="black"/>
<path fill-rule="evenodd" clip-rule="evenodd" d="M503.005 364.699C502.513 365.543 502.267 365.963 502.057 366.105C501.143 366.561 498.789 366.843 495.767 366.843C487.054 366.843 481.574 361.573 481.574 353.915C481.574 347.026 487.334 341.406 494.925 341.406C499.141 341.406 502.093 342.67 503.111 343.232C503.495 343.374 503.461 343.654 503.461 343.898V346.258C503.461 346.358 503.389 346.462 503.283 346.574L502.615 347.134C502.093 347.52 501.951 343.304 494.816 343.304C488.702 343.304 485.4 347.904 485.4 353.633C485.4 360.657 490.216 364.948 496.188 364.948C498.999 364.948 501.493 363.893 502.651 363.083C503.389 362.557 503.987 362.839 503.567 363.647L503.005 364.699Z" fill="black"/>
<path fill-rule="evenodd" clip-rule="evenodd" d="M514.246 352.121H522.364C522.822 352.121 522.994 352.333 522.822 352.651L522.33 353.527C522.118 353.917 521.766 354.019 521.204 354.019H514.246V361.257C514.246 364.207 514.882 364.526 516.392 364.526H519.482C523.1 364.526 523.592 361.61 524.086 361.749L524.963 362.031C525.104 362.063 525.174 362.207 525.174 362.345V365.543C525.174 366.105 524.507 366.421 523.559 366.421H512.697C511.611 366.421 510.84 366.456 510.84 363.998V345.55C510.84 344.182 510.137 343.654 508.625 343.412C508.097 343.308 507.785 343.196 507.959 342.812L508.239 342.212C508.381 341.9 508.625 341.828 508.835 341.828H522.57C523.24 341.828 523.662 342.212 523.592 342.704V345.272C523.592 345.376 523.522 345.482 523.418 345.586L522.784 346.116C522.258 346.538 521.732 343.726 519.376 343.726H514.246V352.121Z" fill="black"/>
<path fill-rule="evenodd" clip-rule="evenodd" d="M550.821 345.27C550.821 343.9 550.297 343.69 548.575 343.338C548.116 343.268 548.046 342.986 548.186 342.702L548.469 342.072C548.575 341.93 548.746 341.826 549.067 341.826H555.213C555.493 341.826 555.845 341.9 555.671 342.356L555.457 342.916C555.321 343.306 555.035 343.338 554.793 343.412C553.911 343.548 553.001 344.076 553.001 345.27V365.262C553.001 365.964 552.857 366.42 552.227 366.42H550.925C550.75 366.42 550.538 366.176 549.453 364.84L535.221 347.38H535.151V362.978C535.151 364.347 535.678 364.558 537.4 364.91C537.856 364.98 537.928 365.262 537.788 365.542L537.506 366.176C537.4 366.314 537.224 366.42 536.905 366.42H530.761C530.482 366.42 530.127 366.352 530.303 365.894L530.511 365.331C530.655 364.948 530.937 364.91 531.181 364.84C532.061 364.699 532.975 364.172 532.975 362.978V345.304C531.811 344.076 530.511 343.548 529.773 343.412C529.111 343.268 529.039 343.02 529.177 342.702L529.457 342.072C529.567 341.93 529.741 341.826 530.053 341.826H534.274C535.151 341.9 535.608 342.526 536.242 343.268L550.75 361.079H550.821V345.27Z" fill="black"/>
<path fill-rule="evenodd" clip-rule="evenodd" d="M571.06 362.978C571.06 364.348 571.582 364.56 573.306 364.912C573.764 364.98 573.834 365.264 573.696 365.544L573.412 366.178C573.306 366.318 573.13 366.422 572.814 366.422H565.433C565.155 366.422 564.801 366.352 564.981 365.896L565.189 365.332C565.331 364.95 565.611 364.912 565.857 364.84C566.736 364.7 567.647 364.176 567.647 362.978V344.006H559.781C559.289 344.006 558.795 343.83 559.289 343.268L559.955 342.25C560.341 341.864 560.727 341.826 561.289 341.826H578.924C579.418 341.826 579.912 342.006 579.418 342.564L578.752 343.584C578.364 343.972 577.98 344.006 577.416 344.006H571.06V362.978Z" fill="black"/>
<path fill-rule="evenodd" clip-rule="evenodd" d="M589.396 352.121H597.511C597.969 352.121 598.147 352.333 597.969 352.651L597.479 353.527C597.263 353.917 596.917 354.019 596.351 354.019H589.396V361.257C589.396 364.207 590.028 364.526 591.541 364.526H594.631C598.251 364.526 598.741 361.61 599.235 361.749L600.113 362.031C600.251 362.063 600.323 362.207 600.323 362.345V365.543C600.323 366.105 599.653 366.421 598.707 366.421H587.852C586.762 366.421 585.988 366.456 585.988 363.998V345.55C585.988 344.182 585.286 343.654 583.776 343.412C583.248 343.308 582.93 343.196 583.108 342.812L583.388 342.212C583.53 341.9 583.776 341.828 583.984 341.828H597.72C598.389 341.828 598.813 342.212 598.741 342.704V345.272C598.741 345.376 598.673 345.482 598.565 345.586L597.935 346.116C597.407 346.538 596.881 343.726 594.525 343.726H589.396V352.121Z" fill="black"/>
<path fill-rule="evenodd" clip-rule="evenodd" d="M611.53 353.811H613.956C616.659 353.877 619.015 352.12 618.945 348.256C618.875 344.742 617.083 343.724 614.656 343.724H611.53V353.811ZM625.515 366.421H621.475C620.913 366.421 620.667 365.86 620.523 365.578L615.184 355.707H611.53V362.977C611.53 364.347 612.061 364.559 613.781 364.911C614.239 364.981 614.307 365.262 614.166 365.543L613.882 366.176C613.781 366.316 613.602 366.421 613.288 366.421H605.91C605.626 366.421 605.276 366.35 605.45 365.894L605.664 365.331C605.806 364.95 606.082 364.911 606.334 364.839C607.208 364.699 608.124 364.173 608.124 362.977V345.55C608.124 344.18 607.42 343.652 605.91 343.412C605.382 343.306 605.068 343.198 605.244 342.812L605.522 342.212C605.664 341.9 605.91 341.828 606.122 341.828H615.361C619.613 341.828 622.319 343.652 622.351 347.94C622.351 350.646 620.491 353.281 618.029 354.685C621.369 360.305 623.935 364.665 625.515 365.402V366.421Z" fill="black"/>
<path fill-rule="evenodd" clip-rule="evenodd" d="M642.272 347.062C641.992 347.308 641.324 345.863 640.866 344.952C640.164 343.511 639.11 342.986 637.53 342.986C635.806 342.986 633.982 344.04 633.702 345.83C633.312 348.36 635.14 349.8 638.024 351.736C641.85 354.298 644.033 356.09 644.169 360.025C644.306 364.523 639.954 366.841 635.986 366.841C634.016 366.841 632.576 366.559 631.452 366.21C629.628 365.649 629.628 365.613 629.628 364.697V361.291C629.628 360.903 629.483 360.377 629.836 360.237L630.786 359.923C631.276 359.779 631.276 361.327 632.152 362.799C632.82 364.345 634.404 365.049 636.09 365.049C638.934 365.049 640.69 363.117 640.799 360.657C641.045 357.494 637.46 355.319 635.28 353.773C633.208 352.296 630.33 350.682 630.33 347.236C630.33 344.776 633.172 341.406 637.812 341.406C639.428 341.406 640.69 341.686 641.747 342.106C642.801 342.527 643.36 342.844 643.293 343.442V346.04C643.293 346.182 643.184 346.288 643.08 346.43L642.272 347.062Z" fill="black"/>
</svg>
