<svg width="800" height="600" fill="none" xmlns="http://www.w3.org/2000/svg"><path d="M327.222 308.827c-.425-.425-1.021-.425-1.446 0-.085.086-.085.086-.085.171-5.102 7.058-14.966 8.588-22.024 3.401a13.802 13.802 0 01-1.701-1.446c-5.952-6.292-5.952-16.156 0-22.449 6.038-6.123 15.902-6.123 22.024-.085a18.483 18.483 0 011.701 1.956c.34.425.936.595 1.446.255.085 0 .085-.085.17-.085l6.122-6.123c.341-.34.426-.935.085-1.36-.51-.681-1.105-1.276-1.7-1.871-10.205-10.289-26.872-10.289-37.076-.085-4.932 4.932-7.738 11.65-7.738 18.623.085 14.541 11.99 26.276 26.616 26.106 6.803-.085 13.351-2.807 18.283-7.569.68-.68 1.275-1.36 1.871-2.04.34-.426.34-1.021-.086-1.361l-6.462-6.038zM541.512 310.698c-.426-.425-1.021-.425-1.446 0l-.085.085c-2.891 3.487-6.888 5.273-12.16 5.273-8.249 0-14.286-4.167-15.902-11.735h38.691a1.01 1.01 0 001.021-.851c.17-1.19.255-2.381.255-3.571.17-6.888-2.381-13.521-7.058-18.623-4.592-5.017-11.055-7.823-17.857-7.653-7.654 0-14.031 2.466-18.878 7.568-4.847 4.932-7.398 11.14-7.398 18.623 0 7.568 2.466 13.775 7.483 18.793 4.932 4.847 11.565 7.398 19.558 7.398 8.333 0 14.796-2.636 19.558-7.994.34-.425.34-1.02-.085-1.36l-5.697-5.953zm-14.626-27.381c7.057 0 12.755 4.167 14.2 12.245h-29.167c1.446-7.568 7.058-12.245 14.967-12.245zM344.229 318.266c-10.204-10.289-10.204-26.871 0-37.16 10.204-10.289 26.871-10.289 37.075-.085 4.933 4.932 7.739 11.65 7.739 18.623-.085 14.541-11.99 26.276-26.616 26.106-6.803.085-13.351-2.637-18.198-7.484zm18.538-2.891c4.166.085 8.163-1.53 11.054-4.507 5.953-6.292 5.953-16.156 0-22.449-6.122-5.953-15.901-5.953-22.109 0-5.952 6.293-5.952 16.157 0 22.449 2.976 3.062 6.973 4.677 11.055 4.507zM397.206 274.898h8.674c.595 0 1.02.426 1.02 1.021v47.62c0 .595-.425 1.02-1.02 1.02h-8.674c-.595 0-1.02-.425-1.02-1.02v-47.62c0-.595.425-1.021 1.02-1.021zM463.109 294.031v29.508c0 .595-.426 1.02-1.021 1.02h-8.673c-.596 0-1.021-.425-1.021-1.02v-28.402c0-7.483-4.252-11.565-11.139-11.565-7.569 0-12.586 4.677-12.586 14.286v25.681c0 .595-.425 1.02-1.02 1.02h-8.674c-.595 0-1.02-.425-1.02-1.02v-47.62c0-.596.425-1.021 1.02-1.021h8.674c.595 0 1.02.425 1.02 1.021v5.357c3.317-5.102 8.334-7.653 15.392-7.653 11.394-.085 19.048 7.738 19.048 20.408zM483.262 283.232c2.551-5.868 7.313-8.929 14.201-9.184.595 0 1.021.425 1.106.935v9.609c0 .596-.426 1.021-1.021 1.021-3.486-.085-6.888.935-9.694 3.061-3.061 2.211-4.592 5.868-4.592 10.97v23.895c0 .595-.425 1.02-1.02 1.02h-8.674c-.595 0-1.02-.425-1.02-1.02v-47.62c0-.596.425-1.021 1.02-1.021h8.674c.595 0 1.02.425 1.02 1.021v7.313zM600.271 274.898h8.673c.596 0 1.021.425 1.021 1.021v47.62c0 .595-.425 1.02-1.021 1.02h-8.673c-.595 0-1.021-.425-1.021-1.02v-6.123c-4.081 5.697-9.864 8.419-17.432 8.419a23.298 23.298 0 01-17.517-7.569c-4.847-5.017-7.398-11.649-7.228-18.622-.17-6.888 2.466-13.606 7.228-18.623a23.297 23.297 0 0117.517-7.568c7.568 0 13.351 2.806 17.432 8.333v-5.867c0-.596.511-1.021 1.021-1.021zm-16.667 40.732a15.463 15.463 0 0011.225-4.507 15.853 15.853 0 004.506-11.394 14.87 14.87 0 00-4.506-11.31c-6.208-6.123-16.242-6.123-22.45 0-2.976 2.976-4.592 7.058-4.507 11.31-.085 4.251 1.531 8.418 4.507 11.394 2.976 2.977 6.973 4.592 11.225 4.507zM660.306 255h8.674c.595 0 1.02.425 1.02 1.02v67.519c0 .595-.425 1.02-1.02 1.02h-8.674c-.595 0-1.021-.425-1.021-1.02v-6.123c-4.081 5.697-9.864 8.419-17.432 8.419a23.298 23.298 0 01-17.517-7.569c-4.847-5.017-7.398-11.649-7.228-18.622-.17-6.888 2.466-13.606 7.228-18.623a23.297 23.297 0 0117.517-7.568c7.568 0 13.351 2.806 17.432 8.333V256.02c0-.595.426-1.02 1.021-1.02zm-16.752 60.63a15.463 15.463 0 0011.225-4.507 15.85 15.85 0 004.506-11.394 14.87 14.87 0 00-4.506-11.31c-6.208-6.123-16.242-6.123-22.45 0-2.976 2.976-4.592 7.058-4.507 11.31-.085 4.251 1.531 8.418 4.507 11.394a15.461 15.461 0 0011.225 4.507zM401.542 267.585a5.612 5.612 0 100-11.224 5.612 5.612 0 000 11.224z" fill="#131F6B"/><path d="M252.822 268.565C241.747 248.63 220.364 235 196 235c-35.865 0-65 29.135-65 65 0 35.865 29.135 65 65 65 10.564 0 20.701-2.556 29.561-7.071 11.501-5.878 21.127-15.164 27.346-26.494 5.197-9.371 7.752-20.019 7.752-31.435 0-11.415-2.726-22.149-7.837-31.435zM196 346.088c-25.472 0-46.088-20.616-46.088-46.088s20.616-46.088 46.088-46.088 46.088 20.616 46.088 46.088-20.701 46.088-46.088 46.088z" fill="url(#paint0_linear)"/><path d="M196 327.09c14.962 0 27.091-12.128 27.091-27.09S210.962 272.91 196 272.91c-14.962 0-27.09 12.128-27.09 27.09s12.128 27.09 27.09 27.09z" fill="url(#paint1_linear)"/><path d="M173.425 300c0-14.227 10.989-25.813 24.875-27.005-.767-.085-1.533-.085-2.3-.085-14.908 0-27.09 12.097-27.09 27.09s12.097 27.09 27.09 27.09c.767 0 1.533 0 2.3-.085-14.056-1.192-24.875-12.778-24.875-27.005z" fill="#154ED5"/><path d="M223.09 300c0-7.752-3.322-14.738-8.519-19.679l-21.979 16.868c-.851.681-1.448 1.704-1.448 2.811 0 1.108.597 2.215 1.448 2.811l21.979 16.868c5.197-4.941 8.519-11.927 8.519-19.679z" fill="#154ED5"/><path d="M252.822 268.565c-6.219-11.33-15.76-20.531-27.346-26.494 3.493 1.789 6.219 4.941 7.582 8.86 1.789 5.622.255 11.415-3.493 15.419l-29.391 29.391c-1.107 1.107-1.703 2.64-1.703 4.174 0 1.533.596 3.067 1.703 4.174l29.391 29.391c3.748 4.004 5.367 9.882 3.493 15.419-1.363 4.004-4.089 7.071-7.582 8.86 11.501-5.878 21.127-15.164 27.346-26.494 5.197-9.371 7.752-20.02 7.752-31.435 0-11.416-2.641-21.979-7.752-31.265z" fill="#55ADED"/><path d="M241.321 324.876c-.341-.341-.767-.767-1.192-1.108l-27.091-20.871a3.596 3.596 0 01-1.363-2.812c0-1.107.596-2.215 1.363-2.811l27.091-20.872c.511-.34.851-.766 1.192-1.107v49.581z" fill="#3375CA"/><path d="M252.822 268.565c-3.152-5.623-6.986-10.819-11.671-15.249 2.726 2.726 4.515 6.474 4.515 10.734.085 4.345-1.619 8.263-4.43 11.075l-20.701 20.701c-1.108 1.107-1.704 2.641-1.704 4.174 0 1.533.596 3.067 1.704 4.174l20.701 20.702c2.811 2.811 4.515 6.815 4.43 11.074-.085 4.175-1.789 7.923-4.515 10.734 4.515-4.43 8.519-9.541 11.671-15.249 5.197-9.371 7.752-20.019 7.752-31.435 0-11.415-2.641-22.149-7.752-31.435z" fill="#62CFE8"/><path d="M250.011 313.034c-.937-.852-1.874-1.619-3.067-2.3l-13.034-7.667c-1.022-.682-1.789-1.789-1.789-3.152 0-1.363.767-2.556 1.789-3.152l13.034-7.667a36.244 36.244 0 003.067-2.3v26.238z" fill="#3E8DC7"/><path d="M261 300c0-11.415-2.896-22.149-8.178-31.435 1.874 3.408 2.385 7.497 1.192 11.501-.766 2.555-1.959 4.77-3.663 6.474l-.34.341-9.031 9.03c-1.107 1.107-1.703 2.641-1.703 4.174 0 1.534.596 3.067 1.703 4.175l9.031 9.03.34.341c1.704 1.788 3.067 4.003 3.663 6.474 1.108 4.004.597 8.178-1.192 11.501C257.933 322.15 261 311.416 261 300z" fill="#91F6D4"/><defs><linearGradient id="paint0_linear" x1="131" y1="300" x2="260.659" y2="300" gradientUnits="userSpaceOnUse"><stop offset=".5" stop-color="#2779F5"/><stop offset=".75" stop-color="#2062C5"/></linearGradient><linearGradient id="paint1_linear" x1="168.91" y1="300" x2="223.029" y2="300" gradientUnits="userSpaceOnUse"><stop offset=".5" stop-color="#2779F5"/><stop offset=".75" stop-color="#2062C5"/></linearGradient></defs></svg>