<svg width="800" height="600" viewBox="0 0 800 600" fill="none" xmlns="http://www.w3.org/2000/svg">
<path d="M210 256.268V298.577L210.654 298.701C211.022 298.783 214.293 298.742 217.931 298.618L224.513 298.413L224.595 268.632C224.677 252.242 224.718 238.687 224.718 238.481C224.718 238.276 230.605 247.025 237.841 257.911C245.036 268.796 251.127 277.669 251.373 277.587C251.618 277.505 257.71 268.55 264.946 257.747L278.069 238.071L278.192 268.344L278.273 298.577L285.223 298.701C289.066 298.783 292.378 298.742 292.582 298.701C292.868 298.618 292.991 283.707 292.991 256.268V213.999H285.101H277.169L264.782 233.388C257.996 244.068 252.19 253.064 251.945 253.351C251.536 253.762 248.756 249.695 238.781 234.045L226.108 214.205L218.054 214.081L210 213.999L210 256.268Z" fill="#0090D4"/>
<path d="M327.945 233.676C320.791 234.826 314.577 238.194 309.63 243.534C303.293 250.435 300.35 260.047 301.494 270.358C302.844 282.968 309.017 292.129 319.36 296.976C324.634 299.482 327.455 300.057 334.282 300.016L340.21 299.974L343.48 299.071C347.078 298.085 351.534 295.99 354.069 294.018C356.604 292.088 359.629 289.048 359.629 288.514C359.629 288.021 353.251 281.942 352.025 281.243C351.657 281.038 350.676 281.572 349.122 282.845C346.22 285.228 341.804 287.364 338.575 287.98C335.304 288.596 330.112 288.185 327.209 287.117C321.69 285.022 317.193 279.518 316.048 273.397L315.803 271.919L339.229 271.837L362.695 271.713L362.654 266.373C362.491 250.23 354.437 238.235 341.232 234.579C337.798 233.594 331.134 233.183 327.945 233.676ZM338.738 246.656C341.6 247.971 344.707 251.051 346.26 254.132C347.487 256.474 348.754 261.074 348.427 261.896L348.223 262.471H332.033H315.885V261.485C315.885 258.61 318.583 252.777 321.118 250.025C325.41 245.465 332.892 244.027 338.738 246.656Z" fill="#0090D4"/>
<path d="M454.271 233.673C444.909 235.193 436.774 240.698 432.031 248.831C425.122 260.579 426.471 278.448 435.057 288.84C439.063 293.687 445.318 297.59 451.614 299.192C460.24 301.41 470.542 300.013 477.819 295.659C481.008 293.728 485.955 289.415 485.955 288.553C485.955 288.019 478.473 280.953 477.942 280.953C477.819 280.953 476.838 281.652 475.775 282.555C473.2 284.733 471.074 286.006 468.171 287.115L465.718 288.101H460.812H455.906L453.126 286.951C448.343 284.938 444.582 280.748 442.988 275.572C442.579 274.217 442.211 272.82 442.211 272.491V271.916L465.636 271.834L489.021 271.711L488.98 266.166L488.898 260.62L487.876 256.636C485.505 247.517 479.945 240.123 472.873 236.672C470.951 235.727 468.294 234.659 466.945 234.331C464.001 233.591 457.092 233.222 454.271 233.673ZM465.228 246.777C468.253 248.215 470.747 250.638 472.423 253.842C473.731 256.266 475.121 261.401 474.712 262.058C474.549 262.304 468.171 262.469 458.319 262.469H442.211V261.483C442.211 258.607 444.909 252.774 447.444 250.022C451.818 245.38 459.381 243.984 465.228 246.777Z" fill="#0090D4"/>
<path d="M530.925 233.713C523.526 234.658 517.843 239.012 513.714 246.858L512.733 248.706L512.528 241.723L512.324 234.74H505.374H498.424L498.301 266.657L498.22 298.574L505.006 298.697C508.726 298.78 511.956 298.739 512.12 298.615C512.283 298.492 512.528 291.55 512.61 283.211L512.815 268.013L513.51 265.548C515.962 256.717 521.073 251.418 528.963 249.528C530.394 249.199 532.315 248.912 533.297 248.912H535.014L534.932 241.23L534.809 233.508L534.196 233.467C533.869 233.426 532.397 233.549 530.925 233.713Z" fill="#0090D4"/>
<path d="M557.54 234.537C547.605 237.166 541.8 244.971 542.495 254.829C542.904 260.827 545.97 265.14 552.061 268.303C555.128 269.864 556.845 270.521 565.757 273.355C574.015 275.984 576.55 277.956 576.468 281.612C576.427 283.871 575.119 285.884 572.952 287.116L571.194 288.102L567.433 288.266C561.301 288.554 554.8 286.582 548.75 282.639C547.36 281.694 546.011 280.954 545.765 280.954C545.316 280.954 539.51 289.745 539.51 290.443C539.51 291.018 544.866 294.387 548.423 296.03C550.14 296.81 553.329 297.96 555.455 298.535L559.338 299.645L566.288 299.603H573.238L576.182 298.535C581.946 296.482 585.503 293.565 587.711 289.17C589.346 285.843 589.959 282.68 589.673 278.654C589.428 274.218 588.12 271.507 584.849 268.426C581.66 265.468 578.308 263.825 569.518 260.827C559.216 257.335 556.477 255.692 555.741 252.57C555.373 251.05 556.109 248.832 557.417 247.559C561.096 243.985 569.068 244.519 578.267 248.914C580.597 250.064 582.6 250.968 582.682 250.968C583.05 250.968 588.16 241.027 587.956 240.699C587.547 240.041 581.333 237.002 578.185 235.934C571.44 233.633 563.181 233.058 557.54 234.537Z" fill="#0090D4"/>
<path d="M363.594 234.827C362.981 235.444 362.45 234.088 383.79 285.64C386.693 292.623 389.064 298.62 389.064 298.908C389.064 299.935 387.429 302.687 385.998 304.084C383.341 306.672 379.661 307 374.387 305.193C372.956 304.7 371.648 304.453 371.485 304.618C371.035 305.07 366.988 314.107 366.988 314.6C366.988 315.175 370.258 316.571 373.938 317.639C376.186 318.255 378.189 318.502 381.501 318.502L385.998 318.543L388.819 317.557C393.684 315.873 397.281 312.258 400.388 305.891C401.288 304.043 406.521 290.857 411.958 276.644C417.436 262.39 423.242 247.356 424.836 243.166C426.88 237.867 427.657 235.403 427.371 235.033C427.085 234.663 425.122 234.54 420.053 234.54H413.144L412.612 235.854C412.326 236.594 408.606 247.192 404.395 259.392C400.184 271.592 396.668 281.656 396.586 281.738C396.505 281.82 396.341 281.82 396.218 281.697C396.096 281.573 392.089 271.14 387.306 258.529C382.564 245.918 378.476 235.32 378.312 235.033C378.067 234.663 376.104 234.54 370.912 234.54C367.029 234.54 363.717 234.663 363.594 234.827Z" fill="#0090D4"/>
<path d="M518.783 338.462C507.5 340.516 499.896 349.881 499.855 361.834C499.855 372.309 506.028 380.976 515.799 384.098C518.865 385.125 525.692 385.289 529.085 384.509C532.274 383.728 535.994 381.715 538.57 379.292L540.941 377.115L538.447 374.609L535.953 372.062L533.296 374.116C529.821 376.745 527.164 377.649 522.953 377.649H519.682L517.107 376.499C508.276 372.432 505.292 360.52 510.975 352.017C516.044 344.377 526.632 343.35 534.032 349.717L535.708 351.154L538.202 348.197L540.736 345.239L538.978 343.72C536.852 341.83 533.5 339.982 530.516 339.119C527.777 338.297 521.645 337.969 518.783 338.462Z" fill="#5D6468"/>
<path d="M315.271 339.037C311.061 340.392 307.995 342.939 306.482 346.389C303.947 352.099 305.623 358.425 310.488 361.506C312.41 362.697 317.724 364.586 322.017 365.572C325.533 366.353 329.294 368.283 329.989 369.68C331.297 372.227 330.316 375.266 327.659 376.868L326.309 377.69H322.017H317.724L314.904 376.334C313.35 375.636 311.224 374.362 310.161 373.582L308.199 372.144L305.869 374.896L303.579 377.69L305.133 379.045C307.381 381.017 312.532 383.481 316.13 384.262C318.378 384.796 320.422 384.919 323.611 384.796L327.986 384.632L330.684 383.358C335.876 380.935 338.369 376.95 338.369 371.2C338.369 364.627 334.813 361.054 325.901 358.589C318.501 356.535 316.089 355.591 314.781 354.235L313.432 352.921V350.99C313.432 347.047 316.334 345.157 321.935 345.527C325.124 345.773 328.558 347.006 331.665 349.1L332.932 349.963L335.058 346.964L337.143 344.007L336.039 343.103C334.322 341.707 330.316 339.858 327.495 339.119C324.47 338.338 317.602 338.297 315.271 339.037Z" fill="#5D6468"/>
<path d="M413.225 339.572C411.508 343.269 394.256 383.154 394.093 383.77L393.847 384.51L397.854 384.387L401.86 384.263L404.149 378.841L406.439 373.378L417.191 373.501L427.942 373.583L430.232 379.006L432.521 384.469H436.528C438.776 384.469 440.575 384.304 440.575 384.14C440.575 383.935 436.16 373.624 430.763 361.219L420.993 338.668L417.354 338.545L413.757 338.422L413.225 339.572ZM421.156 357.481L424.876 366.19L417.354 366.313C413.184 366.354 409.709 366.354 409.628 366.272C409.546 366.19 411.181 362.123 413.266 357.235C415.351 352.347 417.109 348.445 417.232 348.568C417.354 348.65 419.112 352.675 421.156 357.481Z" fill="#5D6468"/>
<path d="M210.082 361.548L210.204 384.263L214.211 384.387L218.176 384.51V376.459V368.408L223.123 368.531L228.11 368.654L233.629 376.541L239.189 384.469H243.809C246.344 384.469 248.429 384.387 248.429 384.304C248.429 384.181 246.057 380.813 243.196 376.787C240.293 372.762 237.636 368.983 237.268 368.408L236.573 367.34L239.189 366.025C245.076 363.109 248.02 357.153 246.793 350.622C245.812 345.446 242.787 341.954 237.595 340.065L235.142 339.161L222.551 338.956L210 338.792L210.082 361.548ZM235.06 347.253C239.353 349.389 240.375 355.017 237.104 358.632C234.979 360.973 232.934 361.466 224.84 361.466H218.176V353.826V346.226L225.862 346.35L233.507 346.473L235.06 347.253Z" fill="#5D6468"/>
<path d="M260.081 339.369C259.958 339.656 259.917 349.884 259.958 362.084L260.081 384.265L276.965 384.389L293.808 384.471V380.979V377.488H280.93H268.053V371.326V365.165H279.295H290.537V361.468V357.771H279.295H268.053V351.815V345.859H280.726H293.399V342.367V338.876H276.842C263.964 338.876 260.203 338.999 260.081 339.369Z" fill="#5D6468"/>
<path d="M351.044 361.673V384.471H368.009H384.975V380.979V377.488L372.016 377.406L359.015 377.282L358.893 371.203L358.77 365.165H370.258H381.705V361.468V357.771H370.258H358.77L358.893 351.897L359.015 346.064L371.811 345.941L384.566 345.859V342.367V338.876H367.805H351.044V361.673Z" fill="#5D6468"/>
<path d="M452.023 361.673V384.471H455.906H459.79V376.461V368.41L464.778 368.533L469.806 368.656L475.325 376.543L480.844 384.471H485.423C487.957 384.471 490.042 384.389 490.042 384.265C490.042 384.183 487.508 380.527 484.401 376.173C481.294 371.819 478.636 368.04 478.473 367.753C478.269 367.465 478.963 366.931 480.435 366.233C483.42 364.877 486.445 361.92 487.63 359.291C488.366 357.607 488.571 356.374 488.571 353.458L488.612 349.761L487.426 347.173C485.505 342.942 481.784 340.313 476.347 339.328C474.998 339.081 469.07 338.876 462.979 338.876H452.023V361.673ZM475.775 346.886C478.963 348.036 480.64 350.377 480.64 353.663C480.64 356.991 478.677 359.66 475.366 360.852C474.017 361.304 471.85 361.468 466.699 361.468H459.79V353.869V346.27H466.903C472.218 346.27 474.426 346.434 475.775 346.886Z" fill="#5D6468"/>
<path d="M552.593 361.673V384.471H556.477H560.36V374.818V365.165H571.194H582.027L582.109 374.694L582.232 384.265H586.116H589.999V361.673V339.081H586.116H582.232L582.109 348.406L582.027 357.771H571.194H560.36V348.323V338.876H556.477H552.593V361.673Z" fill="#5D6468"/>
</svg>
