<svg width="800" height="600" viewBox="0 0 800 600" fill="none" xmlns="http://www.w3.org/2000/svg">
<path d="M333.965 270.742L336.006 277.086C337.992 273.937 340.783 271.374 344.091 269.661C347.398 267.948 351.103 267.148 354.823 267.343C366.703 267.343 378.945 273.778 378.945 294.17V329.744C378.945 330.573 378.616 331.369 378.029 331.955C377.442 332.541 376.646 332.871 375.817 332.871H364.798C363.969 332.871 363.173 332.541 362.586 331.955C361.999 331.369 361.67 330.573 361.67 329.744V295.031C361.798 293.499 361.593 291.957 361.068 290.512C360.544 289.066 359.712 287.752 358.631 286.658C357.549 285.564 356.244 284.717 354.804 284.176C353.364 283.634 351.823 283.411 350.289 283.521C348.507 283.504 346.741 283.856 345.102 284.556C343.464 285.256 341.988 286.288 340.769 287.587C339.55 288.886 338.615 290.424 338.021 292.103C337.427 293.783 337.189 295.567 337.321 297.343V329.699C337.321 330.109 337.24 330.516 337.083 330.895C336.925 331.275 336.695 331.619 336.404 331.91C336.114 332.2 335.769 332.43 335.389 332.587C335.01 332.745 334.603 332.825 334.192 332.825H323.129C322.299 332.825 321.503 332.496 320.916 331.91C320.33 331.323 320 330.528 320 329.699V271.694C320 270.864 320.33 270.069 320.916 269.483C321.503 268.896 322.299 268.567 323.129 268.567H330.973C331.638 268.564 332.287 268.774 332.825 269.165C333.364 269.556 333.763 270.108 333.965 270.742V270.742Z" fill="#283050"/>
<path d="M416.715 271.695V329.746C416.715 330.575 416.386 331.37 415.799 331.957C415.212 332.543 414.417 332.872 413.587 332.872H403.158C402.328 332.872 401.533 332.543 400.946 331.957C400.359 331.37 400.029 330.575 400.029 329.746V285.471C400.023 284.838 399.825 284.222 399.46 283.704C399.096 283.186 398.583 282.791 397.989 282.571L394.543 281.348C393.949 281.127 393.436 280.732 393.072 280.214C392.707 279.697 392.509 279.08 392.503 278.447V271.695C392.503 271.285 392.583 270.878 392.741 270.499C392.898 270.119 393.128 269.775 393.419 269.484C393.709 269.194 394.054 268.964 394.434 268.806C394.814 268.649 395.22 268.568 395.631 268.568H413.768C414.566 268.615 415.316 268.964 415.864 269.546C416.412 270.127 416.717 270.896 416.715 271.695Z" fill="#283050"/>
<path d="M416.579 250.85C416.532 253.383 415.495 255.797 413.69 257.575C411.885 259.353 409.456 260.356 406.921 260.367C404.396 260.367 401.974 259.364 400.188 257.58C398.403 255.795 397.399 253.374 397.399 250.85C397.399 248.327 398.403 245.906 400.188 244.121C401.974 242.337 404.396 241.334 406.921 241.334C409.456 241.345 411.885 242.347 413.69 244.126C415.495 245.904 416.532 248.318 416.579 250.85V250.85Z" fill="#283050"/>
<path d="M450.949 270.742L452.989 277.086C454.976 273.937 457.767 271.374 461.074 269.661C464.382 267.948 468.086 267.148 471.806 267.343C483.686 267.343 495.929 273.778 495.929 294.17V329.744C495.929 330.573 495.599 331.369 495.012 331.955C494.425 332.541 493.63 332.871 492.8 332.871H481.827C480.997 332.871 480.202 332.541 479.615 331.955C479.028 331.369 478.698 330.573 478.698 329.744V295.031C478.824 293.515 478.623 291.99 478.109 290.558C477.594 289.126 476.779 287.821 475.718 286.73C474.657 285.64 473.374 284.789 471.957 284.235C470.539 283.682 469.019 283.438 467.499 283.521C465.717 283.504 463.951 283.856 462.312 284.556C460.674 285.256 459.198 286.288 457.979 287.587C456.761 288.886 455.825 290.424 455.231 292.103C454.638 293.783 454.399 295.567 454.531 297.343V329.699C454.531 330.109 454.45 330.516 454.293 330.895C454.136 331.275 453.905 331.619 453.615 331.91C453.324 332.2 452.979 332.43 452.6 332.587C452.22 332.745 451.813 332.825 451.402 332.825H440.293C439.883 332.825 439.476 332.745 439.096 332.587C438.717 332.43 438.372 332.2 438.081 331.91C437.791 331.619 437.56 331.275 437.403 330.895C437.246 330.516 437.165 330.109 437.165 329.699V271.694C437.165 271.283 437.246 270.876 437.403 270.497C437.56 270.118 437.791 269.773 438.081 269.483C438.372 269.192 438.717 268.962 439.096 268.805C439.476 268.648 439.883 268.567 440.293 268.567H448.002C448.659 268.574 449.298 268.788 449.827 269.178C450.356 269.568 450.749 270.116 450.949 270.742V270.742Z" fill="#283050"/>
<path d="M576.003 300.699C576.003 307.295 574.046 313.744 570.379 319.229C566.712 324.713 561.5 328.988 555.402 331.513C549.304 334.037 542.594 334.698 536.12 333.411C529.647 332.124 523.701 328.947 519.033 324.283C514.366 319.618 511.188 313.675 509.9 307.205C508.612 300.736 509.273 294.029 511.799 287.935C514.325 281.841 518.602 276.632 524.09 272.967C529.578 269.302 536.031 267.346 542.631 267.346C551.482 267.346 559.97 270.86 566.229 277.115C572.487 283.369 576.003 291.853 576.003 300.699ZM542.631 284.022C539.297 283.905 536.005 284.786 533.176 286.552C530.347 288.319 528.111 290.89 526.755 293.936C525.399 296.982 524.985 300.364 525.566 303.647C526.147 306.93 527.697 309.964 530.016 312.36C532.336 314.756 535.319 316.405 538.582 317.094C541.846 317.783 545.241 317.482 548.332 316.228C551.423 314.975 554.069 312.827 555.929 310.059C557.79 307.292 558.78 304.032 558.773 300.699C558.833 296.343 557.163 292.142 554.129 289.016C551.094 285.89 546.943 284.094 542.586 284.022H542.631Z" fill="#283050"/>
<path d="M595.773 268.568C596.314 268.572 596.845 268.716 597.314 268.986C597.783 269.256 598.173 269.643 598.448 270.109L609.92 289.459H610.146L621.663 270.109C621.938 269.643 622.328 269.256 622.797 268.986C623.266 268.716 623.797 268.572 624.338 268.568H636.672C637.234 268.573 637.785 268.73 638.266 269.021C638.748 269.313 639.141 269.729 639.406 270.225C639.671 270.721 639.796 271.28 639.77 271.842C639.743 272.403 639.566 272.948 639.256 273.417L621.119 300.834L639.483 328.024C639.793 328.493 639.97 329.037 639.997 329.599C640.023 330.161 639.897 330.72 639.633 331.216C639.368 331.712 638.974 332.128 638.493 332.42C638.012 332.711 637.461 332.868 636.898 332.873H624.384C623.847 332.874 623.319 332.737 622.85 332.475C622.382 332.213 621.989 331.835 621.709 331.377L610.146 312.253H609.92L598.357 331.377C598.077 331.835 597.684 332.213 597.215 332.475C596.747 332.737 596.219 332.874 595.682 332.873H583.394C582.813 332.877 582.242 332.719 581.746 332.417C581.25 332.116 580.847 331.682 580.583 331.164C580.32 330.647 580.205 330.066 580.253 329.487C580.301 328.909 580.51 328.355 580.855 327.888L599.4 300.698L580.855 273.508C580.545 273.038 580.368 272.494 580.341 271.932C580.315 271.371 580.441 270.812 580.705 270.316C580.97 269.819 581.363 269.403 581.845 269.112C582.326 268.82 582.877 268.664 583.44 268.659L595.773 268.568Z" fill="#283050"/>
<path d="M174.236 236H223.947C232.384 235.976 240.742 237.617 248.543 240.827C256.344 244.037 263.435 248.754 269.408 254.708C275.382 260.661 280.122 267.735 283.356 275.522C286.59 283.31 288.255 291.659 288.255 300.09V349.773C288.255 353.546 286.755 357.165 284.085 359.833C281.416 362.501 277.795 364 274.019 364H224.309C215.887 364.023 207.544 362.389 199.755 359.19C191.965 355.991 184.883 351.291 178.911 345.356C172.94 339.421 168.196 332.37 164.952 324.603C161.707 316.836 160.025 308.507 160.001 300.09V250.408C159.977 248.525 160.328 246.655 161.032 244.908C161.737 243.161 162.782 241.571 164.106 240.231C165.43 238.891 167.008 237.827 168.747 237.1C170.486 236.374 172.352 236 174.236 236ZM223.947 346.34C233.129 346.429 242.131 343.789 249.809 338.755C257.486 333.721 263.494 326.52 267.068 318.066C270.642 309.613 271.621 300.288 269.881 291.277C268.142 282.266 263.762 273.975 257.297 267.457C250.833 260.939 242.576 256.488 233.576 254.67C224.575 252.852 215.237 253.749 206.747 257.246C198.258 260.743 190.999 266.683 185.895 274.312C180.79 281.94 178.069 290.913 178.078 300.09C178.09 312.322 182.944 324.051 191.581 332.717C200.218 341.383 211.935 346.28 224.173 346.34H223.947ZM223.947 332.158C217.62 332.122 211.445 330.215 206.2 326.677C200.956 323.138 196.878 318.127 194.479 312.276C192.08 306.424 191.469 299.993 192.722 293.795C193.975 287.596 197.036 281.907 201.519 277.445C206.003 272.983 211.708 269.947 217.916 268.721C224.123 267.495 230.555 268.133 236.399 270.555C242.244 272.977 247.241 277.075 250.759 282.331C254.277 287.587 256.16 293.767 256.169 300.09C256.169 304.296 255.34 308.46 253.73 312.345C252.119 316.23 249.759 319.76 246.784 322.734C243.809 325.707 240.277 328.066 236.389 329.675C232.502 331.284 228.336 332.113 224.128 332.113L223.947 332.158ZM223.947 314.363C226.761 314.363 229.511 313.529 231.851 311.968C234.191 310.407 236.016 308.187 237.094 305.59C238.173 302.993 238.458 300.135 237.912 297.376C237.367 294.618 236.015 292.083 234.029 290.091C232.043 288.1 229.51 286.741 226.752 286.187C223.993 285.633 221.133 285.908 218.531 286.978C215.929 288.048 213.702 289.865 212.133 292.198C210.563 294.532 209.721 297.278 209.712 300.09C209.712 301.974 210.086 303.839 210.812 305.577C211.539 307.315 212.604 308.891 213.945 310.215C215.286 311.538 216.877 312.583 218.625 313.287C220.373 313.991 222.243 314.341 224.128 314.318L223.947 314.363Z" fill="#4970FF"/>
</svg>
