<svg width="800" height="600" viewBox="0 0 800 600" fill="none" xmlns="http://www.w3.org/2000/svg">
<path fill-rule="evenodd" clip-rule="evenodd" d="M249.656 238.636C230.911 238.762 223.954 238.9 223.408 239.162C222.829 239.441 227.441 239.523 244.614 239.548L266.561 239.577L264.337 240.156C258.761 241.609 248.59 245.801 247.898 246.933C247.752 247.17 256.077 247.259 278.855 247.259C298.251 247.259 310.011 247.158 310.011 246.992C310.011 246.092 299.453 241.678 293.995 240.297C286.615 238.428 285.721 238.396 249.656 238.636Z" fill="black"/>
<path fill-rule="evenodd" clip-rule="evenodd" d="M199.384 252.599L198.346 253.459L218.291 253.474C229.265 253.481 238.237 253.54 238.237 253.607C238.237 253.671 236.932 255.046 235.345 256.647L232.453 259.569L278.691 259.643C304.109 259.682 324.996 259.65 325.078 259.569C325.285 259.363 321.756 255.748 319.116 253.456L317.1 251.709L258.761 251.724L200.422 251.739L199.384 252.599Z" fill="black"/>
<path fill-rule="evenodd" clip-rule="evenodd" d="M188.114 266.387L187.194 267.722H206.784C217.55 267.722 226.373 267.781 226.373 267.855C226.373 267.927 225.904 268.849 225.335 269.887C224.769 270.925 224.297 271.872 224.297 271.978C224.297 272.084 248.944 272.171 279.047 272.171H333.797L332.715 270.199C332.114 269.101 331.18 267.522 330.609 266.639L329.586 265.053H189.033L188.114 266.387Z" fill="black"/>
<path fill-rule="evenodd" clip-rule="evenodd" d="M512.877 299.609V327.933H527.113V322.832L528.332 324.374C534.773 332.523 549.595 330.158 554.338 320.222C564.177 299.609 544.469 275.853 529.427 290.198L527.706 291.839V271.285H512.877V299.609ZM537.85 298.06C542.845 300.852 542.803 314.523 537.79 317.115C531.859 320.183 526.055 313.638 527.343 305.333C528.349 298.838 533.218 295.467 537.85 298.06Z" fill="black"/>
<path fill-rule="evenodd" clip-rule="evenodd" d="M560.524 271.478C560.418 271.584 560.331 284.32 560.331 299.802V327.933H575.754V271.285H568.235C564.113 271.285 560.63 271.372 560.524 271.478Z" fill="black"/>
<path fill-rule="evenodd" clip-rule="evenodd" d="M441.696 281.068V287.593H436.357V296.461L438.953 296.55L441.548 296.639L441.844 320.366L442.514 322.027C444.724 327.516 453.085 330.141 462.012 328.149L463.792 327.751V316.836L461.419 316.789C458.572 316.735 457.462 316.28 456.753 314.879L456.229 313.841L456.377 296.639L460.159 296.55L463.94 296.461V287.593H456.229V274.543H441.696V281.068Z" fill="black"/>
<path fill-rule="evenodd" clip-rule="evenodd" d="M181.633 279.291L181.025 281.071H200.733C211.559 281.071 220.442 281.118 220.442 281.175C220.442 281.231 220.246 281.842 219.997 282.554C219.75 283.266 219.552 284.005 219.552 284.229V284.63H279.018C311.731 284.63 338.484 284.563 338.484 284.482C338.484 284.4 338.076 283.058 337.579 281.516L336.674 278.698H297.287L296.635 277.512H182.241L181.633 279.291Z" fill="black"/>
<path fill-rule="evenodd" clip-rule="evenodd" d="M597.731 286.424C589.545 287.558 583.267 292.724 580.625 300.497L579.817 302.87L579.673 306.607C579.078 321.943 591.947 331.97 607.637 328.394C614.28 326.879 622.021 320.309 622.021 316.187V315.771H607.755L606.819 316.839C603.032 321.154 595.763 318.411 594.325 312.123L594.142 311.322H623L622.819 308.268C621.962 293.705 611.416 284.523 597.731 286.424ZM602.773 296.528C604.948 296.992 606.668 298.747 607.451 301.298L608.022 303.166L604.656 303.255C602.805 303.305 599.688 303.305 597.731 303.255L594.172 303.166L594.698 301.624C595.875 298.184 597.493 296.8 601.023 296.229C601.139 296.211 601.913 296.342 602.773 296.528Z" fill="black"/>
<path fill-rule="evenodd" clip-rule="evenodd" d="M409.575 286.883C403.97 288.079 400.235 290.575 398.169 294.505L397.356 296.047V303.165L398.172 304.841C398.619 305.761 399.657 307.142 400.47 307.901C403.149 310.402 404.652 310.889 416.011 312.936C420.075 313.67 421.528 314.666 421.528 316.719C421.528 321.598 411.454 321.05 410.665 316.126L410.465 314.881H396.021V315.474C396.021 323.442 403.584 328.724 415.448 329.04L420.49 329.176L423.456 328.566C432.561 326.692 437.156 321.077 436.061 313.16C435.08 306.055 431.167 303.353 419.037 301.398C411.533 300.187 409.311 298.4 412.423 296.074L413.253 295.454H418.236L419.066 296.077C419.531 296.425 420.047 297.145 420.238 297.708L420.579 298.717L427.623 298.791L434.667 298.865L434.476 297.471C433.349 289.26 421.676 284.298 409.575 286.883Z" fill="black"/>
<path fill-rule="evenodd" clip-rule="evenodd" d="M482.24 286.714C474.647 287.992 469.42 292.821 468.542 299.368L468.33 300.94H482.566L482.749 300.11C483.915 294.801 492.111 294.697 492.113 299.991C492.116 302.196 489.714 303.278 482.744 304.213C470.376 305.871 465.9 309.751 466.745 318.083C467.811 328.612 482.979 332.944 490.93 324.993L492.324 323.599L493.599 327.93H501.014C508.695 327.93 509.004 327.878 507.986 326.743C507.123 325.784 506.945 323.066 506.945 310.876V298.686L506.505 296.996C504.355 288.763 494.607 284.63 482.24 286.714ZM492.128 315.799C490.596 321.019 481.142 321.452 481.142 316.303C481.142 313.691 482.358 312.734 487.252 311.504C488.883 311.093 490.68 310.564 491.241 310.327L492.264 309.897L492.353 312.314C492.403 313.649 492.301 315.209 492.128 315.799Z" fill="black"/>
<path fill-rule="evenodd" clip-rule="evenodd" d="M178.816 290.486C178.741 290.775 178.598 291.761 178.489 292.71L178.297 294.416H217.832L217.624 297.233L278.81 297.307L339.996 297.381L340.159 296.937C340.248 296.692 340.228 295.483 340.115 294.267L339.907 292.043H300.55L300.046 290.115L178.949 289.967L178.816 290.486Z" fill="black"/>
<path fill-rule="evenodd" clip-rule="evenodd" d="M178.178 304.276C178.277 305.136 178.423 306.263 178.504 306.797L178.652 307.761L198.272 307.835L217.891 307.909L218.395 309.837H339.581L339.774 308.725C339.882 308.102 339.966 307.123 339.966 306.5V305.388H300.817V302.719H178L178.178 304.276Z" fill="black"/>
<path fill-rule="evenodd" clip-rule="evenodd" d="M180.106 315.536C180.106 316.003 180.835 318.472 181.463 320.133L181.945 321.408H221.361L221.687 322.298H336.14L336.556 321.319C336.783 320.785 337.06 319.977 337.164 319.54L337.356 318.739H317.752C305.8 318.739 298.148 318.628 298.148 318.457C298.148 318.296 298.259 317.879 298.4 317.493C298.538 317.12 298.741 316.44 298.845 315.995L299.037 315.18H239.572C192.207 315.18 180.106 315.251 180.106 315.536Z" fill="black"/>
<path fill-rule="evenodd" clip-rule="evenodd" d="M184.851 327.811C184.851 328.132 185.835 329.917 187.335 332.319L188.855 334.751H329.497L330.283 333.565C330.715 332.912 331.069 332.311 331.069 332.23C331.069 332.148 322.32 332.082 311.642 332.082C300.965 332.082 292.216 331.975 292.216 331.844C292.216 331.713 292.688 330.717 293.269 329.62L294.322 327.633H239.586C209.483 327.633 184.851 327.712 184.851 327.811Z" fill="black"/>
<path fill-rule="evenodd" clip-rule="evenodd" d="M193.452 340.329C193.452 340.806 195.677 343.166 198.435 345.621L201.223 348.1H318.197L319.917 346.32H279.908L282.799 343.428C284.401 341.827 285.691 340.438 285.691 340.314C285.691 340.191 264.93 340.092 239.572 340.092C214.213 340.092 193.452 340.198 193.452 340.329Z" fill="black"/>
<path fill-rule="evenodd" clip-rule="evenodd" d="M208.629 352.873C208.773 353.288 212.849 355.414 216.289 356.865C219.666 358.288 225.068 359.828 229.458 360.619L233.047 361.267L262.705 361.37L292.364 361.474L295.627 360.703L251.138 360.406L252.918 360.004C258.227 358.805 270.565 353.797 270.565 352.843C270.565 352.648 259.828 352.547 239.542 352.547C216.378 352.547 208.549 352.628 208.629 352.873Z" fill="black"/>
</svg>
