<svg width="800" height="600" viewBox="0 0 800 600" fill="none" xmlns="http://www.w3.org/2000/svg">
<path fill-rule="evenodd" clip-rule="evenodd" d="M302 278.236H436.421V267H302V278.236ZM444 319.759V331H658V319.052L444 319.759Z" fill="#22A652"/>
<path d="M320.829 285.644H302V331.08H313.421V317.982H321.369C333.474 317.982 339.555 311.402 339.555 302.214C339.555 293.026 334.05 285.644 320.829 285.644ZM321.822 308.424H313.441V295.825H321.822C326.539 295.825 328.216 299.174 328.216 302.214C328.216 305.255 326.539 308.424 321.822 308.424V308.424ZM382.975 301.782C382.975 292.347 377.197 285.644 365.344 285.644H345.543V331.08H356.902V316.675H362.561L372.619 331.08H386.37L374.327 314.942C379.929 312.647 382.975 308.115 382.975 301.782ZM365.792 307.678H356.902V295.758H365.792C367.342 295.803 368.814 296.451 369.894 297.564C370.975 298.677 371.579 300.167 371.579 301.718C371.579 303.269 370.975 304.759 369.894 305.871C368.814 306.984 367.342 307.632 365.792 307.678V307.678ZM412.607 284.836C398.892 284.836 388.772 295.449 388.772 308.362C388.772 321.275 398.871 331.888 412.607 331.888C426.343 331.888 436.508 321.336 436.508 308.362C436.508 295.387 426.368 284.836 412.607 284.836ZM412.607 321.583C405.718 321.583 400.193 316.305 400.193 308.362C400.193 300.789 405.718 295.202 412.607 295.202C419.495 295.202 425.026 300.542 425.026 308.362C425.026 316.182 419.48 321.583 412.607 321.583ZM444.086 313.244H478.848V303.125H455.425V294.811H476.224V285.309H455.425V277.922H478.827V267.808H444.066L444.086 313.244ZM509.581 291.704L489.26 267.808H486.343V313.244H497.769V294.724L509.56 308.614L521.357 294.724L521.295 313.244H532.778V267.808H529.861L509.581 291.704ZM543.483 313.244H554.966V267.808H543.463L543.483 313.244ZM585.925 267C572.205 267 562.086 277.613 562.086 290.526C562.086 303.439 572.205 314.052 585.925 314.052C599.646 314.052 609.822 303.5 609.822 290.526C609.822 277.551 599.702 267 585.925 267ZM585.925 303.747C579.032 303.747 573.507 298.469 573.507 290.526C573.507 282.953 579.032 277.366 585.925 277.366C592.819 277.366 598.324 282.706 598.324 290.526C598.324 298.346 592.814 303.747 585.925 303.747V303.747ZM646.517 267.808V291.642L620.692 267.808H617.466V313.244H628.887V289.78L654.836 313.244H658V267.808H646.517Z" fill="#2F3D4D"/>
<path fill-rule="evenodd" clip-rule="evenodd" d="M142.099 364H190.175V352.613H142.099V364ZM238.255 236H142.099V247.387H238.255V236ZM142.099 340.673H190.175V329.296H142.099V340.673ZM190.175 317.352H238.255V305.97H190.175V317.352ZM142 259.327V270.704H253.997V259.327H142ZM142 294.03H253.997V282.648H142V294.03Z" fill="#22A652"/>
</svg>
