<svg width="800" height="600" viewBox="0 0 800 600" fill="none" xmlns="http://www.w3.org/2000/svg">
<path d="M178 244.011H194.683L221.689 318.279L248.83 244.011H265.508L231.223 337.212H212.285L178 244.011ZM299.529 339.329C292.471 339.329 286.313 337.806 281.065 334.761C275.864 331.767 271.619 327.361 268.821 322.052C265.905 316.627 264.45 310.469 264.45 303.583C264.45 296.88 265.838 290.808 268.62 285.383C271.311 280.05 275.467 275.595 280.601 272.54C285.811 269.404 291.854 267.838 298.739 267.838C305.443 267.838 311.184 269.318 315.949 272.277C320.718 275.231 324.333 279.378 326.804 284.717C329.275 290.061 330.51 296.305 330.51 303.454C330.51 304.867 330.467 306.054 330.381 307.026H278.882C279.499 313.558 281.683 318.48 285.432 321.789C289.186 325.098 294.104 326.754 300.195 326.754C304.696 326.754 308.824 325.979 312.573 324.437C316.337 322.884 319.841 320.764 322.964 318.15L327.996 329.402C324.157 332.642 319.76 335.154 315.02 336.815C310.255 338.491 305.093 339.329 299.534 339.329H299.529ZM316.083 296.832C315.642 291.45 313.88 287.322 310.787 284.454C307.698 281.586 303.681 280.154 298.739 280.154C293.616 280.154 289.364 281.59 285.964 284.454C282.564 287.327 280.381 291.445 279.408 296.832H316.083ZM344.54 243.987L359.245 242V337.212H344.545V243.987H344.54ZM428.481 269.964L443.344 268.264L443.439 337.217H428.481V269.959V269.964ZM405.578 267.843C411.578 267.843 416.917 269.39 421.595 272.478C426.273 275.567 429.936 279.804 432.584 285.186C435.232 290.573 436.559 296.75 436.559 303.718C436.559 310.608 435.232 316.742 432.584 322.124C429.936 327.506 426.273 331.72 421.595 334.765C416.917 337.811 411.578 339.334 405.578 339.334C399.31 339.334 393.75 337.811 388.895 334.765C384.04 331.72 380.247 327.506 377.513 322.124C374.774 316.742 373.405 310.608 373.405 303.722C373.405 296.837 374.774 290.684 377.513 285.254C380.242 279.823 384.04 275.567 388.895 272.478C393.75 269.39 399.31 267.843 405.578 267.843ZM408.623 280.949C402.532 280.949 397.701 283.003 394.124 287.107C390.552 291.21 388.761 296.75 388.761 303.722C388.761 308.31 389.58 312.303 391.213 315.703C392.845 319.103 395.163 321.727 398.165 323.58C401.163 325.433 404.649 326.357 408.623 326.357C412.597 326.357 416.079 325.433 419.081 323.58C422.083 321.727 424.396 319.103 426.034 315.703C427.662 312.303 428.481 308.31 428.481 303.722C428.481 296.75 426.671 291.21 423.051 287.107C419.435 283.003 414.623 280.949 408.623 280.949Z" fill="#005351"/>
<path d="M517.784 374.89L600.018 285.629C602.35 283.301 604.328 280.618 604.328 277.219C604.328 272.568 600.738 269.347 595.89 269.347H525.685C507.733 269.347 496.597 282.23 496.597 296.899C496.597 311.741 507.55 321.936 520.477 321.936C531.613 321.936 539.149 314.246 539.149 304.406C539.149 294.926 531.968 286.166 521.734 286.344V280.618C538.971 277.042 553.338 289.92 553.338 307.267C553.338 324.082 539.514 338.928 519.402 338.928C497.317 338.928 479 321.936 479 296.717C479 271.675 498.032 252 526.222 252H596.782C612.766 252 623 262.195 623 276.682C623 284.914 619.592 290.813 615.099 295.464L542.379 374.89H517.784Z" fill="#009B8A"/>
</svg>
