<?xml version="1.0" encoding="utf-8"?>
<!-- Generator: Adobe Illustrator 25.2.3, SVG Export Plug-In . SVG Version: 6.00 Build 0)  -->
<svg version="1.1" id="Layer_1" xmlns="http://www.w3.org/2000/svg" xmlns:xlink="http://www.w3.org/1999/xlink" x="0px" y="0px"
	 viewBox="0 0 800 600" style="enable-background:new 0 0 800 600;" xml:space="preserve">
<style type="text/css">
	.st0{fill-rule:evenodd;clip-rule:evenodd;fill:#1F5796;}
	.st1{fill-rule:evenodd;clip-rule:evenodd;fill:#CC2132;}
</style>
<path class="st0" d="M570.9,229.8c-9.5-16.2-59.5-5.6-121.9,22.9c3.2,2.4,6.3,5.3,8.8,8.1c47.9-20.5,84.9-26.8,92.6-13.3
	c8.8,15.2-26.1,52.9-82.1,90.2l0.7,0.7C537.5,293.9,581.5,248.1,570.9,229.8L570.9,229.8z M275.7,406c-5.3-9.5,6-27.5,28.5-49
	c-1.7-0.3-3.6-1-5.3-1.7c-0.3,0-0.3-0.3-0.3-0.3l-5.3-2.1c-27.1,24.9-40.8,46-34.5,57.3c7.7,13,41.3,8.8,86-7.7l-0.3-0.7
	C308.4,414,282,416.5,275.7,406L275.7,406z"/>
<path class="st1" d="M247.5,296.3c0-38.4,50.7-69.8,113.1-69.8c62.7,0,113.4,31.4,113.4,69.8c0,38.7-50.7,70.1-113.4,70.1
	C298.2,366.4,247.5,335.2,247.5,296.3z M311.6,242.1l21.5,73l22.5-82.4C339.8,233.3,324.6,236.5,311.6,242.1z M354.6,272.4
	L343,315.1h23.6L354.6,272.4L354.6,272.4z M388.1,315.1l20.5-73.7c-13.3-5.3-28.5-8.5-44.4-8.8L388.1,315.1z M311.3,315.1
	l-11.6-42.6l-11.6,42.6H311.3z M445.5,323.5c5.6-8.1,8.8-17.2,8.8-27.1c0-18.6-11.6-35.3-30.7-47.2L445.5,323.5L445.5,323.5z
	 M421.5,315.1l-12-42.6L398,315.1H421.5z M424,323.5h-28.5l-2.4,9.2l6.7,21.8c10.9-3.2,20.8-8.1,28.9-14.1L424,323.5z M322.2,354.5
	l-8.5-31h-28.2l-2.4,8.8c9.9,9.9,23.2,17.6,39.1,22.5V354.5z M369.1,323.5h-28.5l-9.2,33.8c9.2,2.1,19.1,3.2,29.2,3.2
	c6.3,0,12.3-0.3,18.3-1.4L369.1,323.5L369.1,323.5z M295.8,250.6c-17.6,11.6-28.5,27.8-28.5,45.8c0,9.9,3.2,18.6,8.5,26.8
	L295.8,250.6z"/>
</svg>
