<?xml version="1.0" encoding="utf-8"?>
<!-- Generator: Adobe Illustrator 25.2.1, SVG Export Plug-In . SVG Version: 6.00 Build 0)  -->
<svg version="1.1" id="Layer_1" xmlns="http://www.w3.org/2000/svg" xmlns:xlink="http://www.w3.org/1999/xlink" x="0px" y="0px"
	 viewBox="0 0 800 600" style="enable-background:new 0 0 800 600;" xml:space="preserve">
<style type="text/css">
	.st0{fill:url(#Path_17447_1_);}
	.st1{fill:#7F8486;}
	.st2{fill:#999999;}
	.st3{fill:none;stroke:#1A1818;stroke-width:1.0004;stroke-miterlimit:10.0032;}
	.st4{fill:#FFFFFF;}
	.st5{fill:none;}
	.st6{fill:url(#Path_17461_1_);}
	.st7{fill:#828282;}
	.st8{fill:url(#Path_17463_1_);}
	.st9{fill:url(#Path_17465_1_);}
	.st10{fill:url(#Path_17467_1_);}
	.st11{fill:url(#Path_17469_1_);}
	.st12{fill:url(#Path_17471_1_);}
	.st13{fill:url(#Path_17473_1_);}
	.st14{fill:url(#Path_17475_1_);}
	.st15{fill:#E50019;}
	.st16{fill:#FFDF00;}
	.st17{fill:url(#Path_17490_1_);}
	.st18{fill:url(#Path_17491_1_);}
	.st19{fill:#DBDBDB;}
	.st20{fill:#858585;}
	.st21{fill:#FFEE00;}
</style>
<path id="Path_17446" d="M679.4,294.8h-3.6c-0.1,0-0.2,0.1-0.2,0.3c0.3,3.4-3.1,6.4-8.3,8.1c0,0,0,0-0.1,0
	c-1.3-14.5-31.2-2.6-34.4,11.6l0,0c-13.5,6.7-19.6,1.5-20.3-0.4c0,0,18.9-5.6,19.8-14.7c0.1-7.6-25.4-1.8-30,15
	c-5.4,2.8-11.6,2.9-11.8,1.9c-0.4-2.8,8.2-9.7,9.8-13.8c1.9-4.6-3.1-4.4-3.1-4.4c-5.3,1.1-10.5,2.5-15.6,4.1
	c1.6-8.4-11-1.7-19.2-0.1c0.6-5.9-4.6-4.7-23.1,0.7c-1.3-14.7-31.3-2.5-34.5,11.8c-7.4,3.5-10.6,2.6-10.4,0.3
	c0.3-3.2,6.4-9.7,4.1-14.1c26.7-7.2,22.3-27.1,9.4-32.8l0,0c1.5-1.1,2.9-2.1,4-2.8c0.1,0,0.2-0.3-0.2-0.3h-4.9
	c-0.2,0-0.3,0.1-0.4,0.2c-0.7,0.4-1.3,0.9-2.1,1.3c-43.5-11.3-75.4,32.2-44.4,36.3l6.4-5.7c1.3-1.2,1-1.5-0.2-1.3
	c-2.1,0.2-4.4-0.3-6.2-1.6c-13.7-9.8,12.3-30.4,38.3-22.9c-15.8,12-34.4,50-52,38.6l0,0c-0.6-0.4-1-0.1-1.6,0.4
	c-3.4,3.5-8.7,7.8-8.7,7.8c-0.4,0.3-0.7,1.1,0.1,1.3c21.6,9.7,34-4.4,46.1-21c2.1,3.7,6.6,5.3,10.5,3.7c0,3.4-11.3,13.9-12,16
	c-2.8,8.3,16,3.6,24.6-0.2c5.5,12,29.3-0.3,33.5-11.2c11.3-3.8,9.5,0.4,8.5,1.8c-6.9,8.7-11.2,12.9-11.2,13.8c0,0.3,0.3,0.7,0.7,0.7
	h7.6c1,0,1.9-0.6,2.6-1.2s10.6-12.8,12.5-15c12.4-4.9,7.1,1.8,7.1,1.8c-7.1,8.5-11.2,12.9-11.2,13.8c0,0.3,0.3,0.7,0.7,0.7h7.7
	c1,0,1.9-0.6,2.5-1.2c0.7-0.7,11-13.2,12.6-15.1c11.9-4.1,6.7,1.7,6.3,2.2c-2.7,2.9-5.3,6-7.4,9.4c-1.1,5.8,5.4,7.1,25.1-0.8
	c5.7,11.8,27.8,0.9,30.2-0.3c0,0.2,0.1,0.4,0.2,0.8c5.5,12,29.3-0.3,33.5-11.2l0,0c11.9-3.4,13.4-11.5,13.4-11.8
	C679.7,294.9,679.6,294.8,679.4,294.8z M502,273.3c13,8.4,3.5,19.2-5.6,23.5c-2.8-3.1-7.3-4.3-11.2-2.7
	C490.2,286.6,495.8,279.7,502,273.3L502,273.3z M484.9,297.1c2.2-2.6,7.7-0.2,7.5,1.5C490,300.2,486.7,299.5,484.9,297.1
	L484.9,297.1z M535.3,304.4c0,0.1,0,0.1-0.1,0.2c-5.6,2.6-4.3,6.5-5,7.3c-7.1,6-12,5.7-13.5,4c-4.4-4.9,11.9-20.4,18.1-15.1
	C535.6,301.8,535.8,303.3,535.3,304.4L535.3,304.4z M625.9,299.4c1-0.1,1.1,0.4,0.9,1c-2,7.6-14.5,11-14.5,11
	S613.5,301.3,625.9,299.4L625.9,299.4z M663.1,304.6c-5.6,2.5-4.3,6.5-5,7.2c-7.1,6.2-12.1,5.8-13.5,4c-4.4-4.9,11.9-20.4,18.1-15.1
	C663.5,302,663.6,303.4,663.1,304.6L663.1,304.6z M435,309.5h-4c-0.1,0-0.2,0.1-0.3,0.2c-3.5,4.3-8.2,7.3-13.5,8.6
	c-11,3.1-4.5-5.5-4.5-5.5c9.5-11.8,10.2-12.4,11.1-13.8c0.1-0.2-0.2-0.8-0.8-0.8h-7c-1.5,0-2.8,0.7-3.7,1.7
	c-0.1-0.1-0.1-0.3-0.2-0.4c-3-4.7-14.3-4-22.8,1.6c-5,2.9-8.8,7.5-10.7,13c-3.9,0-7.8-0.4-11.5-1.5l7.8-9.8
	c16.7-4.8,44.1-31.1,30.4-30.7c-11.4,1.5-26.5,13.4-46.4,36.4c-0.7-0.4-4-2.9-6.3-1.1c-1.2,1-0.8,3,0.4,4.4c-20,7.4-19,3.6-17,0.9
	c1.6-2.1,6.8-9.5,6.8-9.5c20.6-6.4,47.3-34.6,29.1-30.6c-7.9,1.8-24.2,11.6-46.8,39.1c-10.6,5-18.6,7.8-11-1.7s31.3-36.4,31.3-37.2
	c0-0.4-0.3-0.7-0.8-0.8H335c-1.3,0.1-2.6,0.9-3.4,2.1c-3.9-2.1-8.4-2.9-12.8-2.5c-28.3,1.8-52.6,27.6-50.4,42.2
	c1.1,5.6,6.3,9.5,12,9.1c5.5-0.3,10.7-1.8,15.7-4.3c0,0-3.1,9.5,24.1-0.3c-0.1,0.2-4.1,10.4,30.9-1.7c-0.3,0.6-12.4,13.9-18.4,19.9
	c-14.1,14.4-23.9,5-24.6,4.5c-0.1-0.1-0.2-0.1-0.3,0l-2.8,2.4c-0.1,0.1-0.1,0.3,0,0.4l0,0c22.6,16.7,46.7-14.8,58.5-27.3
	c4.8,0.9,9.7,1,14.5,0.3c0.1,1,0.3,2,0.9,2.8c2.7,4.1,11.9,4,19.9,0.1c0,0,1.1,5.7,17.3,2c8.1-1.8,16.6-7.7,19-12.1
	C435.5,309.6,435.2,309.5,435,309.5L435,309.5z M399,277.2c3.2-2,3.2,2.4-1.5,7.4c-11.2,11.9-19.9,13.5-19.9,13.5
	S389.3,283,399,277.2L399,277.2z M368,277.2c3.2-2,3.2,2.4-1.5,7.4c-11.2,11.9-19.9,13.5-19.9,13.5S358.3,283,368,277.2L368,277.2z
	 M288.2,315.3c-17-1.9-2-22,13.9-32.7c11.3-7.6,23.5-9.6,24.3-3.5c-0.7,2.8-2.1,5.4-4.3,7.3c-3,3.4-11.9,13.7-19.2,22.2
	C297.4,313.5,291.2,315.6,288.2,315.3z M408.7,304.4c-2.4,2.9-5.4,6.7-7.9,10c-4.6,3.2-9.4,4.1-11.2,2c-2-2.5,0.4-7.8,5.6-12.2
	c5.1-4.4,11-5.8,13-3.4C408.9,302,409.2,303.3,408.7,304.4z"/>
<linearGradient id="Path_17447_1_" gradientUnits="userSpaceOnUse" x1="541.2339" y1="587.7351" x2="539.1382" y2="588.3244" gradientTransform="matrix(41.412 0 0 -41.412 -22186.9668 24661.7891)">
	<stop  offset="0.194" style="stop-color:#000C2A"/>
	<stop  offset="0.356" style="stop-color:#00264E"/>
	<stop  offset="0.509" style="stop-color:#003C6D"/>
	<stop  offset="0.599" style="stop-color:#003461"/>
	<stop  offset="0.762" style="stop-color:#001E41"/>
	<stop  offset="0.861" style="stop-color:#00102B"/>
</linearGradient>
<path id="Path_17447" class="st0" d="M182.2,250.5c-32.9,0-59.5,26.6-59.5,59.5s26.6,59.5,59.5,59.5s59.5-26.6,59.5-59.5l0,0
	C241.7,277.1,215.1,250.5,182.2,250.5z M182.3,351.3c-22.8,0-41.3-18.5-41.3-41.3s18.5-41.3,41.3-41.3s41.3,18.5,41.3,41.3
	C223.6,332.7,205,351.3,182.3,351.3L182.3,351.3L182.3,351.3z"/>
<path id="Path_17448" class="st1" d="M154.4,338v-21.8h-11.1C144.6,324.4,148.5,332.2,154.4,338z M154.4,303.5v-21.6
	c-5.9,5.8-9.8,13.4-11.2,21.6H154.4z M193.2,341.1h-4.4c-5.3-0.1-9.5-4.5-9.4-9.8c0.1-3.7,2.2-6.9,5.5-8.5l0.2-0.1l0,0
	c-3.1-1.1-5.8-3.5-7.3-6.5h-10.7v30.3c4.8,2,10,3,15.1,3c1,0,2,0,3-0.1h0.1c2.7-0.1,5.3-0.9,7.5-2.4c1.8-1.1,2.7-2.4,2.7-3.5
	C195.6,342.2,194.5,341.1,193.2,341.1L193.2,341.1z M198.9,296.2h-20c0.7-2.8,2.4-5.3,4.7-6.8l0.2-0.1l-0.2-0.2
	c-1.9-1.7-3.4-3.8-4.3-6.2c0-0.1-0.1-0.1-0.1-0.2h9.3c1,0,1.1-0.1,1.6-0.7c0.3-0.6,0.8-1.1,1.2-1.5c1-0.8,2.2-1.2,3.6-1.2h4.9
	c1.2,0,2.2-1,2.2-2.2c0-0.8-0.4-1.6-1.2-2l0,0c-10.4-5.5-22.7-6-33.6-1.6v30H179c2.4-3.4,6.2-5.4,10.3-5.4h9.7c0.6,0,1-0.4,1-1
	C200,296.5,199.4,296.2,198.9,296.2L198.9,296.2z M215,287.9L215,287.9c2.9,9.4-2.1,19.4-11.4,22.5l0,0c6.2,1.8,9.6,8.3,7.8,14.4
	c-1.5,4.8-5.9,8.2-11,8.3l0,0l0.2,0.2c3,2.4,4,6.4,2.5,9.8l-0.2,0.6l0,0c18.6-11.4,24.5-35.7,13.1-54.4
	C215.7,288.9,215.3,288.3,215,287.9L215,287.9z"/>
<path id="Path_17449" class="st2" d="M182.2,248c-34.2,0-62,27.8-62,62s27.8,62,62,62s62-27.8,62-62l0,0
	C244.2,275.8,216.4,248,182.2,248L182.2,248z M182.2,369.7c-32.9,0-59.6-26.7-59.6-59.6c0-32.9,26.7-59.6,59.6-59.6
	s59.6,26.7,59.6,59.6C241.8,343,215.1,369.7,182.2,369.7z"/>
<ellipse id="Ellipse_7" class="st3" cx="182.2" cy="310" rx="62" ry="62"/>
<path id="Path_17450" class="st4" d="M182.2,250.4c-32.9,0-59.6,26.7-59.6,59.6s26.7,59.6,59.6,59.6s59.6-26.7,59.6-59.6l0,0
	C241.9,277,215.1,250.4,182.2,250.4L182.2,250.4z M182.2,369.2c-32.7,0-59.2-26.5-59.2-59.2s26.5-59.2,59.2-59.2
	s59.2,26.5,59.2,59.2S214.9,369.2,182.2,369.2L182.2,369.2L182.2,369.2z"/>
<path id="Path_17451" class="st5" d="M213.1,334.7L213.1,334.7L213.1,334.7z"/>
<path id="Path_17452" class="st5" d="M172.7,287c0.7,0,1.3,0.2,1.8,0.8c0.2,0.2,0.4,0.3,0.8,0.3c0.2,0,0.3-0.1,0.3-0.4
	c0-1.6-0.4-4.9-1.1-5.3c0,0,0,0-0.1,0h-0.1c-0.1,0-0.1,0-0.2,0s-0.1,0-0.2,0c-0.6-0.2-1.1-0.8-1.3-1.3l-0.1-0.2l0.2-0.1
	c0.3-0.1,0.8-0.1,1.2-0.1c0.9,0,1.9,0.3,2.6,1c0.7,0.8,1.1,1.6,1.5,2.5c0.8,1.9,1.9,3.6,3.4,5l0.1,0.1l-0.1,0.1
	c-1.5,1.5-2.6,3.1-3.4,5c-0.3,0.9-0.9,1.8-1.5,2.6c-0.7,0.7-1.6,1-2.6,1c-0.4,0-0.8,0-1.2-0.1l-0.2-0.1l0.1-0.3
	c0.2-0.6,0.7-1.1,1.3-1.3c0.1,0,0.1,0,0.2,0s0.1,0,0.2,0h0.1c0,0,0,0,0.1,0c0.8-0.4,1.1-3.7,1.1-5.3c0-0.3-0.1-0.4-0.3-0.4
	c-0.3,0-0.6,0.1-0.8,0.3c-0.4,0.4-1.1,0.8-1.8,0.8c-1.2,0.1-2.2-0.9-2.5-2v-0.2C170.3,287.7,171.5,286.8,172.7,287z"/>
<path id="Path_17453" class="st5" d="M216.9,329c-0.1,0.3-0.3,0.6-0.4,0.9C216.6,329.7,216.7,329.4,216.9,329z"/>
<path id="Path_17454" class="st5" d="M214.7,332.6c0,0.1-0.1,0.1-0.1,0.2C214.5,332.7,214.7,332.6,214.7,332.6z"/>
<path id="Path_17455" class="st5" d="M217.3,328.1c-0.1,0.2-0.2,0.4-0.3,0.7C217.1,328.6,217.2,328.4,217.3,328.1z"/>
<path id="Path_17456" class="st5" d="M215.4,331.5l-0.2,0.3L215.4,331.5z"/>
<path id="Path_17457" class="st5" d="M216,330.5l-0.2,0.4L216,330.5z"/>
<path id="Path_17458" class="st5" d="M213.9,333.7L213.9,333.7L213.9,333.7z"/>
<path id="Path_17459" class="st5" d="M217.6,327.8c6.5-12.8,5.5-28.1-2.5-40.1l0,0c0,0,0,0,0,0.1C223,299.7,223.9,315,217.6,327.8
	L217.6,327.8z"/>
<path id="Path_17460" class="st5" d="M200.9,275.2c-0.1,0-0.1-0.1-0.2-0.1l0,0c-10.4-5.5-22.7-6-33.6-1.6l0,0
	C178.1,268.9,190.5,269.6,200.9,275.2L200.9,275.2z"/>
<linearGradient id="Path_17461_1_" gradientUnits="userSpaceOnUse" x1="525.6359" y1="524.2911" x2="545.3718" y2="520.3297" gradientTransform="matrix(3.865 0 0 -6.0393 -1879.5664 3448.5879)">
	<stop  offset="0.101" style="stop-color:#FFFFFF"/>
	<stop  offset="0.276" style="stop-color:#73787D"/>
	<stop  offset="0.303" style="stop-color:#898D92"/>
	<stop  offset="0.369" style="stop-color:#BBBEC0"/>
	<stop  offset="0.426" style="stop-color:#E0E1E2"/>
	<stop  offset="0.473" style="stop-color:#F6F7F7"/>
	<stop  offset="0.502" style="stop-color:#FFFFFF"/>
	<stop  offset="0.533" style="stop-color:#F3F4F4"/>
	<stop  offset="0.589" style="stop-color:#D5D6D8"/>
	<stop  offset="0.661" style="stop-color:#A4A8AB"/>
	<stop  offset="0.726" style="stop-color:#73787D"/>
	<stop  offset="0.906" style="stop-color:#D2D2D3"/>
</linearGradient>
<path id="Path_17461" class="st6" d="M172.7,291.3c0.7,0,1.3-0.2,1.8-0.8c0.2-0.2,0.4-0.3,0.8-0.3c0.2,0,0.3,0.1,0.3,0.4
	c0,1.6-0.4,4.8-1.1,5.3c0,0,0,0-0.1,0h-0.1c-0.1,0-0.1,0-0.2,0s-0.1,0-0.2,0c-0.6,0.2-1.1,0.8-1.3,1.3l-0.1,0.3l0.2,0.1
	c0.3,0.1,0.8,0.1,1.2,0.1c0.9,0,1.9-0.3,2.6-1c0.7-0.8,1.1-1.6,1.5-2.6c0.8-1.9,1.9-3.6,3.4-5l0.1-0.1l-0.1-0.1
	c-1.5-1.5-2.6-3.1-3.4-5c-0.3-0.9-0.9-1.8-1.5-2.5c-0.7-0.7-1.6-1-2.6-1c-0.4,0-0.8,0-1.2,0.1l-0.2,0.1l0.1,0.2
	c0.2,0.6,0.7,1.1,1.3,1.3c0.1,0,0.1,0,0.2,0s0.1,0,0.2,0h0.1c0,0,0,0,0.1,0c0.8,0.4,1.1,3.7,1.1,5.3c0,0.3-0.1,0.4-0.3,0.4
	c-0.3,0-0.6-0.1-0.8-0.3c-0.4-0.4-1.1-0.8-1.8-0.8c-1.2-0.1-2.2,0.9-2.5,2v0.2C170.3,290.5,171.5,291.4,172.7,291.3z"/>
<path id="Path_17462" class="st7" d="M213.9,333.7c-0.2,0.3-0.4,0.6-0.7,0.9C213.3,334.4,213.5,334.1,213.9,333.7z"/>
<linearGradient id="Path_17463_1_" gradientUnits="userSpaceOnUse" x1="211.7894" y1="-867.2233" x2="520.1239" y2="-943.2951" gradientTransform="matrix(0.251 0 0 -0.319 88.384 34.9443)">
	<stop  offset="0.101" style="stop-color:#FFFFFF"/>
	<stop  offset="0.276" style="stop-color:#73787D"/>
	<stop  offset="0.303" style="stop-color:#898D92"/>
	<stop  offset="0.369" style="stop-color:#BBBEC0"/>
	<stop  offset="0.426" style="stop-color:#E0E1E2"/>
	<stop  offset="0.473" style="stop-color:#F6F7F7"/>
	<stop  offset="0.502" style="stop-color:#FFFFFF"/>
	<stop  offset="0.533" style="stop-color:#F3F4F4"/>
	<stop  offset="0.589" style="stop-color:#D5D6D8"/>
	<stop  offset="0.661" style="stop-color:#A4A8AB"/>
	<stop  offset="0.726" style="stop-color:#73787D"/>
	<stop  offset="0.906" style="stop-color:#D2D2D3"/>
</linearGradient>
<path id="Path_17463" class="st8" d="M213.9,333.7c-0.2,0.3-0.4,0.6-0.7,0.9C213.3,334.4,213.5,334.1,213.9,333.7z"/>
<path id="Path_17464" class="st7" d="M215.2,331.8c-0.1,0.2-0.3,0.4-0.4,0.8C214.9,332.4,215,332.2,215.2,331.8z"/>
<linearGradient id="Path_17465_1_" gradientUnits="userSpaceOnUse" x1="75.007" y1="-1223.0432" x2="511.7185" y2="-1317.0081" gradientTransform="matrix(0.175 0 0 -0.256 129.9951 -3.5064)">
	<stop  offset="0.101" style="stop-color:#FFFFFF"/>
	<stop  offset="0.276" style="stop-color:#73787D"/>
	<stop  offset="0.303" style="stop-color:#898D92"/>
	<stop  offset="0.369" style="stop-color:#BBBEC0"/>
	<stop  offset="0.426" style="stop-color:#E0E1E2"/>
	<stop  offset="0.473" style="stop-color:#F6F7F7"/>
	<stop  offset="0.502" style="stop-color:#FFFFFF"/>
	<stop  offset="0.533" style="stop-color:#F3F4F4"/>
	<stop  offset="0.589" style="stop-color:#D5D6D8"/>
	<stop  offset="0.661" style="stop-color:#A4A8AB"/>
	<stop  offset="0.726" style="stop-color:#73787D"/>
	<stop  offset="0.906" style="stop-color:#D2D2D3"/>
</linearGradient>
<path id="Path_17465" class="st9" d="M215.2,331.8c-0.1,0.2-0.3,0.4-0.4,0.8C214.9,332.4,215,332.2,215.2,331.8z"/>
<path id="Path_17466" class="st7" d="M217.6,327.8l-0.1,0.2L217.6,327.8z"/>
<linearGradient id="Path_17467_1_" gradientUnits="userSpaceOnUse" x1="-1300.4679" y1="-4927.6855" x2="428.1655" y2="-5201.7866" gradientTransform="matrix(4.199219e-02 0 0 -8.401489e-02 202.822 -108.0791)">
	<stop  offset="0.101" style="stop-color:#FFFFFF"/>
	<stop  offset="0.276" style="stop-color:#73787D"/>
	<stop  offset="0.303" style="stop-color:#898D92"/>
	<stop  offset="0.369" style="stop-color:#BBBEC0"/>
	<stop  offset="0.426" style="stop-color:#E0E1E2"/>
	<stop  offset="0.473" style="stop-color:#F6F7F7"/>
	<stop  offset="0.502" style="stop-color:#FFFFFF"/>
	<stop  offset="0.533" style="stop-color:#F3F4F4"/>
	<stop  offset="0.589" style="stop-color:#D5D6D8"/>
	<stop  offset="0.661" style="stop-color:#A4A8AB"/>
	<stop  offset="0.726" style="stop-color:#73787D"/>
	<stop  offset="0.906" style="stop-color:#D2D2D3"/>
</linearGradient>
<path id="Path_17467" class="st10" d="M217.6,327.8l-0.1,0.2L217.6,327.8z"/>
<path id="Path_17468" class="st7" d="M217,328.8c-0.1,0.1-0.1,0.2-0.2,0.3C216.9,328.9,217,328.8,217,328.8z"/>
<linearGradient id="Path_17469_1_" gradientUnits="userSpaceOnUse" x1="-735.4156" y1="-3476.9299" x2="463.2086" y2="-3683.1638" gradientTransform="matrix(6.201172e-02 0 0 -0.114 191.817 -89.762)">
	<stop  offset="0.101" style="stop-color:#FFFFFF"/>
	<stop  offset="0.276" style="stop-color:#73787D"/>
	<stop  offset="0.303" style="stop-color:#898D92"/>
	<stop  offset="0.369" style="stop-color:#BBBEC0"/>
	<stop  offset="0.426" style="stop-color:#E0E1E2"/>
	<stop  offset="0.473" style="stop-color:#F6F7F7"/>
	<stop  offset="0.502" style="stop-color:#FFFFFF"/>
	<stop  offset="0.533" style="stop-color:#F3F4F4"/>
	<stop  offset="0.589" style="stop-color:#D5D6D8"/>
	<stop  offset="0.661" style="stop-color:#A4A8AB"/>
	<stop  offset="0.726" style="stop-color:#73787D"/>
	<stop  offset="0.906" style="stop-color:#D2D2D3"/>
</linearGradient>
<path id="Path_17469" class="st11" d="M217,328.8c-0.1,0.1-0.1,0.2-0.2,0.3C216.9,328.9,217,328.8,217,328.8z"/>
<path id="Path_17470" class="st7" d="M214.5,332.7c-0.2,0.3-0.4,0.7-0.7,1C214.1,333.4,214.3,333.1,214.5,332.7z"/>
<linearGradient id="Path_17471_1_" gradientUnits="userSpaceOnUse" x1="207.5271" y1="-796.0557" x2="519.3689" y2="-867.2747" gradientTransform="matrix(0.244 0 0 -0.335 92.4134 44.2443)">
	<stop  offset="0.101" style="stop-color:#FFFFFF"/>
	<stop  offset="0.276" style="stop-color:#73787D"/>
	<stop  offset="0.303" style="stop-color:#898D92"/>
	<stop  offset="0.369" style="stop-color:#BBBEC0"/>
	<stop  offset="0.426" style="stop-color:#E0E1E2"/>
	<stop  offset="0.473" style="stop-color:#F6F7F7"/>
	<stop  offset="0.502" style="stop-color:#FFFFFF"/>
	<stop  offset="0.533" style="stop-color:#F3F4F4"/>
	<stop  offset="0.589" style="stop-color:#D5D6D8"/>
	<stop  offset="0.661" style="stop-color:#A4A8AB"/>
	<stop  offset="0.726" style="stop-color:#73787D"/>
	<stop  offset="0.906" style="stop-color:#D2D2D3"/>
</linearGradient>
<path id="Path_17471" class="st12" d="M214.5,332.7c-0.2,0.3-0.4,0.7-0.7,1C214.1,333.4,214.3,333.1,214.5,332.7z"/>
<path id="Path_17472" class="st7" d="M216.3,329.9c-0.1,0.2-0.2,0.3-0.3,0.6C216.1,330.4,216.2,330.2,216.3,329.9z"/>
<linearGradient id="Path_17473_1_" gradientUnits="userSpaceOnUse" x1="-149.1561" y1="-1725.8546" x2="498.8363" y2="-1846.1731" gradientTransform="matrix(0.117 0 0 -0.2 161.8076 -37.7413)">
	<stop  offset="0.101" style="stop-color:#FFFFFF"/>
	<stop  offset="0.276" style="stop-color:#73787D"/>
	<stop  offset="0.303" style="stop-color:#898D92"/>
	<stop  offset="0.369" style="stop-color:#BBBEC0"/>
	<stop  offset="0.426" style="stop-color:#E0E1E2"/>
	<stop  offset="0.473" style="stop-color:#F6F7F7"/>
	<stop  offset="0.502" style="stop-color:#FFFFFF"/>
	<stop  offset="0.533" style="stop-color:#F3F4F4"/>
	<stop  offset="0.589" style="stop-color:#D5D6D8"/>
	<stop  offset="0.661" style="stop-color:#A4A8AB"/>
	<stop  offset="0.726" style="stop-color:#73787D"/>
	<stop  offset="0.906" style="stop-color:#D2D2D3"/>
</linearGradient>
<path id="Path_17473" class="st13" d="M216.3,329.9c-0.1,0.2-0.2,0.3-0.3,0.6C216.1,330.4,216.2,330.2,216.3,329.9z"/>
<path id="Path_17474" class="st7" d="M215.8,330.9c-0.1,0.2-0.2,0.3-0.3,0.6C215.6,331.4,215.7,331.2,215.8,330.9z"/>
<linearGradient id="Path_17475_1_" gradientUnits="userSpaceOnUse" x1="-87.9061" y1="-1732.5773" x2="501.42" y2="-1849.5812" gradientTransform="matrix(0.128 0 0 -0.2 155.6497 -37.4022)">
	<stop  offset="0.101" style="stop-color:#FFFFFF"/>
	<stop  offset="0.276" style="stop-color:#73787D"/>
	<stop  offset="0.303" style="stop-color:#898D92"/>
	<stop  offset="0.369" style="stop-color:#BBBEC0"/>
	<stop  offset="0.426" style="stop-color:#E0E1E2"/>
	<stop  offset="0.473" style="stop-color:#F6F7F7"/>
	<stop  offset="0.502" style="stop-color:#FFFFFF"/>
	<stop  offset="0.533" style="stop-color:#F3F4F4"/>
	<stop  offset="0.589" style="stop-color:#D5D6D8"/>
	<stop  offset="0.661" style="stop-color:#A4A8AB"/>
	<stop  offset="0.726" style="stop-color:#73787D"/>
	<stop  offset="0.906" style="stop-color:#D2D2D3"/>
</linearGradient>
<path id="Path_17475" class="st14" d="M215.8,330.9c-0.1,0.2-0.2,0.3-0.3,0.6C215.6,331.4,215.7,331.2,215.8,330.9z"/>
<path id="Path_17476" class="st4" d="M174.5,282.3L174.5,282.3L174.5,282.3z"/>
<path id="Path_17477" d="M188.4,310.6"/>
<path id="Path_17478" class="st4" d="M188.4,310.8L188.4,310.8L188.4,310.8z"/>
<path id="Path_17479" d="M211.7,321.5c0-0.1,0-0.3,0-0.4C211.7,321.2,211.7,321.4,211.7,321.5z"/>
<path id="Path_17480" class="st5" d="M197.1,343.6C197.1,343.6,197.1,343.5,197.1,343.6C197.1,343.5,197.1,343.6,197.1,343.6z"/>
<path id="Path_17481" class="st4" d="M213.5,287.9c0,0.1,0.1,0.2,0.1,0.3C213.5,288.1,213.5,288,213.5,287.9L213.5,287.9z"/>
<path id="Path_17482" d="M213.6,288.2L213.6,288.2L213.6,288.2z"/>
<path id="Path_17483" class="st5" d="M181.5,284.2C181.4,284.2,181.4,284,181.5,284.2L181.5,284.2L181.5,284.2z"/>
<path id="Path_17484" class="st15" d="M154.6,340.6L154.6,340.6L154.6,340.6z"/>
<path id="Path_17485" class="st4" d="M214.9,287.9c0.6,1.8,0.8,3.6,0.8,5.4c0,7.7-4.9,14.5-12.2,17l-0.2,0.1l0.2,0.1
	c6.2,1.8,9.6,8.3,7.7,14.3c-1.5,4.8-5.8,8.2-10.9,8.3h-0.1v0.1l0,0l0.2,0.2c3,2.2,4,6.4,2.4,9.7l-0.2,0.6l0.1,0.1
	c11.8-7.2,19-20,19-33.8C221.7,302.1,219.4,294.3,214.9,287.9L214.9,287.9L214.9,287.9L214.9,287.9z M192.8,339.7h0.3
	c2.1,0,3.8,1.8,3.9,3.9c0,1.6-0.9,2.9-2.2,3.7l0.1,0.1c1.1-0.3,2.2-0.8,3.2-1.3c0.6-0.2,1-0.6,1.5-0.8c0.3-0.2,0.6-0.4,0.9-0.8
	c1.3-1.2,2-3,2-4.8c0-3.7-2.9-6.6-6.6-6.6h-7.4c-0.3,0-0.7-0.3-0.7-0.7c0-0.3,0.3-0.7,0.7-0.7h11.8c5.6,0,10.2-4.6,10.3-10.2
	c0-5.6-4.6-10.2-10.2-10.3h-0.1h-11.4c-0.3,0-0.7-0.3-0.7-0.7c0-0.3,0.3-0.7,0.7-0.7l0,0h8.8c9.2,0,16.7-7.5,16.7-16.7
	c0-7.1-4.4-13.3-11-15.7h-0.1v0.1c-0.3,1.8-1.8,3-3.6,3h-4.9c-1-0.1-1.9,0.2-2.7,0.8c-0.3,0.3-0.7,0.8-0.9,1.2
	c-0.4,0.8-0.9,1.3-2.7,1.3h-7.1v0.1c0.9,1.8,2.2,3.2,3.9,4.3l0,0h9.5c0.4,0,0.8,0.3,0.8,0.7c0,0.4-0.3,0.8-0.7,0.8h-0.1h-9.5
	c-2.1,0.9-3.7,2.6-4.3,4.8v0.1h17.9c1.2,0,2.4,1,2.4,2.4c0,1.3-1,2.4-2.4,2.5h-9.7c-6.2,0-11.2,5-11.2,11.2s5,11.2,11.2,11.2h11.1
	c0.3,0,0.7,0.3,0.7,0.7s-0.3,0.7-0.7,0.7h-11.6c-4.5,0.1-7.9,3.8-8.1,8.2c0,4.5,3.6,8.1,8.1,8.2h0.1L192.8,339.7L192.8,339.7z
	 M173.8,297.7c-0.4,0-0.8,0-1.1-0.1h-0.1l0.1-0.2c0.2-0.6,0.7-1.1,1.2-1.3h0.1c0.1,0,0.1,0,0.2,0h0.1h0.1c0.9-0.4,1.2-4,1.2-5.4
	c0-0.3-0.1-0.4-0.4-0.4s-0.6,0.1-0.8,0.3c-0.4,0.4-1.1,0.8-1.7,0.8c-1.2,0.1-2.2-0.8-2.4-2v-0.2c0.1-1.2,1.1-2,2.4-2
	c0.7,0,1.3,0.2,1.8,0.8c0.2,0.2,0.6,0.3,0.8,0.3c0.3,0,0.4-0.1,0.4-0.4c0-1.3-0.3-4.9-1.2-5.4h-0.1h-0.1l0,0c-0.1,0-0.1,0-0.2,0H174
	c-0.6-0.2-1-0.8-1.2-1.3l-0.1-0.2h0.1c0.3-0.1,0.8-0.1,1.1-0.1c0.9,0,1.8,0.3,2.5,1c0.7,0.8,1.1,1.6,1.5,2.5c0.8,1.9,1.9,3.6,3.4,5
	l0.1,0.1l-0.1,0.1c-1.5,1.5-2.6,3.1-3.4,5c-0.3,0.9-0.9,1.8-1.5,2.5C175.7,297.4,174.8,297.7,173.8,297.7L173.8,297.7z M182.3,351.4
	c-22.8,0-41.4-18.6-41.4-41.4c0-22.8,18.6-41.4,41.4-41.4s41.4,18.6,41.4,41.4l0,0C223.6,332.8,205.1,351.3,182.3,351.4L182.3,351.4
	z M167.1,346.5L167.1,346.5c4.8,2,10,3,15.2,3c1.1,0,2.1,0,3-0.1h0.1c2.7-0.1,5.3-0.9,7.5-2.4h0.1c1.8-1.1,2.7-2.4,2.7-3.5
	c0-1.3-1.1-2.5-2.5-2.6h-4.5c-5.3-0.1-9.5-4.5-9.4-9.7c0.1-3.7,2.2-6.9,5.5-8.5l0.4-0.2l-0.2-0.1c-3.1-1.1-5.7-3.4-7.2-6.4l0,0
	h-10.9L167.1,346.5z M155.9,339.4L155.9,339.4c2.9,2.7,6.3,4.8,9.7,6.5h0.1v-31.2h11.6v-0.1c-1-3.2-0.8-6.7,0.8-9.6l0.1-0.1h-12.4
	V274h-0.1c-3.6,1.7-6.8,3.8-9.7,6.4l0,0v24.4h-12.9v0.1c-0.4,3.2-0.4,6.5,0,9.7v0.1H156L155.9,339.4z M143.1,316.2
	c1.3,8.3,5.3,16,11.2,21.9l0.1,0.1v-22H143.1L143.1,316.2z M182.3,270.4c-5.1,0-10.3,1-15.1,3l0,0v30.1h11.9l0,0
	c2.4-3.4,6.2-5.3,10.2-5.3h9.7c0.6,0,1-0.4,1-1c0-0.6-0.4-1-1-1h-19.9c0.7-2.8,2.2-5.1,4.6-6.7l0.3-0.2l-0.3-0.2
	c-1.9-1.7-3.4-3.7-4.3-6.2c0,0,0-0.1-0.1-0.1h9.2c1,0,1.1-0.1,1.6-0.8c0.3-0.6,0.7-1,1.2-1.5c1-0.8,2.2-1.2,3.6-1.1h4.9
	c1.2,0,2.4-1,2.4-2.2c0-0.9-0.4-1.7-1.2-2l0,0C195.1,272,188.7,270.4,182.3,270.4L182.3,270.4z M154.4,281.9
	c-5.9,5.8-9.8,13.4-11.2,21.6v0.1h11.3L154.4,281.9L154.4,281.9z"/>
<path id="Path_17486" class="st5" d="M223.6,311.6c0,0.2,0,0.4,0,0.7C223.6,312,223.6,311.8,223.6,311.6z"/>
<path id="Path_17487" class="st5" d="M140.9,309v-0.1C140.9,308.9,140.9,308.9,140.9,309z"/>
<path id="Path_17488" class="st16" d="M140.9,310c0-0.3,0-0.7,0-1C140.9,309.3,140.9,309.7,140.9,310z"/>
<path id="Path_17489" class="st16" d="M223.6,311.6L223.6,311.6L223.6,311.6z"/>
<linearGradient id="Path_17490_1_" gradientUnits="userSpaceOnUse" x1="535.4102" y1="581.2319" x2="538.8341" y2="580.0474" gradientTransform="matrix(12.28 0 0 -24.943 -6436.7124 14788.6387)">
	<stop  offset="0.116" style="stop-color:#C90016"/>
	<stop  offset="0.498" style="stop-color:#A4182C"/>
	<stop  offset="0.516" style="stop-color:#A0162A"/>
	<stop  offset="0.679" style="stop-color:#830A1F"/>
	<stop  offset="0.82" style="stop-color:#710218"/>
	<stop  offset="0.922" style="stop-color:#6B0016"/>
</linearGradient>
<path id="Path_17490" class="st17" d="M176.6,310.8c0-2,0.4-4,1.5-5.8h-12.4v-30.9c-3.6,1.7-6.8,3.8-9.7,6.4V305h-12.9
	c-0.2,1.7-0.3,3.4-0.3,5c0,1.6,0.1,3.1,0.3,4.7H156v24.7c2.9,2.6,6.2,4.8,9.7,6.4v-31.1h11.6C176.8,313.4,176.6,312.1,176.6,310.8z"
	/>
<radialGradient id="Path_17491_1_" cx="548.6055" cy="592.8501" r="0.8083" gradientTransform="matrix(21.8374 9.5936 23.1022 -52.6694 -25444.5781 26236.5371)" gradientUnits="userSpaceOnUse">
	<stop  offset="0.166" style="stop-color:#186E43"/>
	<stop  offset="0.266" style="stop-color:#0D6B41"/>
	<stop  offset="0.352" style="stop-color:#006940"/>
	<stop  offset="0.734" style="stop-color:#004B2B"/>
	<stop  offset="0.785" style="stop-color:#004729"/>
</radialGradient>
<path id="Path_17491" class="st18" d="M200.2,311.4c5.6,0,10.2,4.6,10.2,10.2c0,5.6-4.6,10.2-10.2,10.2l0,0h-11.8
	c-0.4,0-0.8,0.3-0.8,0.7s0.3,0.8,0.7,0.8h0.1h7.3c3.6,0,6.6,2.9,6.6,6.6c0,1.8-0.8,3.5-2,4.7c-0.2,0.2-0.6,0.6-0.8,0.7
	c-0.4,0.3-1,0.6-1.5,0.8c-1.1,0.4-2.1,0.9-3.2,1.2c1.3-0.8,2.2-2.1,2.2-3.7c0-2.1-1.8-3.9-3.9-3.9h-0.3h-4c-4.5-0.1-8.1-3.8-7.9-8.3
	c0.1-4.4,3.6-7.9,7.9-7.9h11.5c0.4,0,0.8-0.3,0.8-0.7c0-0.4-0.3-0.8-0.7-0.8h-0.1h-11c-6.2,0-11.1-4.9-11.1-11.1s4.9-11.1,11.1-11.1
	h9.7c1.3-0.1,2.4-1.2,2.4-2.6c0-1.4-1.1-2.4-2.4-2.4l0,0h-17.8c0.6-2.1,2.1-3.9,4.3-4.7h9.5c0.4,0,0.8-0.3,0.8-0.8
	c0-0.4-0.3-0.8-0.8-0.8h-9.5c-1.7-1-3-2.5-3.9-4.3h6.9c2.8,0,2.4-1.5,3.7-2.6c0.8-0.6,1.7-0.9,2.6-0.8h4.9c1.8,0,3.4-1.3,3.7-3.1
	l0,0c8.6,3.1,13.1,12.6,10,21.3c-2.4,6.5-8.6,10.9-15.6,10.9H189c-0.4,0-0.8,0.3-0.8,0.7c0,0.4,0.3,0.8,0.7,0.8h0.1H200.2"/>
<path id="Path_17492" class="st19" d="M205.5,260.9c-1-1.3-2.4-2.5-4-3c-1-0.3-2-0.6-3-0.6c-2.2-0.2-4.4,1.1-5.1,3.2
	c-1,2.9,0.9,6,4.7,7.4c1,0.3,2,0.6,3,0.6l0,0c2.2,0.1,4.4-1.2,5.1-3.4C206.7,263.8,206.4,262.2,205.5,260.9z M203.4,264.4
	c-0.4,1.1-1.6,1.9-2.8,1.8c-0.7,0-1.2-0.1-1.9-0.3c-2.2-0.8-3.2-2.4-2.7-4c0.4-1.1,1.6-1.9,2.7-1.8c0.7,0,1.2,0.1,1.8,0.3
	C202.9,261.1,203.9,262.7,203.4,264.4L203.4,264.4z"/>
<path id="Path_17493" class="st19" d="M222.2,271.7L216,273l0.8-6.5l-2.8-2.7v0.2c0,0.4-0.2,0.8-0.4,1.1l-6.3,6.2l2.1,2l4.6-4.5
	l-0.9,7.3l0.2,0.2l6.9-1.7l-3.8,5.1l2.1,2l6.2-8.1L222.2,271.7z"/>
<path id="Path_17494" class="st19" d="M186.9,261.7c1.1-0.7,1.8-1.9,1.7-3.1c0.1-2-1.5-3.7-3.5-3.8c-0.1,0-0.2,0-0.3,0l-8.7,0.1
	l0.1,0.2c0.2,0.3,0.4,0.7,0.4,1l0.1,8.8h2.9v-2.8h4.3l1.9,2.7h3.2l-2.2-3L186.9,261.7z M184.4,259.8h-5v-2.7h5
	c0.7,0,1.2,0.6,1.3,1.2v0.1c0.1,0.7-0.4,1.2-1.1,1.3C184.6,259.8,184.6,259.8,184.4,259.8L184.4,259.8z"/>
<path id="Path_17495" class="st19" d="M152.3,263.3l0.2,0.1c0.3,0.2,0.6,0.4,0.6,0.8l0,0l0.2,10.1l2.6-1.5v-2l5.4-3.1l1.7,1.1
	l2.6-1.5l-9.5-6.2L152.3,263.3z M155.7,268.4l-0.1-4.1l3.5,2.2L155.7,268.4z"/>
<path id="Path_17496" class="st19" d="M127.3,304c0.1-0.1,0.3-0.1,0.4-0.1c0.2,0,0.4,0,0.6,0.1l0,0l8.1,6.2l0.4-2.9l-1.6-1.2
	l0.9-6.2l1.9-0.7l0.4-2.9l-10.7,3.6l-0.7,4L127.3,304z M133.7,300.7l-0.6,3.8l-3.2-2.5L133.7,300.7z"/>
<path id="Path_17497" class="st19" d="M223.5,286.4l1.5-0.8l2.7,5l2-1.1l-2.7-5l1.3-0.7l3.8,7.3l2-1.1l-5.4-10.4l-0.1,0.2
	c-0.1,0.3-0.4,0.7-0.8,0.9l-7.7,4.1l5.3,10.2l2-1.1L223.5,286.4z"/>
<path id="Path_17498" class="st19" d="M231.8,296.6c-0.2,0-0.6,0-0.8,0.1c-3,0.6-4.7,3.8-4,7.7c0.6,3.6,2.8,6,5.5,6
	c0.2,0,0.6,0,0.8-0.1c3-0.6,4.7-3.8,4-7.7C236.7,299,234.4,296.6,231.8,296.6z M232.7,307.3c-0.1,0-0.3,0-0.4,0
	c-1.5,0-2.7-1.3-3-3.5c-0.3-2.4,0.4-4,2.1-4.4c0.1,0,0.3,0,0.4,0c1.5,0,2.7,1.3,3,3.5C235.2,305.3,234.5,307,232.7,307.3
	L232.7,307.3z"/>
<path id="Path_17499" class="st20" d="M130.2,290.2l0.2-0.1c0.1,0,0.3,0,0.4,0c0.2,0,0.4,0,0.7,0.1l7.8,4.1l4.7-9.3l-2-1.1l-3.4,6.7
	l-6.9-3.6L130.2,290.2z"/>
<path id="Path_17500" class="st19" d="M142,283.9l-3.4,6.7l-6.9-3.6l-1.6,3.1l0.2-0.1c0.1,0,0.3,0,0.4,0c0.2,0,0.4,0,0.7,0.1
	l7.8,4.1l4.7-9.3L142,283.9z"/>
<path id="Path_17501" class="st19" d="M147.7,272.9l-3.8,4.1l-1.6-1.6l5.6-6l-1.7-1.6l-7.9,8.6h0.2c0.3,0,0.8,0.1,1,0.3l0,0l6.4,6
	l2-2.1l-2.4-2.2l3.8-4.1L147.7,272.9z"/>
<path id="Path_17502" class="st5" d="M188.5,258.3c0-0.2,0-0.3-0.1-0.6C188.5,258,188.5,258.1,188.5,258.3L188.5,258.3z"/>
<path id="Path_17503" class="st15" d="M186.7,255.5L186.7,255.5L186.7,255.5L186.7,255.5z"/>
<path id="Path_17504" d="M186.8,255.6L186.8,255.6L186.8,255.6z"/>
<path id="Path_17505" d="M188.5,258.3v0.4C188.5,258.6,188.5,258.5,188.5,258.3C188.5,258.4,188.5,258.4,188.5,258.3z"/>
<path id="Path_17506" class="st15" d="M184.8,257L184.8,257z"/>
<path id="Path_17507" class="st4" d="M180,279.9c-0.4,0-0.9-0.4-0.9-0.9s0.4-0.9,0.9-0.9h9.3c0.4,0,0.9,0.4,0.9,0.9
	s-0.4,0.9-0.9,0.9H180z"/>
<path id="Path_17508" class="st4" d="M188.8,277.2c-0.7,0-1.2-0.6-1.2-1.2c0-0.6,0.6-1.2,1.2-1.2c0.7,0,1.2,0.6,1.2,1.2
	C190,276.6,189.5,277.2,188.8,277.2L188.8,277.2z"/>
<path id="Path_17509" class="st4" d="M184.6,277.3c-0.7,0-1.2-0.6-1.2-1.2c0-0.6,0.6-1.2,1.2-1.2c0.7,0,1.2,0.6,1.2,1.2
	C185.9,276.7,185.3,277.2,184.6,277.3L184.6,277.3z"/>
<path id="Path_17510" class="st4" d="M180.3,277.3c-0.7,0-1.2-0.6-1.2-1.2c0-0.6,0.6-1.2,1.2-1.2s1.2,0.6,1.2,1.2
	C181.5,276.7,181,277.3,180.3,277.3z"/>
<path id="Path_17511" class="st21" d="M175.4,282.9L175.4,282.9L175.4,282.9L175.4,282.9z"/>
</svg>
