<?xml version="1.0" encoding="utf-8"?>
<!-- Generator: Adobe Illustrator 25.2.3, SVG Export Plug-In . SVG Version: 6.00 Build 0)  -->
<svg version="1.1" id="Layer_1" xmlns="http://www.w3.org/2000/svg" xmlns:xlink="http://www.w3.org/1999/xlink" x="0px" y="0px"
	 viewBox="0 0 800 600" style="enable-background:new 0 0 800 600;" xml:space="preserve">
<style type="text/css">
	.st0{fill:#6F6F6F;}
	.st1{fill:#0066B1;}
</style>
<path class="st0" d="M400.2,182.5c-64.9-0.1-117.7,52.5-117.7,117.3c-0.1,64.9,52.5,117.7,117.3,117.7
	c64.9,0.1,117.7-52.5,117.7-117.3c0-0.1,0-0.1,0-0.1C517.4,235.2,465.1,182.7,400.2,182.5z M509.6,300.1
	c0,60.4-49,109.4-109.4,109.4s-109.4-49-109.4-109.4s49-109.4,109.4-109.4c60.4,0.1,109.5,49,109.6,109.4L509.6,300.1L509.6,300.1z"
	/>
<path class="st0" d="M400.2,230.2v3.8l0,0c36.2,0.1,65.4,29.4,65.6,65.6h3.8c0.1-38.1-30.7-69.2-69-69.3
	C400.5,230.2,400.3,230.2,400.2,230.2L400.2,230.2 M400.2,365.7c-36.2-0.1-65.4-29.4-65.6-65.6h-3.8c0.1,38.5,31.2,69.7,69.8,69.8"
	/>
<path id="W" class="st0" d="M456.8,250.6c1.7,2.1,3.3,4.2,5.1,6.1l23.8-14.9c-1.7-1.8-3.2-3.7-4.8-5.6l-14.8,9.7l-0.9,0.9l0.9-0.9
	l6.6-13.2l-4.8-4.8l-13.2,6.5l-0.9,0.9l0.9-0.9l9.8-14.9c-1.9-1.4-3.2-2.8-5.6-4.8L444,238.4c1.9,1.4,4.2,3.8,6.2,5.1l14.1-7.3
	l0.9-0.4l-0.5,0.9L456.8,250.6z"/>
<path id="M" class="st0" d="M403,220l6.6-14.5l0.5-1.5v1.5l0.4,19.6c2.3,0.1,4.7,0.4,7,0.9l-0.9-28.5c-3.2-0.4-6.6-0.4-9.9-0.9
	l-6.6,16l0,0l-6.4-16c-3.2,0.1-6.6,0.4-9.8,0.9L383,226c2.3-0.5,4.8-0.5,7.1-0.9l0.4-19.6V204l0.5,1.5l6.6,14.5H403z"/>
<path id="B_22d" class="st0" d="M350.5,242.8c3.7-3.8,6.1-8.5,2.3-13.2c-2.2-2.2-5.4-3-8.4-1.9H344v-0.4c0.6-2.7-0.4-5.3-2.5-7.1
	c-1.4-1.4-3.2-1.9-5.1-1.5c-3.8,0.5-6.2,2.8-13.6,10.9c-2.3,2.3-5.6,6.6-7.5,8.9l20.2,19C342.4,251.3,345.2,248.5,350.5,242.8z
	 M324.2,238.1c3.2-4,6.7-7.7,10.3-11.4c0.7-0.5,1.5-1,2.3-1.5c1-0.4,2.3,0.1,2.6,1.1c0.1,0.2,0.1,0.5,0.1,0.8
	c0.2,1.5-0.2,2.8-1.4,3.7c-2.3,2.3-10.3,10.9-10.3,10.9L324.2,238.1z M332.2,245.8c0,0,7.4-7.9,10.2-10.8c0.9-0.9,1.9-1.9,2.3-1.9
	c0.8-0.4,2-0.4,2.8,0c0.8,0.3,1.4,1.3,1,2.1c0,0.1-0.1,0.2-0.1,0.2c-0.5,0.9-1.5,2.3-1.9,3.2l-10.2,10.8L332.2,245.8z"/>
<path class="st1" d="M400.2,230.2V300h-69.8C330.4,261.5,361.5,230.3,400.2,230.2z"/>
<path class="st1" d="M470,300.1c0.1,38.5-31.1,69.7-69.6,69.8c-0.1,0-0.1,0-0.1,0v-69.8L470,300.1L470,300.1z"/>
</svg>
