<?xml version="1.0" encoding="utf-8"?>
<!-- Generator: Adobe Illustrator 25.2.3, SVG Export Plug-In . SVG Version: 6.00 Build 0)  -->
<svg version="1.1" id="Layer_1" xmlns="http://www.w3.org/2000/svg" xmlns:xlink="http://www.w3.org/1999/xlink" x="0px" y="0px"
	 viewBox="0 0 800 600" style="enable-background:new 0 0 800 600;" xml:space="preserve">
<style type="text/css">
	.st0{fill:#F26C21;}
</style>
<path class="st0" d="M551,336.1c0.7,0,1.3,0.2,1.9,0.5c0.6,0.3,1.1,0.8,1.4,1.4s0.5,1.2,0.5,1.9c0,0.7-0.2,1.3-0.5,1.9
	s-0.8,1-1.4,1.4s-1.2,0.5-1.9,0.5s-1.3-0.2-1.9-0.5c-0.6-0.3-1.1-0.8-1.4-1.4s-0.5-1.2-0.5-1.9s0.2-1.3,0.5-1.9s0.8-1,1.4-1.4
	C549.7,336.3,550.3,336.1,551,336.1z M551,336.8c-0.9,0-1.6,0.3-2.2,0.9c-0.6,0.6-0.9,1.4-0.9,2.2c0,0.9,0.3,1.6,0.9,2.2
	c0.6,0.6,1.4,0.9,2.2,0.9c0.9,0,1.6-0.3,2.2-0.9c0.6-0.6,0.9-1.4,0.9-2.2s-0.3-1.6-0.9-2.2C552.6,337.1,551.9,336.8,551,336.8z
	 M550.1,342h-0.7v-4.1h1.4c0.5,0,0.9,0,1.1,0.1c0.2,0.1,0.4,0.2,0.5,0.4c0.1,0.2,0.2,0.4,0.2,0.6c0,0.3-0.1,0.6-0.3,0.8
	c-0.2,0.2-0.5,0.3-0.8,0.4c0.2,0.1,0.3,0.2,0.4,0.3c0.1,0.1,0.3,0.4,0.5,0.7l0.5,0.8h-0.8l-0.4-0.6c-0.3-0.5-0.5-0.8-0.6-0.9
	s-0.4-0.2-0.6-0.2h-0.4L550.1,342L550.1,342L550.1,342z M550.1,338.4v1.2h0.8c0.3,0,0.6,0,0.8-0.1s0.2-0.3,0.2-0.5s-0.1-0.4-0.2-0.5
	s-0.4-0.1-0.8-0.1H550.1L550.1,338.4z"/>
<path class="st0" d="M295.9,230.8c1.3-12.6,8.4-18.3,13.8-18.3c6.7,0,9.6,5.2,9.6,11.6c0,14.5-11.8,26.5-18.1,35.8
	c1,2.2,1.7,4.7,1.7,7.3c0,6.9-6.7,6.6-6.7,1.6c0-2.3,1.1-4.8,2.8-7.6c-7-8.5-25.6-16.2-25.6-27.5
	C273.3,221.8,291.2,223.1,295.9,230.8z M295.6,234.6c0-8.2-19.4-12.4-19.4-2.4c0,8.1,17.8,14.9,24.2,26.5c6.3-9.1,17-20.7,17-34.6
	c0-6.1-2.5-10-7.4-10s-9.5,4.8-9.5,21.4C300.6,237.4,295.6,237.3,295.6,234.6z M299.7,262.2c-1.4,2.4-2.2,4.6-2.2,6.5
	c0,3.9,4.2,3.8,4.2-1.5C301.6,265.5,300.9,263.8,299.7,262.2z"/>
<path class="st0" d="M324.3,443.9c0,7.1-0.7,14.2-2.2,21.3c-1.4,7.1-3.6,13.4-6.5,19s-6.5,10.1-10.9,13.6s-9.5,5.2-15.4,5.2
	c-8.2,0-14.9-2.2-20.4-6.5s-9.9-9.5-13.2-15.7c-3.4-6.2-5.8-12.7-7.2-19.6s-2.2-12.9-2.2-18.2c0-6.3,1-13.3,2.9-20.8
	c2-7.5,4.3-14.8,7.1-21.9c2.8-7,5.9-13.4,9.2-19.2c3.3-5.8,6.3-10.3,9.1-13.5c4.1-4.8,8.2-9.3,12.2-13.5c4.1-4.1,7.9-8,11.5-11.4
	c-1.1-7.2-1.9-14.8-2.5-22.5c-0.6-7.8-0.9-16-0.9-24.6c0-2.1,0.6-3.4,1.8-3.9s2.9-0.7,5-0.7c0.6,0,1,0.1,1.2,0.3
	c0.2,0.2,0.3,0.9,0.3,2.2c0,7.4,0.3,14.6,0.8,21.5s1.2,13.7,1.9,20.4c3.5-3,6.5-5.6,8.9-7.8c2.5-2.2,4.5-3.9,6-5.1
	c0.1-0.1,0.5-0.2,0.9-0.2c1.2,0,1.8,0.5,1.8,1.6c0,0.8-0.5,1.4-1.4,2c-3,2.1-5.8,4.2-8.4,6.3c-2.6,2.1-5.1,4.2-7.5,6.3
	c1.5,10.7,3.3,20.9,5.3,30.7c2,9.7,4,19,5.8,27.9c1.8,8.8,3.4,17.1,4.6,24.9C323.6,429.8,324.3,437.1,324.3,443.9z M318.2,450.9
	c0-7.9-0.7-15.8-2.2-23.8c-1.4-8-3.1-16.3-5.1-24.9s-4-17.6-6.2-26.8c-2.2-9.3-4.1-19.1-5.8-29.6c-4.1,3.9-7.8,7.8-11.1,11.5
	c-3.3,3.8-6.4,7.4-9.3,10.9c-3,3.6-6,8.2-9.1,13.6c-3,5.4-5.7,11.3-8,17.6c-2.3,6.3-4.3,12.7-5.8,19.2c-1.5,6.6-2.3,12.9-2.3,18.9
	c0,6.2,0.6,12.9,1.8,20.2c1.2,7.2,3.2,14,6,20.2s6.5,11.4,11,15.5s10,6.2,16.5,6.2c5.9,0,10.8-1.7,14.6-5c3.9-3.3,6.9-7.4,9.1-12.3
	s3.7-10.2,4.5-15.9C317.7,460.8,318.2,455.6,318.2,450.9z"/>
<path class="st0" d="M360.4,343.3v-6.7c-2.2,2.4-4.7,4.3-7.5,5.6c-2.8,1.3-5.6,2-8.4,2c-3.3,0-6.3-0.8-9.1-2.5s-4.9-3.9-6.3-6.7
	c-1.4-2.8-2.1-7.5-2.1-14v-29.8h10.3v29.7c0,5.5,0.8,9.3,2.3,11.4c1.6,2.2,4.3,3.2,8.2,3.2c4.9,0,9.1-2.4,12.5-7.2v-37.2h10.3v52
	L360.4,343.3L360.4,343.3z"/>
<path class="st0" d="M379.7,339.5v-11.1c2.9,2,5.9,3.7,8.9,5s5.6,1.9,7.7,1.9s4-0.5,5.5-1.6s2.3-2.3,2.3-3.8s-0.5-2.8-1.5-3.8
	s-3.2-2.4-6.5-4.3c-6.6-3.7-11-6.9-13-9.5c-2.1-2.6-3.1-5.5-3.1-8.6c0-4,1.6-7.3,4.7-9.8s7.1-3.8,12-3.8c5.1,0,10.3,1.4,15.7,4.3
	v10.2c-6.1-3.7-11.1-5.5-15-5.5c-2,0-3.6,0.4-4.8,1.3c-1.2,0.9-1.8,2-1.8,3.4c0,1.2,0.6,2.4,1.7,3.5s3.1,2.4,5.9,4l3.7,2.1
	c8.7,4.9,13,10.3,13,16.3c0,4.3-1.7,7.8-5,10.5s-7.6,4.1-12.9,4.1c-3.1,0-5.8-0.3-8.3-1C386.4,342.5,383.4,341.3,379.7,339.5z"/>
<path class="st0" d="M416.7,299.5l19.3-19v10.7h16.5v9.3H436V326c0,5.9,2.5,8.9,7.4,8.9c3.7,0,7.6-1.2,11.7-3.7v9.6
	c-4,2.2-8.3,3.3-13,3.3s-8.6-1.4-11.8-4.1c-1-0.8-1.8-1.8-2.4-2.8s-1.2-2.4-1.6-4.1s-0.6-4.9-0.6-9.6v-23.1h-9V299.5L416.7,299.5z"
	/>
<path class="st0" d="M492.8,343.3v-6.7c-2.2,2.4-4.7,4.3-7.5,5.6c-2.8,1.3-5.6,2-8.4,2c-3.3,0-6.3-0.8-9.1-2.5s-4.9-3.9-6.3-6.7
	c-1.4-2.8-2.1-7.5-2.1-14v-29.8h10.3v29.7c0,5.5,0.8,9.3,2.3,11.4c1.6,2.2,4.3,3.2,8.2,3.2c4.9,0,9.1-2.4,12.5-7.2v-37.2H503v52
	L492.8,343.3L492.8,343.3z"/>
<path class="st0" d="M512.1,339.5v-11.1c2.9,2,5.9,3.7,8.9,5s5.6,1.9,7.7,1.9c2.1,0,4-0.5,5.5-1.6s2.3-2.3,2.3-3.8s-0.5-2.8-1.5-3.8
	s-3.2-2.4-6.5-4.3c-6.6-3.7-11-6.9-13-9.5c-2.1-2.6-3.1-5.5-3.1-8.6c0-4,1.6-7.3,4.7-9.8c3.1-2.5,7.1-3.8,12-3.8
	c5.1,0,10.3,1.4,15.7,4.3v10.2c-6.1-3.7-11.1-5.5-15-5.5c-2,0-3.6,0.4-4.8,1.3s-1.8,2-1.8,3.4c0,1.2,0.6,2.4,1.7,3.5
	c1.1,1.1,3.1,2.4,5.9,4l3.7,2.1c8.7,4.9,13,10.3,13,16.3c0,4.3-1.7,7.8-5,10.5s-7.6,4.1-12.9,4.1c-3.1,0-5.8-0.3-8.3-1
	C518.8,342.5,515.8,341.3,512.1,339.5z"/>
<path class="st0" d="M451.6,220.9v-3.1c0-8.4,1.8-14.6,5.3-18.7c3.6-4.1,7.8-6.2,12.8-6.2c2.1,0,4.7,0.3,7.6,1V204
	c-1.7-0.6-3.2-0.9-4.8-0.9c-4,0-6.8,1.1-8.4,3.2c-1.6,2.1-2.3,6-2.3,11.5v3.1h9.3v9.3h-9.3V273h-10.3v-42.8H444v-9.3H451.6
	L451.6,220.9L451.6,220.9z"/>
<path class="st0" d="M500.3,220.8c7.9,0,14.5,2.6,19.7,7.7c5.2,5.1,7.9,11.5,7.9,19.3c0,7.5-2.7,13.7-8,18.7s-12,7.4-20.1,7.4
	c-7.8,0-14.3-2.5-19.6-7.6c-5.2-5-7.9-11.3-7.9-18.9c0-7.6,2.6-14,7.9-19C485.6,223.4,492.3,220.8,500.3,220.8z M499.7,230.1
	c-4.9,0-9,1.6-12.2,4.9c-3.2,3.2-4.8,7.4-4.8,12.4s1.6,9,4.9,12.2c3.3,3.2,7.4,4.7,12.5,4.7s9.2-1.6,12.4-4.8
	c3.2-3.2,4.8-7.3,4.8-12.2s-1.7-9-5-12.3C509,231.7,504.8,230.1,499.7,230.1z"/>
<path class="st0" d="M547.5,220.9v11.9l0.6-0.9c5-8,10-12.1,14.9-12.1c3.9,0,7.9,2,12.2,5.9l-5.4,9.1c-3.6-3.4-6.9-5.1-10-5.1
	c-3.3,0-6.2,1.6-8.6,4.8c-2.4,3.2-3.6,6.9-3.6,11.3V273h-10.4v-52L547.5,220.9L547.5,220.9z"/>
<path class="st0" d="M337.4,220.9v11.9l0.6-0.9c5-8,10-12.1,14.9-12.1c3.9,0,7.9,2,12.2,5.9l-5.4,9.1c-3.6-3.4-6.9-5.1-10-5.1
	c-3.3,0-6.2,1.6-8.6,4.8s-3.6,6.9-3.6,11.3V273H327v-52L337.4,220.9L337.4,220.9z"/>
<path class="st0" d="M411.3,247.9h-36.6c0.3,5,1.9,8.9,5,11.9c3.1,2.9,7,4.4,11.9,4.4c6.8,0,13-2.1,18.8-6.3V268
	c-3.2,2.1-6.3,3.6-9.4,4.5s-6.8,1.4-10.9,1.4c-5.7,0-10.4-1.2-13.9-3.6s-6.4-5.6-8.5-9.6s-3.2-8.7-3.2-13.9c0-7.9,2.2-14.4,6.7-19.3
	c4.5-5,10.3-7.4,17.5-7.4c6.9,0,12.4,2.4,16.5,7.2s6.2,11.3,6.2,19.4L411.3,247.9L411.3,247.9L411.3,247.9z M375,241.7h26.2
	c-0.3-4.1-1.5-7.3-3.7-9.5s-5.1-3.3-8.8-3.3c-3.7,0-6.7,1.1-9.1,3.3S375.7,237.6,375,241.7z"/>
<path class="st0" d="M267,260.8V271c-5.2,1.9-10.2,2.9-15.2,2.9c-8.1,0-14.6-2.4-19.5-7.2c-4.8-4.8-7.3-11.3-7.3-19.4
	c0-8.2,2.4-14.8,7.1-19.8c4.7-5,10.9-7.5,18.6-7.5c2.7,0,5.1,0.3,7.2,0.8s4.8,1.5,7.9,2.9v11c-5.2-3.3-10-5-14.5-5
	c-4.6,0-8.4,1.6-11.4,4.9c-3,3.3-4.5,7.4-4.5,12.5c0,5.3,1.6,9.5,4.8,12.7c3.2,3.1,7.6,4.7,13,4.7
	C257.4,264.3,261.9,263.1,267,260.8z"/>
</svg>
