<?xml version="1.0" encoding="utf-8"?>
<!-- Generator: Adobe Illustrator 25.2.1, SVG Export Plug-In . SVG Version: 6.00 Build 0)  -->
<svg version="1.1" id="Layer_1" xmlns="http://www.w3.org/2000/svg" xmlns:xlink="http://www.w3.org/1999/xlink" x="0px" y="0px"
	 viewBox="0 0 800 600" style="enable-background:new 0 0 800 600;" xml:space="preserve">
<style type="text/css">
	.st0{fill:#E61D2B;}
</style>
<path class="st0" d="M480.3,246.8c0,0-7.4,3-16.2,12.6c-8.8,9.7-13.7,20.4-10,23.3c1.4,1.1,4.8,1.2,10.8-4.2
	c4.7-4.2,9.5-9.8,12.8-17.8C481.5,251.4,480.3,246.9,480.3,246.8 M528,264.1c-9.7-5-16.7-11-24.1-14.9c-7.1-3.6-11.5-5.2-17.3-4.3
	c-1,0.1-2.4,0.6-2.4,0.6s3,10-8.8,26.9c-11.9,17.1-22.5,16.8-25.6,12.1c-3.1-5,1-15,7.8-23.9c7.2-9.4,19.8-17.2,19.8-17.2
	s-4.1-2.5-13.9,3.1c-9.7,5.4-26.2,18.4-41.7,40.5c-15.5,22-18.4,34-20.8,43.6c-2.2,9.5-0.1,19.7,10.3,19.7
	c10.6,0,22.8-16.1,26.2-21.7c6.4-10.4,10.6-26.4,1.9-24.1c-4.3,1.1-7.8,5.9-10,10.4c-2.2,4.7-3.1,9.2-3.1,9.2s-3.6,1.2-8.6,5
	c-4.8,3.6-8.2,7.2-8.2,7.2s0-7.7,6.1-19.8c6.1-12.4,17.2-18,23.4-18.4c5.6-0.5,13.1,4.3,6.8,22.2c-6.2,17.8-24.6,39.4-44.2,39.6
	c-17.9,0.4-29.7-22.7-4.7-62.4c27.6-44.1,59.9-57.6,70.4-59c10.4-1.6,13.9,3.1,13.9,3.1s8.8-4.1,19.9-3.2c12.8,1,22.8,10,35.8,16.3
	C534.1,257.4,530.8,260.9,528,264.1 M585.5,249.3c-8.9,5.6-21.3,10.9-32.9,9.7c-3,3.1-6.2,6.7-9.4,10.6c20.4,4.1,38.4-8.5,47.9-19.5
	c5.9-6.7,8.9-12.8,8.9-12.8S594.4,243.6,585.5,249.3 M558.3,307c0.4-0.5,0.4-0.7,0.4-0.7s-0.4-1.7-1.9-1.7
	c-1.9-0.1-4.7,0.4-11.5,7.9c-7.1,7.7-11.3,14.4-14.9,21.1c-4.1,7.3-5.6,12.8-3.2,14.2c0.6,0.5,1.6,0.5,2.3,0.4
	c1.6-0.4,3.2-1.9,5.9-5c1.2-1.4,2.6-3.6,4.3-5.8C544.4,330.7,555.9,310.9,558.3,307 M485.7,315.4c1.1-3.1,2.6-9-0.5-11.4
	c-3.2-2.5-11.8,3.2-11.9,9.4c0,6.1,5.9,8.9,7.3,9.4c0.7,0.1,1.1,0.1,1.6-0.5C482.6,321.7,484.6,318.5,485.7,315.4 M479.3,326.5
	c-0.1,0-3-1.2-5.8-3.7c-2.8-2.3-4.2-5.2-4.3-5.3s-0.4,0-0.4,0.1c-0.1,0.1-0.6,0.6-5.2,7.2c-4.6,6.6-11.4,20.3-5.2,22.7
	c4.1,1.6,10.6-5.5,14.4-10.2c3.5-4.3,6.6-9.8,6.7-10.2C479.8,326.8,479.6,326.5,479.3,326.5 M550.3,342.4c-1.7,2.6-3.6,7.9,2,4.7
	c6.8-3.8,16.6-18.7,16.6-18.7h4.3c0,0-5.8,9.2-13.4,17.5c-6.8,7.7-15.3,14.6-21.4,13.9c-7.1-0.8-4.8-10-4.8-10s-10,10.6-16.8,9.8
	c-9.4-1.1-6.4-12.5-6.4-12.5s-10.4,13-17.7,12.5c-11.3-0.6-8.4-14.4-5.3-23.9c1.7-5.2,3.2-9.2,3.2-9.2s-1.1,0.4-3.5,0.6
	c-1.2,0.1-3.6,0.4-3.6,0.4s-4.7,8.3-8.4,13.2c-3.7,4.9-19.7,22-29.1,18.6c-8.6-3.1-5.8-16.5-0.8-27c7.3-15.3,28.1-37.3,40-34.5
	c12.4,3,0.4,25.6,0.4,25.6s0,0.1,0.1,0.1c0.4,0.1,1,0.1,2.4-0.1c2.3-0.5,4.6-1.4,4.6-1.4s12.5-26.1,26.1-43.1
	c13.7-17.1,41.1-46.4,51.9-39.1c2.6,1.7,1.4,7.8-2.2,15c-1.6,0.5-3.1,1-4.8,1.2c2.4-4.3,3.8-7.9,4.3-10.4
	c1.6-8.8-18.9,9.7-33.5,29.7c-14.6,19.9-23.4,37.9-23.4,37.9s3-1.7,7.4-5.4c4.8-3.8,11.4-10,18.6-17.3c4.8-5,10.4-11.3,16-18.3
	c1.6-0.1,3.1-0.4,4.7-0.5c-5.9,7.9-12.1,15.3-17.5,20.7c-5.8,5.9-12.1,12.4-17.7,16.8c-8.8,7.3-15.5,11.5-15.5,11.5
	s-12.8,25.9-5.8,27.5c4.1,1,12.1-11.5,12.1-11.5s10.6-16.1,17.1-23.4c8.8-9.8,16.2-15.6,23.8-15.7c4.3-0.1,6.8,4.6,6.8,4.6l2-3.1
	h12.6C575.7,299.3,552.2,339.4,550.3,342.4 M585.5,249.3c-8.9,5.6-21.3,10.9-32.9,9.7c-3,3.1-6.2,6.7-9.4,10.6
	c20.4,4.1,38.4-8.5,47.9-19.5c5.9-6.7,8.9-12.8,8.9-12.8S594.4,243.6,585.5,249.3 M408.2,268.8h-12l-6.7,10.9h12L408.2,268.8z
	 M351.4,306.7c5.2-7.1,19.2-31.6,19.2-31.6s-0.4-1.7-1.9-1.7c-1.9-0.1-5.2,0.6-11.8,8.5c-6.6,8.2-11.4,14.5-15.1,21.3
	c-4.1,7.3-5.8,12.5-3.5,13.9c0.6,0.4,1.6,0.5,2.4,0.4c1.6-0.4,3.5-1.9,6.1-5C348.3,311.2,349.9,309.1,351.4,306.7 M287.1,273.7
	c-3.2-2.5-11.8,3.2-11.9,9.4c0,6.1,7.7,7.9,8.5,7.9c0,0,1,0.4,1.2-0.5c0.1-0.5,1.2-2.4,2.5-5.4C288.6,282,290.1,276,287.1,273.7
	 M282.1,294.7c-0.1-0.1-3.5-1-6.6-3c-3.1-2-4.6-5-4.7-5.2c-0.1-0.1-0.4,0-0.4,0.1c-0.1,0.1-0.8,1.1-5.3,7.7
	c-4.6,6.6-11.3,20.2-5,22.5c4.1,1.6,10.8-5.6,14.4-10.2c3.5-4.3,7.3-10.9,7.7-11.4C282.4,295.1,282.3,294.8,282.1,294.7
	 M380.1,298.9h4.3c0,0-22,31.8-34.5,30.5c-7.1-0.8-4.8-9.4-4.8-9.4s-9.8,11.4-18.7,9.2c-8.2-2-2.8-15.6-2.8-15.6
	c-1,0.4-18.6,20.2-30.9,15.5c-13-5-6.2-21.5-3.7-26.5c2-4.2,4.3-8.3,4.3-8.3s-2,0.6-3.2,0.7c-1.2,0.4-3.1,0.6-3.1,0.6
	s-6.1,10-9.8,14.9c-3.7,5-19.7,22-29.1,18.6c-9.4-3.4-7.1-16.6-1.7-26.9c8.5-16.8,28.7-37.6,40.9-34.5c12.4,3.1,2.2,23.1,2.2,23.1
	s2.5,0.4,8.3-3.7c8.4-5.8,19.7-21.3,31.7-19.5c5.6,0.8,10.9,6.7,3.7,17.8c-2.3,3.6-6.2,6.7-9.2,3.6c-1.9-1.9-0.4-5.5,1.7-7.9
	c2.8-3.5,6.6-3,6.6-3s2-4.6-3.1-4.6c-4.1,0.1-14.5,9.7-20.4,19.3c-5.4,8.9-13.6,24-5.3,27.4c7.4,3,21.9-13.9,28.5-22.8
	c6.6-8.9,21.7-29.1,34.3-29.8c4.3-0.4,7.1,3.7,7.1,3.7l1.4-2.4h12.6c0,0-23.9,39.9-25.8,42.7c-1.4,2.4-3.5,7.7,2,4.7
	C369,313.3,380.1,298.9,380.1,298.9 M373.3,362.7c-9.5-6.7-21.3-9.7-31.8-9.2c-10.8,0.5-15.5,8.4-15.5,8.4
	c-4.8-8.4-14.4-13.6-29.2-13.4c-23.9,0.4-47.4,11.3-66.2,11.3c-17.9,0-31.1-11.3-30.6-31.3c0.8-35.1,30.5-66.8,52.7-81.1
	c12.8-8.2,23.4-10.6,30.5-9.8c5.2,0.6,11.3,6.4,7.3,15.1c-5.6,12.6-13.6,11.8-13.3,5.6c0.1-3.8,2.8-6.4,4.8-7.8
	c1.2-1,3.5-1.1,4.7-1.1c1.1-1,2-7.9-7.2-5.6c-9.2,2.3-20.2,11.3-30.6,22.8C238.4,278,222,300.1,218,323.1
	c-1.9,10.6-0.6,30.1,24.6,30c21.4-0.1,53.1-14.4,82.1-14c11.3,0.1,21.1,3.1,28.7,7.8C360.9,351.3,370,358,373.3,362.7"/>
</svg>
