<?xml version="1.0" encoding="utf-8"?>
<!-- Generator: Adobe Illustrator 25.2.1, SVG Export Plug-In . SVG Version: 6.00 Build 0)  -->
<svg version="1.1" id="Layer_1" xmlns="http://www.w3.org/2000/svg" xmlns:xlink="http://www.w3.org/1999/xlink" x="0px" y="0px"
	 viewBox="0 0 800 600" style="enable-background:new 0 0 800 600;" xml:space="preserve">
<style type="text/css">
	.st0{fill:#003478;}
	.st1{fill:#FFFFFF;}
</style>
<path class="st0" d="M400,225c-111,0-200,33.3-200,75c0,41.5,89.7,75,200,75s200-33.6,200-75S510.3,225,400,225"/>
<path class="st1" d="M478.8,315.9c0.1,0.4,0.5,0.7,0.9,0.8c0.2,0.1,0.3,0.2,0.1,0.5c-1.3,2.6-2.4,4.2-3.9,6.5
	c-1.4,2.1-3.1,3.8-5,5.4c-3,2.5-7.1,5.1-10.5,3.3c-1.5-0.8-2.1-2.9-2.1-4.6c0.1-4.8,2.2-9.7,6.2-14.6c4.8-5.9,10.1-9,13.6-7.3
	c3.6,1.7,2.5,5.9,0.9,9.2C478.7,315.4,478.7,315.6,478.8,315.9 M517.5,278.5c0.3-0.5,0-0.8-0.6-0.8h-10.1c-0.8,0-1.1,0.1-1.5,0.8
	c-1.2,2.2-15.3,23.4-17.9,27.5c-0.4,0.6-1,0.5-1-0.2c-0.3-2.4-2.4-5.2-5.7-6.6c-2.4-1-5-1.3-7.6-0.9c-4.7,0.6-8.8,3.1-12.4,5.8
	c-5.5,4.2-10.2,9.6-16.3,13.6c-3.3,2.2-7.9,4.1-11,1.2c-2.8-2.6-2.5-8.3,1.8-12.7c0.4-0.5,1-0.1,0.9,0.3c-0.5,1.9,0.1,4,1.6,5.4
	c1.8,1.6,4.5,1.8,6.7,0.7c2.6-1.3,4.3-3.9,4.7-6.8c0.6-4.2-2.3-8.1-6.5-8.7c-0.2,0-0.4,0-0.6-0.1c-3.5-0.3-6.9,1-10.2,3.7
	c-1.6,1.3-2.9,2.7-4,4.4c-0.4,0.5-0.9,0.5-0.9-0.2c0.2-5.8-2.2-9-7-9.1c-3.7-0.1-7.6,1.9-10.7,4.4c-3.4,2.7-6.3,6.3-9.5,9.7
	c-0.4,0.4-0.7,0.4-0.8-0.4c0-3.6-1-7.1-2.8-10.1c-0.7-1-2-1.3-3-0.7c-0.5,0.3-2.3,1.1-3.6,2.1c-0.6,0.5-0.9,1.3-0.6,2.3
	c1.7,5.7,1.3,12.2-1,17.6c-2.1,5-6.2,9.5-11.1,11.1c-3.2,1-6.5,0.5-8.6-2.3c-2.8-3.9-1.7-10.7,2.5-16.3c3.7-5,9.1-8.1,14.4-10.2
	c0.6-0.2,0.8-0.6,0.6-1.2l-0.9-2.6c-0.5-1.3-1.9-1.5-3.5-1.3c-3.9,0.4-7.4,1.8-10.9,3.6c-9.1,4.9-13.6,14.3-15.6,19.3
	c-0.7,1.9-1.6,3.7-2.8,5.3c-1.4,1.8-3.2,3.4-6.5,6.3c-0.4,0.3-0.5,0.9-0.3,1.3c0.7,1.2,1.5,2.3,2.5,3.3c0.5,0.3,1.2-0.1,1.4-0.3
	c2.3-1.6,5-4,6.4-5.7c0.5-0.6,1-0.3,1.2,0.5c1.2,4.5,4.6,8.2,9.1,9.7c8.3,2.8,17-1.3,23.5-8.3c4.1-4.5,5.6-7.4,7.2-9.3
	c2.7-3.3,8-10.8,14.3-15.6c2.3-1.8,5.1-3.1,6.4-2.2c1.1,0.7,1.5,2.4-0.3,5.6c-6.4,11.8-15.9,25.6-17.7,28.9c-0.3,0.6,0,1,0.6,1h9.8
	c0.5,0,0.8-0.3,1-0.6c4.9-7.7,9.6-15.1,14.6-22.7c0.3-0.5,0.5-0.1,0.5,0.1c0.1,1.8,0.5,4.2,1.6,5.8c1.6,2.6,4.4,4.3,7.5,4.2
	c2.1,0,4.2-0.4,6.1-1.3c2.1-0.8,3.8-1.8,5-2.7c0.8-0.5,0.9,0.4,0.9,0.5c-1.1,6.1,0.3,13.4,6.4,16.5c7.3,3.6,15.3-1.5,20-6
	c0.4-0.4,0.9-0.4,1,0.6c0.1,1.8,0.9,3.8,2.3,5.3c3.9,3.9,11.7,2.3,19.5-3.7c5-3.9,10.3-9.4,15.1-15.2c0.2-0.2,0.3-0.6,0-0.9
	c-0.7-0.8-1.8-1.6-2.5-2.3c-0.3-0.3-0.8-0.2-1.1,0c-4.9,4.7-9.3,9.9-15.6,14.3c-2.1,1.5-5.5,2.7-7.1,0.6c-0.6-0.8-0.5-1.9,0.1-3.4
	C486.7,325.7,516,281.1,517.5,278.5"/>
<path class="st1" d="M379.7,283.9c0.1,0.7,0.4,0.8,0.7,0.7c1.7-0.5,3.1-1.5,4.1-2.9c0.9-1.3,1.3-3.1,0.4-3.9c-0.8-0.7-2.1-0.5-3,0.4
	C380.2,279.5,379.4,281.7,379.7,283.9 M305,341.3c-10.9,0.1-20.5-6.7-21.6-18.4c-0.6-6.1,1.1-12.2,4.9-17c3.3-4.2,8.8-7.7,13.4-8.6
	c1.5-0.3,3.5-0.1,4.4,0.9c1.3,1.5,0.9,3.2-0.4,3.9c-3.6,1.8-7.8,4.9-9.9,9.2c-2,3.7-1.8,8.1,0.6,11.6c4.4,6.6,16.6,6.8,28-3.8
	c2.8-2.6,5.3-5.1,7.9-8c5-5.7,6.7-7.8,13.3-17c0.1-0.1,0.1-0.3,0.1-0.3c-0.1-0.1-0.1-0.1-0.3-0.2c-4.4,0.1-8.3,1.5-12.1,4.3
	c-1.1,0.8-2.6,0.7-3.3-0.4c-0.8-1.2-0.2-2.7,1-3.6c6-4.2,12.7-5,19.4-6.1c0,0,0.5,0,0.9-0.5c2.8-3.6,4.9-6.8,7.8-10.4
	c3-3.6,6.8-7,9.8-9.5c4.1-3.5,6.7-4.7,9.4-6.2c0.7-0.4-0.1-0.8-0.3-0.8c-14.9-2.8-30.4-6.4-45.3-0.9c-10.3,3.8-14.8,12-12.6,17.4
	c1.5,3.9,6.6,4.5,11.4,2.1c3.9-1.9,7.6-5,10.2-9.1c1.4-2.2,4.5-0.6,2.8,3.3c-4.3,10.2-12.6,18.3-22.7,18.6
	c-8.6,0.3-14.2-6-14.1-13.8c0-15.4,17.2-25.5,35.2-27c21.7-1.8,42.2,4,63.7,6.6c16.5,2,32.3,2,48.9-1.8c2-0.4,3.3,0.8,3.2,2.8
	c-0.2,2.9-2.4,5.6-7.9,8.6c-6.2,3.4-12.7,4.5-19.5,4.5c-16.4,0.1-31.7-6.3-47.5-9.7c0,0.7,0.2,1.5-0.4,2c-8.8,6.4-16.7,13-22,22.2
	c-0.2,0.2-0.1,0.4,0.2,0.4c4.6-0.2,8.7-0.4,13.1-0.7c0.7-0.1,0.8-0.2,0.7-0.8c-0.5-3.5,0.8-6.9,3.3-9.3c2.9-2.6,6.4-2.9,8.8-1
	c2.7,2.1,2.5,5.9,1,8.7c-1.3,2.5-3.6,4.4-6.4,5.2c0,0-0.5,0.1-0.4,0.6c0.1,0.7,3.3,2.5,3.6,3c0.3,0.5,0.1,1.2-0.4,1.7
	c-0.4,0.5-1,0.7-1.6,0.8c-0.6,0-0.9-0.2-1.6-0.6c-1.7-0.9-3.2-2.1-4.5-3.6c-0.4-0.5-0.6-0.5-1.7-0.5c-4.7,0.3-11.9,1-16.8,1.6
	c-1.2,0.1-1.4,0.4-1.6,0.8c-7.8,12.9-16.2,26.9-25.4,36.2C321.9,338.6,313.7,341.2,305,341.3"/>
<path class="st1" d="M400,237.3c-102.1,0-184.9,28.2-184.9,62.8c0,34.5,82.8,62.8,184.9,62.8s184.9-28.2,184.9-62.8
	S502.1,237.3,400,237.3 M400,368.5c-105.8,0-191.6-30.6-191.6-68.4s85.8-68.4,191.6-68.4s191.6,30.6,191.6,68.4
	C591.6,337.8,505.8,368.5,400,368.5"/>
</svg>
