<?xml version="1.0" encoding="utf-8"?>
<!-- Generator: Adobe Illustrator 25.2.1, SVG Export Plug-In . SVG Version: 6.00 Build 0)  -->
<svg version="1.1" id="Layer_1" xmlns="http://www.w3.org/2000/svg" xmlns:xlink="http://www.w3.org/1999/xlink" x="0px" y="0px"
	 viewBox="0 0 800 600" style="enable-background:new 0 0 800 600;" xml:space="preserve">
<style type="text/css">
	.st0{fill:#ED1B2F;}
</style>
<path class="st0" d="M542.9,328.4v-7.6l7.6-0.9c2.7-0.3,3.8-2.8,4.1-3.3l19.1-31.1c1.6-2.4,0.1-4.6-2-4.8l-10.1-1.2v-7.7h43.6
	c2.4,0,3.9,1.7,5,3.1l25.5,38.9c2,3.1,3.6,5.6,6.1,5.8l8,0.9v7.8h-49v-7.6l6.3-0.8c3-0.4,5.5-1.7,3-5.3l-2.4-3.6H573l-2.7,4.3
	c-1.6,2.6,0,4.2,2.6,4.6l6.3,0.8v7.6L542.9,328.4 M579.3,301.1h22l-11-17.4L579.3,301.1"/>
<path class="st0" d="M510.4,271.8h-56v7.7l7,0.7c2.6,0.4,3.7,2.3,3.7,4.8s0,28.3,0,30.4s-0.9,4.1-3.2,4.5l-7.5,1v7.4l56.1,0.1
	c25.9,0,36.9-12.6,36.9-29.1C547.4,284.4,536.3,271.8,510.4,271.8 M501.8,317.5h-14.5v-34.9h14.5c13.7,0,19.6,3.1,19.6,17.4
	C521.4,314.4,515.6,317.5,501.8,317.5"/>
<path class="st0" d="M150.1,328.4h45.3v-7.5l-7.8-0.9c-1.8-0.3-3.6-1.3-3.6-5.1v-9.2h34.8v8.6c0,2.6-0.4,5-3.5,5.3l-7.9,0.9v7.8
	h45.3v-7.8l-8-0.9c-1.6-0.3-3.3-1.4-3.3-4.7v-29.4c0-3,1.1-5,3.4-5.3l7.9-0.9v-7.7h-45.3v7.6l7.9,1c2.7,0.4,3.5,2.4,3.5,5.3v8.8H184
	v-9c0-3.3,1.3-4.9,3.7-5.1l7.6-0.9v-7.7h-45.2v7.7l7.6,0.9c3,0.4,3.8,2.6,3.7,5.5v28.7c0,3.1-0.9,5.1-3.8,5.5l-7.6,0.9L150.1,328.4"
	/>
<path class="st0" d="M255.3,299.8c0-17.8,14.4-30.3,46.4-30.3c31.8,0,46.1,12.4,46.1,30.3c0,18.2-14.4,30.6-46.1,30.6
	C269.6,330.3,255.3,318,255.3,299.8 M301.4,280.5c-12.8,0-20.2,4.8-20.2,19.5c0,14.9,7.4,19.7,20.2,19.7s20.3-4.8,20.3-19.7
	C321.7,285.3,314.4,280.5,301.4,280.5"/>
<path class="st0" d="M350.3,328.4h36.3v-7.5l-7.8-0.9c-2.2-0.3-3.6-2.2-3.6-4.7v-28.8l30.2,39.7c1.1,1.3,2.9,2.2,4.7,2.2h28.5v-42.9
	c0-2,0.5-4.8,3.4-5.1l7.9-0.9v-7.7h-36.2v7.6l7.9,1c2.8,0.4,3.4,2.7,3.4,5.3v28l-30-39.6c-1.1-1.4-2.6-2.5-4.7-2.5h-40v7.7l7.6,0.9
	c2.7,0.4,3.7,1.8,3.7,5.5v28.7c0,3.4-0.9,5-3.8,5.5l-7.5,0.9L350.3,328.4"/>
</svg>
