<?xml version="1.0" encoding="utf-8"?>
<!-- Generator: Adobe Illustrator 25.2.1, SVG Export Plug-In . SVG Version: 6.00 Build 0)  -->
<svg version="1.1" id="Layer_1" xmlns="http://www.w3.org/2000/svg" xmlns:xlink="http://www.w3.org/1999/xlink" x="0px" y="0px"
	 viewBox="0 0 800 600" style="enable-background:new 0 0 800 600;" xml:space="preserve">
<style type="text/css">
	.st0{fill:#231F20;}
	.st1{fill:#41C0C4;}
	.st2{fill:#4A3B96;}
	.st3{fill:#84459A;}
	.st4{fill:#F16623;}
	.st5{fill:#FBCD0E;}
</style>
<path class="st0" d="M359.7,333v-6.9h-0.2c-2.8,5.6-10.3,9.1-18.7,9.1c-18.8,0-31.9-14.8-31.9-34.1c0-18.8,13.7-34,31.9-34
	c7.8,0,15,3.1,18.7,9h0.2v-6.8h19.1V333L359.7,333L359.7,333z M359.7,301.1c0-9-7.2-16.2-16.2-16.2c-8.7,0-15.6,7.2-15.6,16.4
	c0,8.8,7,16.1,15.9,16.1C352.7,317.4,359.7,310.3,359.7,301.1z"/>
<path class="st0" d="M462.8,333v-34.3c0-10-3.2-13.7-9.8-13.7c-7.2,0-10.6,4.4-10.6,12.8V333h-19.1v-35.2c0-8.3-3-12.9-9.5-12.9
	c-7.5,0-10.8,4.8-10.8,13.7V333H384v-63.8h17.8v6.8h0.2c3.3-6,9.4-9,17.6-9c8.3,0,14.4,4.1,18.4,11.4c4.6-7.2,11.5-11.4,20.2-11.4
	c14.2,0,23.7,8.7,23.7,26.5V333L462.8,333L462.8,333z"/>
<path class="st1" d="M266,436.4v-34h-27.8v34h-21.7v-85h21.7v31.9H266v-31.9h21.7v85H266z"/>
<path class="st2" d="M353.3,436.4l-4.1-12.3h-29.5l-4.5,12.3h-23.3l34.1-85h17.1l33.8,85L353.3,436.4L353.3,436.4z M334.7,377.9
	l-0.3-0.1l-8.7,29.1h17.8L334.7,377.9z"/>
<path class="st3" d="M381,436.4v-85h28.7c9.1-0.1,15.9,1.1,20.3,3.2c9.2,4.2,14.9,14,14.9,25.5c0,15.7-8.7,29.6-33.1,29.6h-10.1
	v26.7L381,436.4L381,436.4z M411.1,390.7c8.7,0,13.1-3,13.1-10.2c0-6.9-4.2-10-13.9-10h-8.5v20.2H411.1z"/>
<path class="st4" d="M449.5,436.4v-85h28.7c9.1-0.1,15.9,1.1,20.3,3.2c9.2,4.2,14.9,14,14.9,25.5c0,15.7-8.7,29.6-33.1,29.6h-10.1
	v26.7L449.5,436.4L449.5,436.4z M479.6,390.7c8.7,0,13.1-3,13.1-10.2c0-6.9-4.2-10-13.9-10h-8.5v20.2H479.6z"/>
<path class="st5" d="M536.6,436.4v-30.9l-25.4-54.1h23.6l12.6,34.1l12.8-34.1h23.3l-25.2,54.1v30.9H536.6z"/>
<rect x="386.9" y="188.6" class="st0" width="19.2" height="63.8"/>
<circle class="st0" cx="396.5" cy="173.2" r="9.6"/>
</svg>
