<?xml version="1.0" encoding="UTF-8"?>
<svg id="Layer_1" xmlns="http://www.w3.org/2000/svg" xmlns:xlink="http://www.w3.org/1999/xlink" version="1.1" viewBox="0 0 800 600">
  <!-- Generator: Adobe Illustrator 29.3.1, SVG Export Plug-In . SVG Version: 2.1.0 Build 151)  -->
  <defs>
    <style>
      .st0 {
        fill-rule: evenodd;
      }
    </style>
  </defs>
  <path class="st0" d="M170.6,234.1c-5.2,1.2-7.7,4.8-7.7,10.8v55c0,6.4,2.6,10.2,7.7,11.5v.7h-33.9v-.7c5.7-1.5,7.7-3.8,7.7-11.5v-55c0-7.1-2-9.4-7.7-10.8v-.7h33.9v.7ZM336.9,285.3c.2.5.6.9,1.1,1,1.1.7,2.9.8,4.2,1,.7,0,1.2.1,1.5.2l25.9,2.7c1.1,5.9,3.6,10.9,7.5,15,5.4,5.7,12.4,8.5,21.1,8.5s15.7-2.8,21.1-8.5c3.8-4.2,6.3-9.2,7.4-15l25.9-2.7c.3-.1.8-.2,1.5-.2,1.3-.1,3-.3,4.2-1,.5-.2.8-.5,1-1,0-.2.1-.4.2-.6.8-2.1,1.5-4.2,2-6.4.6-2.4-.7-4.5-2.2-6.3-1.4-1.7-2.5-3.4-2.8-5.6,0-.7-.6-1.6-1.1-2.1-.4-.4-1.2-.5-1.8-.4-.2,0-.5.9-.5,1.3,0,3.2.3,6.4,2.4,9.1.1.2,0,.4,0,.7,0,.1,0,.2,0,.3,0,0-.2,0-.2-.1-.2-.1-.4-.2-.5-.4-1.2-1.9-2.3-3.8-2.4-6.1,0-.9-.1-1.8-.2-2.7h0c-.2-2,.2-2.8,1.7-3.1.6-.1,1.1-.6,1.2-1.2.1-.6.3-1.2.4-1.8h0c.3-1.5.7-2.9,1-4.4.1-.6.2-1.3,0-1.8-.2-.4-.7-.8-1.2-1-.2,0-.8.5-.9.9-1,2.5-2,5-2.9,7.5h0c-.3.9-.6,1.7-1,2.5,0,.2,0,.3-.2.5-2,4.4-2.1,8.8.9,12.8.1.2.2.3.3.5,0,0,0,0,0,.1h-.5c0,0-10.5-.6-20.9-1.2h-.1s-.1,0-.1,0h-.2s-1.7-.1-1.7-.1h-1.2c-1.1-5.9-3.5-10.9-7.3-15-5.4-5.7-12.4-8.5-21.1-8.5s-15.7,2.8-21.1,8.5c-3.9,4.1-6.4,9.1-7.5,15-1.1,0-2.2.1-3.2.2h0c-10.5.6-20.9,1.2-20.9,1.2h-.6s0,0,0,0h0c0-.2.2-.4.3-.6,3-4.1,2.9-8.4.9-12.8,0-.2-.1-.3-.2-.5-.3-.8-.6-1.7-1-2.5-1-2.5-1.9-5-2.9-7.5-.1-.4-.7-1-.9-.9-.5.2-1,.6-1.2,1-.2.5-.1,1.2,0,1.8.3,1.5.6,2.9,1,4.4h0c.1.6.3,1.2.4,1.8.1.6.6,1.1,1.2,1.2,1.6.4,1.9,1.1,1.7,3h0c0,0,0,0,0,0,0,.9-.2,1.8-.2,2.7,0,2.3-1.1,4.3-2.4,6.1-.1.2-.3.3-.5.4h0c0,0-.2,0-.2.1,0-.1,0-.2,0-.3,0-.3,0-.5,0-.7,2-2.7,2.3-5.9,2.4-9.1,0-.5-.3-1.3-.5-1.3-.6,0-1.4,0-1.8.4-.5.5-1,1.3-1.1,2.1-.3,2.2-1.4,4-2.8,5.6-1.5,1.8-2.8,3.9-2.2,6.3.5,2.2,1.3,4.2,2,6.4h0s0,.2,0,.2v.2c0,0,.1,0,.1,0ZM328,354c0-7.2,4.3-12.8,11.6-12.8s9.1,3.3,9.8,7.8h-3c-.6-3-3-5.1-6.9-5.1s-8.3,4.3-8.3,10.1,3.3,10,8.4,10,6.8-3.1,7.1-6.7h3c0,2.4-1.2,5.2-2.9,6.9-1.7,1.7-4.2,2.6-7.3,2.6-6.9,0-11.4-5.3-11.4-12.7h0ZM353.9,354c0-7.3,4.6-12.8,11.9-12.8s11.9,5.4,11.9,12.8-4.6,12.7-11.9,12.7-11.9-5.4-11.9-12.7ZM374.6,354c0-5.7-3.1-10.1-8.8-10.1s-8.8,4.3-8.8,10.1,3.1,10,8.8,10,8.8-4.3,8.8-10ZM399.6,341.8h-16.5v24.4h3.1v-11.5h11.2v-2.6h-11.2v-7.6h13.5v-2.7ZM404.5,341.8h16.5v2.7h-13.5v7.6h11.2v2.6h-11.2v11.5h-3.1v-24.4ZM443.1,341.8h-17.2v24.4h17.6v-2.8h-14.6v-8.6h12.8v-2.6h-12.8v-7.7h14.1v-2.7ZM448.8,341.8h17.2v2.7h-14.1v7.7h12.8v2.6h-12.8v8.6h14.6v2.8h-17.6v-24.4ZM398,256.2c8,0,11.4,8.2,11.4,26.9s-3.4,26.9-11.4,26.9-11.4-8.1-11.4-26.9,3.5-26.9,11.4-26.9ZM238.3,311.3c-4.5-1-6.6-3-6.6-7.4h0v-34.3c0-10.7-5.9-17.1-16.4-17.1s-14.3,4.4-16.5,11.2v-11l-23.2,6.4v.7c5.1.4,6.6,2.4,6.6,8.2v35.8c0,4.4-2.1,6.4-6.6,7.4v.7h28.3v-.7c-3.7-.9-5-2.6-5-6.7v-39.1c1.8-3.7,4.6-5.5,8.4-5.5s7.8,3.5,7.8,10.3v34.3c0,4.1-1.3,5.8-5,6.7v.7h28.3v-.7ZM279.8,298.8c-2.7,8.9-9,14.9-18.3,14.9s-13.9-5.7-13.9-14.8v-42.1h-6.5v-.6c9.5-5.6,17.2-12.4,22.8-20.2h.4v18.5h11.3v2.2h-11.3v39.6c0,5.3,2.2,8.7,6.3,8.7s6.7-2.2,8.3-6.6l.9.3ZM323.2,268.8v-16.2h-1.2c-10.8,0-16.6,8.4-17.4,25.4h-.6v-25.2l-22.5,6.5v.7c4.9.4,6.6,2.7,6.6,9.1v34.8c0,4.4-2.1,6.4-6.6,7.4v.7h32v-.7c-6.4-.9-8.9-2.6-8.9-7.4v-17.3c0-14,4.1-18.9,12.1-18.9s4.6.3,5.8,1h.6ZM496.9,313.1l-21.4-49c-2.6-5.8-4.6-8.3-8.1-9.2v-.7h31.3v.7c-4,.6-6.1,2.2-6.1,5.2s.4,2.8,1.2,4.8l10.7,25.3,10.7-25c.8-2.1,1.2-3.8,1.2-5,0-2.9-2-4.6-6.1-5.2v-.7h16.7v.7c-3.7,1-5.4,3-8.1,9.2l-21.4,49h-.7ZM573.1,291.7h0s0,0,0,0h0ZM572.3,291.5l.8.2c-2.8,16.1-13,22-22.8,22s-12.8-2.6-17.6-7.9c-4.8-5.2-7.3-12.4-7.3-21.6s2.4-16.8,7.1-22.8c4.7-5.9,10.9-8.9,18.5-8.9s11.3,2,15.7,6.2c4.3,4.1,6.4,10.6,6.3,19.2h-34.5c1,14.3,8.3,22.4,19.4,22.4s11.8-2.9,14.5-8.9ZM538.4,275.2v-1.2c0-11.2,4-18.2,10.2-18.2s9.3,6.5,9.2,19.4h-19.4ZM619.4,252.6v16.2h-.6c-1.2-.7-3.3-1-5.8-1-8,0-12.1,4.8-12.1,18.9v17.3c0,4.8,2.5,6.5,8.9,7.4v.7h-32v-.7c4.5-1,6.6-3,6.6-7.4v-34.8c0-6.4-1.7-8.7-6.6-9.1v-.7l22.5-6.5v25.2h.6c.8-16.9,6.6-25.4,17.4-25.4h1.2ZM644.2,313.7c9.3,0,15.6-6.1,18.3-14.9l-.9-.3c-1.6,4.4-4.3,6.6-8.3,6.6s-6.3-3.4-6.3-8.7v-39.6h11.3v-2.2h-11.3v-18.5h-.4c-5.6,7.9-13.2,14.6-22.8,20.2v.6h6.5v42.1c0,9.1,4.6,14.8,13.9,14.8Z"/>
</svg>