<?xml version="1.0" encoding="utf-8"?>
<!-- Generator: Adobe Illustrator 25.2.1, SVG Export Plug-In . SVG Version: 6.00 Build 0)  -->
<svg version="1.1" id="Layer_1" xmlns="http://www.w3.org/2000/svg" xmlns:xlink="http://www.w3.org/1999/xlink" x="0px" y="0px"
	 viewBox="0 0 800 600" style="enable-background:new 0 0 800 600;" xml:space="preserve">
<path d="M591.5,361.6c0,4,2.8,5.3,11,7.8c11.7,3.7,16.5,7.7,16.5,16.4c0,9.2-7.5,14.9-18.2,14.9c-6.2,0-10.4-1.9-13.6-1.9
	c-2.2,0-3.3,1-4.6,2l-1-16.4h0.2c5.1,9.6,11.1,14.8,19,14.8c4.4,0,7.6-2.2,7.6-6.5c0-4.6-4-5.7-10.7-7.8c-11-3.4-15.9-7.9-15.9-16.5
	c0-8.3,7.1-13.9,16.2-13.9c5.7,0,9.1,2.2,12.3,2.2c2.1,0,3.4-0.9,5-2.2v14.5h-0.2c-4-7.7-10.8-12.9-17.1-12.9
	C594.1,356,591.5,358.2,591.5,361.6z"/>
<path d="M577,390c0,5.9,0.3,7.1,4.2,9.6v0.2h-24.4v-0.2c3.9-2.5,4.1-3.7,4.1-9.6v-47.5c0-6-1.1-7.7-5.3-9.8v-0.2H577L577,390
	L577,390z"/>
<path d="M405.8,396.5c-2.2,2.5-6.6,4.1-10.9,4.1c-7.3,0-11-3.1-11.8-8c0-0.4-0.2-1.9-0.2-2.3c-1.4,6-6.8,10.1-14.5,10.1
	c-7,0-13.3-3.6-13.3-11.2c0-10.1,10-12.1,20.7-14.1l6.8-1.3v-8.7c0-4.6-1.7-9.1-6.8-9.1c-4.2,0-6.4,3-6.4,6.8c0,3.6,1.5,5.5,4.3,5.5
	c0.5,0,1.1-0.1,1.7-0.3c-1.8,3.5-5.2,5.3-9.6,5.3c-4.7,0-8.5-2.9-8.5-7.5c0-6.9,7.7-11.4,18.9-11.4c14.7,0,22.4,4.5,22.4,15.7
	c0,5.5-0.2,11-0.2,17.4c0,5.8,0.7,9.1,5.1,9.1c0.6,0,1.4-0.1,2.1-0.4L405.8,396.5L405.8,396.5z M379,376.4
	c-5.7,1.2-8.2,4.6-8.2,10.4c0,4.6,1.8,7.5,5.2,7.5c4.2,0,6.6-4.1,6.6-9.2l0.1-9.5L379,376.4z"/>
<path d="M499.7,354.5c-8,0-12.3,7.3-14.2,15.4v6.4c0-7.9,4-12.6,8.6-12.6c3.6,0,5.6,1.9,5.6,5c0,2-1.1,3.7-2.9,4.4
	c0.5,0.4,1.8,0.9,3.2,0.9c4.8,0,9.3-3.6,9.3-10.1C509.3,358.5,505.6,354.5,499.7,354.5z"/>
<path d="M469.4,365.3c0-6.1-0.5-7.4-4.8-9.8v-0.2h20.8v34.9c0,5.8,0.8,7,4.7,9.3v0.2h-20.7v-11.9c-2.1,8.3-7.8,12.8-15.5,12.8
	c-9.6,0-14.2-6.9-14.2-15.6v-19.8c0-6.1-0.5-7.4-4.7-9.8v-0.2h20.7v30.2c0,4,2,7.5,6,7.5c4.5,0,7.6-3.7,7.6-11.9L469.4,365.3
	L469.4,365.3z"/>
<path d="M434,383.3c-1.2,6.2-3.7,9.8-7.8,9.8c-3.6,0-5.2-2.6-5.2-7.2v-0.5v-28h12.4v-1.9h-12.4h-20.8c0,0,0.3,0,0.3,0v0l0,0.1
	c3.3,1.9,4.1,3.1,4.3,6.8l-0.2,23.2c-0.1,10.3,6,15.2,14.2,15.2c11,0,15.1-8.4,16.2-17L434,383.3z"/>
<path d="M558.7,396.5c-2.2,2.5-6.6,4.1-10.9,4.1c-7.3,0-11-3.1-11.8-8c0-0.4-0.2-1.9-0.2-2.3c-1.4,6-6.8,10.1-14.5,10.1
	c-7,0-13.3-3.6-13.3-11.2c0-10.1,10-12.1,20.7-14.1l6.8-1.3v-8.7c0-4.6-1.7-9.1-6.8-9.1c-4.2,0-6.4,3-6.4,6.8c0,3.6,1.5,5.5,4.3,5.5
	c0.5,0,1.1-0.1,1.7-0.3c-1.8,3.5-5.2,5.3-9.6,5.3c-4.7,0-8.5-2.9-8.5-7.5c0-6.9,7.7-11.4,18.9-11.4c14.7,0,22.4,4.5,22.4,15.7
	c0,5.5-0.2,11-0.2,17.4c0,5.8,0.7,9.1,5.1,9.1c0.6,0,1.4-0.1,2.1-0.4L558.7,396.5L558.7,396.5z M532,376.4
	c-5.7,1.2-8.2,4.6-8.2,10.4c0,4.6,1.8,7.5,5.2,7.5c4.2,0,6.6-4.1,6.6-9.2l0.1-9.5L532,376.4z"/>
<path d="M323.9,355.4V367c2.2-8.1,8-12.6,15.5-12.6c9.8,0,14.3,6.8,14.3,15.5v20c0,5.9,0.3,7.1,4.2,9.6v0.2h-24.5v-0.2
	c4-2.5,4.2-3.7,4.2-9.6v-20.5c0-4.1-1.9-7.5-6.1-7.5c-4.5,0-7.6,3.8-7.6,11.9V390c0,5.9,0.3,7.1,4.2,9.6v0.2h-24.5v-0.2
	c4-2.5,4.2-3.7,4.2-9.6v-24.7c0-6.1-0.5-7.4-4.8-9.8v-0.2H323.9z"/>
<path d="M427.9,288.7v11.7c2.2-8.1,8-12.6,15.5-12.6c9.8,0,14.3,6.8,14.3,15.5v20c0,5.9,0.3,7.1,4.2,9.6v0.2h-24.5V333
	c4-2.5,4.2-3.7,4.2-9.6v-20.5c0-4.1-1.9-7.5-6.1-7.5c-4.5,0-7.6,3.8-7.6,11.9v16.1c0,5.9,0.3,7.1,4.2,9.6v0.2h-24.5V333
	c4-2.5,4.2-3.7,4.2-9.6v-24.7c0-6.1-0.5-7.4-4.8-9.8v-0.2L427.9,288.7L427.9,288.7z"/>
<path d="M372.3,288.7v11.7c2.2-8.1,8-12.6,15.5-12.6c9.8,0,14.3,6.8,14.3,15.5v20c0,5.9,0.3,7.1,4.2,9.6v0.2h-24.5V333
	c4-2.5,4.2-3.7,4.2-9.6v-20.5c0-4.1-1.9-7.5-6.1-7.5c-4.5,0-7.6,3.8-7.6,11.9v16.1c0,5.9,0.3,7.1,4.2,9.6v0.2H352V333
	c4-2.5,4.2-3.7,4.2-9.6v-24.7c0-6.1-0.5-7.4-4.8-9.8v-0.2L372.3,288.7L372.3,288.7z"/>
<path d="M354.2,329.8c-2.2,2.5-6.6,4.1-10.9,4.1c-7.3,0-11-3.1-11.8-8c0-0.4-0.2-1.9-0.2-2.3c-1.4,6-6.8,10.1-14.5,10.1
	c-7,0-13.3-3.6-13.3-11.2c0-10.1,10-12.1,20.7-14.1l6.8-1.3v-8.7c0-4.6-1.7-9.1-6.8-9.1c-4.2,0-6.4,3-6.4,6.8c0,3.6,1.5,5.5,4.3,5.5
	c0.5,0,1.1-0.1,1.7-0.3c-1.8,3.5-5.2,5.3-9.6,5.3c-4.7,0-8.5-2.9-8.5-7.5c0-6.9,7.7-11.4,18.9-11.4c14.7,0,22.4,4.5,22.4,15.7
	c0,5.5-0.2,11-0.2,17.4c0,5.8,0.7,9.1,5.1,9.1c0.6,0,1.4-0.1,2.1-0.4L354.2,329.8L354.2,329.8z M327.5,309.7
	c-5.7,1.2-8.2,4.6-8.2,10.4c0,4.6,1.8,7.5,5.2,7.5c4.2,0,6.6-4.1,6.6-9.2l0.1-9.5L327.5,309.7z"/>
<path d="M325.2,241.4c2.5,0,4-0.4,6.4-2.6l8-7.6c2.1-2,3-3.8,2.9-5.3c0-1.7-1.2-3.1-3-3.7V222h17.6v0.2c-6,1.8-9.2,3.9-12.9,7.4
	l-5.1,4.9l10.9,20.8c2.3,4.4,5.4,8.7,9.4,11v0.2h-22.6c0.3-1.5-0.2-3.9-1.5-6.4l-7.4-14.6c-0.9-1.7-1.6-2.3-3.1-2.3h-1.2v13.6
	c0,5.9,0.3,7.1,4.2,9.6v0.2h-24.4v-0.2c3.9-2.5,4.1-3.7,4.1-9.6v-47.5c0-6-1.1-7.7-5.3-9.8v-0.2h21.4v42.2L325.2,241.4L325.2,241.4z
	"/>
<path d="M371.6,199.5c5.2,0,9.2,3.7,9.2,8.5s-4,8.6-9.2,8.6c-5.1,0-9-3.8-9-8.6C362.7,203.2,366.5,199.5,371.6,199.5z"/>
<path d="M423.6,221.1c9.7,0,13.9,6.8,13.9,15.5v20c0,5.9,0.3,7.1,4.2,9.6v0.2h-24.5v-0.2c4-2.5,4.2-3.7,4.2-9.6v-20.5
	c0-4.1-1.3-7.5-5.6-7.5c-4.1,0-7,3.8-7,11.9v16.1c0,5.9,0.4,7.1,4.2,9.6v0.2h-24.4v-0.2c3.9-2.5,4.1-3.7,4.1-9.6v-20.5
	c0-4.1-1.3-7.5-5.5-7.5s-7,3.8-7,11.9v16.1c0,5.9,0.3,7.1,4.2,9.6v0.2H360v-0.2c4-2.5,4.2-3.7,4.2-9.6V232c0-6.1-0.5-7.4-4.8-9.8
	V222h20.8v11.7c2.1-8.1,7.1-12.6,14.7-12.6c8.4,0,12.9,5.3,13.7,12.6C410.8,225.6,415.9,221.1,423.6,221.1z"/>
<path d="M455.1,258.2c-2.6,4.8-6.6,8.1-12.5,9c0.8-5.5,0.8-11.9,0.8-19.8v-38.2c0-6-1.1-7.7-5.3-9.8v-0.2h21.4v33.9
	c1.9-6.7,7.1-12,15.1-12c10.4,0,18.9,8.8,18.9,22.5c0,14.9-10.1,23.7-22.4,23.7C463.3,267.4,457.7,264.1,455.1,258.2z M467.9,227.5
	c-4.6,0-8.4,5.1-8.4,12.6v13.2c0,6.6,3.7,11.5,8.2,11.5c6.2,0,8.9-6.8,8.9-20.1C476.6,233.6,473.5,227.5,467.9,227.5z"/>
<path d="M539.1,242.2h-28.5c0,11.1,5.8,17.8,14.5,17.8c5.5,0,10.2-2.4,13-8l0.6,0.3c-2.6,9.6-10.7,15.1-20.9,15.1
	c-12.8,0-23.4-8.4-23.4-23.1c0-14.1,10.7-23.2,23.5-23.2C532.3,221.1,539.1,230.4,539.1,242.2z M523.7,240.4
	c0-10.1-0.7-17.7-5.8-17.7c-4.7,0-7,7.1-7.2,17.7H523.7z"/>
<path d="M571.3,235.3c0-3.1-2-5-5.6-5c-4.6,0-8.6,4.7-8.6,12.6v13.8c0,5.9,2.1,7.5,6.9,9.6v0.2h-27.2v-0.2c4-2.5,4.2-3.7,4.2-9.6
	V232c0-6.1-0.5-7.4-4.8-9.8V222h20.8v14.5c2.2-8.1,6.2-15.4,14.2-15.4c5.8,0,9.6,4,9.6,9.3c0,6.6-4.4,10.1-9.2,10.1
	c-1.4,0-2.7-0.4-3.2-0.9C570.2,239,571.3,237.3,571.3,235.3z"/>
<path d="M598.1,256.7c0,5.9,0.3,7.1,4.2,9.6v0.2h-24.4v-0.2c3.9-2.5,4.1-3.7,4.1-9.6v-47.5c0-6-1.1-7.7-5.3-9.8v-0.2h21.4
	L598.1,256.7L598.1,256.7z"/>
<path d="M625.5,269.4l-19.1-37.7c-2.8-5.6-3.7-6.8-6.6-9.5V222h24.5v0.2c-1.9,1.2-2.5,2.2-2.5,4c0,1.4,0.5,3.3,1.3,5l9.5,19.8
	l7.6-18.7c0.6-1.5,0.9-2.9,0.9-4.1c0-3-1.7-5-4.6-6.1V222H650v0.2c-3.1,2.4-4.6,4.2-6.9,10L624.8,276c-3.1,7.5-6.8,11-12.6,11
	c-5.3,0-9.3-3.1-9.3-8.3c0-4.9,3.5-7.7,7.7-7.7c1.1,0,1.7,0.1,2.6,0.4c-1.5,0.9-2.3,2.2-2.3,4.2c0,2.9,2.2,4.9,5,4.9
	c3.4,0,5.6-2.1,7.5-6.6L625.5,269.4z"/>
<path d="M221.7,328.4L221.7,328.4c0.1-0.2,0.3-0.4,0.4-0.6c1.1-1.7,2.2-3.3,3.3-5c2.3-3.7,4.6-7.4,6.5-11.3
	c1.8-3.6,3.4-7.2,4.5-11.1c0.6-2.1,1-4.2,1.3-6.4c0.2-2.1,0.2-4.1,0.1-6.2c-0.2-2.8-0.6-5.5-1.4-8.2c-1.1-3.8-2.8-7.2-5.4-10.2
	c-2.8-3.3-6.3-5.5-10.6-6.5c-1.1-0.3-2.2-0.4-3.4-0.5c-0.4,0-0.8,0-1.3,0c-0.4,0-0.8,0-1.3,0c-1.1,0.1-2.3,0.2-3.4,0.5
	c-4.2,1-7.7,3.2-10.6,6.5c-2.6,3-4.3,6.4-5.4,10.2c-0.8,2.7-1.3,5.4-1.4,8.2c-0.1,2.1-0.1,4.2,0.1,6.2c0.2,2.2,0.7,4.3,1.3,6.4
	c1.1,3.9,2.7,7.5,4.5,11.1c2,3.9,4.2,7.6,6.5,11.3c1.1,1.7,2.2,3.3,3.3,5c0.1,0.2,0.3,0.4,0.4,0.6l0,0c0,0-11.4-0.2-31.4-3.7V340
	c5.5-0.6,11-1.2,16.4-1.9c5.5-0.6,11-1.2,16.5-1.9c-0.6,5.4-1.2,10.7-1.8,16c-0.6,5.3-1.2,10.7-1.8,16c-0.6,5.3-1.2,10.6-1.8,16
	c-0.6,5.3-1.2,10.6-1.8,15.9h23.1c-0.6-5.3-1.2-10.6-1.8-15.9c-0.6-5.3-1.2-10.6-1.8-16c-0.6-5.3-1.2-10.7-1.8-16
	c-0.6-5.3-1.2-10.6-1.8-16c5.6,0.6,11.1,1.3,16.5,1.9c5.5,0.6,10.9,1.3,16.4,1.9v-15.3C233.1,328.2,221.7,328.4,221.7,328.4z
	 M216.1,327.6c-0.1,0.1-0.1,0.2-0.2,0.2c0,0,0,0.1-0.1,0.1c-0.1,0.1-0.2,0.2-0.2,0.2s-0.1-0.1-0.2-0.2c0,0,0-0.1-0.1-0.1
	c-0.1-0.1-0.1-0.2-0.2-0.2c-1.3-1.9-5.8-8.5-8.6-13.5c-3.4-5.8-7.9-17.8-4.2-30.6c3.3-11.2,11-11.8,12.8-11.8c0.1,0,0.3,0,0.4,0
	c0.1,0,0.3,0,0.4,0c1.8,0,9.6,0.6,12.8,11.8c3.7,12.8-0.8,24.7-4.2,30.6C221.9,319.1,217.4,325.7,216.1,327.6z"/>
<path d="M210.6,297.8c-28.2,0.3-42.7-21.5-43.1-48.2c-0.3-26.7,13.7-48,41.9-48.4c5-0.1,9.8,0.6,14.4,1.8
	c-6.5-2.6-13.6-3.9-21.1-3.8c-29.4,0.4-53,23.2-52.7,51.1c0.3,27.8,24.5,50.1,53.9,49.7c7.5-0.1,14.6-1.6,21-4.4
	C220.4,297,215.6,297.7,210.6,297.8z"/>
</svg>
