<?xml version="1.0" encoding="utf-8"?>
<!-- Generator: Adobe Illustrator 25.2.3, SVG Export Plug-In . SVG Version: 6.00 Build 0)  -->
<svg version="1.1" id="Layer_1" xmlns="http://www.w3.org/2000/svg" xmlns:xlink="http://www.w3.org/1999/xlink" x="0px" y="0px"
	 viewBox="0 0 800 600" style="enable-background:new 0 0 800 600;" xml:space="preserve">
<style type="text/css">
	.st0{fill:none;}
	.st1{fill:#FFFEFE;}
	.st2{fill:#C7CCD3;}
</style>
<path d="M295.3,315.5h15c8.4,0,12.5,4.8,12.5,11c0,4.3-2.3,7.7-6.3,8.8c5.1,1.1,8.3,4.4,8.3,10.4c0,6.8-4.6,12-13.4,12h-16.1V315.5
	L295.3,315.5z M309.9,333c4.4,0,6.4-2.4,6.4-6s-1.9-5.8-6.6-5.8h-8V333C301.8,333,309.9,333,309.9,333z M311,352
	c4.8,0,7.1-2.9,7.1-6.7c0-4.1-2.6-6.8-7.6-6.8h-8.7V352H311z"/>
<path d="M360.8,349.8h-17.1l-3.3,7.8h-6.7l18.5-43.1h0.4l18.5,43.1h-7L360.8,349.8z M346.1,344h12.3l-6.1-14.8L346.1,344z"/>
<path d="M383.3,315.5h6.7v36.2h18.7v5.8h-25.2v-42.1L383.3,315.5L383.3,315.5z"/>
<path d="M445.2,349.8h-17.1l-3.3,7.8h-6.7l18.5-43.1h0.4l18.5,43.1h-7L445.2,349.8z M430.5,344h12.3l-6.1-14.8L430.5,344z"/>
<path d="M473.8,330v27.7h-6.3v-42.8h0.4l27.1,28.4v-27.8h6.3v42.8h-0.4L473.8,330z"/>
<path d="M514.6,336.6c0-12.4,9.6-21.7,21.5-21.7c7.8,0,13.3,3,16.8,8.1l-5.1,3.6c-2.9-3.8-6.4-5.7-12-5.7c-8.4,0-14.4,6.7-14.4,15.7
	c0,9.1,6.3,15.7,14.7,15.7c5.4,0,9.6-2,12.7-6.1l5.1,3.6c-4.3,5.7-9.8,8.6-18.1,8.6C523.9,358.2,514.6,349.1,514.6,336.6z"/>
<path d="M566.9,315.5h26.8v5.8h-20.2v12.1h18v5.7h-18v12.5h21.1v5.8h-27.7L566.9,315.5L566.9,315.5z"/>
<path d="M311,260.4l17.1,24.1H320l-13.4-19.1l-4.7,5.6v13.4h-6.7v-42.1h6.7v20.4l16.7-20.4h7.4L311,260.4z"/>
<path d="M334,263.4c0-12.4,9.7-21.7,21.8-21.7s21.8,9.1,21.8,21.7c0,12.5-9.8,21.7-22,21.7C343.7,285.1,334,276,334,263.4z
	 M370.6,263.4c0-9-6.1-15.7-14.8-15.7s-14.8,6.7-14.8,15.7s6.1,15.7,14.8,15.7S370.6,272.4,370.6,263.4z"/>
<path d="M397,256.9v27.7h-6.3v-42.8h0.4l27.1,28.4v-27.8h6.3v42.8h-0.4L397,256.9z"/>
<path d="M462.7,292.2h-6.3v-7.4c-10.5-1.4-18.7-10-18.7-21.4c0-12.4,9.7-21.5,21.8-21.5s21.8,9.1,21.8,21.5c0,11.4-8,20-18.7,21.4
	L462.7,292.2L462.7,292.2z M456.4,272.3h6.3v6.7c7-1.4,11.7-7.6,11.7-15.5c0-9-6.1-15.5-14.8-15.5s-14.8,6.7-14.8,15.5
	c0,8,4.7,14.1,11.7,15.5L456.4,272.3L456.4,272.3z"/>
<path d="M494.4,269.7v-27.4h6.7v26.9c0,6.7,3.3,9.8,9.6,9.8c6.1,0,9.4-3,9.4-9.8v-26.9h6.7v27.2c0,10.3-7,15.4-16.1,15.4
	C501.3,285.1,494.4,280,494.4,269.7z"/>
<path d="M541.7,242.3h26.8v5.8h-20.2v12.1h18v5.7h-18v12.5h21.1v5.8h-27.7V242.3L541.7,242.3z"/>
<path d="M590,284.5h-6.7v-42.2h13.5c9.8,0,15.5,5.4,15.5,13.4c0,5.8-2.9,10.1-8.1,12l10.1,16.7H607l-9.4-15.5h-0.9h-6.8L590,284.5
	L590,284.5z M596.7,263.3c6.3,0,8.8-2.4,8.8-7.6c0-5.1-2.7-7.6-8.8-7.6H590v15L596.7,263.3L596.7,263.3z"/>
<path d="M626.6,242.3h26.8v5.8h-20.2v12.1h18v5.7h-18v12.5h21.1v5.8h-27.7L626.6,242.3L626.6,242.3z"/>
<path d="M668.4,242.3h12c13.8,0,22.2,8.6,22.2,21.1c0,12.5-8.4,21.1-22.2,21.1h-12V242.3z M680,278.7c11,0,15.7-6.3,15.7-15.3
	s-4.8-15.3-15.7-15.3h-4.8v30.4h4.8V278.7z"/>
<circle cx="180.8" cy="300" r="83.4"/>
<path class="st0" d="M163.6,310.4c-0.4-0.4-1.3-1.2-1.9-1.8C161.7,308.7,163,309.8,163.6,310.4z"/>
<path class="st0" d="M199.8,308.6c-0.6,0.6-1.5,1.3-1.9,1.8C198.6,309.8,199.8,308.7,199.8,308.6z"/>
<path class="st1" d="M221.6,286.5c-3-2.8-6-5.6-8.9-8.3c-0.2-0.2-0.3-0.4-0.7-0.4c-0.1,3.1-0.9,6.1-2.2,8.9c-0.7,1.5-1.8,2.9-3.2,4
	c-2.2,1.6-5.1,2.4-7.8,2c-0.5-0.1-1-0.2-1.5-0.3c-0.3-0.1-0.8,0-0.8-0.3l0,0c-0.2,1.8-0.3,3.6-0.3,5.4c0,1.1-0.5,2.2-1.3,3
	c-0.5,0.5-0.9,1-1.4,1.5c-0.2-0.1-0.3-0.3-0.2-0.4c-0.2-3.1-0.3-6.2-0.3-9.4c0-0.5-0.3-1.1-0.7-1.4c-1.8-1.5-3.4-3.3-4.6-5.2
	c-0.8-1.1-1.3-2.4-1.5-3.7c-0.2-0.9,0-1.9,0.5-2.7c0.6,1.1,1.1,2.1,1.7,3.3c0.6,1.2,1.5,2.2,2.4,3.3c0.4,0.4,0.9,0.7,1.4,0.9
	c0.7,0.3,0.9,0.1,1-0.6c0.3-1.3,0.6-2.6,0.9-3.9c0.1-0.7,0.3-1.4,0.5-2c0.3-0.5,1.1-0.7,1.7-1c4.9-2.5,9.7-5,14.6-7.5
	c0.5-0.2,0.9-0.7,0.9-1.3c0.1-1.4,0.1-2.7-0.1-4c-0.4-4.6-2.9-8.9-6.8-11.4c-2.1-1.4-4.4-2.4-6.8-3c-0.7-0.2-1.5-0.1-2.1,0.3
	c-4.8,2.3-9.7,4.6-14.5,7c-0.2,0.1-0.4,0.2-0.7,0.3c-0.3-0.1-0.4-0.1-0.7-0.3c-4.8-2.4-9.7-4.6-14.5-7c-0.6-0.3-1.4-0.4-2.1-0.3
	c-2.4,0.6-4.7,1.6-6.8,3c-3.9,2.6-6.4,6.8-6.9,11.5c-0.2,1.3-0.2,2.7-0.1,4c0,0.6,0.4,1.1,0.9,1.3c4.9,2.5,9.8,5,14.7,7.5
	c0.6,0.3,1.4,0.4,1.7,1c0.3,0.6,0.5,1.3,0.5,2c0.3,1.3,0.6,2.6,0.9,3.9c0.2,0.7,0.3,0.8,1,0.6c0.5-0.2,1-0.5,1.4-0.9
	c0.9-0.9,1.7-2.1,2.4-3.3c0.6-1,1.1-2.1,1.7-3.3c0.5,0.8,0.7,1.7,0.5,2.7c-0.3,1.3-0.8,2.6-1.5,3.7c-1.3,2-2.8,3.7-4.6,5.2
	c-0.4,0.3-0.7,0.9-0.7,1.4c-0.1,3.1-0.3,6.2-0.3,9.4c0,0.2-0.1,0.3-0.2,0.4c-0.4-0.5-0.9-1.1-1.4-1.5c-0.9-0.8-1.3-1.9-1.3-3
	c-0.1-1.8-0.2-3.6-0.3-5.4l0,0c0,0.3-0.4,0.3-0.8,0.3c-0.5,0.1-1,0.2-1.5,0.3c-2.8,0.4-5.6-0.3-7.8-2c-1.4-1-2.5-2.4-3.2-4
	c-1.4-2.8-2.1-5.8-2.2-8.9c-0.3,0-0.5,0.3-0.7,0.4c-3,2.8-6,5.6-8.9,8.3c-0.3,0.3-0.7,0.4-0.5,0.9c0.3,0.2,0.6,0.3,0.9,0.6
	c0.8,0.8,1.6,1.5,2.6,2.1c2.9,2.4,6.1,4.3,9.5,5.8c2.7,1,5.3,1.9,8.3,1.4c0.1,0,0.2-0.1,0.3-0.1c0.4-0.2,0.8-0.4,0.7-0.2
	c-0.1,0.2-0.5,1-0.6,1.1c-1.7,3-3.7,6-5.8,8.9c-0.6,0.9-1.3,1.7-2.1,2.5c-0.3,1.5-0.3,3.2-0.5,4.7c-0.1,0.9-0.2,1.9-0.3,2.8
	c-0.1,0.5,0.1,0.7,0.5,0.8c2.8,0.7,5.6,1.3,8.3,2c0.3,0.1,0.7,0.2,0.9,0.3c-0.9,0.2-2,0.3-2.9,0.4c-2.1,0.3-4.1,0.4-6.1,0.7
	c-1.2,0.1-1.7,0.6-1.8,1.8c-0.2,1.5,0.7,2.7,1.7,3.7c0.2,0.2,0.4,0.1,0.7,0.1l9.4-1.5c0.3-0.1,0.6,0,0.9,0.1l-5.7,4.4
	c0.4,0.3,0.9,0.3,1.3,0.3c1.5,0.3,3.1,0.6,4.6,0.9c0.3,0.1,0.7,0,0.9-0.2c2.5-1.5,5.1-3.1,7.6-4.6c0.1-2.1-0.4-4.2-1.5-6
	c-1.9-3.6-4.5-6.9-7.6-9.6l-0.1-0.1c-0.7-0.6-1.9-1.7-1.9-1.8c-0.1-0.8,0.5-0.9,1-1.1c0.9-0.3,1.8-0.3,2.7-0.1
	c2.1,0.3,4.3,0.9,6.3,1.7c3,1.1,5.9,2.3,8.8,3.7c0.1,0.1,0.2,0.1,0.3,0.1c0.1,0,0.2-0.1,0.3-0.1c2.8-1.4,5.8-2.6,8.8-3.7
	c2.1-0.8,4.1-1.4,6.3-1.7c0.9-0.2,1.8-0.2,2.7,0.1c0.5,0.2,1.1,0.4,1,1.1c0,0.1-1.3,1.2-1.9,1.8l-0.1,0.1c-3.1,2.8-5.7,6-7.6,9.6
	c-1,1.8-1.5,4-1.5,6c2.5,1.5,5.1,3.1,7.6,4.6c0.3,0.2,0.6,0.3,0.9,0.2c1.5-0.3,3.1-0.6,4.6-0.9c0.4,0,0.9-0.2,1.3-0.3l-5.7-4.4
	c0.3-0.1,0.5-0.1,0.9-0.1l9.4,1.5c0.3,0,0.5,0.1,0.7-0.1c1-1,1.9-2.1,1.7-3.7c-0.1-1.2-0.6-1.7-1.8-1.8c-2.1-0.2-4.1-0.4-6.1-0.7
	c-1-0.1-2-0.2-2.9-0.4c0.3-0.2,0.6-0.3,0.9-0.3c2.8-0.7,5.6-1.3,8.3-2c0.4-0.1,0.6-0.3,0.5-0.8c-0.1-0.9-0.2-1.9-0.3-2.8
	c-0.2-1.5-0.3-3.2-0.5-4.7c-0.8-0.7-1.5-1.5-2.1-2.5c-2.1-2.8-4-5.8-5.8-8.9c-0.1-0.2-0.6-0.9-0.6-1.1c-0.1-0.3,0.3,0,0.7,0.2
	c0.1,0,0.2,0.1,0.3,0.1c2.9,0.5,5.6-0.3,8.3-1.4c3.4-1.5,6.6-3.4,9.5-5.8c0.9-0.7,1.7-1.4,2.6-2.1c0.3-0.3,0.5-0.4,0.9-0.6
	C222.2,286.9,221.9,286.8,221.6,286.5z"/>
<path class="st1" d="M191.4,342.2l-0.6-0.8c-0.3,0.4-0.7,0.9-0.9,1.5c-0.3,0.5-0.7,0.9-1.1,1.3c-0.5,0.4-0.8,0.3-0.9-0.3
	c-0.4-3.2-2.1-5.6-4.5-7.7c-0.6-0.5-1.3-1-1.9-1.5c-0.3-0.3-0.9-0.3-1.4,0c-0.7,0.5-1.3,0.9-1.9,1.5c-2.3,2.1-4,4.5-4.5,7.7
	c-0.1,0.6-0.4,0.7-0.9,0.3c-0.4-0.3-0.8-0.8-1.1-1.3c-0.3-0.5-0.6-1-0.9-1.5l-0.6,0.8c-1.1,1.5-2.1,3-3.3,4.4
	c-0.4,2.4-0.3,4.8,0.4,7.1c0.9,3,3.1,4.9,6.2,6.1l-1.1-4.5c0.3,0.1,0.7,0.3,0.9,0.5c2.2,1.7,4.5,3.4,6.7,5.2
	c0.5,0.3,0.6,0.5,0.9,0.3c0.3,0.2,0.3,0,0.9-0.3c2.2-1.7,4.5-3.4,6.7-5.2c0.3-0.3,0.5-0.4,0.9-0.5l-1.2,4.5c3.1-1.2,5.2-3.1,6.2-6.1
	c0.7-2.3,0.9-4.7,0.4-7.1C193.4,345.2,192.5,343.7,191.4,342.2z"/>
<path class="st2" d="M218.7,290.2c-2.9,2.4-6.1,4.3-9.5,5.8c-2.7,1-5.3,1.9-8.3,1.4c-0.1,0-0.2-0.1-0.3-0.1
	c-0.4-0.2-0.8-0.4-0.7-0.2c0.1,0.2,0.5,1,0.6,1.1c1.7,3,3.7,6,5.8,8.9c0.6,0.9,1.3,1.7,2.1,2.5c0-0.3,0-0.6,0-0.9
	c-0.2-2-0.3-4-0.6-5.9c-0.1-0.6,0.2-1.2,0.7-1.5c3.3-2.2,6.4-4.8,9.3-7.7c1.4-1.4,2.6-2.8,3.6-4.5c0.3-0.4,0.6-1,0.7-1.6
	c-0.3,0.2-0.6,0.3-0.9,0.6C220.4,288.8,219.6,289.5,218.7,290.2z"/>
<path class="st2" d="M197.1,292.3c0.5,0.1,1,0.2,1.5,0.3c2.8,0.4,5.6-0.3,7.8-2c1.4-1,2.5-2.4,3.2-4c1.4-2.8,2.1-5.8,2.2-8.9
	c-1.6,0.8-3.3,1.6-4.8,2.6c-0.3,0.2-0.4,0.5-0.3,0.8c-0.1,1.9-0.9,3.7-2.3,5.1c-1.8,2-4.2,2.8-6.8,2.7c-1.1,0-1.1,0-1.2,1.1
	c0,0.2-0.1,1.6-0.1,2.1l0,0C196.4,292.3,196.8,292.3,197.1,292.3z"/>
<path class="st2" d="M190.3,320.1c1.9-3.6,4.5-6.9,7.6-9.6l0.1-0.1c0.4-0.4,1.3-1.2,1.9-1.8c0,0-6.6,2.7-11,5.7
	c-0.2,0.2-2.2,2.1-2.5,2.3c-1.5,1.6-2.5,3.8-2.4,6.1c0,0.3-0.1,0.6,0.3,0.8c1.5,0.9,3,1.8,4.6,2.8
	C188.7,324.1,189.2,322,190.3,320.1z"/>
<path class="st1" d="M201.9,280.9c-1.7,0.2-3.2,1.5-3.5,3.1c-0.3,1.1-0.3,1.2,0.9,1.2c2.2,0,3.5-1.2,3.6-3.5
	C202.9,280.9,202.8,280.8,201.9,280.9z"/>
<path class="st2" d="M170.7,341.4c0.3,0.4,0.7,0.9,0.9,1.5c0.3,0.5,0.7,0.9,1.1,1.3c0.5,0.4,0.8,0.3,0.9-0.3
	c0.4-3.2,2.1-5.6,4.5-7.7c0.6-0.5,1.3-1,1.9-1.5c0.3-0.3,0.9-0.3,1.4,0c0.7,0.5,1.3,0.9,1.9,1.5c2.3,2.1,4,4.5,4.5,7.7
	c0.1,0.6,0.4,0.7,0.9,0.3c0.4-0.3,0.8-0.8,1.1-1.3c0.3-0.5,0.6-1,0.9-1.5l0.6,0.8c1.1,1.5,2.1,3,3.3,4.4c0-0.4-0.1-0.9-0.2-1.4
	c-0.6-2.2-1.6-4.4-3-6.3c-1.8-2.5-3.9-4.8-6.3-6.8c-1.3-1.1-2.8-2.2-4.1-3.2c-0.1-0.1-0.2-0.1-0.3-0.2c-0.1,0-0.2,0.1-0.3,0.2
	c-1.5,0.9-2.8,2.1-4.1,3.2c-2.4,2-4.5,4.3-6.3,6.8c-1.4,1.9-2.4,4-3,6.3c-0.1,0.4-0.2,0.9-0.2,1.4c1.2-1.4,2.1-2.9,3.3-4.4
	L170.7,341.4z"/>
<path class="st2" d="M155.2,307c2.1-2.8,4-5.8,5.8-8.9c0.1-0.2,0.6-0.9,0.6-1.1c0.1-0.3-0.3,0-0.7,0.2c-0.1,0-0.2,0.1-0.3,0.1
	c-2.9,0.5-5.6-0.3-8.3-1.4c-3.4-1.5-6.6-3.4-9.5-5.8c-0.9-0.7-1.7-1.4-2.6-2.1c-0.3-0.3-0.5-0.4-0.9-0.6c0.1,0.6,0.3,1.1,0.7,1.6
	c1,1.6,2.2,3.2,3.6,4.5c2.8,2.8,6,5.4,9.3,7.7c0.5,0.3,0.9,0.9,0.7,1.5c-0.3,2-0.4,4-0.6,5.9c0,0.3,0,0.6,0,0.9
	C153.9,308.9,154.7,308,155.2,307z"/>
<path class="st2" d="M155,290.5c2.2,1.6,5.1,2.4,7.8,2c0.5-0.1,1-0.2,1.5-0.3c0.3-0.1,0.8,0,0.8-0.3l0,0c0-0.4-0.1-1.9-0.1-2.1
	c-0.1-1.1-0.1-1.1-1.2-1.1c-2.7,0.1-5-0.7-6.8-2.7c-1.4-1.4-2.1-3.2-2.3-5.1c0-0.3-0.1-0.6-0.3-0.8c-1.5-0.9-3.2-1.8-4.8-2.6
	c0.1,3.1,0.9,6.1,2.2,8.9C152.5,288.1,153.6,289.5,155,290.5z"/>
<path class="st2" d="M163.8,310.5c3.1,2.8,5.7,6,7.6,9.6c1,1.8,1.5,4,1.5,6c1.5-0.9,3-1.8,4.6-2.8c0.3-0.2,0.3-0.3,0.3-0.8
	c0-2.2-0.9-4.5-2.4-6.1c-0.2-0.2-2.2-2.1-2.5-2.3c-4.4-3-11-5.7-11-5.7c0.6,0.6,1.5,1.3,1.9,1.8L163.8,310.5z"/>
<path class="st1" d="M162.2,285.2c1.2,0,1.2-0.1,0.9-1.2c-0.4-1.7-1.8-2.9-3.5-3.1c-0.9-0.1-0.9,0-0.9,0.8
	C158.7,284,160,285.2,162.2,285.2z"/>
</svg>
