<?xml version="1.0" encoding="utf-8"?>
<!-- Generator: Adobe Illustrator 25.2.3, SVG Export Plug-In . SVG Version: 6.00 Build 0)  -->
<svg version="1.1" id="Layer_1" xmlns="http://www.w3.org/2000/svg" xmlns:xlink="http://www.w3.org/1999/xlink" x="0px" y="0px"
	 viewBox="0 0 800 600" style="enable-background:new 0 0 800 600;" xml:space="preserve">
<style type="text/css">
	.st0{fill:#3D3D3D;}
	.st1{fill:#00A9C4;}
	.st2{fill:#8970B1;}
</style>
<path class="st0" d="M258.9,340.7c1.7-0.1,5.4-0.6,6.8-1.1c2.2-0.8,2.9-2.4,2.9-4.5v-50.3c0-2-0.6-3.6-2.9-4.6
	c-1.7-0.7-5-1.3-6.7-1.4v-0.6h29v0.6c-1.7,0.1-5.1,0.4-6.8,0.9c-2.3,0.7-2.9,2.6-2.9,4.6v47.6c0,7.6,1.7,8.4,11,8.4
	c6.5,0,12.2,0.2,14.5-2.1c2.8-2.9,7.5-12,8.4-14.7h0.8l-1.2,18h-53L258.9,340.7L258.9,340.7z"/>
<path class="st0" d="M317.1,340.7c1.7-0.1,2.8-0.3,4.1-0.6c1.8-0.6,2.5-2.1,2.5-4.2v-29.3c-0.2-1.9-1-3.9-2.5-4.9
	c-1.1-0.7-3.8-1.1-5.5-1.2v-0.6l16-1l0.4,0.4v36.2c0,2,0.8,3.7,2.5,4.4c1.4,0.6,2.8,0.7,4.4,0.8v0.6h-21.9V340.7L317.1,340.7z
	 M321.4,280.8c0-3.2,2.6-5.8,5.7-5.8c3.4,0,5.8,2.5,5.8,5.5c0,3.2-2.5,6-5.8,6C324,286.4,321.4,283.8,321.4,280.8z"/>
<path class="st0" d="M344.5,340.7c1.7-0.1,2.8-0.3,4.1-0.6c1.8-0.6,2.5-2.1,2.5-4.2V301h-9.5v-1.5h9.5v-2.7c0-7.7,1.8-14.2,6.3-19
	c3.8-4.1,8.9-5.7,13.6-5.7c7,0,9.8,4.2,9.8,8.2c0,2.1-1.9,4.8-5.2,4.8c-2.5,0-5.2-1.7-5.2-4.8c0-3.1,1-3.5,1-5.6
	c-0.4-1.1-1.7-1.5-2.7-1.5c-5.8,0-8.7,5.6-9.2,19.7c0,1.4-0.1,4.9-0.1,6.5h11.8v1.5h-11.7v34.5c0,1.9,0.8,3.5,2.5,4.2
	c1.4,0.6,4.4,1,6,1.1v0.6h-23.5L344.5,340.7L344.5,340.7z"/>
<path class="st0" d="M374.8,320.1c0-11.1,7.1-21.8,19.5-21.8c12.7,0,17.3,8.2,17.3,17.2v0.8H384v1.6c0,12,3.2,21.7,13.8,21.7
	c7.2,0,10.5-3.2,14-8.8l0.7,0.5c-3.2,6.6-9.5,11.2-17.2,11.2C381.3,342.5,374.8,332.3,374.8,320.1z M402.6,315.2
	c0-7.4-1.4-16-8.4-16c-5.8,0-9.9,6.6-10.2,16.2L402.6,315.2z"/>
<path class="st0" d="M446.7,337.5l-3.2,4.8h-0.8l-0.6-21.7h0.8c4.4,11.5,10.1,20.8,21.6,20.8c9.2,0,12.9-6.3,12.9-13.3
	c0-5.7-3.7-9.9-9.3-12.1c-5.3-2.1-8.1-3.2-13.3-5.5c-7.1-3.2-10.9-8.2-10.9-16.5c0-9.8,8-17.1,18.5-17.1c6.6,0,12.4,2.4,15.7,4.9
	l3.2-4.6h0.7l0.5,21h-0.8c-3.1-10.1-8.2-20.1-19.7-20.1c-5.1,0-10.8,3.8-10.8,11c0,5.7,3.2,8.9,8.3,11.7c4.5,2.5,8.4,3.4,12.6,5.4
	c8,3.7,13.1,7.3,13.1,17.1c0,11.3-9,19.3-20.9,19.3C456,342.6,449.4,339.7,446.7,337.5z"/>
<path class="st0" d="M494.2,320.6c0-13.2,8.6-22.3,21.6-22.3c13,0,21.1,9.4,21.1,21.7s-7.8,22.7-21.8,22.7
	C504,342.7,494.2,334.2,494.2,320.6z M527.6,320.1c0-10.7-2.9-20.9-11.9-20.9c-9.6,0-12.1,10.9-12.1,20.7c0,12,3.4,21.9,12.1,21.9
	C524,341.7,527.6,332.1,527.6,320.1z"/>
<path class="st0" d="M549.1,327.4v-20.7c-0.2-1.9-0.9-3.6-2.4-4.6c-1.1-0.7-3-1.4-4.6-1.5V300l14.9-1.1l0.6,0.6V330
	c0,6.4,3.3,9.5,7.3,9.5c6.8,0,10-4.4,11.2-6.3v-26.8c-0.2-1.9-0.9-3.6-2.4-4.6c-1.1-0.7-3.6-1.1-6-1.2V300l16.2-1.1l0.6,0.6v34.8
	c0.2,1.9,0.6,3.5,2.1,4.5c1.1,0.7,3.1,1,4.7,1.1v0.6l-14.6,1l-0.6-0.6v-5.7h-0.3c-3.5,3.5-6.9,7.2-14.8,7.2
	C552.5,342.5,549.1,336.1,549.1,327.4z"/>
<path class="st0" d="M597.2,340.7c1.7-0.1,2.8-0.3,4.1-0.6c1.8-0.6,2.5-2.1,2.5-4.2v-29.3c-0.2-1.9-1-3.9-2.5-4.9
	c-1.1-0.7-2.9-1.1-4.5-1.2v-0.6l15.1-1l0.4,0.4v6.6h0.2c4-5.1,8.6-7.4,12.5-7.4c3.4,0,5.8,2.6,5.8,5.7c0,3.4-1.8,5.8-4.9,5.8
	c-3,0-5-1.7-5-4.8c0-0.9,0.4-2.1,1-3.7c-4.4,0-8.5,4.3-9.6,6.3v28c0,2,0.8,3.5,2.5,4.2c1.6,0.6,4.3,0.7,6,0.8v0.6h-23.6V340.7
	L597.2,340.7z"/>
<path class="st0" d="M634.7,320.2c0-11.4,7.9-22,20.6-22c9.5,0,14.4,5.1,14.4,10.8c0,3.1-2.1,5.2-5.2,5.2c-1.9,0-4.8-1-4.8-4.6
	c0-3.9,2-5.3,2-7c-0.4-2-3.2-3.3-6.4-3.3c-6.1,0-11.2,6.2-11.2,20.2c0,11.8,4.8,19.9,13,19.9c6.6,0,11-3.1,14.1-8.4l0.8,0.6
	c-3.4,6.1-9.8,11-17.1,11C641.4,342.5,634.7,333,634.7,320.2z"/>
<path class="st0" d="M676,320.1c0-11.1,7.1-21.8,19.5-21.8c12.7,0,17.3,8.2,17.3,17.2v0.8h-27.6v1.6c0,12,3.2,21.7,13.8,21.7
	c7.2,0,10.5-3.2,14-8.8l0.7,0.5c-3.2,6.6-9.5,11.2-17.2,11.2C682.5,342.5,676,332.3,676,320.1z M703.8,315.2c0-7.4-1.4-16-8.4-16
	c-5.8,0-9.9,6.6-10.2,16.2L703.8,315.2z"/>
<path class="st1" d="M172.9,297.9c0,0,7.6-38.3,31.9-41.9s43.7,0.5,44.3,0s0.3-0.8,0-1c-2.2-1-9.6-3.5-30.7-4.1
	c-13.6-0.4-15.6,0-19.1-1.2c-5-1.6-4.8-2.7-11.8-5.4c-6.7-2.5-12.4-4.6-19.1-3.3c-4.9,0.9-8.2,3.2-10.1,4.5
	c-10.3,7.1-8.6,21.2-14.6,27.6C137.7,279.6,172.9,297.9,172.9,297.9z"/>
<path class="st1" d="M204.8,382.1l-1.5-10.8c0-0.1,0-0.1,0-0.2c-1.9-9-6.4-23.8-17.4-38.6c-17-23-39.4-32-48.6-35.2
	c-0.5,10.5,1,19,2.6,25.1c8.7,32.6,35.1,47.7,41.3,51.2c0.1,0.1,0.3,0.1,0.4,0.2C191.2,379,204.8,382.1,204.8,382.1z"/>
<path class="st2" d="M86.3,217.9c0,14.1,2.2,40.6,20.2,61.8c3.7,4.4,8.8,10.4,17.5,15.8c16.7,10.3,31,8.4,48.2,22.4
	c2.4,2,4.3,3.8,5.4,4.9c0.1-5.7-0.2-13.5-2.1-22.6c-5.9-28.3-22.3-46.3-27.3-51.5C124.3,224.1,95.4,219.1,86.3,217.9z"/>
</svg>
