<?xml version="1.0" encoding="utf-8"?>
<!-- Generator: Adobe Illustrator 25.2.1, SVG Export Plug-In . SVG Version: 6.00 Build 0)  -->
<svg version="1.1" id="Layer_1" xmlns="http://www.w3.org/2000/svg" xmlns:xlink="http://www.w3.org/1999/xlink" x="0px" y="0px"
	 viewBox="0 0 800 600" style="enable-background:new 0 0 800 600;" xml:space="preserve">
<style type="text/css">
	.st0{fill:#231F20;}
</style>
<path class="st0" d="M393.7,283.8v19.7l-0.6-0.7c-7.1-8.4-14.5-17.1-14.7-17.3l-0.2-0.2c-0.6-0.7-1.4-1.6-2.7-1.6h-4.7v32.4h7.2
	v-20.3c10.6,12.4,15.6,18.4,15.8,18.6c0.6,0.7,1.7,1.7,3.2,1.7h3.8v-32.3L393.7,283.8L393.7,283.8z"/>
<path class="st0" d="M642.8,283.9v19.7l-0.6-0.7c-7.2-8.4-14.5-17.1-14.7-17.3l-0.2-0.2c-0.6-0.7-1.4-1.5-2.7-1.5h-4.7v32.4h7.2V296
	c11.2,13.2,15.7,18.4,15.8,18.6c0.6,0.7,1.7,1.7,3.2,1.7h3.8V284L642.8,283.9L642.8,283.9z"/>
<rect x="328.3" y="283.8" class="st0" width="7.3" height="32.3"/>
<path class="st0" d="M530.1,299.6c-0.1-9.3-7.8-16.3-17.7-16.3c-10,0-17.8,7.4-17.8,16.7c0,9.4,7.6,16.6,17.7,16.6
	c9.8,0,17.7-7.2,17.8-16.3C530.1,300.1,530.1,299.8,530.1,299.6z M512.3,310.1c-5.9,0-10.3-4.4-10.3-10.2c0-5.7,4.4-10,10.3-10
	c5.9,0,10.3,4.4,10.3,10.2C522.6,305.8,518.2,310.1,512.3,310.1z"/>
<polygon class="st0" points="571.1,309.6 571.1,283.9 563.7,283.8 563.7,316.2 588.6,316.2 588.6,309.6 "/>
<path class="st0" d="M295.4,316.1h-24.8v-32.3h7.3v25.8h17.5V316.1z"/>
<path class="st0" d="M459,305.3l-1.3,1.2c-2.5,2.2-5,3.7-8.8,3.7c-5.7,0-10.2-4.5-10.2-10.3s4.4-10.1,10.2-10.1c3.2,0,5.8,1,8.6,3.5
	l1.4,1.2l5-5l-1.4-1.2c-3-2.6-6.8-5.1-13.5-5.1c-10,0-17.8,7.4-17.8,16.9s7.6,16.7,17.6,16.7c7,0,10.9-2.8,13.9-5.6l1.3-1.3
	L459,305.3z"/>
<path class="st0" d="M202.2,300c-0.1-3.6-0.1-3.4-0.1-4.8l0,0c-0.4-33.8-4.7-61.7-6.8-74.3c-0.9-5.2-1.2-5.7-6.7-6.5
	c-2.8-0.4-5.2-0.7-7.6-0.9l0,0l0,0c-2.1-0.1-4.9-0.2-4.9-0.2s-2.8,0-4.9,0.2l0,0l0,0c-2.4,0.2-4.8,0.5-7.6,0.9
	c-5.5,0.8-5.9,1.3-6.7,6.5c-2.1,12.6-6.4,40.5-6.8,74.3l0,0c0,1.3,0,1.2-0.1,4.8c0.1,3.6,0.1,3.5,0.1,4.8l0,0
	c0.4,33.8,4.7,61.7,6.8,74.3c0.9,5.2,1.2,5.7,6.7,6.5c2.5,0.4,4.7,0.6,6.9,0.8l0,0c2.1,0.2,5.6,0.2,5.6,0.2s3.5,0,5.6-0.2l0,0
	c2.1-0.2,4.4-0.4,6.9-0.8c5.5-0.8,5.9-1.3,6.7-6.5c2.1-12.6,6.4-40.5,6.8-74.3l0,0C202.2,303.4,202.2,303.6,202.2,300z M181,217.2
	c0.5,3.1,0.7,4,0.9,5.6c0.1,0.9,0.3,1,0.7,1l0,0c0.6,0.1,1.2,0.1,1.8,0.2c3.3,0.4,4.5,0.5,5.4,4.9c0.7,3.2,6.2,30.3,6.8,65l0,0
	c0,0.1,0,0.1,0,0.3c0,0.6,0.3,0.8,1,1c1.2,0.4,1.7,0.6,2.4,0.9c0.4,0.2,0.6,0.4,0.8,1.2c-2.9-0.2-8.4-0.7-12-0.9
	c-7.1-0.4-7.7-2.2-7.7-7.5c0-2.5-0.4-45.9-1.5-73.3C180.9,216,181,217.2,181,217.2z M162.5,229c0.9-4.3,2-4.5,5.4-4.9
	c0.6-0.1,1.2-0.1,1.8-0.2l0,0c0.4-0.1,0.6-0.2,0.7-1c0.3-1.7,0.4-2.5,0.9-5.6c0,0,0.1-1.2,1.4-1.5c-1,27.4-1.5,71-1.5,73.3
	c0,5.3-0.6,7.1-7.7,7.5c-3.6,0.2-8.8,0.6-12,0.8c0.2-0.8,0.4-1,0.8-1.2c0.7-0.3,1.3-0.5,2.4-0.9c0.6-0.2,1-0.4,1-1
	c0-0.1,0-0.2,0-0.3l0,0C156.3,259.3,161.8,232.2,162.5,229z M171.2,382.8c-0.5-3.1-0.7-4-0.9-5.6c-0.1-0.9-0.3-1-0.7-1l0,0
	c-0.6-0.1-1.2-0.1-1.8-0.2c-3.3-0.4-4.5-0.5-5.4-4.9c-0.7-3.2-6.2-30.3-6.8-65l0,0c0-0.1,0-0.1,0-0.3c0-0.6-0.3-0.8-1-1
	c-1.2-0.4-1.7-0.6-2.4-0.9c-0.4-0.2-0.6-0.4-0.8-1.2c3.6,0.3,8.6,0.6,12,0.8c7.1,0.4,7.7,2.2,7.7,7.5c0,2.5,0.4,46.2,1.5,73.3
	C171.3,384,171.2,382.8,171.2,382.8z M189.8,371c-0.9,4.3-2,4.5-5.4,4.9c-0.6,0.1-1.2,0.1-1.8,0.2l0,0c-0.4,0.1-0.5,0.2-0.7,1
	c-0.3,1.7-0.4,2.5-0.9,5.6c0,0-0.1,1.2-1.4,1.5c1-27.1,1.5-70.8,1.5-73.3c0-5.3,0.6-7.1,7.7-7.5c3.4-0.2,8.4-0.6,12-0.8
	c-0.2,0.8-0.5,1-0.8,1.2c-0.7,0.3-1.3,0.5-2.4,0.9c-0.6,0.2-1,0.4-1,1c0,0.1,0,0.2,0,0.3l0,0C196,340.7,190.4,367.8,189.8,371z"/>
</svg>
