<?xml version="1.0" encoding="utf-8"?>
<!-- Generator: Adobe Illustrator 25.2.3, SVG Export Plug-In . SVG Version: 6.00 Build 0)  -->
<svg version="1.1" id="Layer_1" xmlns="http://www.w3.org/2000/svg" xmlns:xlink="http://www.w3.org/1999/xlink" x="0px" y="0px"
	 viewBox="0 0 800 600" style="enable-background:new 0 0 800 600;" xml:space="preserve">
<style type="text/css">
	.st0{fill:#E34497;}
	.st1{opacity:0.9;fill:url(#SVGID_1_);enable-background:new    ;}
	.st2{opacity:0.9;fill:url(#SVGID_2_);enable-background:new    ;}
	.st3{opacity:0.8;fill:url(#SVGID_3_);enable-background:new    ;}
	.st4{opacity:0.9;fill:url(#SVGID_4_);enable-background:new    ;}
	.st5{opacity:0.9;fill:url(#SVGID_5_);enable-background:new    ;}
	.st6{opacity:0.8;fill:url(#SVGID_6_);enable-background:new    ;}
	.st7{fill:#92B249;}
</style>
<path class="st0" d="M694.2,405c1.5,0,2.6,1.1,2.6,2.6s-1.1,2.6-2.6,2.6s-2.6-1.1-2.6-2.6C691.6,406.1,692.7,405,694.2,405z
	 M694.2,409.7c1.2,0,2.2-1,2.2-2.2s-1-2.2-2.2-2.2s-2.2,1-2.2,2.2S693,409.7,694.2,409.7z M693.3,406.1h1c0.6,0,1.1,0.3,1.1,0.8
	c0,0.4-0.3,0.7-0.7,0.7l0.7,1.2h-0.7l-0.7-1.2h-0.4v1.2H693V406L693.3,406.1L693.3,406.1z M694.1,407.4c0.3,0,0.7-0.1,0.7-0.6
	c0-0.4-0.3-0.4-0.7-0.4h-0.6v0.8h0.6V407.4z"/>
<path class="st0" d="M100.1,359.4h8.9v42.8h21.6v8H100L100.1,359.4L100.1,359.4L100.1,359.4z"/>
<path class="st0" d="M140.4,359.4h8.9v50.8h-8.9V359.4z"/>
<path class="st0" d="M157.9,359.4h10l14,39.1h0.3l14-39.1h9.8l-20.4,50.8h-7.8L157.9,359.4z"/>
<path class="st0" d="M212.1,359.4h33.7v7.8h-24.6v12.9h23.4v7.6h-23.4V402h26v8h-34.9L212.1,359.4L212.1,359.4z"/>
<path class="st0" d="M280.9,359.4h8.9v42.8h21.6v8h-30.7L280.9,359.4L280.9,359.4L280.9,359.4z"/>
<path class="st0" d="M343.7,358.1c15.8,0,27.4,10.2,27.4,26.6c0,15.8-11.6,26.8-27.4,26.8c-15.5,0-27.2-11-27.2-26.8
	C316.6,368.3,328.1,358.1,343.7,358.1z M343.8,403.4c10.3,0,17.5-7.8,17.5-18.7c0-10.5-7-18.6-17.5-18.6s-17.5,8.1-17.5,18.6
	C326.3,395.6,333.5,403.4,343.8,403.4z"/>
<path class="st0" d="M373.7,359.4h10l14,39.1h0.3l14-39.1h9.8l-20.4,50.8h-7.8L373.7,359.4z"/>
<path class="st0" d="M426.8,359.4h33.7v7.8h-24.6v12.9h23.4v7.6h-23.4V402h26v8H427L426.8,359.4L426.8,359.4z"/>
<path class="st0" d="M495.6,359.4h8.9v42.8h21.6v8h-30.7L495.6,359.4L495.6,359.4z"/>
<path class="st0" d="M535.7,359.4h8.9v50.8h-8.9V359.4z"/>
<path class="st0" d="M600.5,407.5c-5.1,2.5-11.3,4-19.3,4c-16.4,0-27.8-11-27.8-26.8c0-16.4,11.8-26.6,27.5-26.6
	c8,0,15.3,2.6,19.3,6.3l-6.2,6.7c-2.6-2.9-7.4-5.1-12.9-5.1c-10.7,0-17.6,8.1-17.6,18.6c0,10.9,6.9,18.7,18,18.7
	c3.7,0,7.3-0.7,10-1.8v-12.9h-10.7v-7.4h19.4L600.5,407.5L600.5,407.5z"/>
<path class="st0" d="M610,359.4h8.9v20.5h23.7v-20.5h8.9v50.8h-8.9v-22.6H619v22.6h-9V359.4z"/>
<path class="st0" d="M675.4,367.3h-15.5v-7.8H700v7.8h-15.5v42.9h-8.9v-42.9H675.4z"/>
<linearGradient id="SVGID_1_" gradientUnits="userSpaceOnUse" x1="323.293" y1="318.0282" x2="388.4006" y2="404.5954" gradientTransform="matrix(0.9901 0.1401 0.1401 -0.9901 -38.9085 534.4095)">
	<stop  offset="0" style="stop-color:#E34196"/>
	<stop  offset="0.1736" style="stop-color:#DE4397"/>
	<stop  offset="0.3929" style="stop-color:#CE489A"/>
	<stop  offset="0.6367" style="stop-color:#B452A0"/>
	<stop  offset="0.8965" style="stop-color:#905EA8"/>
	<stop  offset="1" style="stop-color:#8064AB"/>
</linearGradient>
<path class="st1" d="M354.3,146.3c-57.3,104.6,16.7,163.4,16.7,163.4C447.2,187.3,354.3,146.3,354.3,146.3z"/>
<linearGradient id="SVGID_2_" gradientUnits="userSpaceOnUse" x1="329.401" y1="417.4484" x2="413.1577" y2="310.4493" gradientTransform="matrix(0.9901 0.1401 0.1401 -0.9901 -38.9085 534.4095)">
	<stop  offset="9.941716e-02" style="stop-color:#8064AB"/>
	<stop  offset="0.1866" style="stop-color:#6D75B5"/>
	<stop  offset="0.3212" style="stop-color:#5789C1"/>
	<stop  offset="0.4674" style="stop-color:#4697C9"/>
	<stop  offset="0.632" style="stop-color:#3D9FCE"/>
	<stop  offset="0.8538" style="stop-color:#3AA2D0"/>
	<stop  offset="0.8695" style="stop-color:#429ECD"/>
	<stop  offset="0.8937" style="stop-color:#5792C6"/>
	<stop  offset="0.9233" style="stop-color:#7A7EBA"/>
	<stop  offset="0.9571" style="stop-color:#AB62AA"/>
	<stop  offset="0.9908" style="stop-color:#E34397"/>
</linearGradient>
<path class="st2" d="M383.9,145.2c-74.8,91.4-13.1,164.4-13.1,164.4C467.3,204.7,383.9,145.2,383.9,145.2z"/>
<linearGradient id="SVGID_3_" gradientUnits="userSpaceOnUse" x1="363.4722" y1="280.3577" x2="368.5123" y2="428.6275" gradientTransform="matrix(0.9901 0.1401 0.1401 -0.9901 -38.9085 534.4095)">
	<stop  offset="0" style="stop-color:#E34196"/>
	<stop  offset="3.274537e-02" style="stop-color:#D34799;stop-opacity:0.9792"/>
	<stop  offset="0.1147" style="stop-color:#AF53A1;stop-opacity:0.9273"/>
	<stop  offset="0.1916" style="stop-color:#955DA7;stop-opacity:0.8786"/>
	<stop  offset="0.2607" style="stop-color:#8562AA;stop-opacity:0.8347"/>
	<stop  offset="0.3155" style="stop-color:#8064AB;stop-opacity:0.8"/>
</linearGradient>
<path class="st3" d="M370.9,309.6c52.7-84.3,24.8-130,2.4-150.2C315.6,243.9,370.8,309.5,370.9,309.6L370.9,309.6L370.9,309.6z"/>
<linearGradient id="SVGID_4_" gradientUnits="userSpaceOnUse" x1="383.7974" y1="270.6842" x2="456.171" y2="327.3366" gradientTransform="matrix(0.9901 0.1401 0.1401 -0.9901 -38.9085 534.4095)">
	<stop  offset="0.3405" style="stop-color:#E34196"/>
	<stop  offset="0.4234" style="stop-color:#DC4397"/>
	<stop  offset="0.5397" style="stop-color:#CA4A9B"/>
	<stop  offset="0.6758" style="stop-color:#AC54A2"/>
	<stop  offset="0.8259" style="stop-color:#8363AA"/>
	<stop  offset="0.8349" style="stop-color:#8064AB"/>
</linearGradient>
<path class="st4" d="M461,278.4c-68.9-14.6-87.2,32.8-87.2,32.8C456.1,333.1,461,278.4,461,278.4z"/>
<linearGradient id="SVGID_5_" gradientUnits="userSpaceOnUse" x1="400.1854" y1="261.5692" x2="447.4674" y2="324.4357" gradientTransform="matrix(0.9901 0.1401 0.1401 -0.9901 -38.9085 534.4095)">
	<stop  offset="0" style="stop-color:#E34196"/>
	<stop  offset="1.770922e-03" style="stop-color:#E14297"/>
	<stop  offset="5.500275e-02" style="stop-color:#A664AB"/>
	<stop  offset="0.104" style="stop-color:#777FBB"/>
	<stop  offset="0.1471" style="stop-color:#5692C6"/>
	<stop  offset="0.1828" style="stop-color:#419ECD"/>
	<stop  offset="0.2066" style="stop-color:#3AA2D0"/>
	<stop  offset="0.4653" style="stop-color:#3DA0CF"/>
	<stop  offset="0.6322" style="stop-color:#4598CA"/>
	<stop  offset="0.773" style="stop-color:#548BC2"/>
	<stop  offset="0.8987" style="stop-color:#6978B7"/>
	<stop  offset="1" style="stop-color:#8064AB"/>
</linearGradient>
<path class="st5" d="M373.8,311.3c76.6,34.9,93.7-17.6,93.7-17.6C402.4,268.1,373.8,311.3,373.8,311.3z"/>
<linearGradient id="SVGID_6_" gradientUnits="userSpaceOnUse" x1="375.8757" y1="288.8942" x2="458.7532" y2="300.6201" gradientTransform="matrix(0.9901 0.1401 0.1401 -0.9901 -38.9085 534.4095)">
	<stop  offset="0" style="stop-color:#E34196"/>
	<stop  offset="0.1312" style="stop-color:#AE54A1;stop-opacity:0.8964"/>
	<stop  offset="0.2533" style="stop-color:#8064AB;stop-opacity:0.8"/>
</linearGradient>
<path class="st6" d="M457.4,290.3c-58-17.7-83.6,21-83.7,21l0,0l0,0C430.5,326.4,450.5,305,457.4,290.3z"/>
<path class="st7" d="M370.9,317.3c8.6,2.1,24.9,4.1,24.9,4.1c-9.3-2.9-12.1-3.4-20.6-7.5c-12.7-6.2-17.7-15.4-17.7-15.4
	C352.4,305.9,360.3,314.8,370.9,317.3z"/>
</svg>
