<?xml version="1.0" encoding="utf-8"?>
<!-- Generator: Adobe Illustrator 25.2.1, SVG Export Plug-In . SVG Version: 6.00 Build 0)  -->
<svg version="1.1" id="Layer_1" xmlns="http://www.w3.org/2000/svg" xmlns:xlink="http://www.w3.org/1999/xlink" x="0px" y="0px"
	 viewBox="0 0 800 600" style="enable-background:new 0 0 800 600;" xml:space="preserve">
<style type="text/css">
	.st0{fill:#1B1C20;}
</style>
<rect x="390" y="278.2" class="st0" width="20" height="4.9"/>
<rect x="392.4" y="285" class="st0" width="15.2" height="10.2"/>
<rect x="370.2" y="255.1" class="st0" width="59.7" height="2.5"/>
<rect x="366.9" y="259.8" class="st0" width="66" height="2.5"/>
<rect x="366.8" y="250.5" class="st0" width="66" height="2.5"/>
<path class="st0" d="M410.5,267.6c-3.3,3-3.3,8.4-3.3,8.4H400h-7.2c0,0,0-5.4-3.3-8.4c-2.4-2.1-5.2-2.6-5.2-2.6
	c-1.8-0.3-1.9-0.6-1.9-0.7h16.1h4.4h14.3c0,0,0,0.3-1.8,0.7C415.5,265.1,412.7,265.6,410.5,267.6"/>
<path class="st0" d="M370.4,264.4h7.2c0,4.3-2.7,6.2-7.2,5.2V264.4z"/>
<path class="st0" d="M395.8,196c2.8-5.6,3.4-14.2,4.2-14.3c0.7,0.1,1.2,8.7,4,14.3c2.7,5.3,8.4,9.8,8.1,10.3c-0.4,0.7-3.6-1-5.2-1.7
	c-2.6-1.2-4.7-2.1-4.7-2.1s-1,13.5,2.2,26c2.7,10.2,9.1,19.5,9.8,20.4H406c-0.2-0.4-0.6-0.9-0.8-1.2c-2.2-3.9-3.8-7.3-5.4-13.3
	c-1.6,5.8-3.1,9.3-5.4,13.3c-0.2,0.4-0.4,0.9-0.8,1.2h-8.2c0.6-0.8,7.1-10.1,9.8-20.4c3.3-12.5,2.2-26,2.2-26s-2.1,0.9-4.7,2.1
	c-1.6,0.8-4.8,2.4-5.3,1.8C387.3,205.7,393.1,201.2,395.8,196"/>
<path class="st0" d="M370.1,248.7c0-1-0.6-14.6-3.7-25.3c-3.5-11.7-10.6-18.7-10.1-19.5c0.4-0.7,6.3,0.6,10.7,3.5
	c4.7,3.3,9.3,8.5,8.9,8.9c-0.2,0.2-1.8-1.1-4.6-2.1c-3-1.1-4.4-0.9-4.4-0.9s5.1,8.3,7.5,17.2c2,7.5,3.1,17.2,3.3,18.1h-7.5
	L370.1,248.7L370.1,248.7z"/>
<path class="st0" d="M429.9,248.7c0-1,0.6-14.6,3.7-25.3c3.5-11.7,10.6-18.7,10.1-19.5c-0.4-0.7-6.3,0.6-10.7,3.5
	c-4.7,3.3-9.2,8.5-8.9,8.9c0.2,0.2,1.8-1.1,4.6-2.1c3-1.1,4.4-0.9,4.4-0.9s-5.1,8.3-7.5,17.2c-2.1,7.5-3.1,17.2-3.3,18.1h7.5
	L429.9,248.7L429.9,248.7z"/>
<path class="st0" d="M429.6,264.4h-7.2c0,4.3,2.7,6.2,7.2,5.2V264.4z"/>
<path class="st0" d="M279.2,338l5.8,16.2h-12.1L279.2,338z M447.6,333.4c4.6,0,10.8,2.4,10.8,10.8c0,5.3-2,8-4.4,9.2
	c-2,1.1-4.2,1.2-6.4,1.2h-4.4v-21.1C444.2,333.6,445.9,333.4,447.6,333.4 M505.8,338l5.8,16.2h-12.1L505.8,338z M189.3,338.1
	l16.4,38.6h2.2l17-38.6l1.7,29.2c0.1,0.7,0.3,2.7,0.3,3.4c0,1.7-0.8,2.5-2,2.9c-1.5,0.6-3.8,0.7-5.4,0.8v2.4h22.2v-2.4
	c-6.9,0.2-7-1.7-7.3-7.5l-1.8-26.5c-0.2-3.5-0.1-5.1,0.7-5.8c0.4-0.3,1-0.6,1.8-0.8c1-0.1,2.1-0.1,3.9-0.1v-2.4h-15l-14.8,33.9
	l-14.6-33.9h-15.3v2.4c5.8,0.3,6.6,0.3,6.4,4.7l-2.2,27.3c-0.6,7.9-0.7,8.2-8.4,8.7v2.4h18v-2.2c-2.4,0-6.4-0.1-6.4-2.9
	c0-1.1,0.1-2.6,0.2-3L189.3,338.1z M283.9,376.8h22.3v-2.4c-3-0.1-4.3-0.3-5.3-1.2c-1-1-1.8-3.4-2.4-4.6L284.3,330h-8l1.2,3.1
	l-13,32.8c-0.6,1.5-1.1,2.7-1.5,3.7c-1.6,3.3-3,4.2-6.7,4.9v2.2h18.4v-2.5c-1.1-0.1-2.1-0.2-2.9-0.3c-2-0.3-4.3-0.9-4.3-3.4
	s1.1-5.6,1.8-7.4l2.4-6h14.8l3.1,8.7c0.7,1.9,1.5,4.2,1.5,5.6c0,2.5-3.1,2.7-7,2.8v2.4h-0.2L283.9,376.8L283.9,376.8z M337,378.3
	c8.8,0,14.3-6.1,14.3-13c0-3.8-1.6-6.7-3.6-9.1c-1.7-1.8-3.6-3.1-5.7-4.6c-2.6-1.7-4.8-3.1-6.5-4.4c-1.7-1.1-3.1-2.2-4-3.1
	c-1.9-1.7-2.5-3-2.5-5.2c0-3.3,2.9-6.3,6.9-6.3c5.2,0,8.7,3.6,10.9,9.4h2.4l-1.1-10.8h-2.2c-0.6,0.8-1,1-1.2,1c-0.4,0-2.5-1-3.1-1.1
	c-1.9-0.7-4.3-1-6.6-1c-6.3,0-12.5,4.9-12.5,11.7c0,4,1.7,8.2,11,13.9c7.4,4.5,11.5,7.1,11.5,12.4c0,5.8-5.6,7.8-8.5,7.8
	c-2.1,0-8.5-1.1-11.6-10h-2.5l1.3,11.7h2.1c0.1-0.7,0.2-1,1.1-1c0.3,0,0.8,0,1.2,0.2c2.7,0.8,4.3,1.1,5.5,1.5
	C334.9,378.3,335.8,378.3,337,378.3 M408.6,376.8l1.1-11.5h-2.4c-2,7.9-4.4,8.7-8.9,8.7h-7.9c-4.3,0-4.5,0-4.5-4.3v-14.6h10.2
	c5.2,0,5.8,0.3,6.1,6h2.5v-14.4h-2.5c-0.6,5.6-1.7,5.6-5.3,5.6h-11v-18h11.1c4.9,0,6.5,0.4,7.8,7.4h2.4l-0.4-10.3h-36.1v2.4
	c6-0.1,7.3,0.7,7.3,5.8v29.2c0,4.2-0.4,6-7.3,5.7v2.4h37.8L408.6,376.8L408.6,376.8z M455.9,368.6c4.4,6.6,9.7,9.2,16.3,8.9v-2.4
	c-3.8-0.8-5.7-2.1-9.2-9.2c-1.8-3.9-3-6.1-3.8-7.4c-0.7-1-1.5-1.7-2.4-2.6c0.8-0.2,1.7-0.6,2.7-1.1c4.6-2.1,7.1-5.5,7.1-10.8
	c0-13.3-16.9-13.3-20.4-13.3c-8,0-14.1,0.7-18.6,1.1v2.4c6.7,0.3,7.4,0.4,7.4,5.1v29.5c0,4.2-0.6,6-7.4,5.7v2.4h23.6v-2.4H448
	c-4.3,0-4.8-1.1-4.8-7.1v-10h6.3C450.6,359.1,454.8,366.9,455.9,368.6 M510.6,376.8h22.3v-2.4c-2.9-0.1-4.3-0.3-5.2-1.2
	c-1.1-1-1.8-3.4-2.4-4.6L510.9,330h-8l1.1,3.1l-12.9,32.7c-0.6,1.5-1,2.7-1.6,3.7c-1.6,3.3-3,4.2-6.7,4.9v2.2h18.4v-2.4
	c-1.1-0.1-2.1-0.2-3-0.3c-1.9-0.3-4.3-0.9-4.3-3.4s1.1-5.6,1.9-7.4l2.4-6H513l3,8.7c0.8,1.9,1.5,4.2,1.5,5.6c0,2.5-3,2.7-7,2.8
	L510.6,376.8L510.6,376.8z M581.6,341.9h2.5l-1.1-12h-1.9c-0.4,1.1-0.8,1.5-4.2,1.5H548h-1.9c-1.2-0.1-1.9-0.2-2.6-1.5h-1.8l-1,12
	h2.2c0.9-2.6,1.2-4,1.7-5.1c0.3-1,0.8-1.5,1.3-1.8c0.8-0.6,2-0.8,4.9-0.8h7.5v34.4c0,2.8-0.3,4-1.2,4.7c-0.6,0.3-1.3,0.6-2.5,0.8
	c-1.1,0.1-2.6,0.2-4.8,0.3v2.4H575v-2.5c-2-0.1-3.5-0.2-4.6-0.3c-1.1-0.2-1.9-0.3-2.5-0.8c-1-0.8-1.3-2.1-1.3-5.2v-33.9h8.4
	C578.6,334.3,580.1,334.4,581.6,341.9 M601.6,376.8H625v-2.4c-6.5-0.3-8-1.1-8-6.7v-25.1c0-7.5,0.1-8.7,7.8-8.9v-2.4h-23.4v2.4
	c6.6,0.4,7.8,1.2,7.8,6.7v22.8c0,2.2-0.1,7.9-1.1,9.6c-0.6,1.1-0.8,1.1-6.3,1.6v2.4H601.6z"/>
</svg>
