<?xml version="1.0" encoding="utf-8"?>
<!-- Generator: Adobe Illustrator 25.2.3, SVG Export Plug-In . SVG Version: 6.00 Build 0)  -->
<svg version="1.1" id="Layer_1" xmlns="http://www.w3.org/2000/svg" xmlns:xlink="http://www.w3.org/1999/xlink" x="0px" y="0px"
	 viewBox="0 0 800 600" style="enable-background:new 0 0 800 600;" xml:space="preserve">
<style type="text/css">
	.st0{fill:#FFC300;}
</style>
<path class="st0" d="M439.3,214.3c19.7,0,35.7,83.1,35.7,185.7h28.6c0-110.5-28.8-200-64.3-200c-20.2,0-38.2,26.9-50,69
	c-11.8-42.1-29.8-69-50-69c-35.5,0-64.3,89.5-64.3,200h28.6c0-102.6,16-185.7,35.7-185.7c19.7,0,35.7,76.7,35.7,171.4h28.6
	C403.6,291,419.6,214.3,439.3,214.3 M517.9,385.7c3.9,0,7.1,3.1,7.1,7.1c0,4.1-3.2,7.2-7.1,7.2c-3.9,0-7.2-3.1-7.2-7.2
	C510.7,388.8,514,385.7,517.9,385.7 M517.9,399c3.3,0,5.8-2.6,5.8-6.1c0-3.4-2.6-6.1-5.8-6.1c-3.3,0-5.9,2.6-5.9,6.1
	C512,396.3,514.6,399,517.9,399z M515.1,388.7h3.2c2,0,2.9,0.8,2.9,2.4c0,1.5-0.9,2.1-2.2,2.3l2.4,3.7H520l-2.3-3.6h-1.4v3.6h-1.3
	L515.1,388.7L515.1,388.7z M516.4,392.4h1.3c1.1,0,2.2-0.1,2.2-1.4c0-1.1-0.9-1.3-1.8-1.3h-1.7L516.4,392.4L516.4,392.4z"/>
</svg>
