<?xml version="1.0" encoding="utf-8"?>
<!-- Generator: Adobe Illustrator 25.2.3, SVG Export Plug-In . SVG Version: 6.00 Build 0)  -->
<svg version="1.1" id="Layer_1" xmlns="http://www.w3.org/2000/svg" xmlns:xlink="http://www.w3.org/1999/xlink" x="0px" y="0px"
	 viewBox="0 0 800 600" style="enable-background:new 0 0 800 600;" xml:space="preserve">
<style type="text/css">
	.st0{fill:#F5B335;}
	.st1{fill:#F18A00;}
	.st2{fill:#58595B;}
</style>
<path class="st0" d="M170.2,320c-0.3,0-0.7,0-1.2,0c-26.9-0.5-40.5-8.7-40.5-8.7c7.8,7.5,15.3,16.2,48.1,18.8
	c1.7,0.2,3.5,0.3,5.2,0.3c28.6,1.6,44,10.8,49.5,15.2c0.3-0.2,4.2-2.6,4.7-3l0,0C219.5,327.4,195.5,320.7,170.2,320z"/>
<path class="st0" d="M204.9,312.2c-10.3-3.7-27.7-6.8-39.2-7.8c-24.8-2.3-50.1-5.4-66.6-36.6c0,0,7.7,45.2,68.5,46.6
	c0.5,0,1,0,1.6,0c41.5,0.3,64.4,18.7,71.2,25.5c1-0.9,1.9-1.6,2.8-2.4C237,330.3,223.5,318.7,204.9,312.2z"/>
<path class="st0" d="M182.2,335.9L182.2,335.9c-2.3-0.2-4.5-0.2-6.8-0.3c-16-0.7-23.5-5.2-23.5-5.2c10.6,13.3,26.2,14.3,41.9,14.5
	l0,0c1.2,0.7,2.4,1.4,3.8,2.3c0,0,0.2,0,0.2,0.2c1.2,0.7,2.6,1.4,4,1.9c0.2,0,0.2,0.2,0.3,0.2c0.5,0.3,1.2,0.5,1.9,0.9
	c0.2,0,0.2,0.2,0.3,0.2c0.7,0.3,1.4,0.5,2.1,0.9c0.2,0,0.2,0.2,0.3,0.2c0.5,0.2,1.2,0.5,1.9,0.7c0.2,0,0.3,0.2,0.5,0.2
	c0.7,0.2,1.6,0.5,2.3,0.7l1.7,0.5l1.7-0.5c0.7-0.2,1.4-0.5,2.1-0.7c0.2,0,0.3-0.2,0.5-0.2c0.5-0.2,1-0.3,1.4-0.5
	c0.2,0,0.3-0.2,0.7-0.2c0.5-0.2,1-0.3,1.6-0.5c0.2,0,0.3-0.2,0.5-0.2c0.7-0.3,1.2-0.5,1.9-0.9c0.2,0,1.7-0.7,2.3-1
	c0,0,0.2,0,0.2-0.2C211.3,339.1,196.3,336.6,182.2,335.9z"/>
<path class="st1" d="M455.7,320.4v-43.1c0-2.3,1.2-3.5,3.5-3.5h4.4c2.3,0,3.5,1.2,3.5,3.5v36.8h19.2c2.3,0,3.5,1.2,3.5,3.5v2.8
	c0,2.3-1.2,3.5-3.5,3.5h-27C456.9,323.7,455.7,322.5,455.7,320.4z"/>
<path class="st1" d="M491.8,277c0-3.3,2.3-5.8,6.6-5.8c4.2,0,6.6,2.4,6.6,5.8c0,3.1-2.6,5.8-6.6,5.8S491.8,280.3,491.8,277z
	 M492.8,320.4v-29.8c0-2.3,1.2-3.5,3.5-3.5h4.2c2.3,0,3.5,1.2,3.5,3.5v29.8c0,2.3-1.2,3.5-3.5,3.5h-4.2
	C494.1,323.7,492.8,322.5,492.8,320.4z"/>
<path class="st1" d="M519.7,318.7v1.7c0,2.3-1.2,3.5-3.5,3.5H512c-2.3,0-3.5-1.2-3.5-3.5v-44.8c0-2.3,1.2-3.5,3.5-3.5h4.2
	c2.3,0,3.5,1.2,3.5,3.5v16.7c2.6-4.2,7-5.9,11.7-5.9c10.3,0,17.6,8.4,17.6,19.2c0,10.8-7.3,19.2-17.6,19.2
	C526.7,324.6,522.3,322.7,519.7,318.7z M538,305.4c0-5.6-3.5-10.3-9.1-10.3c-5.8,0-9.4,4.4-9.4,10.3c0,5.9,3.7,10.3,9.4,10.3
	S538,311.2,538,305.4z"/>
<path class="st1" d="M551.1,305.6c0-10.3,7.8-19.2,20.1-19.2c10.5,0,19,6.3,19.5,18c0,2.1-1.4,3-3.5,3h-25.6
	c-0.2,4.4,4.2,8.5,11.3,8.5c2.6,0,5.4-0.7,8.2-2.3c1.9-1,3.5-0.9,4.9,0.7l0.9,1c1.4,1.7,1.2,3.7-0.7,5.1c-4.2,3.1-9.1,4.2-13.8,4.2
	C558.9,324.6,551.1,316,551.1,305.6z M580.2,301c-1-4.9-5.2-6.5-9.1-6.5s-8.2,1.7-9.4,6.5H580.2z"/>
<path class="st1" d="M592.8,320.4v-29.8c0-2.3,1.2-3.5,3.5-3.5h3.8c2.3,0,3.5,1.2,3.5,3.5v4.5c1.2-6.6,6.3-8.7,9.4-8.7h1.2
	c1.7,0.2,2.1,1.6,2.1,3v5.1c0,1.9-1,2.8-2.4,2.6c-0.7,0-1.2-0.2-1.7-0.2c-4.4,0-8.2,2.8-8.2,12v11.5c0,2.3-1.2,3.5-3.5,3.5h-4.2
	C594,323.7,592.8,322.5,592.8,320.4z"/>
<path class="st1" d="M624.9,311.5v-16.2h-3.7c-1.2,0-1.9-0.7-1.9-1.7v-4.7c0-1.2,0.7-1.7,1.9-1.7h4.5l1.2-7.5
	c0.3-1.6,1.2-2.3,2.8-2.3h3.5c1.6,0,2.4,0.9,2.4,2.4v7.2h8.2c1.2,0,1.7,0.7,1.7,1.7v4.7c0,1.2-0.7,1.7-1.7,1.7h-8.2v16.6
	c0,2.8,1.4,3.8,3,3.8c1.9,0,3.1-1.4,3.1-3.3c0-0.3,0-0.9,0-1.2c-0.2-1.2,0.3-1.9,1.6-1.9h4.4c0.9,0,1.7,0.3,1.9,1.4
	c0.3,1,0.3,2.3,0.3,2.8c0,7.8-5.6,11.2-12.2,11.2C631.5,324.6,624.9,321.6,624.9,311.5z"/>
<path class="st1" d="M656.6,335.7l5.9-14.5l-13.6-30.2c-1-2.3,0-4,2.6-4h4.9c1.9,0,3.3,0.9,4,2.8l7.5,19.9l7.5-19.9
	c0.7-1.9,2.1-2.8,4-2.8h4.7c2.6,0,3.7,1.6,2.6,4L666.7,337c-0.9,1.9-2.1,2.6-4,2.6h-3.5C656.8,339.8,655.7,338,656.6,335.7z"/>
<path class="st1" d="M257.9,256.2c-14-7.2-29-10.8-44.5-10.6c-15.7-0.2-30.5,3.5-44.5,10.6l-3.1,1.6v35.4c7.8,0.5,12.6,2.3,13.3,2.4
	c5.4-0.9,6.6-3.5,6.6-3.5c2.3-5.9,4.9-10.8,7.7-14.8c0.7,1.2,2.4,1.6,2.4,1.6c-0.7-1.2-1-2.4-1-3.5c4.7-6.3,9.6-10.5,14.3-13.3
	c-0.3,1.6,1.2,3,1.2,3c0-1.7,0.5-3.1,1.2-4.4c8.2-4.2,14.7-4.2,14.7-4.2c-1.4,1.4-0.2,3.7-0.2,3.7c3-7.3,10.1-4.7,8-3.7
	c-2.1,1-1.6,6.8,2.1,9.9c3.7,3.1,0.5,3.3,1.7,7.2c1.2,3.8,2.6,11.5,2.6,12.9c0,1.4-1.6,1.6-1.6,1.6c-0.7,3.1-4.4,2.3-4.5,0.9
	c-0.2-1.4-1.2-4.4-2.1-3.1c-0.9,1.2,0.7,3.3,1,4.7c0.3,1.4-1.9,1.9-1.9,1s-1.4-1.9-1.4-1.9s-2.1-0.7-1.9-2.3c0.2-1.7-0.2-7.7-4-6.6
	c-3.8,1-7.3-5.8-7.3-5.8c-0.2,5.9,5.6,7.5,5.6,7.5c-2.8,20.9,10.5,34.2,10.3,34.4c5.4,4.2,11.5,9.6,15.7,15.3
	c10.5-11.9,12.9-23.5,13.1-24.4l0.2-0.5v-49.5L257.9,256.2z"/>
<path class="st1" d="M234.3,271.7c-0.5-0.9,0-2.1,0-2.1l-4.2-0.7C231.4,270.9,234.3,271.7,234.3,271.7z"/>
<path class="st2" d="M275.3,320l4-43.1c0.2-2.1,1.4-3.3,3.5-3.3h5.1c1.9,0,3.1,0.9,4,2.8l12.7,31l12.7-31c0.7-1.9,1.9-2.8,3.8-2.8
	h5.2c2.1,0,3.3,1.2,3.5,3.3l4,43.1c0.2,2.3-1,3.7-3.3,3.7h-4.4c-2.3,0-3.5-1.2-3.7-3.3l-2.3-27.2l-11,27.2c-0.7,1.9-1.9,2.8-3.8,2.8
	h-1.9c-1.9,0-3.1-0.9-3.8-2.8l-11-27.2l-2.4,27.2c-0.2,2.1-1.4,3.3-3.5,3.3h-4.4C276.2,323.7,275,322.5,275.3,320z"/>
<path class="st2" d="M335.5,305.6c0-10.3,7.8-19.2,20.1-19.2c10.5,0,19,6.3,19.5,18c0,2.1-1.4,3-3.5,3h-25.5
	c-0.2,4.4,4.2,8.5,11.3,8.5c2.6,0,5.4-0.7,8.2-2.3c1.9-1,3.5-0.9,4.9,0.7l0.9,1c1.4,1.7,1.2,3.7-0.7,5.1c-4.2,3.1-9.1,4.2-13.8,4.2
	C343.5,324.6,335.5,316,335.5,305.6z M364.8,301c-1-4.9-5.2-6.5-9.1-6.5c-3.8,0-8.2,1.7-9.4,6.5H364.8z"/>
<path class="st2" d="M377.2,320.4v-29.8c0-2.3,1.2-3.5,3.5-3.5h4.2c2.3,0,3.5,1.2,3.5,3.5v2.4c1.7-4.2,5.8-6.6,11.2-6.6
	c9.8,0,13.4,7.7,13.4,16.4v17.6c0,2.3-1.2,3.5-3.5,3.5h-4.2c-2.3,0-3.5-1.2-3.5-3.5v-16.9c0-5.1-1.9-8.2-5.8-8.2
	c-3.8,0-7.7,3-7.7,9.8v15.3c0,2.3-1.2,3.5-3.5,3.5h-4.2C378.4,323.7,377.2,322.5,377.2,320.4z"/>
<path class="st2" d="M414.9,293.4l-0.3-0.7c-0.5-0.9-0.3-1.7,0.5-2.4c2.6-1.9,4.2-4.7,4.4-7.2c-0.3,0-0.9,0.2-1.2,0.2
	c-3.1-0.2-4.7-2.8-4.7-5.1c0-3.3,2.3-5.9,6.3-5.9c4.9,0,6.3,4.4,6.3,6.8c0,6.1-3.5,12-8.7,14.8C416.4,294.6,415.4,294.2,414.9,293.4
	z"/>
<path class="st2" d="M421.7,317.3c-1-2.1,0-3.7,2.3-4.4l2.3-0.5c1.9-0.5,2.8,0.3,4.4,1.9c1.2,1.4,3.1,2.1,5.6,2.1
	c2.8,0,4.7-1.2,4.7-3.1c0-1.6-1-2.3-3.5-3.1l-4.5-1.6c-3.8-1.2-10.3-4-10.3-10.6c0-6.8,5.8-11.5,13.6-11.5c4.7,0,9.1,1.6,11.7,5.6
	c1.4,2.1,0.3,3.8-1.9,4.5L444,297c-1.9,0.5-2.8-0.2-4.2-1.4c-1-1-2.3-1.4-3.5-1.4c-2.3,0-3.7,1.4-3.7,3.1c0,1.6,1.4,2.3,3.3,3
	l4.5,1.7c7.5,2.4,10.3,6.6,10.5,11c0,7.7-6.8,11.5-14.8,11.5C429.5,324.6,424.1,322.1,421.7,317.3z"/>
<path class="st2" d="M691.5,282v-3.8h-1.2c-0.2,0-0.2-0.2-0.2-0.2l0.2-0.2h3.1c0.2,0,0.2,0.2,0.2,0.2l-0.2,0.2h-1.2v3.8
	c0,0.2-0.2,0.3-0.3,0.3S691.5,282.2,691.5,282z"/>
<path class="st2" d="M698.3,282v-3.7l-1.6,3.8c0,0,0,0.2-0.2,0.2c0,0-0.2,0-0.2-0.2l-1.6-3.8v3.7c0,0.2-0.2,0.3-0.3,0.3
	c-0.2,0-0.3-0.2-0.3-0.3v-4c0-0.3,0.2-0.5,0.5-0.5c0.2,0,0.3,0.2,0.5,0.3l1.4,3.3l1.4-3.3c0-0.2,0.2-0.3,0.5-0.3
	c0.3,0,0.5,0.2,0.5,0.5v4c0,0.2-0.2,0.3-0.3,0.3C698.3,282.4,698.3,282.2,698.3,282z"/>
</svg>
