<?xml version="1.0" encoding="utf-8"?>
<!-- Generator: Adobe Illustrator 25.2.3, SVG Export Plug-In . SVG Version: 6.00 Build 0)  -->
<svg version="1.1" id="Layer_1" focusable="false" xmlns="http://www.w3.org/2000/svg" xmlns:xlink="http://www.w3.org/1999/xlink"
	 x="0px" y="0px" viewBox="0 0 800 600" style="enable-background:new 0 0 800 600;" xml:space="preserve">
<path d="M225,258.7h110.2c7-10.9,16.2-19.6,27.6-26c11.4-6.4,23.8-9.6,37.2-9.6s25.8,3.2,37.3,9.7c11.5,6.4,20.7,15.1,27.6,26H575
	l-10.9,11.1h-93.4c1.9,4.1,3.3,8.4,4.2,12.8h76.3l-10.9,10.9h-63.7c0.2,2.8,0.3,5,0.3,6.4c0,1.4-0.1,3.6-0.3,6.4h50.9l-10.9,10.9
	h-41.6c-1,4.5-2.4,8.8-4.2,12.9h33l-11.1,11h-27.8c-6.9,10.9-16.1,19.6-27.6,26c-11.5,6.5-23.9,9.7-37.3,9.7s-25.8-3.2-37.2-9.7
	c-11.4-6.4-20.6-15.1-27.7-26h-27.8l-10.9-11h33c-1.9-4.1-3.3-8.4-4.2-12.9h-41.6l-11.1-10.9h50.9c-0.2-2.8-0.3-5-0.3-6.4
	c0-1.4,0.1-3.6,0.3-6.4h-63.6l-11.1-10.9h76.4c1-4.5,2.4-8.7,4.2-12.8h-93.5L225,258.7z M334.1,300c0,8.9,1.8,17.4,5.2,25.5
	c3.5,8.1,8.2,15.1,14.1,21c5.9,5.9,12.9,10.6,21,14.1c8.1,3.5,16.6,5.2,25.6,5.2s17.5-1.8,25.6-5.2s15.2-8.2,21-14.1
	c5.9-5.9,10.6-12.9,14.1-21s5.2-16.6,5.2-25.6s-1.8-17.4-5.2-25.6c-3.5-8.1-8.2-15.1-14.1-21s-12.9-10.5-21-14
	c-8.1-3.5-16.7-5.2-25.6-5.2s-17.4,1.8-25.6,5.2c-8.1,3.5-15.1,8.2-21,14c-5.9,5.8-10.6,12.8-14.1,21
	C335.9,282.5,334.1,291,334.1,300z M347.5,317.3h6.8v-25.9l8.3,25.9h7.7l8.1-25.7v25.7h7v-34.7h-10l-8.8,27.7l-8.9-27.7h-10.1V317.3
	z M393.2,317.3h7.2v-34.7h-7.2V317.3z M408.3,317.3h7v-25l13.9,25h8.4v-34.7h-6.8v25.2l-13.8-25.2h-8.5V317.3z M445.5,317.3h7.1
	v-34.7h-7.1V317.3z"/>
</svg>
