<?xml version="1.0" encoding="utf-8"?>
<!-- Generator: Adobe Illustrator 25.2.3, SVG Export Plug-In . SVG Version: 6.00 Build 0)  -->
<svg version="1.1" id="Layer_1" xmlns="http://www.w3.org/2000/svg" xmlns:xlink="http://www.w3.org/1999/xlink" x="0px" y="0px"
	 viewBox="0 0 800 600" style="enable-background:new 0 0 800 600;" xml:space="preserve">
<style type="text/css">
	.st0{fill:#919191;}
</style>
<g>
	<path class="st0" d="M214.5,274.8h-12.2l-23.7-34.4h-0.4v34.4h-14.4v-59.6h12.4l23.5,34.4h0.5v-34.4h14.4V274.8z"/>
	<path class="st0" d="M220.6,252.6c0-13.9,8.7-23.1,22.2-23.1c12.7,0,21.7,8.1,21.7,22.8v3.6h-29.8v0.4c0,5.5,3.4,9.1,8.9,9.1
		c3.7,0,6.6-1.6,7.7-4.6l13.1,0.4c-1.6,8.8-9.3,14.5-21.1,14.5C229.1,275.6,220.6,266.9,220.6,252.6z M251.2,247.6
		c-0.1-4.6-3.4-7.8-8.1-7.8c-4.7,0-8.2,3.4-8.4,7.8H251.2z"/>
	<path class="st0" d="M289.3,244.8L297,230h14.4l-12.5,22.4l13,22.4h-14.2l-8.2-14.8l-8,14.8h-14.4l13-22.4L267.5,230H282
		L289.3,244.8z"/>
	<path class="st0" d="M341.9,240.5h-8.1v20.2c0,2.6,1.3,3.6,3.6,3.6c1.1,0,2.5-0.3,3.1-0.4l2.2,10.3c-1.4,0.4-3.8,1.1-7.3,1.3
		c-10,0.5-15.9-4.1-15.8-13.1v-21.7h-5.9V230h5.9v-10.7h14.2V230h8.1V240.5z"/>
	<path class="st0" d="M364.3,230h14.1v7.7h0.4c1.7-4.1,5.6-8.2,12.7-8.2c9.3,0,17.8,7.2,17.8,23c0,15.2-8,23-17.9,23
		c-6.8,0-10.8-3.8-12.6-7.9h-0.3v24h-14.2V230z M386.5,264.3c5.3,0,8.2-4.7,8.2-11.9c0-7.2-2.9-11.8-8.2-11.8
		c-5.2,0-8.2,4.5-8.2,11.8C378.3,259.6,381.3,264.3,386.5,264.3z"/>
	<path class="st0" d="M415.5,230h13.8v8.2h0.5c1.6-5.9,5.5-8.8,10.4-8.8c1.3,0,2.8,0.2,4,0.5v12.4c-1.4-0.5-3.9-0.8-5.6-0.8
		c-5.1,0-8.9,3.6-8.9,8.9v24.3h-14.2V230z"/>
	<path class="st0" d="M444.8,252.5c0-13.8,8.5-23.1,22.6-23.1c14.1,0,22.6,9.3,22.6,23.1c0,13.8-8.5,23.1-22.6,23.1
		C453.3,275.6,444.8,266.3,444.8,252.5z M475.5,252.5c0-7.4-2.9-12.5-8-12.5c-5.3,0-8.2,5-8.2,12.5c0,7.4,2.9,12.4,8.2,12.4
		C472.6,264.9,475.5,259.9,475.5,252.5z"/>
	<path class="st0" d="M510.3,230v46.6c0,11.1-7.2,14.9-18.3,14.9c-1,0-1.8,0-2.9-0.1v-10.8c0.7,0.1,1.2,0.1,1.7,0.1
		c3.9,0,5.2-1.4,5.2-4.4V230H510.3z M495.9,218c0-3.8,3.3-6.8,7.3-6.8c4,0,7.3,3,7.3,6.8s-3.3,6.8-7.3,6.8
		C499.1,224.8,495.9,221.8,495.9,218z"/>
	<path class="st0" d="M516.4,252.6c0-13.9,8.7-23.1,22.2-23.1c12.7,0,21.7,8.1,21.7,22.8v3.6h-29.8v0.4c0,5.5,3.4,9.1,8.9,9.1
		c3.7,0,6.6-1.6,7.7-4.6l13.1,0.4c-1.6,8.8-9.3,14.5-21.1,14.5C524.9,275.6,516.4,266.9,516.4,252.6z M547,247.6
		c-0.1-4.6-3.4-7.8-8.1-7.8c-4.7,0-8.2,3.4-8.4,7.8H547z"/>
	<path class="st0" d="M564.6,252.5c0-13.7,8.5-23.1,22.6-23.1c12.4,0,20.5,7.2,20.8,18.2h-13.3c-0.6-4.6-3.2-7.3-7.3-7.3
		c-5,0-8.3,4.2-8.3,12.1c0,7.9,3.3,12.2,8.3,12.2c3.9,0,6.8-2.6,7.3-7.3h13.3c-0.4,11.1-8.2,18.4-20.8,18.4
		C573,275.6,564.6,266.2,564.6,252.5z"/>
	<path class="st0" d="M639.2,240.5h-8.1v20.2c0,2.6,1.3,3.6,3.6,3.6c1.1,0,2.5-0.3,3.1-0.4l2.2,10.3c-1.4,0.4-3.8,1.1-7.3,1.3
		c-10,0.5-15.9-4.1-15.8-13.1v-21.7H611V230h5.9v-10.7h14.2V230h8.1V240.5z"/>
	<path class="st0" d="M148.7,340.9c0-13.7,8.5-23.1,22.6-23.1c12.4,0,20.5,7.2,20.8,18.2h-13.3c-0.6-4.6-3.2-7.3-7.3-7.3
		c-5,0-8.3,4.2-8.3,12.1c0,7.9,3.3,12.2,8.3,12.2c3.9,0,6.8-2.6,7.3-7.3H192c-0.4,11.1-8.2,18.4-20.8,18.4
		C157.1,363.9,148.7,354.5,148.7,340.9z"/>
	<path class="st0" d="M196.4,340.9c0-13.8,8.5-23.1,22.6-23.1c14.1,0,22.6,9.3,22.6,23.1c0,13.8-8.5,23.1-22.6,23.1
		C204.9,363.9,196.4,354.6,196.4,340.9z M227.1,340.8c0-7.4-2.9-12.5-8-12.5c-5.3,0-8.2,5-8.2,12.5c0,7.4,2.9,12.4,8.2,12.4
		C224.1,353.2,227.1,348.2,227.1,340.8z"/>
	<path class="st0" d="M247.6,318.4h13.5v8.2h0.5c1.9-5.4,6.5-8.8,12.6-8.8c6.2,0,11,3.4,12.2,8.8h0.5c1.7-5.3,6.9-8.8,13.5-8.8
		c8.4,0,14.3,5.7,14.3,15.2v30.1h-14.2v-26.8c0-4.5-2.6-6.9-6.2-6.9c-3.9,0-6.3,2.7-6.3,7v26.7h-13.7v-27c0-4.1-2.4-6.7-6.1-6.7
		c-3.7,0-6.3,2.8-6.3,7.2v26.5h-14.2V318.4z"/>
	<path class="st0" d="M322.2,306.3c0-3.8,3.3-6.8,7.3-6.8c4,0,7.3,3,7.3,6.8c0,3.8-3.3,6.8-7.3,6.8
		C325.4,313.2,322.2,310.1,322.2,306.3z M322.3,318.4h14.2v44.7h-14.2V318.4z"/>
	<path class="st0" d="M358.6,363.1h-14.2v-44.7h13.5v8.2h0.5c2-5.4,7-8.8,13.6-8.8c9.4,0,15.5,6.7,15.5,16.8v28.5h-14.2v-25.7
		c0-5-2.6-7.9-7.2-7.9s-7.5,3-7.5,8.1V363.1z"/>
	<path class="st0" d="M394.8,367.2l13.5-0.8c0.8,2.8,3.5,4.5,8.1,4.5c4.8,0,8.3-2.1,8.3-7.8v-7.9h-0.5c-1.7,4.1-6.1,7.2-12.7,7.2
		c-9.8,0-17.9-6.6-17.9-21.8c0-15.7,8.5-22.9,17.8-22.9c7,0,10.9,4.1,12.7,8.2h0.4v-7.7h14.2v44.9c0,11.4-9.2,17.5-22.7,17.5
		C403.2,380.8,395.9,375,394.8,367.2z M424.6,340.7c0-7.2-3-11.8-8.2-11.8c-5.3,0-8.2,4.6-8.2,11.8c0,7.2,2.9,11.4,8.2,11.4
		C421.6,352.1,424.6,347.9,424.6,340.7z"/>
	<path class="st0" d="M488.9,332.4c-0.4-2.8-3-4.8-6.8-4.8c-3.3,0-5.9,1.4-5.9,3.7c0,1.7,1.2,3.1,5,3.8l8.6,1.6
		c8.9,1.7,13.2,5.6,13.3,12.1c-0.1,9.2-8.8,15.2-20.7,15.2c-12.8,0-20.4-5.7-21.4-14.5l14.1-0.3c0.6,3.3,3.3,5,7.4,5
		c3.6,0,6.1-1.5,6.2-3.7c-0.1-2-1.7-3.1-5.4-3.9l-7.8-1.5c-8.9-1.7-13.3-6.1-13.3-13c-0.1-9,7.7-14.2,19.8-14.2s19.4,5.4,20.1,14.2
		L488.9,332.4z"/>
	<path class="st0" d="M507.1,340.9c0-13.8,8.5-23.1,22.6-23.1c14.1,0,22.6,9.3,22.6,23.1c0,13.8-8.5,23.1-22.6,23.1
		C515.6,363.9,507.1,354.6,507.1,340.9z M537.8,340.8c0-7.4-2.9-12.5-8-12.5c-5.3,0-8.2,5-8.2,12.5c0,7.4,2.9,12.4,8.2,12.4
		C534.8,353.2,537.8,348.2,537.8,340.8z"/>
	<path class="st0" d="M556.6,340.9c0-13.8,8.5-23.1,22.6-23.1c14.1,0,22.6,9.3,22.6,23.1c0,13.8-8.5,23.1-22.6,23.1
		C565.1,363.9,556.6,354.6,556.6,340.9z M587.3,340.8c0-7.4-2.9-12.5-8-12.5c-5.3,0-8.2,5-8.2,12.5c0,7.4,2.9,12.4,8.2,12.4
		C584.4,353.2,587.3,348.2,587.3,340.8z"/>
	<path class="st0" d="M622.1,363.1h-14.2v-44.7h13.5v8.2h0.5c2-5.4,7-8.8,13.6-8.8c9.4,0,15.5,6.7,15.5,16.8v28.5h-14.2v-25.7
		c0-5-2.6-7.9-7.2-7.9s-7.5,3-7.5,8.1V363.1z"/>
</g>
</svg>
