<?xml version="1.0" encoding="utf-8"?>
<!-- Generator: Adobe Illustrator 25.2.1, SVG Export Plug-In . SVG Version: 6.00 Build 0)  -->
<svg version="1.1" id="Layer_1" xmlns="http://www.w3.org/2000/svg" xmlns:xlink="http://www.w3.org/1999/xlink" x="0px" y="0px"
	 viewBox="0 0 800 600" style="enable-background:new 0 0 800 600;" xml:space="preserve">
<style type="text/css">
	.st0{fill:#231916;}
</style>
<path class="st0" d="M632.4,274.9v34.7c0.3,8.4,5.3,12.9,13.7,13.3c9.6,0.4,19.5,0.4,30,0c8-0.4,12.6-5.4,13.1-13.3v-34.7h-12.6
	v31.9c0,3-1.8,4.3-4.2,4.3c-7.5,0.7-15.6,0.7-23.4,0c-2.1-0.1-3.8-2.2-3.9-4.4v-31.8H632.4z"/>
<path class="st0" d="M332.5,274.9c-6.6,0.4-13.5,3.8-14.5,11.9c-0.2,1.8-0.2,2.9-0.1,4.2c1.1,8.9,7.5,11.1,12.7,11.5
	c5.4,0.5,27.2,1.6,29.8,1.8c3.6,0.3,4.1,1.7,4.1,3.6c0,2.1-1,3.3-4.1,3.6c-6.7,0.4-19.4,0.4-25.7,0.1c-2.3-0.1-3.9-0.6-3.9-3.4v-2.3
	h-12.6c0,0-0.1,1.1,0,1.4c0.1,10,3.5,14.6,12.9,15.3c9.2,0.7,23.1,0.6,33.3,0c9-0.6,12.3-6.8,12.6-13.9c0-0.4,0-1.1,0-1.7
	c-0.3-8.5-5.2-12.5-11.9-13.2c-4.4-0.3-27.8-1.4-31-1.8c-2.5-0.2-3.5-1.5-3.5-3.5c0-1.7,1.1-3,3.3-3.2c7.5-0.5,20.4-0.3,25.5,0
	c2.5,0.1,3.5,1.4,3.6,2.9v2.2h12.7c0,0,0-0.6,0-2c-0.3-9.5-4.8-13.2-13.6-13.5C352.6,274.5,342.3,274.4,332.5,274.9"/>
<path class="st0" d="M445.2,323.1h41.9c9.8-0.2,14.2-5.5,14.2-14.8c0-6.5-3.1-10.1-5.5-10.8c2-0.9,4.2-3.8,4.2-9.3
	c0-8.4-5.4-12.9-13.3-13.2h-41.6L445.2,323.1L445.2,323.1z M483.6,285.5c2.3,0.2,4.3,1.2,4.3,3.7c0,2.6-1.8,4-4.5,4.2h-25.5v-8
	L483.6,285.5L483.6,285.5z M483.6,303.4c2.1,0.1,5,1,5,4.5c0,3.6-2.4,4.5-5.3,4.6h-25.5v-9.1H483.6z"/>
<path class="st0" d="M381.7,274.9v34.7c0.3,8.4,5.3,12.9,13.7,13.3c9.6,0.4,19.5,0.4,29.9,0c8-0.4,12.7-5.4,13.1-13.3v-34.7h-12.6
	v31.9c0,3-1.9,4.3-4.2,4.3c-7.5,0.7-15.6,0.7-23.5,0c-2.1-0.1-3.8-2.2-3.9-4.4v-31.8H381.7z"/>
<path class="st0" d="M570.6,274.9V323h12.6v-17.2h26.1c3,0.1,4.5,2.1,4.7,4.6c0.3,5,0.2,12.6,0.2,12.6h12.7c0,0,0-6.9-0.2-12.1
	c-0.2-5.5-3-9.9-5.5-10.7c2.1-1.2,5-4.2,5-10.9c0-9.9-5.2-14.1-13.5-14.5h-42.1V274.9z M609.3,285.5c3,0.3,4.5,1.6,4.5,4.6
	c0,2.9-1.6,4.5-4.5,4.6h-26.2v-9.1L609.3,285.5z"/>
<polygon class="st0" points="552.3,304.3 515.5,304.3 515.5,314.5 552.3,314.5 "/>
<polygon class="st0" points="527.1,274.9 500.8,323.1 515.2,323.1 540.4,274.9 "/>
<polygon class="st0" points="541.2,274.9 527.9,274.9 552.7,323.1 567.5,323.1 "/>
<path class="st0" d="M224.2,289.4c-0.7-0.1-2.2,0.1-3.6,0.2c-7.3,1-27.4,4.2-33,5.3c-6,1.1-8.6,2.6-10.3,9
	c-1.4,5.1-2.3,8.4-4.1,15.6c-0.3,1.2-0.7,2.1-1.3,2.1s-1-0.9-1.3-2.1c-1.8-7.2-2.7-10.5-4.1-15.6c-1.8-6.4-4.3-7.9-10.3-9
	c-5.6-1.1-25.7-4.3-33-5.3c-0.8-0.1-2.1-0.4-2.1-1.2c0-0.7,1.3-1,2.1-1.1c7.4-0.7,27.6-2.8,33-3.5c6.3-0.9,8.5-2.6,10.3-6.9
	c1.6-4,2.8-7.4,4.2-11.9c0.4-1.2,0.7-2.1,1.3-2.1s0.9,0.9,1.3,2.1c1.3,4.5,2.5,7.9,4.2,11.9c1.8,4.4,4,6.1,10.3,6.9
	c5.3,0.7,25.5,2.8,33,3.5c1.4,0.1,2.6,0.2,3.6,0.1c5.4-0.6,12.3-1.7,14.8-2.2c2.1-0.4,3.3-1.5,3.8-2.9c0.6-1.7,1-2.7,1.8-5.4
	c0.3-1.1,0.6-1.7,1.1-1.7s0.8,0.6,1.1,1.7c0.8,2.7,1.1,3.8,1.8,5.4c0.5,1.4,1.7,2.5,3.8,2.9c2.5,0.5,9.4,1.6,14.8,2.2
	c0.5,0.1,1.6,0.2,1.6,0.9c0,0.8-1.2,0.9-1.6,1c-5.3,0.7-12.3,1.8-14.8,2.4c-2.7,0.6-3.3,1.5-3.8,3c-0.6,1.6-1,2.8-1.8,5.7
	c-0.3,1-0.5,1.6-1,1.6s-0.7-0.6-1-1.6c-0.8-2.9-1.3-4.1-1.8-5.7c-0.5-1.5-1.1-2.4-3.8-3C236.5,291.2,229.5,290.1,224.2,289.4z"/>
<path class="st0" d="M241.9,305.6c1.2-0.2,2.2-0.1,3.2,0.1c4.2,0.5,5.5,0.6,10.5,1.2c1.6,0.2,2.4,1,2.9,2.4c0.8,2.5,1.1,3.6,1.4,4.7
	c0.2,0.9,0.4,1.7,1.1,1.7s0.9-0.8,1.1-1.7c0.3-1.1,0.6-2.2,1.4-4.7c0.5-1.5,1.3-2.3,2.9-2.4c5-0.6,6.3-0.7,10.5-1.2
	c0.7-0.1,1.7-0.2,1.7-0.9c0-0.7-1-0.9-1.7-1c-4.1-0.5-5.5-0.7-10.5-1.4c-1.6-0.2-2.5-0.9-2.9-1.8c-0.9-2.1-1.2-3.6-1.4-4.5
	c-0.2-1-0.5-1.7-1.1-1.7s-0.8,0.7-1.1,1.7c-0.2,0.9-0.5,2.4-1.4,4.5c-0.4,1-1.3,1.6-2.9,1.8c-5,0.7-6.4,0.8-10.5,1.4
	c-1,0.1-2.5,0.2-3.2,0.1c-3.8-0.5-7.3-1-12.5-1.8c-2.1-0.3-3-1-3.5-2.4c-0.9-2.2-1.2-3.5-1.7-5.1c-0.2-0.7-0.4-1.7-1.1-1.7
	s-0.9,1-1.1,1.7c-0.4,1.6-0.7,2.9-1.7,5.1c-0.6,1.4-1.5,2.1-3.5,2.4c-5.2,0.8-8.7,1.3-12.5,1.8c-0.6,0.1-1.5,0.3-1.5,0.9
	c0,0.8,1.1,0.8,1.5,0.9c3.9,0.5,7.3,1.1,12.5,1.9c2,0.3,3,1.1,3.5,3.2c0.6,2.4,1,3.6,1.7,6.7c0.1,0.6,0.5,1.4,1,1.4
	c0.6,0,0.9-0.8,1-1.4c0.8-3.1,1.1-4.3,1.7-6.7c0.5-2.1,1.6-2.9,3.5-3.2C234.6,306.7,238.1,306.2,241.9,305.6"/>
<path class="st0" d="M198.9,253.5c-51.3,0-92.8,20.4-92.8,45.5c0,25.2,41.6,45.5,92.8,45.5s92.8-20.4,92.8-45.5
	C291.8,273.9,250.2,253.5,198.9,253.5z M198.9,339.2c-47.6,0-85.5-18-85.5-40.2s37.9-40.2,85.5-40.2s85.5,18,85.5,40.2
	S246.4,339.2,198.9,339.2z"/>
<path class="st0" d="M219.6,322.5c1.3-0.2,2.3-0.1,3.4,0.1c2.7,0.3,5.5,0.6,10.5,1.3c1.8,0.2,2.6,1,2.9,2c0.3,1,0.9,2.7,1.4,4.4
	c0.3,1.1,0.5,1.7,1.1,1.7s0.8-0.6,1.1-1.7c0.5-1.7,1-3.4,1.4-4.4c0.3-0.9,1.1-1.7,2.9-2c4.9-0.7,7.8-1,10.5-1.3c0.2,0,1.7-0.2,1.7-1
	c0-0.7-1-0.9-1.7-1c-2.7-0.3-5.5-0.7-10.5-1.3c-1.8-0.3-2.6-0.8-2.9-1.8c-0.6-1.5-1.1-3.5-1.3-4.5c-0.1-0.8-0.6-1.7-1.1-1.7
	s-1,0.9-1.1,1.7c-0.2,1-0.7,3.1-1.3,4.5c-0.4,1-1.1,1.5-2.9,1.8c-4.9,0.7-7.8,1-10.5,1.3c-0.7,0.1-2.7,0.2-3.4,0.1l0,0
	c-3.6-0.5-7.4-1.1-14.5-2.1c-2.3-0.3-3.3-1.3-3.8-2.5c-1-2.3-1.7-5.1-2-6.3c-0.2-0.8-0.4-1.7-1.1-1.7s-0.8,1-1.1,1.7
	c-0.4,1.2-1,4-2,6.3c-0.5,1.2-1.6,2.2-3.8,2.5c-7.1,1-10.8,1.6-14.5,2.1c-0.6,0.1-1.7,0.2-1.7,0.9c0,0.7,1.1,0.8,1.7,0.9
	c3.6,0.6,7.5,1.2,14.5,2.4c2.3,0.4,3.2,2,3.9,3.9c0.7,2.1,1.6,5.1,2.1,6.4c0.2,0.7,0.5,1.6,1,1.6s0.8-0.9,1-1.6
	c0.4-1.3,1.4-4.3,2.1-6.4c0.6-1.9,1.5-3.5,3.9-3.9C212.1,323.7,215.9,323.1,219.6,322.5z"/>
<path class="st0" d="M694.3,323.1c-2.1,0-3.6-1.6-3.6-3.7c0-2.2,1.7-3.7,3.6-3.7c1.9,0,3.6,1.5,3.6,3.7
	C697.9,321.6,696.2,323.1,694.3,323.1z M694.3,316.3c-1.6,0-2.9,1.3-2.9,3.1c0,1.7,1.1,3.1,2.9,3.1c1.6,0,2.8-1.2,2.8-3.1
	S695.8,316.3,694.3,316.3z M693.5,321.5h-0.7v-4.1h1.6c1,0,1.5,0.3,1.5,1.2c0,0.7-0.5,1.1-1.1,1.1l1.2,1.8h-0.8l-1.1-1.8h-0.6
	L693.5,321.5L693.5,321.5z M694.3,319.1c0.5,0,1,0,1-0.6c0-0.5-0.5-0.6-0.9-0.6h-0.8v1.2H694.3z"/>
</svg>
