<?xml version="1.0" encoding="utf-8"?>
<!-- Generator: Adobe Illustrator 25.2.1, SVG Export Plug-In . SVG Version: 6.00 Build 0)  -->
<svg version="1.1" id="Layer_1" xmlns="http://www.w3.org/2000/svg" xmlns:xlink="http://www.w3.org/1999/xlink" x="0px" y="0px"
	 viewBox="0 0 800 600" style="enable-background:new 0 0 800 600;" xml:space="preserve">
<style type="text/css">
	.st0{fill:#EB0A1E;}
	.st1{fill:#FFFFFF;}
</style>
<path d="M611.3,304.2l7.8-20.6l7.8,20.6H611.3z M627.3,272H611l-22.7,55.7h14.1l5.2-13.6h23.1l5.2,13.6H650L627.3,272z M512.6,318
	c-9.2,0-16.6-8.3-16.6-18.5s7.5-18.5,16.6-18.5c9.1,0,16.6,8.3,16.6,18.5C529.2,309.7,521.7,318,512.6,318 M512.6,270.1
	c-16.2,0-29.4,13.2-29.4,29.4s13.2,29.4,29.4,29.4c16.2,0,29.4-13.2,29.4-29.4C542,283.3,528.8,270.1,512.6,270.1 M396.6,318
	c-9.2,0-16.6-8.3-16.6-18.5s7.5-18.5,16.6-18.5c9.2,0,16.6,8.3,16.6,18.5S405.7,318,396.6,318 M396.6,270.1
	c-16.2,0-29.4,13.2-29.4,29.4s13.2,29.4,29.4,29.4c16.2,0,29.4-13.2,29.4-29.4C425.9,283.3,412.8,270.1,396.6,270.1L396.6,270.1
	 M469.2,272l-14.5,22.5L440.4,272h-14.1l22.3,34.9v20.7H461v-20.7l22.3-34.9H469.2z M591.3,272h-47.6v10.7h17.6v45h12.4v-45h17.6
	V272z M317,282.7h17.6v45H347v-45h17.6V272H317V282.7L317,282.7z"/>
<rect x="150" y="233.2" class="st0" width="133.6" height="133.6"/>
<path class="st1" d="M239,271c-14.5-4.2-30-4.2-44.5,0c-16.5,5.3-27.8,16.3-27.8,29c0,17.9,22.4,32.4,50.1,32.4s50.1-14.5,50.1-32.4
	C266.9,287.3,255.6,276.3,239,271 M216.8,318.5c-4.1,0-7.5-8.1-7.7-18.3c2.5,0.2,5,0.4,7.7,0.4c2.6,0,5.2-0.1,7.7-0.4
	C224.3,310.3,220.9,318.5,216.8,318.5 M209.6,292.2c1.2-7.2,3.9-12.2,7.2-12.2c3.2,0,6,5,7.2,12.2c-2.3,0.2-4.7,0.4-7.2,0.4
	C214.3,292.5,211.9,292.4,209.6,292.2 M228.4,291.7c-1.7-11.2-6.2-19.3-11.6-19.3c-5.4,0-9.9,8.1-11.6,19.3
	c-10.1-1.6-17.3-5.2-17.3-9.4c0-5.7,12.9-10.2,28.8-10.2s28.8,4.6,28.8,10.2C245.6,286.4,238.5,290,228.4,291.7 M174,298.8
	c0-5.5,2.2-10.6,5.8-15.1c0,0.3-0.1,0.6-0.1,0.9c0,6.9,10.3,12.7,24.8,14.9c0,0.5,0,1.1,0,1.6c0,12.8,3.6,23.7,8.4,27.5
	C191.1,327.3,174,314.5,174,298.8 M220.6,328.6c4.9-3.8,8.4-14.6,8.4-27.5c0-0.5,0-1.1,0-1.6c14.5-2.2,24.8-8,24.8-14.9
	c0-0.3,0-0.6-0.1-0.9c3.7,4.4,5.8,9.6,5.8,15.1C259.6,314.5,242.5,327.3,220.6,328.6"/>
</svg>
