<?xml version="1.0" encoding="utf-8"?>
<!-- Generator: Adobe Illustrator 25.2.1, SVG Export Plug-In . SVG Version: 6.00 Build 0)  -->
<svg version="1.1" id="Layer_1" xmlns="http://www.w3.org/2000/svg" xmlns:xlink="http://www.w3.org/1999/xlink" x="0px" y="0px"
	 viewBox="0 0 800 600" style="enable-background:new 0 0 800 600;" xml:space="preserve">
<style type="text/css">
	.st0{fill:#032459;}
</style>
<path class="st0" d="M400,399.2c-54.2,0-98.8-45-98.8-99.2c0-11.2,2-22.1,5.6-32.5L364.6,380c0.8,1.6,1.6,2.8,3.6,2.8
	s2.8-1.2,3.6-2.8l26.9-59.9c0.4-0.8,0.8-1.2,1.2-1.2c0.8,0,0.8,0.8,1.2,1.2l27.3,59.9c0.8,1.6,1.6,2.8,3.6,2.8s2.8-1.2,3.6-2.8
	l57.9-112.5c3.6,10,5.6,20.9,5.6,32.5C498.8,354.2,454.2,399.2,400,399.2L400,399.2z M400,274.3c-0.8,0-0.8-0.8-1.2-1.2l-30.9-66.7
	c10-3.6,20.9-5.6,32.1-5.6s22.1,2,32.1,5.6l-30.9,66.7C400.8,273.5,400.8,274.3,400,274.3z M367.5,346.6c-0.8,0-0.8-0.8-1.2-1.2
	l-50.6-97.2c8.8-14.5,21.7-26.5,36.6-35l35.8,77.1c0.8,1.6,1.6,2,2.8,2h18.5c1.2,0,2-0.4,2.8-2l35.4-77.1
	c14.9,8.4,27.7,20.5,36.6,35l-50.2,97.2c-0.4,0.8-0.8,1.2-1.2,1.2c-0.8,0-0.8-0.8-1.2-1.2l-19.3-42.6c-0.8-1.6-1.6-2-2.8-2h-18.5
	c-1.2,0-2,0.4-2.8,2l-19.3,42.6C368.3,345.8,368.3,346.6,367.5,346.6L367.5,346.6z M400,412.5c62.3,0,112.5-50.2,112.5-112.5
	S462.3,187.5,400,187.5S287.5,237.7,287.5,300S337.7,412.5,400,412.5z"/>
</svg>
