<?xml version="1.0" encoding="utf-8"?>
<!-- Generator: Adobe Illustrator 25.2.3, SVG Export Plug-In . SVG Version: 6.00 Build 0)  -->
<svg version="1.1" id="Layer_1" xmlns="http://www.w3.org/2000/svg" xmlns:xlink="http://www.w3.org/1999/xlink" x="0px" y="0px"
	 viewBox="0 0 800 600" style="enable-background:new 0 0 800 600;" xml:space="preserve">
<style type="text/css">
	.st0{fill:#00B6F1;}
	.st1{fill:#9FCC3B;}
	.st2{fill:#003046;}
</style>
<path class="st0" d="M424.4,192.8c12.6-6.5,28.1-1.6,34.6,11c6.5,12.6,1.6,28.1-11,34.7c-12.6,6.5-28.1,1.6-34.7-11
	C406.8,214.8,411.7,199.3,424.4,192.8"/>
<path class="st1" d="M399.5,148.9c7.5-1.1,14.4,4.1,15.4,11.6c1.1,7.5-4.1,14.4-11.6,15.4c-7.5,1-14.4-4.1-15.4-11.6
	C386.8,156.8,392.1,149.9,399.5,148.9"/>
<path class="st2" d="M533.1,275.8c-5.7-12.6-15.7-22.2-28.3-26.9c-12.5-4.7-26.1-4-38.2,1.9s-21.2,16.5-25.7,29.6
	c-2.3,6.7-2.8,17.2-2.8,23.5v87.5h6.4c3.9,0,5.7-2.3,5.7-5.9v-53.2c5.5,6.7,12.6,11.9,20.7,15c12.5,4.7,26.1,4,38.2-1.9
	c12.1-5.9,21.2-16.5,25.6-29.6C539.4,302.5,538.8,288.4,533.1,275.8 M524.7,311.8c-3.5,10.3-10.6,18.5-20.1,23.1
	c-9.4,4.6-20.1,5.2-29.9,1.5c-9.9-3.7-16.5-11.1-21-21.1c-4.5-9.9-5-21-1.5-31.3c3.5-10.3,9.5-18.5,19-23.1
	c9.4-4.6,20.1-5.2,29.8-1.5s17.7,11.1,22.1,21.1C527.8,290.4,528.2,301.6,524.7,311.8"/>
<path class="st2" d="M363.1,274.5c0-10.2,11.1-15.6,19.8-15.7c9.7-0.1,14.3,2.5,19.7,9.2c2,2.4,4.2,3.4,7.1,1.5l6.2-3.9
	c-0.1-0.2-0.1-0.3-0.2-0.4c-2.8-5.6-6.8-9.7-11.7-12.6c-5.8-3.5-12.9-5.3-21.1-5.3c-15.3,0-32,9.1-32,28.2
	c0,37.3,55.5,18.4,55.5,45.4c0,11.2-11,18-21.4,18c-9.2,0-18.1-3.6-24.6-11.7c-2.5-2.8-4.8-2.7-7.7-0.8c-0.1,0.1-5.5,3.9-5.5,3.9
	c0.1,0.2,0.2,0.3,0.2,0.3c2.9,5.2,6.9,9.4,11.7,12.5c7.2,4.7,16.2,7,25.8,7c17.8,0,33.8-10.2,33.8-30.4
	C418.6,280.4,363.1,301,363.1,274.5"/>
<path class="st2" d="M294.9,334.1l29.9-80.7c0.8-2.1,2.5-3.5,5-3.5h10.1l-36,92.3l-0.6,1.5l-0.3,0.7c-0.8,2-2.7,3.6-5,3.6h-6.3
	c-2.1,0-4.1-1.6-4.9-3.6l-0.3-0.7l-0.6-1.5l-36-92.3h10.1c2.5,0,4.2,1.5,5,3.5L294.9,334.1L294.9,334.1L294.9,334.1z"/>
<path class="st2" d="M540.4,352.4c-5.3,0-9.6-4.3-9.6-9.6c0-5.3,4.3-9.6,9.6-9.6c5.3,0,9.6,4.3,9.6,9.6
	C550,348.1,545.7,352.4,540.4,352.4z M540.4,335c-4.3,0-7.7,3.5-7.7,7.8c0,4.3,3.4,7.8,7.7,7.8c4.2,0,7.7-3.5,7.7-7.8
	C548.1,338.5,544.6,335,540.4,335z M545.2,347.9h-2.3l-1.9-3.7h-2.6v3.7h-2v-10.5h5.1c2.2,0,3.6,1.4,3.6,3.4c0,1.5-0.9,2.7-2.2,3.2
	L545.2,347.9z M541.6,342.4c0.9,0,1.6-0.4,1.6-1.6c0-1.2-0.6-1.6-1.6-1.6h-3.1v3.3H541.6z"/>
</svg>
