<?xml version="1.0" encoding="utf-8"?>
<!-- Generator: Adobe Illustrator 25.2.3, SVG Export Plug-In . SVG Version: 6.00 Build 0)  -->
<svg version="1.1" id="Layer_1" xmlns="http://www.w3.org/2000/svg" xmlns:xlink="http://www.w3.org/1999/xlink" x="0px" y="0px"
	 viewBox="0 0 800 600" style="enable-background:new 0 0 800 600;" xml:space="preserve">
<style type="text/css">
	.st0{fill:#007361;}
	.st1{fill:#E1C4AC;}
	.st2{fill:#A51417;}
	.st3{fill-rule:evenodd;clip-rule:evenodd;fill:#007361;}
	.st4{fill-rule:evenodd;clip-rule:evenodd;}
</style>
<rect x="174" y="383" width="450" height="1.7"/>
<path d="M217.7,221.9c1.2,1.3,3.4,5.7,3.9,7.2l20.4,58.5c0.4,0.9,0.5,2.6,1.7,2.6c0.9,0,1.1-2,1.4-2.7l10.7-29.3l10.4,27.9
	c0.4,1.1,1,4.2,2.1,4.2c0.9,0,1.2-1.4,1.7-2.8l20.1-57.7c1.7-4.6,3.7-9.5,6.9-10.1c1.2-0.2,1.9-0.6,1.9-0.6c0-0.8-0.2-1-1.3-1
	c-2.2,0-3.6,0.4-5.8,0.4c-2.4,0-4.3-0.3-6.3-0.3c-1.2,0-1.1,0.4-1.1,1c0,0.7,2.2,0.3,3.5,3.1c0.7,1.5,0.4,4.6-0.3,6.5l-17.1,47
	l-7.3-20.8l-2.9-7.6c0,0-0.4,0.2,1.6-6.1l4-12c2-5.9,3.9-9,6.4-9.1c3.1-0.1,3.1-1.9,0.7-1.9c-2.4,0-3.9,0.2-6,0.2
	c-2.2,0-3.4-0.2-5.8-0.2c-0.9,0-1.9,0.3-1.8,1c0.1,0.7,1.4,0.5,2.4,1c1.6,0.8,2.7,4.3,1.5,7.9l-4.7,15.1l-5.3-14.1
	c-1.1-2.7-2.5-8.6,0.1-9.1c2.5-0.5,2.2-1.8,0.6-1.8c-2.9,0-4.5,0.4-7.3,0.4c-3.1,0-5.4-0.4-8.4-0.4c-0.6,0-1.8,0.1-1.4,1.3
	c0.2,0.7,1.7,0.5,2.6,1c3.6,2.3,4.3,5.3,5.5,8.6l7.8,22.1c1.4,4,1.5,2.5,0.4,5.9l-6.9,18.8l-16.9-48.3c-1.3-3.6-2-6.1,0.9-7.5
	c1.2-0.6,1.6-0.8,1.8-1c0.2-0.2,0.3-1.1-1.5-1c-3,0.1-4.9,0.4-7.9,0.4c-3.2,0-5.4-0.4-8.4-0.4c-1,0-1.2,0.5-1.2,1.2
	C213.2,220.3,215.6,219.5,217.7,221.9z"/>
<path d="M544.2,254.7v26.1c0,6.9-4.6,5.2-5.7,7c-0.5,0.9,0.9,1.1,2,1.1c1.1,0,2.8-0.4,7.5-0.4c5.1,0,6.9,0.4,8.4,0.4
	c1.3,0,2.9-0.6,1.9-1.5c-1.4-1.4-7.8,0.2-7.8-7.1v-24.2c-0.1-1.7,3-8.2,10.4-8.2c7.2,0,10.4,7.9,10.4,13.2v19.7
	c-0.1,7.7-2.8,5.3-3.8,6.9c-0.6,0.9,0.4,1.3,1.6,1.3c1.2,0,3-0.4,6.4-0.4c4.3,0,6.2,0.4,7.4,0.4c0.9,0,2.5-0.7,1.5-1.5
	c-2.2-1.8-6.6,0.9-6.6-7v-17.4c0-8-2.6-19.7-14.4-19.7c-8.6,0-13,8.1-12.8,6.9v-6c0-1.1-0.5-1.7-1.1-1.7c-2,0-3.6,3.5-10.5,5.5
	c-0.4,0.1-1.7,0.1-1.8,0.9C537.3,251.2,544.3,246.1,544.2,254.7z"/>
<path d="M284.7,259.7c0.9,1,4.3-2.8,4.5-3c0.2-0.2,0.3-0.4,0.3-0.4c0-4.4,3.3-10.1,8.1-10.6c5.5-0.5,8.2,3.5,8.2,9.1v7.2
	c-20.7,4.1-23.7,11-23.7,16.6c0,7.5,5.3,10.9,11.1,10.9c5,0,9.8-2.3,13.5-6.2c1.2,3.5,3.5,5.6,6.9,5.5c1.2,0,1.4,0.3,5-1.3
	c1.3-0.3,1.2-0.3,2.6,0c1.9,0.7,4.5,1.9,9.1,1.9c6.9,0.1,13.2-6.3,13.2-14.3c0-4.9-1.4-8-8.1-12.2c-1.7-0.8-4.3-2.3-5.6-3
	c-5.6-3-7.7-5-7.9-7.9c-0.3-4.9,3.9-7.5,7.5-7.1c8.7-0.1,9.8,9.6,10.7,9.6c1.3,0,1-1.3,1-4.1c0-0.7,0.1-4.3-0.4-5.2
	c-1.1-1.6-7.2-2.5-8.7-2.5c-0.4,0-1.8,0-2-0.1c-0.4,0-1,0.1-1,0.1c-6.2-0.1-11.9,3.8-11.8,12.1c0.2,7.5,9,11.8,13.8,14.7
	c3.5,2,7.7,3.9,7.6,8.8c-0.1,5.5-4.3,9.2-8.9,8.9c-10.8-0.2-9.3-13.7-11.2-13.7c-1.3,0-1.1,3.4-1.1,5.2c0,1.7,0,3.4,0,4.7
	c-0.2,1.2-0.7,2.4-1.9,2.4c-4.2,0.3-3.2-6.5-3.2-10.1v-22c-0.2-6.7-5.3-11.1-13-11.1C288.7,242.6,281.1,255.6,284.7,259.7z
	 M306.5,277.8c0,5.6-5.7,8.6-8.9,8.6c-4.7,0-8-3.1-8-9.1c0-9.3,11.2-11,16.9-12.5V277.8z"/>
<path d="M394.4,239.3c1.1,0,3.6-4.1,3.6-5.3c0-1.2-2.5-5.4-3.6-5.4c-1,0-3.6,4.3-3.6,5.4C390.8,235.1,393.4,239.3,394.4,239.3z"/>
<path d="M403.2,289C403.2,289,403.2,289,403.2,289c1.1,0,2.1,0,2.5,0c1.1,0,2.8-0.4,7.5-0.4c5.1,0,6.9,0.4,8.4,0.4
	c1.3,0,2.9-0.6,1.9-1.5c-1.4-1.4-7.8,0.2-7.8-7.1v-24.2c-0.1-1.7,3-8.2,10.4-8.2c7.2,0,10.4,7.9,10.4,13.2v19.7
	c0,6.9-2.8,5.3-3.8,6.9c-0.6,0.9,0.4,1.3,1.6,1.3c1.2,0,3-0.4,6.4-0.4c3.2,0,5.2,0.2,6.5,0.3c-1,1.4-1.7,3.1-1.8,4.8
	c-0.5,8.6,10,11.6,18.8,11.5c17.5-0.2,22.5-12.4,18.8-18.8c-3.7-6.6-11.7-6.4-19.4-6.3c-14.4,0.1-11.6-8.8-5.8-8.5
	c1.3,0.1,0.7,0.5,5.4,0.5c8.3,0,16.3-5.6,16-15c0-0.8,0.2-3.5-1.8-7.3c3.9,0,2.3,0,8.2,0l0,26.1c0,11.8,5.6,13.8,9.8,13.8
	c6,0,10.3-3.9,11.1-5.8c3.5,3.8,8.4,5.8,14.1,5.8c10.9,0,19.1-10,19.1-23.2c0-19.9-12.5-23.8-19.2-23.8c-11.2,0-19.7,11.2-19.7,24.3
	c0,6.7,1.8,12,4.9,15.8c-1.1,0.7-3.1,2.4-7.3,2.4c-3.7,0-5.8-2.2-5.9-6.9v-28.5c0,0,10.9,0,11.6,0c0.8,0,2.2-4.9,2.3-5.2
	c0.1-0.6,0.3-1.1,0.4-1.6c0.1-0.9-0.6-1-1.2,0c-0.5,0.5-1.1,1.9-3.4,1.9h-9.6c0-8.2,0.1-12-1.2-12c-1.2,0-1,0.3-2.2,4
	c-1.5,4.9-6.1,7.6-9,9.2c-1.3,0.3-2.8,0.4-4.4,0c-2.5-0.5-5.5-3.6-13.1-3.6c-8.1,0-15.2,6.6-15.2,15.6c0,4.8,2.1,9.4,5.9,11.9
	c-0.7,0.4-5.2,4.2-4.7,8.7c0,0-0.1,4.7,3.6,6.2c-1.1,0.5-2.3,1.2-3.3,2.2c-2.4-0.9-5.9-0.2-5.9-6.5V263c0-8-2.6-19.7-14.4-19.7
	c-8.6,0-13,8.1-12.8,6.9v-6c0-1.1-0.5-1.7-1.1-1.7c-2,0-2.5,3.4-9.9,5.3c-0.4,0.1-1.4,0.3-1.5,1.2c0,2.2,6-2.4,6,5.8v26.1
	c0,5.6-4.5,5.6-5.2,5.7c-0.3,0-0.7,0-1.1,0c-1.9-0.2-5.2-1-5.2-4.6v-37.8c0-1.1-0.5-1.7-1.1-1.7c-2,0-3.3,3.7-9,5.6
	c-0.4,0.1-1.3,0.2-1.3,0.8c0,2.2,5.1-2.1,4.9,5.8v24.9c0.2,6.1-3,6.9-4.9,7c-2.4-0.3-4.2-1.2-4.2-4.8v-17.6
	c0-9.1-3.5-20.8-14.8-20.8c-5,0-9.4,2.8-12.7,6.6v-30.3c0-1.1-0.5-1.7-1.1-1.7c-1.4-0.1-3.6,4.1-10.1,5.6c-0.4,0.1-2.1,0.2-2.1,0.9
	c0,2.2,6.7-1,6.8,5.8v51.6c0,5.2-4.4,4.5-5.2,6.1c-0.1,0.7,0.3,1.1,0.9,1.1c1.4,0,5.3-0.4,8.1-0.4c2.7,0,7.2,0.4,9,0.4
	c1.1,0,1.5-0.2,1.5-1.5c-0.9-1.8-7.8,1-7.8-8.1v-22.2c0-5.4,6.4-9.5,10.4-9.5c3.1,0,10.7,2.4,10.7,15.5v19.3c0,3.8-4,4.2-4.3,5.4
	c0,0.8,0.5,1.2,1.4,1.2c1,0,3.8-0.4,7.3-0.4c1.9,0,3.7,0.1,5.1,0.2c0.8,0.2,1.9,0.2,3.4,0.2c1,0,3.4-0.4,6.2-0.4
	c2.8,0,5.1,0.2,6.8,0.4c0.3,0,0.7,0,1,0C402.9,288.9,403.1,289,403.2,289z M519.3,245.7c10.5,0,14.3,11.2,14.3,22.2
	c0,13.2-4.7,18.5-12.1,18.5c-10.4,0-14.4-12.8-14.4-23.3C507.1,254.1,510.7,245.7,519.3,245.7z M463.2,244.4
	c7.2,0,10.1,7.4,10.1,13.9c0,6.6-3,11.7-9.7,11.7c-7.1,0-9.5-6.9-9.5-13.4C454,250,456,244.4,463.2,244.4z M456.6,285.6
	c0.7,0,0.9,0.3,9,0.6c8.4,0.2,11.4,2.7,11.9,4.8c0.9,3.8-1.8,12-13.8,11.2c-7.6-0.5-9.8-4.1-10.4-4.9
	C450.5,293.4,452.8,285.9,456.6,285.6z"/>
<path d="M408.1,320.1c0,0.8,1.8,3.8,2.5,3.8c0.8,0,2.6-2.9,2.6-3.8c0-0.9-1.8-3.8-2.6-3.8C409.9,316.3,408.1,319.3,408.1,320.1z"/>
<path d="M443.8,352.8v-12.2c0-5.6-1.8-13.8-10.1-13.8c-6,0-9.1,5.7-9,4.8v-4.2c0-0.7-0.4-1.2-0.7-1.2c-1.4,0-2.5,2.4-7.4,3.9
	c-0.3,0.1-1.2,0.1-1.2,0.6c0,1.6,4.9-2,4.8,4.1v18.3c0,3.4-1.7,3.7-2.9,4c-0.1,0-0.1,0-0.2,0c-1.2-0.1-3.9-0.6-3.9-3.2v-26.6
	c0-0.7-0.4-1.2-0.7-1.2c-1.4,0-2.4,2.6-6.3,3.9c-0.3,0.1-0.9,0.1-0.9,0.6c0,1.6,3.6-1.5,3.4,4.1v17.5c0.1,4.5-2.3,4.9-3.6,4.9
	c-2,0-1.5,0.2-1.5,0.9c0.1,0.7,1.3,0.8,3.3,0.8c0.7,0,2.4-0.3,4.4-0.3c2.6,0,4.5,0.3,5.8,0.3c0.7,0,2.8-0.3,6.1-0.3
	c3.6,0,4.9,0.3,5.9,0.3c0.9,0,2-0.4,1.4-1c-1-1-5.5,0.1-5.5-5v-17c-0.1-1.2,2.1-5.8,7.3-5.8c5,0,7.3,5.5,7.3,9.2v13.8
	c-0.1,5.4-1.9,3.7-2.7,4.8c-0.4,0.6,0.3,0.9,1.1,0.9c0.8,0,2.1-0.3,4.5-0.3c3,0,4.4,0.3,5.2,0.3c0.6,0,1.8-0.5,1.1-1
	C446.8,356.5,443.7,358.4,443.8,352.8z"/>
<path d="M504.7,351.4c-0.7,0-2.6,3.1-2.6,3.9c0,0.8,1.8,3.8,2.6,3.8c0.8,0,2.6-2.9,2.6-3.8C507.3,354.4,505.5,351.4,504.7,351.4z"/>
<path d="M585.6,354.1v-26c0-1.5-0.8-1.9-1.1-1.9c-0.9,0-1.5,0.2-2.1,0.4c-0.6,0.2-1.4,0.6-3.1,0.6c-0.3,0-1.9-0.3-1.8,0.6
	c0.1,0.9,3.8,0.4,3.8,2.9v18.8c-0.3,3.3-3,6.9-6.4,6.9c-0.8,0-5.7-0.5-5.7-8.8v-19.6c0-1.5-0.8-1.9-1.1-1.9c-0.9,0-1.5,0.2-2.1,0.4
	c-0.6,0.2-1.5,0.5-3.2,0.5c-0.9,0-1.9-0.2-1.8,0.7c0.1,0.8,3.8,0,3.8,2.9v18c0,6.6,3.9,10.4,8.6,10.4c3.1,0,6-0.7,7.8-4.3h0.1v3.2
	c0,0.3,0.1,1.2,0.5,1.2c0.9,0,1.3-0.7,2-1c0.7-0.2,0.9-0.8,3.1-1c0.9-0.1,2-0.6,2-1.2C588.7,354.7,585.6,356.1,585.6,354.1z"/>
<path d="M548.9,326.2c-7.8,0-13.9,7.9-13.9,17.1c0,4.2,1,7.5,2.8,10.1c-1.9,1.4-5.4,2.7-11.9,2.7c-5.1,0-4.6-1.8-4.6-6.1v-34.7
	c0-6.4,4.8-4.5,4.9-5.7c0.1-0.8-0.7-0.6-1.5-0.6c-0.9,0-2.6,0.4-6,0.4c-3,0-5.6-0.3-6.9-0.3c-0.8,0-1.5,0.2-1.2,0.8
	c0.6,1.4,5.1,0.1,5.1,4V350c0,3.5,0.5,5.7-1.1,6.6c-1.9,1.2-4.2,1.2-4,2c0.1,0.5,1.1,0.5,1.6,0.5c2.4,0,5.8-0.3,8.3-0.4
	c4.6-0.1,9.3,0.3,13.9,0.3c2.7,0,3.4-0.5,5.3-3.2c0-0.1,0.1-0.1,0.1-0.2c2.4,2.3,5.6,3.5,9.3,3.5c7.6,0,13.4-7.1,13.4-16.3
	C562.4,328.9,553.7,326.2,548.9,326.2z M549.6,357c-7.3,0-10.1-9-10.1-16.4c0-6.4,2.5-12.2,8.6-12.2c7.4,0,10.1,7.9,10.1,15.6
	C558.1,353.3,554.8,357,549.6,357z"/>
<path d="M472.6,331.8c-1.8-0.9-4.4-2.5-5.8-3.3c-5.7-3.3-7.9-5.4-8.1-8.5c-0.3-5.3,4.9-8.4,8.6-8c4.7,0,8.6,2.9,10.2,9
	c0.2,0.6,0.8,2.1,1.3,2.1c0.5,0,0.6-0.5,0.6-1.1l-0.8-9.7c-0.1-0.8-0.3-1-0.6-1c-0.5,0-0.9,0.8-1.3,0.8c-0.7,0-2.6-2.7-9.1-2.6
	c-0.4,0-1,0.1-1,0.1c-6.3-0.1-12.2,4.1-12,13c0.2,8.1,9.2,12.7,14.1,15.8c3.6,2.2,7.4,5.6,7.3,9.5c-0.2,5.9-3.9,9.8-8.6,9.5
	c-11-0.2-9.5-14.7-11.5-14.7c-1.4,0-1.1,3.7-1.1,5.6c0,4.6-0.2,8.4,0.3,9c0.2,0.2,0.7,0.1,1.8,0.1c2.2,0,4.8,2.5,11.2,2.5
	c7.1,0.1,12.9-6.5,12.9-15C481,339.7,479.5,336.3,472.6,331.8z"/>
<path d="M596.7,323.9c0.8,0,2.5-2.9,2.5-3.8c0-0.9-1.8-3.8-2.5-3.8c-0.7,0-2.6,3-2.6,3.8C594.2,320.9,596,323.9,596.7,323.9z"/>
<path d="M603.1,357.1c-1.2-0.1-3.9-0.6-3.9-3.2v-26.6c0-0.7-0.4-1.2-0.7-1.2c-1.4,0-2.3,2.6-6.3,3.9c-0.3,0.1-0.9,0.1-0.9,0.6
	c0,1.6,3.6-1.5,3.4,4.1v17.5c0.1,4.5-2.3,4.9-3.7,4.9c-2,0-1.5,0.2-1.5,0.9c0.1,0.7,1.3,0.8,3.3,0.8c0.7,0,2.4-0.3,4.4-0.3
	c2.5,0,4.5,0.3,5.8,0.3C603.7,358.8,604.7,356.8,603.1,357.1z"/>
<path d="M617.4,340.6c-1.2-0.6-3.1-1.6-4-2.1c-3.9-2.1-5.4-3.5-5.5-5.5c-0.2-3.5,2.8-5.2,5.3-5c6.1-0.1,6.9,6.7,7.5,6.7
	c0.9,0,0.7-0.9,0.7-2.9c0-0.5,0.1-3.1-0.3-3.7c-0.7-1.1-5.1-1.8-6.1-1.8c-0.3,0-1.3,0-1.4,0c-0.3,0-0.7,0-0.7,0
	c-4.3-0.1-8.4,2.7-8.3,8.5c0.1,5.3,6.3,8.3,9.7,10.3c2.5,1.4,5.4,2.8,5.4,6.2c0,3.9-3,6.4-6.3,6.2c-7.6-0.1-6.5-9.6-7.9-9.6
	c-0.9,0-0.7,2.4-0.7,3.7c0,3-0.1,5.5,0.2,5.9c0.1,0.1,0.5,0.1,1.2,0.1c1.5,0,3.3,1.6,7.7,1.6c4.9,0.1,9.2-4.4,9.2-10
	C623.1,345.7,622.1,343.5,617.4,340.6z"/>
<path d="M500.4,354.2c-0.6,0.3-2.1,1.8-5.5,1.8c-2.6,0-4.1-1.5-4.2-4.8v-21.2c0,0,7.7,0,8.1,0c0.5,0,1.6-3.5,1.6-3.6
	c0.1-0.4,0.2-0.8,0.3-1.1c0.1-0.7-0.4-0.7-0.9,0c-0.4,0.4-0.8,1.3-2.4,1.3h-6.7c0-5.8,0.1-7.3-0.8-7.3c-0.9,0-0.7,0.2-1.5,2.8
	c-1.3,4.3-6,6.2-7.6,7.1c-0.4,0.2-0.3,0.2-0.4,0.5c0,0.5,1.8,0.3,5.6,0.4l0,19.4c0,8.3,3.9,9.7,6.9,9.7c4.5,0,7.7-3.2,7.9-4.3
	C500.9,354.2,500.8,354.1,500.4,354.2z"/>
<path d="M305.2,351.5c-1.4,0-3.4,3.9-8.8,3.9c-3.8,0-10-3.7-10-16H303c1.4,0,2.1,0.1,2.1-1.3c0-3-3.4-11.9-11-11.9
	c-7.8,0-12.2,8-12.2,17.6c0,4.9,3.2,15.3,12.6,15.3c5.6,0,11-5.4,11-7.1C305.5,351.8,305.5,351.5,305.2,351.5z M293,328
	c3.4,0,6.9,3.7,6.9,7.9c0,1.1-0.4,1.5-1.2,1.5h-12.3C286.4,333.3,289.2,328,293,328z"/>
<path d="M216.1,309.8c-1,0-3.3,0.2-4.3,0.2c-2.1,0-3.9-0.2-6.1-0.2c-0.2,0-1.1,0.1-1.1,0.4c0,1.5,5.1-0.3,5.1,6.2v25.4
	c0,7.5-2.4,15.4-12.7,15.4c-7.4,0-11.4-4.6-11.4-14.8v-27.6c0-4.6,3.6-3.6,3.7-4.6c0.1-1-3.2-0.4-3.4-0.4c-1.7,0-2.9,0.2-4.7,0.2
	c-1.5,0-3.3-0.2-4.7-0.2c-0.3,0-1.3-0.1-1.5,0.4c-0.6,1.4,4.6,0.6,4.6,4.4v26.2c0,9.8,2.8,19.4,17.2,19.1
	c17.1-0.3,16.8-15.7,16.8-18.8v-24.5c0-5.8,2.9-5.3,3.4-6.2C217.2,310,216.3,309.8,216.1,309.8z"/>
<path d="M284.6,327.8c0.4-0.5,0.5-1.3-1.4-1.1c-1.1,0-1.9,0.2-2.9,0.2c-1.4,0-1.6,0-2.9-0.1c-1.6-0.1-2.1,0.1-2,0.6
	c0.3,1.5,3.7,0,3.3,4.3c-0.4,3.6-1.6,6.7-2.7,9.8l-4.2,11.1l-6.1-18.5c-0.7-2.3-1.1-3.5-1.1-3.8c0-2.3,2.8-1.8,3.4-2.8
	c0.4-0.6-0.4-0.9-1.3-0.9c-0.7,0-1.6,0.3-3.9,0.3c-1.9,0-3.3,0-4.1-0.1c-2.1-0.4-2,0.8-1.2,1.2c0.7,0.4,1.1,0,2.2,3.2l9.4,26.6
	c0.2,0.5,0.4,1.8,1.2,1.8c0.9,0,0.9-0.9,2.1-4.1c0,0,9-25.1,9.6-26.1C283.3,327.7,284.2,328.3,284.6,327.8z"/>
<path d="M319.3,326.6c-2.5,0-4.3,3.1-5.6,5.2h-0.1v-4.6c0-0.7-0.4-1.2-0.7-1.2c-1,0-1.7,2-6.9,3.2c-0.3,0.1-1.2,0.2-1.2,0.7
	c0,1.5,4.4-0.5,4.4,4.6v19.4c0,3-3.1,2.7-3.1,4.2c0,0.4,0.2,0.7,0.7,0.7c0.4,0,1.5-0.3,5.6-0.3c3.4,0,4.8,0.3,5.7,0.3
	c0.7,0,1-0.1,1-0.8c0-2.3-5.4,1.2-5.4-5.6v-16.5c0-0.9,1.5-4.3,3.9-4.3c2.2,0,2.5,1.7,3.6,1.7c0.7,0,2.2-2.2,2.2-3.3
	C323.3,328.5,320.6,326.6,319.3,326.6z"/>
<polygon points="386,358.9 385.9,359.4 385.8,359.5 "/>
<path d="M397.5,326.8c-0.6,0-2.3,0.1-3.8,0.1c-1.8,0-2.7-0.2-3.5-0.2c-1.2,0-2.3,0-2.1,0.8c0.2,0.9,4.2,0.6,4.2,4.8
	c0,0.5,0,1.3-0.8,4.1l-5,15.9l-7-19.6c0,0-0.3-0.6-0.3-1.9c0-3.2,3.7-2.8,3.8-3.4c0.1-0.5-0.5-0.9-1.5-0.9c-1,0-2.6,0-4.9,0
	c-0.4,0-0.7,0-1,0c0,0,0,0,0,0h-2.8c0,0-0.1,0-0.1,0H366c0-5.8,0.1-7.3-0.8-7.3c-0.9,0-0.7,0.2-1.5,2.8c-1.3,4.3-6,6.2-7.6,7.1
	c-0.4,0.2-0.3,0.2-0.4,0.5c0,0.5,1.8,0.3,5.6,0.4l0,19.4c0,8.3,3.9,9.7,6.9,9.7c4.5,0,7.7-3.2,7.9-4.3c0-0.6-0.1-0.7-0.4-0.6
	c-0.6,0.3-2.1,1.8-5.5,1.8c-2.6,0-4-1.5-4.2-4.8v-21.2c0,0,6,0,7.7,0c0.1,0.1,0.2,0.3,0.2,0.5l7.2,20.3c0.6,1.7,0.9,2.2,1.6,5.1
	c0.5,1.9,0.3,3.6,0.3,3.6c-0.7,3.1-2.6,4.8-5.4,10.4c-0.3,0.5,4.1-0.1,4.3-0.1c0.4-0.1,0.3-0.2,0.7-1l3.2-9.5l8.9-27.2
	c1.3-4.8,3.4-3.9,3.7-4.5C398.6,327.2,398.3,326.8,397.5,326.8z"/>
<path d="M353.1,320.1c0-0.9-1.8-3.8-2.5-3.8c-0.7,0-2.6,3-2.6,3.8c0,0.8,1.8,3.8,2.6,3.8C351.4,323.9,353.1,321,353.1,320.1z"/>
<path d="M356.9,357.1c-1.2-0.1-3.9-0.6-3.9-3.2v-26.6c0-0.7-0.4-1.2-0.7-1.2c-1.4,0-2.3,2.6-6.3,3.9c-0.3,0.1-0.9,0.1-0.9,0.6
	c0,1.6,3.6-1.5,3.4,4.1v17.5c0.1,4.5-2.3,4.9-3.7,4.9c-2,0-1.5,0.2-1.5,0.9c0.1,0.7,1.3,0.8,3.3,0.8c0.7,0,2.4-0.3,4.4-0.3
	c2.5,0,4.5,0.3,5.8,0.3C357.6,358.8,358.6,356.8,356.9,357.1z"/>
<path d="M249.7,320.1c0,0.8,1.8,3.8,2.5,3.8c0.8,0,2.6-2.9,2.6-3.8c0-0.9-1.8-3.8-2.6-3.8C251.6,316.3,249.7,319.3,249.7,320.1z"/>
<path d="M258.6,357.1c-1.2-0.1-3.9-0.6-3.9-3.2v-26.6c0-0.7-0.4-1.2-0.7-1.2c-1.4,0-2.4,2.6-6.3,3.9c-0.3,0.1-0.9,0.1-0.9,0.6
	c0,1.6,3.6-1.5,3.4,4.1v17.5c0.1,4.5-2.3,4.9-3.6,4.9c-0.2,0-0.3,0-0.4,0c-1.3-0.2-2.5-0.8-2.5-4.3v-12.2c0-5.6-1.8-13.8-10.1-13.8
	c-6,0-9.1,5.7-9,4.8v-4.2c0-0.7-0.4-1.2-0.7-1.2c-1.4,0-2.5,2.4-7.4,3.9c-0.3,0.1-1.2,0.1-1.2,0.6c0,1.6,4.9-2,4.8,4.1v18.3
	c0,4.8-3.2,3.7-4,4.9c-0.4,0.6,0.6,0.8,1.4,0.8c0.7,0,2-0.3,5.3-0.3c3.6,0,4.9,0.3,5.9,0.3c0.9,0,2-0.4,1.4-1c-1-1-5.5,0.1-5.5-5
	v-17c-0.1-1.2,2.1-5.8,7.3-5.8c5,0,7.3,5.5,7.3,9.2v13.8c-0.1,5.4-1.9,3.7-2.7,4.8c-0.4,0.6,0.3,0.9,1.1,0.9c0.8,0,2.1-0.3,4.5-0.3
	c3,0,4.4,0.3,5.2,0.3c0.1,0,0.1,0,0.2,0c0.3,0,0.6,0,0.9,0c0.7,0,2.4-0.3,4.4-0.3c2.6,0,4.5,0.3,5.8,0.3
	C259.3,358.8,260.3,356.8,258.6,357.1z"/>
<path d="M337.2,340.6c-1.2-0.6-3.1-1.6-4-2.1c-3.9-2.1-5.4-3.5-5.5-5.5c-0.2-3.5,2.8-5.3,5.3-5c6.1-0.1,6.9,6.7,7.5,6.7
	c0.9,0,0.7-0.9,0.7-2.9c0-0.5,0.1-3.1-0.3-3.7c-0.7-1.1-5.1-1.8-6.1-1.8c-0.3,0-1.3,0-1.4,0c-0.3,0-0.7,0-0.7,0
	c-4.3-0.1-8.4,2.7-8.3,8.5c0.1,5.3,6.3,8.3,9.7,10.3c2.5,1.4,5.4,2.8,5.4,6.2c0,3.9-3,6.4-6.3,6.2c-7.6-0.1-6.5-9.6-7.9-9.6
	c-0.9,0-0.7,2.4-0.7,3.7c0,3-0.1,5.5,0.2,5.9c0.1,0.1,0.5,0.1,1.2,0.1c1.5,0,3.3,1.6,7.7,1.6c4.9,0.1,9.2-4.4,9.2-10
	C342.9,345.7,341.9,343.5,337.2,340.6z"/>
<path class="st0" d="M399,140.5L399,140.5L399,140.5C399,140.5,399,140.5,399,140.5L399,140.5c-0.3,0-15.1,0.1-35.7-4.1v59.5v0.1
	c0,0.9,0,1.6,0,1.6l0,0l0,0c0.1,2.8,1,5,2.6,6.9c1.1,1.2,2.6,2.4,4.7,3.6c0.6,0.3,1.2,0.6,1.9,1c0.5,0.2,1,0.5,1.6,0.7v0l0,0
	c0.4,0.2,1.9,0.8,2.4,1l22.5,8.5v0l0,0l0,0v0l22.5-8.5c0.5-0.2,1.9-0.8,2.4-1l0,0v0c0.6-0.2,1.1-0.5,1.6-0.7c0.7-0.3,1.3-0.6,1.9-1
	c2.1-1.2,3.6-2.4,4.7-3.6c1.6-1.9,2.5-4.1,2.6-6.9l0,0l0,0c0,0,0-0.7,0-1.6v-0.1v-59.5C414.1,140.7,399.3,140.5,399,140.5z"/>
<path class="st1" d="M399,144.1L399,144.1L399,144.1C399,144.1,399,144.1,399,144.1L399,144.1c-0.3,0-13.8,0.1-32.7-3.8v15.2
	c18.9,3.9,32.4,3.8,32.7,3.8v0c0,0,0,0,0,0l0,0v0c0.3,0,13.8,0.1,32.7-3.8v-15.2C412.8,144.2,399.3,144.1,399,144.1z"/>
<path class="st2" d="M399,159.3L399,159.3L399,159.3C399,159.3,399,159.3,399,159.3L399,159.3c-0.3,0-13.8,0.1-32.7-3.8v18.6v15.2
	c18.9,3.9,32.4,3.8,32.7,3.8v0c0,0,0,0,0,0l0,0v0c0.3,0,13.8,0.1,32.7-3.8v-15.2v-18.6C412.8,159.4,399.3,159.3,399,159.3z"/>
<path class="st1" d="M366.3,196.3L366.3,196.3c0.1,2.6,0.9,4.6,2.4,6.3c1,1.1,2.4,2.2,4.3,3.3c0.5,0.3,1.1,0.6,1.7,0.9
	c0.5,0.2,1,0.4,1.5,0.6v0l0,0c0.4,0.2,1.7,0.8,2.2,0.9l20.6,7.8v0l0,0l0,0v0l20.6-7.8c0.4-0.2,1.8-0.7,2.2-0.9l0,0v0
	c0.5-0.2,1-0.4,1.5-0.6c0.6-0.3,1.2-0.6,1.7-0.9c1.9-1.1,3.3-2.2,4.3-3.3c1.5-1.7,2.3-3.7,2.4-6.3l0,0l0,0c0,0,0-0.6,0-1.5v-0.1
	v-5.3c-18.9,3.9-32.4,3.8-32.7,3.8v0l0,0c0,0,0,0,0,0v0c-0.3,0-13.8,0.1-32.7-3.8v5.4C366.3,195.7,366.3,196.3,366.3,196.3
	L366.3,196.3z"/>
<polygon class="st3" points="377.8,143.9 379.4,148.4 384.2,148.5 380.3,151.4 381.8,156 377.8,153.2 373.9,156 375.4,151.4 
	371.5,148.5 376.3,148.4 "/>
<polygon class="st3" points="420.1,143.9 421.7,148.4 426.5,148.5 422.6,151.4 424.1,156 420.1,153.2 416.2,156 417.7,151.4 
	413.8,148.5 418.6,148.4 "/>
<polygon class="st3" points="399,145.6 400.5,150.2 405.4,150.3 401.5,153.1 402.9,157.7 399,154.9 395.1,157.7 396.5,153.1 
	392.6,150.3 397.5,150.2 "/>
<polygon class="st0" points="399,194.4 397.3,196.1 397.3,196.1 397.3,200.7 397.3,200.7 397.3,200.7 397.3,200.7 397.3,200.7 
	398.2,203.1 398.2,207.2 399.8,207.2 399.8,203.1 400.7,200.7 400.7,200.7 400.7,196.1 "/>
<polygon class="st0" points="399.8,210.9 399.8,208.4 398.2,208.4 398.2,210.9 397.3,212.5 399,214.6 400.7,212.5 "/>
<polygon class="st0" points="401,208.4 401,210.3 402.1,211.5 404.1,210 404.1,208.4 "/>
<polygon class="st0" points="403.1,200.8 401,203.1 401,207.2 402.7,207.2 402.7,204.7 404.3,203 404.3,203 406.3,204.3 407.6,203 
	407.6,200.8 "/>
<polygon class="st0" points="396.9,208.4 396.9,210.3 395.9,211.5 393.9,210 393.9,208.4 "/>
<polygon class="st0" points="394.9,200.8 396.9,203.1 396.9,207.2 395.3,207.2 395.3,204.7 393.7,203 393.7,203 391.7,204.3 
	390.4,203 390.4,200.8 "/>
<polygon class="st1" points="414.6,164.7 414.6,184.1 401.5,184.1 400.6,184.9 399,186.3 397.4,184.9 396.5,184.1 383.4,184.1 
	383.4,164.7 380.7,166.7 380.7,186.9 396,186.9 397.4,188 399,189.4 400.6,188 402,186.9 417.3,186.9 417.3,166.7 "/>
<polygon class="st1" points="401.1,163.1 400.6,163.5 399,164.9 397.4,163.5 396.9,163.1 386.2,163.1 386.2,181.4 396.9,181.4 
	397.7,182 399,183.2 400.3,182 401.1,181.4 411.8,181.4 411.8,163.1 "/>
<path class="st1" d="M420.2,168.8v12.4c3.5-0.5,7.4-1.2,11.5-2v-12.4C427.5,167.6,423.7,168.2,420.2,168.8z"/>
<path class="st1" d="M377.8,168.8c-3.5-0.5-7.4-1.2-11.5-2v12.4c4.1,0.9,8,1.5,11.5,2V168.8z"/>
<polygon class="st0" points="420.1,192.7 419,193.9 419,193.9 419,197.1 419,197.1 419,197.1 419,197.1 419,197.1 419.6,198.8 
	419.6,201.7 420.7,201.7 420.7,198.8 421.3,197.1 421.3,197.1 421.3,193.9 "/>
<polygon class="st0" points="420.7,204.3 420.7,202.6 419.6,202.6 419.6,204.3 419,205.4 420.1,206.9 421.3,205.4 "/>
<polygon class="st0" points="421.6,202.6 421.6,203.9 422.4,204.7 423.7,203.6 423.7,202.6 "/>
<polygon class="st0" points="423,197.3 421.6,198.8 421.6,201.7 422.7,201.7 422.7,200 423.9,198.8 423.9,198.8 425.3,199.7 
	426.2,198.8 426.2,197.3 "/>
<polygon class="st0" points="418.7,202.6 418.7,203.9 417.9,204.7 416.6,203.6 416.6,202.6 "/>
<polygon class="st0" points="417.3,197.3 418.7,198.8 418.7,201.7 417.6,201.7 417.6,200 416.4,198.8 416.4,198.8 415,199.7 
	414.1,198.8 414.1,197.3 "/>
<polygon class="st0" points="377.8,192.7 376.7,193.9 376.7,193.9 376.7,197.1 376.7,197.1 376.7,197.1 376.7,197.1 376.7,197.1 
	377.3,198.8 377.3,201.7 378.4,201.7 378.4,198.8 379,197.1 379,197.1 379,193.9 "/>
<polygon class="st0" points="378.4,204.3 378.4,202.6 377.3,202.6 377.3,204.3 376.7,205.4 377.8,206.9 379,205.4 "/>
<polygon class="st0" points="379.3,202.6 379.3,203.9 380.1,204.7 381.4,203.6 381.4,202.6 "/>
<polygon class="st0" points="380.7,197.3 379.3,198.8 379.3,201.7 380.4,201.7 380.4,200 381.6,198.8 381.6,198.8 383,199.7 
	383.9,198.8 383.9,197.3 "/>
<polygon class="st0" points="376.4,202.6 376.4,203.9 375.6,204.7 374.3,203.6 374.3,202.6 "/>
<polygon class="st0" points="375,197.3 376.4,198.8 376.4,201.7 375.3,201.7 375.3,200 374.1,198.8 374.1,198.8 372.7,199.7 
	371.8,198.8 371.8,197.3 "/>
<path class="st4" d="M353.1,425.2c0-8.4,3.3-13.2,7.9-13.2c5.7,0,8.8,7.3,8.8,15.2c0,9.6-3.4,13.1-7.8,13.1
	C356.4,440.3,353.1,434.1,353.1,425.2L353.1,425.2z M361.5,442.3c6.6,0,13.3-5.7,13.3-16.5c0-8.9-5.3-15.9-13.4-15.9
	c-6,0-13.5,5.3-13.5,16.9C348,434.3,352.7,442.3,361.5,442.3L361.5,442.3z"/>
<path d="M380.5,434.2c0,5-0.3,5.4-3.8,5.7v1.6h12.8v-1.6c-4.2-0.3-4.5-0.7-4.5-5.7v-6.9h4.5c3.6,0,3.7,0.2,4.1,3.9h1.4v-10h-1.4
	c-0.5,3.5-0.6,3.8-4.1,3.8h-4.5v-10.4c0-1.7,0.1-1.7,1.6-1.7h2.7c2.7,0,4,0.7,4.5,1.3c0.6,0.8,1.1,2.1,1.5,4.4l1.4-0.1
	c-0.2-3.1-0.4-6.3-0.5-7.7h-19.5v1.6c3.6,0.3,3.8,0.6,3.8,5.7V434.2L380.5,434.2z"/>
<path class="st4" d="M290.3,425.4c0-8.4,3.3-13.2,7.9-13.2c5.7,0,8.8,7.3,8.8,15.2c0,9.7-3.5,13.1-7.8,13.1
	C293.6,440.5,290.3,434.4,290.3,425.4L290.3,425.4z M298.7,442.6c6.6,0,13.4-5.7,13.4-16.6c0-8.9-5.3-15.9-13.4-15.9
	c-6,0-13.5,5.3-13.5,16.9C285.2,434.5,289.9,442.6,298.7,442.6L298.7,442.6z"/>
<path class="st4" d="M261.3,425.4c0-8.4,3.3-13.2,7.9-13.2c5.7,0,8.8,7.3,8.8,15.2c0,9.7-3.5,13.1-7.8,13.1
	C264.6,440.5,261.3,434.4,261.3,425.4L261.3,425.4z M269.8,442.6c6.6,0,13.4-5.7,13.4-16.6c0-8.9-5.3-15.9-13.4-15.9
	c-6,0-13.5,5.3-13.5,16.9C256.2,434.5,261,442.6,269.8,442.6L269.8,442.6z"/>
<path d="M221.7,419.6c-0.3-3.1-0.5-5.6-0.7-8.2c-1.4-0.4-4.2-1.2-8-1.2c-8.6,0-15.4,6.7-15.4,16.6c0,7.9,4.7,15.9,14.9,15.9
	c3.1,0,6.9-1,8.1-1.3c0.6-1.8,1.5-6,2.1-8.6l-1.4-0.3c-2.1,5.4-4.3,8.2-8.4,8.2c-6.1,0-10-5.9-10-14.8c0-7.7,3.4-13.6,9.6-13.6
	c3.9,0,6.7,1.7,7.9,7.6L221.7,419.6L221.7,419.6z"/>
<path d="M233.5,424.2v-5.9c0-5.1,0.3-5.4,4-5.7v-1.6h-12.5v1.6c3.8,0.3,4.1,0.6,4.1,5.7v16.2c0,5-0.3,5.4-4,5.7v1.6h12.2v-1.6
	c-3.5-0.3-3.8-0.7-3.8-5.7v-7.7h13.4v7.7c0,5-0.3,5.4-4.1,5.7v1.6h12.5v-1.6c-3.6-0.3-4-0.7-4-5.7v-16.2c0-5.1,0.3-5.4,4-5.7v-1.6
	h-12.5v1.6c3.8,0.3,4.1,0.6,4.1,5.7v5.9H233.5L233.5,424.2z"/>
<path d="M334.1,441.8c0.3-1.3,1.2-6.6,1.5-8.2l-1.5-0.2c-0.6,2.2-1.2,3.8-1.9,4.6c-0.9,1.2-2.7,1.7-4.9,1.7c-2.1,0-3.3-0.1-4.1-0.6
	c-0.8-0.5-1.1-1.9-1.1-4.6v-16.3c0-5.2,0.3-5.5,4.3-5.7v-1.6h-12.6v1.6c3.6,0.3,4,0.6,4,5.7v16.1c0,5.2-0.3,5.5-4.3,5.8v1.6H334.1
	L334.1,441.8z"/>
<path d="M174,430.9c0.5,3.4,1.1,7.8,1.5,9.5c0.6,0.3,1.5,0.8,2.8,1.3c1.3,0.5,3,0.9,4.9,0.9c6.5,0,11.4-5.7,11.4-13
	c0-7.8-5.5-10.6-8.8-12.5c-3.9-2.1-6.6-3.5-6.6-8.2c0-3.7,1.8-6.8,5.4-6.8c4.7,0,6.2,4.3,7.1,8l1.3-0.2c-0.4-3.8-0.7-6.3-0.9-8.5
	c-0.6-0.1-1.3-0.4-2-0.7c-1.1-0.4-2.8-0.8-4.3-0.8c-6.7,0-10.6,5.3-10.6,11.5c0,7.5,7,10.6,8.7,11.6c3.3,1.9,6.6,4,6.6,9.3
	c0,4.9-3,8-6.9,8c-5.4,0-7.5-6.9-8.3-9.8L174,430.9L174,430.9z"/>
<path class="st4" d="M483,410.8v1.6c3.4,0.3,3.7,0.6,3.7,5.7v16.1c0,5-0.3,5.4-4.1,5.7v1.6h11.1c9,0,16.6-5,16.6-16.5
	c0-4.3-1.5-7.9-3.4-10.1c-2.7-3-6.8-4.1-11.6-4.1H483L483,410.8z M491.1,415.6c0-1.3,0.1-2,0.4-2.3c0.3-0.3,1.4-0.6,2.8-0.6
	c6.8,0,10.9,3.9,10.9,13.6c0,7.9-3.2,13.2-10.1,13.2c-3.6,0-4-1-4-5V415.6L491.1,415.6z"/>
<path d="M520.6,418.1c0-5.1,0.3-5.4,4-5.7v-1.6h-12.3v1.6c3.6,0.3,4,0.6,4,5.7v16.1c0,5-0.3,5.4-4,5.7v1.6h12.3V440
	c-3.6-0.3-4-0.7-4-5.7V418.1L520.6,418.1z"/>
<path d="M550.3,419.4c-0.3-3.1-0.5-5.6-0.7-8.2c-1.4-0.4-4.2-1.2-8-1.2c-8.6,0-15.3,6.7-15.3,16.5c0,7.9,4.6,15.8,14.8,15.8
	c3.1,0,6.8-1,8-1.3c0.6-1.8,1.5-6,2.1-8.6l-1.4-0.3c-2.1,5.4-4.2,8.1-8.4,8.1c-6,0-10-5.9-10-14.8c0-7.7,3.4-13.5,9.6-13.5
	c3.9,0,6.7,1.7,7.9,7.6L550.3,419.4L550.3,419.4z"/>
<path d="M563,418.1c0-5.1,0.3-5.4,4-5.7v-1.6h-12.3v1.6c3.6,0.3,4,0.6,4,5.7v16.1c0,5-0.3,5.4-4,5.7v1.6h12.3V440
	c-3.6-0.3-4-0.7-4-5.7V418.1L563,418.1z"/>
<path d="M595.6,423.8c0-5,0.2-7.4,0.3-8.9c0.2-1.7,1.1-2.4,3.5-2.5v-1.6h-10.5v1.6c2.8,0.2,4.1,0.9,4.3,2.5c0.2,1.5,0.3,3.9,0.3,8.9
	v9.5h-0.1l-16.8-22.5h-7v1.6c3.8,0.3,4.7,1.4,4.7,6.9v9.2c0,5-0.2,7.4-0.3,8.8c-0.2,1.7-1.4,2.5-3.8,2.6v1.6h10.7V440
	c-2.8-0.2-4.1-1-4.2-2.6c-0.2-1.4-0.3-3.9-0.3-8.8v-10.1h0.1l17.2,23.4h1.8V423.8L595.6,423.8z"/>
<path d="M605.4,434.2c0,5.1-0.3,5.4-4.2,5.8v1.6h21.4c0.3-1.3,1.2-6.3,1.5-8.1l-1.5-0.2c-0.6,2.3-1.4,3.9-2,4.7
	c-0.9,1.1-2.7,1.5-5.1,1.5c-2.5,0-3.7-0.1-4.5-0.6c-0.8-0.5-1.1-2-1.1-4.7v-7.5h4.5c3.6,0,3.7,0.2,4.1,4h1.4v-10.1h-1.4
	c-0.5,3.5-0.6,3.8-4.1,3.8h-4.5v-9.8c0-1.7,0.1-1.7,1.6-1.7h3.2c2.7,0,4,0.7,4.5,1.4c0.6,0.7,1,2,1.4,4.4l1.4-0.1
	c-0.2-3.2-0.4-6.4-0.5-7.7h-19.8v1.6c3.6,0.3,3.6,0.6,3.6,5.7V434.2L605.4,434.2z"/>
<path d="M412.9,399.6v1.6c5,0.5,5.3,1.3,5,10.6l-0.6,11.4c-0.3,6.9-0.6,11.1-0.9,13.2c-0.4,2.6-1.5,3.3-4.4,3.6v1.6h12.4V440
	c-3.4-0.3-4.7-1-5-3.6c-0.2-2.2-0.2-6,0-12.5l0.5-15.4l12.3,32.4h1.3l13.1-33.4l0.2,24c0.1,7.8-0.1,8-4.5,8.5v1.6h15.5V440
	c-4.6-0.5-6.8,0.5-6.6-8.5l-0.4-21.8c-0.2-7.7,0.2-8,4.7-8.5v-1.6h-8.7l-12.6,32.6l-12.8-32.6H412.9L412.9,399.6z"/>
<path d="M462.5,434.2c0,5.1-1.1,5.4-5,5.8v1.6h22.2c0.3-1.3,1.2-6.3,1.5-8.1l-1.5-0.2c-0.6,2.3-1.4,3.9-2,4.7
	c-0.9,1.1-2.7,1.5-5.1,1.5c-2.5,0-3.7-0.1-4.5-0.6c-0.8-0.5-1.1-2-1.1-4.7v-7.5h4.5c3.6,0,3.7,0.2,4.1,4h1.4v-10.1h-1.4
	c-0.5,3.5-0.6,3.8-4.1,3.8H467v-9.8c0-1.7,0.1-1.7,1.6-1.7h3.2c2.7,0,4,0.7,4.5,1.4c0.6,0.7,1,2,1.4,4.4l1.4-0.1
	c-0.2-3.2-0.4-6.4-0.5-7.7h-20v1.6c3.6,0.3,3.8,0.6,3.8,5.7V434.2L462.5,434.2z"/>
</svg>
