<?xml version="1.0" encoding="utf-8"?>
<!-- Generator: Adobe Illustrator 25.2.3, SVG Export Plug-In . SVG Version: 6.00 Build 0)  -->
<svg version="1.1" id="Layer_1" xmlns="http://www.w3.org/2000/svg" xmlns:xlink="http://www.w3.org/1999/xlink" x="0px" y="0px"
	 viewBox="0 0 800 600" style="enable-background:new 0 0 800 600;" xml:space="preserve">
<style type="text/css">
	.st0{fill:#002169;stroke:#002169;stroke-width:0.5648;}
	.st1{fill:#002169;stroke:#002169;stroke-width:0.5327;}
	.st2{fill:#FFAC49;}
</style>
<g>
	<path class="st0" d="M248,255.5l-18.8,44.5h-4.8l-35.8-84.5c-2.8-6.7-4.7-12.7-12.4-12.7H174v-4.3c5.4,0,13.7,0.6,20.5,0.6
		c6,0,13.4-0.6,17.9-0.6v4.3h-1.3c-3.3,0-6.1,0.6-6.1,3.3c0,1.8,1.3,6.1,4.8,14.6l23.3,54.8l11.5-27.7l-17.8-41.1
		c-1.4-3.3-5-3.8-8.7-3.8v-4.3c6.7,0,13.4,0.6,20.1,0.6c5.3,0,10.4-0.6,15.6-0.6c4.6,0,9.1,0.6,13.7,0.6c4.3,0,8.5-0.6,12.8-0.6v4.3
		h-2c-7.1,0-8.8,2.7-12.4,10.8l-8.4,19.5l17.5,41.2l21.9-59.7c0.9-2.4,2.1-6,2.1-7.8c0-3.1-2.6-4-8.5-4h-1.7v-4.3
		c4.7,0,9.4,0.6,14.1,0.6c4.3,0,8.4-0.6,12.7-0.6v4.3H314c-4.3,0-6.7,4.8-8.4,9.2L272,300.1h-5L248,255.5z M259.6,213.2
		c1-2.7,1.8-4.6,1.8-6c0-3.6-3.3-4.3-8-4.3c-3.8,0-7,0.7-7,3.6c0,2.1,1.1,4.1,2.3,6.8l5.4,12.7h0.3L259.6,213.2z"/>
	<path class="st0" d="M348.7,282.3c-5.7,10-15.4,17.8-27.3,17.8c-17.9,0-27.6-16.5-27.6-32.7c0-17.9,12.1-35.4,31.4-35.4
		c14.6,0,22.6,10.8,22.3,24.9l-1.7,1.6h-38.4c0,14.5,6.7,28.9,22,28.9c6.8,0,12.4-2.6,16.9-7.7L348.7,282.3z M323.9,254.1
		c7.7,0,8.8-0.1,8.8-5.3c0-5.4-3.6-11.8-10-11.8c-8.7,0-13.5,8.3-15.1,17.1H323.9z"/>
	<path class="st0" d="M355.2,205.1c-3.3-1.3-6.4-2.4-9.5-3.4v-2.4c8-2.7,16.2-5.8,23.8-10l1.7,1.1V241c7-5.3,12.4-9.1,21.3-9.1
		c17.6,0,27,14.1,27,31.3c0,22-16.2,36.8-35.7,36.8c-8.5,0-16.4-2.3-20.5-5.4c-2,1.3-4.5,3.3-6.4,5.4l-2.3-1.4
		c0.4-4,0.6-7.8,0.6-11.8V205.1z M371.1,284.7c1.7,3.3,7.5,10.2,14.6,10.2c13.5,0,16.4-13.9,16.4-24.9c0-12.5-6-28.4-19.5-28.4
		c-4.7,0-8.2,1.9-11.5,4V284.7z"/>
	<path class="st0" d="M461,251.1c-0.7-8-3.7-14.1-12.8-14.1c-4.8,0-9.7,3-9.7,8.5c0,15.5,29.4,11.9,29.4,33.6
		c0,15.4-12.4,20.9-24.2,20.9c-6.8,0-11.9-2-16.8-3.7l-1.3-15.8l4-0.9c0.9,7.8,5.5,15.2,13.9,15.2c5.5,0,10.7-3.1,10.7-9.4
		c0-13.7-28.6-11.4-28.6-33.3c0-12.5,9.7-20.3,22.8-20.3c6.4,0,11.4,1.4,16.8,3.4c-0.4,5.1-0.7,10.1-0.3,15.1L461,251.1z"/>
	<path class="st0" d="M513.2,242h-16.9v39c0,6,3.6,7.7,7.5,7.7c3.6,0,5.7-0.9,8.4-2.6l1.8,2.4c-5.3,6.8-11.2,11.5-19.3,11.5
		c-10.8,0-14.4-6.8-14.4-14.7V242h-8.5v-3.4c7.7-4.1,16.4-12.2,22.8-20.3l1.7,0.9v14.9h16.9V242z"/>
	<path class="st0" d="M573.7,282.3c-5.7,10-15.4,17.8-27.3,17.8c-17.9,0-27.6-16.5-27.6-32.7c0-17.9,12.1-35.4,31.4-35.4
		c14.6,0,22.6,10.8,22.3,24.9l-1.7,1.6h-38.4c0,14.5,6.7,28.9,22,28.9c6.8,0,12.4-2.6,16.9-7.7L573.7,282.3z M548.9,254.1
		c7.7,0,8.8-0.1,8.8-5.3c0-5.4-3.6-11.8-10-11.8c-8.7,0-13.5,8.3-15.1,17.1H548.9z"/>
	<path class="st0" d="M598.3,290.4c0,3.3,3.8,3.3,10.5,3.3h2.1v4.3c-6.7-0.1-13.4-0.6-20.1-0.6c-6,0-11.8,0.4-17.8,0.6v-4.3h1.4
		c4.8,0,7.8-0.6,7.8-3.7v-38.7c0-4.7-0.9-6.1-4.4-6.7c-1.6-0.3-3-0.6-4.5-0.9v-3.4c7.5-1.4,15.2-4.7,23.3-8.4l1.6,0.9v9.8h0.3
		c2.6-4.1,9-10.7,16.4-10.7c4.8,0,9.1,2.3,9.1,8.4c0,5.4-3.6,8.4-8,8.4c-5.5,0-5.5-5.4-10-5.4c-3.4,0-7.8,2.7-7.8,9.7V290.4z"/>
</g>
<g>
	<g>
		<path class="st1" d="M246.8,327.3c-5.5,0-5.5,2.9-5.5,11.7c0,7,0,13.9,0,20.9c0,9.8-5.9,17.8-18,19.2
			c-11.3,1.3-18.2-4.1-18.4-17.4c0-9.5,0-19,0-28.5c0-5.5-2.6-5.5-6.3-5.6c0-0.7,0-1.4,0-2.1c3.2,0.1,6.4,0.1,9.5,0.1
			c3.2,0,6.3-0.1,9.8-0.2c0,0.7,0,1.3,0,2c-3.7,0.1-6.3,0.2-6.3,5.6c0,8.7,0,17.4,0,26.1c0,9.2,2.7,17.7,13.4,16.6
			c11.4-1.2,12.6-10.6,12.6-15.6c0-6.9,0-13.9,0-20.8c0-12-0.4-11.8-6.5-11.9c0-0.6,0-1.3,0-1.9c2.9,0.1,5.8,0.1,8.7,0.1
			c2.3,0,4.6-0.2,7-0.2C246.8,326.1,246.8,326.7,246.8,327.3z"/>
		<path class="st1" d="M297.2,372.3c-0.5,0-1.1,0.1-1.6,0.1c-12-11.9-24-24.3-35.9-37.5c0,8.7,0,17.5-0.1,26.2
			c0,9.7,0.7,11.6,8.2,11c0,0.6,0,1.2,0,1.8c-3,0.3-6.1,0.4-9.2,0.6c-3,0.3-6.1,0.6-9.2,1c0-0.6,0-1.2,0-1.9
			c4.2-0.4,7.4-0.7,7.4-9.6c0-9.5,0.1-18.9,0.1-28.4c0-6.1-2.5-8.2-8.5-8.2c0-0.6,0-1.2,0-1.9c2.1,0.1,4.2,0.1,6.3,0.1
			c1.9,0,3.8-0.2,5.7-0.2c2.8,4.3,9.2,10.6,17,18.9c5.8,6.2,12.3,12.6,17,17.3c0-8.8,0.1-17.7,0.1-26.5c0-6.1-1.4-8-8.3-8
			c0-0.6,0-1.2,0-1.8c3.2,0.1,6.4,0.1,9.6,0.1c2.7,0,5.3-0.2,8-0.2c0,0.6,0,1.1,0,1.7c-4.2,0-6.5,0.4-6.5,6.9
			C297.2,346.8,297.2,359.5,297.2,372.3z"/>
		<path class="st1" d="M312.9,331.8c0-4.5-2.6-4.6-6.3-4.6c0-0.6,0-1.1,0-1.7c3.2,0.1,6.4,0.1,9.5,0.1c3.2,0,6.3-0.1,9.8-0.2
			c0,0.6,0,1.1,0,1.7c-3.7,0.1-6.3,0.2-6.3,4.7c0,10.8-0.1,21.6-0.1,32.4c0,4.5,2.6,4.4,6.3,4.3c0,0.6,0,1.1,0,1.7
			c-3.3,0.2-6.3,0.2-9.3,0.4c-3.3,0.2-6.6,0.4-10,0.7c0-0.6,0-1.1,0-1.7c3.7-0.3,6.3-0.5,6.3-5C312.8,353.5,312.9,342.6,312.9,331.8
			z"/>
		<path class="st1" d="M340.7,344.2c-1.7-4-3.7-8.1-5.3-12.2c-1.6-3.8-2.7-5-7.2-5c0-0.6,0-1.1,0-1.7c3.2,0.1,6.5,0.1,9.7,0.1
			c2.9,0,5.9-0.1,8.8-0.1c0,0.5,0,1.1,0,1.6c-1,0.1-2,0.1-3,0.2c-1,0.1-1.8,0.6-1.8,1.5c0,2.1,3.6,9.7,4.4,11.5
			c3,7.1,6.1,14.2,9.1,21.2c1.8-4.2,3.5-8.3,5.3-12.4c1.7-4.1,3.6-8.1,5.1-12.1c0.7-2,2.2-5,2.2-7.1c0-2.9-2.8-2.7-5.2-2.8
			c0-0.5,0-1.1,0-1.6c2.7,0.1,5.5,0.1,8.1,0.1c2.1,0,4.3-0.1,6.4-0.1c0,0.5,0,1.1,0,1.6c-2.3,0-3.7,0.9-4.6,2.4
			c-0.4,0.7-5.1,11.4-5.3,11.7c-4.2,9.5-8.5,19.1-12.7,28.8c-0.9,0-1.7,0.1-2.6,0.1C348.3,361.4,344.5,352.9,340.7,344.2z"/>
		<path class="st1" d="M393.1,344.7c3,0,6.1,0,9.1,0c5.6,0,5.6-3.9,5.8-5.3c0.5,0,0.9,0,1.4,0c-0.1,1.3-0.3,4.7-0.3,6.9
			c0,2,0.3,4.8,0.3,6.8c-0.5,0-0.9,0-1.4,0c0-5.9-2.2-5.9-7.5-5.9c-2.5,0-4.9,0-7.4,0c0,3.5,0,7,0,10.4c0,6.8,0.3,8.5,7.1,8.5
			c1.4,0,2.9,0,4.3,0c6.8-0.3,9.8-1.1,12.5-7.7c0.6,0.1,1.1,0.2,1.7,0.3c-1.1,3.1-2.1,6.2-2.8,9.4c-6.9,0-13.8-0.1-20.7-0.1
			c-5.1,0-10.2,0.1-15.3,0.3c0-0.5,0-1.1,0-1.6c6-0.1,6.6-1.1,6.6-7c0-9.1,0-18.2,0-27.3c0-5-1.1-5.3-6.5-5.5c0-0.5,0-1.1,0-1.6
			c4.6,0.1,9.3,0.1,13.9,0.1c6.6,0,13.2,0,19.9-0.1c0,3,0,6.1,0,9.1c-0.5,0.1-0.9,0.2-1.4,0.3c-1-5.8-4.1-7.5-11-7.5
			c-2.7,0-5.4,0-8.1,0C393.1,333,393.1,338.8,393.1,344.7z"/>
		<path class="st1" d="M435.3,347.9c0,4.8,0,9.5,0,14.3c0,4.3,2.6,4.4,6.3,4.5c0,0.5,0,1.1,0,1.6c-3.3-0.1-6.3-0.2-9.3-0.3
			c-3.3,0-6.6,0-10,0c0-0.5,0-1.1,0-1.6c3.5,0.2,6.3-0.6,6.3-4.1c0-10.4,0-20.7,0-31.1c0-4.3-2.6-4.4-6.3-4.4c0-0.5,0-1.1,0-1.6
			c3.8,0.1,7.1,0.1,10.5,0.1c2.4,0,4.8-0.1,9.2-0.1c13,0,15.9,6.6,16,11c0,5.3-4.4,9.1-9.8,10.5c6.3,8.3,9.6,13.4,12.6,16.4
			c2.2,2.3,4.3,4,7.8,4.2c0,0.5,0,1.1,0,1.6c-1.7-0.1-3.5-0.2-5.2-0.3c-1.9-0.1-3.9-0.1-5.9,0c-6.3-6.4-10.9-13.7-15.9-20.7
			C439.5,347.9,437.4,347.9,435.3,347.9z M439.4,327.2c-1.7,0-2.9,0.2-4.1,0.4c0,6,0,12,0,18c1,0.2,2.5,0.3,3.7,0.3
			c8.5,0.1,11.8-4.9,11.8-9.4C450.8,331.2,447.6,327.3,439.4,327.2z"/>
		<path class="st1" d="M472.8,358.8c0.5,0,1.1,0,1.6,0c1.2,4.7,5.1,9.5,10.8,9.7c5.3,0.2,9.4-3,9.4-8.1c0-11.9-20.5-9-20.5-23.8
			c0-8.1,6.3-12.3,14.7-12.3c2.8,0,5.7,0.6,8.4,1c0.4,2.7,0.8,5.5,1.1,8.2c-0.5,0-1.1,0-1.6,0c-0.8-4.5-3.9-7.1-8.9-7.2
			c-5.2,0-8.3,3.5-8.3,8.1c0,11.7,21.3,8.9,21.3,23.8c0,8.4-8,12.7-16.2,12.3c-3.6-0.2-7.3-1.1-10.6-2.6
			C473.8,364.9,473.3,361.8,472.8,358.8z"/>
		<path class="st1" d="M512.2,331.8c0-4.6-2.6-4.6-6.3-4.7c0-0.6,0-1.1,0-1.7c3.2,0.1,6.4,0.2,9.5,0.2c3.2,0,6.3-0.1,9.8-0.1
			c0,0.6,0,1.2,0,1.7c-3.7,0.1-6.3,0.1-6.3,4.7c0,11,0.1,22.1,0.1,33.1c0,4.6,2.6,4.8,6.3,5.1c0,0.6,0,1.2,0,1.7
			c-3.3-0.2-6.3-0.5-9.3-0.7c-3.3-0.2-6.6-0.3-10-0.5c0-0.6,0-1.1,0-1.7c3.7,0.1,6.3,0.2,6.3-4.4
			C512.2,353.7,512.2,342.7,512.2,331.8z"/>
		<path class="st1" d="M571.2,335c-0.6,0-1.2,0-1.9,0c-0.2-3.8,0-6.4-5.5-6.5c-3.5,0-7-0.1-10.5-0.1c0,12.9,0.1,25.8,0.1,38.8
			c0,4.9,2.6,5.1,6.3,5.5c0,0.6,0,1.2,0,1.8c-3.3-0.3-6.3-0.7-9.3-0.9c-3.3-0.3-6.6-0.4-10-0.6c0-0.6,0-1.2,0-1.8
			c3.7,0.2,6.3,0.3,6.3-4.5c0-12.8-0.1-25.6-0.1-38.3c-3,0-6,0-9-0.1c-6.2,0-6.5,1.6-7.6,6c-0.6,0-1.2,0-1.8,0
			c0.2-3.5,0.5-7.1,0.7-10.6c0.5,0,0.9,0,1.4,0c0.8,1.8,2.6,1.9,4.4,1.9c10.4,0,20.9,0.1,31.3,0.1c2.5,0,4.2-0.6,4.5-2
			c0.5,0,1,0,1.4,0C571.6,327.4,571.4,331.2,571.2,335z"/>
		<path class="st1" d="M603.2,371.2c0,5.3,2.6,5.7,6.3,6.2c0,0.7,0,1.3,0,2c-3.4-0.5-6.6-0.9-9.8-1.2c-3.1-0.3-6.3-0.6-9.5-0.9
			c0-0.6,0-1.3,0-1.9c3.6,0.3,6.3,0.5,6.3-4.8c0-6,0-12.1,0-18.1c-4.8-7.5-9.6-14.7-14.4-21.8c-2-3-2.4-2.9-6.4-3.3
			c0-0.6,0-1.3,0-1.9c1.3,0.1,6.4,0.2,9.6,0.2c2.8,0,5.6-0.1,8.4-0.1c0,0.6,0,1.3,0,1.9c-1.1,0-3.9,0-3.9,1.5c0,0.9,1,2.6,2.3,4.6
			c3.2,4.9,6.5,10,9.7,15.1c3-4.4,6-8.8,9-13.3c0.8-1.3,2.7-3.7,2.7-5.5c0-2.2-1.4-2.3-4.9-2.3c0-0.7,0-1.3,0-2
			c2.6,0.1,5.3,0.2,7.9,0.2c1.9,0,3.7-0.1,5.7-0.1c0,0.7,0,1.4,0,2.1c-2.9,0.1-4.2,2.2-5.7,4.5c-4.4,6.6-8.8,13.1-13.1,19.4
			C603.2,358.1,603.2,364.6,603.2,371.2z"/>
	</g>
</g>
<g>
	<path class="st2" d="M408.5,391.9c-67.8,0-134,7.9-178,18.1h360.6C547.9,399.5,477.5,392,408.5,391.9z"/>
</g>
</svg>
