<?xml version="1.0" encoding="utf-8"?>
<!-- Generator: Adobe Illustrator 25.2.1, SVG Export Plug-In . SVG Version: 6.00 Build 0)  -->
<svg version="1.1" id="Layer_1" xmlns="http://www.w3.org/2000/svg" xmlns:xlink="http://www.w3.org/1999/xlink" x="0px" y="0px"
	 viewBox="0 0 194.1 129.8" style="enable-background:new 0 0 194.1 129.8;" xml:space="preserve">
<style type="text/css">
	.st0{fill:#5F6062;}
	.st1{fill:#BCE4E5;}
</style>
<g>
	<g>
		<polygon class="st0" points="0,98.1 24.3,98.1 24.3,55.3 56.8,55.3 56.8,98.1 81.1,98.1 81.1,0 56.8,0 56.8,32.1 24.3,32.1 
			24.3,0 0,0 		"/>
		<polygon class="st0" points="126,98.1 126,0 149.2,0 149.2,76 194,76 194,98.1 		"/>
	</g>
	<g>
		<path class="st1" d="M177.6,52c2.6,5,0.7,11.1-4.2,13.7c-5,2.6-11.1,0.7-13.7-4.2c-2.6-5-0.7-11.1,4.2-13.7
			C168.8,45.2,175,47.1,177.6,52"/>
		<path class="st1" d="M177.6,24.7c2.6,5,0.7,11.1-4.2,13.7s-11.1,0.7-13.7-4.2c-2.6-5-0.7-11.1,4.2-13.7
			C168.8,17.9,175,19.7,177.6,24.7"/>
		<path class="st1" d="M117.1,94.2c-15.3,8.4-34.5,2.8-42.9-12.5s-2.8-34.6,12.5-43C96.5,56.6,98.7,60.6,117.1,94.2"/>
		<path class="st1" d="M126,98.1h24.5L97.1,0c-10.5,7.2-11.4,23.5-5.6,34.9L126,98.1z"/>
	</g>
	<g>
		<path class="st0" d="M0,112.3h5.9c3.8,0,6.3,1.5,6.3,4.9c0,3.6-2.8,5-6.4,5H2.1v7.2H0V112.3z M5.9,120.4c2.8,0,4.3-0.8,4.3-3.1
			c0-2.2-1.5-3.1-4.3-3.1H2.1v6.2L5.9,120.4L5.9,120.4z"/>
		<path class="st0" d="M29.2,112.3h2.2l6.2,17.2h-2.1l-1.7-4.9h-6.9l-1.7,4.9h-2L29.2,112.3z M33,122.8l-2.8-8h-0.1l-2.8,8H33z"/>
		<path class="st0" d="M49.5,112.3h6c4,0,6.2,1.6,6.2,4.8c0,2.8-1.6,4.2-4.1,4.7l4.3,7.6h-2.3l-4.2-7.4h-3.9v7.4h-2.1L49.5,112.3
			L49.5,112.3z M55.4,120.3c2.7,0,4.3-0.7,4.3-3.1c0-2.2-1.5-3-4.3-3h-3.8v6.1L55.4,120.3L55.4,120.3z"/>
		<path class="st0" d="M78.7,114.2h-5.5v-1.9h13.2v1.9h-5.6v15.2h-2.1V114.2z"/>
		<path class="st0" d="M99.8,112.3h2.2l9.2,13.5h0.1v-13.5h2v17.1h-1.9l-9.5-13.9h-0.1v13.9h-2L99.8,112.3L99.8,112.3z"/>
		<path class="st0" d="M129.4,112.3h10.7v1.9h-8.6v5.3h6.4v1.8h-6.4v6.2h9.1v1.9h-11.2V112.3z"/>
		<path class="st0" d="M155.6,112.3h6c4,0,6.2,1.6,6.2,4.8c0,2.8-1.6,4.2-4.1,4.7l4.3,7.6h-2.3l-4.2-7.4h-3.9v7.4h-2L155.6,112.3
			L155.6,112.3z M161.5,120.3c2.7,0,4.3-0.7,4.3-3.1c0-2.2-1.5-3-4.3-3h-3.8v6.1L161.5,120.3L161.5,120.3z"/>
		<path class="st0" d="M181.2,125.3l1.8-0.8c0.9,2.3,2.6,3.4,5,3.4c2.5,0,4.1-1,4.1-2.8c0-1.7-0.9-2.5-4.4-3.6
			c-3.6-1.1-5.8-2.1-5.8-5c0-2.6,2.3-4.5,5.6-4.5s5.3,1.7,6.2,3.8l-1.6,0.9c-0.9-2.1-2.5-2.9-4.5-2.9c-2.2,0-3.5,1.1-3.5,2.5
			c0,1.8,1.2,2.4,4.6,3.5c3.5,1.1,5.6,2.2,5.6,5.1c0,2.8-2.5,4.8-6.2,4.8C184.5,129.8,182.2,128,181.2,125.3z"/>
	</g>
</g>
</svg>
