<svg width="112" height="43" viewBox="0 0 112 43" fill="none" xmlns="http://www.w3.org/2000/svg">
<g clip-path="url(#clip0)">
<path d="M33.0563 24.0727L30.9761 25.8219C30.9761 25.8219 30.9555 25.8424 30.928 25.7741C30.928 25.7809 30.6122 25.1181 30.9624 24.5851C31.3262 24.018 31.999 23.7583 32.713 23.9223C32.713 23.9223 32.9464 23.9838 33.0563 24.0727ZM22.9025 29.6347L27.6396 26.512C27.6396 26.512 28.1819 27.8581 29.2461 28.4799L22.9025 29.6347ZM40.2991 25.7946L40.306 25.8151C40.4433 26.1977 40.711 26.3275 40.7179 26.3412L37.3059 26.9767L41.5417 23.1365L41.7614 23.526C41.7614 23.5397 42.4068 24.6193 40.9719 24.8995C40.6149 25.0156 40.1756 25.1591 40.2991 25.7946ZM50.6794 22.0159C50.6794 22.0159 50.6588 22.2141 50.6245 22.4396C50.5421 23.1229 50.2675 24.5715 50.2675 24.5715C48.8945 24.8653 47.6587 25.0908 46.4641 25.2889C46.4641 25.2889 46.6632 24.8038 46.7937 24.5305C46.8005 24.5305 49.9929 22.4532 50.6794 22.0159ZM54.881 23.731L53.7825 23.9428C53.7963 23.8745 53.9061 23.2664 53.9542 23.1434C53.9542 23.1365 54.421 23.6627 54.881 23.731ZM57.0298 21.36C56.7689 21.6948 56.3845 21.8519 55.9451 21.8041C55.4302 21.7358 54.9496 21.36 54.7025 20.827C54.5171 20.3487 54.5377 19.6722 54.9428 19.3101C55.3341 19.0163 56 19.0163 56.46 19.3169C56.8925 19.6107 57.1259 20.13 57.1259 20.13C57.2975 20.499 57.2564 21.0525 57.0298 21.36ZM60.3045 22.7471C60.3251 22.7129 60.9567 22.3781 61.2382 21.5445C61.2451 21.524 64.0392 19.6381 64.0392 19.6381C64.0392 19.6381 64.6502 21.3463 65.5427 21.7631L60.3045 22.7471ZM69.5246 19.2417C69.2568 19.5219 68.8587 19.6176 68.4261 19.5082C68.0623 19.3989 67.719 19.1461 67.5474 18.7224L67.5062 18.5994C67.3964 18.2715 67.4307 17.7795 67.7053 17.5198C68.0142 17.2192 68.5291 17.144 68.9685 17.349C69.2568 17.4925 69.5314 17.7795 69.6482 18.0596C69.8404 18.4354 69.7717 18.9616 69.5246 19.2417ZM72.7032 19.7405C72.7032 19.7405 73.2112 20.212 73.4584 20.3077L72.305 20.5332C72.6414 20.1505 72.7032 19.7405 72.7032 19.7405ZM82.1429 20.089C81.8271 19.7405 81.5594 19.3306 81.3878 18.9274L81.3603 18.8591C81.3603 18.8591 81.2779 18.7361 81.1543 18.8044L81.1063 18.8249C80.8523 18.9343 80.1726 19.0914 80.0765 19.1051C80.0559 19.1051 79.4586 18.7019 79.4586 18.7019C79.0536 18.4559 78.6348 18.1963 78.2091 17.964L78.1199 17.9161L78.0444 17.9776C77.9895 18.0186 77.9345 18.0596 77.8865 18.1006C77.6462 18.3261 77.3373 18.4491 77.3441 18.4491C76.891 18.5858 76.4928 18.3125 76.4928 18.3125C75.8681 17.964 75.9024 17.2123 75.9024 17.2123L76.5203 14.4313L76.5272 14.3903C76.5272 14.3903 76.5889 14.1717 76.4516 14.1443L76.3349 14.1512C75.5454 14.2058 74.7216 14.199 73.9184 14.1853L72.9778 14.1785C72.9778 14.1785 72.511 14.2605 72.4698 14.7661C72.4561 14.8345 72.4423 14.9028 72.4217 14.9643H72.4149C71.8245 14.6363 71.234 14.3357 70.5475 14.1922C67.108 13.1125 64.9249 16.3651 64.9249 16.3651C64.767 16.5427 64.6571 16.7409 64.5541 16.9322C64.2452 17.431 64.0736 17.5745 64.0736 17.5745C63.9088 17.677 61.3618 19.2691 61.348 19.2759C61.3343 19.2827 60.7027 17.0757 58.5402 16.3514C56.0824 15.7023 53.556 16.4675 51.414 18.5038L51.3865 18.5311L51.3728 18.5653C51.3179 18.7224 51.1806 19.4194 51.1806 19.4194C50.5353 19.8567 49.883 20.3214 49.2583 20.7655C48.4551 21.3326 46.7937 22.4806 46.7937 22.4806C46.7868 22.4737 46.3612 20.4238 44.789 19.0709C44.5899 18.9206 44.1986 18.6336 43.8897 18.6063L43.8279 18.5994L43.7798 18.6404C43.7798 18.6404 35.1021 26.2114 35.109 26.2114C34.1616 26.84 33.1387 26.5052 33.1387 26.5052L36.4889 23.5602L36.7155 23.3757L36.8116 23.3005L36.7567 23.1912C36.537 22.7471 36.2898 22.2824 35.974 21.8998C34.9305 20.4717 32.864 19.8635 30.9555 20.4375C29.0882 21.0115 27.8936 22.8222 27.5297 24.387C27.5297 24.4075 20.3349 29.1359 20.3349 29.0881C20.3624 27.9743 20.5752 26.9289 20.9803 25.9517C22.0101 23.321 24.8248 21.3121 27.3924 21.3736H27.4268C27.5229 21.3531 27.6053 21.2985 27.6533 21.2096C27.7014 21.114 27.7082 20.9978 27.667 20.8885L27.6464 20.8475C26.8707 19.8909 26.1704 18.7908 25.4427 17.4105L25.3878 17.3148L25.2848 17.3353C24.1726 17.5267 23.0948 18.1895 22.4014 18.7703C19.6553 21.073 18.1861 24.2503 18.0076 28.2408C18.0007 28.3843 15.9961 24.7491 15.543 22.3166C15.0281 20.0002 15.6528 17.3353 17.122 15.5246C17.2662 15.3196 17.4309 15.1283 17.5957 14.9506C17.8085 14.7115 18.0282 14.4655 18.1861 14.1853L18.241 14.0828L18.1655 14.0008C16.9504 12.7026 16.1746 11.5956 15.7146 10.5092C15.6597 10.3862 15.6116 10.2564 15.5704 10.1265C15.5018 9.93521 15.4331 9.73022 15.3302 9.55256L15.2615 9.4364L15.1379 9.49106C14.6574 9.69605 14.1768 10.0104 13.6688 10.475C11.4444 12.5796 10.394 15.1078 10.5519 17.9845C10.7991 22.3234 13.0234 26.5052 17.2044 30.6733L13.2843 31.425L13.1951 31.4455L13.1745 31.5343C12.9479 32.4157 12.4879 33.2289 11.7602 34.0283L11.7533 34.0352L11.7465 34.042C11.7053 34.1035 11.6298 34.206 11.6641 34.3221C11.6847 34.3905 11.7327 34.4383 11.8014 34.4656L11.8426 34.4861L11.8838 34.4793L49.883 27.0108L49.6565 28.5893L49.835 28.5619C50.549 28.4458 51.2561 28.3091 51.9426 28.1725L52.8694 27.988L53.0891 27.9401L53.1166 27.8035L53.3843 26.3344L81.9507 20.7245L82.0056 20.7108L82.1155 20.6903C82.342 20.6288 82.2734 20.2189 82.2734 20.2189L82.1429 20.089Z" fill="white"/>
<path d="M3.81803 21.4966C3.8043 14.4449 6.62592 7.67345 11.6444 2.67853L8.95325 0C-2.97859 11.8621 -2.97859 31.1106 8.93952 42.9795L8.95325 42.9932L11.6444 40.3146C6.62592 35.3197 3.8043 28.5551 3.81803 21.4966Z" fill="white"/>
<path d="M81.7722 0.00683594L79.0604 2.68537C89.5025 13.0578 89.5163 29.9012 79.0948 40.2737C79.081 40.2873 79.081 40.2873 79.0604 40.3078L81.7722 42.9863C93.7041 31.1311 93.7041 11.8826 81.7722 0.00683594C81.7928 0.00683594 81.7722 0.00683594 81.7722 0.00683594Z" fill="white"/>
<path d="M93.4775 12.1764H91.514V0.840454H94.267C96.4707 0.840454 97.5966 1.76974 97.5966 4.18862C97.5966 6.00619 96.8827 6.74416 96.2167 7.04481L97.8781 12.1695H95.8803L94.4867 7.48212C94.1503 7.50945 93.8139 7.52995 93.4706 7.52995V12.1764H93.4775ZM93.4775 5.93786H94.1709C95.235 5.93786 95.64 5.54155 95.64 4.19545C95.64 2.84935 95.235 2.45304 94.1709 2.45304H93.4775V5.93786Z" fill="white"/>
<path d="M99.0246 12.1764V0.840454H104.311V2.54187H101.009V5.45272H103.549V7.15414H101.009V10.4818H104.531V12.1764H99.0246Z" fill="white"/>
<path d="M105.972 0.840454H108.89C110.915 0.840454 112 1.93373 112 4.26378V8.75306C112 11.0694 110.915 12.1764 108.89 12.1764H105.972V0.840454ZM107.929 10.5775H108.615C109.659 10.5775 110.037 10.1811 110.037 8.99221V4.03146C110.037 2.84252 109.673 2.44621 108.615 2.44621H107.929V10.5775Z" fill="white"/>
</g>
<defs>
<clipPath id="clip0">
<rect width="112" height="43" fill="white"/>
</clipPath>
</defs>
</svg>
