<?xml version="1.0" encoding="utf-8"?>
<!-- Generator: Adobe Illustrator 25.2.1, SVG Export Plug-In . SVG Version: 6.00 Build 0)  -->
<svg version="1.1" id="Layer_1" xmlns="http://www.w3.org/2000/svg" xmlns:xlink="http://www.w3.org/1999/xlink" x="0px" y="0px"
	 viewBox="0 0 414.5 126.1" style="enable-background:new 0 0 414.5 126.1;" xml:space="preserve">
<style type="text/css">
	.st0{display:none;fill:#FFFFFF;enable-background:new    ;}
	.st1{font-family:'Neutraface2Display-Bold';}
	.st2{font-size:43.5px;}
	.st3{letter-spacing:3;}
	.st4{fill:#FFFFFF;}
	.st5{fill:none;}
	.st6{fill:#FFFEFE;}
	.st7{fill:#C7CCD3;}
</style>
<g>
	<text transform="matrix(1 0 0 1 119.55 105.9056)" class="st0 st1 st2 st3">BALANCE</text>
	<text transform="matrix(1 0 0 1 119.55 54.6099)" class="st0 st1 st2 st3">KONQUERED</text>
	<g>
		<path class="st4" d="M122.8,76.3h10.5c5.9,0,8.8,3.4,8.8,7.7c0,3-1.6,5.4-4.4,6.2c3.6,0.8,5.8,3.1,5.8,7.3c0,4.8-3.2,8.4-9.4,8.4
			h-11.3L122.8,76.3L122.8,76.3z M133,88.6c3.1,0,4.5-1.7,4.5-4.2s-1.3-4.1-4.6-4.1h-5.6v8.3C127.3,88.6,133,88.6,133,88.6z
			 M133.8,101.9c3.4,0,5-2,5-4.7c0-2.9-1.8-4.8-5.3-4.8h-6.1v9.5H133.8z"/>
		<path class="st4" d="M168.7,100.4h-12l-2.3,5.5h-4.7l13-30.2h0.3l13,30.2h-4.9L168.7,100.4z M158.4,96.3h8.6l-4.3-10.4L158.4,96.3
			z"/>
		<path class="st4" d="M184.5,76.3h4.7v25.4h13.1v4.1h-17.7V76.3H184.5z"/>
		<path class="st4" d="M227.9,100.4h-12l-2.3,5.5h-4.7l13-30.2h0.3l13,30.2h-4.9L227.9,100.4z M217.6,96.3h8.6l-4.3-10.4L217.6,96.3
			z"/>
		<path class="st4" d="M248,86.5v19.4h-4.4v-30h0.3l19,19.9V76.3h4.4v30H267L248,86.5z"/>
		<path class="st4" d="M276.6,91.1c0-8.7,6.7-15.2,15.1-15.2c5.5,0,9.3,2.1,11.8,5.7l-3.6,2.5c-2-2.7-4.5-4-8.4-4
			c-5.9,0-10.1,4.7-10.1,11c0,6.4,4.4,11,10.3,11c3.8,0,6.7-1.4,8.9-4.3l3.6,2.5c-3,4-6.9,6-12.7,6
			C283.1,106.3,276.6,99.9,276.6,91.1z"/>
		<path class="st4" d="M313.3,76.3h18.8v4.1h-14.2v8.5h12.6v4h-12.6v8.8h14.8v4.1h-19.4L313.3,76.3L313.3,76.3z"/>
	</g>
	<g>
		<path class="st4" d="M133.8,37.7l12,16.9h-5.7l-9.4-13.4l-3.3,3.9v9.4h-4.7V25h4.7v14.3L139.1,25h5.2L133.8,37.7z"/>
		<path class="st4" d="M149.9,39.8c0-8.7,6.8-15.2,15.3-15.2s15.3,6.4,15.3,15.2S173.6,55,165.1,55C156.7,55,149.9,48.6,149.9,39.8z
			 M175.6,39.8c0-6.3-4.3-11-10.4-11s-10.4,4.7-10.4,11s4.3,11,10.4,11S175.6,46.1,175.6,39.8z"/>
		<path class="st4" d="M194.1,35.2v19.4h-4.4v-30h0.3l19,19.9V25h4.4v30h-0.3L194.1,35.2z"/>
		<path class="st4" d="M240.2,60h-4.4v-5.2c-7.4-1-13.1-7-13.1-15c0-8.7,6.8-15.1,15.3-15.1s15.3,6.4,15.3,15.1c0,8-5.6,14-13.1,15
			V60z M235.8,46h4.4v4.7c4.9-1,8.2-5.3,8.2-10.9c0-6.3-4.3-10.9-10.4-10.9s-10.4,4.7-10.4,10.9c0,5.6,3.3,9.9,8.2,10.9V46z"/>
		<path class="st4" d="M262.4,44.2V25h4.7v18.9c0,4.7,2.3,6.9,6.7,6.9c4.3,0,6.6-2.1,6.6-6.9V25h4.7v19.1c0,7.2-4.9,10.8-11.3,10.8
			C267.3,55,262.4,51.4,262.4,44.2z"/>
		<path class="st4" d="M295.6,25h18.8v4.1h-14.2v8.5h12.6v4h-12.6v8.8H315v4.1h-19.4L295.6,25L295.6,25z"/>
		<path class="st4" d="M329.5,54.6h-4.7V25h9.5c6.9,0,10.9,3.8,10.9,9.4c0,4.1-2,7.1-5.7,8.4l7.1,11.7h-5.1l-6.6-10.9h-0.6h-4.8
			L329.5,54.6L329.5,54.6z M334.2,39.7c4.4,0,6.2-1.7,6.2-5.3s-1.9-5.3-6.2-5.3h-4.7v10.5L334.2,39.7L334.2,39.7z"/>
		<path class="st4" d="M355.2,25H374v4.1h-14.2v8.5h12.6v4h-12.6v8.8h14.8v4.1h-19.4L355.2,25L355.2,25z"/>
		<path class="st4" d="M384.5,25h8.4c9.7,0,15.6,6,15.6,14.8s-5.9,14.8-15.6,14.8h-8.4V25z M392.6,50.5c7.7,0,11-4.4,11-10.7
			s-3.4-10.7-11-10.7h-3.4v21.3h3.4V50.5z"/>
	</g>
	<g id="logo">
		<path class="st5" d="M27.8,67.4c-0.5-0.5-1.6-1.4-2.2-2C25.7,65.5,27.1,66.8,27.8,67.4z"/>
		<path class="st5" d="M69.5,65.4c-0.6,0.6-1.7,1.5-2.2,2C68.1,66.8,69.5,65.5,69.5,65.4z"/>
		<path class="st6" d="M94.5,40c-3.4-3.2-6.9-6.4-10.3-9.6c-0.2-0.2-0.4-0.5-0.8-0.5c-0.2,3.6-0.9,7-2.5,10.3
			c-0.9,1.8-2,3.4-3.7,4.5c-2.7,1.9-5.7,2.7-9,2.3c-0.6-0.1-1.2-0.2-1.8-0.3c-0.4-0.1-0.9,0-0.9-0.4l0,0c-0.2,2.1-0.4,4.1-0.4,6.2
			c0,1.4-0.5,2.5-1.5,3.5c-0.6,0.6-1.1,1.2-1.6,1.8c-0.3-0.2-0.2-0.3-0.2-0.5c-0.2-3.6-0.3-7.2-0.4-10.7c0-0.7-0.3-1.2-0.8-1.6
			c-2-1.8-3.9-3.7-5.4-6c-0.8-1.3-1.5-2.7-1.7-4.2c-0.2-1.2,0-2.2,0.6-3c0.7,1.2,1.3,2.5,2,3.7c0.8,1.3,1.6,2.6,2.7,3.7
			c0.5,0.5,1,0.9,1.6,1.1c0.8,0.3,1,0.1,1.2-0.7c0.4-1.5,0.7-3,1.1-4.5c0.2-0.8,0.2-1.6,0.6-2.2c0.4-0.6,1.3-0.8,2-1.2
			c5.6-2.9,11.2-5.8,16.8-8.6c0.7-0.3,1-0.7,1.1-1.5c0.1-1.5,0.1-3.1-0.1-4.6c-0.7-5.5-3.2-10-7.8-13.2c-2.4-1.7-5-2.7-7.8-3.5
			c-0.9-0.2-1.6-0.1-2.4,0.2c-5.6,2.7-11.2,5.4-16.8,8.1c-0.3,0.1-0.5,0.2-0.8,0.3c-0.2,0-0.5-0.1-0.8-0.3C41.2,5.7,35.6,3.1,30,0.4
			c-0.8-0.4-1.5-0.5-2.4-0.2C24.8,1,22.2,2,19.8,3.7c-4.6,3.2-7.1,7.7-7.8,13.2c-0.2,1.5-0.2,3.1-0.1,4.6c0.1,0.8,0.4,1.2,1.1,1.5
			c5.6,2.9,11.2,5.7,16.8,8.6c0.7,0.4,1.6,0.5,2,1.2c0.4,0.6,0.5,1.5,0.6,2.2c0.4,1.5,0.7,3,1.1,4.5c0.2,0.8,0.4,0.9,1.2,0.7
			c0.6-0.2,1.1-0.6,1.6-1.1c1.1-1.1,2-2.4,2.7-3.7c0.7-1.2,1.3-2.5,2-3.7c0.6,0.8,0.8,1.8,0.6,3c-0.3,1.6-0.9,2.9-1.7,4.2
			c-1.5,2.3-3.3,4.2-5.4,6c-0.5,0.5-0.8,0.9-0.8,1.6c-0.1,3.6-0.3,7.2-0.4,10.7c0,0.1,0,0.3-0.2,0.5c-0.5-0.6-1-1.2-1.6-1.8
			c-1-1-1.5-2.1-1.5-3.5c-0.1-2.1-0.2-4.1-0.4-6.2l0,0c0,0.4-0.5,0.3-0.9,0.4c-0.6,0.1-1.2,0.2-1.8,0.3c-3.3,0.5-6.3-0.3-9-2.3
			c-1.7-1.2-2.8-2.8-3.7-4.5c-1.6-3.2-2.3-6.7-2.5-10.3c-0.4,0-0.5,0.3-0.8,0.5C7.5,33.5,4,36.8,0.6,40c-0.3,0.3-0.7,0.5-0.6,1
			c0.4,0.2,0.7,0.4,1,0.7c0.9,0.9,1.9,1.7,3,2.5c3.4,2.6,7,5.1,11,6.7c3,1.2,6.2,2.2,9.5,1.6c0.1,0,0.3-0.1,0.3-0.1
			c0.5-0.2,0.9-0.5,0.7-0.2c-0.1,0.2-0.6,1.1-0.7,1.3c-2.1,3.5-4.2,6.9-6.7,10.1c-0.7,1-1.4,2.1-2.4,2.8c-0.3,1.8-0.4,3.6-0.6,5.4
			C15,73,15,74,14.8,75.1c-0.1,0.6,0.1,0.7,0.6,0.9c3.2,0.7,6.4,1.5,9.6,2.3c0.3,0.1,0.7,0.1,1.1,0.4C25,79,23.9,79,22.8,79.1
			c-2.3,0.3-4.7,0.5-7.1,0.7c-1.4,0.1-2,0.7-2.1,2.1c-0.2,1.8,0.8,3.1,2,4.2c0.2,0.2,0.5,0.1,0.8,0.1c3.6-0.6,7.2-1.2,10.8-1.8
			c0.3,0,0.6-0.1,1,0.1c-2.1,1.7-4.3,3.4-6.5,5.1c0.5,0.3,1,0.3,1.5,0.4c1.8,0.4,3.6,0.7,5.4,1.1c0.4,0.1,0.7,0.1,1.1-0.2
			c2.9-1.8,5.8-3.6,8.7-5.3c0.2-2.5-0.6-4.7-1.7-6.9c-2.1-4.2-5.3-7.9-8.7-11.1l-0.1-0.1c-0.8-0.7-2.2-1.9-2.2-2
			c-0.1-0.8,0.6-1.1,1.2-1.3c1-0.4,2-0.3,3.1-0.1c2.5,0.3,4.9,1.1,7.2,2c3.4,1.2,6.8,2.7,10.1,4.3c0.1,0.1,0.2,0.1,0.4,0.1
			c0.1,0,0.2-0.1,0.4-0.1c3.3-1.6,6.6-3,10.1-4.3c2.4-0.8,4.7-1.6,7.2-2c1-0.1,2.1-0.2,3.1,0.1c0.6,0.2,1.2,0.5,1.2,1.3
			c0,0.1-1.4,1.4-2.2,2c-0.1,0-0.1,0.1-0.1,0.1c-3.4,3.2-6.6,6.9-8.7,11.1c-1.1,2.2-1.9,4.4-1.7,6.9c2.9,1.8,5.8,3.6,8.7,5.3
			c0.4,0.2,0.7,0.3,1.1,0.2c1.8-0.4,3.6-0.7,5.4-1.1c0.5-0.1,1-0.1,1.5-0.4c-2.2-1.7-4.4-3.4-6.5-5.1c0.4-0.1,0.7-0.1,1-0.1
			c3.6,0.6,7.2,1.2,10.8,1.8c0.3,0,0.6,0.1,0.8-0.1c1.2-1.1,2.2-2.4,2-4.2c-0.1-1.4-0.7-1.9-2.1-2.1c-2.4-0.2-4.7-0.5-7.1-0.7
			C71.3,79,70.2,79,69,78.6c0.4-0.2,0.7-0.3,1.1-0.4c3.2-0.8,6.4-1.6,9.6-2.3c0.5-0.1,0.7-0.3,0.6-0.9c-0.1-1-0.2-2-0.3-3.1
			c-0.2-1.8-0.3-3.6-0.6-5.4c-1-0.8-1.7-1.9-2.4-2.8c-2.4-3.2-4.6-6.7-6.7-10.1c-0.1-0.2-0.6-1.1-0.7-1.3c-0.1-0.3,0.3,0,0.7,0.2
			c0.1,0,0.2,0.1,0.3,0.1c3.4,0.6,6.5-0.4,9.5-1.6c4-1.6,7.6-4,11-6.7c1-0.8,2-1.6,3-2.5c0.3-0.3,0.6-0.5,1-0.7
			C95.3,40.5,94.8,40.3,94.5,40z"/>
		<path class="st6" d="M59.7,104c-0.2-0.3-0.4-0.6-0.7-0.9c-0.5,0.5-0.8,1.1-1.1,1.6c-0.3,0.6-0.8,1.1-1.3,1.5
			c-0.6,0.4-0.9,0.3-1-0.4c-0.5-3.7-2.4-6.4-5.2-8.8c-0.7-0.6-1.4-1.2-2.2-1.7c-0.3-0.2-0.5-0.3-0.8-0.3s-0.5,0.1-0.8,0.3
			c-0.7,0.6-1.5,1.1-2.2,1.7c-2.7,2.3-4.7,5.1-5.2,8.8c-0.1,0.7-0.5,0.8-1,0.4s-0.9-0.9-1.3-1.5c-0.3-0.5-0.5-1.1-1.1-1.6
			c-0.3,0.3-0.5,0.6-0.7,0.9c-1.3,1.7-2.4,3.5-3.8,5.1c-0.4,2.8-0.4,5.5,0.5,8.2c1.1,3.4,3.6,5.6,7.1,7c-0.5-1.8-0.9-3.4-1.4-5.1
			c0.5,0,0.7,0.4,1,0.6c2.6,2,5.1,3.9,7.7,5.9c0.6,0.4,0.7,0.6,1,0.4c0.4,0.2,0.4,0,1-0.4c2.6-2,5.1-3.9,7.7-5.9
			c0.3-0.2,0.5-0.5,1-0.6c-0.4,1.7-0.9,3.3-1.4,5.1c3.5-1.4,6-3.5,7.1-7c0.9-2.7,0.9-5.4,0.5-8.2C62.2,107.5,61,105.7,59.7,104z"/>
		<path class="st7" d="M91.2,44.2c-3.4,2.6-7,5.1-11,6.7c-3,1.2-6.2,2.2-9.5,1.6c-0.1,0-0.3-0.1-0.3-0.1c-0.5-0.2-0.9-0.5-0.7-0.2
			c0.1,0.2,0.6,1.1,0.7,1.3c2.1,3.5,4.2,6.9,6.7,10.1c0.7,1,1.4,2.1,2.4,2.8c0-0.4,0-0.7,0-1.1c-0.2-2.3-0.4-4.6-0.7-6.8
			c-0.1-0.8,0.1-1.3,0.8-1.7c3.8-2.6,7.4-5.5,10.7-8.8c1.6-1.6,3-3.2,4.2-5.2c0.3-0.6,0.8-1.1,0.8-1.8c-0.4,0.2-0.7,0.4-1,0.7
			C93.2,42.6,92.2,43.4,91.2,44.2z"/>
		<path class="st7" d="M66.4,46.6c0.6,0.1,1.2,0.2,1.8,0.3c3.3,0.5,6.3-0.3,9-2.3c1.7-1.2,2.8-2.8,3.7-4.5c1.6-3.2,2.3-6.7,2.5-10.3
			c-1.9,0.8-3.7,2-5.6,3c-0.3,0.2-0.4,0.5-0.4,0.9c0,2.3-1.1,4.2-2.6,5.8c-2.1,2.3-4.8,3.1-7.8,3c-1.3,0-1.3,0-1.4,1.3
			c0,0.2-0.1,1.9-0.1,2.4l0,0C65.5,46.6,66,46.6,66.4,46.6z"/>
		<path class="st7" d="M58.5,78.6c2.1-4.2,5.3-7.9,8.7-11.1l0.1-0.1c0.5-0.5,1.6-1.4,2.2-2c0,0-7.6,3-12.7,6.5
			c-0.2,0.2-2.6,2.4-2.8,2.7c-1.8,1.9-2.9,4.4-2.8,7c0,0.4-0.1,0.6,0.3,0.9c1.8,1,3.5,2.1,5.2,3.1C56.6,83.1,57.4,80.8,58.5,78.6z"
			/>
		<path class="st6" d="M72,33.5c-2,0.2-3.5,1.5-4.1,3.6c-0.4,1.3-0.4,1.4,1,1.4c2.6,0,4.1-1.4,4.1-4C73,33.5,73,33.4,72,33.5z"/>
		<path class="st7" d="M36.1,103.1c0.5,0.5,0.8,1.1,1.1,1.6c0.3,0.6,0.8,1.1,1.3,1.5c0.6,0.4,0.9,0.3,1-0.4c0.5-3.7,2.4-6.4,5.2-8.8
			c0.7-0.6,1.4-1.2,2.2-1.7c0.3-0.2,0.5-0.3,0.8-0.3s0.5,0.1,0.8,0.3c0.7,0.6,1.5,1.1,2.2,1.7c2.7,2.3,4.7,5.1,5.2,8.8
			c0.1,0.7,0.5,0.8,1,0.4s0.9-0.9,1.3-1.5c0.3-0.5,0.5-1.1,1.1-1.6c0.3,0.3,0.5,0.6,0.7,0.9c1.3,1.7,2.4,3.5,3.8,5.1
			c0-0.5-0.1-1.1-0.2-1.6c-0.6-2.7-1.9-5-3.4-7.2c-2-2.9-4.5-5.5-7.2-7.8c-1.5-1.3-3.1-2.5-4.8-3.7c-0.1-0.1-0.2-0.1-0.3-0.2
			c-0.1,0-0.2,0.1-0.3,0.2c-1.7,1.1-3.3,2.4-4.8,3.7c-2.7,2.3-5.2,4.9-7.2,7.8c-1.5,2.2-2.8,4.6-3.4,7.2c-0.1,0.5-0.2,1.1-0.2,1.6
			c1.4-1.6,2.5-3.4,3.8-5.1C35.6,103.7,35.8,103.5,36.1,103.1z"/>
		<path class="st7" d="M18.2,63.6c2.4-3.2,4.6-6.7,6.7-10.1c0.1-0.2,0.6-1.1,0.7-1.3c0.1-0.3-0.3,0-0.7,0.2c-0.1,0-0.2,0.1-0.3,0.1
			c-3.4,0.6-6.5-0.4-9.5-1.6c-4-1.6-7.6-4-11-6.7c-1-0.8-2-1.6-3-2.5c-0.3-0.3-0.6-0.5-1-0.7c0,0.7,0.5,1.3,0.8,1.8
			C2,44.8,3.4,46.5,5,48c3.3,3.3,6.9,6.2,10.7,8.8c0.7,0.5,0.9,0.9,0.8,1.7c-0.3,2.3-0.5,4.5-0.7,6.8c0,0.4,0,0.7,0,1.1
			C16.7,65.7,17.4,64.6,18.2,63.6z"/>
		<path class="st7" d="M17.9,44.6c2.7,1.9,5.7,2.7,9,2.3c0.6-0.1,1.2-0.2,1.8-0.3c0.4-0.1,0.9,0,0.9-0.4l0,0c0-0.5-0.1-2.2-0.1-2.4
			c-0.1-1.3-0.1-1.3-1.4-1.3c-3,0.1-5.7-0.7-7.8-3c-1.5-1.6-2.6-3.5-2.6-5.8c0-0.4-0.1-0.7-0.4-0.9c-1.8-1-3.6-2.1-5.6-3
			c0.2,3.6,0.9,7,2.5,10.3C15.1,41.9,16.3,43.4,17.9,44.6z"/>
		<path class="st7" d="M28,67.6c3.4,3.2,6.6,6.9,8.7,11.1c1.1,2.2,1.9,4.4,1.7,6.9c1.7-1,3.5-2.1,5.2-3.1c0.4-0.2,0.3-0.4,0.3-0.9
			c0.1-2.5-0.9-5-2.8-7c-0.2-0.2-2.6-2.5-2.8-2.7c-5.1-3.5-12.7-6.5-12.7-6.5c0.6,0.6,1.7,1.5,2.2,2C27.9,67.5,27.9,67.5,28,67.6z"
			/>
		<path class="st6" d="M26.3,38.5c1.4,0,1.4-0.1,1-1.4c-0.6-2.1-2.1-3.4-4.1-3.6c-1-0.1-1.1,0-1,0.9C22.2,37.1,23.6,38.5,26.3,38.5z
			"/>
	</g>
</g>
</svg>
